<svg xmlns="http://www.w3.org/2000/svg" xml:space="preserve" viewBox="0 0 215 220"><path d="M187.377 130.75c1.596-2.41 2.166-5.138 2.004-8.004-.385-6.8-4.35-12.972-5.372-19.725-.882-5.829-1.479-11.679-4.192-17.012-2.005-3.941-4.9-7.293-7.649-10.721-3.28-4.088-6.018-8.603-9.464-12.549-3.465-3.969-7.445-7.503-11.678-10.631-9.285-6.86-20.561-12.496-32.401-11.301-2.508.364-5.007.869-7.421 1.622l-.049-.008c-6.944-.962-13.913-1.647-20.923-1.84-11.041-.082-21.065 4.978-29.155 12.225-3.946 3.535-7.493 7.513-10.756 11.68-3.016 3.852-5.568 8.092-8.755 11.802-2.054 2.391-4.675 4.287-6.617 6.765-2.166 2.765-2.706 6.224-2.936 9.639-.218 3.233-.011 6.483-.495 9.696-.564 3.747-1.595 7.426-2.92 10.971-2.128 5.696-4.856 12.348-1.248 18.068 1.159 1.838 2.547 3.125 2.676 5.438.121 2.178-.783 4.201-1.164 6.313-.456 2.529-.172 4.97.699 7.387 1.765 4.904 5.611 10.09 11.109 10.807 1.278.167 4.094-.248 4.503-1.809 1.092-4.163.986-8.545 1.068-12.818.095-4.905.689-9.573 1.755-14.366 2.245-10.098 5.908-19.976 11.304-28.826 5.613-9.206 12.981-16.845 22.009-22.74 7.956-5.195 16.078-10.083 23.985-15.356 3.038 1.175 6.133 2.209 8.911 3.99 10.835 6.945 22.765 13.011 31.741 22.399 8.45 8.838 14.382 19.8 18.214 31.355 2.044 6.164 3.796 12.714 4.375 19.2.542 6.068-.271 12.336 1.289 18.288.223.852 1.761.761 2.374.681 4.663-.608 8.446-3.506 10.965-7.393 2.933-4.525 3.698-8.928 2.46-14.115-.383-1.605-.941-3.329-.615-4.998.323-1.654 1.477-2.769 2.369-4.114M76.044 80.605c-16.839 11.414-27.532 29.104-32.642 48.582-1.363 5.196-2.475 10.503-2.657 15.883-.131 3.87.034 7.836-.455 11.699-2.446-1.924-4.217-5.047-5.178-7.79a127.6 127.6 0 0 1 3.749-23.92c1.912-7.464 4.468-15.9 9.974-21.566.577-.593-.517-.597-.87-.584-.744.026-1.938.317-2.486.88-5.654 5.818-8.31 14.255-10.276 21.932a132 132 0 0 0-1.251 5.423c-1.003-1.506-2.105-2.899-2.51-4.819-.718-3.405.171-6.812 1.306-10.014 2.102-5.933 4.399-11.749 4.654-18.131.172-4.287-.305-9.13 1.501-13.173 1.002-2.242 2.952-3.748 4.673-5.416 6.01-5.825 10.105-13.316 15.611-19.604 7.391-8.442 17.016-16.541 28.825-16.454 5.816.16 11.587.712 17.346 1.446-.3.171-.618.298-.912.482-1.779 1.112-3.429 2.406-4.994 3.799-.183.162-.408.349-.656.55-3.483-.831-7.217-.528-10.694.17-3.423.687-7.199 1.684-10.138 3.654-.575.385-.486.737.209.78.823.051 1.935-.241 2.625-.703 1.794-1.202 4.268-1.933 6.602-2.402 3.034-.61 6.342-.802 9.323.192-.926.791-1.806 1.635-2.275 2.412a35 35 0 0 0-3.39.766c-8.823 2.503-16.383 7.824-23.322 13.658-.683.574.609.638.888.65.809.037 1.864-.379 2.481-.898 6.942-5.836 14.244-10.805 23.013-12.707.162 1.497 1.426 3.491 2.145 4.446 1.21 1.607 2.861 2.741 4.621 3.678.339.18.686.341 1.031.506-8.524 5.69-17.396 10.849-25.871 16.593m106.441 49.765c-.204.344-.418.668-.633.985-2.474-10.169-4.764-20.678-12.251-28.337-.644-.659-4.033.706-3.502 1.248 8.542 8.737 10.212 21.417 13.245 32.833-.001 2.989 1.532 5.754 1.457 8.743-.082 3.271-2.302 9.544-5.706 11.832-.7-3.585-.695-7.292-.761-10.929-.081-4.513-.526-8.819-1.445-13.243-1.963-9.455-5.166-18.703-9.8-27.188-4.397-8.053-10.043-15.462-17.069-21.4-8.058-6.81-17.681-11.646-26.437-17.466-5.931-3.942-15.307-4.708-18.808-11.166 7.782.197 15.005 1.36 22.296 4.669 8.764 3.977 16.992 9.282 24.508 15.272.959.764 4.368-.682 3.46-1.406-7.84-6.248-16.487-11.818-25.672-15.878-8.246-3.645-16.502-4.625-25.399-4.643-.044-.146-.092-.289-.131-.44 2.299-2.289 4.62-4.639 7.293-6.478 3.221-2.216 6.846-3.16 10.673-3.716 9.566-.965 19.396 4.389 26.919 9.751 7.674 5.47 13.263 11.986 18.784 19.499 5.371 7.309 11.424 13.326 13.485 22.467 1.301 5.773 1.443 11.667 3.46 17.284 1.949 5.425 5.36 12.095 2.034 17.707" style="fill:#122a89"/></svg>