<svg xmlns="http://www.w3.org/2000/svg" xml:space="preserve" viewBox="0 0 215 220"><path d="M53.101 71.143c-12.021-.921-21.005 2.597-27.48 10.742-6.311 7.933-7.159 20.054-4.736 27.928 2.484 8.075 9.073 14.228 17.197 16.058 2.853.644 5.173 1.129 7.014 1.129 1.806 0 3.152-.467 4.094-1.707 1.023-1.349.958-3.159.9-4.755a20 20 0 0 1-.016-1.36c.675-.015 1.661.03 2.39.064 3.145.143 4.834.167 5.757-.94 1.166-1.393 1.25-3.722 1.334-5.975.019-.495.042-1.131.084-1.664a63 63 0 0 1 1.86-.011c3.617-.004 5.841-.046 7.042-1.125.951-.855 1.007-2.353.911-5.566l-.016-.487c.341-.04.916-.071 1.916-.056.498.008.956.029 1.379.049 2 .09 4.276.199 5.206-2.136.815-2.056.741-6.512.206-9.462-2.053-11.233-12.35-19.756-25.042-20.726M74.768 99.86c-.252.1-1.15.057-1.872.025a49 49 0 0 0-1.484-.054c-1.991-.027-5.358-.088-5.559 2.86-.016.243-.007.752.012 1.38.016.605.058 2.012-.002 2.812-1 .187-3.115.185-4.358.182-1.367-.009-2.687-.005-3.598.123a1.79 1.79 0 0 0-1.395 1.053c-.437.99-.486 2.365-.544 3.957-.037.995-.1 2.726-.357 3.504-.703.057-2.098-.002-2.984-.043-3.098-.138-4.97-.228-5.701 1.327-.516 1.089-.467 2.408-.423 3.682.03.796.077 2.127-.173 2.457-.603.796-5.063-.213-7.458-.752-5.386-1.214-12.038-5.427-14.557-13.614-2.094-6.805-1.365-17.753 4.115-24.639 5.138-6.458 11.858-9.532 20.975-9.532q1.658 0 3.425.136c11.066.845 20.022 8.161 21.779 17.793.56 3.077.364 6.549.159 7.343" style="fill:#122a89"/><path d="M54.314 94.981c1.484-.569 4.495-1.404 6.06-2.015 1.515-.592.223-1.507-2.847-2.562s-8.907-1.32-8.907-1.32c1.381-.437 6.588-1.43 8.022-1.821 1.236-.337-.639-1.726-2.938-2.368-2.468-.688-4.474-1.14-8.215-1.321 4.636-2.341 6.954-2.171 6.954-3.236 0-.569-2.806-1.952-6.755-1.706-5.408.337-10.374 1.736-15.127 8.743-2.54 3.744-3.874 8.776-3.661 12.771.342 6.396 1.871 11.266 8.867 15.863 3.64 2.392 7.146 2.412 7.606 2.237 1.393-.529.903-3.391 1.18-4.393.213-.773.488-1.79 1.685-1.853l1.866-.076c1.036-.042 3.217.208 4.218-.104 1.052-.327.704-2.19.732-3.295.041-1.586.451-2.703.488-3.049.416-.7 1.201-.998 2.005-1.09 1.203-.138 3.966-.197 5.153-.497 1.092-.276.645-3.379.176-4.42-.707-1.57-3.671-4.373-6.562-4.488m135.065-13.096c-6.475-8.144-15.479-11.643-27.48-10.742-12.692.97-22.989 9.493-25.041 20.73-.535 2.949-.61 7.404.206 9.463.928 2.333 3.199 2.224 5.206 2.133.423-.02.881-.041 1.379-.049 1.005-.015 1.575.016 1.916.056-.005.146-.012.311-.016.487-.096 3.213-.04 4.71.914 5.568 1.201 1.077 3.425 1.133 7.04 1.123.636-.008 1.29-.005 1.86.011.042.533.065 1.168.084 1.664.084 2.252.168 4.582 1.334 5.975.923 1.108 2.61 1.083 5.757.94a49 49 0 0 1 2.388-.064c.016.436-.002.973-.016 1.358-.056 1.597-.121 3.408.902 4.756.942 1.241 2.287 1.707 4.096 1.707 1.841 0 4.159-.484 7.012-1.127 8.124-1.83 14.713-7.983 17.197-16.058 2.421-7.878 1.573-19.999-4.738-27.931m1.306 26.873c-2.519 8.187-9.171 12.4-14.557 13.614-2.395.54-6.86 1.546-7.458.751-.25-.329-.203-1.662-.175-2.458.047-1.275.093-2.591-.418-3.678-.54-1.143-1.692-1.401-3.493-1.401-.65 0-1.388.034-2.21.071-.888.041-2.278.1-2.984.043-.257-.779-.32-2.509-.357-3.504-.058-1.592-.107-2.967-.544-3.957a1.8 1.8 0 0 0-1.395-1.053c-.914-.129-2.234-.139-3.598-.123-1.255.008-3.486.007-4.353-.134-.068-.791-.026-2.242-.007-2.86.019-.627.028-1.137.012-1.375-.201-2.952-3.563-2.894-5.559-2.865a46 46 0 0 0-1.484.054c-.724.033-1.622.075-1.703.126-.374-.945-.57-4.417-.009-7.494 1.757-9.632 10.713-16.949 21.779-17.794 10.879-.832 18.638 2.154 24.4 9.396 5.478 6.888 6.207 17.835 4.113 24.641" style="fill:#122a89"/><path d="M169.312 78.632c-3.949-.246-6.755 1.137-6.755 1.706 0 1.065 2.318.895 6.954 3.236-3.741.181-5.747.632-8.215 1.321-2.299.641-4.175 2.031-2.938 2.368 1.435.391 6.641 1.383 8.022 1.821 0 0-5.837.265-8.907 1.32s-4.362 1.97-2.847 2.562c1.565.611 4.577 1.446 6.06 2.015-2.89.116-5.854 2.919-6.562 4.487-.469 1.041-.916 4.144.176 4.42 1.187.3 3.949.36 5.153.497.805.092 1.589.39 2.006 1.09.037.346.448 1.463.488 3.049.028 1.104-.32 2.967.732 3.295 1.001.312 3.182.062 4.218.104l1.866.076c1.197.064 1.472 1.081 1.685 1.853.277 1.002-.213 3.864 1.18 4.393.46.175 3.965.155 7.606-2.237 6.996-4.596 8.525-9.467 8.867-15.863.214-3.996-1.121-9.027-3.661-12.771-4.754-7.006-9.72-8.405-15.128-8.742" style="fill:#122a89"/></svg>