<svg xmlns="http://www.w3.org/2000/svg" xml:space="preserve" viewBox="0 0 215 220"><path d="M116.895 116.983c-.018-.091-.062-.165-.094-.247-.461-1.244-2.075-1.703-3.356-1.714-.184-.002-.259 0-.289.003l-.116-.009a34 34 0 0 1-1.054-.089 27 27 0 0 1-2.162-.322 19 19 0 0 1-1.703-.388 32 32 0 0 1-2.195-.727c-2.762-1.038-5.261-2.418-7.415-4.548-3.67-3.63-3.996-9.165-4.015-14.268.003-.83-.001-1.659-.001-2.484 0-1.152-.697-1.966-1.637-2.376a3.8 3.8 0 0 0-1.855-.287 6.2 6.2 0 0 0-1.96.548q-.336.155-.645.352c-.822.525-1.451 1.272-1.451 2.231.001 3.255.055 6.549-.483 9.771-.231 1.381-.582 2.633-1.182 3.934-.322.7-.467.982-.884 1.566q-.338.471-.715.913c.011-.013-.41.444-.488.541-.512.505-1.077.969-1.649 1.403-.304.231-.618.446-.928.667-.141.1-.196.143-.218.163a6 6 0 0 0-.268.146c-.674.385-1.353.754-2.054 1.087q-.527.249-1.064.477c-.079.033-.486.191-.644.255a28.5 28.5 0 0 1-4.058 1.12q-.188.037-.376.071l-.062.008a25 25 0 0 1-3.313.244c-1.688.014-3.895 1.301-4.056 3.13-.173 1.966 1.92 2.676 3.493 2.663 1.206-.01 2.432-.124 3.66-.284 1.073.257 2.145.565 3.169.958 2.87 1.101 5.565 2.648 7.747 4.835 3.803 3.813 4.349 9.21 4.421 14.408a158 158 0 0 0-.026 2.995c0 .112.027.207.041.31v.372c0 .165.11.299.254.417.577.959 1.908 1.328 3.099 1.196 1.37-.152 4.112-1.107 4.112-2.921-.001-5.848-.375-12.762 4.02-17.167 1.804-1.808 4.06-3.064 6.782-4.077.137-.043.583-.196.654-.218a28 28 0 0 1 3.121-.8l.041-.008q.2-.032.4-.06c.235-.033.47-.058.706-.085q1.351.119 2.684.13c1.686.014 3.897-1.32 4.056-3.13a2.4 2.4 0 0 0-.044-.705M92.86 123.39c-.69.644-1.29 1.325-1.828 2.031-.593-.849-1.257-1.669-2.077-2.422-2.379-2.186-5.25-3.833-8.32-4.994 2.832-1.264 5.463-2.917 7.637-4.971a19 19 0 0 0 2.177-2.48c.698 1.014 1.466 1.986 2.388 2.861 2.207 2.097 4.857 3.703 7.703 4.894-2.828 1.312-5.459 3.008-7.68 5.081m57.573 6.341c-.019-.083-.059-.15-.088-.225-.461-1.248-1.934-1.711-3.287-1.732q-.257-.018-.513-.043-.642-.069-1.277-.19c-.217-.041-.432-.092-.649-.137l-.006-.001a17 17 0 0 1-2.56-.964c-.13-.061-.346-.199-.514-.264l-.166-.098q-.579-.352-1.12-.762c-.114-.086-.814-.756-.966-.832l-.123-.135a8 8 0 0 1-.422-.539c-.22-.307-.467-.665-.622-1.024a4 4 0 0 0-.083-.238 9 9 0 0 1-.211-.628 12 12 0 0 1-.311-1.306c-.083-.454-.136-.91-.189-1.367l-.005-.035c0-.015.002.002.001-.026-.007-.239-.027-.478-.036-.717-.04-1.028-.035-2.058-.035-3.087 0-.889-.421-1.572-1.043-2.028a3.5 3.5 0 0 0-1.81-.642 4 4 0 0 0-.64.007 6 6 0 0 0-.799.147c-.38.094-.776.222-1.161.401q-.336.155-.645.352c-.822.525-1.451 1.271-1.451 2.231 0 1.922.033 3.867-.285 5.77-.037.224-.085.444-.128.667l-.015.087-.008.024c-.134.421-.28.835-.465 1.237-.043.094-.229.384-.272.527l-.073.107a8 8 0 0 1-.422.539l-.066.074c-.218.117-.804.718-.935.817-.174.132-.355.254-.532.382-.392.215-.779.434-1.183.626q-.311.147-.628.282l-.01.004c-.787.16-1.561.495-2.357.655q-.246.033-.492.059-.66.064-1.324.068c-1.612.013-4 1.304-4.056 3.13-.06 1.968 1.829 2.677 3.493 2.663a19.5 19.5 0 0 0 2.56-.214c.122.042.246.078.368.124 1.824.7 3.023 1.374 4.377 2.732 2.042 2.047 2.43 4.991 2.501 7.88q-.026.976-.025 1.949c0 .112.027.206.041.31v.372c0 .165.11.299.254.418.577.959 1.908 1.328 3.099 1.195.976-.108 2.012-.394 2.795-1.012.561-.442 1.317-1.13 1.317-1.91 0-1.922-.033-3.867.285-5.77.074-.445.176-.881.289-1.317l.018-.074c.012-.028.02-.043.036-.086.083-.205.161-.409.254-.609a8 8 0 0 1 .469-.876c.056-.088.067-.11.051-.09.241-.287.634-.706.699-.771l.157-.154c.081-.075.075-.071.097-.092.123-.09.249-.176.267-.19.231-.175.902-.477 1.084-.726l.008-.005q.304-.16.615-.308c.337-.16.712-.286 1.055-.447l.11-.036q.324-.102.651-.192c.321-.088.646-.157.971-.228.705.071 1.408.119 2.101.125 1.61.013 4.001-1.322 4.056-3.13a2.5 2.5 0 0 0-.071-.704m-16.542 3.402c-.014-.013-.023-.028-.038-.041-1.072-.985-2.308-1.78-3.628-2.424a16.6 16.6 0 0 0 2.833-2.125c.029-.027.05-.058.079-.086.147.153.273.32.429.467.913.863 1.945 1.585 3.047 2.196a19.4 19.4 0 0 0-2.722 2.013m4.552 3.725c-.016-.016.072-.129.186-.265a8 8 0 0 0-.186.265m.889-1.058c-.007-.028.115-.127.243-.221zm-26.238-46.152c.682-.005 1.368-.108 2.052-.207.193.077.389.145.578.231.395.18.773.386 1.151.598l.01.006q.14.093.28.19.222.157.437.326a7.8 7.8 0 0 1 1.643 1.773c.832 1.533 1.061 3.257 1.119 4.992a138 138 0 0 0-.008 1.702c0 .171.015.328.04.48l.001.202c0 .116.067.214.146.307l.015.032c.009.01.01.021.02.03.138.272.344.511.654.721.675.458 1.728.61 2.518.522.976-.108 2.012-.394 2.795-1.012.561-.442 1.317-1.13 1.317-1.91 0-1.905-.018-3.852.48-5.704.128-.343.256-.687.436-1.007.031-.055.067-.118.106-.179-.105.147-.254.31-.059.068l.061-.071c.028-.044.063-.085.076-.128a.6.6 0 0 1-.073.124c.137-.169.273-.337.423-.495q.125-.127.251-.251c.025-.025.015-.017.031-.033.124-.086.25-.167.287-.193.173-.127.353-.243.532-.361.047-.022.091-.051.134-.073.389-.202.791-.369 1.195-.536l.069-.022q.35-.108.703-.198l.176-.04c.628.064 1.254.109 1.871.114.916.007 2.08-.477 2.787-1.042.58-.464 1.245-1.295 1.269-2.089a2.6 2.6 0 0 0-.072-.704c-.019-.081-.057-.146-.085-.219-.426-1.164-1.729-1.644-3.002-1.721l-.026-.003c-.168-.014-.336-.025-.504-.043a13 13 0 0 1-1.034-.154q-.217-.044-.432-.091c-.359-.112-.716-.223-1.067-.358q-.52-.2-1.023-.442l-.079-.039c-.097-.055-.276-.155-.328-.187-.549-.342-1.044-.754-1.52-1.19a7 7 0 0 1-.823-1.175c-.371-.927-.568-1.898-.671-2.89a54 54 0 0 1-.068-2.98c0-.691-.251-1.261-.655-1.694a2.8 2.8 0 0 0-.451-.388 3.55 3.55 0 0 0-1.746-.588 4 4 0 0 0-.64.007c-.982.091-2.026.387-2.787 1.042a7 7 0 0 0-.449.424c-.44.463-.82 1.036-.82 1.665 0 1.724.01 3.468-.343 5.162-.112.367-.222.734-.387 1.081l-.105.207c-.128.179-.252.361-.396.529l-.065.081c-.181.159-.362.318-.553.466-.15.117-.307.223-.462.332q-.09.053-.183.105c-.406.223-.827.412-1.252.594l-.085.029a14 14 0 0 1-1.437.38c-.469.053-.936.094-1.409.098-.927.008-2.068.467-2.787 1.042-.58.464-1.245 1.295-1.269 2.089-.061 1.971 1.828 2.68 3.492 2.666m10.615-3.828c.573.532 1.204.992 1.867 1.405-.375.254-.741.517-1.092.798-.614-.496-1.253-.953-1.952-1.328a13 13 0 0 0 1.177-.875" style="fill:#122a89"/><path d="m128.885 91.743.005-.007-.004.004z" style="fill:#122a89"/></svg>