<svg xmlns="http://www.w3.org/2000/svg" xml:space="preserve" viewBox="0 0 215 220"><path d="M193.755 126.629c-.632-1.793-1.453-3.462-1.923-5.317-.33-1.3-.486-2.656-.877-3.939-.705-2.318-2.461-3.694-4.736-4.441-.435-.143-.887-.227-1.339-.311q-.309-.68-.603-1.336c-5.424-12.055-11.88-23.832-21.93-32.741-7.182-6.367-17.361-9.15-26.555-10.974-11.942-2.369-24.289-2.965-36.433-2.337-11.1.574-22.465 2.121-32.927 6.02C55.276 75.41 46.08 84.139 39.064 93.589c-2.799 3.771-5.107 7.835-6.977 12.138-.939 2.16-2.761 5.099-3.323 7.79-2.05.983-3.621 2.467-4.6 4.568-1.558 3.344-2.582 7.497-3.17 11.117-.494 3.038-.654 6.878 1.444 9.399 1.74 2.091 4.844 2.158 7.332 2.629 14.505 2.749 29.146 4.683 43.873 5.737 19.197 1.374 38.533 1.44 57.758.647 14.086-.581 28.09-2.027 41.941-4.682a406 406 0 0 0 9.646-1.993c.299-.049.562-.109.716-.148a5 5 0 0 0 .4-.116c6.179-1.711 12.097-7.102 9.651-14.046M34.139 108.533c1.452-3.435 2.963-6.817 4.921-10.001 3.427-5.574 7.89-10.505 12.682-14.933 3.814-3.523 7.617-6.715 12.352-8.881 9.107-4.165 19.392-5.825 29.292-6.708 11.303-1.007 22.754-.817 34.002.708 9.582 1.3 19.732 3.445 28.106 8.513 4.84 2.929 8.539 7.279 12.061 11.643a84.4 84.4 0 0 1 10.304 16.275c1.117 2.309 2.15 4.658 3.202 6.997l.1.226c-.712.018-1.421.049-2.112.088-4.208.235-8.404.76-12.592 1.214-32.675 3.545-65.64 4.39-98.435 1.951-8.812-.655-17.556-1.744-26.318-2.853-3.054-.387-6.272-.844-9.343-.372.532-1.304 1.228-2.566 1.778-3.867m149.063 30.387c-29.304 6.392-59.159 7.563-89.079 6.686-15.548-.455-31.074-1.764-46.457-4.08-5.842-.88-11.679-1.865-17.469-3.039-8.024-1.626-3.771-13.434-2.195-18.539.694-2.249 1.428-3.936 3.312-5.348.05-.037.201-.074.327-.079 1.709-.071 2.856.009 4.811.226 7.015.775 13.989 1.825 21.019 2.488 30.619 2.884 61.768 2.839 92.394.168 9.11-.794 18.207-2.193 27.339-2.68 2.473-.132 4.496-.287 6.603.934 2.121 1.229 2.392 3.247 2.864 5.458.74 3.468 3.1 6.94 2.795 10.518-.294 3.438-2.934 6.45-6.264 7.287" style="fill:#122a89"/><path d="M42.108 119.253c-.796-.052-1.631.279-2.112.917-.952 1.26-1.692 2.663-2.37 4.085-.616 1.291-1.265 2.61-1.691 3.978-.762 2.447-1.208 5.49-.516 8.001.345 1.251 3.562.391 3.216-.862-.651-2.362-.185-5.188.531-7.485.383-1.23.984-2.413 1.54-3.572.663-1.382 1.388-2.743 2.314-3.969.475-.629-.407-1.059-.912-1.093m11.858 2.064c-.486.091-1.645.301-1.897.834-1.037 2.195-1.694 4.611-2.325 6.947-.615 2.277-1.36 4.756-1.333 7.137.005.423 3.226-.017 3.216-.862-.027-2.358.713-4.799 1.328-7.052.621-2.277 1.265-4.63 2.277-6.77.23-.486-1.109-.264-1.266-.234m12.637.224c-.699-.202-1.784.036-2.274.609-1.788 2.091-2.58 4.879-3.088 7.532-.454 2.369-.717 4.825-.642 7.239.023.75.789.924 1.434.86.513-.051 1.824-.462 1.801-1.189-.072-2.29.168-4.614.572-6.866.415-2.311 1.042-5.082 2.554-6.851.45-.524.349-1.13-.357-1.334m12.928 3.089c-.472.088-1.666.306-1.895.842-.911 2.134-1.474 4.441-1.924 6.711-.437 2.208-.886 4.6-.563 6.853.08.557 3.326-.1 3.216-.862-.319-2.222.109-4.595.549-6.771.446-2.207 1-4.448 1.886-6.524.215-.501-1.094-.281-1.269-.249m13.983.844c-.7 2.104-1.242 4.271-1.796 6.417a108 108 0 0 0-.918 3.795c-.181.825-.399 1.679-.429 2.527-.062 1.716 3.209 1.284 3.264-.223.03-.828.24-1.661.416-2.467.271-1.244.578-2.48.895-3.713.556-2.164.977-3.891 1.654-5.927.595-1.787-2.616-1.821-3.086-.409m12.802-.376c-.009 4.917-.085 9.836 0 14.753.014.795.772 1.106 1.486 1.054.61-.044 1.786-.511 1.772-1.3-.085-4.917-.009-9.836 0-14.753.003-1.679-3.255-1.2-3.258.246m18.034-.597c-.183-.733-3.408.091-3.216.862.59 2.366.738 4.855.803 7.285.065 2.458.046 4.973-.363 7.404-.132.785 3.04.249 3.175-.555.416-2.465.466-4.997.41-7.491-.057-2.502-.201-5.069-.809-7.505m10.636-.01c.9 2.211.898 4.806.893 7.155-.005 2.467-.175 4.928-.321 7.389-.035.587 3.155.172 3.216-.862.146-2.461.316-4.922.321-7.389.005-2.349.007-4.944-.893-7.155-.351-.861-3.507.15-3.216.862m13.206-1.355c1.577 4.723 1.141 9.964 1.036 14.862-.011.49 3.196.07 3.216-.862.105-4.898.541-10.138-1.035-14.862-.248-.74-3.439.198-3.217.862m13.566-1.717c-.391.105-1.627.574-1.401 1.202a43.6 43.6 0 0 1 2.454 11.681c.046.658 1.457.436 1.815.34.543-.146 1.45-.512 1.401-1.202a43.6 43.6 0 0 0-2.455-11.681c-.23-.64-1.323-.471-1.814-.34m12.132-.9c-.416.111-1.626.603-1.388 1.253 1.347 3.685 3.256 7.373 3.593 11.336.058.684 1.438.496 1.828.392.568-.152 1.448-.543 1.388-1.253-.337-3.964-2.246-7.651-3.593-11.337-.241-.661-1.304-.531-1.828-.391M47.378 107.848c3.208-6.616 7.956-12.493 12.976-17.816 5.023-5.328 10.64-10.494 17.09-14.049.5-.276.863-.542.368-.935-.444-.352-1.851.162-2.255.385-6.689 3.687-12.546 8.895-17.788 14.403-5.249 5.514-10.234 11.654-13.572 18.54-.29.594 2.759.342 3.181-.528m10.548 2.891c-.416 1.356 2.853.962 3.242-.307 2.233-7.281 6.686-13.758 11.535-19.542 4.459-5.317 9.431-10.179 14.585-14.816.571-.513.233-1.161-.374-1.394-.757-.292-1.714.106-2.274.609-10.815 9.73-22.34 21.185-26.714 35.45m19.663.054c3.43-10.454 8.53-20.245 13.589-29.981.713-1.372-2.5-1.051-3-.089-5.138 9.888-10.324 19.845-13.808 30.462-.369 1.128 2.857.713 3.219-.392m16.711-1.849c1.84-12.3 3.818-24.579 5.685-36.874.048-.318-3.071-.097-3.216.862-1.867 12.296-3.845 24.575-5.685 36.874-.048.319 3.072.095 3.216-.862m16.558 0c-.68-11.392-.864-22.819-3.171-34.039-.199-.966-3.431-.181-3.216.862 2.307 11.22 2.491 22.647 3.171 34.039.053.884 3.283.262 3.216-.862m13.943 2.476c.25 1.346 3.477.54 3.216-.862a159.5 159.5 0 0 0-12.355-38.49c-.608-1.299-3.778-.34-3.216.862a159.6 159.6 0 0 1 12.355 38.49m14.696-.65c.198.863 3.427.059 3.216-.862-3.259-14.216-10.178-27.39-20.001-38.168-.62-.681-3.655.456-3.013 1.161a84.17 84.17 0 0 1 19.798 37.869m12.764-.012c.287 1.152 3.509.314 3.216-.862-3.312-13.292-10.662-25.395-20.94-34.452-.871-.767-3.887.478-2.982 1.275a67.03 67.03 0 0 1 20.706 34.039m11.759-5.266c.49 1.234 3.675.294 3.216-.862-3.675-9.256-9.579-17.515-17.192-23.939-.59-.498-1.478-.406-2.148-.105-.364.164-1.418.917-.824 1.419 7.481 6.313 13.334 14.386 16.948 23.487" style="fill:#122a89"/></svg>