<svg xmlns="http://www.w3.org/2000/svg" xml:space="preserve" viewBox="0 0 215 220"><path d="M76.031 89.203c-7.05-6.066-10.735-8.136-19.718-11.074-6.017-1.969-11.04-2.8-18.527-3.066-6.924-.252-11.191.245-13.406 1.552-3.151 1.862-2.613 10.081-2.011 14.815 1.521 11.951 4.27 21.662 8.652 30.561 2.754 5.592 6.475 9.009 9.57 9.009.551 0 1.082-.108 1.584-.331 3.714-1.649 4.289-6.89 4.669-10.356.061-.545.134-1.214.21-1.713.79-.029 2.071.026 2.995.068 3.582.163 5.498.194 6.505-1.015 1.304-1.56 1.401-4.223 1.496-6.798.024-.667.054-1.477.115-2.124.702-.022 1.516-.019 2.34-.018 4.15.027 6.695-.048 8.03-1.249 1.038-.935 1.097-2.638.987-6.301-.01-.279-.017-.531-.022-.738.37-.061 1.08-.116 2.437-.094 2.617.035 6.202.101 7.431-2.994 1.033-2.603-.09-5.34-3.337-8.134m-.143 6.752c-.193.484-1.377.662-3.887.631-2.398-.043-6.007-.101-6.234 3.124-.019.275-.007.853.015 1.565.022.749.076 2.535-.017 3.447-1.114.255-3.763.247-5.252.246-1.591-.001-3.09-.005-4.133.14a1.87 1.87 0 0 0-1.455 1.098c-.49 1.11-.546 2.686-.614 4.511-.044 1.216-.122 3.356-.47 4.245-.79.095-2.522.016-3.619-.035-3.49-.163-5.615-.258-6.412 1.421-.383.814-.509 1.964-.685 3.556-.268 2.455-.719 6.567-2.452 7.338-.543.108-3.512-1.255-6.292-6.905-4.194-8.515-6.831-17.85-8.296-29.379-.78-6.139-.314-10.456.2-11.119.86-.506 3.48-1.317 11.371-1.035 7.102.252 11.842 1.033 17.493 2.883 8.503 2.781 11.778 4.619 18.441 10.353 1.905 1.64 2.678 2.957 2.298 3.915" style="fill:#122a89"/><path d="M60.309 99.749a40.4 40.4 0 0 0-10.975-1.952l5.298-2.342c1.633-.722.93-2.847-.556-3.154l-11.288-2.335a25 25 0 0 1 5.509-1.09c1.703-.142 1.742-2.651.288-3.193-6.023-2.245-13.851-5.322-20.246-4.798-1.089.125-.485 3.23-.419 5.187.177 5.284 1.067 10.185 3.438 19.078.698 2.619 2.672 8.921 5.571 14.562.739 1.439 2.992 1.11 3.154-.556.367-3.765 3.976-6.494 7.687-5.964 1.176.168 1.85-.931 1.792-1.942-.318-5.556 4.771-9.341 10.014-8.289 1.852.371 2.501-2.633.733-3.212m130.308-23.134c-2.215-1.305-6.485-1.797-13.404-1.551-7.487.266-12.509 1.097-18.527 3.066-8.983 2.938-12.668 5.008-19.718 11.074-3.246 2.793-4.37 5.528-3.339 8.134 1.233 3.096 4.813 3.041 7.433 2.993 1.336-.029 2.064.032 2.437.094-.005.207-.015.459-.022.738-.112 3.664-.051 5.368.987 6.301 1.336 1.201 3.865 1.271 8.03 1.249.816-.001 1.635-.004 2.34.018.061.647.09 1.457.115 2.124.095 2.575.193 5.238 1.494 6.796 1.011 1.211 2.927 1.18 6.505 1.017.926-.044 2.213-.108 2.995-.068.078.503.151 1.171.212 1.713.38 3.468.953 8.706 4.667 10.356.502.223 1.033.33 1.584.33 3.095 0 6.819-3.417 9.573-9.009 4.382-8.899 7.128-18.611 8.649-30.56.604-4.733 1.145-12.951-2.011-14.815m-1.703 14.343c-1.465 11.527-4.102 20.862-8.293 29.379-2.781 5.65-5.71 7.039-6.278 6.91-1.747-.775-2.198-4.886-2.466-7.342-.175-1.593-.302-2.743-.687-3.559-.578-1.221-1.857-1.501-3.865-1.501-.748 0-1.596.039-2.547.083-1.094.05-2.822.13-3.617.035-.349-.888-.426-3.028-.47-4.245-.068-1.825-.124-3.401-.614-4.511a1.88 1.88 0 0 0-1.455-1.098c-1.043-.145-2.535-.141-4.133-.14-1.533.002-4.258.007-5.249-.207-.097-.899-.041-2.726-.02-3.486.022-.712.034-1.289.015-1.567-.227-3.222-3.838-3.172-6.234-3.122-2.505.04-3.695-.146-3.89-.63-.38-.959.395-2.276 2.301-3.916 6.663-5.733 9.938-7.572 18.441-10.353 5.652-1.85 10.392-2.631 17.493-2.883 7.908-.284 10.509.528 11.252.942.618.738 1.088 5.154.316 11.211" style="fill:#122a89"/><path d="M186.659 80.885c-6.395-.524-14.224 2.553-20.246 4.798-1.454.542-1.414 3.051.288 3.193 1.903.159 3.735.528 5.509 1.09L160.923 92.3c-1.486.307-2.189 2.432-.556 3.154l5.298 2.342a40.4 40.4 0 0 0-10.975 1.952c-1.768.579-1.119 3.583.733 3.212 5.242-1.052 10.332 2.733 10.014 8.289-.058 1.011.616 2.11 1.792 1.942 3.711-.53 7.319 2.199 7.687 5.964.163 1.666 2.415 1.995 3.154.556 2.899-5.642 4.872-11.944 5.571-14.562 2.371-8.893 3.261-13.794 3.438-19.078.065-1.957.67-5.061-.42-5.186" style="fill:#122a89"/></svg>