<svg xmlns="http://www.w3.org/2000/svg" xml:space="preserve" viewBox="0 0 215 220"><path d="M39.754 107.641c-.187-.748-.771-1.474-1.43-1.86-.667-.391-1.651-.556-2.399-.314-.753.244-1.48.711-1.861 1.431-.397.751-.523 1.563-.314 2.399l1.531 6.126c.187.748.771 1.474 1.431 1.86.667.391 1.651.556 2.399.314.753-.244 1.48-.711 1.861-1.431.397-.751.523-1.563.314-2.399zm13.785-3.063c-.147-.734-.803-1.493-1.431-1.861-.667-.391-1.651-.556-2.399-.314-.753.244-1.48.71-1.861 1.431-.407.771-.485 1.541-.313 2.399l1.531 7.658c.147.734.802 1.493 1.431 1.861.667.39 1.651.556 2.399.314.753-.244 1.48-.711 1.86-1.431.407-.771.485-1.541.314-2.399zm12.252 5.36a2.35 2.35 0 0 0-.557-1.059c-.014-.021-.04-.029-.053-.049l-1.235-2.699c-.305-.669-1.18-1.243-1.86-1.431-.745-.205-1.738-.113-2.399.314-.665.428-1.249 1.067-1.431 1.86l-.111.828q.003.843.425 1.571l2.372 5.186q.294.544.802.873.452.413 1.059.557l.828.111a2.34 2.34 0 0 0 1.199-.268c.598-.252 1.177-.683 1.489-1.274.367-.695.616-1.635.314-2.399q-.422-1.058-.842-2.121m88.546-2.297c-.187-.748-.771-1.474-1.43-1.86-.667-.391-1.651-.556-2.399-.314-.753.244-1.48.711-1.86 1.431-.397.751-.523 1.563-.314 2.399l1.531 6.126c.187.748.771 1.474 1.43 1.86.667.391 1.651.556 2.399.314.753-.244 1.48-.711 1.861-1.431.397-.751.523-1.563.314-2.399zm13.784-3.063c-.147-.734-.803-1.493-1.431-1.861-.667-.391-1.651-.556-2.399-.314-.753.244-1.48.71-1.861 1.431-.407.771-.485 1.541-.313 2.399l1.531 7.658c.147.734.802 1.493 1.431 1.861.667.39 1.651.556 2.399.314.753-.244 1.48-.711 1.861-1.431.407-.771.485-1.541.314-2.399zm13.093 7.483-.841-2.123a2.35 2.35 0 0 0-.557-1.059c-.014-.021-.04-.029-.053-.049l-1.235-2.699c-.305-.669-1.18-1.243-1.861-1.431-.745-.205-1.737-.113-2.399.314-.665.428-1.25 1.067-1.43 1.86l-.111.828q.002.843.425 1.571l2.372 5.186q.294.544.802.873.451.413 1.059.557l.828.111a2.34 2.34 0 0 0 1.199-.268c.598-.252 1.177-.683 1.489-1.274.366-.692.616-1.633.313-2.397" style="fill:#122a89"/></svg>