<svg xmlns="http://www.w3.org/2000/svg" xml:space="preserve" viewBox="0 0 215 220"><path d="M167.937 113.419c-2.309-5.581-7.022-10.46-11.474-14.381-16.919-14.901-40.384-19.643-62.26-15.705-17.248 3.105-35.352 12.112-45.021 27.31-1.085 1.705-2.241 3.628-2.638 5.64-.75 3.801 2.437 4.051 5.418 3.258 4.307-1.146 7.867-4.066 11.534-6.471 3.878-2.543 7.905-4.861 12.09-6.863 14.906-7.128 30.677-9.162 46.768-5.018 11.273 2.903 21.92 8.133 31.509 14.689 3.849 2.607 8.553 5.916 13.206 2.936 2.023-1.296 1.662-3.476.868-5.395m-116.048 4.32c-1.114.691-.556.266 0 0m107.225-3.743c-16.727-11.435-37.255-19.187-57.756-17.002-11.156 1.189-22.001 4.856-31.933 10.01a116 116 0 0 0-10.182 5.945c-.961.631-1.907 1.283-2.859 1.928-1.256.851-2.552 1.623-3.827 2.441l-.167.105c-.159-.483-.418-.885-.427-1.484-.053-3.771 3.868-8.241 6.116-10.877 5.112-5.995 11.602-10.885 18.662-14.353 19.676-9.663 44.292-8.442 63.292 2.282 7.185 4.055 13.895 9.473 18.845 16.118 1.457 1.956 2.937 4.106 3.739 6.431.089.257.105.51.137.765a59 59 0 0 1-3.64-2.309" style="fill:#122a89"/></svg>