<svg xmlns="http://www.w3.org/2000/svg" xml:space="preserve" viewBox="0 0 215 220"><path d="M130.017 101.717c-2.46-9.305-4.595-18.555-6.616-27.959-1.422-6.616-3.483-14.427-9.832-18.011-6.008-3.392-13.943-2.975-19.591.876-14.107 9.619-14.053 29.645-10.49 44.414.705 2.923 3.236 3.83 5.513 3.324 2.461-.547 4.627-2.746 3.864-5.909-1.488-6.168-2.714-13.309-1.33-19.578 1.235-5.59 4.106-13.451 10.197-15.351 8.074-2.519 10.556 5.203 11.969 11.339 1.965 8.538 3.587 17.056 5.886 25.525 1.768 6.512 3.841 13.18 4.158 19.963.31 6.636-1.391 12.791-3.279 19.088-1.374 4.584-1.733 11.861-5.617 15.175-2.043 1.743-6.888 3.028-9.371 1.815-2.708-1.322-3.189-5.821-3.754-8.396-.654-2.977-3.213-3.878-5.513-3.324-2.42.583-4.551 2.777-3.864 5.909 1.487 6.775 4.204 13.732 11.676 15.485 6.504 1.526 14.673-.931 19.002-6.025 3.987-4.691 4.828-11.13 6.461-16.855 1.996-6.996 4.077-13.863 4.024-21.219-.05-6.884-1.744-13.669-3.493-20.286" style="fill:#122a89"/></svg>