<svg xmlns="http://www.w3.org/2000/svg" xml:space="preserve" viewBox="0 0 215 220"><path d="M127.226 108.14c-.837-4.754-1.992-9.434-2.316-14.266-.299-4.47.234-9.107-1.579-13.337-2.137-4.988-6.639-7.975-11.796-9.27-6.297-1.581-14.669-.443-19.783 3.749-4.894 4.012-4.771 10.924-4.758 16.71.004 1.828 3.01 2.186 6.026 1.51 3.043-.682 6.096-2.416 6.091-4.757-.008-3.359-.21-8.08 1.731-11.01.543-.086 1.225-.037 1.687.006 1.728.161 3.528.922 4.96 1.88 6.199 4.148 4.838 12.256 5.371 18.657.6 7.198 2.725 14.152 3.252 21.37.453 6.212 1.551 17.261-3.343 22.249-4.051 4.128-13.973-4.072-14.118-8.925-.055-1.848-3.035-2.211-6.025-1.549-3.075.68-6.162 2.443-6.091 4.796.14 4.661 5.273 8.523 8.877 10.653 5.322 3.145 11.628 3.436 17.532 1.918 5.024-1.292 9.904-4.106 12.474-8.755 2.4-4.342 2.914-9.322 3.022-14.2.129-5.841-.2-11.67-1.214-17.429" style="fill:#122a89"/></svg>