<svg xmlns="http://www.w3.org/2000/svg" xml:space="preserve" viewBox="0 0 215 220"><path d="M127.656 128.985c5.298-11.352 5.402-24.717 4.229-37.348-.552-5.945-1.986-12.201-6.237-16.653-5.069-5.309-13.232-8.504-20.533-7.92-8.245.66-14.529 6.022-17.495 13.521-1.921 4.857-3.616 9.931-4.53 15.085-.512 2.887-1.091 6.71.206 9.485 1.117 2.39 3.611 3.123 6.066 2.79a9 9 0 0 0 1.115-.221c1.952-.523 6.216-3.074 4.935-5.815-1.942-4.156.65-10.952 2.034-15.071.925-2.752 1.799-5.754 3.349-8.239.501-.804 1.998-2.37 2.954-2.588 3.231-.738 8.736 2.163 11.224 4.769 3.166 3.315 4.093 8.056 4.621 12.45 1.214 10.108 1.513 21.59-2.195 31.373a14.3 14.3 0 0 0-5.374 1.046 2.432 2.432 0 1 0 1.843 4.501 10 10 0 0 1 1.075-.369 32 32 0 0 1-1.763 2.729c-1.417 1.935-3.007 3.789-4.874 5.304-1.819 1.477-2.824 2.129-4.612 2.702-1.161.372-2.089.573-2.802.632-.589.049-.888.044-1.293-.041-.376-.08-.589-.184-1.103-.554-.597-.43-.649-.472-1.281-1.379-3.618-5.189-2.087-13.444-1.689-19.9.2-3.254-2.976-4.38-6.149-3.955-2.985.4-5.967 2.174-6.132 4.857-.492 7.983-2.012 17.336 2.884 24.358 5.022 7.204 13.646 6.875 21.372 3.734 2.411 2.82 6.522 4.739 10.876 4.739 3.435 0 6.787-1.496 9.197-4.1 2.744-2.97 4.057-7.129 3.696-11.711a13.47 13.47 0 0 0-3.614-8.211m-3.653 16.62c-1.491 1.612-3.542 2.538-5.626 2.538-2.477 0-4.729-.912-6.248-2.138 3.16-1.81 5.968-3.976 8.03-6.1a39.2 39.2 0 0 0 4.965-6.29 8.7 8.7 0 0 1 1.298 3.959c.325 4.121-1.137 6.642-2.419 8.031" style="fill:#122a89"/></svg>