<svg xmlns="http://www.w3.org/2000/svg" xml:space="preserve" viewBox="0 0 215 220"><path d="M128.484 123.929c-1.496-12.132-2.092-24.343-3.174-36.513-1.048-11.79-3.508-29.851-18.708-30.563-15.502-.727-23.81 16.557-20.975 29.992.554 2.623 3.771 3.201 6.762 2.464 3.092-.762 5.943-2.93 5.356-5.711-.953-4.513-.267-10.427 1.978-14.467 1.198-2.157 2.619-4.361 5.055-3.191 2.382 1.143 4.152 4.478 5.105 6.763 4.037 9.679 3.622 21.854 4.412 32.21.821 10.749 2.424 21.363 3.477 32.068.477 4.843.11 10.751-2.803 14.861-.748 1.055-1.718 2.048-2.903 2.595l-.022.008a2.6 2.6 0 0 1-.626-.632c-1.111-2.442-2.179-4.284-2.805-7.006-.599-2.603-3.792-3.183-6.763-2.469-3.121.751-5.996 2.932-5.355 5.716 1.153 5.011 3.292 10.525 8.557 12.394 6.125 2.174 13.341-.854 17.847-5.061 9.642-9.004 7.015-21.864 5.585-33.458" style="fill:#122a89"/></svg>