<svg xmlns="http://www.w3.org/2000/svg" xml:space="preserve" viewBox="0 0 215 220"><path d="M138.477 77.349c-.373-5.103-1.414-10.098-4.944-14.001-5.418-5.991-14.332-9.329-22.163-6.667-9.217 3.133-15.374 12.481-19.361 20.852-3.723 7.817-4.813 17.066-4.994 25.658-.055 2.613 1.612 4.119 3.577 4.55 2.743.603 6.071-.904 6.147-4.55.259-12.322 3.227-25.116 12.51-33.908 5.063-4.795 11.376-4.957 16.548.051 2.274 2.202 2.778 5.226 2.981 8.447.399 6.313.033 12.689-.034 19.008-.083 7.832.111 15.696-1.854 23.343-2.347 9.13-8.159 14.548-14.194 21.314-4.221 4.732-8.55 11.651-15.294 12.806-3.296.564-7.696.268-9.688-2.755-1.899-2.881-1.865-6.845-1.754-10.149.089-2.637-1.59-4.147-3.573-4.561-2.725-.569-6.029.944-6.151 4.561-.264 7.825 1.531 16.854 9.123 20.776 7.749 4.003 17.591 2.017 24.16-3.211 5.48-4.361 9.704-10.285 14.529-15.341 3.849-4.034 7.315-8.325 9.611-13.446 3.621-8.076 4.613-17.031 4.763-25.802.155-8.923.707-18.067.055-26.975" style="fill:#122a89"/></svg>