<svg xmlns="http://www.w3.org/2000/svg" xml:space="preserve" viewBox="0 0 215 220"><path d="M125.091 74.698c-5.718-5.556-15.127-7.998-22.767-5.661-7.534 2.304-11.433 8.282-13.989 15.269-1.598 4.366-3.003 8.911-3.717 13.517-.419 2.702-.834 6.138.364 8.702 1.135 2.428 3.556 3.325 6.067 3.021a8.5 8.5 0 0 0 1.176-.223c2.068-.554 6.184-3.241 4.874-6.044-1.615-3.455.222-9.029 1.345-12.714.936-3.072 1.955-6.243 3.355-9.138.696-1.44 1.264-2.357 2.627-3.32-.074.052.502-.334 1.009-.446.848-.188 2.049-.067 3.065.168 2.478.573 5.091 1.834 6.859 3.702 3.35 3.539 3.458 8.716 2.81 13.256-1.021 7.149-4.388 13.669-6.228 20.611-1.853 6.992-2.505 14.211-4.241 21.215-.391 1.579-.869 3.482-1.826 4.765-.136.067-.475.257-.959.4-1.366.403-1.737.545-2.877.555.617-.022-1.753-.203-.621.024-1.145-.23-.577-.023-1.462-.688-.484-.364-.204-.017-.787-.795a13 13 0 0 1-.677-1.008c-.352-.58-.262-.462-.353-.676-2.521-5.897-1.301-12.14-.911-18.486.208-3.383-2.98-4.616-6.165-4.221-2.989.371-5.974 2.176-6.148 5.001-.477 7.746-1.712 16.07 2.162 23.216 5.951 10.978 25.071 8.433 30.517-1.675 3.73-6.923 3.833-15.858 5.457-23.406 1.876-8.721 6.167-16.748 7.432-25.614.998-6.997-.162-14.226-5.391-19.307" style="fill:#122a89"/></svg>