<svg xmlns="http://www.w3.org/2000/svg" xml:space="preserve" viewBox="0 0 215 220"><path d="M135.942 64.68c-5.188-6.217-13.881-9.939-21.855-7.572-9.335 2.771-15.878 11.817-20.312 19.965-4.131 7.592-5.575 16.862-6.202 25.4-.191 2.599 1.388 4.094 3.324 4.526 2.714.605 6.134-.898 6.4-4.526.905-12.307 4.772-25.562 14.915-33.504 5.301-4.151 11.844-3.433 16.254 1.884 1.962 2.366 2.137 5.662 2.147 8.862.019 6.445-.684 12.902-1.082 19.329-.473 7.656-.809 15.275-3.157 22.641-2.816 8.832-9.068 13.919-15.334 20.254-4.494 4.543-9.135 11.13-16.009 11.84-3.378.349-7.671-.278-9.403-3.509-1.629-3.039-1.377-6.947-1.091-10.258.226-2.62-1.366-4.118-3.322-4.531-2.698-.57-6.092.938-6.402 4.531-.673 7.809.791 16.905 8.247 21.105 7.516 4.233 17.434 2.785 24.174-2.136 5.769-4.212 10.403-9.953 15.587-14.847 4.069-3.842 7.773-8.082 10.242-13.149 3.713-7.619 5.125-16.034 5.746-24.422.658-8.884 1.555-17.932 1.529-26.847-.018-5.405-.837-10.771-4.396-15.036" style="fill:#122a89"/></svg>