<svg xmlns="http://www.w3.org/2000/svg" xml:space="preserve" viewBox="0 0 215 220"><path d="M130.817 124.273c-1.606-5.833-4.84-11.083-6.319-17.019-1.261-5.062-1.701-10.262-2.277-15.432-.527-4.733-1.01-9.512-3.631-13.628-2.905-4.563-8.232-6.851-13.457-7.426-6.187-.681-13.945.996-18.411 5.588-4.309 4.431-3.36 11.511-2.66 17.103.288 2.302 3.445 2.76 6.467 2.017 3.052-.75 5.967-2.725 5.65-5.263-.354-2.826-1.786-9.87 1.02-11.631 2.985-1.873 7.872 1.376 9.569 3.644 2.459 3.286 2.768 7.86 3.218 11.795.545 4.767.916 9.571 1.894 14.276 1.144 5.503 3.261 10.558 5.501 15.686 1.784 4.084 2.877 8.799.951 13.058-1.387 3.068-4.334 5.292-7.786 4.599-3.437-.69-8.847-3.647-9.434-7.474-.352-2.296-3.477-2.757-6.469-2.038-3.089.742-6.038 2.74-5.647 5.285.691 4.507 5.78 7.937 9.586 9.698 5.657 2.618 11.608 2.948 17.567 1.1 10.598-3.285 17.769-12.677 14.668-23.938" style="fill:#122a89"/></svg>