<svg xmlns="http://www.w3.org/2000/svg" xml:space="preserve" viewBox="0 0 215 220"><path d="M133.942 60.603c-5.56-5.807-14.82-8.222-22.365-5.424-16.771 6.22-23.119 27.067-23.502 43.188-.063 2.637 1.631 4.149 3.619 4.564 2.73.57 6.019-.942 6.105-4.564.269-11.333 3.253-22.688 11.874-30.627 4.779-4.401 10.911-5.553 16.298-1.195 3.996 3.232 3.995 9.69 3.729 14.381-.858 15.119-9.854 27.9-16.495 41.008-3.728 7.358-6.325 14.603-8.519 22.513-1.388 5.005-3.405 10.978-9.324 11.669-8.143.95-10.356-4.685-10.108-11.699.094-2.659-1.611-4.175-3.616-4.574-2.714-.539-5.981.979-6.108 4.574-.25 7.068 1.434 15.104 7.988 18.997 6.295 3.74 15.754 3.396 21.611-.997 9.375-7.032 9.514-21.039 14.242-31.044 7.875-16.665 19.311-32.078 20.083-51.143.267-6.625-.703-14.603-5.512-19.627" style="fill:#122a89"/></svg>