<svg xmlns="http://www.w3.org/2000/svg" xml:space="preserve" viewBox="0 0 215 220"><path d="M127.535 93.999c.478-5.193 1.091-11.739-1.659-16.468-2.973-5.113-9.455-6.967-14.926-7.775-4.717-.697-9.96-.95-14.228 1.544-4.976 2.908-7.397 9.088-9.175 14.236-.465 1.345 2.783 3.001 6.041 3.806 2.807.694 5.622.757 6.077-.559 1.647-4.769 3.072-11.771 8.192-13.168 5.19-1.416 6.838 1.201 7.275 2.879.55 2.109.626 4.308.611 6.477-.039 5.502-.895 10.99-1.645 16.428-.696 5.048-.337 9.128.716 14.093 1.047 4.935 1.331 9.669.633 14.662-.487 3.48-1.264 7.058-3.036 10.132-2.238 3.881-4.313 4.475-6.457 3.923-2.201-.566-5.612-2.67-6.04-4.084-.7-2.309-.82-4.718-.708-7.115.08-1.714-2.972-3.065-6.032-3.712-3.014-.637-6.036-.592-6.086.465-.186 3.983.28 8.305 2.442 11.746 3.638 5.788 11.083 8.191 17.519 8.963 5.606.673 11.729.188 15.653-4.341 2.983-3.442 4.174-7.988 4.816-12.398.944-6.482-.007-12.377-1.309-18.726-1.425-6.948.684-14.044 1.326-21.008" style="fill:#122a89"/></svg>