<svg xmlns="http://www.w3.org/2000/svg" xml:space="preserve" viewBox="0 0 215 220"><path d="M119.772 59.174c-14.385-3.637-28.248 9.883-28.993 23.715-.113 2.091 2.779 2.529 5.757 2.019 3.052-.522 6.196-2.039 6.291-3.797.262-4.875 2.32-10.691 5.656-14.314 2.321-2.521 3.939-2.08 6.135.61 1.98 2.425 2.838 5.791 3.215 8.834 1.338 10.812-2.453 22.986-4.43 33.606-1.048 5.63-2.066 11.267-2.928 16.93-.766 5.031-.961 10.236-2.065 15.202-.578 2.601-1.413 5.216-2.674 7.571-.723 1.35-3.115 5.618-5.088 5.745-3.818.246-3.728-8.891-3.649-11.051.052-1.413-2.84-1.675-5.811-1.074-3.071.621-6.228 2.165-6.307 4.321-.172 4.694.264 10.433 5.048 12.748 5.378 2.603 13.065.498 18.013-2.187 11.21-6.084 12.481-17.833 14.023-29.201 1.663-12.264 4.283-24.366 6.432-36.547 1.807-10.238 5.278-29.614-8.625-33.13" style="fill:#122a89"/></svg>