<svg xmlns="http://www.w3.org/2000/svg" xml:space="preserve" viewBox="0 0 215 220"><path d="M112.018 53.946c-9.05-.69-18.481 1.835-24.957 8.45-6.104 6.235-8.314 15.243-8.589 23.765-.094 2.919 3.181 3.716 6.36 3.153 2.919-.517 5.756-2.179 5.828-4.408.342-10.599 3.864-24.21 16.875-23.227 11.976.905 17.433 11.57 16.718 22.595-.79 12.188-5.371 23.656-6.866 35.741-.781 6.316-1.316 12.707-.944 19.074.239 4.084 1.477 8.042.795 12.14-.547 3.282-1.956 6.377-5.454 7.01-6.666 1.206-16.577-2.744-16.699-10.534-.045-2.889-3.25-3.694-6.362-3.18-2.973.492-5.861 2.188-5.826 4.434.272 17.273 24.708 20.644 36.988 14.087 4.957-2.647 8.419-7.112 9.475-12.665 1.14-5.993-.926-12.139-.836-18.16.116-7.728.811-15.914 2.625-23.443 2.133-8.852 4.882-17.48 5.338-26.652.773-15.562-8.79-26.985-24.469-28.18" style="fill:#122a89"/><path d="M105.446 154.829c5.104 0 9.254-4.152 9.254-9.254s-4.15-9.252-9.254-9.252-9.254 4.15-9.254 9.252 4.15 9.254 9.254 9.254m0-13.644a4.395 4.395 0 0 1 4.392 4.39c0 2.422-1.97 4.392-4.392 4.392s-4.392-1.97-4.392-4.392 1.97-4.39 4.392-4.39" style="fill:#122a89"/></svg>