<svg xmlns="http://www.w3.org/2000/svg" xml:space="preserve" viewBox="0 0 215 220"><path d="M131.739 79.282c-4.172-6.727-13.171-10.958-20.976-10.172-9.104.917-14.129 7.356-18.288 14.722-3.081 5.456-7.977 13.842-6.194 20.426.623 2.3 2.847 3.207 5.232 3.113 3.732-.147 7.861-2.752 6.884-6.36-.263-.971-.203-.041-.047-1.316.098-.802.231-1.603.442-2.384.723-2.687 1.965-5.297 3.194-7.782 1.353-2.737 2.794-5.575 4.589-8.052 1.112-1.534 1.77-2.517 3.477-3.026 3.425-1.02 9.583 3.701 11.221 7.412 2.323 5.266.12 11.473-2.15 16.341-3.149 6.752-7.335 12.829-10.107 19.795-2.252 5.659-3.718 11.946-6.728 17.27-.319.565-1.021 1.243-1.297 1.84l-.038.002c.007-.05-.013-.044-.051.002-1.864.087-2.968.474-4.691-.027.276.08-.764-.449-.771-.453-1.01-.673-.348-.18-.948-.911-.757-.921-1.038-1.777-1.372-3.482-.564-2.885-.063-6.806.621-10.219.72-3.59 1.098-4.186 1.974-7.828.693-2.882-3.042-4.294-5.337-4.31a5 5 0 0 0-.351.006c-3.035.186-5.751 1.949-6.559 4.89.003-.015-.002-.003-.022.066-.012.045-.033.084-.044.129l-.031.129-.085.301q-.412 1.471-.803 2.948c-.475 1.804-.915 3.616-1.248 5.452-.764 4.219-1.158 8.956.119 13.12 3.626 11.82 21.65 12.983 29.382 4.738 4.813-5.132 6.5-12.935 8.91-19.345 1.621-4.311 3.42-8.558 5.647-12.594 2.345-4.248 4.988-8.26 6.752-12.809 2.714-6.994 3.842-14.941-.306-21.632" style="fill:#122a89"/></svg>