<svg xmlns="http://www.w3.org/2000/svg" xml:space="preserve" viewBox="0 0 215 220"><path d="M129.313 123.305c-1.467-13.404-.104-27.207-2.915-40.453-2.266-10.677-8.501-22.926-21.141-22.616-14.29.35-22.885 14.614-20.089 27.863.413 1.958 3.588 2.214 6.591 1.468 3.079-.765 5.977-2.585 5.527-4.715-.903-4.277-.333-9.431 1.409-13.444.502-1.156 1.199-2.603 2.169-3.471 1.751-1.567.327-.901 2.168-.402 2.136.579 4.278 2.714 5.586 4.414 6.486 8.433 7.052 21.109 7.389 31.284.198 5.959.295 11.921.712 17.871.396 5.643 2.076 11.576 1.5 17.219-.495 4.852-2.294 10.095-5.95 13.483-.325.301-.74.531-1.079.715-.334-.276-.713-.562-.863-.735-1.588-1.83-2.188-4.596-2.715-6.887-.45-1.956-3.606-2.21-6.591-1.472-3.099.766-6.014 2.601-5.527 4.719 1.072 4.655 2.994 9.748 8.055 11.144 5.81 1.603 12.418-1.021 17.017-4.553 4.426-3.4 7.497-8.412 8.963-13.765 1.645-6.009.445-11.629-.216-17.667" style="fill:#122a89"/></svg>