<svg xmlns="http://www.w3.org/2000/svg" xml:space="preserve" viewBox="0 0 215 220"><path d="M131.81 79.732c-4.534-6.48-12.733-9.328-20.375-8.107-8.668 1.384-14.216 5.74-18.486 13.084-2.214 3.808-4.276 7.792-5.659 11.988-.757 2.296-1.657 5.177-1.001 7.601.324 1.195 2.944 1.204 5.669.609 3.346-.73 6.85-2.372 6.448-3.856-1.071-3.955 1.636-9.002 3.269-12.432 1.53-3.213 3.263-6.407 5.235-9.372.181-.272 1.489-1.783 2.508-2.815.422.068.805.132.905.16 1.787.497 3.463 1.372 5.008 2.39 2.616 1.724 4.781 3.98 5.948 6.922 2.252 5.674.51 11.916-1.844 17.253-2.992 6.78-7.301 12.812-10.121 19.704-2.382 5.821-4.002 12.032-6.815 17.667-.477.955-.977 1.962-1.635 2.812a3 3 0 0 1-.259.291c-.853-.052-1.731-.195-2.53-.513-2.918-1.161-4.373-3.9-4.947-6.836-1.248-6.376.942-12.613 2.412-18.73.31-1.291-2.59-1.496-5.614-.99-2.93.49-5.976 1.647-6.334 3.135-1.629 6.778-4.369 14.29-2.229 21.268 1.303 4.249 4.731 6.675 9.036 7.35 6.449 1.011 15.272-.178 20.272-4.652 4.939-4.419 6.536-12.198 8.742-18.167 1.578-4.271 3.302-8.491 5.432-12.52 2.298-4.347 5.068-8.387 6.961-12.948 2.641-6.363 4.243-14.238.004-20.296m-21.566-4.072c.215-.173.362-.251.398-.183.016.03-.149.099-.398.183" style="fill:#122a89"/></svg>