<svg xmlns="http://www.w3.org/2000/svg" xml:space="preserve" viewBox="0 0 215 220"><path d="M133.324 87.859c-.921-9.72-1.833-24.373-13.785-26.467-7.835-1.373-17.255 2.135-23.376 6.911-5.68 4.431-6.042 10.656-6.068 17.366-.003.762 2.852.782 5.792.23 3.113-.584 6.32-1.809 6.326-3.477.021-5.551-.071-13.649 6.243-16.191 1.573-.634 2.064-.33 4.107.787a11.7 11.7 0 0 1 2.642 1.953c1.825 1.832 2.772 4.279 3.42 6.733 2.646 10.034 3.902 21.537 2.175 31.8-.988 5.87-4.095 10.449-5.967 15.949-1.578 4.635-1.911 9.615-2.351 14.455-.35 3.847-.647 7.56-2.347 11.097-.548 1.141-1.191 2.27-1.966 3.276-.444.61-.956 1.155-1.504 1.666-2.491-.802-7.339-2.476-8.206-3.016-2.98-1.855-4.918-4.249-5.002-7.835-.019-.805-2.861-.815-5.788-.254-3.136.601-6.368 1.858-6.33 3.501.156 6.668 7.069 9.87 12.627 11.555 6.596 2 13.82.949 19.84-2.414 12.915-7.215 9.018-21.542 12.682-33.465 1.688-5.491 4.906-10.122 6.076-15.843 1.23-6 1.336-12.232.76-18.317" style="fill:#122a89"/></svg>