<svg xmlns="http://www.w3.org/2000/svg" xml:space="preserve" viewBox="0 0 215 220"><path d="M132.77 81.742c-3.526-5.886-10.566-10.184-17.371-10.684-8.728-.641-17.118 3.482-21.717 10.842-2.758 4.413-5.319 9.058-7.059 13.977-.901 2.547-1.965 5.776-1.23 8.49.389 1.438 2.924 1.632 5.58 1.119 3.421-.661 7.043-2.497 6.537-4.366-1.199-4.426 2.344-10.502 4.259-14.234 1.491-2.906 3.052-6.073 5.18-8.577.398-.469 1.335-1.066 1.801-1.593.114.01.23.029.346.066 4.922 1.588 9.935 4.692 12.273 9.518 2.154 4.444 2.142 9.655 1.701 14.466-1.24 13.546-3.81 28.13-14.267 37.76-1.641 1.511-3.466 2.878-5.445 3.911-.473.247-1.19.556-1.381.634.093-.011.199-.026.337-.047q-.19.03-.38.064l-.009.003.003-.002c-.603.104-1.202.215-1.817.24-3.401.134-6.095-1.646-7.296-4.855-2.519-6.729.277-14.132 1.862-20.727.411-1.712-2.502-2.078-5.568-1.573-2.95.487-6.041 1.781-6.447 3.469-1.713 7.128-5.062 16.092-1.497 23.167 2.583 5.127 8.203 6.338 13.527 6.185 7.156-.207 14.021-2.652 19.924-6.637 14.573-9.837 18.774-26.492 20.425-43.05.585-5.878.88-12.306-2.271-17.566" style="fill:#122a89"/><path d="m101.977 143.071-.027.003-.022.015.006-.001z" style="fill:#122a89"/><path d="M101.95 143.074c.579-.37-1.009.116 0 0" style="fill:#122a89"/></svg>