<svg xmlns="http://www.w3.org/2000/svg" xml:space="preserve" viewBox="0 0 215 220"><path d="M117.349 60.864c-13.929-3.745-26.785 10.094-27.491 23.21-.145 2.689 2.742 3.52 5.741 3.13 3.095-.403 6.31-2.108 6.435-4.43.236-4.392 2.031-9.547 5.035-12.809 2.068-2.246 3.003-2.431 5.358-.476 1.873 1.554 3.346 3.467 4.253 5.722 3.965 9.85 1.301 21.816-1.014 31.739-1.308 5.605-2.703 11.191-3.811 16.84-1.055 5.382-1.067 11.189-2.694 16.418-1.322 4.248-4.242 9.228-8.392 11.264-4.392 2.155-4.403-5.294-4.303-8.025.098-2.682-2.766-3.517-5.74-3.142-3.115.393-6.351 2.112-6.436 4.441-.164 4.487-.025 9.896 3.916 12.847 4.784 3.581 11.962 2.125 17.02-.103 5.372-2.366 9.873-6.454 12.936-11.444 3.411-5.556 3.861-11.346 4.821-17.621 1.972-12.88 6.446-25.348 7.564-38.359.912-10.621-.825-25.875-13.198-29.202" style="fill:#122a89"/></svg>