<svg xmlns="http://www.w3.org/2000/svg" xml:space="preserve" viewBox="0 0 215 220"><path d="M130.13 69.749c-1.805-6.43-5.206-12.881-11.627-15.582-7.204-3.031-15.187-2.867-21.534 1.976-13.872 10.586-15.13 31.038-11.93 46.682.528 2.579 2.495 3.597 4.502 3.474 2.762-.17 5.6-2.516 4.875-6.059-2.257-11.035-1.762-22.501 4.612-32.157 3.115-4.719 7.552-7.294 13.235-5.82 5.594 1.451 7.571 6.142 8.841 11.428 3.65 15.191-2.259 30.117-5.942 44.684-2.067 8.173-3.339 16.086-3.586 24.503-.143 4.873-.409 11.421-5.381 13.921-8.062 4.053-12.224-1.631-13.644-8.867-.51-2.598-2.485-3.616-4.502-3.478-2.746.188-5.568 2.533-4.875 6.063 1.427 7.275 5.229 14.821 12.991 16.79 7.224 1.833 16.168-1.034 20.591-7.05 4.152-5.648 4.42-12.878 4.58-19.618.114-4.804.791-9.394 1.849-14.082 4.215-18.665 12.369-37.48 6.945-56.808" style="fill:#122a89"/></svg>