<svg xmlns="http://www.w3.org/2000/svg" xml:space="preserve" viewBox="0 0 215 220"><path d="M130.52 91.504c-.011-5.307-.275-10.997-3.911-15.227-4.548-5.291-13.076-7.505-19.745-6.711-8.105.965-14.308 5.845-17.354 13.264-1.971 4.801-3.662 9.847-4.515 14.979-.448 2.694-1.004 6.2.201 8.778.844 1.805 3.461 2.166 6.064 1.701 3.542-.632 7.059-2.794 6.052-4.948-1.986-4.25.47-10.735 1.753-14.833.989-3.159 2.7-11.017 6.369-12.151.879-.272 4.207.948 5.533 1.565 1.855.863 3.494 1.926 4.749 3.568 2.433 3.183 2.627 7.755 2.673 11.597.083 6.843-.259 13.759-.499 20.597-.253 7.193-1.476 14.822-4.854 21.264-1.09 2.08-2.379 4.145-4.024 5.831-1.701 1.744-2.133 1.958-3.94 2.481-1.377.398-2.214.481-3.045.106-1.329-.599-2.323-1.556-3.105-2.883-3.465-5.881-1.97-13.649-1.575-20.065.159-2.576-2.957-3.219-6.07-2.675-2.967.518-5.932 2.113-6.058 4.148-.477 7.74-2.057 16.731 2.597 23.584 3.23 4.757 9.357 5.607 14.671 4.897 7.313-.977 13.846-4.259 18.519-9.988 5.02-6.155 7.523-14.319 8.522-22.085 1.123-8.729 1.01-17.982.992-26.794" style="fill:#122a89"/></svg>