<svg xmlns="http://www.w3.org/2000/svg" xml:space="preserve" viewBox="0 0 215 220"><path d="M136.651 96.921c-.676-2.002-2.127-3.037-3.995-3.909-12.975-6.063-28.132-8.098-42.257-5.775-2.57.422-4.94.967-7.057 2.601-1.434 1.107-3.179 3.13-3.262 5.083-.187 4.385 4.581 6.904 8.563 6.336-2.138 3.897-3.294 8.494-2.975 13.33.797 12.081 10.202 20.858 21.006 19.605s18.916-12.062 18.119-24.144c-.086-1.308-.317-2.556-.596-3.778 1.682.174 3.459.103 4.827-.263 2.125-.569 4.752-1.894 6.123-3.704 1.124-1.484 2.153-3.46 1.504-5.382" style="fill:#122a89"/></svg>