<svg xmlns="http://www.w3.org/2000/svg" xml:space="preserve" viewBox="0 0 215 220"><path d="M99.319 92.741c4.776-1.111 11.334-.409 16.936 1.916 5.181 2.151 8.563 8.382 8.36 12.926-.26 5.803-4.821 13.325-12.479 15.291-7.638 1.961-14.711-.381-18.531-2.756-5.651-3.513-9.16-8.066-8.809-13.56.48-7.515 5.7-11.765 14.523-13.817" style="fill:#122a89"/><circle cx="104.685" cy="102.975" r="5.755" style="fill:#fff"/><path d="M85.564 117.001c13.822 5.182 23.888 6.332 37.124 4.266.739-.118 2.993-.469 3.284.85.335 1.544-2.947 3.198-5.384 3.882-5.517 1.545-12.353 2.813-20.499 1.374-4.442-.783-9.28-2.372-14.5-5.162-2.742-1.465-4.364-3.556-3.774-4.866.309-.68 1.209-1.288 3.749-.344m-23.175-7.556c2.046-5.582 14.224-13.839 20.957-15.767 10.581-3.022 22.165-1.989 33.288.401 9.88 2.119 17.554 6.562 26.149 13.318.133.108 11.879 9.627 9.879 12.538-.419.609-.928.833-1.292.905-1.25.261-2.623-.685-4.698-2.103-1.225-.836-2.609-1.784-4.246-2.678a95 95 0 0 1-2.591-1.488c-3.083-1.809-6.919-4.063-14.013-6.765l-1.159-.447c-5.711-2.191-11.061-4.245-23.055-5.542-11.323-1.211-23.358 5.016-30.546 8.734-3.812 1.975-6.084 3.149-7.421 2.985a1.44 1.44 0 0 1-1.074-.667c-.614-.921-.674-2.073-.178-3.424" style="fill:#122a89"/></svg>