<svg xmlns="http://www.w3.org/2000/svg" xml:space="preserve" viewBox="0 0 215 220"><path d="M140.857 105.856c.506-2.713-1.376-5.157-3.821-7.002 1.102-.865 1.959-1.901 2.084-3.198.17-1.77-.493-3.375-1.582-4.908-1.641-2.31-5.001-3.927-7.811-5.014-3.53-1.365-7.589-2.333-11.482-2.284-4.454.058-8.911.013-13.371-.156a260 260 0 0 1-11.582-.703q-2.837-.243 2.114.191c-6.255-.577-16.111-.88-18.895 5.01-2.45 5.184 4.197 9.414 9.541 11.371-.551.417-1.161.765-1.586 1.32-1.951 2.543-1.12 4.903.609 7.037-2.339.795-4.276 2.094-5.275 4.209-1.404 2.972.05 5.446 2.51 7.432a4.5 4.5 0 0 0-.177 2.693c-1.376 1.388-2.136 3.124-1.646 5.291.624 2.765 4.516 5.356 7.165 6.651 4.223 2.063 8.797 2.707 13.519 3.071l15.579 1.204c5.716.441 15.008-1.951 14.558-7.821-.047-.625-.244-1.209-.469-1.783 1.241-1.149 1.998-2.585 1.865-4.307-.079-1.024-.443-1.924-.938-2.76 1.823-1.17 3.06-2.774 2.885-5.049-.135-1.76-1.028-3.255-2.321-4.534 3.809-.855 7.855-2.351 8.527-5.961m-39.814 9.486a9.248 9.248 0 1 1 0-18.496 9.248 9.248 0 0 1 0 18.496" style="fill:#122a89"/></svg>