<svg xmlns="http://www.w3.org/2000/svg" xml:space="preserve" viewBox="0 0 215 220"><path d="M124.054 136.118c-14.199 2.216-24.998.982-39.826-4.577-2.724-1.012-3.689-.36-4.021.369-.633 1.406 1.107 3.649 4.049 5.221 5.6 2.993 10.789 4.697 15.555 5.538 8.739 1.543 16.072.183 21.99-1.474 2.614-.733 6.135-2.508 5.776-4.164-.313-1.417-2.731-1.04-3.523-.913m31.054-33.216c-5.242-5.447-8.09-7.847-17.354-13.111-7.971-4.529-17.263-6.669-28.148-7.659-10-.909-18.125.19-24.063 1.852-10.266 2.873-17.235 7.065-20.797 10.2-1.993 1.753-1.13 3.514 1.643 3.004 2.703-.497 8.099-4.42 16.87-7.583 7.748-2.794 14.572-3.776 26.897-2.325 9.186 1.081 17.806 3.114 22.534 5.386 5.798 2.787 10.116 5.979 13.764 8.667 3.964 2.919 8.481 8.082 10.618 7.67 1.939-.374.224-3.827-1.964-6.101" style="fill:#122a89"/><path d="M145.612 112.075c-9.221-7.248-17.454-12.014-28.052-14.287-1.629-.35-3.282-.588-4.926-.876-2.45-.633-4.905-.919-7.278-1.005-8.002-.827-15.992-.695-23.507 1.451-7.224 2.069-20.287 10.927-22.482 16.915-.532 1.45-.468 2.686.19 3.672.283.424.66.655 1.152.716 1.435.176 3.872-1.083 7.961-3.202 3.941-2.039 9.249-4.768 15.11-6.788-.177.8-.319 1.623-.375 2.505-.376 5.894 3.388 10.778 9.45 14.547 4.099 2.548 11.685 5.061 19.879 2.957 8.215-2.109 13.108-10.179 13.387-16.404.004-.086-.039-.188-.037-.275l.088.034 1.244.479c7.61 2.898 11.725 5.316 15.032 7.257.969.572 1.872 1.1 2.779 1.597 1.755.959 3.24 1.976 4.555 2.874 2.226 1.521 3.699 2.536 5.04 2.256.391-.078.938-.317 1.387-.971 2.147-3.124-10.454-13.336-10.597-13.452m-41.409 1.408a6.175 6.175 0 0 1-5.613-6.689c.025-.282.169-.513.23-.781.874.015 1.751-.016 2.62.077 3.674.397 6.72.867 9.407 1.381-.003.138.057.26.045.4a6.175 6.175 0 0 1-6.689 5.612" style="fill:#122a89"/></svg>