<svg xmlns="http://www.w3.org/2000/svg" xml:space="preserve" viewBox="0 0 215 220"><path d="M125.067 94.382c-9.421-5.208-17.988-6.268-28.42-3.392-7.402 2.041-15.568 7.236-20.893 12.831-6.091 6.4-8.518 9.817-11.431 15.783-1.435 2.938-1.129 5.286-.064 6.613.06.211.109.426.234.616 2.552 3.863 5.124 6.079 10.643 10.094 4.825 3.509 17.926 8.124 27.567 8.124 9.672 0 18.688-1.433 27.305-4.895 8.123-3.263 10.88-5.135 16.461-9.576 4.02-3.199 5.28-4.825 5.316-7.076.344-1.95-3.396-9.025-6-11.899-6.135-6.768-10.978-11.839-20.718-17.223m-26.359 9.227a6.157 6.157 0 1 1 0 12.314 6.157 6.157 0 0 1 0-12.314m27.761 31.202c-4.207 1.392-11.153 4.267-21.604 4.267-9.802 0-19.708-3.773-23.457-6.08a69.6 69.6 0 0 1-10.889-8.236c2.147-2.913 5.552-6.519 9.029-9.946-.208 3.287.713 6.579 2.678 9.657 5.231 8.196 13.031 10.338 21.351 10.338 11.555 0 17.409-3.381 21.042-7.555 3.133-3.599 4.691-7.185 4.643-12.919-.027-3.234-.503-5.859-1.87-8.451 4.826 3.087 9.942 7.139 12.126 9.553 2.693 2.977 4.361 5.11 6.001 8.424-5.129 4.486-14.155 9.329-19.05 10.948" style="fill:#122a89"/><path d="M152.084 90.024c-6.872-4.34-12.293-7.594-23.134-11.108-10.487-3.399-19.975-4.178-31.474-2.502-8.16 1.188-17.124 4.353-22.94 7.805-6.653 3.95-9.101 6.126-12.437 9.786-4.021 4.41 3.388 6.163 7.583 2.877 4.222-3.307 12.56-7.625 17.975-10.34 4.521-2.266 10.123-3.586 16.417-4.171 11.66-1.084 19.721 1.924 20.697 2.177 6.347 1.762 14.643 6.258 18.504 8.135 4.789 2.327 9.687 3.243 11.792 2.151 2.289-1.188-.065-2.967-2.983-4.81" style="fill:#122a89"/></svg>