<svg xmlns="http://www.w3.org/2000/svg" xml:space="preserve" viewBox="0 0 215 220"><path d="M162.518 119.995c-6.347-2.246-11.143-3.286-20.535-10.518-6.581-5.067-18.408-12.761-28.395-15.383-10.168-2.67-21.271-1.972-30.681 2.379-9.294 4.297-23.03 14.601-27.26 23.5-1.372 2.887 2.845 2.025 5.082 1.228 2.909-1.037 4.935-2.699 9.499-6.353 2.426-1.942 5.934-4.475 10.262-6.728-2.387 3.38-4.121 7.28-5.258 11.607-2.072 7.887 5.302 20.877 15.827 19.013 7.956-1.409 14.729 1.7 22.045 2.779 11.309 1.668 14.94-5.567 16.715-13.699 1.04-4.765.19-8.032-2.199-12.048 3.33 4.207 6.218 7.265 9.783 10.266 1.08.908 5.3 3.636 6.519 4.22 2.917 1.397 5.701-1.397 3.664-3.278-1.359-1.255-3.349-3.662-5.453-6.409 8.632 3.437 14.875 3.335 18.252 2.914 2.784-.347 5.201-2.381 2.133-3.49m-60.459-8.712a6.5 6.5 0 0 1-7.529-5.271c-.167-.944-.092-1.865.133-2.736 3.676-.6 7.618-.74 11.77-.178.247.033.451.099.693.136.049.185.171.33.205.521a6.5 6.5 0 0 1-5.272 7.528" style="fill:#122a89"/><path d="M63.213 98.257c2.941-1.871 6.973-4.43 12.055-6.785 7.582-3.508 14.75-5.453 28.801-5.031 10.137.301 19.672 1.707 24.891 3.672 6.477 2.449 11.34 5.414 15.746 8.102 1.508.922 3.133 2.121 4.699 3.281 3.523 2.609 5.922 4.309 7.75 4.309q.369.001.715-.098c.797-.227 1.328-.77 1.5-1.527.492-2.203-2.305-5.336-3.855-6.684-6.469-5.648-9.949-8.02-20.512-12.859-8.527-3.902-18.691-5.742-31.992-5.785h-.32c-12.008 0-20.883 2.387-26.227 4.398-13.215 4.977-19.918 11.043-22.184 13.418-1.266 1.324-1.633 2.762-.988 3.84.664 1.113 2.184 1.465 4.066.949 1.445-.399 3.296-1.575 5.855-3.2" style="fill:#122a89"/></svg>