<svg xmlns="http://www.w3.org/2000/svg" xml:space="preserve" viewBox="0 0 215 220"><path d="M155.971 91.092c-1.244.312-3.142.572-5.317.791-3.604-3.01-6.574-4.993-11.975-7.659 1.194-2.116-.311-4.58-2.247-3.369-.583.365-1.403.785-2.317 1.225-5.799-2.613-12.164-4-19.16-4.627a1.24 1.24 0 0 0-.658-.078 110 110 0 0 0-8.622-.371c-10.041-.034-18.039 1.77-23.811 3.943-9.977 3.756-16.553 8.54-19.829 11.973-1.832 1.92-.82 3.6 1.898 2.85 2.649-.73 7.683-5.109 16.145-9.024 7.475-3.459 14.188-5.032 26.592-4.661.468.014.91.06 1.375.079a172 172 0 0 1-7.823 5.457c-.094.062-.389.237-.669.407-7.039.338-13.266 1.815-20.69 4.957-6.918 2.934-18.746 14.18-20.199 20.391-.352 1.504-.137 2.723.637 3.621.332.387.734.57 1.23.57 1.449 0 3.711-1.547 7.516-4.148 3.134-2.144 7.224-4.898 11.82-7.357-.866 2.156-1.321 4.539-1.258 7.214.092 3.912 1.666 7.319 4.289 10.265-1.661-.262-3.292-.498-5.03-.822-4.094-.754-5.289.41-5.578 1.52-.547 2.141 2.469 4.871 7.008 6.355 8.645 2.828 16.383 3.945 23.316 3.945 12.699-.004 22.707-3.746 30.637-7.551 3.508-1.684 8.031-5.062 7.113-7.309-.797-1.922-4.109-.789-5.195-.41a134 134 0 0 1-7.259 2.259c2.137-3.775 3.215-7.918 3.063-11.479-.078-1.832-.661-3.827-1.57-5.785 5.743 1.616 9.439 3.163 12.391 4.442 1.031.449 1.996.863 2.957 1.246 1.859.738 3.457 1.566 4.871 2.297 2.391 1.238 3.973 2.062 5.277 1.625.383-.125.906-.422 1.258-1.133 1.545-3.142-7.659-9.618-11.804-12.332a62 62 0 0 0 5.256-1.312c.429-.129 1.218-.444 2.088-.808 1.496.968 2.777 1.58 3.603 1.345 1.1-.313.82-1.56-.012-2.946.62-.298 1.13-.56 1.421-.736 2.766-1.675 1.952-5.535-.738-4.86m-54.393 19.952a6.174 6.174 0 1 1 0-12.348 6.174 6.174 0 0 1 0 12.348m18.02-23.255c-.389.133-2.275.67-3.891 1.302-1.783-.316-3.569-.651-5.326-.817.703-.72 1.393-1.45 2.075-2.236.475-.548 1.534-2.086 2.387-3.406 4.984.488 9.359 1.267 12.69 2.253a200 200 0 0 1-7.935 2.904m16.206 4.88c-.622.01-4.376-.147-6.344.281-.396-.151-.783-.327-1.18-.472 1.684-.925 3.304-1.889 4.92-3.005.389-.269 1.125-.888 1.906-1.567 3.076 1.507 5.743 3.068 8.118 4.513-2.601.13-5.193.215-7.42.25" style="fill:#122a89"/></svg>