<svg xmlns="http://www.w3.org/2000/svg" xml:space="preserve" viewBox="0 0 215 220"><path d="M153.014 102.347c-26.126-20.604-67.306-18.017-89.152 7.956-2.79 3.316-3.276 8.037 0 11.314 2.87 2.869 8.531 3.309 11.314 0 3.177-3.777 6.981-6.954 11.163-9.541-1.186 5.901-.507 11.643.645 14.374.212.502.502 1.104.832 1.744-1.012.215-1.992.538-2.855 1.071-2.702 1.671-2.719 5.012 0 6.68 6.174 3.791 14.094 5.821 22.205 6.282.33.026.669.036 1.008.048 10.521.417 21.264-1.867 28.911-7.103 2.75-1.882 2.587-4.782 0-6.681-1.354-.993-3.332-1.393-5.283-1.318.959-3.029 1.349-6.304 1.112-9.718a27.7 27.7 0 0 0-2.714-10.193c4.092 1.52 7.982 3.624 11.5 6.398 3.404 2.686 7.961 3.354 11.314 0 2.802-2.802 3.395-8.635 0-11.313m-50.731 14.53a7.061 7.061 0 1 1 0-14.122 7.061 7.061 0 0 1 0 14.122" style="fill:#122a89"/><path d="M76.84 95.471c16.383-9.522 44.446-13.878 68.749-1.898 3.383 1.668 7.644 3.377 9.428 0 1.506-2.851-7.809-7.37-11.288-8.8-21.963-9.033-47.094-9.607-69.677 3.519-2.884 1.676-12.604 8.752-10.152 11.615 2.523 2.945 10.063-2.764 12.94-4.436" style="fill:#122a89"/></svg>