<svg xmlns="http://www.w3.org/2000/svg" xml:space="preserve" viewBox="0 0 215 220"><path d="M82.774 119.936c17.808 4.124 25.315 6.617 42.565.688 5.883-2.022 6.536 3.399.788 6.006-10.395 4.715-23.128 7.859-43.542-.301-5.767-2.307-5.641-7.743.189-6.393" style="fill:#122a89"/><path d="M82.642 116.683c1.759 5.137 8.652 10.45 14.669 11.293 15.757 2.207 21.105-2.75 24.934-6.612 4.786-4.828 4.967-12.14 4.277-14.994-.799-3.305-3.906-8.082-5.594-9.172-2.323-2.24-5.233-4.016-8.511-5.109-5.227-1.742-14.149-.77-18.993 1.56-6.208 2.987-8.597 4.789-10.47 7.851-2.543 4.157-1.869 10.632-.312 15.183" style="fill:#122a89"/><circle cx="98.825" cy="105.04" r="5.12" style="fill:#fff"/><path d="M134.135 92.005c-7.622-2.33-13.998-3.871-25.494-3.496-13.855.452-22.353 1.511-30.404 5.733-4.372 2.292-13.546 9.877-10.655 12.234 1.46 1.19 7.83-2.2 15.241-6.153 5.66-3.019 27.539-7.941 40.605-5.323 20.02 4.011 29.981 12.703 32.056 10.214 3.325-3.988-13.756-10.888-21.349-13.209" style="fill:#122a89"/><path d="M59.327 120.339c4.074-15.188 11.325-26.365 30.991-28.957 31.809-4.192 46.454 8.986 57.722 17.723 8.29 6.428 4.554 9.5.98 7.413-14.114-8.242-27.037-19.564-49.091-18.778-14.483.516-25.569 7.422-32.396 24.33-2.703 6.699-10.025 5.049-8.206-1.731" style="fill:#122a89"/></svg>