<svg xmlns="http://www.w3.org/2000/svg" xml:space="preserve" viewBox="0 0 215 220"><path d="M163.586 118.327c-6.347-2.246-11.143-3.286-20.535-10.518-6.581-5.067-18.408-12.76-28.395-15.382-10.168-2.67-21.271-1.972-30.681 2.378-9.295 4.297-23.03 14.601-27.26 23.5-1.372 2.887 2.845 2.025 5.082 1.228 2.909-1.036 4.935-2.699 9.499-6.353a67 67 0 0 1 7.066-4.914c-.811 1.439-1.519 2.938-2.062 4.528-2.072 6.071 5.301 16.072 15.827 14.636 7.956-1.084 14.729 1.309 22.045 2.14 11.309 1.285 14.939-4.286 16.715-10.546.8-2.82.428-4.966-.829-7.205 2.221 1.463 4.572 2.95 7.251 4.377 11.751 6.261 20.038 6.132 24.143 5.62 2.784-.346 5.202-2.38 2.134-3.489m-60.459-8.712a6.5 6.5 0 0 1-7.529-5.272c-.167-.944-.092-1.865.133-2.736a39.7 39.7 0 0 1 11.771-.178c.247.033.451.099.693.136.05.185.171.33.205.521a6.5 6.5 0 0 1-5.273 7.529" style="fill:#122a89"/></svg>