<svg xmlns="http://www.w3.org/2000/svg" xml:space="preserve" viewBox="0 0 215 220"><path d="M82.519 121.389c18.926 4.383 26.905 7.033 45.239.731 6.252-2.149 6.947 3.612.838 6.383-11.048 5.011-24.581 8.353-46.277-.32-6.13-2.451-5.996-8.229.2-6.794" style="fill:#122a89"/><path d="M84.606 114.912c1.724 5.46 8.479 11.107 14.376 12.003 15.442 2.345 20.684-2.923 24.437-7.027 4.691-5.131 4.868-12.903 4.192-15.936-.783-3.513-3.828-8.59-5.483-9.748a21.84 21.84 0 0 0-8.341-5.43c-5.123-1.851-13.866-.819-18.614 1.658-6.084 3.175-8.425 5.09-10.261 8.344-2.493 4.418-1.832 11.299-.306 16.136" style="fill:#122a89"/><circle cx="100.362" cy="101.728" r="5.12" style="fill:#fff"/><path d="M59.499 116.681c4.602-15.037 15.196-25.743 32.038-28.747 32.31-5.763 47.03 4.733 58.732 13.349 8.448 6.22 5.704 9.588 1.824 8.146-13.945-5.182-24.805-16.487-51.172-14.806-14.463.922-25.868 7.414-33.28 24.074-2.937 6.6-10.196 4.696-8.142-2.016" style="fill:#122a89"/></svg>