<svg xmlns="http://www.w3.org/2000/svg" xml:space="preserve" viewBox="0 0 215 220"><path d="M62.982 112.621c-2.79 3.316-3.276 8.037 0 11.314 2.87 2.869 8.531 3.309 11.314 0 3.177-3.777 6.981-6.954 11.163-9.541-1.186 5.901-.507 11.643.645 14.374.212.502.502 1.104.832 1.744-1.013.215-1.992.538-2.855 1.071-2.702 1.671-2.718 5.012 0 6.68 6.174 3.791 14.095 5.821 22.206 6.282.33.026.669.036 1.008.048 10.522.417 21.264-1.868 28.911-7.104 2.75-1.882 2.587-4.782 0-6.68-1.354-.993-3.332-1.393-5.283-1.318.959-3.029 1.349-6.304 1.112-9.718a27.7 27.7 0 0 0-2.714-10.193c4.092 1.52 7.982 3.624 11.5 6.398 3.404 2.686 7.961 3.354 11.314 0 2.802-2.803 3.395-8.636 0-11.313-26.128-20.604-67.308-18.016-89.153 7.956m38.421 6.573a7.061 7.061 0 1 1 0-14.122 7.061 7.061 0 0 1 0 14.122" style="fill:#122a89"/><path d="M150.07 83.838c-26.576-10.93-56.983-11.624-84.309 4.257-3.489 2.028-15.251 10.59-12.284 14.055 3.053 3.564 12.176-3.343 15.657-5.366 19.824-11.522 53.779-16.792 83.186-2.297 4.093 2.018 9.25 4.085 11.408 0 1.822-3.451-9.449-8.918-13.658-10.649" style="fill:#122a89"/></svg>