<svg xmlns="http://www.w3.org/2000/svg" xml:space="preserve" viewBox="0 0 215 220"><path d="M154.131 105.503c-6.543-1.975-11.807-7.521-17.127-11.561-6.554-4.977-13.722-8.935-22.033-9.8-9.97-1.037-22.129 1.951-30.602 7.131-8.369 5.115-16.817 12.626-24.078 19.109-2.397 2.14 2.113 2.477 3.325 2.407 3.109-.179 6.446-1.971 9.32-3.362 6.904-3.342 15.078-7.857 21.669-12.468 5.603-3.919 10.605-7.921 17.084-5.498 11.631 4.35 19.115 15.945 31.015 19.537 2.963.894 7.099-.418 9.752-1.748 1.334-.67 4.685-2.839 1.675-3.747" style="fill:#122a89"/><path d="M88.594 93.657c5.428-3.49 16.183-6.569 24.474-4.752 6.546 1.435 13.766 7.969 18.263 17.372 3.401 7.111 3.663 13.825 2.114 19.286-1.89 6.666-8.202 12.654-22.235 9.405-6.43-1.489-13.809-1.405-20.613-2.958-10.539-2.405-13.536-14.36-14.026-19.22-.958-9.506 6.287-15.444 12.023-19.133" style="fill:#122a89"/><circle cx="105.907" cy="108.237" r="6.713" style="fill:#fff"/></svg>