<svg xmlns="http://www.w3.org/2000/svg" xml:space="preserve" viewBox="0 0 215 220"><path d="m159.865 110.045-25.626-7.583c-8.56-2.533-17.122-5.604-26.105-6.057-18.242-.919-34.892 8.037-49.829 17.469-2.542 1.605-6.062 5.051-1.929 7.107 3.863 1.922 10.666.108 14.072-2.043 2.129-1.345 4.327-2.777 6.575-4.172.062 2.574 1.71 5.365 8.476 5.636 5.931.237 5.553.436 29.251 1.552 10.25.457 18.474-1.128 21.193-5.103l7.921 2.344c4.622 1.368 9.928.369 14.072-2.042 2.059-1.199 6.619-5.72 1.929-7.108" style="fill:#122a89"/></svg>