<svg xmlns="http://www.w3.org/2000/svg" xml:space="preserve" viewBox="0 0 215 220"><path d="M156.404 90.864c-1.256-.388-4.762 3.011-9.964 4.703-3.826 1.244-8.533 1.939-9.288 2.109-.382.085-.667.289-.992.447-.736-.361-1.503-.654-2.253-.987 1.621-1.685 2.948-3.633 4.273-6.113 2.106-3.939 2.963-8.847.541-8.944-1.314-.053-3.831 4.13-8.426 7.099-2.785 1.799-6.126 3.338-7.641 4.043-1.401-.355-2.779-.75-4.188-1.019 1.205-2.502 1.896-5.112 2.262-8.403.494-4.439-.531-9.314-2.816-8.506-1.24.438-2.025 5.257-5.191 9.718-1.643 2.315-3.759 4.624-5.064 6.017a55 55 0 0 0-5.433.183c.618-2.172.83-4.412.767-7.123-.094-4.02-1.595-8.243-3.536-7.248-1.053.54-1.173 4.933-3.459 9.293-1.425 2.718-3.425 5.472-4.257 6.637-1.162.247-2.317.528-3.472.812-.044-2.043-.456-4.034-1.237-6.359-1.152-3.43-3.568-6.661-4.972-5.288-.761.745.306 4.553-.498 8.911-.316 1.715-.833 3.513-1.279 4.94a173 173 0 0 0-14.712 5.333c-7.677 3.186-7.061 6.887-3.499 6.903 2.554.011 9.269-2.119 19.79-4.321-3.667 6.039-3.326 17.923-.683 24.333v.001c-7.26-3.003-11.926-5.377-13.908-5.668-3.115-.457-4.095 3.064 2.236 7.185 9.191 5.985 24.872 14.711 37.56 15.698 11.163.87 23.441-1.698 33.391-8.016 4.125-2.617 7.386-8.59 5.038-9.791-1.937-.991-6.89.457-16.411 4.846-1.313.605-2.878.952-4.354 1.396 1.671-3.314 2.784-7.47 3.075-12.676.312-5.59-.454-12.119-3.667-17.298 3.198 1.022 6.167 2.275 8.734 3.771 10.092 5.884 15.458 8.103 17.769 7.4 2.679-.814.182-6.78-3.773-10.164 2.416-1.284 4.497-2.955 6.723-5.344 3.044-3.27 5.13-7.794 2.814-8.51M92.79 118.257a7.864 7.864 0 1 1 0-15.728 7.864 7.864 0 0 1 0 15.728" style="fill:#122a89"/></svg>