<svg xmlns="http://www.w3.org/2000/svg" xml:space="preserve" viewBox="0 0 215 220"><path d="M152.145 111.51c-6.385-6.861-13.919-13.093-20.182-14.883-9.602-2.745-18.724-3.266-35.447-2.47-7.451.355-11.721 2.075-16.981 5.281-6.017 3.667-8.231 5.688-11.25 9.085-3.637 4.093-2.52 8.53 3.373 7.174 2.354-.542 7.52-3.222 12.417-5.743a25 25 0 0 1 1.604-.73 17.6 17.6 0 0 0-.575 3.376c-.325 4.416.257 7.468 4.526 11.646 4.483 4.387 9.91 3.866 14.801 3.739 7.852-.205 12.498.268 18.496-5.05 5.244-4.649 5.959-10.406 2.938-15.695-.198-.348-.476-.55-.687-.874 1.72.328 3.31.712 4.746 1.187 5.681 1.88 12.646 7.242 15.837 9.482 4.488 3.151 7.469 3.297 9.263 2.101 2.867-1.909-.739-5.326-2.879-7.626m-46.93 2.558a6.156 6.156 0 1 1-.43-12.306 6.156 6.156 0 1 1 .43 12.306" style="fill:#122a89"/></svg>