<svg xmlns="http://www.w3.org/2000/svg" xml:space="preserve" viewBox="0 0 215 220"><path d="M138.147 113.532c-9.511-3.857-17.094-5.2-30.499-5.7-8.351-.312-17.995.533-26.287 3.281-7.894 2.616-9.32 4.645-9.388 7.632-.071 3.106 2.214 5.049 6.809 6.999 5.329 2.261 13.914.768 30.861.768 12.203 0 23.642 2.165 31.314-2.276 5.914-3.423 5.504-7.332-2.81-10.704m-50.313-8.944c1.945-.289 3.9-.542 5.874-.743q.683-.068 1.366-.129l.326-.023a128 128 0 0 1 14.545-.197c3.684.158 6.015.362 10.152.948 3.902.553 7.713 1.299 11.437 2.203 3.902.947 8.952-1.036 9.841-3.433 1.049-2.831-1.41-5.033-5.588-6.046-16.529-4.011-34.971-4.612-52.207-2.058-4.071.603-6.889 3.577-5.588 6.046 1.371 2.6 5.48 4.078 9.842 3.432" style="fill:#122a89"/></svg>