<svg xmlns="http://www.w3.org/2000/svg" xml:space="preserve" viewBox="0 0 215 220"><path d="m150.176 101.641.029-.028c2.206-2.541 3.558-5.632 3.635-9.023.051-2.241-1.874-3.905-4-4-.997-.044-2.135.478-2.829 1.172-.742.742-1.148 1.788-1.171 2.828-.002.107-.019.213-.025.32a10 10 0 0 1-.418 1.518 11 11 0 0 1-.832 1.426c-.297.345-.626.657-.963.963a45 45 0 0 0-7.248-3.93c1.539-2.235 2.489-4.79 2.552-7.564.051-2.241-1.874-3.905-4-4-.997-.044-2.135.478-2.829 1.172-.742.742-1.148 1.788-1.171 2.828-.002.107-.019.213-.025.32a10 10 0 0 1-.418 1.518 11 11 0 0 1-.832 1.426q-.542.63-1.17 1.171c-.093.064-.196.109-.29.17a64 64 0 0 0-9.714-2.204c.349-1.148.6-2.331.628-3.572.051-2.241-1.874-3.905-4-4-.997-.044-2.135.478-2.829 1.172-.742.742-1.148 1.788-1.171 2.828-.002.107-.019.213-.025.32a10 10 0 0 1-.418 1.518c-.168.347-.377.67-.581.996-2.959-.073-5.974-.027-9.11.248-10.059.879-23.52 7.266-28.836 12.391-5.309 5.121-7.922 8.078-10.359 13.133-1.496 3.113-.254 7.184 2.77 9.07.886.55 1.941.86 3.052.927 2.123 2.302 4.808 4.565 9.771 8.361 5.671 4.338 15.163 7.749 22.616 8.86 10.504 1.566 21.625-.701 30.526-5.979 9.202-5.457 10.634-7.255 16.177-13.589.674-.77 1.396-1.861 2.098-3.04 1.604.366 2.929.108 3.885-.38 2.262-1.141 3.422-3.68 3.102-6.781-.355-3.503-2.241-5.861-5.577-8.566m-47.371.659a4.937 4.937 0 0 1 4.937 4.938 4.937 4.937 0 1 1-4.937-4.938m37.395 15.361c-2.739 3.135-10.815 9.487-16.243 12.279-.837.404-8.563 4.619-19.129 3.868-5.704-.406-14.17-2.898-18.521-5.703-3.927-2.531-8.058-6.007-11.665-9.381a66 66 0 0 1 9.353-9.361c.946-.777 2.732-1.933 5.055-3.122-2.332 5.02-1.306 11.835 2.867 16.417 5.2 5.71 9.669 6.428 15.66 6.702 4.584.21 10.063-1.014 14.597-5.081 4.316-3.872 5.096-6.875 5.133-11.297.032-3.712-.819-6.293-2.453-8.671 4.858 1.367 13.612 5.772 18.313 9.646-.838 1.177-1.771 2.335-2.967 3.704" style="fill:#122a89"/></svg>