<svg xmlns="http://www.w3.org/2000/svg" xml:space="preserve" viewBox="0 0 215 220"><path d="M125.858 85.287c1.559-.666 10.693-5.632 6.444-8.333-7.757-4.931-17.099-4.705-25.731-2.244-8.531 2.431-16.954 7.35-21.12 15.452-3.015 5.862-2.358 13.174.837 18.812 1.767 3.117 4.061 5.568 6.665 7.595-3.93 3.168-6.611 7.419-6.542 12.79.179 13.856 16.213 18.731 27.557 18.207 5.104-.236 12.105-1.676 15.377-6.047 3.176-4.243-2.737-5.892-5.996-5.741-.033.002-1.536.022-1.789.064a19 19 0 0 1-1.949-.257c-.717-.14-2.627-.747-3.841-1.444-2.317-1.329-4.214-3.498-5.194-5.97-.769-1.939-1.188-4.091-.785-6.13 3.672-.489 7.447-1.941 10.152-3.729 2.557-1.691 5.704-5.488 1.253-7.264a20 20 0 0 0-3.108-.941c-.38-.147-.764-.287-1.137-.459-.908-.42-1.206-.591-2.017-1.179-1.962-1.425-3.775-3.201-5.135-5.216-2.305-3.415-3.613-8.122-2.794-12.202.2-.995.512-1.95.884-2.893.276-.701.415-.968 1.167-1.965.247-.328.515-.636.781-.947l.067.024c.142.057 1.352.715.758.338 4.348 2.764 10.687 1.607 15.196-.321" style="fill:#122a89"/></svg>