<svg xmlns="http://www.w3.org/2000/svg" xml:space="preserve" viewBox="0 0 215 220"><path d="M135.769 133.001c-8.074 1.302-14.617 2.494-17.359 2.729-12.645 1.083-23.429 1.243-37.515-.834-4.641-.684-5.284 4.691 3.338 6.587 4.505.99 22.132 1.15 26.819.846 13.031-.847 22.254-2.992 22.376-3.024 6.048-1.575 12.033-3.318 10.37-6.41-.691-1.284-6.822-.089-8.029.106m6.757-37.398c-7.193-3.751-9.664-4.083-17.593-4.422-8.953-.384-24.694-.538-34.14.237-17.55 1.439-21.581 5.542-25.516 12.762-3.196 5.864-3.542 9.999-.3 11.173 4.182 1.515 4.569-4.577 10.595-9.882 2.393-2.106 6.817-4.027 11.934-5.472-3.1 1.939-4.67 4.572-5.056 7.748-.922 7.584.332 13.404 8.242 17.745a131 131 0 0 1-9.538-1.043c-4.007-.591-4.563 4.052 2.883 5.689 3.891.855 19.114.993 23.162.73 11.254-.731 19.219-2.584 19.325-2.612 5.223-1.36 10.392-2.865 8.956-5.536-.597-1.108-5.893-.076-6.935.093-.426.069-.794.131-1.209.199 7.18-5.729 7.573-17.36.698-23.044 5.541 1.501 11.281 3.472 16.014 6.63 3.157 2.106 10.124 10.191 10.693 5.656.587-4.674-5.276-13.033-12.215-16.651m-43.871 12.972a5.542 5.542 0 1 1-.964-11.042 5.542 5.542 0 0 1 .964 11.042" style="fill:#122a89"/><path d="M149.479 82.659c-34.91-8.806-60.863-3.021-79.809 2.899-10.271 3.209-15.892 8.592-4.975 6.158 32.012-7.14 55.308-7.322 86.645-2.753 10.608 1.547 7.968-3.824-1.861-6.304" style="fill:#122a89"/></svg>