<svg xmlns="http://www.w3.org/2000/svg" xml:space="preserve" viewBox="0 0 215 220"><path d="M148.211 108.998c-15.107-9.472-28.983-18.359-48.721-15.487-15.434 2.247-26.994 9.994-35.224 25.736-3.396 6.496 1.044 10.701 5.802 5.08 6.704-7.921 11.653-13.262 16.771-16.795-.776.854-1.463 1.747-2.047 2.782-2.623 4.647-1.928 11.884-.322 16.971.183.58.456 1.161.741 1.74-2.044-.625-4.12-1.3-6.277-2.073-6.486-2.324-4.759 3.814 1.274 7.134 21.428 11.792 37.081 6.81 48.468 1.28 6.174-2.998 9.47-8.681 2.886-6.584-1.53.487-2.98.852-4.451 1.249 3.123-5.167 3.196-11.543 2.587-14.273-.824-3.695-4.026-9.034-5.766-10.252-.118-.123-.274-.207-.395-.328 9.588 3.632 18.438 9.234 26.417 12.559 3.714 1.546 7.018-3.247-1.743-8.739m-48.712 5.492a5.492 5.492 0 1 1 0-10.985 5.492 5.492 0 0 1 0 10.985" style="fill:#122a89"/><path d="M76.615 90.155c26.87-4.833 46.062-2.766 71.533 5.378 8.622 2.757 6.835-3.484-1.079-7.204-28.107-13.211-49.892-9.296-65.916-4.548-8.687 2.575-13.701 8.023-4.538 6.374" style="fill:#122a89"/></svg>