<svg xmlns="http://www.w3.org/2000/svg" xml:space="preserve" viewBox="0 0 215 220"><path d="M149.87 109.386c-18.521-8.637-32.719-18.359-52.458-15.487-15.434 2.247-26.994 9.994-35.224 25.736-3.396 6.496 1.044 10.701 5.802 5.08 6.704-7.921 11.653-13.261 16.771-16.793-.776.854-1.463 1.746-2.047 2.781-2.623 4.646-1.928 11.884-.322 16.971 1.813 5.743 8.918 11.682 15.12 12.624 16.242 2.467 21.754-3.074 25.701-7.391 4.934-5.396 5.12-13.57 4.409-16.76-.79-3.543-3.74-8.508-5.518-9.991 10.793 4.07 21.228 9.742 30.022 9.742 7.255-.001 2.798-4.155-2.256-6.512m-52.449 5.493a5.49 5.49 0 0 1-5.492-5.493 5.492 5.492 0 1 1 5.492 5.493" style="fill:#122a89"/><path d="M84.396 90.544c19.548-4.833 33.511-2.766 52.042 5.378 6.272 2.756 4.972-3.484-.785-7.204-20.449-13.211-36.297-9.296-47.955-4.548-6.321 2.574-9.969 8.022-3.302 6.374" style="fill:#122a89"/></svg>