<svg xmlns="http://www.w3.org/2000/svg" xml:space="preserve" viewBox="0 0 215 220"><path d="M158.174 98.503c-6.652-4.801-24.599-5.561-46.669-1.346-19.933 3.807-31.174.98-39.401-1.479-10.712-3.202-14.99-.163-15.066 2.944-.074 2.988 1.548 5.104 10.977 8.218 6.861 2.266 12.272 3.52 18.297 4.177-.449.999-.765 2.029-.765 3.111 0 6.722 9.218 12.17 20.589 12.17 11.372 0 20.59-5.449 20.59-12.17 0-2.286-1.132-4.4-2.986-6.228 3.716-.834 7.38-1.646 11.063-2.254 16.72-2.758 29.938-2.404 23.371-7.143" style="fill:#122a89"/></svg>