<svg xmlns="http://www.w3.org/2000/svg" xml:space="preserve" viewBox="0 0 215 220"><path d="M164.882 107.525c-19.079-6.203-31.533-18.855-51.929-21.335-19.61-2.385-38.985 3.41-50.087 19.414-5.889 8.488-1.555 14.934 4.274 6.53 3.411-4.917 8.913-8.659 15.211-11.22-2.407 5.107-3.062 11.081-1.623 16.502 1.292 4.868 4.299 9.236 8.558 11.958 4.013 2.565 11.028 4.282 20.301 2.5 9.925-1.907 14.097-8.018 15.76-17.944.671-4.004.201-8.074-1.166-11.798 9.292 4.562 15.301 10.375 27.504 12.903 10.124 2.097 22.948-4.34 13.197-7.51m-65.956 1.522a6.158 6.158 0 1 1 .001-12.315 6.158 6.158 0 0 1-.001 12.315" style="fill:#122a89"/></svg>