<svg xmlns="http://www.w3.org/2000/svg" xml:space="preserve" viewBox="0 0 215 220"><path d="M162.008 107.053c-10.007-.935-13.467-.75-25.147-5.911-9.482-4.189-14.857-6.381-24.117-8.381-9.894-2.137-19.029-2.708-29.328.769-10.172 3.434-22.945 8.796-29.231 15.452-4.438 4.699 5.454 6.632 16.277 4.564 7.205-1.376 19.912-3.406 28.981-2.22 22.945 3.001 22.989 7.889 44.591 6.037 11.096-.951 24.787-9.673 17.974-10.31M110.26 121.9c-11.559-2.507-23.676-2.356-35.163.462-1.896.465-3.371 1.948-3.088 4.048.24 1.781 2.157 3.552 4.048 3.088 10.953-2.687 22.21-2.852 33.231-.461 1.909.414 3.808-1.27 4.054-3.083.275-2.035-1.183-3.642-3.082-4.054" style="fill:#122a89"/></svg>