<svg xmlns="http://www.w3.org/2000/svg" xml:space="preserve" viewBox="0 0 215 220"><path d="M163.192 109.33c-7.094-1.353-10.398-2.55-16.041-5.739-2.456-1.387-6.235-3.874-10.46-6.507 9.468 2.992 15.37 5.562 17.635 5.851 2.971.378 3.938-2.259-2.074-5.428-8.729-4.602-23.633-11.338-35.744-12.22-8.156-.594-16.935.349-24.9 2.891a38 38 0 0 0-7.067 2.771 12 12 0 0 0-1.515.886c-9.786 5.576-26.605 20.316-30.349 28.202-1.276 2.687 3.078 1.451 5.37.497 2.98-1.24 5.005-2.929 9.571-6.653 1.746-1.424 4.262-3.51 7.278-5.755a26 26 0 0 0-.951 2.995c-1.658 6.679.292 12.762 9.586 19.119 5.48 3.748 16.337 6.061 27.498 5.006 13.536-1.279 19.355-6.991 21.541-13.581 1.5-4.521 1.232-11.182-2.56-16.557 3.786 2.485 7.567 4.909 11.601 6.492 7.635 2.999 16.556 2.313 19.543 1.033 1.504-.644 5.302-2.681 2.038-3.303m-67.679 1.823a6.5 6.5 0 1 1 0-12.999 6.5 6.5 0 0 1 0 12.999" style="fill:#122a89"/></svg>