<svg xmlns="http://www.w3.org/2000/svg" xml:space="preserve" viewBox="0 0 215 220"><path d="M122.17 137.257c-2.077-.957-4.283-1.511-6.504-2.002-13.007-2.878-26.591-3.312-39.722-1-3.818.672.914 3.519 2.172 4.125 3.436 1.651 8.072 2.93 11.896 2.258 5.386-.948 9.887-1.316 15.411-1.218q.775.015 1.551.046c.192.015.997.058 1.184.072q2.117.15 4.22.402c.164.02 1.169.164 1.434.195l.982.164q2.089.367 4.157.831c.655.144 7.896 1.287 6.75-1.379-.477-1.106-2.615-2.069-3.531-2.494m36.146-30.027-25.626-7.583c-8.225-2.434-16.43-5.328-25.078-5.695-18.004-.765-34.346 8.216-49.076 17.518-2.831 1.788-5.783 5.573-1.738 7.822 3.947 2.194 10.602.368 14.123-1.855 2.096-1.323 4.272-2.73 6.499-4.105.274 2.417 2.119 4.865 8.432 5.118 5.931.237 5.553.436 29.251 1.552 10.13.451 18.272-1.097 21.088-4.969 3.315 1.052 6.625 2.095 9.927 3.072 4.419 1.308 10.79-.743 14.099-3.778 3.293-3.023 2.051-5.928-1.901-7.097" style="fill:#122a89"/></svg>