<svg xmlns="http://www.w3.org/2000/svg" xml:space="preserve" viewBox="0 0 215 220"><path d="M163.586 118.428c-6.347-2.246-11.143-3.286-20.535-10.518-6.581-5.067-18.408-12.761-28.395-15.383-10.168-2.67-21.271-1.972-30.681 2.379-9.295 4.297-23.03 14.601-27.26 23.5-1.372 2.887 2.845 2.024 5.082 1.228 2.909-1.036 4.935-2.699 9.499-6.353a67 67 0 0 1 7.066-4.914c-.811 1.439-1.519 2.938-2.062 4.528-2.072 6.071 5.301 16.072 15.827 14.636 7.956-1.085 14.729 1.309 22.045 2.14 11.309 1.284 14.939-4.286 16.715-10.546.206-.727.181-1.331.246-1.979 2.375 2.758 4.669 5.079 7.338 7.325 1.08.908 5.3 3.636 6.519 4.22 2.917 1.397 5.701-1.398 3.664-3.279-1.359-1.255-3.349-3.662-5.453-6.408 8.632 3.437 14.875 3.335 18.251 2.914 2.784-.347 5.202-2.381 2.134-3.49m-60.459-8.712a6.5 6.5 0 0 1-7.529-5.272c-.167-.944-.092-1.865.133-2.736a39.7 39.7 0 0 1 11.771-.178c.247.033.451.099.693.136.05.185.171.33.205.521a6.5 6.5 0 0 1-5.273 7.529" style="fill:#122a89"/><path d="M62.624 100.451c2.649-.731 7.683-5.109 16.145-9.024 7.475-3.459 14.187-5.032 26.592-4.661 9.245.276 18.009 1.55 22.917 3.401 6.019 2.27 10.599 5.075 14.467 7.434 4.203 2.563 9.153 7.312 11.246 6.716 1.901-.542-.108-3.832-2.486-5.906-5.697-4.97-8.744-7.112-18.431-11.549-8.335-3.817-17.779-5.14-28.709-5.177-10.041-.034-18.039 1.77-23.811 3.943-9.976 3.756-16.553 8.54-19.829 11.973-1.832 1.921-.819 3.6 1.899 2.85" style="fill:#122a89"/></svg>