<svg xmlns="http://www.w3.org/2000/svg" xml:space="preserve" viewBox="0 0 215 220"><path d="M154.542 110.386c-17.917-7.557-37.233-14.41-56.971-11.537-15.434 2.247-30.404 10.713-37.573 24.971-2.54 5.051 5.054 9.502 7.599 4.442 4.416-8.782 12.272-14.787 21.25-18.14-.41.563-.917 1.036-1.251 1.666-2.035 3.84-2.701 8.509-1.456 12.713.513 1.731 1.396 3.212 2.43 4.567-3.248-.327-6.404-.728-9.359-1.112-2.373-.31-4.4 2.26-4.4 4.4 0 2.598 2.044 4.093 4.4 4.4 11.861 1.543 24.018 3.001 35.816.185 9.73-2.324 18.526-7.573 24.313-15.82 3.264-4.65-4.369-9.042-7.598-4.442-3.604 5.135-8.386 8.38-13.781 10.351.143-.224.328-.415.46-.646.317-.372.683-.698.965-1.096 1.517-2.14 2.253-4.763 2.314-7.393.293-2.649-.183-5.391-1.523-7.726-.475-.826-1.081-1.543-1.745-2.205 11.661 1.932 23.019 6.373 33.771 10.908 5.218 2.202 7.477-6.319 2.339-8.486m-56.962 9.442a5.493 5.493 0 1 1 0-10.985 5.493 5.493 0 0 1 0 10.985m-9.447-26.096c13.437-4.6 28.329-3.663 40.949 2.947 5.017 2.626 9.46-4.972 4.441-7.599-14.624-7.658-32.071-9.193-47.73-3.833-5.335 1.826-3.029 10.323 2.34 8.485" style="fill:#122a89"/></svg>