<svg xmlns="http://www.w3.org/2000/svg" xml:space="preserve" viewBox="0 0 215 220"><path d="M163.004 116.109c-6.052-2.364-12.469-6.099-17.268-10.043-6.191-5.088-15.662-13.615-24.164-16.391-8.678-2.833-18.226-3.778-28.798-1.44-9.016 1.993-23.481 10.544-29.123 15.984-1.878 1.812-2.981 4.433-.876 5.777 1.866 1.191 6.905-1.55 14.311-4.992 3.51-1.631 8.635-3.886 14.888-5.277-1.115.521-2.235 1.031-3.294 1.708-6.604 4.22-10.181 11.858-9.429 19.314.385 3.811 2.215 13.062 11 17.227 4.946 2.344 11.024 2.918 16.166 2.32 11.85-1.379 17.141-7.774 18.624-13.002 1.214-4.282 1.977-10.384-.69-15.961-2.571-5.376-7.417-9.507-11.847-11.814 10.854 2.266 15.307 7.192 24.214 12.641 8.278 5.064 14.274 7.583 21.919 8.366 5.659.579 7.15-3.329 4.367-4.417m-64.607 2.534a6.841 6.841 0 1 1 0-13.682 6.841 6.841 0 0 1 0 13.682" style="fill:#122a89"/><path d="M79.679 88.23c18.81-9.944 41.638-7.352 58.551 6.055 3.147 2.495 6.125-3.319 3.012-5.787-18.731-14.849-43.911-16.979-64.576-6.055-3.475 1.837-.442 7.613 3.013 5.787" style="fill:#122a89"/></svg>