<svg xmlns="http://www.w3.org/2000/svg" xml:space="preserve" viewBox="0 0 215 220"><path d="M122.39 129.577c-13.618 5.66-29.239 5.362-42.444-1.347-4.324-2.197-8.138 4.315-3.808 6.515 14.887 7.563 32.778 8.542 48.257 2.107 1.89-.785 3.231-2.469 2.635-4.64-.492-1.789-2.758-3.417-4.64-2.635" style="fill:#122a89"/><path d="M163.004 108.695c-6.052-2.365-12.469-6.099-17.268-10.043-6.191-5.088-15.662-13.615-24.164-16.391-8.678-2.833-18.226-3.778-28.798-1.44-9.016 1.993-23.481 10.544-29.123 15.985-1.878 1.812-2.981 4.433-.876 5.777 1.866 1.192 6.905-1.55 14.311-4.992 3.611-1.678 8.935-4.013 15.438-5.39-1.16.525-2.316 1.068-3.414 1.77-6.273 4.009-9.671 11.266-8.958 18.348.365 3.621 2.104 12.41 10.45 16.366 4.698 2.227 10.473 2.772 15.357 2.204 11.257-1.31 16.284-7.386 17.692-12.352 1.154-4.068 1.877-9.865-.656-15.163-2.574-5.381-7.532-9.457-11.913-11.562 11.937 2.115 16.338 7.25 25.633 12.936 8.278 5.064 14.274 7.583 21.919 8.366 5.662.578 7.153-3.33 4.37-4.419m-64.875 3.881a6.841 6.841 0 1 1 0-13.682 6.841 6.841 0 0 1 0 13.682" style="fill:#122a89"/></svg>