<svg xmlns="http://www.w3.org/2000/svg" xml:space="preserve" viewBox="0 0 215 220"><path d="M164.137 113.727c-6.052-2.365-12.468-6.099-17.268-10.043-6.19-5.088-17.929-13.655-26.431-16.43-8.677-2.833-18.226-3.778-28.798-1.44-9.016 1.993-23.481 10.544-29.123 15.984-1.878 1.812-2.981 4.433-.876 5.777 1.866 1.191 6.905-1.55 14.311-4.992 2.591-1.204 6.069-2.752 10.213-4.047-.142.07-.296.108-.437.181-7.55 3.878-11.728 11.063-11 18.159.373 3.627 2.292 12.452 12.174 16.581 5.563 2.325 12.439 2.989 18.273 2.522 13.445-1.075 19.545-7.045 21.311-11.981 1.447-4.043 2.411-9.824-.518-15.174-2.806-5.126-8.18-9.15-13.134-11.437 10.259 2.392 16.486 7.173 25.015 12.391 8.278 5.064 14.274 7.583 21.919 8.366 5.661.58 7.153-3.328 4.369-4.417m-67.124-.666a6.841 6.841 0 1 1 0-13.682 6.841 6.841 0 0 1 0 13.682" style="fill:#122a89"/></svg>