<svg xmlns="http://www.w3.org/2000/svg" xml:space="preserve" viewBox="0 0 215 220"><path d="M160.736 119.976c-6.052-2.365-12.468-6.099-17.268-10.043-6.19-5.088-15.661-13.615-24.164-16.391-8.678-2.833-18.226-3.778-28.798-1.44-9.016 1.993-23.482 10.544-29.123 15.985-1.878 1.812-2.981 4.433-.876 5.777 1.866 1.192 6.905-1.55 14.311-4.992 3.51-1.631 8.635-3.886 14.888-5.277-1.115.521-2.236 1.031-3.295 1.708-6.604 4.22-10.18 11.859-9.429 19.314.384 3.811 2.215 13.063 11 17.227 4.946 2.344 11.024 2.917 16.165 2.319 11.85-1.379 17.142-7.774 18.624-13.001 1.214-4.283 1.976-10.384-.691-15.961-2.571-5.376-7.417-9.507-11.846-11.813 10.854 2.266 15.307 7.192 24.214 12.641 8.278 5.064 14.274 7.583 21.919 8.366 5.661.578 7.153-3.33 4.369-4.419m-64.607 2.534a6.841 6.841 0 1 1 0-13.682 6.841 6.841 0 0 1 0 13.682" style="fill:#122a89"/><path d="M67.757 93.091c25.037-13.235 55.421-9.786 77.932 8.06 4.189 3.321 8.153-4.418 4.009-7.703-24.931-19.763-58.446-22.599-85.951-8.06-4.625 2.446-.588 10.134 4.01 7.703" style="fill:#122a89"/></svg>