<svg xmlns="http://www.w3.org/2000/svg" xml:space="preserve" viewBox="0 0 215 220"><path d="M158.618 113.91c-6.667-2.013-9.805-3.626-15.227-7.744-2.852-2.165-7.573-6.324-12.681-10.453 12.24 5.134 19.545 9.712 22.07 10.343 2.702.675 3.763-1.845-1.544-5.597-7.707-5.449-20.94-13.64-31.998-15.738-9.729-1.846-20.634-1.25-29.714 2.393-.248.099-.482.236-.724.356-3.064 1.124-6.001 2.411-8.561 3.975-8.529 5.213-16.79 11.855-22.45 20.002-1.984 2.856.528 3.313 2.577 2.494 2.947-1.178 5.979-3.54 10.042-5.964a61 61 0 0 0 2.835-1.837c-.807 2.159-1.224 4.543-.953 7.234.5 4.952 1.286 14.869 12.027 17.32 6.934 1.583 16.722 3.765 23.275 5.282 14.301 3.312 20.734-2.792 22.66-9.585 1.498-5.281 1.24-11.727-1.742-18.562 3.335 2.875 6.679 5.633 10.178 7.562 7.263 4.004 15.515 3.692 18.219 2.337 1.363-.681 4.778-2.892 1.711-3.818m-51.289 1.666a6.841 6.841 0 1 1 0-13.682 6.841 6.841 0 0 1 0 13.682" style="fill:#122a89"/></svg>