<svg xmlns="http://www.w3.org/2000/svg" xml:space="preserve" viewBox="0 0 215 220"><path d="M160.314 108.356c-.618-1.009-5.007-.798-9.527-2.75-3.325-1.435-6.917-3.765-7.528-4.099-.782-.429-1.576-.498-2.341-.417.821-.328 1.638-.658 2.522-1.099 3.597-1.795 6.781-4.952 5.054-6.285-.937-.723-4.963 1.038-9.882.824-3.617-.157-7.805-1.054-8.495-1.148-.218-.03-.402.039-.61.04 2.621-2.955 4.358-6.892 2.307-7.5-1.134-.337-4.255 2.757-8.92 4.332-1.852.625-3.891 1.097-5.523 1.435-.898-.279-1.733-.574-2.676-.842-9.392-2.665-24.282-1.965-33.522.872-7.88 2.419-15.463 7.462-21.042 12.079-3.097 2.563-4.242 4.612-3.34 5.656.086.445.243.879.539 1.263.762.992 18.848 24 48.934 24 .375 0 .766 0 1.148-.008 30.694-.6 40.077-20.77 40.735-22.267 1.616.154 3.284.177 5.207-.013 3.999-.397 8.098-2.213 6.96-4.073m-95.872 1.336c4.216-1.061 10.35-2.894 19.562-4-1.585 4.388-1.106 10.655.66 14.316 1.187 2.46 2.51 4.146 3.877 5.539-11.901-4.297-20.275-11.86-24.099-15.855m33.536 5.588c-3.697 0-6.695-2.864-6.695-6.397 0-1.504.625-2.828 1.536-3.92 2.269-.112 4.629-.192 7.198-.192 1.085 0 2.026.088 3.067.116.946 1.103 1.589 2.459 1.589 3.997 0 3.533-2.997 6.396-6.695 6.396m41.296-13.611q-.03.017-.058.036l-.021-.015zm-23.415 26.187c3.434-2.4 5.782-6.465 6.187-12.664.174-2.664-.07-5.643-1.085-8.408 9.282 1.799 15.905 4.262 20.524 5.305-2.504 4.074-9.699 12.998-25.626 15.767" style="fill:#122a89"/></svg>