<svg xmlns="http://www.w3.org/2000/svg" xml:space="preserve" viewBox="0 0 215 220"><path d="M75.485 131.268c12.884-2.269 26.214-1.843 38.977.981 2.179.482 4.344 1.026 6.381 1.965.899.417 2.996 1.361 3.464 2.447 1.125 2.616-5.981 1.494-6.624 1.353a91 91 0 0 0-4.079-.815l-.964-.161c-.259-.031-1.246-.172-1.407-.192a86 86 0 0 0-4.141-.395c-.183-.014-.972-.056-1.161-.07a64 64 0 0 0-1.522-.045c-5.42-.096-9.837.265-15.122 1.195-3.752.66-8.301-.595-11.672-2.215-1.234-.595-5.876-3.388-2.13-4.048m-5.047-16.947c9.32-5.885 19.806-13.563 31.407-11.45 6.578 1.199 13.014 3.529 19.415 5.423l21.216 6.278c4.535 1.342 9.742.362 13.808-2.004 2.021-1.176 6.495-5.611 1.893-6.973l-25.145-7.441c-8.399-2.485-16.801-5.5-25.616-5.944-17.899-.902-34.237 7.886-48.893 17.141-2.494 1.575-5.948 4.956-1.893 6.973 3.79 1.887 10.466.107 13.808-2.003" style="fill:#122a89"/><path d="M118.593 100.736c-11.19-5.153-24.693-3.532-30.208-1.353s-10.461 6.335-11.073 8.144c-.916 2.706-1.336 18.986 7.893 19.355 5.819.233 5.449.427 28.702 1.523 10.445.466 18.807-12.329 21.136-16.569.982-2.48-5.259-5.947-16.45-11.1" style="fill:#122a89"/><circle cx="106.308" cy="108.333" r="5.437" style="fill:#fff"/></svg>