<svg xmlns="http://www.w3.org/2000/svg" xml:space="preserve" viewBox="0 0 215 220"><path d="M157.939 106.446c-5.953-6.184-9.211-8.852-19.312-14.598-8.156-4.629-18.125-7.344-31.367-8.547-12.118-1.101-21.29.517-26.837 2.067-13.578 3.805-20.789 9.262-23.266 11.434-1.375 1.207-1.867 2.609-1.312 3.742.555 1.164 2.039 1.637 3.961 1.297 1.477-.273 3.422-1.281 6.117-2.68 3.094-1.605 7.336-3.801 12.602-5.703 7.859-2.828 15.141-4.137 29.133-2.508 10.086 1.191 19.461 3.426 24.469 5.836 6.25 3.004 10.844 6.387 14.977 9.434 1.422 1.051 2.938 2.387 4.398 3.684 3.43 3.035 5.727 4.977 7.586 4.977.164 0 .32-.016.477-.047.812-.156 1.391-.648 1.625-1.391.687-2.149-1.829-5.512-3.251-6.997" style="fill:#122a89"/><path d="M143.291 111.032c-9.22-7.248-17.453-12.014-28.052-14.287-11.933-2.563-24.359-3.672-35.71-.43-7.224 2.069-20.287 10.926-22.482 16.915-.532 1.45-.467 2.686.191 3.672a1.54 1.54 0 0 0 1.151.716c1.435.176 3.872-1.083 7.961-3.202 3.803-1.967 8.875-4.583 14.492-6.579-1.055 1.942-1.73 4.138-1.893 6.686-.296 4.641 1.813 8.687 5.441 12.147-.851-.299-1.604-.469-2.482-.798-2.725-1.012-3.69-.36-4.021.369-.633 1.406 1.107 3.649 4.049 5.22 5.599 2.993 10.789 4.697 15.555 5.538 8.738 1.544 16.072.183 21.99-1.474 2.614-.733 6.134-2.508 5.775-4.165-.312-1.415-2.731-1.038-3.523-.912-1.535.24-2.914.275-4.378.433 5.292-3.802 8.354-10.037 8.582-15.148.058-1.296-.154-2.714-.561-4.147 7.411 2.845 11.489 5.229 14.751 7.143.969.572 1.872 1.1 2.779 1.597 1.755.959 3.24 1.976 4.555 2.874 2.226 1.521 3.699 2.536 5.04 2.256.392-.078.938-.317 1.387-.971 2.147-3.124-10.453-13.337-10.597-13.453m-41.409 5.943a6.173 6.173 0 0 1-5.612-6.688c.208-2.383 1.779-4.268 3.85-5.116 2.193.252 4.165.531 5.971.829 1.625 1.241 2.671 3.177 2.48 5.364a6.175 6.175 0 0 1-6.689 5.611" style="fill:#122a89"/></svg>