<svg xmlns="http://www.w3.org/2000/svg" xml:space="preserve" viewBox="0 0 215 220"><path d="M138.209 92.611c-14.612-5.811-28.475-9.25-47.414-2.993-14.809 4.893-24.849 14.53-30.22 31.461-2.216 6.987 2.887 10.357 6.596 3.995 2.826-4.847 5.54-8.617 8.271-11.725.219 4.224 2.087 8.887 4.823 12.279 4.925 6.105 13.191 8.403 17.658 8.655 7.122.401 17.372-1.868 22.686-6.104 11.339-9.039 11.238-20.463 6.471-26.72-.046-.06-.092-.102-.138-.161 10.254 1.892 20.544 3.157 29.302-2.408 3.394-2.154-7.176-1.961-18.035-6.279m-43.981 22.852a6.139 6.139 0 1 1-4.2-11.537 6.139 6.139 0 0 1 4.2 11.537" style="fill:#122a89"/></svg>