<svg xmlns="http://www.w3.org/2000/svg" xml:space="preserve" viewBox="0 0 215 220"><path d="M142.969 105.601c-11.743-10.458-23.594-18.431-43.531-19.029-15.59-.467-28.32 5.155-39.158 19.229-4.473 5.808-.83 10.72 4.832 6.01 4.314-3.588 8.153-6.202 11.783-8.188-1.239 4.043-1.079 9.065.333 13.188 2.54 7.421 9.522 12.407 13.633 14.172 6.555 2.813 16.962 4.187 23.405 2.023 13.748-4.615 17.559-15.385 15.22-22.895-.022-.072-.052-.127-.075-.198 8.989 5.285 18.226 9.993 28.358 7.759 3.927-.866-6.072-4.299-14.8-12.071m-49.144 6.431a6.138 6.138 0 1 1-.001-12.277 6.138 6.138 0 0 1 .001 12.277" style="fill:#122a89"/></svg>