<svg xmlns="http://www.w3.org/2000/svg" xml:space="preserve" viewBox="0 0 215 220"><path d="M146.451 104.84c4.204 2.563 9.154 7.312 11.246 6.716 1.9-.542-.109-3.832-2.487-5.906-5.697-4.97-8.744-7.112-18.431-11.549-8.335-3.818-17.778-5.14-28.708-5.177-10.041-.034-18.039 1.77-23.811 3.943-9.977 3.756-16.554 8.54-19.829 11.973-.029.031-.027.056-.055.087-2.675 2.362-4.786 4.779-5.546 6.854-.532 1.45-.467 2.686.191 3.672.282.424.659.656 1.152.716 1.435.176 3.872-1.083 7.961-3.202 3.941-2.039 9.249-4.768 15.11-6.788-.177.8-.32 1.623-.376 2.505-.345 5.406 2.897 9.917 8.098 13.543-2.369-.708-4.701-1.376-7.274-2.34-2.725-1.012-3.69-.36-4.021.369-.633 1.406 1.107 3.649 4.049 5.22 5.6 2.993 10.789 4.697 15.555 5.538 8.738 1.544 16.072.183 21.99-1.474 2.614-.733 6.135-2.508 5.776-4.164-.313-1.415-2.731-1.038-3.523-.912-3.159.493-6.108.75-9.012.892 6.803-2.893 10.829-9.959 11.08-15.571.002-.058-.026-.126-.025-.185.503 1.066 1.35 2.297 1.73 2.812 3.572 4.83 6.158 7.76 9.609 10.664.811.683 3.981 2.732 4.897 3.171 2.192 1.049 4.284-1.05 2.753-2.463-1.698-1.567-4.674-5.475-7.224-9.069 1.742.924 3.269 1.793 4.585 2.566.969.571 1.873 1.1 2.779 1.597 1.756.959 3.241 1.976 4.555 2.873 2.226 1.521 3.699 2.536 5.04 2.256.391-.078.937-.317 1.386-.971 2.146-3.123-10.454-13.334-10.597-13.451-9.221-7.248-17.454-12.014-28.053-14.287-1.63-.35-3.284-.588-4.928-.877-.59-.152-1.179-.221-1.772-.343 8.769.351 16.979 1.564 21.661 3.33 6.022 2.268 10.602 5.073 14.469 7.432m-36.095.538a6.174 6.174 0 0 1-12.301-1.076c.025-.282.17-.513.23-.782.874.015 1.75-.016 2.619.077 3.674.397 6.721.867 9.407 1.381-.003.138.057.26.045.4" style="fill:#122a89"/></svg>