<svg xmlns="http://www.w3.org/2000/svg" xml:space="preserve" viewBox="0 0 215 220"><path d="M142.236 106.411c-2.918-17.805-16.641-28.434-36.711-28.434-16.314 0-28.214 13.533-30.76 27.404-.567 2.108-.834 4.313-.834 6.61 0 12.549 4.5 21.655 10.055 25.601 4.79 3.402 9.563 5.041 17.196 5.042 6.312.001 11.654-1.38 18.081-7.226 6.75-6.139 7.564-14.848 7.667-21.078.17-10.272-2.634-18.291-11.885-23.733-7.702-4.532-15.109-5.193-22.309-2.636 3.576-2.384 7.795-3.984 12.789-3.984 17.129 0 28.352 8.531 30.789 23.402 1.43 8.727.559 18.641-2.113 24.113a3 3 0 0 0 2.691 4.317c1.113 0 2.18-.617 2.699-1.684 3.219-6.585 4.282-17.722 2.645-27.714m-41.511-11.002a6.773 6.773 0 1 1-.002 13.546 6.773 6.773 0 0 1 .002-13.546" style="fill:#122a89"/></svg>