<svg xmlns="http://www.w3.org/2000/svg" xml:space="preserve" viewBox="0 0 215 220"><path d="M156.005 116.443c-7.794-7.108-13.947-12.432-26.322-18.084-11.97-5.468-22.854-6.581-36.108-3.562-9.404 2.143-19.779 7.598-26.544 13.473-7.739 6.72-10.604 10.4-14.523 16.571-4.724 7.438 3.748 10.218 8.646 4.652 3.584-4.072 9.672-9.061 15.15-13.272-1.39 5.423-.518 11.582 3.137 16.405 4.755 6.277 11.785 8.534 21.786 8.278 11.212-.287 20.688-3.608 24.707-8.249 4.288-4.951 5.702-10.325 3.884-16.763a23.2 23.2 0 0 0-3.603-7.404c7.016 3.149 15.499 9.704 19.604 12.56 5.447 3.789 11.054 5.222 13.499 3.359 2.66-2.025-.003-4.947-3.313-7.964m-55.506 3.527a5.541 5.541 0 1 1 .001-11.083 5.541 5.541 0 0 1-.001 11.083" style="fill:#122a89"/><path d="M163.685 100.522c-30.167-23.914-70.719-27.345-104-9.752-5.598 2.959-.713 12.261 4.852 9.32 30.294-16.014 67.06-11.84 94.298 9.752 5.067 4.018 9.863-5.345 4.85-9.32" style="fill:#122a89"/></svg>