<svg xmlns="http://www.w3.org/2000/svg" xml:space="preserve" viewBox="0 0 215 220"><path d="M155.108 102.948c-5.242-5.447-8.09-7.847-17.354-13.111-7.971-4.53-17.263-6.669-28.148-7.659-10-.909-18.125.19-24.063 1.853-10.266 2.873-17.235 7.065-20.797 10.199-1.993 1.753-1.13 3.514 1.643 3.004 2.703-.497 8.099-4.419 16.87-7.583 7.748-2.794 14.572-3.776 26.897-2.326 9.186 1.081 17.806 3.114 22.534 5.386 5.798 2.786 10.116 5.979 13.764 8.666 3.964 2.92 8.481 8.082 10.618 7.67 1.939-.372.224-3.825-1.964-6.099" style="fill:#122a89"/><path d="M145.612 112.121c-9.221-7.248-17.454-12.014-28.052-14.287-1.631-.35-3.284-.588-4.929-.877-2.449-.632-4.902-.919-7.274-1.004-8.002-.827-15.992-.695-23.507 1.452-7.224 2.068-20.287 10.926-22.482 16.914-.532 1.45-.468 2.686.19 3.672.283.424.66.656 1.152.716 1.435.176 3.872-1.083 7.961-3.202 3.941-2.039 9.249-4.768 15.11-6.788-.176.8-.319 1.623-.375 2.505-.345 5.407 2.897 9.917 8.098 13.543-2.369-.708-4.702-1.375-7.275-2.34-2.724-1.012-3.689-.36-4.021.369-.633 1.406 1.107 3.649 4.049 5.22 5.6 2.993 10.789 4.697 15.555 5.538 8.739 1.544 16.072.183 21.99-1.474 2.614-.733 6.135-2.508 5.776-4.164-.313-1.415-2.731-1.038-3.523-.912-3.159.493-6.108.75-9.012.892 6.803-2.893 10.829-9.959 11.08-15.571.004-.086-.039-.188-.037-.275l.088.034 1.244.479c7.61 2.898 11.725 5.316 15.032 7.257.969.571 1.872 1.1 2.779 1.597 1.755.959 3.24 1.976 4.555 2.873 2.226 1.521 3.699 2.536 5.04 2.256.391-.078.938-.317 1.387-.971 2.145-3.124-10.456-13.336-10.599-13.452m-41.409 1.407a6.174 6.174 0 0 1-5.613-6.688c.025-.282.17-.513.23-.782.874.015 1.75-.016 2.619.077 3.674.397 6.72.867 9.407 1.381-.003.138.057.261.045.4a6.17 6.17 0 0 1-6.688 5.612" style="fill:#122a89"/></svg>