<svg xmlns="http://www.w3.org/2000/svg" xml:space="preserve" viewBox="0 0 215 220"><path d="M148.01 108.832c-6.135-6.77-10.978-11.84-20.718-17.223-9.422-5.208-17.989-6.268-28.42-3.392-7.402 2.041-15.568 7.236-20.894 12.832-6.091 6.4-8.346 9.905-11.431 15.782-3.718 7.083 2.95 9.731 6.805 4.431 3.288-4.521 9.184-10.161 13.942-14.49-3.969 7.544-3.96 15.988-.627 23.466 4.708 10.562 11.728 13.322 19.216 13.322 10.4 0 15.668-4.356 18.938-9.735 2.819-4.637 4.222-9.257 4.178-16.646-.036-6.118-.855-10.587-4.126-15.669 5.466 3.057 11.942 9.038 15.119 11.711 4.288 3.608 8.701 4.973 10.625 3.199 2.093-1.931-.003-4.714-2.607-7.588m-40.274 6.585a6.158 6.158 0 1 1 .001-12.315 6.158 6.158 0 0 1-.001 12.315" style="fill:#122a89"/><path d="M76.369 94.673c3.489-2.733 10.38-6.302 14.855-8.545 3.736-1.873 8.366-2.964 13.568-3.448 9.636-.896 16.298 1.59 17.105 1.799 5.246 1.456 12.102 5.172 15.293 6.723 3.957 1.923 8.005 2.68 9.745 1.778 1.893-.981-.053-2.452-2.464-3.974-5.679-3.587-10.16-6.276-19.119-9.181-8.667-2.81-16.508-3.453-26.012-2.068-6.744.982-14.151 3.598-18.958 6.451-5.499 3.264-7.522 5.063-10.279 8.087-3.323 3.645 2.799 5.093 6.266 2.378" style="fill:#122a89"/></svg>