<svg xmlns="http://www.w3.org/2000/svg" xml:space="preserve" viewBox="0 0 215 220"><path d="M148.25 101.332c-15.107-9.472-28.983-18.359-48.721-15.487-15.434 2.247-26.994 9.994-35.224 25.736-3.396 6.496 1.044 10.701 5.802 5.079 6.178-7.299 10.858-12.386 15.56-15.912-1.228 3.72-.622 8.337.711 11.814.695 1.812 2.154 3.646 4.038 5.272a151 151 0 0 1-7.605-2.091c-6.642-2.013-4.924 3.445 1.244 6.349 21.905 10.316 38.031 5.73 49.781.695 6.37-2.729 9.809-7.828 3.026-5.897a105 105 0 0 1-12.204 2.71c1.263-.873 2.323-1.79 3.279-2.651 5.022-4.524 5.212-11.376 4.488-14.05-.156-.577-.462-1.227-.762-1.868 6.511 3.155 12.65 6.672 18.332 9.039 3.712 1.547 7.015-3.246-1.745-8.738m-40.952 4.838a5.492 5.492 0 1 1 0-10.984 5.492 5.492 0 0 1 0 10.984m28.671 32.849c-19.207 5.217-33.276 4.935-52.291.639-6.437-1.454-4.742 2.965 1.241 5.163 21.251 7.809 36.823 3.582 48.159-.885 6.145-2.421 9.441-6.696 2.891-4.917" style="fill:#122a89"/></svg>