<svg xmlns="http://www.w3.org/2000/svg" xml:space="preserve" viewBox="0 0 215 220"><path d="M108.913 86.678c-20.02 0-35.551 18.039-35.551 33.559 0 15.207 14.953 26.242 35.551 26.242s35.551-11.035 35.551-26.242c-.001-15.52-15.532-33.559-35.551-33.559m-8.425 11.237a6.158 6.158 0 1 1-.001 12.315 6.158 6.158 0 0 1 .001-12.315m-21.126 22.322c0-2.601.689-5.307 1.744-7.973.523 2.168 1.504 4.325 2.901 6.515 5.231 8.197 13.031 10.339 21.351 10.339 11.555 0 17.409-3.381 21.042-7.555 3.133-3.599 4.691-7.185 4.643-12.919-.021-2.492-.299-4.603-1.019-6.635 5.213 5.299 8.44 12.073 8.44 18.228-.001 26.578-59.102 26.578-59.102 0" style="fill:#122a89"/><path d="M144.514 86.086c-5.68-3.587-10.16-6.276-19.12-9.181-8.667-2.81-16.508-3.453-26.012-2.068-6.744.982-14.151 3.598-18.958 6.451-5.499 3.264-7.521 5.062-10.279 8.087-3.323 3.645 2.8 5.093 6.267 2.377 3.489-2.733 10.379-6.302 14.854-8.545 3.737-1.873 8.366-2.964 13.569-3.448 9.636-.896 16.298 1.59 17.105 1.799 5.246 1.456 12.102 5.172 15.292 6.723 3.957 1.923 8.005 2.68 9.745 1.778 1.893-.98-.052-2.45-2.463-3.973" style="fill:#122a89"/></svg>