<svg xmlns="http://www.w3.org/2000/svg" xml:space="preserve" viewBox="0 0 215 220"><path d="M152.832 66.503c-4.906-10.558-14.643-20.319-23.678-23.737-7.669-2.901-13.522-3.452-21.64-3.452s-13.972.55-21.641 3.452c-9.035 3.418-18.772 13.179-23.678 23.737-6.506 14.001-8.376 26.291-6.065 39.847.304 1.776.584 4.293.909 7.208 1.177 10.568 2.957 26.538 9.036 39.846 2.876 6.297 6.157 8.329 10.311 10.9 3.021 1.87 6.779 4.197 11.664 9.081.315.316.641.664.987 1.032 3.051 3.251 7.662 8.162 18.477 8.162s15.426-4.912 18.477-8.163c.346-.368.671-.716.986-1.032 4.556-4.555 8.124-6.783 11.273-8.749 4.182-2.611 7.794-4.865 10.703-11.233 6.08-13.309 7.859-29.278 9.036-39.846.325-2.915.605-5.433.909-7.208 2.311-13.554.44-25.843-6.066-39.845m1.359 39.045c-.326 1.912-.613 4.493-.947 7.482-1.144 10.265-2.872 25.778-8.633 38.391-2.312 5.062-4.788 6.608-8.889 9.168-3.199 1.996-7.179 4.481-12.121 9.423-.349.349-.709.733-1.091 1.14-2.783 2.966-6.246 6.657-14.996 6.657s-12.213-3.691-14.997-6.656c-.382-.407-.743-.792-1.093-1.141-5.275-5.276-9.295-7.765-12.525-9.765-3.87-2.397-6.206-3.843-8.482-8.825-5.761-12.613-7.489-28.126-8.633-38.391-.333-2.989-.621-5.57-.947-7.482-2.139-12.543-.385-23.964 5.687-37.033 4.353-9.368 13.201-18.319 21.038-21.285 7.022-2.657 12.228-3.143 19.952-3.143 7.722 0 12.928.486 19.951 3.143 7.837 2.966 16.685 11.917 21.038 21.284 6.073 13.069 7.827 24.491 5.688 37.033" style="fill:#122a89"/></svg>