<svg xmlns="http://www.w3.org/2000/svg" xml:space="preserve" viewBox="0 0 215 220"><path d="M160.247 113.78c-.753-5.933-1.467-11.537-1.427-16.572.172-21.886-2.943-34.295-11.109-44.263-14.786-18.05-33.994-18.05-40.306-18.05s-25.521 0-40.306 18.05c-8.165 9.965-11.28 22.375-11.11 44.263.04 5.035-.674 10.639-1.427 16.572-1.248 9.821-2.538 19.978-.912 30.046 1.474 9.125 8.356 14.486 15.01 19.669 3.337 2.598 6.786 5.284 9.615 8.457l1.163 1.312c6.9 7.788 11.458 12.934 27.967 12.934s21.067-5.145 27.967-12.934l1.163-1.312c2.829-3.172 6.278-5.859 9.615-8.457 6.654-5.183 13.535-10.544 15.01-19.669 1.625-10.068.335-20.225-.913-30.046m-3.8 29.284c-1.176 7.274-6.762 11.626-13.232 16.664-3.503 2.73-7.125 5.55-10.244 9.048l-1.174 1.322c-6.679 7.541-10.032 11.326-24.393 11.326s-17.714-3.785-24.393-11.326l-1.174-1.322c-3.118-3.498-6.741-6.318-10.244-9.048-6.47-5.039-12.056-9.391-13.232-16.664-1.516-9.387-.269-19.196.936-28.682.775-6.096 1.507-11.855 1.465-17.21-.159-20.646 2.652-32.198 10.029-41.202 13.353-16.301 30.861-16.301 36.613-16.301s23.261 0 36.613 16.301c7.378 9.006 10.189 20.558 10.029 41.202-.042 5.355.69 11.114 1.465 17.21 1.205 9.486 2.452 19.295.936 28.682" style="fill:#122a89"/></svg>