<svg xmlns="http://www.w3.org/2000/svg" xml:space="preserve" viewBox="0 0 215 220"><path d="M148.933 53.06c-11.747-14.336-29.069-17.347-41.529-17.347-12.462 0-29.782 3.01-41.529 17.347-7.729 9.433-12.842 20.049-12.679 41.197.063 8.246.712 29.424 5.33 47.923 3.335 13.356 12.963 24.78 21.938 34.192 10.423 10.934 19.197 10.934 26.941 10.934s16.518 0 26.941-10.934c8.975-9.413 18.603-20.836 21.938-34.192 4.618-18.499 5.266-39.677 5.33-47.923.163-21.145-4.952-31.761-12.681-41.197m-41.529-12.574c11.431 0 27.275 2.706 37.836 15.599v.001c7.275 8.879 11.752 18.355 11.599 38.133-.063 8.076-.694 28.802-5.189 46.805-3.066 12.277-12.215 23.093-20.76 32.055-9.013 9.454-16.043 9.454-23.486 9.454s-14.473 0-23.486-9.454c-8.545-8.962-17.694-19.778-20.76-32.055-4.495-18.002-5.125-38.729-5.189-46.804-.152-19.78 4.325-29.256 11.599-38.135 10.561-12.893 26.406-15.599 37.836-15.599" style="fill:#122a89"/></svg>