<svg xmlns="http://www.w3.org/2000/svg" xml:space="preserve" viewBox="0 0 215 220"><path d="M146.137 56.615c-10.097-12.323-23.129-18.573-38.733-18.573s-28.635 6.249-38.733 18.573c-7.958 9.715-11.281 23.266-11.109 45.313.206 26.504 4.938 44.569 14.061 53.692 6.979 6.98 10.675 11.166 15.792 16.958 1.384 1.567 2.865 3.246 4.538 5.12 7.162 8.032 8.894 9.047 15.45 9.047s8.289-1.014 15.45-9.046c1.673-1.875 3.154-3.554 4.538-5.121 5.116-5.792 8.813-9.978 15.792-16.958 9.127-9.126 13.859-27.191 14.061-53.692.173-22.047-3.149-35.598-11.107-45.313m-22.321 112.803c-1.38 1.562-2.856 3.235-4.524 5.104-6.643 7.45-7.239 7.45-11.888 7.45-4.648 0-5.245 0-11.888-7.451-1.668-1.868-3.144-3.541-4.524-5.103-5.172-5.857-8.91-10.089-15.994-17.173-8.206-8.206-12.466-25.148-12.663-50.355-.163-20.836 2.836-33.472 10.029-42.25 9.275-11.321 20.737-16.825 35.04-16.825s25.765 5.504 35.04 16.825v.001c7.192 8.778 10.191 21.413 10.029 42.25-.193 25.204-4.453 42.144-12.663 50.354-7.084 7.084-10.822 11.316-15.994 17.173" style="fill:#122a89"/></svg>