<svg xmlns="http://www.w3.org/2000/svg" xml:space="preserve" viewBox="0 0 215 220"><path d="M147.71 52.945c-14.786-18.05-33.994-18.05-40.306-18.05s-25.521 0-40.306 18.05C58.934 62.91 55.819 75.32 55.989 97.208c.094 11.983.235 30.093 2.905 46.617 1.646 10.204 7.055 15.591 13.319 21.831 1.964 1.957 3.996 3.98 6.061 6.296l.515.58c4.341 4.887 12.419 13.985 21.049 14.242q.187.005.374.005c2.616 0 5.031-.822 7.21-2.45 2.088 1.49 4.464 2.202 7.059 2.134 6.293-.179 13.506-4.925 22.054-14.511 2.065-2.316 4.097-4.34 6.061-6.296 6.264-6.24 11.673-11.628 13.319-21.831 2.67-16.524 2.811-34.633 2.905-46.617.171-21.886-2.944-34.295-11.11-44.263m-14.738 115.831c-7.521 8.432-13.786 12.778-18.626 12.916-2.038.054-3.723-.659-5.254-2.19a2.386 2.386 0 0 0-3.375 0c-1.745 1.743-3.588 2.555-5.738 2.5-6.571-.195-14.034-8.601-17.62-12.639l-.522-.587c-2.159-2.423-4.242-4.497-6.255-6.502-5.91-5.886-10.576-10.535-11.976-19.212-2.612-16.162-2.752-34.053-2.844-45.89-.159-20.646 2.652-32.198 10.029-41.202 13.353-16.301 30.861-16.301 36.613-16.301s23.261 0 36.613 16.301c7.378 9.006 10.189 20.558 10.029 41.202-.092 11.837-.231 29.728-2.844 45.89-1.4 8.677-6.067 13.326-11.976 19.212-2.012 2.006-4.095 4.08-6.254 6.502" style="fill:#122a89"/></svg>