<svg xmlns="http://www.w3.org/2000/svg" xml:space="preserve" viewBox="0 0 215 220"><path d="M147.71 52.946c-14.786-18.047-33.994-18.05-40.306-18.05s-25.521 0-40.306 18.05C58.934 62.91 55.819 75.319 55.989 97.31c.105 13.311.32 41.011 2.905 57.005 2.224 13.777 9.725 17.812 21.078 23.922.533.285 1.1.602 1.704.939 5.389 3.004 13.532 7.546 25.728 7.546 12.704 0 23.759-5.947 28.48-8.488 11.308-6.083 17.813-10.193 20.03-23.92 2.585-15.994 2.8-43.694 2.905-57.106.172-21.887-2.943-34.297-11.109-44.262M82.234 174.032c-11.172-6.011-16.778-9.028-18.628-20.48-2.526-15.633-2.741-43.087-2.844-56.38-.159-20.648 2.652-32.2 10.029-41.202 13.353-16.301 30.861-16.301 36.613-16.301s23.261 0 36.613 16.301c7.378 9.004 10.189 20.556 10.029 41.302-.103 13.194-.318 40.648-2.844 56.28-1.79 11.082-6.002 14.251-17.58 20.48-4.403 2.368-14.715 7.917-26.218 7.917-10.955 0-18.446-4.179-23.403-6.943-.625-.349-1.214-.677-1.767-.974" style="fill:#122a89"/></svg>