<svg xmlns="http://www.w3.org/2000/svg" xml:space="preserve" viewBox="0 0 215 220"><path d="M162.564 112.793c-.927-2.811-1.728-5.239-2.098-7.272-.664-3.646-.977-7.275-1.309-11.118-.745-8.629-1.516-17.552-6.324-27.902-4.906-10.556-14.643-20.317-23.678-23.737-7.672-2.901-13.525-3.451-21.64-3.451s-13.969.549-21.641 3.451c-9.035 3.42-18.772 13.181-23.678 23.737-4.808 10.35-5.579 19.273-6.324 27.902-.332 3.843-.645 7.472-1.309 11.118-.37 2.032-1.172 4.461-2.098 7.272-2.62 7.946-6.209 18.825-3.878 32.675 2.257 13.409 11.117 25.754 23.701 33.018 3.325 1.919 13.444 7.758 35.227 7.758s31.901-5.839 35.226-7.758c14.275-8.242 21.141-17.808 23.701-33.018 2.33-13.85-1.259-24.729-3.878-32.675m-.83 31.884c-1.939 11.523-6.317 20.979-21.38 29.676-3.051 1.76-12.336 7.118-32.839 7.118-20.504 0-29.79-5.358-32.84-7.118-11.365-6.562-19.357-17.656-21.38-29.676-2.135-12.686 1.102-22.502 3.703-30.388.984-2.981 1.832-5.555 2.261-7.911.705-3.868 1.042-7.779 1.369-11.562.709-8.218 1.443-16.715 5.897-26.301 4.353-9.367 13.201-18.319 21.038-21.284 7.024-2.658 12.23-3.144 19.952-3.144 7.721 0 12.927.486 19.951 3.144 7.837 2.965 16.685 11.917 21.038 21.284 4.454 9.586 5.188 18.083 5.897 26.301.327 3.783.665 7.694 1.369 11.562.429 2.356 1.277 4.93 2.261 7.911 2.601 7.886 5.837 17.701 3.703 30.388" style="fill:#122a89"/></svg>