<svg xmlns="http://www.w3.org/2000/svg" xml:space="preserve" viewBox="0 0 215 220"><path d="M156.368 100.025c.175-22.382-3.386-38.183-10.58-46.965-9.431-11.512-22.345-17.348-38.384-17.348-16.038 0-28.951 5.836-38.384 17.347-7.194 8.782-10.755 24.584-10.58 46.965.016 2.192.014 4.106.014 5.853-.009 8.498-.013 13.179 2.126 26.659 2.338 14.73 12.372 37.764 19.882 45.639 8.406 8.818 14.854 8.33 21.685 7.815a73 73 0 0 1 10.511 0c1.59.12 3.158.238 4.737.238 5.201 0 10.5-1.288 16.948-8.053 7.51-7.875 17.544-30.909 19.882-45.639 2.139-13.48 2.135-18.161 2.126-26.659.002-1.746 0-3.659.017-5.852m-4.788 5.858c.007 8.253.013 12.799-2.069 25.906-2.137 13.474-11.884 36.028-18.621 43.094-6.845 7.18-11.465 6.833-17.871 6.349-1.769-.134-3.597-.272-5.615-.272s-3.846.138-5.615.272c-6.399.484-11.024.832-17.871-6.349-6.737-7.066-16.484-29.62-18.621-43.094-2.081-13.107-2.076-17.654-2.069-25.906.002-1.76.004-3.686-.014-5.895-.163-20.936 3.122-36.117 9.499-43.901 8.48-10.352 20.153-15.6 34.691-15.6 14.54 0 26.211 5.248 34.691 15.6 6.377 7.784 9.662 22.965 9.499 43.901a644 644 0 0 0-.014 5.895" style="fill:#122a89"/></svg>