<svg xmlns="http://www.w3.org/2000/svg" xml:space="preserve" viewBox="0 0 215 220"><path d="M147.71 52.946c-14.786-18.047-33.994-18.05-40.306-18.05s-25.521 0-40.306 18.05C58.934 62.91 55.819 75.319 55.989 97.31c.105 13.311.32 41.011 2.905 57.005 1.991 12.33 8.204 15.586 17.611 20.514 1.1.575 2.255 1.18 3.467 1.834.925.497 2.144 1.406 3.557 2.459 4.023 2.999 10.009 7.461 16.879 7.46 2.251 0 4.6-.479 7.004-1.648 9.328 4.383 19.188-2.191 25.179-6.188 1.312-.874 2.444-1.63 3.292-2.085l2.302-1.229c10.103-5.378 15.665-8.341 17.729-21.118 2.585-15.994 2.8-43.694 2.905-57.106.172-21.887-2.943-34.297-11.109-44.262m-11.766 118.271-2.322 1.239c-1.044.564-2.264 1.377-3.677 2.318-5.673 3.781-14.249 9.497-21.347 5.396a2.39 2.39 0 0 0-2.388 0c-6.921 4-13.076.155-19.828-4.878-1.565-1.165-2.914-2.172-4.148-2.835a382 382 0 0 0-3.512-1.859c-9.273-4.858-13.506-7.075-15.116-17.047-2.526-15.633-2.741-43.087-2.844-56.38-.159-20.648 2.652-32.2 10.029-41.202 13.353-16.301 30.861-16.301 36.613-16.301s23.261 0 36.613 16.301c7.378 9.004 10.189 20.556 10.029 41.302-.103 13.194-.318 40.648-2.844 56.28-1.685 10.44-5.381 12.409-15.258 17.666" style="fill:#122a89"/></svg>