<svg xmlns="http://www.w3.org/2000/svg" xml:space="preserve" viewBox="0 0 215 220"><path d="M160.475 118.842c-1.078-5.351-2.008-9.974-1.578-12.491 2.312-13.555.441-25.846-6.065-39.849-4.905-10.556-14.642-20.317-23.678-23.737-7.666-2.901-13.52-3.451-21.64-3.451h-.001c-8.119 0-13.973.549-21.64 3.451-9.036 3.42-18.773 13.181-23.678 23.737-6.506 14.003-8.376 26.294-6.065 39.849.43 2.518-.501 7.14-1.578 12.491-2.015 10.009-4.774 23.714-.618 35.419 5.404 15.214 17.025 18.263 28.778 19.291.931.081 3.277 1.534 5.347 2.815 4.953 3.064 11.737 7.263 19.455 7.263s14.5-4.197 19.453-7.263c2.07-1.281 4.417-2.733 5.349-2.815 17.765-1.556 23.951-5.702 28.776-19.291 4.157-11.705 1.398-25.41-.617-35.419m-3.881 33.822c-3.967 11.172-7.689 14.645-24.693 16.133-2.062.181-4.32 1.577-7.444 3.51-4.715 2.918-10.582 6.549-16.942 6.549s-12.228-3.631-16.943-6.549c-3.125-1.933-5.381-3.33-7.443-3.51-14.268-1.248-20.962-5.622-24.695-16.133-3.714-10.46-1.212-22.89.799-32.879 1.219-6.059 2.183-10.845 1.605-14.236-2.139-12.544-.385-23.965 5.687-37.034 4.352-9.367 13.2-18.318 21.038-21.284 7.02-2.658 12.226-3.144 19.952-3.144 7.724 0 12.931.486 19.951 3.144 7.838 2.967 16.686 11.917 21.038 21.284 6.072 13.069 7.826 24.491 5.687 37.034-.578 3.391.385 8.177 1.605 14.236 2.01 9.987 4.513 22.419.798 32.879" style="fill:#122a89"/></svg>