<svg xmlns="http://www.w3.org/2000/svg" xml:space="preserve" viewBox="0 0 215 220"><path d="M161.697 114.714c-1.5-6.562-2.914-12.758-2.878-17.506.172-21.886-2.943-34.295-11.109-44.263-14.786-18.05-33.994-18.05-40.306-18.05s-25.521 0-40.306 18.05C58.934 62.91 55.819 75.32 55.989 97.207c.036 4.748-1.378 10.945-2.878 17.506-2.614 11.445-5.579 24.417-1.982 34.758 3.751 10.784 9.926 15.481 17.743 21.427 1.413 1.075 2.9 2.204 4.461 3.436 8.517 6.721 16.433 11.862 34.071 11.862s25.555-5.142 34.071-11.862c1.561-1.232 3.048-2.361 4.461-3.436 7.817-5.946 13.992-10.643 17.743-21.427 3.597-10.34.633-23.312-1.982-34.757m-2.527 33.19c-3.277 9.423-8.386 13.311-16.122 19.196-1.434 1.091-2.943 2.238-4.527 3.489-8.041 6.345-14.979 10.836-31.116 10.836s-23.074-4.491-31.116-10.836c-1.584-1.25-3.093-2.397-4.527-3.489-7.736-5.884-12.845-9.772-16.122-19.196-3.147-9.046-.345-21.308 2.126-32.127 1.563-6.84 3.039-13.3 2.997-18.605-.159-20.646 2.652-32.198 10.029-41.202 13.353-16.301 30.861-16.301 36.613-16.301s23.261 0 36.613 16.301c7.378 9.006 10.189 20.558 10.029 41.202-.042 5.304 1.434 11.765 2.997 18.605 2.471 10.819 5.273 23.081 2.126 32.127" style="fill:#122a89"/></svg>