<svg xmlns="http://www.w3.org/2000/svg" xml:space="preserve" viewBox="0 0 215 220"><path d="M159.355 112.708c-.222-2.675-.415-4.985-.425-6.772-.008-1.406-.002-2.805.004-4.203.042-10.771.088-21.909-6.102-35.229-4.906-10.558-14.643-20.319-23.678-23.737-7.666-2.901-13.52-3.452-21.64-3.452s-13.974.55-21.641 3.452c-9.035 3.418-18.772 13.179-23.678 23.737-6.19 13.32-6.144 24.458-6.102 35.229.005 1.398.012 2.798.004 4.203-.01 1.787-.202 4.097-.425 6.772-.777 9.343-1.951 23.464 2.982 37.357 4.633 13.045 13.092 19.328 24.536 26.781 6.33 4.122 15.878 6.785 24.324 6.785 8.445 0 17.992-2.663 24.323-6.785 11.444-7.452 19.903-13.736 24.536-26.781 4.933-13.893 3.759-28.014 2.982-37.357m-51.841 66.149c-7.585 0-16.11-2.359-21.719-6.012-10.989-7.156-18.502-12.72-22.643-24.378-4.59-12.925-3.467-26.428-2.724-35.364.23-2.774.43-5.169.441-7.141.008-1.421.003-2.836-.003-4.249-.043-10.72-.084-20.845 5.657-33.2 4.353-9.367 13.201-18.318 21.038-21.284 7.02-2.657 12.226-3.143 19.952-3.143 7.724 0 12.931.486 19.951 3.143 7.837 2.966 16.685 11.917 21.038 21.284 5.741 12.355 5.7 22.48 5.657 33.2-.005 1.414-.011 2.828-.003 4.249.011 1.972.21 4.367.441 7.141.743 8.936 1.866 22.439-2.724 35.364-4.141 11.658-11.654 17.222-22.643 24.378-5.607 3.653-14.131 6.012-21.716 6.012" style="fill:#122a89"/></svg>