<svg xmlns="http://www.w3.org/2000/svg" xml:space="preserve" viewBox="0 0 215 220"><path d="M153.881 66.503c-5.324-11.456-16.469-20.614-24.727-23.737-7.666-2.901-13.52-3.451-21.64-3.451s-13.974.549-21.641 3.451c-8.257 3.124-19.402 12.282-24.727 23.737-6.241 13.432-7.95 25.721-5.541 39.847.871 5.107 1.141 11.422 1.425 18.108.444 10.419.904 21.192 3.721 29.125 3.161 8.901 8.736 12.372 14.638 16.047 3.127 1.946 6.36 3.958 9.571 6.959 5.407 5.057 13.592 6.195 22.553 3.169 3.292 1.111 6.478 1.66 9.46 1.66 5.137 0 9.67-1.63 13.092-4.829 3.21-3.001 6.443-5.013 9.571-6.959 5.902-3.675 11.478-7.145 14.638-16.047 2.817-7.933 3.276-18.706 3.721-29.125.285-6.686.554-13.001 1.425-18.108 2.411-14.126.702-26.415-5.539-39.847m.835 39.045c-.921 5.404-1.197 11.866-1.489 18.708-.429 10.065-.874 20.475-3.45 27.73-2.602 7.328-7.042 10.092-12.663 13.591-3.167 1.971-6.757 4.206-10.307 7.525-4.214 3.938-10.949 4.621-18.477 1.884a2.3 2.3 0 0 0-.817-.145c-.276 0-.553.047-.817.145-7.531 2.737-14.265 2.054-18.477-1.884-3.55-3.319-7.14-5.554-10.307-7.525-5.62-3.499-10.06-6.264-12.663-13.591-2.576-7.255-3.021-17.665-3.45-27.73-.292-6.842-.567-13.304-1.489-18.708-2.237-13.113-.644-24.534 5.163-37.033 4.735-10.189 14.914-18.57 22.087-21.284 7.02-2.658 12.226-3.144 19.952-3.144 7.724 0 12.931.486 19.951 3.144 7.173 2.714 17.352 11.095 22.087 21.284 5.809 12.497 7.402 23.92 5.166 37.033" style="fill:#122a89"/></svg>