<svg xmlns="http://www.w3.org/2000/svg" xml:space="preserve" viewBox="0 0 215 220"><path d="M152.832 66.503c-4.906-10.558-14.643-20.319-23.678-23.737-7.669-2.901-13.522-3.452-21.64-3.452s-13.972.55-21.641 3.452c-9.035 3.418-18.772 13.179-23.678 23.737-6.507 14.002-8.376 26.292-6.065 39.847.883 5.179 1.883 7.65 3.873 12.572 1.277 3.158 3.026 7.483 5.469 14.362.874 2.459 1.63 4.989 2.431 7.668 3.173 10.612 6.77 22.64 18.892 31.128.658.461 1.537 1.173 2.58 2.012 4.718 3.798 11.848 9.538 18.14 9.538s13.421-5.74 18.139-9.538c1.042-.839 1.922-1.551 2.58-2.012 11.749-8.227 15.587-20.616 18.972-31.548.785-2.536 1.528-4.93 2.35-7.248a322 322 0 0 1 5.469-14.362c1.99-4.922 2.989-7.394 3.873-12.572 2.311-13.555.441-25.845-6.066-39.847m1.359 39.045c-.796 4.67-1.672 6.837-3.592 11.585a327 327 0 0 0-5.542 14.554c-.855 2.409-1.612 4.849-2.412 7.433-3.313 10.697-6.74 21.76-17.151 29.05-.722.505-1.691 1.282-2.835 2.203-3.941 3.172-10.536 8.483-15.145 8.483-4.61 0-11.206-5.311-15.146-8.484-1.145-.92-2.113-1.697-2.836-2.202-10.762-7.536-13.962-18.237-17.056-28.586-.782-2.618-1.593-5.325-2.506-7.898a327 327 0 0 0-5.542-14.554c-1.92-4.748-2.796-6.915-3.592-11.585-2.139-12.543-.386-23.964 5.687-37.033 4.353-9.368 13.201-18.319 21.038-21.285 7.022-2.657 12.228-3.143 19.952-3.143 7.722 0 12.928.486 19.951 3.143 7.837 2.966 16.685 11.917 21.038 21.284 6.075 13.071 7.828 24.492 5.689 37.035" style="fill:#122a89"/></svg>