<svg xmlns="http://www.w3.org/2000/svg" xml:space="preserve" viewBox="0 0 215 220"><path d="M160.682 138.279c-2.205-3.813-5.597-6.467-9.552-7.469-1.65-.414-3.262.011-4.403 1.179-1.233 1.267-1.742 3.239-1.271 4.904.432 1.52 1.57 2.584 3.208 3.001 2.554.643 4.311 2.791 4.95 6.045.249 1.241.119 2.68-.36 4.058-.483 1.371-1.44 2.768-2.772 4.039-5.505 5.241-14.062 5.475-25.441.682-.987-.414-2.129-.36-3.216.176-.033.016-.054.05-.087.067-.855.266-1.621.741-2.128 1.615-2.515 4.335-7.274 7.135-12.128 7.135h-.016c-4.857-.003-9.615-2.816-12.128-7.164-.703-1.215-1.761-1.734-2.85-1.824-.891-.283-1.789-.338-2.583-.005-11.374 4.793-19.923 4.56-25.436-.682-1.329-1.267-2.29-2.661-2.772-4.039-.479-1.371-.609-2.81-.364-4.058.643-3.254 2.401-5.402 4.954-6.045 2.856-.724 3.782-3.35 3.223-5.574-.589-2.312-2.745-4.261-5.693-3.511-3.955 1.003-7.347 3.653-9.548 7.466-2.389 4.131-3.074 9.227-1.834 13.629 2.891 10.245 13.576 15.284 22.278 15.632q.602.023 1.21.023c4.771 0 9.893-1.151 15.547-3.408 4.109 4.497 9.947 7.323 15.995 7.336h.041c6.035 0 11.871-2.826 15.985-7.333 5.649 2.253 10.767 3.404 15.532 3.404q.613 0 1.213-.023c8.702-.348 19.388-5.387 22.278-15.632 1.242-4.397.557-9.489-1.832-13.624m-68.178-35.01c-.285 1.938.484 3.845 2.515 4.429 1.691.486 4.145-.594 4.428-2.515 2.754-18.701 2.235-37.579-1.666-56.084-.955-4.531-7.897-2.614-6.943 1.914 3.614 17.147 4.221 34.91 1.666 52.256" style="fill:#122a89"/></svg>