<svg xmlns="http://www.w3.org/2000/svg" xml:space="preserve" viewBox="0 0 215 220"><path d="M67.469 121.193a22 22 0 0 1-1.689-.478c.006.002-.384-.142-.616-.224-.154-.069-.357-.16-.401-.182a16 16 0 0 1-1.542-.871c-.099-.064-.403-.275-.501-.333-.138-.116-.279-.23-.412-.351a18 18 0 0 1-1.144-1.167c-.055-.06-.029-.036-.062-.074-.159-.237-.324-.47-.474-.715q-.216-.353-.409-.719l-.149-.298c-.056-.144-.129-.327-.146-.377q-.164-.492-.284-.996c-.044-.186-.076-.374-.111-.563-.002-.058-.005-.112-.004-.285.002-.549.016-1.09.054-1.636.018-.123.046-.302.083-.474q.098-.457.221-.907c.165-.601.384-1.178.584-1.767.019-.057.003-.024.012-.055.043-.08.05-.084.133-.25.145-.29.286-.581.436-.868.3-.572.621-1.133.955-1.687.749-1.243 1.568-2.443 2.384-3.643 1.514-2.224.494-5.785-1.84-7.019-2.6-1.374-5.403-.533-7.019 1.84-4.097 6.017-7.719 12.949-5.68 20.441 1.903 6.992 8.042 11.863 14.893 13.548 2.602.64 5.683-.831 6.311-3.583.603-2.645-.796-5.621-3.583-6.307m91.95-24.095c-1.507-2.214-4.58-3.413-7.019-1.84-2.204 1.421-3.455 4.646-1.84 7.019.771 1.133 1.543 2.266 2.258 3.436q.507.827.967 1.68c.191.357.369.719.551 1.081.058.116.083.173.115.243.206.526.396 1.061.553 1.604q.13.448.234.903c-.002-.008.087.476.137.719.015.177.037.406.04.455q.025.466.015.932l-.011.392c-.036.176-.104.667-.109.689-.113.478-.275.936-.436 1.397-.024.046-.004.015-.047.091-.134.241-.258.487-.398.725-.17.288-.373.555-.544.842-.368.383-.705.788-1.096 1.151-.211.197-.433.385-.657.568-.049.03-.084.053-.218.134-.506.309-1.003.622-1.531.893-.168.086-.34.164-.51.244-.089.035-.294.117-.497.187a21 21 0 0 1-1.896.55c-2.607.641-4.42 3.724-3.583 6.311.875 2.705 3.517 4.27 6.311 3.583 6.866-1.689 12.968-6.556 14.893-13.548 2.056-7.478-1.595-14.437-5.682-20.441M82.084 118.46c-2.818.614-5.637 2.622-5.508 5.508.14 3.091 2.421 5.373 5.508 5.508.71.031 1.413.112 2.118.182a36 36 0 0 1 8.298 2.262c.565.26 1.132.51 1.684.798 1.304.682 2.798.953 4.244.555 1.277-.352 2.663-1.339 3.292-2.531 1.339-2.535-.149-5.06-1.977-7.536-3.767-5.103-9.951-6.426-17.659-4.746m50.779 0c-7.708-1.68-13.892-.358-17.659 4.746-1.827 2.475-3.316 5.001-1.977 7.536.629 1.192 2.014 2.18 3.292 2.531 1.446.398 2.939.127 4.244-.555.552-.288 1.119-.538 1.684-.798a36 36 0 0 1 8.298-2.262c.705-.071 1.408-.151 2.118-.182 3.088-.134 5.368-2.417 5.508-5.508.129-2.885-2.69-4.893-5.508-5.508" style="fill:#122a89"/></svg>