<svg xmlns="http://www.w3.org/2000/svg" xml:space="preserve" viewBox="0 0 215 220"><path d="M142.291 119.797c-.113-.766-.361-1.515-.707-2.274-.214-.471-.421-.944-.632-1.415l-.029-.062c-.336-.829-.67-1.658-.985-2.496a83 83 0 0 1-1.742-5.137 84.5 84.5 0 0 1-2.461-10.559c-.54-3.218-4.356-4.716-7.175-4.073-1.39.316-2.777 1.47-3.485 2.68-.843 1.44-.854 2.904-.588 4.494 1.107 6.604 3.07 12.96 5.621 19.122l-22.633 12.074-22.633-12.074c2.552-6.162 4.515-12.518 5.622-19.122.266-1.59.255-3.054-.588-4.494-.708-1.21-2.096-2.363-3.486-2.68-2.819-.642-6.635.856-7.175 4.073a85 85 0 0 1-2.462 10.559 83 83 0 0 1-1.742 5.137c-.315.838-.649 1.667-.985 2.496-.017.039-.005.009-.029.062-.211.471-.418.944-.632 1.415-.346.759-.594 1.508-.707 2.274-.719 2.145-.138 4.712 1.992 5.848l30.342 16.186c.233.124.503.149.753.236.264.095.511.198.789.248.315.056.62.049.939.048.319 0 .624.007.939-.048.278-.05.525-.153.789-.248.25-.087.519-.112.753-.236l30.342-16.186c2.133-1.136 2.714-3.703 1.995-5.848" style="fill:#122a89"/></svg>