<svg xmlns="http://www.w3.org/2000/svg" xml:space="preserve" viewBox="0 0 215 220"><path d="M104.284 154.322c-7.385-2.994-15.763-6.433-18.088-15.881-2.196-8.924-.342-19.432.451-28.478 1.935-22.057 4.398-27.595 8.244-49.328 1.496-8.456-11.856-12.074-13.36-3.577-4.578 25.877-7.426 35.671-9.409 61.969-.798 10.576-3.216 24.082 2.065 33.425 5.206 9.208 13.361 15.269 26.936 14.843 7.707-.241 10.324-10.069 3.161-12.973m34.886-12.469c-3.594-.882-7.155 1.164-8.223 5.029-.046.167-.113.325-.163.489-.332.74-.737 1.432-1.165 2.11a18 18 0 0 1-1.573 1.692 17 17 0 0 1-2.319 1.463q-1.143.433-2.33.685c-.904.064-1.805.13-2.712.018-1.59-.261-3.19-.143-4.62.758-1.386.874-2.709 2.587-3.072 4.303-.763 3.609 1.009 8.029 4.669 8.857 5.536 1.252 11.264.287 16.143-2.843 4.784-3.069 8.443-7.943 10.036-13.704.996-3.609-1.202-8.005-4.671-8.857" style="fill:#122a89"/></svg>