<svg xmlns="http://www.w3.org/2000/svg" xml:space="preserve" viewBox="0 0 215 220"><path d="M81.676 60.462c-11.032 31.115-19.937 75.719-.608 95.868 5.561 5.797 11.957 1.403 8.501-3.983-18.473-28.785-6.573-63.26.892-88.839 2.835-9.714-5.115-13.394-8.785-3.046m61.605 85.952c-14.635-5.073-19.733-7.317-28.409 2.136-2.066 2.251-7.544 11.079-17.712 8.38-4.931-1.309-7.802 4.099-3.799 6.374 7.67 4.359 14.405 1.865 17.837.287 7.113-3.27 12.862-11.362 13.717-11.086 5.889 1.904 11.758 1.323 15.893.19 4.721-1.293 5.858-5.108 2.473-6.281" style="fill:#122a89"/></svg>