<svg xmlns="http://www.w3.org/2000/svg" xml:space="preserve" viewBox="0 0 215 220"><path d="M143.629 112.541c-1.329-2.664-4.291-4.278-6.933-3.544-1.983.551-2.493 2.415-2.758 6.07-.172 2.375-2.406 6.185-5.981 6.656-2.027.267-3.491.022-4.771-.336.37-1.774.186-3.881-.574-5.274-1.274-2.333-3.329-2.311-4.822-.595a15 15 0 0 1-2.224 2.109 18 18 0 0 1-2.179 1.475 8 8 0 0 1-.234.125c-.979.475-1.983.834-2.994 1.085-1.124.279-1.795.352-2.555.356a14.6 14.6 0 0 1-2.927-.287c-1.269-.254-1.346-.281-2.504-.815-2.21-1.019-3.496-2-5.276-3.956-1.511-1.663-3.711-1.025-4.761 1.338-.595 1.339-.688 2.969-.426 4.456-1.268.348-2.718.583-4.714.319-3.574-.471-5.808-4.281-5.98-6.656-.265-3.655-.775-5.52-2.758-6.07-2.642-.734-5.604.881-6.933 3.544-2.083 4.174-1.558 9.139 2.628 12.346 5.07 3.884 11.447 5.685 20.67 1 7.791 7.18 17.672 6.975 25.432-.126 9.377 4.869 15.823 3.049 20.946-.875 4.186-3.206 4.711-8.171 2.628-12.345" style="fill:#122a89"/></svg>