<svg xmlns="http://www.w3.org/2000/svg" xml:space="preserve" viewBox="0 0 215 220"><path d="M136.83 119.316c-4.257 0-4.841 5.428-6.656 8.51-2.83 4.804-13.646 7.335-20.049 8.522-8.594 1.593-20.237-3.174-23.968-7.154-6.266-6.685-6.089-12.484-2.719-22.117 1.447-4.135 4.799-8.904 5.499-10.998 1.3-3.891 4.612-13.481-1.242-15.078-4.736-1.292-7.16 6.823-8.346 14.132 0 0-4.73 5.831-7.119 13.894-1.704 5.75-1.912 14.545 1.07 20.399 3.585 7.039 14.704 14.326 24.328 16.674 9.018 2.2 15.563.524 21.463-1.596 12.587-4.526 17.358-10.634 20.062-14.283 2.034-2.746 5.482-10.905-2.323-10.905" style="fill:#122a89"/></svg>