<svg xmlns="http://www.w3.org/2000/svg" xml:space="preserve" viewBox="0 0 215 220"><path d="M138.261 147.149c-1.421-1.85-3.38-2.776-5.696-2.718-1.714.044-3.291.711-4.809 1.464-2.797 1.388-9.194 5.465-9.52 6.052-.154.074-2.125 1.818-2.309 2.866-.377 2.14.83 4.738 3.135 5.066 2.902.413 5.86.523 8.778.13 2.761-.372 6.092-.894 8.366-2.72 1.518-1.22 2.73-2.802 3.102-4.788.342-1.826.093-3.867-1.047-5.352m-35.802 2.356c-5.407-2.664-9.67-6.939-12.608-11.16-3.594-5.163-1.45-18.79.105-24.209 4.726-16.476 10.894-26.88 14.235-43.785 2.471-12.505-7.291-16.482-9.827-3.07-1.971 10.424-4.993 20.553-8.76 30.404-3.059 8.001-8.016 17.774-9.603 27.228-1.372 8.173-.042 16.095 5.775 21.892 5.301 5.284 13.928 13.362 20.684 14.248 2.757.362 5.069-2.913 5.095-5.774.03-3.417-2.583-4.535-5.096-5.774" style="fill:#122a89"/></svg>