<svg xmlns="http://www.w3.org/2000/svg" xml:space="preserve" viewBox="0 0 215 220"><path d="M156.006 127.957c-2.025-3.502-5.14-5.938-8.771-6.859-1.515-.38-2.995.011-4.043 1.083-1.132 1.164-1.6 2.974-1.167 4.504.397 1.396 1.441 2.373 2.946 2.756 2.345.591 3.959 2.563 4.546 5.551.229 1.139.109 2.461-.33 3.727-.443 1.259-1.322 2.542-2.545 3.709-4.297 4.09-10.637 4.825-18.852 2.261.204-.316.441-.609.631-.936.795-1.368.819-2.83.077-4.124-.802-1.392-2.415-2.331-4.018-2.334h-.011c-1.477 0-2.721.745-3.509 2.102-2.795 4.816-8.082 7.928-13.475 7.928h-.018c-5.396-.004-10.684-3.129-13.475-7.959-1.371-2.37-3.955-2.545-5.815-1.47-1.867 1.076-3.03 3.424-1.645 5.822.195.338.438.64.649.966-8.22 2.569-14.561 1.837-18.867-2.257-1.22-1.164-2.102-2.443-2.545-3.709-.439-1.259-.559-2.58-.334-3.727.591-2.988 2.204-4.961 4.549-5.551 2.623-.664 3.473-3.076 2.96-5.119-.541-2.123-2.521-3.913-5.228-3.224-3.632.921-6.746 3.354-8.768 6.855-2.194 3.793-2.823 8.473-1.684 12.516 2.654 9.408 12.466 14.034 20.457 14.354q.553.021 1.111.021c4.562 0 9.462-1.121 14.912-3.369 4.024 2.816 8.824 4.481 13.722 4.491h.046c4.89 0 9.69-1.662 13.717-4.483 5.442 2.243 10.336 3.362 14.89 3.362q.562 0 1.114-.021c7.991-.32 17.803-4.946 20.457-14.354 1.139-4.039.51-8.715-1.684-12.512m-56.933-12.448c2.494-1.035 3.437-3.815 2.595-6.261-2.251-6.538-3.222-14.338-2.659-21.325.622-7.717 2.544-14.347 6.208-21.319 1.209-2.302-.461-5.346-2.671-6.228-2.576-1.03-5.026.381-6.229 2.671-8.02 15.262-9.098 33.63-3.506 49.868.846 2.457 3.979 3.542 6.262 2.594" style="fill:#122a89"/></svg>