<svg xmlns="http://www.w3.org/2000/svg" xml:space="preserve" viewBox="0 0 215 220"><path d="M93.955 77.46c-1.45 11.3 8.759 6.485 9.436-.845 1.204-13.048-.546-28.981-4.557-41.541-1.266-3.963-7.023-4.681-5.844 2.419 1.99 11.984 2.549 27.623.965 39.967m47.678 88.058c-.553-4.287-3.286-11.53-6.699-12.921-3.493-1.423-5.843 1.169-5.284 4.05.327 1.68 2.18 4.405 2.479 10.014.249 4.679-.731 6.74-3.275 7.54-4.528 1.423-5.59-2.253-8.467-1.821-3.637.546-3.64 3.381-7.071 4.667-3.07 1.153-6.214 1.478-8.913-.129-3.371-2.008-3.382-5.157-7.633-3.881-7.593 2.279-10.566-2.966-9.241-8.9 1.471-6.59 8.625-26.737 6.658-36.022-.863-4.074-6.92-4.259-8.768 1.637-3.3 10.523-1.814 9.201-6.195 22.766-3.8 11.766-6.432 21.19-1.335 26.74 2.518 2.742 8.684 8.632 17.807 4.6.975-.431 2.159 1.086 3.66 1.996 5.815 3.526 13.063 2.324 17.92-2.453.791-.777 7.404 3.075 12.846 1.852 5.341-1.201 8.551-4.769 9.756-6.864 2.284-3.973 2.248-9.055 1.755-12.871" style="fill:#122a89"/></svg>