<svg xmlns="http://www.w3.org/2000/svg" xml:space="preserve" viewBox="0 0 215 220"><path d="M157.709 144.944c-1.292-5.575-6.119-12.68-12.254-17.528-2.589-2.046-8.484-4.623-8.996-2.583-1.543 6.144 8.886 8.013 10.223 15.223 1.673 9.017-13.522 13.333-13.711 18.295-.605-1.58-2.275-2.649-4.581-2.851-3.244-.302-5.98 1.447-9.566 3.625-3.23 1.964-7.252 4.406-10.504 4.406-3.346 0-7.951-2.483-11.646-4.477-3.957-2.131-7.034-3.79-10.118-3.555-2.295.2-3.96 1.26-4.577 2.822-.249-4.95-15.378-9.266-13.708-18.265 1.337-7.21 11.766-9.079 10.223-15.223-.512-2.04-6.407.537-8.996 2.583-6.135 4.848-10.963 11.954-12.254 17.528-2.1 9.07 7.714 16.387 11.267 17.862 3.5 1.455 9.915 2.809 13.168-3.075.068-.123.072-.242.119-.363-.251 4.037 6.525 7.864 6.84 8.035l.713.391c4.117 2.272 9.755 5.384 18.869 5.592h.203c8.213-.188 12.483-2.762 15.916-4.829a61 61 0 0 1 1.964-1.154c2.591-1.416 7.003-4.772 6.863-8.006.045.113.047.222.11.335 3.253 5.884 9.668 4.53 13.168 3.075 3.551-1.476 13.366-8.793 11.265-17.863M99.191 111.63c2.595 0 5.565-3.195 5.249-6.949-1.385-16.49-.78-33.107 2.011-49.287.631-3.656-.848-7.523-3.665-8.549-2.646-.962-5.823 1.179-6.457 4.854-2.994 17.358-3.874 35.281-2.386 52.982.314 3.729 2.189 6.949 5.248 6.949" style="fill:#122a89"/></svg>