<svg xmlns="http://www.w3.org/2000/svg" xml:space="preserve" viewBox="0 0 215 220"><path d="M91.867 114.061c1.133-1.539 2.269-3.076 3.269-4.675 8.632-13.78 10.91-29.845 6.413-45.233-.645-2.202-2.974-3.311-5.543-2.646-2.363.614-4.455 2.703-3.68 5.37 2.24 7.664 2.424 15.895.529 23.801-1.978 8.246-6.426 15.197-10.938 21.48-5.338 7.425-6.79 14.89-4.439 22.813 2.576 8.67 9.29 15.842 15.209 22.17.94 1.008 2.231 1.545 3.642 1.545a6 6 0 0 0 1.095-.104c1.841-.349 3.37-1.519 3.892-2.983.439-1.229.123-2.539-.867-3.601l-.544-.582c-5.894-6.295-11.992-12.807-13.536-20.543-.826-4.138-.187-8.031 1.898-11.569 1.047-1.786 2.344-3.543 3.6-5.243m45.804 31.661c-5.945-8.065-17.51-11.018-26.332-6.708-2.145 1.044-3.819 3.591-2.699 6.249.544 1.291 1.664 2.36 2.993 2.86 1.129.427 2.338.386 3.376-.12a15 15 0 0 1 2.37-.921l.478-.105q.603-.104 1.215-.161.551-.052 1.098-.06l.367-.029.668.086c.68.085 1.357.171 2.025.329.304.073.601.158 1.107.319l.573.225c.737.31 1.443.683 2.221 1.161l.487.361q.483.37.937.791l1.215 1.383a5.06 5.06 0 0 0 4.047 2.028 4.47 4.47 0 0 0 2.762-.93c2.136-1.648 2.623-4.679 1.092-6.758" style="fill:#122a89"/></svg>