<svg xmlns="http://www.w3.org/2000/svg" xml:space="preserve" viewBox="0 0 215 220"><path d="M135.927 168.087c-6.371-9.557-17.222 15.311-39.676 1.221-6.515-4.088-6.924-8.562-6.924-22.877s4.043-18.508 6.924-22.877c5.64-8.555 13.386-7.652 13.936-12.66.481-.756.865-1.691 1.085-2.866 4.307-23.097 2.053-47.323-6.239-68.532-1.359-3.475-5.181-4.456-7.677-2.583-2.756 2.069-3.377 6.363-2.013 9.851 6.903 17.657 8.687 38.244 5.108 57.436a9.5 9.5 0 0 0-.086 3.119c-4.504 1.633-9.537 4.85-12.813 8.701-7.008 8.237-8.33 14.948-9.009 30.411.679 15.463.683 23.511 9.009 30.411 21.07 17.462 53.209-1.505 48.375-8.755" style="fill:#122a89"/></svg>