<svg xmlns="http://www.w3.org/2000/svg" xml:space="preserve" viewBox="0 0 215 220"><path d="M142.86 123.439c-2.295-2.62-5.608-3.507-7.657-1.81-1.539 1.274-1.216 3.575.072 7.846.837 2.776.433 7.864-2.557 9.563-4.792 2.723-7.814.098-9.894.722a8.6 8.6 0 0 0-1.351.529l-.095.037c-.079.04-.133.083-.205.123-.19.096-.377.181-.581.348-3.676 3.03-12.722 2.507-16.596.107-11.518-7.135-6.682-22.368-5.545-26.691 2.632-10.009 5.027-22.309 6.28-33.252.744-6.497-4.541-7.761-6.157-2.939-2.836 8.465-5.038 25.056-6.602 30.557-3.293 11.58-5.639 20.769-1.948 29.275.29.669.606 1.26.922 1.848-2.01.203-4.749 1.586-8.709-.664-2.99-1.699-3.394-6.787-2.557-9.563 1.288-4.271 1.61-6.572.072-7.846-2.049-1.698-5.363-.81-7.657 1.81-3.597 4.105-5.199 9.961-2.803 14.992 3.346 7.029 9.372 11.48 23.062 6.304a6.4 6.4 0 0 0 1.529-.838c2.438 2.613 5.15 3.932 7.581 4.885 4.655 1.825 10.494 2.729 14.575 1.657 3.289-.864 5.631-1.971 6.922-4.963.084-.195.124-.378.191-.568 13.279 4.832 19.217.453 22.515-6.476 2.392-5.032.79-10.888-2.807-14.993" style="fill:#122a89"/></svg>