<svg xmlns="http://www.w3.org/2000/svg" xml:space="preserve" viewBox="0 0 215 220"><path d="M137.905 111.614c-1.141-1.749-3.066-1.986-4.639-1.629-1.532.348-3.605 1.339-6.824 3.651-1.324.951-3.638 2.852-10.096 4.48-2.106.531-4.749.657-5.596 2.228s.136 2.413 1.853 2.911c2.529.733 4.053.841 6.644.894 3.08.063 5.667-.29 8.62-1.189 3.203-.976 4.537-1.767 7.615-4.272 2.564-2.089 3.719-5.086 2.423-7.074m-39.298 6.503c-6.459-1.629-8.773-3.53-10.096-4.48-3.219-2.312-5.292-3.304-6.824-3.651-1.572-.357-3.498-.12-4.639 1.629-1.296 1.988-.141 4.985 2.424 7.074 3.078 2.506 4.412 3.296 7.615 4.272 2.953.899 5.54 1.252 8.62 1.189 2.59-.054 4.114-.162 6.643-.894 1.717-.497 2.701-1.34 1.853-2.911-.846-1.571-3.489-1.697-5.596-2.228" style="fill:#122a89"/></svg>