<svg xmlns="http://www.w3.org/2000/svg" xml:space="preserve" viewBox="0 0 215 220"><path d="M112.459 155.053c-8.77 4.385-17.209-3.46-24.143-7.706-9.332-5.715-10.68-6.231-10.456-8.129.646-5.488 3.575-17.195 9.285-31.452 7.229-18.051 16.915-41.277 17.858-47.069 1.641-10.08-7.494-9.128-9.073-3.629-2.134 7.425-6.567 21.387-15.371 42.053-8.301 19.485-14.644 37.27-13.858 42.503 1.464 9.735 14.15 10.812 27.609 21.041 9.811 7.456 16.834 3.62 21.447.862 6.669-3.987 1.17-10.708-3.298-8.474m32.9-9.59c-7.241-3.293-17.483-.84-24.327 9.343-1.479 2.2 1.12 3.991 3.359 3.584l20.969-3.814c1.658-.302 3.03-2.667 2.958-4.557-.087-2.235-1.227-3.768-2.959-4.556" style="fill:#122a89"/></svg>