<svg xmlns="http://www.w3.org/2000/svg" xml:space="preserve" viewBox="0 0 215 220"><path d="M137.421 113.081c-3.016-2.424-6.813-2.756-8.728-.503-1.437 1.691-.641 4.147 1.593 8.572 1.452 2.876 1.991 8.522-.952 10.958-4.293 3.553-7.823 2.003-10.051 2.507-.46.076-.946.221-1.474.527-5.235 3.03-18.388 2.791-23.633.106-15.579-7.973-10.839-22.727-7.897-26.691 5.552-7.481 8.554-10.929 10.337-21.872 1.059-6.497-6.467-7.761-8.768-2.939-4.038 8.466-7.573 14.382-10.796 19.177-7.318 10.887-8.038 22.135-1.302 31.667 4.847 6.859 10.177 9.422 15.646 10.928 6.628 1.824 12.892 2.102 18.704 1.03 4.341-.801 8.478-3.342 10.538-6.09 14.948 2.433 20.504-3.418 22.743-11.514 1.651-5.967-1.232-12.066-5.96-15.863" style="fill:#122a89"/></svg>