<svg xmlns="http://www.w3.org/2000/svg" xml:space="preserve" viewBox="0 0 215 220"><path d="M100.602 107.675c-.584 3.092.861 6.292 4.073 7.175 2.847.782 6.586-.962 7.174-4.073 3.386-17.901.556-36.37-8.295-52.33-3.641-6.566-13.719-.69-10.071 5.887 7.258 13.086 9.905 28.608 7.119 43.341m26.11 26.563c-3.041.137-5.98 2.568-5.832 5.832.025.556.036 1.111.011 1.667-.02.432-.371 1.853-.027.571-.256.954-.505 1.891-.791 2.833-.044.09-.25.639-.398.921q-.332.633-.711 1.241c-.144.229-.505.737-.564.843-.328.399-.662.793-1.023 1.162-.334.341-.689.658-1.036.985-.099.093-.119.113-.175.167q-.164.12-.331.238-.683.474-1.409.879c-.251.14-1.131.49-1.167.534-.811.252-1.612.479-2.444.675-.215.016-.431.036-.644.044q-.814.033-1.629-.014l-.432-.023c-.034-.004-.08-.009-.098-.013a24 24 0 0 1-1.593-.362 19 19 0 0 1-1.337-.42c-.075-.027-.27-.107-.43-.173l-.327-.16a19 19 0 0 1-1.432-.798c-.123-.076-.606-.4-.88-.58-.165-.144-.627-.515-.737-.615a18 18 0 0 1-1.31-1.325l-.085-.099c.053.054-.012-.026-.214-.255l.035.045a10 10 0 0 0-.191-.222l.156.177c-.029-.038-.064-.079-.085-.11-.252-.392-.513-.776-.745-1.181-.067-.117-.43-.839-.549-1.056l-.034-.087c-.12-.364-.243-.724-.345-1.093-.143-.514-.212-1.048-.352-1.561.04.146.051.195.071.275a4 4 0 0 1-.077-.538 17 17 0 0 1-.028-1.6q.01-.344.03-.686c.007-.107.065-.538.09-.752.064-.29.118-.581.188-.868q.217-.893.519-1.763c.066-.191.14-.379.212-.567l.083-.16c.286-.542.563-1.085.886-1.606.199-.322 1.277-1.686.412-.686.35-.404.69-.812 1.063-1.194.381-.391.791-.741 1.198-1.101.347-.214.684-.455 1.032-.666 2.61-1.578 3.817-5.304 2.092-7.979-1.691-2.623-5.186-3.781-7.98-2.092-10.797 6.528-15.263 22.137-7.838 32.847 3.582 5.167 9.138 9.139 15.399 10.257 7.013 1.253 13.639-.498 19.132-5.026 5.479-4.517 8.823-11.828 8.501-18.931-.136-3.041-2.582-5.976-5.83-5.831" style="fill:#122a89"/></svg>