<svg xmlns="http://www.w3.org/2000/svg" xml:space="preserve" viewBox="0 0 215 220"><path d="M77.103 164.344c0-5.822-9.579-.856-12.346-5.742-3.776-6.67 11.393-21.359 7.44-23.88-4.157-2.652-9.496 2.387-12.251 5.704-2.796 3.365-9.806 15.231-5.958 21.12 2.365 3.619 8.177 6.265 14.639 6.314 2.726.019 8.476-1.583 8.476-3.516m77.904-23.919c-2.756-3.317-8.095-8.356-12.252-5.704-3.953 2.522 11.216 17.21 7.44 23.88-2.766 4.887-12.346-.08-12.346 5.742 0 1.933 5.75 3.535 8.476 3.515 6.462-.049 12.274-2.695 14.639-6.314 3.848-5.888-3.161-17.754-5.957-21.119m-65.86-3.055c-2.438-5.975-2.279-12.944-2.215-19.279.097-9.694.954-19.382 2.041-29.01 1.967-17.426 4.607-34.956 8.695-52.022 1.424-5.945-7.738-8.481-9.164-2.526-4.286 17.892-6.973 36.282-9.035 54.549-1.107 9.809-1.98 19.683-2.047 29.56-.046 6.925-.1 14.736 2.561 21.255 2.279 5.587 11.477 3.142 9.164-2.527m47.256 28.391c-5.52-.875-3.83 5.623-11.169 10.173-3.391 2.103-6.646 5.055-17.757 5.055s-14.367-2.952-17.757-5.055c-7.338-4.55-5.649-11.047-11.169-10.173-5.215.826-.944 11.512 5.32 16.525 6.393 5.116 11.603 6.082 23.606 6.578 12.003-.496 17.213-1.462 23.606-6.578 6.264-5.013 10.535-15.699 5.32-16.525" style="fill:#122a89"/></svg>