<svg xmlns="http://www.w3.org/2000/svg" xml:space="preserve" viewBox="0 0 215 220"><path d="M135.114 100.852c-6.813-4.262-13.962-8.418-22.19-8.852-8.844-.466-19.897 2.142-25.903 9.133-9.462 11.012-9.669 29.393.982 39.634 5.912 5.684 14.363 8.035 22.423 7.077 3.438-.409 7.957-1.141 10.451-3.817 2.369-2.542-2.103-3.065-3.776-2.866-2.415.287-4.791-.016-7.66-1.244-3.016-1.29-5.785-3.452-7.965-5.879-4.852-5.4-6.605-13.426-5.61-20.501.512-3.642 1.084-5.999 2.84-9.228.799-1.469 2.855-3.383 5.899-4.296 1.721-.516 3.363-.296 5.031.355 3.811 1.487 7.314 3.773 10.768 5.933 2.704 1.691 7.408.33 10.119-.732.848-.333 7.078-3.161 4.591-4.717" style="fill:#122a89"/></svg>