<svg xmlns="http://www.w3.org/2000/svg" xml:space="preserve" viewBox="0 0 215 220"><path d="M142.712 117.614c-4.359-4.44-16.102-10.543-29.324-1.821a6.486 6.486 0 0 0-1.842 8.982c1.969 2.981 5.973 3.804 8.982 1.835 7.186-4.732 12.073-.738 13.001.148a6.46 6.46 0 0 0 4.563 1.877 6.478 6.478 0 0 0 4.62-11.021m-41.147-1.821c-13.222-8.722-24.957-2.619-29.327 1.821-2.479 2.524-2.433 6.525.046 9.046a6.42 6.42 0 0 0 4.602 1.912 6.55 6.55 0 0 0 4.525-1.8c.904-.865 5.787-4.922 13.018-.162a6.493 6.493 0 0 0 8.979-1.835 6.486 6.486 0 0 0-1.843-8.982" style="fill:#122a89"/></svg>