<svg xmlns="http://www.w3.org/2000/svg" xml:space="preserve" viewBox="0 0 215 220"><path d="M148.888 110.015c-1.322-3.159-3.659-4.806-6.68-3.689-2 .74-2 2.535-2.147 4.965.148 2.851-2.959 2.987-5.124 2.049s-4.878-4.486-9.737-2.594c-6.418 2.499-7.939 9.802-17.724 9.802s-11.306-7.303-17.724-9.802c-4.859-1.891-7.572 1.655-9.737 2.594s-5.272.802-5.124-2.049c-.148-2.43-.148-4.226-2.147-4.965-3.021-1.117-5.358.53-6.68 3.689-1.832 4.377-.789 7.892 2.666 10.254 3.201 2.183 9.287 3.172 12.836 2.261 2.934-.354 6.027-1.104 7.425-.668 2.917.912 4.149 4.909 6.762 7.447 3.051 2.965 8.374 4.714 11.723 4.714s8.672-1.749 11.723-4.714c2.613-2.539 3.845-6.536 6.762-7.447 1.397-.437 4.491.314 7.425.668 3.55.91 9.635-.079 12.837-2.261 3.454-2.362 4.497-5.878 2.665-10.254" style="fill:#122a89"/></svg>