<svg xmlns="http://www.w3.org/2000/svg" xml:space="preserve" viewBox="0 0 215 220"><path d="M87.68 119.832c-2.319-2.918-3.692-8.258-3.408-13.79.606-11.795-7.258-11.468-9.581-6.387 0 0-2.149 3.919-2.136 12.097.017 9.993 5.328 17.301 17.128 20.926 3.126.961 11.459 2.074 12.95-1.001 1.654-3.414-8.424-3.631-14.953-11.845m52.582-20.178c-2.323-5.081-10.187-5.407-9.581 6.387.284 5.533-1.089 10.872-3.408 13.79-6.529 8.214-16.608 8.431-14.953 11.844 1.491 3.075 9.824 1.962 12.95 1.001 11.8-3.625 17.111-10.933 17.128-20.926.013-8.177-2.136-12.096-2.136-12.096" style="fill:#122a89"/></svg>