<svg xmlns="http://www.w3.org/2000/svg" xml:space="preserve" viewBox="0 0 215 220"><path d="M104.456 157.343c-7.752-2.326-20.903-5.959-20.973-16.2-.033-4.929 3.698-9.567 5.945-13.703 2.298-4.227 4.3-8.606 6.084-13.073 7.272-18.212 9.74-38.242 7.345-57.683-.906-7.354-12.582-7.445-11.664 0 2.834 23.008-1.375 46.212-12.733 66.482-5.138 9.17-9.414 18.548-3.734 28.625 5.54 9.828 16.435 13.74 26.63 16.799 7.204 2.163 10.283-9.091 3.1-11.247m35.627-3.614c-8.136-5.482-19.53-4.144-26.651 2.344-2.261 2.061-2.247 6.185 0 8.248 2.417 2.218 5.836 2.197 8.248 0 .073-.066.227-.196.384-.328.218-.151.532-.374.642-.442.43-.267.894-.469 1.348-.691a17.5 17.5 0 0 1 2.746-.744 18 18 0 0 1 2.902-.02c.886.164 1.759.38 2.609.685.642.315 1.288.617 1.885 1.019 2.536 1.709 6.572.57 7.979-2.092 1.555-2.944.615-6.155-2.092-7.979" style="fill:#122a89"/></svg>