<svg xmlns="http://www.w3.org/2000/svg" xml:space="preserve" viewBox="0 0 215 220"><path d="M143.272 137.867c-2.37-4.587-7.101-11.634-11.425-8.403-4.112 3.072 9.292 23.587 4.948 32.171-1.997 3.948-6.238 2.569-9.261 2.901-.701-.805-1.593-1.411-2.774-1.554-2.681-.347-4.942 1.66-7.905 4.159-2.669 2.253-5.994 5.055-8.681 5.055-2.765 0-6.571-2.849-9.624-5.136-3.27-2.445-5.814-4.348-8.362-4.079-1.183.143-2.076.747-2.779 1.551-3.023-.327-7.255 1.045-9.25-2.898-2.75-5.434 1.605-15.64 4.134-23.185.385 2.35.896 4.659 1.772 6.806 2.28 5.588 11.478 3.143 9.164-2.526-2.438-5.975-2.279-12.944-2.215-19.279.097-9.694.954-19.382 2.041-29.01 1.967-17.425 4.607-34.956 8.695-52.022 1.424-5.944-7.738-8.481-9.165-2.526-4.285 17.892-6.973 36.282-9.035 54.549-1.107 9.809-1.98 19.683-2.047 29.56a249 249 0 0 0 .005 4.726c-3.847-.8-7.747 5.113-9.828 9.14-2.407 4.654-8.107 20.867-3.769 28.409 2.666 4.637 8.607 7.746 14.931 7.367 1.276-.076 3.186-.701 4.817-1.603 1.643 2.573 4.078 4.472 4.246 4.599l.589.448c3.403 2.607 8.062 6.177 15.594 6.416h.168c6.787-.216 10.316-3.169 13.154-5.541.541-.454 1.076-.903 1.623-1.324 1.241-.941 2.985-2.639 4.226-4.615 1.638.912 3.564 1.542 4.849 1.619 6.324.379 12.265-2.73 14.931-7.367 4.339-7.542-1.36-23.754-3.767-28.408" style="fill:#122a89"/></svg>