<svg xmlns="http://www.w3.org/2000/svg" xml:space="preserve" viewBox="0 0 215 220"><path d="M145.305 104.381c-2.88-7.165-9.14-29.275-13.547-28.003-6.9 1.992 4.327 27.837 7.047 36.805 2.041 6.728 2.736 13.376.233 17.416-1.379 2.226-3.124 3.338-4.911 4.015.289-2.087-.231-3.658-1.918-3.942-4.72-.795-3.275 5.112-9.55 9.248-2.9 1.912-5.683 4.595-15.184 4.595s-12.284-2.684-15.184-4.595c-6.275-4.137-4.83-10.043-9.549-9.248-1.688.284-2.207 1.856-1.918 3.942-1.787-.677-3.532-1.789-4.911-4.015-2.503-4.04-1.807-10.688.233-17.416 2.72-8.967 13.947-34.812 7.047-36.805-4.407-1.272-10.667 20.838-13.547 28.003-4.84 12.041-7.702 25.224-2.216 34.177 2.662 4.344 6.709 5.87 13.543 6.638 2.194.247 3.911.014 5.359-.464.32.322.624.678.959.963 5.466 4.651 9.921 5.528 20.184 5.979 10.263-.451 14.718-1.328 20.184-5.979.335-.285.639-.641.959-.963 1.448.479 3.165.711 5.359.464 6.834-.769 10.88-2.294 13.543-6.638 5.488-8.953 2.625-22.135-2.215-34.177" style="fill:#122a89"/></svg>