<svg xmlns="http://www.w3.org/2000/svg" xml:space="preserve" viewBox="0 0 215 220"><path d="M139.104 165.691c-9.92-4.674-13.239-.185-22.066 7.189-1.726 1.442-6.902 5.233-9.562 5.233s-7.836-3.79-9.562-5.233c-8.827-7.375-12.146-11.863-22.066-7.189-8.009 3.774-6.878 8.234-1.735 9.296 2.961.611 9.953 1.089 14.051-.451.595-.223 6.236 5.696 11.185 8.34 2.388 1.276 4.225 2.15 8.128 2.353 3.903-.203 5.74-1.078 8.128-2.353 4.949-2.644 10.59-8.563 11.185-8.34 4.097 1.54 11.09 1.062 14.051.451 5.142-1.062 6.273-5.523-1.737-9.296M93.058 53.476c.617 7.136.851 14.365.96 21.527.283 18.542-.254 37.097-.327 55.639-.022 5.636 10.575 4.24 10.594-.699.076-19.309.704-38.642.285-57.949-.159-7.302-.399-14.697-1.134-21.964-.792-7.831-4.115-14.054-9.345-19.866-3.306-3.675-13.173.637-9.524 4.692 5.035 5.595 7.842 11.098 8.491 18.62" style="fill:#122a89"/></svg>