<svg xmlns="http://www.w3.org/2000/svg" xml:space="preserve" viewBox="0 0 215 220"><path d="M122.577 160.84c-5.235 3.03-18.388 2.791-23.633.106-15.579-7.973-10.839-22.727-7.897-26.691 5.552-7.481 8.554-10.929 10.337-21.872 1.059-6.497-6.467-7.761-8.767-2.939-4.038 8.466-7.573 14.382-10.796 19.177-7.318 10.887-8.038 22.135-1.301 31.667 4.847 6.859 10.177 9.422 15.646 10.928 6.628 1.824 12.892 2.102 18.704 1.03 4.683-.864 9.24-3.738 11.077-6.73 2.221-3.614-.028-6.611-3.37-4.676M92.473 89.325c-.474 2.505.697 5.096 3.299 5.811 2.306.633 5.335-.78 5.811-3.299 2.742-14.5.451-29.46-6.719-42.387-2.949-5.319-11.112-.559-8.158 4.768 5.879 10.601 8.023 23.174 5.767 35.107" style="fill:#122a89"/></svg>