<svg xmlns="http://www.w3.org/2000/svg" xml:space="preserve" viewBox="0 0 215 220"><path d="M73.222 120.666c.08 1.681-.292 3.45 1.628 4.236 2.309.943 4.733.218 6.202-1.11 6.069-5.5 17.428-14.543 27.054-14.416 9.917.13 19.728 9.633 27.23 14.084 4.388 2.6 6.6-.384 6.405-4.378-1.39-28.459-69.908-26.874-68.519 1.584" style="fill:#122a89"/><path d="M90.464 121.625c-2.229.486-4.458 2.074-4.356 4.356.111 2.445 1.914 4.25 4.356 4.356.561.025 1.118.088 1.675.144 2.255.334 4.452.93 6.563 1.789.446.205.896.403 1.332.631 1.031.539 2.213.754 3.356.439 1.01-.278 2.106-1.06 2.604-2.002 1.059-2.005-.118-4.002-1.564-5.96-2.979-4.036-7.87-5.082-13.966-3.753m34.025 0c-6.096-1.329-10.987-.283-13.965 3.753-1.445 1.958-2.623 3.955-1.563 5.96.497.943 1.593 1.724 2.603 2.002 1.143.315 2.325.1 3.356-.439.436-.228.885-.425 1.332-.631a28.4 28.4 0 0 1 6.563-1.789c.557-.056 1.114-.12 1.675-.144 2.442-.106 4.246-1.911 4.356-4.356.101-2.282-2.128-3.87-4.357-4.356" style="fill:#122a89"/></svg>