<svg xmlns="http://www.w3.org/2000/svg" xml:space="preserve" viewBox="0 0 215 220"><path d="M134.833 137.319c-4.916.523-9.569 3.746-15.817 8.89-2.517 1.355-5.066 2.64-7.702 3.664-4.236 1.645-6.821.838-10.995-.36-1.169-.335-2.41-.526-3.674-.675-.041-.036-.058-.065-.101-.102-7.39-6.256-12.157-10.055-17.391-10.611a8.5 8.5 0 0 0-1.647.007c.055-2.485.648-5.036 1.331-6.881 1.557-4.208 4.448-7.67 7.368-10.992 2.073-2.359 3.997-4.414 4.743-7.514 1.577-6.551 2.683-13.187 4.478-19.695 2.617-9.487 6.592-18.112 11.444-26.642 2.163-3.803-6.271-3.477-7.892-.627-4.649 8.173-8.557 16.484-11.232 25.522-2.088 7.055-3.536 14.251-5.049 21.444-.732 3.478-3.727 5.789-5.97 8.557-3.312 4.085-6.157 8.638-7.149 13.88-.86 4.544-.782 10.494 3.015 13.694 3.483 2.936 8.388 3.907 12.758 4.627 2.147.354 4.308.594 6.473.805.832.081 1.665.154 2.497.236.505.05 1.661.306 1.058.134 5.515 1.573 10.033 2.525 15.739.821 2.011-.601 3.967-1.376 5.894-2.239.947.142 2.058.214 3.309.207 1.905-.012 8.986-.359 11.841-1.219 4.176-1.258 9.393-2.54 11.431-6.521 2.26-4.418-3.144-9.007-8.76-8.41" style="fill:#122a89"/></svg>