<svg xmlns="http://www.w3.org/2000/svg" xml:space="preserve" viewBox="0 0 215 220"><path d="M137.421 139.82c-3.016-2.424-6.813-2.755-8.728-.503-1.437 1.691-.641 4.147 1.593 8.572 1.452 2.877 1.991 8.522-.952 10.958-4.293 3.553-7.823 2.003-10.051 2.507-.46.076-.946.221-1.474.527-5.235 3.03-18.388 2.791-23.633.106-15.579-7.973-10.839-22.727-7.897-26.691 5.552-7.481 8.554-10.929 10.337-21.872 1.059-6.497-6.467-7.761-8.768-2.938-4.038 8.465-7.573 14.382-10.796 19.177-7.318 10.887-8.038 22.134-1.302 31.667 4.847 6.858 10.177 9.422 15.646 10.927 6.628 1.825 12.892 2.102 18.704 1.03 4.341-.8 8.478-3.342 10.538-6.09 14.948 2.433 20.504-3.418 22.743-11.514 1.651-5.967-1.232-12.065-5.96-15.863M93.827 86.285c-.474 2.505.697 5.096 3.299 5.811 2.306.633 5.335-.78 5.811-3.299 2.742-14.5.45-29.46-6.719-42.387-2.949-5.318-11.112-.559-8.158 4.769 5.879 10.599 8.023 23.172 5.767 35.106" style="fill:#122a89"/></svg>