<svg xmlns="http://www.w3.org/2000/svg" xml:space="preserve" viewBox="0 0 215 220"><path d="M152.669 116.25c-2.389-8.467-11.22-12.631-18.412-12.919a28 28 0 0 0-1-.019c-2.745 0-5.696.613-8.767 1.511-4.108-5.239-10.409-8.63-17.004-8.643h-.041c-6.579 0-12.88 3.389-16.995 8.639-3.066-.895-6.012-1.507-8.751-1.507q-.507 0-1.003.019c-7.192.288-16.023 4.452-18.412 12.919-1.025 3.636-.459 7.844 1.516 11.261 1.822 3.151 4.626 5.344 7.894 6.173 1.364.342 2.696-.01 3.639-.975 1.019-1.047 1.44-2.677 1.051-4.053-.358-1.256-1.297-2.136-2.652-2.481-2.11-.531-3.563-2.306-4.091-4.996-.206-1.025-.098-2.215.298-3.354.399-1.133 1.19-2.288 2.291-3.338 4.55-4.332 11.622-4.525 21.025-.563.817.342 1.759.298 2.658-.145 1.07-.519 1.911-1.497 2.199-2.547.306-1.108.075-2.158-.524-3.045 2.63-2.637 6.227-4.23 9.884-4.23h.016c3.653.002 7.248 1.597 9.875 4.236-.596.886-.824 1.934-.519 3.039.288 1.05 1.129 2.025 2.199 2.547.902.443 1.848.487 2.661.145 9.4-3.961 16.466-3.768 21.022.563 1.098 1.047 1.892 2.199 2.291 3.338.396 1.132.503 2.322.301 3.354-.532 2.689-1.984 4.464-4.094 4.996-2.36.598-3.126 2.769-2.664 4.607.487 1.911 2.268 3.521 4.705 2.901 3.269-.829 6.072-3.019 7.891-6.17 1.972-3.413 2.538-7.624 1.513-11.263" style="fill:#122a89"/><path d="M131.667 120.904c-5.865-2.668-14.161-.681-19.705 7.568-1.198 1.782.907 3.233 2.721 2.903l16.984-3.09c1.343-.245 2.454-2.16 2.395-3.691-.068-1.81-.992-3.052-2.395-3.69m-48.382 0c-1.403.638-2.327 1.88-2.395 3.691-.059 1.53 1.052 3.446 2.395 3.691l16.984 3.09c1.814.33 3.919-1.121 2.721-2.903-5.544-8.25-13.84-10.237-19.705-7.569" style="fill:#122a89"/></svg>