<svg xmlns="http://www.w3.org/2000/svg" xml:space="preserve" viewBox="0 0 215 220"><path d="M92.332 117.87c-1.44-5.386-1.68-12.669-1.395-18.201.606-11.795-3.136-16.493-6.451-11.068 0 0-6.152 8.71-6.625 23.102-.328 9.987 5.328 17.301 17.127 20.926 3.126.96 11.459 2.074 12.95-1.002 1.654-3.412-12.896-3.621-15.606-13.757m48.074-.609c-1.427-1.524-3.365-1.423-4.852-.799-1.448.609-3.317 1.945-6.086 4.781-1.138 1.166-3.087 3.44-9.165 6.166-1.982.889-4.563 1.472-5.125 3.166s.553 2.353 2.331 2.545c2.618.282 4.137.124 6.698-.273 3.044-.472 5.531-1.27 8.283-2.668 2.985-1.517 4.162-2.527 6.757-5.53 2.164-2.503 2.781-5.655 1.159-7.388" style="fill:#122a89"/></svg>