<svg xmlns="http://www.w3.org/2000/svg" xml:space="preserve" viewBox="0 0 215 220"><path d="M153.977 122.415c-2.336-.226-5.642.188-7.376 1.977-1.309 1.35-1.521 3.111.896 3.345 7.469.723 10.213 16.605 2.186 17.946-1.793.3-4.604-1.123-6.438-1.369-1.463-.196-2.91-.205-4.375-.093-3.682.281-5.78 1.459-7.935 4.3-4.143 5.461-8.726 10.672-15.468 12.848-6.87 2.217-13.138-.224-18.757-4.327-3.132-2.288-6.175-4.818-8.609-7.85-1.61-2.005-2.992-4.191-5.553-5.015-2.743-.882-5.526.034-8.097.961-3.317 1.195-5.984.104-8.879-2.103-4.905-3.738-5.635-9.667-4.216-15.346.673-2.694 1.742-5.294 3.223-7.644.996-1.581 2.703-3.746 3.468-4.004 1.528-.516 4.006-2.081 2.863-3.886-1.13-1.785-5.52-.385-6.859.067-9.27 3.131-14.806 15.884-13.727 25.036 1.272 10.784 15.964 17.611 25.769 13.087.359.394.726.78 1.048 1.206 1.184 1.435 2.251 2.9 3.575 4.218 2.816 2.806 6.134 5.314 9.512 7.403 5.367 3.321 11.199 4.922 17.509 4.538 12.947-.788 23.918-7.728 31.638-17.732 4.006.596 7.878 1.797 12.177.727 4.358-1.084 8.458-3.692 10.916-7.488 5.046-7.789 1.563-19.828-8.491-20.802" style="fill:#122a89"/><path d="M88.333 110.977a278.5 278.5 0 0 1 10.368-55.598c.731-2.485-3.114-3.268-4.743-3.13-2.495.211-5.055 1.548-5.792 4.05a278.5 278.5 0 0 0-10.368 55.598c-.423 5.108 10.169 3.501 10.535-.92" style="fill:#122a89"/></svg>