<svg xmlns="http://www.w3.org/2000/svg" xml:space="preserve" viewBox="0 0 215 220"><path d="M166.606 125.312c-3.05-8.907-9.044-16.696-16.842-21.92-1.721-2.015-3.928-3.429-6.405-4.058-1.368-.342-2.703.01-3.649.977-1.022 1.05-1.444 2.684-1.053 4.065.359 1.259 1.301 2.141 2.659 2.487 2.116.533 3.573 2.313 4.103 5.01.206 1.028.098 2.221-.298 3.363-.399 1.136-1.193 2.294-2.297 3.347-3.861 3.675-9.637 4.195-17.003 1.918.165-.258.405-.456.559-.722.717-1.234.739-2.554.07-3.722-.724-1.256-2.18-2.104-3.627-2.107h-.01c-1.332 0-2.456.673-3.166 1.898-2.522 4.347-7.294 7.155-12.161 7.155h-.016c-4.87-.004-9.642-2.824-12.161-7.183-1.237-2.139-3.569-2.297-5.248-1.326-1.684.971-2.735 3.09-1.485 5.254.159.275.406.481.577.748-7.371 2.283-13.15 1.766-17.019-1.912-1.101-1.05-1.897-2.205-2.297-3.347-.396-1.136-.504-2.329-.301-3.363.533-2.697 1.989-4.477 4.106-5.01 2.367-.599 3.135-2.776 2.671-4.62-.489-1.916-2.275-3.531-4.718-2.91-2.48.629-4.688 2.044-6.409 4.062-7.795 5.225-13.787 13.012-16.836 21.916-.571 1.667.654 3.553 2.27 3.996 1.765.486 3.428-.61 3.996-2.269 1.478-4.316 4.111-8.749 7.211-12.214.083.671.154 1.347.335 1.991 2.395 8.49 11.251 12.666 18.463 12.955q.498.02 1.003.019c4.149 0 8.612-1.035 13.577-3.096 3.621 2.519 7.865 4.099 12.265 4.108h.041c4.392 0 8.635-1.579 12.259-4.104 4.959 2.057 9.417 3.092 13.558 3.092q.508 0 1.006-.019c7.212-.289 16.067-4.464 18.463-12.955.181-.643.252-1.318.335-1.989 3.099 3.465 5.733 7.897 7.21 12.212.569 1.659 2.231 2.754 3.997 2.269 1.613-.444 2.838-2.329 2.267-3.996" style="fill:#122a89"/></svg>