<svg xmlns="http://www.w3.org/2000/svg" xml:space="preserve" viewBox="0 0 215 220"><path d="M153.42 105.096c-2.254-5.078-7.579-15.291-11.26-12.935-4.183 2.677.236 6.379 3.371 16.58 1.005 3.27 2.377 9.92.827 13.632-3.727 8.926-12.11 4.948-16.977 6.668-1.361-3.413-5.661-4.991-11.588 1.043-1.863 1.896-7.447 5.015-10.317 5.015s-8.454-3.118-10.317-5.015c-5.926-6.035-10.227-4.456-11.588-1.043-4.867-1.72-13.25 2.258-16.977-6.668-1.55-3.712-.178-10.361.827-13.632 3.135-10.201 7.554-13.903 3.371-16.58-3.681-2.355-9.006 7.857-11.26 12.935-2.287 5.153-4.373 14.536-1.225 23.552 1.935 5.542 8.839 10.547 14.126 10.622 1.676.024 9.892.324 13.211-2.367 2.034 1.72 6.816 5.425 11.062 8.19 2.577 1.677 4.558 2.827 8.769 3.094 4.211-.267 6.193-1.417 8.769-3.094 4.246-2.765 9.029-6.471 11.063-8.19 3.32 2.691 11.535 2.391 13.211 2.367 5.287-.075 12.19-5.08 14.125-10.622 3.15-9.016 1.065-18.399-1.223-23.552" style="fill:#122a89"/></svg>