<svg xmlns="http://www.w3.org/2000/svg" xml:space="preserve" viewBox="0 0 215 220"><path d="M144.742 104.233c-7.111-1.198-4.935 7.702-14.388 13.934-1.851 1.22-3.719 2.637-6.29 3.879l.247-1.613a5.9 5.9 0 0 0 0-3.101l-.588-1.394c-.712-1.349-2.074-2.223-3.485-2.68a4.4 4.4 0 0 0-2.326-.104 4.34 4.34 0 0 0-2.169.692 4.4 4.4 0 0 0-1.636 1.502 4.4 4.4 0 0 0-1.044 1.984l-1.11 7.24c-.032.119-.023.237-.048.356-1.371.095-2.816.162-4.429.162s-3.059-.066-4.429-.162c-.025-.119-.016-.237-.048-.356l-1.11-7.24a4.4 4.4 0 0 0-1.044-1.984 4.4 4.4 0 0 0-1.636-1.502 4.34 4.34 0 0 0-2.169-.692 4.4 4.4 0 0 0-2.326.104c-1.411.457-2.773 1.331-3.485 2.68l-.588 1.394a5.87 5.87 0 0 0 0 3.101l.247 1.613c-2.572-1.242-4.439-2.659-6.29-3.879-9.454-6.232-7.277-15.132-14.388-13.934-6.718 1.132-1.216 15.769 6.854 22.635 8.236 7.008 14.948 8.33 30.411 9.009 15.463-.679 22.175-2.002 30.411-9.009 8.072-6.866 13.574-21.504 6.856-22.635" style="fill:#122a89"/></svg>