<svg xmlns="http://www.w3.org/2000/svg" xml:space="preserve" viewBox="0 0 215 220"><path d="M154.136 99.899c-5.181-5.443-12.329-13.294-15.343-8.096-3.317 5.721 21.232 18.973 19.11 29.214-.525 2.533-2.56 4.326-5.163 5.525-.11-.333-.154-.684-.304-1.003-1.538-3.284-5.211-4.695-8.652-4.649-3.379.044-6.854 1.023-10.026 2.12-.374.129-.729.307-1.099.445 1.731-3.032 2.23-5.828-.382-6.186-4.732-.647-14.246 15.321-23.773 15.321s-21.096-15.968-25.828-15.321c-2.621.359-2.152 3.137-.416 6.173-.36-.134-.704-.307-1.067-.432-3.172-1.096-6.647-2.076-10.025-2.12-3.441-.046-7.114 1.365-8.652 4.649-.149.319-.193.67-.304 1.003-2.603-1.199-4.638-2.992-5.163-5.525-2.122-10.24 22.427-23.492 19.11-29.214-3.014-5.198-10.161 2.653-15.343 8.096-3.999 4.201-12.192 12.511-12.126 19.728.071 7.764 4.661 13.23 13.816 15.369.893.209 1.746.366 2.593.518 1.081.38 2.702.553 4.722.552 1.607.078 3.056.029 4.272-.183 6.162-.482 13.272-1.752 16.113-2.67.321-.104.512-.345.767-.523 4.309 3.511 9.666 6.931 17.532 7.211 7.778-.278 11.936-3.625 15.647-7.094.209.127.346.326.595.406 2.84.918 9.951 2.188 16.113 2.67 1.216.212 2.665.261 4.272.183 2.02.002 3.64-.171 4.721-.551.847-.152 1.7-.309 2.594-.518 9.154-2.139 13.744-7.605 13.815-15.369.066-7.218-8.127-15.527-12.126-19.729" style="fill:#122a89"/></svg>