<svg xmlns="http://www.w3.org/2000/svg" xml:space="preserve" viewBox="0 0 215 220"><path d="M153.632 106.808c-1.832-4.705-7.042-10.446-11.138-7.393-2.924 2.18 5.341 9.3 1.908 17.946-.874 2.2-2.432 2.778-4.082 2.956 1.72-2.872 1.633-5.86-.039-7.532-2.318-2.318-11.297-1.465-14.448 5.896-1.427 3.335-8.255 7.6-18.356 7.6s-16.929-4.265-18.356-7.6c-3.151-7.361-11.77-8.575-14.448-5.896-1.672 1.672-1.758 4.66-.039 7.532-1.65-.178-3.208-.756-4.082-2.956-3.433-8.646 4.831-15.767 1.907-17.946-4.096-3.053-9.306 2.688-11.138 7.393-1.832 4.704-2.712 9.608-.56 14.368 2.126 4.702 6.841 7.438 12.715 7.502 2.099.022 6.137-1.261 7.334-3.174 1.522.723 3.201 1.359 5.231 1.749.669.128 10.524 5.737 21.436 6.189 10.912-.451 20.766-6.061 21.436-6.189 2.031-.389 3.709-1.026 5.231-1.749 1.197 1.913 5.235 3.197 7.334 3.174 5.874-.064 10.589-2.8 12.715-7.502 2.152-4.76 1.271-9.664-.561-14.368" style="fill:#122a89"/></svg>