<svg xmlns="http://www.w3.org/2000/svg" xml:space="preserve" viewBox="0 0 215 220"><path d="M189.745 71.852c-4.676-4.259-7.119 8.368-15.804 17.525-9.597 10.118-16.993-1.118-23.778-3.702-10.092-3.844-15.235 1.851-25.551-.569-9.726-2.282-16.832.187-17.112.263-.28-.075-7.386-2.545-17.112-.263-10.316 2.421-15.459-3.275-25.551.569-6.785 2.584-14.181 13.82-23.778 3.702-8.685-9.157-11.128-21.784-15.804-17.525-5.738 5.226 12.164 29.429 13.381 38.638l.001.002c.536 4.777 1.98 12.085 3.593 17.712 5.815 20.287 30.964 29.831 32.201 29.831.77 0 2.833-2.062 3.138-3.188l.007-.022c.077 1.546 8.458 8.754 10.435 8.754.908 0 4.809-3.432 5.006-3.66 1.756 2.761 7.297 7.082 8.617 7.082 1.096 0 4.558-3.68 5.867-5.771 1.308 2.091 4.771 5.771 5.866 5.771 1.319 0 6.861-4.321 8.617-7.082.198.229 4.098 3.66 5.006 3.66 1.977 0 10.358-7.208 10.435-8.754l.007.022c.305 1.125 2.368 3.188 3.138 3.188 1.236 0 26.386-9.544 32.201-29.831 1.613-5.626 3.057-12.935 3.593-17.712l.001-.002c1.217-9.209 19.118-33.412 13.38-38.638m-39.582 35.466c-2.298 5.106-6.237 9.752-23.073 15.984-9.423 1.404-17.096 1.994-19.591 1.994s-10.168-.59-19.591-1.994c-16.836-6.232-20.775-10.879-23.073-15.984-1.281-2.848-.624-7.482 3.321-10.977 2.044-1.81 5.929-3.026 18.184-2.347 10.467.58 13.095-4.529 17.357-2.986 1.705.617 2.95.413 3.802-.183.852.596 2.097.8 3.802.183 4.262-1.543 6.89 3.566 17.357 2.986 12.255-.679 16.14.537 18.184 2.347 3.946 3.494 4.603 8.129 3.321 10.977" style="fill:#122a89"/></svg>