<svg xmlns="http://www.w3.org/2000/svg" xml:space="preserve" viewBox="0 0 215 220"><path d="M160.81 92.558c-2.963-8.881-7.099-16.557-13.567-19.353-9.622-4.159-14.524 2.002-24.359-.616-7.47-1.989-13.253-.654-15.384-.013-2.131-.642-7.913-1.976-15.384.013-9.835 2.619-14.738-3.543-24.359.616-6.468 2.796-10.604 10.473-13.567 19.353-3.641 10.912-1.911 22.602 1.291 29.939l.01.018c.114.352.219.687.345 1.064 7.362 21.948 15.092 27.182 16.658 27.182.975 0 7.176-2.231 7.562-3.449l.009-.023c.097 1.672 4.429 9.47 6.932 9.47 1.15 0 6.088-3.713 6.339-3.96 2.224 2.987 5.651 7.662 7.321 7.662 1.239 0 4.896-3.195 6.845-5.491 1.948 2.295 5.605 5.491 6.845 5.491 1.67 0 5.098-4.674 7.321-7.662.251.247 5.189 3.96 6.339 3.96 2.503 0 6.834-7.798 6.932-9.47l.009.023c.386 1.218 6.587 3.449 7.562 3.449 1.566 0 9.295-5.234 16.658-27.182.126-.377.232-.712.345-1.064.001-.003.009-.014.01-.018 3.198-7.336 4.928-19.026 1.287-29.939m-19.23 10.129c-3.752 4.21-17.319 11.925-34.08 12.622-16.761-.698-30.328-8.412-34.08-12.622-4.259-4.778-4.507-10.371-2.154-14.972 1.307-2.554 5.309-6.245 16.993-5.51 9.979.628 12.484-4.9 16.547-3.23 1.09.448 1.977.488 2.694.28.717.208 1.605.167 2.694-.28 4.063-1.67 6.568 3.858 16.547 3.23 11.683-.735 15.686 2.956 16.993 5.51 2.353 4.601 2.105 10.194-2.154 14.972" style="fill:#122a89"/></svg>