<svg xmlns="http://www.w3.org/2000/svg" xml:space="preserve" viewBox="0 0 215 220"><path d="M182.855 68.054c-15.16 13.575-9.935 23.575-23.721 31.97-.934.569-2.337 1.409-3.988 2.461a34 34 0 0 0-2.518-3.893c-6.46-8.537-18.211-15.129-28.927-15.129-13.252 0-15.813-3.055-16.201-2.95-.388-.104-2.949 2.95-16.201 2.95-10.717 0-22.468 6.593-28.927 15.129a34 34 0 0 0-2.518 3.893c-1.651-1.052-3.053-1.892-3.988-2.461-13.786-8.395-8.561-18.395-23.721-31.97-1.779-1.592-19.488 32.118-1.225 52.477 2.309 2.574 7.955 9.972 9.867 9.957 3.499-.027 2.582-9.155 3.007-6.963 4.219 21.774 18.274 30.756 19.787 30.756.685 0 .822-4.261.847-6.599.261.25.519.488.762.68 1.96 4.527 7.798 14.771 18.035 21.532.928.612 5.379-9.18 5.621-9.391 2.15 2.545 8.65 11.006 18.653 13.499 10.003-2.493 16.503-10.953 18.653-13.499.242.211 4.693 10.004 5.621 9.391 10.237-6.761 16.075-17.005 18.035-21.532.243-.192.501-.43.762-.68.025 2.338.162 6.599.847 6.599 1.514 0 15.569-8.982 19.787-30.756.425-2.192-.492 6.936 3.007 6.963 1.912.015 7.558-7.383 9.867-9.957 18.265-20.359.556-54.069-1.223-52.477m-41.617 45.623c-2.699 3.007-4.77 6.3-5.368 9.702-.426 2.427-10.133-7.755-28.37-7.755s-27.944 10.181-28.37 7.755c-.598-3.402-2.669-6.695-5.368-9.702-.063-.84-.042-1.321.156-1.158 1.73 1.43 5.994 3.474 5.587.972-.621-3.813-1.391-14.471-.621-13.565 1.06 1.247 7.382 11.013 7.803 6.116.372-4.332 3.274-10.669 6.127-13.284 0 0 1.837 4.034 4.424 7.168.955 1.157 6.076-10.353 6.758-9.468 1.552 2.009 2.683 2.571 3.504 2.305.821.266 1.953-.296 3.504-2.305.683-.884 5.803 10.625 6.758 9.468 2.587-3.134 4.424-7.168 4.424-7.168 2.854 2.615 5.755 8.952 6.127 13.284.421 4.897 6.743-4.869 7.803-6.116.77-.906 0 9.752-.621 13.565-.407 2.502 3.857.458 5.587-.972.198-.163.219.318.156 1.158" style="fill:#122a89"/></svg>