<svg xmlns="http://www.w3.org/2000/svg" xml:space="preserve" viewBox="0 0 215 220"><path d="M82.71 133.812c.188-2.926.979-5.771 1.861-8.554.173-.545-.32-1.182-.726-1.45-.569-.376-1.453-.491-2.111-.415-1.522.174-2.987.899-3.468 2.42-.91 2.872-1.723 5.812-1.877 8.836-.034.662-.021 1.32.006 1.976-1.648-4.801-1.103-10.132.063-14.985.274-1.142-1.961-.847-2.536-.742-.812.148-1.645.365-2.377.753-.399.212-1.147.547-1.262 1.029-1.305 5.432-1.977 11.554.302 16.824.435 1.005 2.661.455 3.411.241.353-.1 1.916-.575 2.574-1.192a23 23 0 0 0 1.266 5.129c.522 1.393 2.416 1.525 3.656 1.155 1.004-.3 3.125-1.399 2.589-2.828-.99-2.638-1.553-5.375-1.371-8.197m5.969-6.619c-.823.128-1.646.365-2.367.789-.414.244-1.163.71-1.205 1.241-.47 5.956-.336 11.939-.807 17.895-.104 1.316 1.733 1.323 2.654 1.18.823-.128 1.645-.365 2.367-.789.414-.244 1.163-.71 1.205-1.242.471-5.956.337-11.939.807-17.895.103-1.315-1.733-1.322-2.654-1.179m15.889 3.981c-.823.128-1.645.365-2.367.789-.414.244-1.163.71-1.205 1.242-.47 5.956-.336 11.939-.807 17.895-.104 1.316 1.733 1.323 2.654 1.18.823-.128 1.645-.365 2.367-.789.414-.244 1.163-.711 1.205-1.242.47-5.956.336-11.939.807-17.895.104-1.317-1.733-1.324-2.654-1.18m-11.888.799v20.13c0 .805 6.245-.014 6.245-1.673V130.3c0-.806-6.245.014-6.245 1.673m44.024-7.274c-.449-1.416-2.471-1.509-3.656-1.155-1.068.319-3.051 1.369-2.589 2.828.864 2.727 1.679 5.543 1.851 8.413.158 2.628-.311 5.319-1.234 7.778-1.216 3.243 5.024 2.984 5.931.565 1.137-3.032 1.76-6.07 1.589-9.314-.164-3.132-.948-6.137-1.892-9.115" style="fill:#122a89"/><path d="M128.717 127.193c-.723-.135-1.624-.03-2.32.171-1.001.29-2.842.95-2.738 2.271.471 5.956.337 11.939.807 17.895.037.475.863.709 1.186.769.723.135 1.624.03 2.32-.171 1.001-.29 2.843-.95 2.738-2.271-.47-5.956-.336-11.939-.807-17.895-.037-.475-.863-.709-1.186-.769m-15.889 3.98c-.723-.135-1.624-.03-2.32.172-1.001.29-2.843.949-2.738 2.271.47 5.956.336 11.939.807 17.895.037.475.863.709 1.186.769.723.135 1.624.03 2.32-.172 1.001-.29 2.843-.95 2.738-2.271-.471-5.956-.337-11.939-.807-17.895-.038-.475-.863-.708-1.186-.769m3.248.8v20.13c0 .805 6.245-.014 6.245-1.673V130.3c-.001-.806-6.245.014-6.245 1.673m25.266-10.892c-.736.209-1.491.467-2.123.907-.301.209-.814.574-.71 1.007 1.263 5.258 1.903 11.092-.302 16.191-.476 1.102 2.113.819 2.536.742.812-.148 1.645-.365 2.377-.753.454-.24 1.047-.531 1.262-1.029 2.278-5.269 1.677-11.388.372-16.824-.247-1.025-2.799-.415-3.412-.241m-73.07-3.707c.274-1.142-1.961-.847-2.536-.742-.812.148-1.645.365-2.377.753-.399.212-1.147.547-1.262 1.029-1.176 4.898-1.786 10.421.269 15.173.435 1.006 2.661.455 3.411.242.736-.209 1.491-.467 2.123-.907.258-.18.879-.616.71-1.007-1.98-4.58-1.473-9.815-.338-14.541" style="fill:#122a89"/><path d="M152.938 117.057c-.098-.409-.828-.492-1.119-.517-.734-.064-1.593.077-2.292.276-.736.209-1.491.467-2.123.907-.301.21-.814.574-.71 1.007 1.134 4.723 1.712 9.959-.269 14.541-.476 1.102 2.113.819 2.536.742.812-.148 1.645-.365 2.377-.753.453-.24 1.047-.531 1.262-1.029 2.054-4.751 1.516-10.272.338-15.174m-25.883-40.065a35 35 0 0 0 .242-2.341l-.127 2.089-.047.77c-.091 1.489 1.609 2.006 2.837 1.865.82-.094 1.69-.333 2.352-.846.486-.376 1.076-.914 1.116-1.574l.326-5.348.047-.77c.091-1.489-1.609-2.006-2.837-1.865-.82.094-1.69.333-2.352.846-.464.359-1.009.869-1.094 1.489.052-.782.08-1.567.191-2.344.188-1.318-1.798-1.313-2.654-1.18-.814.127-1.663.351-2.367.789-.433.269-1.126.687-1.205 1.242-.38 2.664-.274 5.366-.654 8.029-.188 1.318 1.798 1.313 2.654 1.18.814-.127 1.663-.351 2.367-.789.432-.27 1.126-.687 1.205-1.242m-19.096-.935c-.187 1.318 1.796 1.313 2.653 1.18.814-.127 1.663-.351 2.367-.789.432-.269 1.127-.687 1.205-1.241.314-2.221.209-4.579-.162-6.792-.081-.482-.818-.7-1.186-.769-.723-.135-1.624-.03-2.32.171-.729.212-1.526.492-2.095 1.012-.364.333-.734.719-.643 1.259.235 1.403.326 2.843.312 4.266a16 16 0 0 1-.131 1.703m12.21.32c.308-.194.754-.426.754-.844V68.15c0-.342-.978-.353-1.075-.354-.741-.013-1.568.145-2.274.344-.728.205-1.497.434-2.141.84-.309.194-.754.426-.754.844v7.383c0 .342.978.353 1.075.354.741.013 1.568-.145 2.274-.343.728-.206 1.496-.436 2.141-.841m14.363 2.891c-.175.41.211.642.537.746.584.187 1.42.101 1.999-.004.812-.148 1.645-.365 2.377-.753.452-.24 1.05-.531 1.262-1.029.538-1.261.538-2.739.305-4.071a10 10 0 0 0-.543-2.003c-.165-.41-.755-.486-1.119-.517-.733-.064-1.593.077-2.292.276-.727.207-1.509.454-2.123.907-.261.193-.872.602-.71 1.007a9.34 9.34 0 0 1 .643 4.132c-.064.448-.157.89-.336 1.309m-32.54-1.206c.723.135 1.624.03 2.32-.171.729-.212 1.526-.492 2.095-1.012.371-.339.72-.714.643-1.259-.123-.874-.146-1.755-.135-2.636.035-1.113.112-2.234.297-3.333.221-1.318-1.823-1.309-2.654-1.18-.814.126-1.663.351-2.367.789-.44.274-1.111.682-1.205 1.242a24 24 0 0 0-.246 2.155c-.116 1.537-.15 3.106.066 4.636.068.48.831.703 1.186.769m-1.67-9.913c0-.342-.978-.353-1.075-.354-.741-.013-1.568.145-2.274.344-.728.205-1.497.434-2.141.84-.308.194-.754.426-.754.844v5.496c-.212-2.254-.231-4.522-.551-6.767-.068-.48-.831-.703-1.186-.769-.723-.135-1.624-.03-2.32.171-.729.212-1.526.492-2.095 1.012-.296.271-.52.59-.581.976-.248-.403-.818-.713-1.161-.826-.711-.234-1.656-.203-2.364.009-.742.221-1.546.563-2.051 1.175l-.38.534a1.53 1.53 0 0 0-.157 1.119l.326 5.348.047.77c.035.566.858 1.02 1.292 1.163.711.234 1.656.203 2.364-.008.742-.222 1.546-.564 2.052-1.175l.38-.534c.079-.143.117-.291.15-.44.038.393.04.788.096 1.179.069.48.831.703 1.186.769.723.135 1.624.03 2.32-.171.729-.212 1.526-.492 2.095-1.012.246-.225.432-.488.54-.785v.151c0 .342.979.353 1.075.354.741.013 1.568-.145 2.274-.343.728-.205 1.497-.434 2.141-.84.309-.194.754-.426.754-.844zM75.377 80.101c.733.064 1.593-.077 2.292-.276.727-.207 1.509-.454 2.123-.907.256-.189.88-.609.71-1.007-.403-.944-.456-1.977-.363-2.989.107-.832.29-1.675.602-2.453.166-.413-.202-.639-.537-.746-.584-.187-1.42-.101-1.999.005-.812.148-1.645.365-2.377.753-.445.236-1.063.532-1.262 1.029a10 10 0 0 0-.543 2.003c-.234 1.345-.312 2.79.236 4.071.174.41.742.485 1.118.517" style="fill:#122a89"/></svg>