<svg xmlns="http://www.w3.org/2000/svg" xml:space="preserve" viewBox="0 0 215 220"><path d="m180.993 110.051-17.754-11.992c5.506.156 10.933-2.703 13.705-7.537.236-.412-.154-.993-.602-1.024l-16.263-1.117c4.054-2.343 7.251-6.017 8.89-10.384.25-.665-.38-1.144-1.002-.968l-11.95 3.381c1.471-1.278 5.336-5.557 6.294-7.289.287-.519-.282-1.09-.805-1.022-5.973.778-11.341 3.999-21.611 1.451-2.597-.644-6.435-.846-10.257-.837l-.02-.005c3.575-1.004 6.482-1.417 7.576-1.692 5.897-1.481 3.627-2.099.184-2.396-1.731-.149-15.013-1.303-23.43 1.533 0 0-2.666.983-6.341 3.193l-.077.011c-10.083-5.435-21.378-5.732-21.378-5.732-4.757-.169-10.731 1.578-12.445 1.869-12.219 2.071-4.835 2.635-2.371 2.908 1.308.145 4.001.051 7.53.628-15.241 1.805-30.845 11.449-37.699 13.013-.801.183-.802 1.251.087 1.342 5.99.61 12.045-.2 17.385-2.276-5.697 5.706-13.869 9.775-22.934 11.408-.88.158-.726 1.196.087 1.342 5.152.919 10.529.678 15.459-.699-3.977 6.01-11.225 10.476-19.703 12.026-.821.15-.785 1.273.087 1.342a49 49 0 0 0 13.725-.87c-1.767 1.936-2.69 3.415-2.69 3.415-1.081 1.661-3.445 6.656-3.79 8.803-.756 4.695-.38 4.917.704 3.144 1.656-2.711 8.324-6.774 12.741-9.498a36 36 0 0 0-1.203 1.987c-2.31 4.162-3.811 10.207-3.985 11.937-.38 3.78.153 5.505 1.515 3.432.879-1.337 2.363-4.65 5.487-8.335.252 2.129.564 4.218.925 6.205-2.613 3.395-4.795 5.551-5.634 6.831-1.135 1.731 2.333 1.242 6.818-1.379.981 3.814 2.133 6.807 3.316 8.235.952 1.149-.078 9.595 2.506 6.605 0-3.793.56-8.308 1.606-11.588.346-1.085.745-2.036 1.195-2.779 2.098-3.467 2.19-7.554 2.885-11.539 2.114-3.113 4.137-6.761 6.632-11.301.076 3.596-3.317 14.631-3.241 18.227.022 1.034 1.584 1.195 1.934.239 3.596-9.842 11.479-18.217 21.515-23.025-5.885 6.679-9.411 14.958-9.932 23.561-.054.889 1.384 1.227 1.835.454 7.396-12.678 10.839-15.984 17.04-20.908 2.773-2.202 5.826-3.895 8.359-5.11a23 23 0 0 0 3.28 2.155c10.652 5.851 13.976 14.131 15.503 16.455 1.362 2.072 1.894.348 1.515-3.432-.174-1.729-1.675-7.774-3.985-11.937 0 0-1.298-2.385-3.721-5.579 10.052 8.579 10.984 20.215 16.876 26.135.523.525 1.116-.155 1.157-.895.13-2.306-.977-10.354-1.966-15.827.324.571.656 1.133.931 1.762 4.186 9.573 2.316 12.918 7.665 22.015 2.33 3.962 2.348 8.389 2.967 11.327.246 1.167.584 2.107 1.205 2.678 2.009 1.85 2.584-6.507 5.232-12.235 1.514-3.274 2.352-7.426 2.819-11.479 2.884 2.04 6.266 4.758 7.868 6.549.419.469 1.133-.356.989-.99-1.308-5.754-3.333-7.357-7.323-14.385 6.408 4.577 9.547 3.4 15.323 3.436.706.005 1.559-.732.888-1.156-9.018-5.694-10.734-11.337-16.1-17.006a52.6 52.6 0 0 0 17.414 6.531c.742.133 1.172-.927.558-1.342" style="fill:#122a89"/></svg>