<svg xmlns="http://www.w3.org/2000/svg" xml:space="preserve" viewBox="0 0 215 220"><path d="M178.201 154.256c-3.41-15.689-7.889-24.844-11.27-44.028 1.252-1.929 2.179-3.892 2.223-6.357.162-9.135-4.104-27.636-13.384-38.775a55.7 55.7 0 0 0-15.42-12.863c-2.173-1.223-10.939-5.275-23.883-6.021-3.686 0-6.422.312-8.489.833-2.066-.521-4.803-.833-8.489-.833-12.944.746-21.709 4.798-23.883 6.021a55.7 55.7 0 0 0-15.42 12.863c-9.28 11.139-13.547 29.64-13.384 38.775.044 2.464.971 4.428 2.223 6.357-3.381 19.183-7.861 28.339-11.27 44.028-1.276 5.873 7.598 14.29 26.84 18.2 3.149.64 6.218 1.16 8.937 1.33-3.764-5.096-6.332-10.849-7.795-20.067-2.187-13.78-1.984-21.76-1.994-32.117 1.496-.639 2.677-1.279 2.947-1.544.931-.915 2.741-8.992 2.741-8.992s32.572 2.404 34.255-.915c1.378-2.718 2.875-7.75 4.293-13.555 1.418 5.805 2.914 10.836 4.292 13.555 1.683 3.319 34.255.915 34.255.915s1.81 8.077 2.741 8.992c.27.265 1.451.905 2.947 1.544-.01 10.357.193 18.337-1.994 32.117-1.463 9.218-4.032 14.972-7.795 20.067 2.719-.17 5.788-.69 8.937-1.33 19.241-3.909 28.115-12.327 26.839-18.2" style="fill:#122a89"/></svg>