<svg xmlns="http://www.w3.org/2000/svg" xml:space="preserve" viewBox="0 0 215 220"><path d="M178.024 181.72c-7.258-3.046-8.233-10.064-7.246-15.995 1.211-7.276 3.956-10.307 6.659-17.95 4.74-13.401 3.144-27.445-1.622-33.992-3.206-4.403-10.786-9.836-19.096-11.506 3.374-7.197 5.183-15.868 4.647-25.351-.58-10.251-2.613-18.49-7.623-26.714-5.707-9.369-10.343-12.097-16.798-16.521-3.9-2.673-20.936-11.347-34.478-5.908-5.912-.554-13.688 1.551-16.934 3.145-16.45 8.078-25.638 20.613-29.191 33.508-1.603 5.818-3.323 18.291.489 28.913.891 2.484 2.083 5.692 3.38 8.74-8.689 1.421-16.74 7.121-20.071 11.696-4.766 6.547-6.362 20.591-1.622 33.992 2.704 7.644 5.448 10.675 6.659 17.95.988 5.931.012 12.95-7.246 15.995-2.058.864-.353 2.039 1.765 2.217 2.926.246 8.727-.696 11.97-2.164 6.496-2.941 10.506-6.876 12.318-12.008 2.242-6.35 2.067-13.968-1.346-22.382-2.746-6.769-6.202-15.167-3.808-22.42 1.035-3.137 2.651-5.622 5.618-7.934-.55-5.651-.676-10.399-.701-15.262-.107.002-.214.011-.321.014-.253-4.348-.425-9.701.32-14.434.113-.721.241-1.433.4-2.119 2.076-8.936 6.616-15.384 13.988-25.326 5.734-7.733 10.921-10.99 16.321-12.744 2.576 5.477 6.144 10.893 12.26 16.676 9.065 8.571 20.741 14.985 32.528 23.609 13.259 9.702 10.468 24.751 12.77 22.6-.105 2.21-.266 4.514-.507 6.986 2.967 2.312 4.583 4.798 5.618 7.934 2.394 7.253-1.062 15.651-3.808 22.42-3.413 8.415-3.588 16.033-1.346 22.382 1.812 5.132 5.823 9.067 12.318 12.008 3.243 1.468 9.044 2.411 11.97 2.164 2.119-.18 3.823-1.355 1.766-2.219" style="fill:#122a89"/></svg>