<svg xmlns="http://www.w3.org/2000/svg" xml:space="preserve" viewBox="0 0 215 220"><path d="M168.62 138.526c-1.691-10.72 2.708-25.585-4.91-37.185-7.771-11.831-3.955-17.692-17.635-27.99-6.573-4.948-13.993-4.772-19.191-8.237-7.195-4.796-30.994-11.313-43.698 3.467-.01.011-.019.028-.029.04-4.812.192-10.533 2.296-13.968 5.011-12.555 9.926-11.65 22.948-18.699 34.54-6.911 11.365-1.95 19.795-3.372 30.425-2.121 15.85 3.055 24.825 3.326 21.098.766-10.5 5.787-19.418 5.787-19.418.885 9.363-1.225 18.245-.2 17.826.891-.365 1.67-2.453 3.402-5.858 3.627-7.133 4.217-19.826 4.217-19.826s.022.757.077 1.973c.17 3.713.659 11.747 1.833 15.916.497 1.766 1.53 4.661 2.844 4.346 1.119-.268-2.691-8.108 2.484-25.004 4.415-14.416 7.496-18.457 14.809-26.724a57 57 0 0 0 2.146-2.585c.052.349.136.641.283.811 8.602 10.022 18.583 16.015 29.766 19.817 9.03 3.069 20.906 8.092 20.708 25.372-.027 2.336.867 2.045 1.879.338 1.226-2.067 1.975-5.947 2.002-8.289.087-7.572-1.688-13.242-4.502-17.526 2.177 2.382 3.855 5.035 4.884 8.056 5.829 17.113 1.838 24.893 3.049 25.191 1.421.35 2.491-2.532 3.001-4.294 1.598-5.522 1.794-17.928 1.794-17.928s.317 4.877 1.505 10.315c.735 3.364 1.801 6.942 3.336 9.718 1.917 3.467 2.787 5.585 3.754 5.975 1.111.448-1.296-8.532-.481-17.919 0 0 5.545 9.092 6.527 19.663.348 3.753 5.793-5.132 3.272-21.115" style="fill:#122a89"/></svg>