<svg xmlns="http://www.w3.org/2000/svg" xml:space="preserve" viewBox="0 0 215 220"><path d="M176.879 148.072c-.727-2.635-2.397-5.242-3.972-7.026 1.013-2.628 2.455-4.616 3.885-8.175 3.415-8.5 2.194-15.641-1.241-19.793-.678-.819-1.665-1.729-2.76-2.565 1.017-2.784 2.515-4.786 4-8.482 3.415-8.5 1.243-16.741-1.169-21.56-2.503-5-7.353-11.179-15.525-11.61-1.167-5.809-3.145-11.092-6.355-16.363-5.707-9.369-10.343-12.097-16.798-16.521-3.9-2.674-20.936-11.347-34.478-5.908-5.912-.554-13.688 1.551-16.934 3.145-16.45 8.078-25.638 20.613-29.191 33.508a42 42 0 0 0-.521 2.144c-8.15.448-12.991 6.614-15.49 11.607-2.412 4.819-4.584 13.06-1.169 21.56 1.485 3.696 2.983 5.698 4 8.482-1.095.836-2.082 1.746-2.76 2.565-3.434 4.153-4.656 11.293-1.241 19.793 1.43 3.559 2.872 5.547 3.885 8.175-1.575 1.784-3.245 4.391-3.972 7.026-3.993 14.474 4.012 17.428 4.885 22.043.712 3.762.009 8.214-5.221 10.146-1.483.548-.254 1.293 1.272 1.406 2.108.156 6.288-.442 8.625-1.373 4.68-1.865 7.57-4.361 8.876-7.616 1.616-4.028 1.536-8.973-1.468-13.2-1.196-1.683-3.468-3.639-5.45-5.785 3.656-1.345 6.461-2.309 10.035-6.905 3.566-4.585 2.467-11.886-.855-16.788-2.647-3.906-7.014-6.462-9.55-9.118 4.203-1.647 7.234-2.743 9.899-6.811.942-1.438 1.602-3.37 2.02-5.513.539 1.062 1.081 2.051 1.614 2.867.197-3.329-1.314-13.524-.013-21.793.113-.721.241-1.433.4-2.119 2.076-8.936 6.616-15.384 13.988-25.326 5.734-7.733 10.921-10.99 16.321-12.744 2.576 5.477 6.144 10.893 12.26 16.676 9.065 8.571 20.741 14.985 32.528 23.609 13.259 9.702 10.468 24.751 12.77 22.6.11-.103.227-.231.362-.414a41 41 0 0 0 1.642-2.42c.422 1.762 1.011 3.353 1.812 4.577 2.665 4.068 5.696 5.164 9.899 6.811-2.535 2.656-6.903 5.213-9.55 9.118-3.322 4.901-4.42 12.203-.855 16.788 3.574 4.596 6.379 5.561 10.035 6.905-1.982 2.146-4.254 4.103-5.45 5.785-3.004 4.228-3.083 9.173-1.468 13.2 1.306 3.255 4.196 5.751 8.876 7.616 2.337.931 6.517 1.529 8.625 1.373 1.526-.113 2.755-.859 1.272-1.406-5.23-1.932-5.932-6.383-5.221-10.146.879-4.617 8.884-7.572 4.891-22.045" style="fill:#122a89"/></svg>