<svg xmlns="http://www.w3.org/2000/svg" xml:space="preserve" viewBox="0 0 215 220"><path d="M172.409 166.523c4.319-8.371-3.871-16.677-.282-24.46 9.049-19.626-4.42-29.72-2.781-43.348 2.781-23.126-6.647-40.32-12.854-48.527-16.921-22.372-35.936-25.457-48.057-22.23-.161.043-.307.113-.457.176-.15-.063-.297-.134-.457-.176-12.12-3.227-31.136-.142-48.057 22.23-6.208 8.207-15.635 25.402-12.854 48.527 1.639 13.628-11.831 23.723-2.781 43.348 3.589 7.783-4.601 16.089-.281 24.46 5.628 10.907-5.125 18.212-1.487 19.178 24.134 6.411 38.991-10.139 35.772-25.124a93 93 0 0 0-1.418-5.671c-2.201-7.844-4.153-11.983-.821-16.479 8.755-11.813-12.554-42.174.109-60.778 7.978-11.721 16.134-23.428 31.979-19.684a.45.45 0 0 0 .297-.046.45.45 0 0 0 .297.046c15.845-3.745 24.001 7.963 31.979 19.684 12.662 18.603-8.646 48.964.109 60.778 3.332 4.496 1.38 8.635-.821 16.479a93 93 0 0 0-1.418 5.671c-3.219 14.984 11.638 31.535 35.772 25.124 3.637-.966-7.116-8.271-1.488-19.178" style="fill:#122a89"/></svg>