<svg xmlns="http://www.w3.org/2000/svg" xml:space="preserve" viewBox="0 0 215 220"><path d="M157.341 85.533c-9.532-12.658-16.995-16.574-24.349-18.154-8.657-1.86-15.804-3.429-25.025-.641-9.221-2.789-16.369-1.219-25.025.641-7.354 1.58-14.817 5.496-24.349 18.154-5.756 7.644-17.545 32.352-10.71 49.36 2.958 7.36 9.204.761 11.937 6.748 4.842 10.602.881 15.312 3.871 12.186.04-.042.081-.106.121-.153 2.798-3.209 5.73-16.236 5.73-16.236-.131.56.81 2.98 1.537 3.951 1.701 2.274 3.04 2.732 5.131 2.995 1.738.218-5.341-9.074 12.835-14.187-.809 2.959-2.241 6.126-4.294 9.091-1.671 2.413-2.121 4.404 4.573.673 5.19-2.892 6.207-4.589 8.502-9.808.346.66.712 1.28 1.104 1.84 3.314 4.729 4.64 6.198 10.454 8.034 7.468 2.358 6.647.489 4.511-1.557-5.25-5.028-8.167-11.325-7.922-15.678 1.571 4.251 3.543 7.837 5.864 10.133 4.121 4.078 5.703 5.29 11.916 6.044.64.078 1.201.132 1.727.177a21 21 0 0 1-.829 2.619c-.883 2.233-.714 3.743 4.622-1.177 3.538-3.262 4.389-4.852 4.959-7.965.014.022.03.039.044.061 5.98 9.348 6.635 9.554 8.91 11.278 1.68 1.273.519-.849 1.354-4.191.668-2.675 1.854-2.331 1.854-2.331s2.932 13.027 5.73 16.236c.04.046.081.11.121.153 2.99 3.126-.97-1.583 3.871-12.186 2.734-5.986 8.481.612 11.439-6.748 6.832-17.01-4.458-41.718-10.214-49.362m-39.35 39.001c2.108 1.151 4.329 2.271 5.901 3.792 1.456 1.409 2.217 3.862 2.155 6.791-4.13-3.214-6.982-7.134-8.056-10.583" style="fill:#122a89"/></svg>