<svg xmlns="http://www.w3.org/2000/svg" xml:space="preserve" viewBox="0 0 215 220"><path d="M175.235 83.485c.116-9.655 3.544-19.179-.314-29.372-7.231-19.103-28.646-23.635-37.955-22.638-5.216.559-11.062 1.684-13.831 4.577-6.284-1.677-13.601-2.337-20.118.284l-.009.003c-5.909-.545-13.668 1.556-16.909 3.148-16.45 8.078-25.638 20.613-29.191 33.507-1.603 5.818-3.323 18.291.489 28.913 1.46 4.067 3.716 10.093 5.944 14.136l-.074 2.02c-.423 11.51-.852 23.046.416 34.054 1.025 8.897 3.032 15.99 5.494 20.702.804 1.539 2.047 3.254 3.026 2.788.709-.337 1.067-1.529.296-3.004-2.717-5.201-4.605-14.108-5.136-24.524-.115-2.246-.169-4.971-.184-7.983-.046-9.624.331-22.278.585-32.409.486 5.506 1.126 11.226 1.618 17.17.156 1.888 2.235 1.767 3.079-7.32.311-3.353.668-6.682 1.08-9.982.198-.3.397-.611.601-.951 6.986-11.677 11.246-29.22 17.758-48.112a41 41 0 0 1 2.235-.8c-5.488 16.82-9.907 39.103-16.587 45.327-1.342 1.251 1.184 1.77 4.208-3.005 6.514-10.285 9.632-26.474 16.069-43.385q.901-.228 1.761-.433c-3.817 14.282-6.782 31.137-12.505 36.518-1.257 1.182 1.296 1.442 4.001-2.913 5.269-8.482 7.449-20.927 11.751-34.398 2.332-.608 4.22-1.269 5.356-2.405 2.727 1.803 4.776 2.855 6.416 3.538 4.068 13.033 6.278 25.022 11.398 33.264 2.706 4.355 5.258 4.095 4.001 2.913-5.53-5.199-8.485-21.111-12.121-35.063.736.204 1.38.378 1.997.612 6.029 16.315 9.144 31.797 15.448 41.751 3.024 4.775 5.551 4.256 4.208 3.005-6.309-5.878-10.602-26.077-15.682-42.473.801.495 1.67 1.039 2.581 1.629 5.831 17.475 9.977 33.515 16.508 44.43.204.34.403.651.601.951.412 3.299.769 6.628 1.08 9.982.844 9.087 2.923 9.208 3.079 7.32.492-5.944 1.132-11.664 1.618-17.17.254 10.131.632 22.784.585 32.408-.624 2.72-1.378 5.096-2.259 7.251-.127 3.17.331 6.083 1.399 8.445-.887 7.045-2.444 12.952-4.461 16.812-.77 1.475-.412 2.666.296 3.004.979.466 2.222-1.249 3.026-2.788 1.698-3.25 3.17-7.656 4.263-12.983 4.761 3.934 7.46 8.712 8.745 16.994 1.594 10.277-4.961 8.381-1.316 11.357 1.738 1.419 7.951-.555 10.793-3.908 7.286-8.595-1.285-16.903 2.106-22.558 8.324-13.879.298-21.627 5.041-28.908 14.61-22.429-2.485-34.311-2.304-49.328m-100.99 18.907c2.089-14.005 5.614-27.268 12.655-38.787-4.197 14.154-8.221 29.15-12.655 38.787m56.374-37.317q.376.279.75.565c6.252 11.036 9.503 23.563 11.471 36.752-4.281-9.304-8.18-23.602-12.221-37.317m8.737-21.574c10.201.116 14.922 3.417 18.255 9.984 3.937 7.756 3.457 13.09 2.261 18.253-1.209-4.508-2.989-8.745-5.564-12.974-5.147-8.449-9.428-11.5-14.952-15.263m15.975 83.914c-.409.499-.79 1.023-1.169 1.549a754 754 0 0 0-.343-10.899l-.039-1.071c3.205-4.685 5.619-10.344 6.987-16.648 2.229 8.95 2.621 17.244-5.436 27.069" style="fill:#122a89"/></svg>