<svg xmlns="http://www.w3.org/2000/svg" xml:space="preserve" viewBox="0 0 215 220"><path d="M164.788 95.756c-1.366-3.316-3.097-6.469-5.316-9.195-6.124-7.524-9.881-12.045-19.285-15.251-4.288-4.186-9.747-7.099-19.522-9.027-5.821-1.148-17.355-1.137-25.354 1.572-4.194 1.42-7.84 3.629-10.743 6.218-7.137-.793-15.455 2.446-20.369 5.423-6.421 3.891-9.511 7.197-13.913 13.709-3.248 4.805-5.376 13.216-5.544 18.788-2.851 6.79-3.855 12.761-3.999 19.441-.122 5.651 2.473 12.044 2.601 10.261.088-1.233.275-2.69.536-4.267.093 1.686.253 3.469.511 5.06.249 4.931.884 10.775 2.294 14.09 1.355 3.185 1.222-.756 1.278-5.166 4.047 6.514 9.992 11.434 10.746 10.192.557-.918-1.181-2.037-1.616-6.241-.174-1.682-.493-3.64.073-6.702.667 4.872 12.963 11.35 10.571 7.421-1.442-2.369-2.257-4.265-3.179-7.93-.567-2.256-.781-4.444-.767-6.584 1.232 2.852 3.153 4.94 5.704 5.31 4.598.667-1.454-.422-2.163-7.755-.406-4.194 1.668-9.994 2.891-12.72 2.813-6.269 6.807-12.784 14.568-17.696 7.759-4.911 12.665-1.85 14.404-2.497 1.974.692 11.327-3.267 20.112 2.061 10.975 6.657 13.242 12.513 16.358 19.431 1.355 3.008 3.635 9.417 3.109 14.08-.919 8.153-7.84 9.452-2.583 8.643 5.038-.775 8.025-7.194 8.469-13.868 1.072 4.022 1.505 7.098 1.626 9.742.189 4.138-1.575 9.446-.144 8.248 2.789-2.334 4.301-9.024 4.301-9.024.738 6.704 1.295 10.617 0 15.809-.698 2.798 3.015-.111 5.025-4.102 2.707-5.373 3.246-6.579 3.758-9.287.245 7.188-1.264 7.932-.772 9.794.486 1.835 6.709-2.606 9.249-13.007.143-.587.278-1.218.406-1.87.415 5.034.295 10.745 1.666 7.024 1.942-5.269 2.571-9.337 2.998-13.723.681-6.976 1.708-25.526-7.985-36.405" style="fill:#122a89"/></svg>