<svg xmlns="http://www.w3.org/2000/svg" xml:space="preserve" viewBox="0 0 215 220"><path d="M167.451 90.272c.261-.758.563-1.912.917-3.591 1.139-5.408.786-10.236-.863-15.452-1.545-4.886-4.415-8.199-10.474-15.457a15 15 0 0 0-1.441-1.729c-2.335-2.403-8.956-9.632-13.244-14.117-7.285-7.621-21.032-9.737-28.532-7.657-14.67 4.069-14.552-1.679-27.555 1.284-7.566 1.724-9.903 5.927-14.425 10.863-2.752 3.004-7.304 6.062-11.47 9.628-.839.718-1.532 1.58-2.125 2.549-5.59 6.692-8.304 9.94-9.789 14.638-1.649 5.216-2.003 10.044-.863 15.452.354 1.679.657 2.833.917 3.591-2.723 8.073-3.641 10.836-3.146 15.139.562 4.887 1.831 8.547 5.441 11.516.087.071.16.127.244.195-.912 19.743 5.99 36.811 6.855 51.825.965 16.755 1.652 8.308 4.211 4.361 0 0 .987 5.149 3.133 9.05 2.46 4.471 6.108 7.645 5.879 5.381-.812-8.028.965-14.972 4.835-22.552.051-.1.091-.193.141-.292-5.187-5.992-8.588-12.079-10.362-23.256-.03-.192-.055-.369-.085-.559.115-.097.23-.183.34-.333a.47.47 0 0 0 .051-.426c-.791-2.136-.741-6.633-.494-10.704 3.38 4.332 3.384 3.316 2.976.889-.958-5.697.109-12.584.682-16.583.283.026.555.043.801.044 12.291.092 18.228-7.332 21.216-15.205l.115-.314c-.082 5.673 1.057 11.415 4.389 16.087.937 1.314 2.575 2.025 3.74 2.117.579.046 2.156-.163 1.192-1.515-4.874-6.835-4.378-16.45-2.535-24.212 1.158 8.837 4.828 18.349 13.448 21.14 1.484.48 3.458-.075 4.7-.834a4 4 0 0 0 .373-.268c3.121 3.59 7.482 4.94 13.277.982.959-.655 2.01-1.951 2.893-3.311 3.89 3.47 8.466 5.351 13.757 4.028l.04.298c.511 3.778 1.854 11.38.818 17.545-.406 2.415-.406 3.434 2.924-.823.25 6.229-.429 9.597.047 10.749-.061.404-.117.793-.183 1.208-1.774 11.178-5.174 17.264-10.361 23.256.05.099.09.192.141.292 3.871 7.58 5.648 14.523 4.835 22.552-.229 2.265 3.419-.91 5.879-5.381 2.146-3.9 3.133-9.05 3.133-9.05 2.56 3.948 3.247 12.395 4.211-4.361.864-15.014 7.767-32.081 6.855-51.825.083-.067.157-.123.244-.195 3.61-2.969 4.879-6.629 5.441-11.516.496-4.306-.421-7.069-3.144-15.141M50.285 85.456c.736-5.081 2.122-9.505 3.68-12.122-.746 4.163-1.752 8.374-3.68 12.122m33.58 7.207c-1.992 5.971-4.909 13.37-11.932 16.484 1.706-2.502 3.65-5.034 5.693-8.025 1.956-2.863 4.145-6.078 6.51-9.212-.088.253-.187.498-.271.753m20.498-8.836a177 177 0 0 1-.063-4.755c4.647 5.098 5.505 16.061 8.053 23.754.605 1.827 1.359 3.59 2.254 5.177-7.712-4.285-9.989-15.742-10.244-24.176m12.92 8.415c-.79-2.969-1.465-6.188-2.244-9.29.11.139.229.263.338.403 3.978 5.12 7.134 11.194 10.661 16.888 1.211 1.956 2.539 3.817 3.972 5.499-6.816 1.515-10.829-6.371-12.727-13.5m13.037-2.174c3.894 4.426 5.883 5.766 9.963 10.775a41 41 0 0 1 2.882 4.046c-5.342-2.66-9.536-9.126-12.845-14.821m33.806 19.096c-.074-.473-.182-.954-.267-1.43.219-.687.42-1.359.615-2.023a23.6 23.6 0 0 1-.348 3.453m-2.495-33.676a60 60 0 0 1-.69-3.615c.048.055.099.104.146.16 1.892 2.23 3.678 7.301 4.561 13.288-1.659-3.548-3.398-7.068-4.017-9.833" style="fill:#122a89"/></svg>