<svg xmlns="http://www.w3.org/2000/svg" xml:space="preserve" viewBox="0 0 215 220"><path d="M173.321 150.32c11.485-21.884-10.172-82.61-15.59-92.68-2.976-5.531-7.414-10.014-12.501-13.601 3.113-.567 6.702-1.115 8.274-.666 1.284.368 1.389.097-.919-1.805-.55-.454-1.7-1.032-2.85-1.529 3.692-1.867 5.782-4.355 5.782-4.355.84-.956 2.766-3.893 3.14-5.203.818-2.865.577-3.03-.272-2.004-1.685 2.034-9.243 4.889-11.519 6.025-.39.195-.751.383-1.096.569.881-3.555.384-7.782-2.382-10.091-4.451-3.716-11.163-4.294-14.383-2.587-2.661 1.41-4.917 3.107-6.572 5.026-.785-.38-1.57-.719-2.345-.964-4.298-1.36-6.551-1.642-11.993-1.642-5.388 0-7.237.138-11.992 1.642C91 28.069 85.436 32.868 82.778 37.331c-.051.086-.09.184-.138.274-9.788 3.961-19.261 10.455-24.416 20.035-5.418 10.069-27.074 70.796-15.59 92.68 19.818 37.761-7.346 40.137-2.105 40.953 33.722 5.251 53.781-6.81 49.766-21.759-3.874-2.613-7.698-5.884-11.253-9.613-6.027-6.321-10.105-11.792-12.428-21.919-.052-10.66.416-25.035.661-35.585 4.946-9.122 8.563-21.297 12.852-34.722 1.294-1.976 2.457-3.466 3.695-4.694-4.509 15.397-8.577 32.574-14.311 37.917-1.342 1.251 1.184 1.77 4.208-3.005 5.827-9.2 8.933-23.124 14.129-38.062l.031-.021c.546-.347 1.375-.597 2.404-.819-3.256 13.026-6.162 26.83-11.239 31.603-1.257 1.182 1.295 1.442 4.001-2.913 4.586-7.383 6.834-17.77 10.176-29.221 4.106-.682 9.671-1.633 14.756-4.821 5.023 3.165 10.616 4.112 14.754 4.806 3.344 11.457 5.592 21.851 10.181 29.237 2.706 4.355 5.258 4.095 4.001 2.913-5.078-4.774-7.984-18.582-11.241-31.61 1.025.225 1.854.478 2.405.826l.031.021c5.196 14.938 8.302 28.862 14.129 38.062 3.024 4.775 5.55 4.256 4.208 3.005-5.736-5.345-9.805-22.53-14.315-37.929 1.239 1.229 2.402 2.722 3.697 4.701 4.289 13.427 7.906 25.604 12.853 34.727.245 10.549.713 24.924.661 35.584-2.323 10.128-6.401 15.598-12.428 21.919-3.555 3.729-7.38 6.999-11.253 9.613-4.015 14.949 16.044 27.01 49.766 21.759 5.241-.816-21.923-3.193-2.105-40.953M67.373 97.596c.018-1.059.032-2.071.039-2.981.012-1.578.023-3.065.031-4.481.611-2.607 1.399-5.204 2.429-7.681.699-1.682 2.888-4.425 4.881-6.94-2.415 8.179-4.837 15.945-7.38 22.083m73.829-22.083c1.993 2.515 4.183 5.258 4.881 6.94 1.029 2.477 1.817 5.074 2.429 7.681.008 1.416.018 2.903.031 4.481.007.909.022 1.922.039 2.981-2.543-6.138-4.965-13.904-7.38-22.083" style="fill:#122a89"/></svg>