<svg xmlns="http://www.w3.org/2000/svg" xml:space="preserve" viewBox="0 0 215 220"><path d="M160.584 156.434c.174-10.424 10.82-43.203 7.201-64.485-2.427-14.266-4.66-22.199-9.671-30.425-5.707-9.37-14.213-16.848-20.668-21.273-3.375-2.313-16.953-8.347-29.325-6.411-12.403-1.987-26.056 4.091-29.441 6.411-6.455 4.425-14.96 11.903-20.668 21.273-5.01 8.226-7.244 16.158-9.671 30.425-3.62 21.282 7.027 54.061 7.201 64.485.407 24.376-18.714 22.409-15.963 24.756 3.574 3.05 14.102 6.723 21.776 4.856 10.163-2.473 12.614-6.831 14.349-13.622 1.129-4.418 1.612-8.811 1.689-13.173-5.921-6.495-9.736-12.63-11.653-24.711-1.632-10.283-1.932-17.332-1.983-24.55l.007.01c.054-.915.015-2.044-.018-3.331l.001-3.697c.056-1.614.208-3.376.577-5.267 2.057 2.023 8.483-.027 8.048-3.569-.498-4.059-.278-8.24.527-12.344q.686-.781 1.41-1.568c-.378 3.674-.408 7.51-.095 11.468.108 1.373 8.832-.12 8.658-2.32-.534-6.753-.204-13.522 1.552-19.602q.66-.69 1.323-1.398c-1.93 6.869-2.175 14.356-.934 21.209.338 1.866 9.061-.095 8.658-2.32-.919-5.073-1.005-11.128.017-16.995-.549 6.917.065 13.867 1.535 19.069.57 2.018 9.222-.324 8.658-2.32-1.558-5.51-2.223-13.262-1.439-20.714.178 7.616 1.456 15.369 2.989 22.141.659 2.911 9.345.719 8.658-2.32-1.576-6.963-2.887-14.793-2.971-22.451 2.048 7.809 3.4 15.704 3.75 23.998.2 4.737 8.975 3.588 8.8-.552-.298-7.054-1.241-13.868-2.699-20.586 2.981 7.032 4.39 14.682 3.47 22.209-.383 3.128 8.297 1.519 8.628-1.193.393-3.216.382-6.442.05-9.636.655.943 1.303 1.875 1.975 2.811.679 3.382.945 6.799.674 10.144-.218 2.686 3.758 2.855 6.413 1.634 8.175 20.581-3.623 43.128-3.264 66.589.068 4.415.563 8.861 1.705 13.334 1.735 6.791 4.186 11.149 14.349 13.622 7.674 1.867 18.202-1.806 21.776-4.856 2.753-2.346-16.368-.379-15.961-24.755" style="fill:#122a89"/></svg>