<svg xmlns="http://www.w3.org/2000/svg" xml:space="preserve" viewBox="0 0 215 220"><path d="M170.411 140.081c1.461-9.885 1.667-18.498-2.128-39.749-2.879-16.122-5.158-22.199-10.169-30.425-5.707-9.37-14.213-16.848-20.668-21.273-3.375-2.313-16.953-8.347-29.325-6.411-12.403-1.987-26.056 4.091-29.441 6.411-6.455 4.425-14.96 11.903-20.668 21.273-5.01 8.226-7.29 14.303-10.169 30.425-3.795 21.252-3.589 29.864-2.128 39.749 3.565 24.118-1.937 21.753-2.63 32.341-.181 2.763 8.135-.25 16.481 3.615 6.936 3.212 12.867 2.382 13.352.24.86-3.802 1.274-7.94 1.272-12.421-4.122-5.316-6.903-11.189-8.449-20.932-1.632-10.283-1.932-17.332-1.983-24.55l.007.01c.053-.898.015-1.989-.018-3.244l.001-3.948c.124-3.223.656-7.047 2.48-11.225.262-.599.56-1.191.875-1.78a74.7 74.7 0 0 0 .387 13.405c.132 1.121 5.265.096 5.093-1.365-.786-6.667-.726-13.566.442-20.194a123 123 0 0 1 3.366-3.631c-1.17 7.434-.924 15.158-.393 22.564.132 1.849 5.244.741 5.093-1.365-.644-8.989-.717-19.096 1.871-27.928 1.088-1.121 2.19-2.27 3.298-3.459.74-.795 1.427-1.521 2.092-2.215-.069.234-.141.462-.209.701C85 85.782 83.678 97.139 85.6 108.565c.292 1.734 5.411.526 5.093-1.365-1.745-10.374-.756-20.678 1.905-30.806.84-3.196 1.654-6.228 3.172-9.052a16 16 0 0 1 1.138-.677c-1.15 4.228-1.84 8.588-2.227 12.946-.755 8.508-.972 18.361 2.623 26.315.798 1.767 5.796.19 5.093-1.365-3.505-7.756-3.358-17.289-2.622-25.585.399-4.494 1.103-8.99 2.315-13.34.045-.162.1-.326.147-.488a19 19 0 0 1 1.18-.048c-.312 4.357-.079 8.846-.222 13.09-.307 9.142-.523 18.532 2.822 27.221.495 1.285 5.507-.289 5.093-1.365-3.242-8.421-3.166-17.563-2.849-26.436.136-3.812.186-7.627.299-11.44l.019-.63c.13.033.254.063.386.098 1.385 5.122 2.665 10.273 3.525 15.511 1.274 7.763 1.482 15.59 1.035 23.435-.128 2.246 5.005 1.307 5.112-.566.45-7.885.279-15.788-.952-23.599-.677-4.292-1.653-8.522-2.734-12.728.638.284 1.259.59 1.864.927a76.7 76.7 0 0 1 5.144 12.779c2.56 8.457 3.968 18.007 1.09 26.565-.36 1.072 4.576.498 5.033-.861 2.933-8.722 1.581-18.444-1.03-27.068a81 81 0 0 0-.862-2.631 84 84 0 0 1 4.01 5.058c2.638 7.959 3.936 16.547 3.202 24.907-.157 1.79 4.934.781 5.067-.732.369-4.2.284-8.609-.241-13.034a84 84 0 0 1 3.394 5.055c.275 3.622.274 7.213-.02 10.655-.04.465 3.964.144 4.894-.951 6.062 15.97-.422 26.131-2.745 38.127-1.211 6.253-1.798 11.94-1.817 17.156-.016 4.564.4 8.771 1.273 12.633.485 2.142 6.416 2.973 13.352-.24 8.346-3.865 16.662-.852 16.481-3.615-.692-10.587-6.194-8.222-2.629-32.34" style="fill:#122a89"/></svg>