<svg xmlns="http://www.w3.org/2000/svg" xml:space="preserve" viewBox="0 0 215 220"><path d="M163.444 164.924c-.092-2.665-1.012-4.978-2.329-6.307 1.614-1.674 2.643-4.647 2.526-8.037-.114-3.279-1.267-6.108-2.904-7.701 2.4-2.322 3.489-7.066 2.483-12.174-1.308-6.641-5.657-11.38-9.745-10.654a1356 1356 0 0 0-.263-7.541c5.513-8.12 8.764-19.073 8.067-31.389-.58-10.252-2.614-18.492-7.624-26.717-5.707-9.37-10.345-12.098-16.8-16.523-3.377-2.315-16.598-9.111-28.876-7.369-12.278-1.742-25.499 5.054-28.876 7.369-6.455 4.425-11.092 7.153-16.8 16.523-5.01 8.226-7.044 16.465-7.624 26.717-.697 12.316 2.554 23.269 8.067 31.389l-.043 1.192q-.117 3.176-.22 6.349c-4.088-.726-8.437 4.013-9.745 10.654-1.006 5.108.082 9.852 2.483 12.174-1.637 1.593-2.79 4.422-2.904 7.701-.117 3.39.912 6.363 2.526 8.037-1.317 1.328-2.237 3.642-2.329 6.307-.106 3.062.915 5.722 2.47 7.004-1.246 1.277-2.086 3.689-1.845 7.105.588 8.326 9.261 12.229 10.077 10.221.47-1.155-2.691-2.867-1.893-10.973.311-3.156-.568-5.42-1.912-6.562 1.418-1.292 2.428-3.677 2.525-6.468.086-2.484-.577-4.696-1.656-6.134 1.788-1.364 3.111-4.128 3.383-7.436 1.112 7.064 2.865 12.784 4.952 16.778.804 1.539 2.047 3.254 3.026 2.788.709-.337 1.067-1.529.296-3.004-2.717-5.201-4.605-14.108-5.136-24.524a165 165 0 0 1-.174-6.65q.099-.256.192-.519c-.067-.273-.138-.535-.202-.814-.046-9.624.331-22.278.585-32.409.486 5.506 1.126 11.226 1.618 17.17.156 1.888 2.235 1.767 3.079-7.32 1.856-19.986 5.061-39.226 15.154-55.05.274-.185.537-.371.83-.557 2.688-1.709 12.011-1.102 20.098-6.172 7.953 5.012 17.361 4.442 20.1 6.172.292.184.554.368.826.552 10.096 15.825 13.302 35.067 15.158 55.055.844 9.087 2.923 9.208 3.079 7.32.492-5.944 1.132-11.664 1.618-17.17.254 10.131.632 22.784.585 32.408-.064.28-.135.542-.202.815q.093.262.192.519a165 165 0 0 1-.174 6.65c-.531 10.416-2.419 19.323-5.137 24.524-.77 1.475-.412 2.666.296 3.004.979.466 2.222-1.249 3.026-2.788 2.087-3.994 3.84-9.714 4.952-16.778.272 3.308 1.594 6.073 3.383 7.436-1.079 1.439-1.742 3.65-1.656 6.134.097 2.79 1.108 5.176 2.525 6.468-1.345 1.142-2.223 3.406-1.912 6.562.798 8.106-2.363 9.818-1.893 10.973.817 2.008 9.49-1.895 10.077-10.221.241-3.416-.599-5.828-1.845-7.105 1.55-1.282 2.571-3.943 2.465-7.004M61.673 143.497q.508-.301.995-.695c.077 1.067.175 2.128.279 3.186-.339-.943-.752-1.808-1.274-2.491m91.335 2.491c.104-1.059.202-2.119.279-3.186q.488.394.995.695c-.522.683-.934 1.548-1.274 2.491" style="fill:#122a89"/></svg>