<svg xmlns="http://www.w3.org/2000/svg" xml:space="preserve" viewBox="0 0 215 220"><path d="M174.852 157.252c-10.425-5.438-10.752-21.955-9.09-33.527l.03-.198c1.402 2.143 3.33 4.996 3.289 2.35-.241-15.656 2.165-17.191 3.223-29.223 1.732-19.698-9.075-37.872-25.776-52.361-8.157-7.077-18.939-11.529-36.191-11.434-12.514.069-22.169 6.135-22.169 6.135-11.664-.072-22.746 7.37-31.423 20.857-8.475 13.174-9.687 17.874-11.34 29.274-1.705 11.754.787 13.009 1.978 23.158.566 4.825.63 7.136-1.009 15.104-.146.711 1.682-.043 4.059-1.798 1.356 11.415.549 26.51-9.33 31.662-1.658.865.42 2.262 1.215 2.633 1.599.747 4.002 1.121 5.613.28a16.3 16.3 0 0 0 3.161-2.176c-1.138 4.994-.138 10.656 4.936 16.811 1.022 1.24 3.003 2.912 4.809 3.833-1.544 2.476-4.039 4.496-7.886 5.696-2.088.651.935 1.862 2.064 2.192 2.272.663 5.508.784 7.593.416 9.697-1.711 14.246-9.812 13.786-22.43-5.356-6.105-8.85-12.209-10.658-23.6-1.542-9.715-1.894-16.543-1.972-23.356 1.485 2.998 2.945 5.302 3.153 3.224 1.024-10.232 5.113-14.315 10.866-22.415 3.355-4.724 7.09-11.513 10.928-17.555-.398.718-.787 1.44-1.15 2.172-3.778 7.624-6.53 18.701-1.747 28.486.749 1.532 2.283 2.685 3.432 3.108.571.21 2.174.461 1.403-1.115-4.843-9.91-.797-21.576 3.169-28.636 2.839-5.053 6.289-9.926 8.425-15.775a74.5 74.5 0 0 1 9.307 9.736c3.941 4.965 7.149 10.741 10.689 16.197 5.276 8.131 12.429 14.978 21.227 12.539 1.433 2.452 3.149 4.87 5.755 7.304 1.103 1.03 2.083 1.695 2.976 2.121-.064 7.017-.39 13.961-1.978 23.966-1.808 11.391-5.302 17.495-10.658 23.6-.46 12.618 4.089 20.719 13.786 22.43 2.084.368 5.32.247 7.593-.416 1.129-.329 4.152-1.541 2.064-2.192-3.846-1.2-6.342-3.22-7.886-5.696 1.806-.921 3.787-2.593 4.809-3.833 5.074-6.155 6.074-11.816 4.936-16.811a16.3 16.3 0 0 0 3.161 2.176c1.612.841 4.014.467 5.613-.28.795-.37 2.873-1.768 1.215-2.633M61.966 176.376c-4.349-6.219-3.711-11.855-1.289-16.63 1.995 5.417 3.125 11.644 1.289 16.63m63.484-91.02c-.52-.854-1.054-1.679-1.585-2.511 4.241 3.993 7.775 6.758 11.197 10.805 2.225 2.631 3.726 5.14 5.038 7.578-6.064-2.378-10.92-9.741-14.65-15.872m28.54 91.02c-1.837-4.986-.707-11.213 1.289-16.63 2.422 4.775 3.059 10.411-1.289 16.63" style="fill:#122a89"/></svg>