<svg xmlns="http://www.w3.org/2000/svg" xml:space="preserve" viewBox="0 0 215 220"><path d="M176.337 130.201c.114-.126.239-.235.346-.372 1.521-1.947 2.044-4.487.724-6.553.701-1.448.831-2.977.528-4.557-.117-.612-.393-1.261-.7-1.79-.317-.546-.705-1.074-1.176-1.495a7 7 0 0 0-.681-.526c1.457-2.249.433-6.117-2.704-7.06l-.03-.007c.489-2.884-.43-6.039-2.746-7.871-.059-1.675-.885-3.424-2.099-4.543-.952-.877-2.234-1.601-3.561-1.839-.191-2.293-1.602-4.479-4.738-5.773l-.004-.026c-1.132-4.755-6.604-6.783-12.182-6.576-1.597-5.204-6.82-9.168-12.99-7.691-1.967-2.972-5.408-4.637-8.87-4.9a12.2 12.2 0 0 0-3.71-.228c-2.693-1.635-5.822-2.517-8.841-1.948-2.895.075-5.499 1.497-7.347 3.666-3.132-2.33-6.87-3.523-10.763-2.624a13 13 0 0 0-2.29.162c-4.027.685-7.017 2.93-8.883 5.897-2.792-.433-5.759.243-8.245 2.527-.026.024-.043.051-.069.075a12 12 0 0 0-.602.394 13.03 13.03 0 0 0-7.635 4.662c-5.075.153-9.767 2.22-10.805 6.582l-.004.026c-3.136 1.295-4.547 3.481-4.738 5.773-1.327.238-2.609.962-3.561 1.839-1.214 1.119-2.04 2.868-2.099 4.543-2.315 1.832-3.234 4.986-2.746 7.871l-.03.007c-3.138.943-4.162 4.811-2.704 7.06a7 7 0 0 0-.681.526c-.472.421-.86.949-1.176 1.495-.306.529-.582 1.178-.699 1.79-.303 1.579-.173 3.109.528 4.557-1.32 2.067-.798 4.606.724 6.553.107.137.232.246.346.372-.018.181-.019.363-.024.545-1.845 3.843-.668 9.228 3.559 11.05a6.7 6.7 0 0 0 2.309 2.477c.753.474 1.615.786 2.509 1.009.809 2.215 2.64 3.936 4.867 4.74.864.312 1.772.402 2.674.343.061.256.149.506.275.745q.257.791.879 1.369a3.2 3.2 0 0 0 1.369.879 3.2 3.2 0 0 0 1.639.366l1.131-.152a4.26 4.26 0 0 0 1.877-1.094l.665-.861a4.24 4.24 0 0 0 .581-2.147v-1.197a3.2 3.2 0 0 0-.366-1.639c-.131-.402-.355-.75-.628-1.07.368-.211.7-.478.999-.779 1.043-1.05 1.593-2.569 1.109-4.064-.218-.675-.625-1.265-1.112-1.771.003-.237.01-.466.014-.701l1.756-2.297c.494-.647.646-1.47.577-2.295a4.04 4.04 0 0 0 1.018-2.216 4.2 4.2 0 0 0-.133-1.735A7.2 7.2 0 0 0 68.302 128a4.13 4.13 0 0 0 .456-2.813c2.91.032 5.693-1.515 6.199-4.789 2.242.002 4.479-.759 6.364-2.046q.538.01 1.09-.046c3.165 3.148 7.888 4.516 12.169 3.819 2.69-.15 5.011-1.107 6.853-2.641 3.042.723 6.696-.493 8.219-3.462 4.974 7.605 15.267 6.084 20.118.763a11.3 11.3 0 0 0 2.696 1.859c1.456.73 2.82 1.044 4.095 1.081 1.589.438 3.238.533 4.82.308.044 2.987 1.959 5.924 5.744 6.025.022.642.17 1.299.527 1.942a7.2 7.2 0 0 0 1.335 1.704 4.2 4.2 0 0 0-.133 1.735 4.04 4.04 0 0 0 1.017 2.216c-.069.825.083 1.648.577 2.295l1.756 2.297c.004.235.011.464.014.701-.487.506-.893 1.096-1.112 1.771-.484 1.495.066 3.014 1.109 4.064.298.3.631.568.999.779-.273.32-.497.668-.628 1.07a3.2 3.2 0 0 0-.366 1.639v1.197a4.23 4.23 0 0 0 .581 2.147l.665.861a4.25 4.25 0 0 0 1.877 1.094l1.131.152q.879.033 1.639-.366a3.2 3.2 0 0 0 1.369-.879 3.2 3.2 0 0 0 .879-1.369c.123-.235.208-.48.27-.732.842.034 1.686-.065 2.492-.356 2.228-.804 4.059-2.525 4.867-4.74.894-.223 1.757-.535 2.509-1.009a6.7 6.7 0 0 0 2.309-2.477c4.227-1.823 5.405-7.207 3.559-11.05-.011-.18-.012-.362-.03-.543" style="fill:#122a89"/></svg>