<svg xmlns="http://www.w3.org/2000/svg" xml:space="preserve" viewBox="0 0 215 220"><path d="M61.318 126.162c-.835.055-1.876.348-2.53.911-4.029 3.472-3.463 9.24-2.49 13.97.67 3.257 1.508 6.664.77 9.987a10.02 10.02 0 0 1-4.833 6.544c-.691.391-.399.712.212.806.843.13 1.949-.323 2.67-.731 2.209-1.249 4.06-3.139 5.085-5.518 1.268-2.943 1.013-6.206.445-9.286-.941-5.105-3.069-12.109 1.553-16.09.661-.567-.588-.612-.882-.593m102.402 31.413a10.02 10.02 0 0 1-4.833-6.544c-.738-3.323.1-6.73.77-9.987.973-4.73 1.539-10.499-2.49-13.97-.654-.564-1.695-.857-2.53-.911-.294-.019-1.543.026-.882.595 4.622 3.982 2.494 10.985 1.553 16.09-.568 3.08-.823 6.343.445 9.286 1.025 2.379 2.876 4.268 5.085 5.518.722.408 1.827.861 2.67.731.611-.096.904-.417.212-.808" style="fill:#122a89"/><path d="M153.211 121.733c5.513-8.12 8.764-19.073 8.067-31.389-.58-10.252-2.614-18.492-7.624-26.717-5.707-9.37-10.345-12.098-16.8-16.523-3.377-2.315-16.598-9.111-28.876-7.369-12.278-1.742-25.499 5.054-28.876 7.369-6.455 4.425-11.092 7.153-16.8 16.523-5.01 8.226-7.044 16.465-7.624 26.717-.697 12.316 2.554 23.269 8.067 31.389l-.043 1.192c-.423 11.51-.852 23.046.416 34.054 1.025 8.897 3.032 15.99 5.494 20.702.804 1.539 2.047 3.254 3.026 2.788.709-.337 1.067-1.529.296-3.004-2.717-5.201-4.605-14.108-5.136-24.524-.114-2.243-.168-4.971-.183-7.978-.052-10.66.416-25.035.661-35.585 4.946-9.122 8.563-21.297 12.852-34.722 1.294-1.976 2.457-3.466 3.695-4.694-4.509 15.397-8.577 32.574-14.311 37.917-1.342 1.251 1.184 1.77 4.208-3.005 5.827-9.2 8.933-23.124 14.129-38.062l.031-.021c.546-.347 1.375-.597 2.404-.819-3.256 13.026-6.162 26.83-11.239 31.603-1.257 1.182 1.295 1.442 4.001-2.913 4.586-7.383 6.834-17.77 10.176-29.221 4.106-.682 9.671-1.633 14.756-4.821 5.023 3.165 10.616 4.112 14.754 4.806 3.344 11.457 5.592 21.851 10.181 29.237 2.706 4.355 5.258 4.095 4.001 2.913-5.078-4.774-7.984-18.582-11.241-31.61 1.025.225 1.854.478 2.405.826l.031.021c5.196 14.938 8.302 28.862 14.129 38.062 3.024 4.775 5.55 4.256 4.208 3.005-5.736-5.345-9.805-22.53-14.315-37.929 1.239 1.229 2.402 2.722 3.697 4.701 4.289 13.427 7.906 25.604 12.853 34.727.245 10.549.713 24.924.661 35.584-.015 3.007-.068 5.735-.183 7.978-.531 10.416-2.419 19.323-5.137 24.524-.77 1.475-.412 2.666.296 3.004.979.466 2.222-1.249 3.026-2.788 2.462-4.712 4.469-11.805 5.494-20.702 1.268-11.008.839-22.544.416-34.054zm-85.838-17.155c.018-1.059.032-2.071.039-2.981.012-1.578.023-3.065.031-4.481.611-2.607 1.399-5.204 2.429-7.681.699-1.682 2.888-4.425 4.881-6.94-2.415 8.18-4.837 15.946-7.38 22.083m73.829-22.082c1.993 2.515 4.183 5.258 4.881 6.94 1.029 2.477 1.817 5.074 2.429 7.681.008 1.416.018 2.903.031 4.481.007.909.022 1.922.039 2.981-2.543-6.138-4.965-13.904-7.38-22.083" style="fill:#122a89"/></svg>