<svg xmlns="http://www.w3.org/2000/svg" xml:space="preserve" viewBox="0 0 215 220"><path d="M166.393 101.2c-1.787-3.168-2.809-10.734-3.483-13.205-2.234-8.19-1.595-8.539-6.998-13.052-2.33-1.946-8.936-7.8-13.214-11.432-7.269-6.171-21.016-7.852-28.525-6.141-14.687 3.347-14.554-1.324-27.57 1.12-7.573 1.422-9.922 4.843-14.458 8.867-2.761 2.449-7.323 4.946-11.499 7.855-6.991 4.869-7.431 14.47-10.643 26.316-1.296 4.777-1.819 16.531 4.634 23.055 2.243 2.268 4.986 21.43 4.851 27.676-.036 1.657 1.073 13.429 3.675 10.551.035-.039.452-4.51.96-10.014.727-7.864 1.642-17.838 1.901-20.022.977-8.236 5.573-12.169 10.992-18.448-.126.683-.255 1.36-.353 2.079-.318 2.331-.148 6.248.76 8.399.75 1.776 1.59 2.135 1.906-.19 2.343-17.198 14.815-21.27 24.187-23.62a16.7 16.7 0 0 0 3.42-1.29c.177.029.343.063.532.086 9.285 1.093 21.645 3.717 24.053 24.561.325 2.818 1.154 2.211 1.887-.134.887-2.839 1.035-7.722.708-10.548a61 61 0 0 0-.639-4.186c4.176 4.573 7.016 11.871 5.35 24.74-.379 2.925.468 2.536 1.638.369 1.416-2.623 2.678-7.503 3.058-10.437.318-2.452.496-4.732.567-6.873 3.744 5.205 5.143 10.014 5.143 10.014 1.943 8.805 1.892 21.142 2.364 28.772.266 4.311.699 7.125 1.754 6.937 2.176-.387.524-4.072 3.631-10.923.79-1.742 4.113-27.143 5.819-29.542 4.736-6.661 5.384-18.162 3.592-21.34" style="fill:#122a89"/></svg>