<svg xmlns="http://www.w3.org/2000/svg" xml:space="preserve" viewBox="0 0 215 220"><path d="M181.28 131.451c.954-8.033-2.704-15.068-7.331-19.305-2.395-2.193-5.048-3.647-7.806-4.722-1.093-3.009-1.045-6.646 1.801-10.487.755-1.019-.671-.6-1.185-.384-1.034.436-2.442 1.348-3.176 2.338a15.6 15.6 0 0 0-1.918 3.351c-.152-.16-.325-.31-.484-.466.584-3.748.815-7.69.583-11.797-.58-10.252-2.614-18.492-7.624-26.717-5.707-9.37-10.345-12.098-16.8-16.523-3.377-2.315-16.598-9.111-28.876-7.369-12.278-1.742-25.499 5.054-28.876 7.369-6.455 4.425-11.092 7.153-16.8 16.523-5.01 8.226-7.044 16.465-7.624 26.717-.504 8.91 1.057 17.108 4.045 24.036-.416 2.024-.872 4.213-1.38 6.611-2.387 11.276-4.788 22.575-3.409 33.95 1.115 9.194 4.609 16.945 9.4 22.493 1.565 1.813 4.069 3.954 6.27 3.838 1.594-.084-2.453-3.631-3.953-5.367-5.289-6.125-6.298-15.634-6.14-26.161.057-3.821 1.918-12.017 4.703-21.932 6.359-22.637 17.564-54.28 23.31-63.599 7.03 2.813 15.3 3.632 28.39 20.811 8.246 10.821 9.89 14.94 21.721 22.007 6.636 3.964 9.696 8.31 11.292 11.599.907 3.26 1.855 6.626 2.745 9.956-.196 2.33-.465 4.813-.828 7.514.871 2.345 1.977 4.493 3.277 6.224.293.39.6.732.907 1.073.294 1.844.495 3.574.579 5.157-1.282 3.889-3.347 7.238-6.606 8.385-.937.33-.042 1.313.319 1.597.726.571 1.901 1.009 2.812.688 1.291-.454 2.414-1.208 3.392-2.174-.437 7.551-1.979 14.187-6.009 18.855-1.5 1.737-5.546 5.284-3.953 5.367 2.201.116 4.705-2.026 6.27-3.838 4.591-5.317 7.968-12.672 9.224-21.366 2.057-2.658 3.048-5.652 3.333-8.743l.137-.013c1.707 1.445 3.879 2.379 6.621 2.528 1.389.075 3.28-.832 4.483-1.748.598-.455 2.115-1.913.686-1.991-1.756-.095-3.24-.573-4.505-1.323 4.178-2.463 8.235-6.665 8.983-12.962m-22.923-14.172c-.096-.68-.186-1.36-.26-2.044.013-.01.022-.026.035-.036.129-.096.254-.139.38-.203q-.089 1.134-.155 2.283m7.44 10.967c-.005-.328-.013-.657-.01-.977.021-2.858.21-5.855.257-8.809 1.74 2.2 3.012 5.087 3.559 8.261.215 1.248.349 2.56.32 3.851-.017.762-.078 1.624-.316 2.327-.021.063-.08.176-.136.287a2.6 2.6 0 0 1-.379-.167c-.84-.49-1.547-1.358-2.126-2.297-.479-.775-.851-1.612-1.169-2.476m6.876 9.846c-1.008 1.226-2.294 2.33-3.667 3.086a15.5 15.5 0 0 1-1.526-3.012c2.226.186 4.827-.584 6.633-2.61-.373.92-.827 1.79-1.44 2.536" style="fill:#122a89"/></svg>