<svg xmlns="http://www.w3.org/2000/svg" xml:space="preserve" viewBox="0 0 215 220"><path d="M163.31 109.816c-.721-7.659-3.166-15.002-7.451-21.406-.015-.023-.049-.029-.067-.05-.014-.042-.024-.084-.053-.125-4.902-7.132-11.538-11.829-19.349-15.415-10.383-4.766-21.706-5.856-33.029-5.209-18.82 1.074-38.419 9.771-46.665 27.638-4.422 9.58-5.375 20.896-3.298 31.191 1.018 5.045 2.556 9.954 3.337 15.048.362 2.356.617 4.73 1.026 7.078.181 1.042.295 2.847 1.218 3.572 1.354 1.063 3.884-.077 4.844-1.359.06-.08.134-.158.181-.239.963-1.657 1.026-3.981 1.212-5.831.705-7.028.921-14.087 2.09-21.066.619-3.694 1.499-7.45 2.851-10.977 5.802 4.669 15.622-.914 16.562-7.164 0 0 10.026 9.963 18.772.046 2.446-2.773 6.089 8.549 14.464 3.506 4.192-2.525 5.229 8.448 17.336 6.994 3.504-.421 6.147-1.96 7.826-4.174 2.566 5.757 3.629 12.255 4.328 18.537.497 4.467.744 8.953 1.121 13.43.193 2.287.09 5.646 1.443 7.641.028.041.067.058.096.097 1.601 2.115 4.979.324 5.635-1.797.827-2.674.945-5.635 1.353-8.392.469-3.163 1.163-6.245 1.944-9.341 1.863-7.386 2.992-14.593 2.273-22.233M61.381 146.384c-.197-1.16-.38-2.322-.54-3.488.006-.006.014-.008.02-.015l1.007-1.149a62 62 0 0 1-.487 4.652m93.538-1.637c-.07.511-.157 1.02-.229 1.531-.197-1.422-.302-2.865-.388-4.282l.776.885c.039.044.091.066.136.1-.096.59-.213 1.172-.295 1.766m4.178-20.519-.376-2.905a.877.877 0 0 0-.985-.759.88.88 0 0 0-.759.984l.53 4.099a.88.88 0 0 0 .985.759c.082-.011.153-.046.225-.077-.039.198-.07.399-.112.597-.984 4.659-2.156 9.21-3.027 13.863l-.727-.829a.86.86 0 0 0-.711-.283l-.092-1.201 1.749-1.558a.88.88 0 0 0-1.171-1.313l-.747.665c-.223-2.9-.466-5.797-.829-8.684l-.033-.253 2.601-2.789a.88.88 0 0 0-1.284-1.2l-1.627 1.744c-.433-2.942-.999-5.888-1.81-8.746.123.06.249.111.38.111a.88.88 0 0 0 .74-.405l2.068-3.235a.877.877 0 1 0-1.479-.947l-2.068 3.235-.006.014c-.867-2.774-1.992-5.444-3.478-7.922.063-.413.115-.83.135-1.258l.908-.982a.876.876 0 0 0-1.029-1.381c-.32-2.417-1.266-4.981-2.944-7.516a26 26 0 0 0-2.07-2.68l.173-6.288a.88.88 0 0 0-.855-.902h-.024a.88.88 0 0 0-.879.856l-.124 4.544a27 27 0 0 0-3.147-2.596c.085-.029.177-.027.254-.084a.88.88 0 0 0 .182-1.23l-3.204-4.321a.879.879 0 1 0-1.411 1.047l2.708 3.651c-2.562-1.558-5.298-2.672-8.046-3.413l.105-.385a.878.878 0 1 0-1.696-.465l-.118.433a35 35 0 0 0-3.789-.606l-.105-.369a.88.88 0 0 0-1.085-.604.87.87 0 0 0-.624.836c-2.775-.129-5.375.093-7.583.59-1.109.25-2.158-.083-3.227-.675.067-.041.137-.075.192-.135l2.988-3.221a.879.879 0 1 0-1.287-1.195l-2.988 3.219a.86.86 0 0 0-.216.508 63 63 0 0 1-.88-.615l-2.886-3.112a.877.877 0 0 0-1.241-.047.86.86 0 0 0-.272.664 8.4 8.4 0 0 0-1.282-.34 24 24 0 0 0-1.256-.179l-.481-.658a.88.88 0 0 0-1.227-.19.86.86 0 0 0-.345.712c-.591-.009-1.16.008-1.697.058l-.608-1.575a.88.88 0 0 0-1.641.633l.478 1.237c-2.614.63-4.478 2.055-5.786 3.992a.878.878 0 0 0-.975 1.1l.11.402a14 14 0 0 0-.351.777c-.271.655-.586 1.163-.939 1.564a.86.86 0 0 0-.966-.484.88.88 0 0 0-.669 1.048l.114.512c-2.495 1.075-5.962.271-9.313 4.62-1.801 2.337.147 5.608-1.12 7.502a.9.9 0 0 0-.095-.253l-1.634-2.612a.88.88 0 0 0-1.49.934l1.634 2.61c.084.135.2.238.33.308-1.732.76-3.147 1.855-4.157 3.091l-.473-.511a.88.88 0 0 0-1.291 1.193l.769.831c-.622 1.229-.852 2.515-.602 3.71-.328.623-.64 1.25-.919 1.885a43 43 0 0 0-1.566 4.219.85.85 0 0 0-.123-.498l-2.068-3.235a.877.877 0 1 0-1.479.947l2.068 3.235a.876.876 0 0 0 1.214.267.9.9 0 0 0 .224-.217c-.91 2.97-1.54 6.032-2.01 9.117l-1.745-1.871a.878.878 0 1 0-1.284 1.2l2.71 2.905a152 152 0 0 0-.561 5.035 101 101 0 0 0-.283 3.898l-.873-.778a.88.88 0 0 0-1.171 1.313l1.92 1.711-.061 1.073a.87.87 0 0 0-.913.259l-.576.656c-.269-1.89-.561-3.776-1.006-5.639-.682-2.856-1.449-5.702-2.073-8.576l.014.005q.058.007.115.007a.88.88 0 0 0 .87-.766l.53-4.099a.88.88 0 0 0-1.744-.225l-.307 2.375c-.135-.784-.277-1.567-.371-2.359-.19-1.606-.278-3.232-.317-4.862.044.007.083.037.128.037a.88.88 0 0 0 .798-1.246l-.928-2.018c.088-2.399.357-4.785.763-7.132l.059.117a.88.88 0 0 0 1.572-.786l-1.061-2.123c.586-2.497 1.353-4.957 2.349-7.325l2.941 2.371a.88.88 0 0 0 1.236-.132.88.88 0 0 0-.134-1.236l-3.156-2.544c-.042-.034-.091-.047-.137-.072q.639-1.362 1.37-2.675l.819 2.186a.879.879 0 1 0 1.644-.616l-.978-2.612a.86.86 0 0 0-.601-.525 41 41 0 0 1 1.644-2.463l1.043 2.783a.878.878 0 1 0 1.644-.618l-1.421-3.795c.977-1.221 2.002-2.404 3.126-3.499.427-.416.9-.799 1.352-1.197l.42 1.694a.88.88 0 0 0 1.064.642.88.88 0 0 0 .642-1.064l-.636-2.562c2.409-1.921 5.095-3.589 7.918-5.016l-.144 3.683a.88.88 0 0 0 .846.911l.033.001a.88.88 0 0 0 .879-.845l.153-3.924a.8.8 0 0 0-.22-.591 52 52 0 0 1 4.069-1.669l-.139 3.581a.88.88 0 0 0 .844.911l.034.001a.88.88 0 0 0 .879-.845l.166-4.278a51 51 0 0 1 5.273-1.395c.004.024-.003.048.004.072l.63 2.456a.88.88 0 0 0 1.071.631.88.88 0 0 0 .632-1.07l-.625-2.434c.13-.022.262-.058.392-.079a76 76 0 0 1 3.054-.419l-.56 2.279a.878.878 0 1 0 1.706.42l.713-2.903a78 78 0 0 1 2.883-.247c.008.01.01.022.018.032l2.281 2.614a.879.879 0 1 0 1.324-1.155l-1.373-1.571a76 76 0 0 1 6.818.079l-1.304 1.493a.879.879 0 1 0 1.325 1.155l2.171-2.488c1.028.09 2.051.212 3.074.347l.648 2.644a.878.878 0 1 0 1.706-.417l-.487-1.984c1.096.175 2.182.395 3.266.624l-.517 2.014a.879.879 0 1 0 1.702.435l.528-2.056q2.748.663 5.404 1.573l.141 3.629a.88.88 0 0 0 .879.845l.034-.001a.88.88 0 0 0 .844-.911l-.114-2.934a53 53 0 0 1 3.921 1.68l-.093.008.149 3.85a.88.88 0 0 0 .879.845l.033-.001a.88.88 0 0 0 .846-.911l-.115-2.935c2.723 1.421 5.32 3.059 7.71 4.99l-.457 1.841a.88.88 0 0 0 1.706.422l.235-.946a42 42 0 0 1 2.249 2.139.88.88 0 0 0-.567-.343.88.88 0 0 0-1.004.733l-.664 4.243a.878.878 0 1 0 1.737.271l.664-4.243a.87.87 0 0 0-.157-.651 42 42 0 0 1 2.182 2.394l-1.199 3.201a.88.88 0 0 0 1.648.616l.812-2.166c.312.416.646.806.944 1.238.181.273.347.554.522.831a.9.9 0 0 0-.193.303l-.978 2.612a.877.877 0 1 0 1.644.616l.632-1.687a44 44 0 0 1 1.249 2.385l-2.987 2.408a.88.88 0 0 0 .551 1.563c.194 0 .39-.063.551-.195l2.649-2.136a47 47 0 0 1 2.501 7.371l-.921 1.842a.88.88 0 0 0 .786 1.272.87.87 0 0 0 .727-.422c.444 2.321.723 4.673.84 7.038l-.888 1.932a.878.878 0 0 0 .798 1.245c.054 0 .1-.034.153-.044a53 53 0 0 1-.64 7.756" style="fill:#122a89"/><path d="M74.588 86.186h-.024a.88.88 0 0 0-.855.902l.178 6.526 1.754-.136-.175-6.437a.88.88 0 0 0-.878-.855m-6.805 7.187a.88.88 0 0 0-.781.967l.63 5.88a.877.877 0 0 0 .968.779.88.88 0 0 0 .779-.968l-.63-5.878c-.052-.483-.512-.825-.966-.78m13.723-10.018-3.204 4.321a.879.879 0 1 0 1.41 1.048l3.204-4.321a.879.879 0 1 0-1.41-1.048m3.234-5.715a.88.88 0 0 0-1.668.556l1.306 3.918a.88.88 0 0 0 1.112.556.88.88 0 0 0 .556-1.111zm5.777-3.536a.88.88 0 0 0-.956.795l-.328 3.591a.88.88 0 0 0 .795.956q.041.004.082.003a.88.88 0 0 0 .874-.798l.328-3.591a.88.88 0 0 0-.795-.956M61.836 99.726a.88.88 0 0 0-1.572.788l.98 1.957a.876.876 0 0 0 1.179.394.88.88 0 0 0 .393-1.178zm7.965-15.094a.879.879 0 1 0-1.737.271l.664 4.243a.88.88 0 0 0 1.004.733.88.88 0 0 0 .733-1.004zm6.724-6.76a.89.89 0 0 0-1.001.735l-.647 4.247a.877.877 0 0 0 .87 1.01.88.88 0 0 0 .867-.747l.647-4.244a.876.876 0 0 0-.736-1.001m-10.321 27.5a.877.877 0 1 0-1.668.55l.968 2.942a.878.878 0 1 0 1.668-.55zm-5.611 7.06.978-3.591a.88.88 0 0 0-1.696-.462l-.978 3.591a.88.88 0 0 0 1.696.462m.51 4.429a.88.88 0 0 0-1.023.706l-.39 2.143a.88.88 0 0 0 1.73.316l.39-2.143a.88.88 0 0 0-.707-1.022m-1.425 11.816.194 4.09c.021.47.41.838.877.838l.041-.001a.877.877 0 0 0 .836-.919l-.194-4.092c-.022-.484-.417-.876-.918-.836a.88.88 0 0 0-.836.92m40.666-55.764-1.963 2.283a.877.877 0 0 0 .666 1.452.88.88 0 0 0 .666-.306l1.963-2.281a.88.88 0 0 0-1.332-1.148m5.41.914-2.001 2.083a.88.88 0 0 0 1.267 1.218l2.001-2.081a.88.88 0 0 0-1.267-1.22M71.15 90.455a.88.88 0 0 0-.724 1.01l.436 2.623a.88.88 0 0 0 1.011.722.88.88 0 0 0 .723-1.012l-.436-2.619a.877.877 0 0 0-1.01-.724m77.006 2.918a.9.9 0 0 0-.966.78l-.63 5.879a.878.878 0 1 0 1.747.187l.63-5.879a.88.88 0 0 0-.781-.967m-15.845-16.288a.883.883 0 0 0-1.112.555l-1.306 3.918a.879.879 0 0 0 1.668.555l1.306-3.918a.88.88 0 0 0-.556-1.11m-6.89-2.981a.88.88 0 0 0-.795.956l.328 3.591a.88.88 0 0 0 1.751-.161l-.328-3.591a.88.88 0 0 0-.956-.795m29.274 28.367.978-1.959a.879.879 0 0 0-1.572-.784l-.978 1.959a.879.879 0 1 0 1.572.784m-15.282-24.599a.877.877 0 0 0-.736 1.001l.647 4.244a.876.876 0 0 0 1.001.737.877.877 0 0 0 .736-1l-.647-4.247a.886.886 0 0 0-1.001-.735m11.43 26.94a.877.877 0 0 0-1.109.56l-.968 2.942a.878.878 0 1 0 1.669.55l.968-2.942a.877.877 0 0 0-.56-1.11m5.22 3.567a.88.88 0 0 0-1.696.462l.978 3.591a.878.878 0 1 0 1.696-.462zm.185 11.331-.39-2.143a.88.88 0 0 0-1.73.316l.39 2.143a.88.88 0 0 0 1.73-.316m-.824 8.047c-.453-.035-.894.352-.918.836l-.194 4.092a.877.877 0 1 0 1.754.082l.194-4.09a.88.88 0 0 0-.836-.92M121 76.787a.877.877 0 0 0-1.136.503l-.819 2.121a.88.88 0 0 0 1.641.633l.819-2.121a.88.88 0 0 0-.505-1.136m-5.406-3.874a.88.88 0 0 0-1.332 1.148l1.963 2.281a.875.875 0 0 0 1.239.093.88.88 0 0 0 .093-1.239zm.393 5.372-1.658 2.266a.876.876 0 0 0 .191 1.228.876.876 0 0 0 1.227-.19l1.658-2.266a.877.877 0 0 0-.19-1.228.88.88 0 0 0-1.228.19m-5.803-4.458a.88.88 0 0 0-1.267 1.219l2.001 2.081a.876.876 0 0 0 1.241.025.88.88 0 0 0 .026-1.243zm34.604 16.628a.875.875 0 0 0-1.009.723l-.436 2.619a.879.879 0 1 0 1.734.29l.436-2.623a.88.88 0 0 0-.725-1.009" style="fill:#122a89"/></svg>