<svg xmlns="http://www.w3.org/2000/svg" xml:space="preserve" viewBox="0 0 215 220"><path d="M162.295 136.522c-3.21-1.912-6.854-2.742-10.535-3.248-.295 3.167-.722 6.61-1.343 10.527-.706 4.449-1.675 8.08-2.906 11.231.053.047.1.103.153.149.483.42.987.777 1.505 1.093-.57 2.194-1.188 4.373-1.532 6.443-.938 5.652-.135 12.358 6.288 14.317 1.006.307 2.531.004 3.554-.429.509-.215 1.846-.979.811-1.294-6.504-1.984-6.441-9.679-5.202-15.17.175-.775.372-1.561.575-2.352.35.037.705.034 1.059.041 2.321 4.234 4.161 9.762 2.062 14.026-.4.812.589.822.935.758.697-.129 1.596-.632 1.985-1.422 2.084-4.233.798-9.471-1.298-13.787.61-.152 1.218-.333 1.821-.556 3.955-1.467 8.45-4.425 8.876-9.019.451-4.862-2.839-8.943-6.808-11.308m-2.964 8.922c.228.741.392 1.524.421 2.301.017.458.003.978-.163 1.41-.015.039-.059.109-.1.178a3 3 0 0 1-.318-.086c-.709-.261-1.324-.755-1.838-1.296-2.102-2.215-2.511-5.253-2.51-8.22 2.133 1.27 3.778 3.338 4.508 5.713m2.988 6.71c-1.328 1.327-3.32 2.509-5.299 2.7a58 58 0 0 0-1.947-2.971l.026-.141c.908.407 1.892.64 2.916.66 1.844.036 3.97-.529 5.379-1.827-.267.567-.603 1.107-1.075 1.579m-97.638.038c.513-1.978 1.137-3.98 1.669-6.017a75 75 0 0 1-.416-2.374c-.698-4.401-1.148-8.199-1.443-11.682-.74.01-1.35.255-1.176.789 2.344 7.161-1.04 13.733-2.392 20.088-1.122 5.275-1.215 12.146 2.757 16.124.622.623 1.635.811 2.336.709.348-.051 1.282-.377.642-1.018-4.023-4.029-3.28-11.598-1.977-16.619m86.896-25.736c.238-.338.462-.672.693-1.008 6.72-9.797 10.035-18.638 9.296-31.699-.58-10.252-2.614-18.492-7.624-26.717-5.707-9.37-10.345-12.098-16.8-16.523-3.901-2.674-20.947-11.353-34.492-5.905l-.009.003c-5.909-.545-13.668 1.556-16.909 3.148-16.45 8.078-25.638 20.613-29.191 33.507-1.603 5.818-3.323 18.291.489 28.913 1.676 4.67 4.462 16.077 6.929 15.792.055-.018.093-.056.142-.082 1.405-.724.361-4.506-.156-7.964-.202-1.351-.324-2.652-.181-3.694.028-.203.112-.451.177-.684.807-2.87 4.354-7.929 8.872-14.023 1.807 1.491 4.109 2.382 6.908 2.316 1.235-.029 2.824-.704 3.654-1.796 1.687 1.163 3.74 1.853 6.183 1.796 1.491-.035 3.498-1.012 4.058-2.528.522.49 1.058.966 1.627 1.394 1.168.879 3.727.006 4.921-.429.475-.173 3.358-1.363 2.276-2.177-4.793-3.607-7.853-9.714-7.865-15.72-.007-3.556.983-7.574 2.974-10.813.784-.477 1.6-.914 2.437-1.328-2.058 4.402-2.863 9.534-2.593 14.202.391 6.755 3.697 13.845 9.782 17.251 1.681.941 3.937.621 5.466-.503.577-.424 1.11-1.134 1.29-1.856.183.284.362.572.548.852 1.415 2.129 8.527-.711 7.639-2.047-3.293-4.956-6.187-10.4-6.846-16.404-.299-2.727-.175-5.821.624-8.647q.88.722 1.803 1.526c-2.499 9.775.259 21.541 9.756 26.366 1.619.822 3.963.239 5.418-.685a3.9 3.9 0 0 0 1.057-1.002c.823.619 1.689 1.2 2.647 1.687 1.619.822 3.963.239 5.418-.685.149-.095.299-.21.446-.336 3.645 4.258 5.492 6.997 6.26 8.82 3.623 8.592-.778 22.868 2.876 17.682M78.572 95.055c-.464-.455-.879-1.012-1.237-1.6l.957-1.287a16 16 0 0 0 1.472 3.768 5.7 5.7 0 0 1-1.192-.881m11.651 1.141c.32-.008-.271-.071-.453-.156-.448-.211-.979-.61-1.361-.984-.842-.825-1.541-1.975-1.984-3.062-1.227-3.009-1.171-6.285-.41-9.405.061-.252.16-.481.232-.727.344-.411.689-.828 1.03-1.222a24 24 0 0 0-.315 2.747c-.229 4.528 1.314 9.119 3.988 12.845a6 6 0 0 0-.727-.036m14.856-13.109c-.281-4.929.805-11.009 3.92-15.064q.897.6 1.739 1.182c-2.781 3.828-3.513 9.056-3.187 13.655.36 5.08 2.374 9.779 4.934 14.125-4.603-2.936-7.101-8.561-7.406-13.898m19.363-2.138q.733.726 1.519 1.518c.127 3.833 1.041 7.62 2.838 10.888-2.763-3.364-4.178-7.867-4.357-12.406" style="fill:#122a89"/></svg>