<svg xmlns="http://www.w3.org/2000/svg" xml:space="preserve" viewBox="0 0 215 220"><path d="M174.852 158.29c-10.425-5.438-10.752-21.955-9.09-33.527.461-3.209 1.047-6.486 1.593-9.784 1.968-2.535 2.814-5.541 3.242-9.262.417-3.626-.173-6.169-1.998-11.707a34 34 0 0 0-.855-4.401c.189-.685.395-1.534.624-2.622 1.139-5.408.786-10.236-.863-15.452-1.545-4.886-4.415-8.199-10.474-15.457a15 15 0 0 0-1.441-1.729c-2.335-2.403-8.956-9.632-13.244-14.117-7.285-7.621-21.032-9.737-28.532-7.657-14.67 4.069-14.552-1.679-27.555 1.284-7.566 1.724-9.903 5.927-14.425 10.863-2.752 3.004-7.304 6.062-11.47 9.628-.839.718-1.532 1.58-2.125 2.549-5.59 6.692-8.304 9.94-9.789 14.638-1.649 5.216-2.003 10.044-.863 15.452.229 1.088.435 1.937.624 2.622a34 34 0 0 0-.855 4.401c-1.824 5.538-2.415 8.081-1.998 11.707.428 3.721 1.273 6.727 3.242 9.262.546 3.298 1.132 6.575 1.593 9.784 1.662 11.572 1.335 28.089-9.09 33.527-1.658.865.42 2.262 1.215 2.633 1.599.747 4.002 1.121 5.613.28a16.3 16.3 0 0 0 3.161-2.176c-1.138 4.994-.138 10.656 4.936 16.811 1.022 1.24 3.003 2.912 4.809 3.833-1.544 2.476-4.039 4.496-7.886 5.696-2.088.651.935 1.862 2.064 2.192 2.272.663 5.508.784 7.593.416 9.697-1.711 14.246-9.812 13.786-22.43-5.356-6.105-8.85-12.209-10.658-23.6-.03-.192-.055-.369-.085-.559.115-.097.23-.183.34-.333a.47.47 0 0 0 .051-.426c-.791-2.136-.741-6.633-.494-10.704 3.38 4.332 3.384 3.316 2.976.889-.958-5.697.109-12.584.682-16.583.283.026.555.043.801.044 12.291.092 18.228-7.332 21.216-15.205l.115-.314c-.082 5.673 1.057 11.415 4.389 16.087.937 1.314 2.575 2.025 3.74 2.117.579.046 2.156-.163 1.192-1.515-4.874-6.835-4.378-16.45-2.535-24.212 1.158 8.837 4.828 18.349 13.448 21.14 1.484.48 3.458-.075 4.7-.834a4 4 0 0 0 .373-.268c3.121 3.59 7.482 4.94 13.277.982.959-.655 2.01-1.951 2.893-3.311 3.89 3.47 8.466 5.351 13.757 4.028l.04.298c.511 3.778 1.854 11.38.818 17.545-.406 2.415-.406 3.434 2.924-.823.25 6.229-.429 9.597.047 10.749-.061.404-.117.793-.183 1.208-1.808 11.391-5.302 17.495-10.658 23.6-.46 12.618 4.089 20.719 13.786 22.43 2.084.368 5.32.247 7.593-.416 1.129-.329 4.152-1.541 2.064-2.192-3.846-1.2-6.342-3.22-7.886-5.696 1.806-.921 3.787-2.593 4.809-3.833 5.074-6.155 6.074-11.816 4.936-16.811a16.3 16.3 0 0 0 3.161 2.176c1.612.841 4.014.467 5.613-.28.796-.373 2.874-1.77 1.216-2.635M51.885 82.04c-.543.375-.908.686-1.029.904-.053.095-.091.193-.142.289.785-4.003 1.959-7.419 3.252-9.591-.507 2.828-1.132 5.681-2.081 8.398m10.081 95.374c-4.349-6.219-3.711-11.855-1.289-16.63 1.995 5.417 3.125 11.644 1.289 16.63M83.865 92.97c-1.992 5.971-4.909 13.37-11.932 16.484 1.706-2.502 3.65-5.034 5.693-8.025 1.956-2.863 4.145-6.078 6.51-9.212-.088.253-.187.498-.271.753m20.498-8.835a177 177 0 0 1-.063-4.755c4.647 5.098 5.505 16.061 8.053 23.754.605 1.827 1.359 3.59 2.254 5.177-7.712-4.286-9.989-15.743-10.244-24.176m12.92 8.414c-.79-2.969-1.465-6.188-2.244-9.29.11.139.229.263.338.403 3.978 5.12 7.134 11.194 10.661 16.888 1.211 1.956 2.539 3.817 3.972 5.499-6.816 1.516-10.829-6.37-12.727-13.5m13.037-2.173c3.894 4.426 5.883 5.766 9.963 10.775a41 41 0 0 1 2.882 4.046c-5.342-2.66-9.536-9.126-12.845-14.821m23.67 87.038c-1.837-4.986-.707-11.213 1.289-16.63 2.422 4.775 3.059 10.411-1.289 16.63m9.943-95.466c-1.02-2.236-1.9-4.355-2.302-6.152a60 60 0 0 1-.69-3.615c.048.055.099.104.146.16 1.634 1.926 3.189 5.972 4.154 10.892-.051-.095-.09-.193-.143-.289-.129-.235-.547-.58-1.165-.996" style="fill:#122a89"/></svg>