<svg xmlns="http://www.w3.org/2000/svg" xml:space="preserve" viewBox="0 0 215 220"><path d="M177.534 91.197c-10.625-14.878-5.18-26.09-27.555-47.587-.15-.143-.297-.295-.448-.436l-.041-.04c-.001-.001 0 .003-.001.002a56 56 0 0 0-5.969-4.873c-2.173-1.53-10.939-6.596-23.883-7.529-6.025 0-9.57 1.021-11.659 2.572-2.089-1.551-5.634-2.572-11.659-2.572-12.944.933-21.709 5.999-23.883 7.529a55.5 55.5 0 0 0-5.969 4.873c-.001.001 0-.003-.001-.002l-.041.04c-.15.141-.298.292-.448.436-22.375 21.497-16.93 32.709-27.555 47.587-5.028 7.041 2.295 12.674-.627 24.643-1.44 5.898.692 11.179 3.838 15.337 4.041 5.34 2.358.713 2.553-2.285.284-4.388.931-6.649 1.749-8.536.382 1.879.695 3.875.823 5.994.595 9.831-3.616 14.609-1.708 14.349 2.65-.361 3.597-.927 4.771-2.18.619 1.841 1.451 3.809 2.576 5.947 3.992 7.585-5.489 21.223-.737 29.357 6.191 10.597-4.426 13.48-.742 14.255 21.461 4.514 35.045-4.448 35.329-16.718a74 74 0 0 1-7.204-6.632c-6.875-7.211-11.215-13.313-13.306-26.487q-.229-1.448-.425-2.815c.443-1.801 1.04-3.261 1.537-3.977 0 0 .564 2.242.359 7.035-.075 1.741-1.097 5.617 1.379 2.886 3.684-4.063 5.781-7.494 6.467-18.369.78-12.37-7.854-24.787 6.662-41.783 6.103-7.145-.323-14.188 11.109-21.106 6.823-4.129 12.098-2.777 15.154-3.431 3.055.654 8.331-.698 15.153 3.431 11.432 6.918 5.006 13.961 11.109 21.106 14.516 16.997 5.882 29.414 6.662 41.783.686 10.875 2.783 14.306 6.467 18.369 2.476 2.731 1.454-1.145 1.379-2.886-.205-4.794.359-7.035.359-7.035.497.716 1.094 2.176 1.537 3.976q-.196 1.367-.425 2.815c-2.091 13.174-6.431 19.276-13.306 26.487a74 74 0 0 1-7.203 6.632c.284 12.27 13.868 21.232 35.329 16.718 3.684-.775-10.435-3.658-4.244-14.255 4.752-8.134-1.227-21.772 2.765-29.357 1.125-2.138 1.957-4.106 2.576-5.947 1.174 1.253 2.121 1.818 4.771 2.18 1.909.26-2.302-4.518-1.708-14.349.128-2.119.442-4.114.823-5.994.818 1.887 1.464 4.147 1.749 8.536.194 2.998-1.489 7.625 2.552 2.285 3.146-4.157 5.278-9.439 3.838-15.337-2.923-11.969 4.4-17.602-.628-24.642" style="fill:#122a89"/></svg>