<svg xmlns="http://www.w3.org/2000/svg" xml:space="preserve" viewBox="0 0 215 220"><path d="M162.213 136.522c-3.21-1.912-6.854-2.742-10.535-3.248-.295 3.167-.722 6.61-1.343 10.527-.706 4.449-1.675 8.08-2.906 11.231.053.047.1.103.153.149.483.42.987.777 1.505 1.093-.57 2.194-1.188 4.373-1.532 6.443-.938 5.652-.135 12.358 6.288 14.317 1.006.307 2.531.004 3.554-.429.509-.215 1.846-.979.811-1.294-6.504-1.984-6.441-9.679-5.202-15.17.175-.775.372-1.561.575-2.352.35.037.705.034 1.059.041 2.321 4.234 4.161 9.762 2.062 14.026-.4.812.589.822.935.758.697-.129 1.596-.632 1.985-1.422 2.084-4.233.798-9.471-1.298-13.787.61-.152 1.218-.333 1.821-.556 3.955-1.467 8.45-4.425 8.876-9.019.451-4.862-2.839-8.943-6.808-11.308m-2.964 8.922c.228.741.392 1.524.421 2.301.017.458.003.978-.163 1.41-.015.039-.059.109-.1.178a3 3 0 0 1-.318-.086c-.709-.261-1.324-.755-1.838-1.296-2.102-2.215-2.511-5.253-2.51-8.22 2.133 1.27 3.778 3.338 4.508 5.713m2.988 6.71c-1.328 1.327-3.32 2.509-5.299 2.7a58 58 0 0 0-1.947-2.971l.027-.141c.908.407 1.892.64 2.916.66 1.844.036 3.97-.529 5.379-1.827-.268.567-.604 1.107-1.076 1.579m-97.638.038c.513-1.978 1.137-3.98 1.669-6.017a75 75 0 0 1-.416-2.374c-.698-4.401-1.148-8.199-1.443-11.682-.74.01-1.35.255-1.176.789 2.344 7.161-1.04 13.733-2.392 20.088-1.122 5.275-1.215 12.146 2.757 16.124.622.623 1.635.811 2.336.709.348-.051 1.282-.377.642-1.018-4.023-4.029-3.28-11.598-1.977-16.619m86.896-25.736c.244-.346.458-.685.693-1.029 2.625-3.832 4.745-7.527 6.289-11.377.991.269 1.989.51 3.003.69.825.146 2.098-.099 2.701-.724.519-.537.518-1.084-.331-1.235a33 33 0 0 1-4.482-1.146c1.765-5.296 2.504-11.004 2.115-17.887-.58-10.252-2.614-18.492-7.624-26.717-5.707-9.37-10.345-12.098-16.8-16.523-3.901-2.674-20.947-11.353-34.492-5.905l-.009.003c-5.909-.545-13.668 1.556-16.909 3.148C69.2 55.832 60.012 68.367 56.458 81.261c-1.603 5.818-3.323 18.291.489 28.913.131.366.272.785.416 1.225-1.044.328-2.105.534-3.176.555-2.832.054-3.976 3.614-.5 3.549 1.602-.03 3.174-.353 4.702-.855 1.606 5.166 3.637 11.532 5.487 11.318.055-.018.093-.056.142-.082 1.405-.724.361-4.506-.156-7.964-.202-1.351-.324-2.652-.181-3.694.028-.202.112-.448.177-.68.153-.543.37-1.137.708-1.829.271-.16.545-.318.811-.479 4.565-2.768 8.696-6.226 12.628-9.819 3.789-3.462 7.388-7.151 10.716-11.059 3.136-3.683 5.578-7.852 8.674-11.556 2.704-3.236 5.853-6.329 9.388-8.797-3.761 4.912-6.652 10.708-9.748 15.767-5.064 8.274-11.359 18.257-21.563 20.396-.757.159-2.479.936-2.202 1.968.29 1.083 2.178.752 2.891.603 17.43-3.654 24.663-22.493 33.502-35.744q.248-.37.5-.741c-.385 2.109-.944 4.199-1.496 6.209-1.34 4.888-3.042 9.705-5.174 14.305-2.903 6.262-7.568 11.328-14.624 12.591-.552.099-2.977.598-2.986 1.384-.01.863 1.487.581 2.036.483 8.69-1.556 15.957-6.09 19.974-14.063 2.347-4.659 4.108-9.664 5.538-14.673.369-1.292.74-2.623 1.079-3.972 4.996 8.633 11.421 16.524 18.579 23.382 4.728 4.529 10.11 9.01 16.039 12.284 2.665 8.644-1.093 21.181 2.367 16.27M98.173 72.172c-4.278 3.946-7.306 8.591-10.762 13.195-4.995 6.653-11.032 12.842-17.571 18.107 2.506-3.492 5.535-7.481 8.651-11.682 8.226-11.094 13.763-18.205 22.649-22.155a56 56 0 0 0-2.967 2.535m37.992 23.815c-5.717-5.547-10.963-11.755-15.354-18.478 3.425 3.226 7.653 7.525 13.799 13.954 5.574 5.831 9.134 9.962 11.33 12.938-3.517-2.596-6.788-5.515-9.775-8.414" style="fill:#122a89"/></svg>