<svg xmlns="http://www.w3.org/2000/svg" xml:space="preserve" viewBox="0 0 215 220"><path d="M179.652 74.478c-3.495-1.113-5.974-3.772-8.968-5.656 1.239.106 2.46.331 3.661.822 1.239.507 3.146.755 3.885-.741.856-1.733-1.437-3.685-2.602-4.578-2.241-1.717-4.918-2.802-7.691-3.285 1.327-1.727 5.125-6.649 4.027-7.737-.89-.882-3.777 1.057-4.5 1.36-.76.318-1.517.644-2.286.938-.236.09-.863.222-1.429.378.425-.5.817-1.037 1.178-1.583.319-.481 1.527-1.972 1.163-2.607-.478-.834-2.146-.12-2.732.21-2.398 1.351-3.855 3.353-6.629 3.23 1.234-1.485 2.54-2.906 4.045-4.124 1.593-1.288 3.251-1.939 5.018-2.862 2.342-1.224-.785-2.32-2.114-2.454-2.509-.252-5.565.606-7.915 1.439-1.099.39-2.141.895-3.163 1.44 1.373-1.291 2.897-2.407 4.64-3.189 1.491-.669 2.474-1.554.62-2.683-1.512-.92-3.577-.519-5.195-.081-.664.18-1.284.44-1.881.739l1.151-1.923c.822-1.372 2.06-2.85 2.607-4.356.556-1.53-1.102-1.305-2.208-.978-2.56.757-4.277 2.951-6.749 3.945-1.217.489-2.402.916-3.548 1.413.719-1.261 1.51-2.495 2.587-3.358.761-.61 2.517-1.318 1.378-2.449-.968-.961-2.982-.591-4.128-.327-2.131.489-4.158 1.527-5.914 2.814-2.593 1.9-4.594 4.601-6.114 7.545a55 55 0 0 0-6.257-2.106c-5.35-1.444-11.047-2.048-16.531-1.036a27 27 0 0 0-3.729.961c-.269.091-.535.195-.805.281a2 2 0 0 1-.344.06 7 7 0 0 0-.809-.122 26 26 0 0 0-1.343.014c-2.874.099-5.727.553-8.519 1.233a40 40 0 0 0-4.671 1.467c-2.324-5.101-6.049-9.562-11.334-11.066-1.31-.373-5.783-.84-5.936 1.485-.068 1.038 1.787 1.719 2.4 2.379.408.44.768.94 1.111 1.457-.896-.35-1.806-.687-2.72-1.082-2.192-.948-4.079-3.474-6.541-3.77-1.173-.141-2.909.306-2.459 1.721.465 1.466 1.856 3.101 2.656 4.437l.39.651c-2.12-.839-4.368-.988-6.36.531-2.056 1.568-.381 2.093 1.166 2.892a15 15 0 0 1 1.332.788c-2.454-.821-5.636-1.682-8.207-1.022-1.352.347-4.582 1.673-2.059 2.761 3.313 1.428 5.971 3.673 8.313 6.333-1.901-.465-3.403-1.812-5.224-3.032-.903-.605-2.129-.95-3.08-.124-.858.744-.196 1.582.297 2.398.11.182.385.614.709 1.087-.389-.151-.781-.292-1.167-.452-1.523-.631-3.738-2.348-5.452-1.569-1.181.537-.905 1.247-.422 2.245.964 1.989 2.234 3.848 3.52 5.653a19.6 19.6 0 0 0-6.523 2.888c-1.37.945-3.786 2.723-3.689 4.656.091 1.807 1.985 1.425 3.167.93 1.717-.719 3.466-.879 5.26-.909-1.34.797-2.578 1.739-3.833 2.765-1.217.994-2.468 1.948-3.937 2.54-1.227.495-2.412.813-3.525 1.561-1.136.763-2.4 2.109-.319 2.397 1.866.258 3.953-.009 5.838-.02l3.091-.018c-1.085.492-2.117 1.082-3.01 1.875-1.386 1.231-3.162 3.2-2.461 5.216.735 2.113 3.005.647 4.188-.179 1.659-1.158 3.535-1.92 5.485-2.452-1.614.827-3.169 1.76-4.603 2.875-2.075 1.615-4.787 4.075-5.779 6.555-.821 2.054-.285 4.377 2.3 2.912 1.673-.948 3.033-2.16 4.854-2.919 1.921-.801 3.94-1.304 5.984-1.663-.85 1.821-2.179 3.015-4.089 3.895-.957.441-3.97.985-4.415 2.189-.642 1.739 4.733 1.035 5.772.885-.281.266-.504.506-.537.535-1.232 1.113-2.567 2.094-3.901 3.078-.522.385-3.444 1.749-3.187 2.61.185.621 1.53.619 2.003.663 3.871.355 7.899-.076 11.739-.547l.062-.009c.387 2.501.978 4.97 1.834 7.371 1.066 2.99 2.198 5.963 3.46 8.876.626 1.446 1.599 2.944 1.937 4.477.445 2.016-.066 4.569-.163 6.639-.667 14.236-1.143 29.276 4.126 42.789.936 2.4 2.067 4.732 3.459 6.903 1.14 1.779 2.78 4.19 5.155 4.218 1.578.018 3.53-1.013 3.37-2.802-.096-1.079-.972-2.009-1.516-2.908-.757-1.25-1.391-2.577-1.952-3.926-2.427-5.834-3.552-12.034-4.039-18.328-.522-6.751-.31-13.61-.153-20.248.013-.557.035-1.113.05-1.67 1.875-.129 2.723-2.158 3.153-3.76 1.41-5.245 1.37-10.977 2.064-16.352.152-1.175.321-2.347.493-3.519.05.586.164 1.096.415 1.358.409.426 1.317.348 1.829.321 1.305-.07 3.79-.451 4.488-1.768.435-.82.038-2.152-.012-3.036a155 155 0 0 1-.205-5.009c-.162-6.864.183-13.832 1.838-20.52.849-3.429 2.026-6.799 3.821-9.85 1.262-2.147 2.602-4.409 4.424-6.079-2.97 4.8-4.465 10.238-5.652 15.818-1.672 7.86-2.398 15.945-1.75 23.968.123 1.525-.017 4.213.708 5.592.347.661.974.836 1.693.897 1.449.122 3.991-.47 4.701-1.924.534-1.093-.1-2.694-.234-3.852a70 70 0 0 1-.446-6.381c-.108-4.46.22-8.929.878-13.34.645-4.327 1.605-8.62 2.794-12.83a31 31 0 0 1 1.098-3.208c-.977 4.686-1.468 9.48-1.74 14.257-.395 6.922-.29 14.098 1.872 20.752.752 2.316 1.222 4.035 3.945 3.697 1.233-.153 3.749-.867 3.762-2.462.01-1.251-1.139-3.094-1.49-4.35a40 40 0 0 1-1.049-5.033c-.546-3.742-.644-7.54-.514-11.315.218-6.327.807-12.845 2.391-19.048-.325 5.282-.1 10.643-.225 15.892-.17 7.172-.062 14.46 1.841 21.426.582 2.131.676 4.305 3.251 4.132 1.246-.084 3.774-.609 4.364-1.924.397-.885-.516-2.327-.777-3.215a47 47 0 0 1-1.295-5.788c-.567-3.523-.779-7.096-.821-10.661-.053-4.432.175-8.862.276-13.291.025-1.088.038-2.181.051-3.275.975 3.984 1.857 7.99 2.498 12.043 1.183 7.479 1.471 15.07 1.161 22.63-.08 1.956-.443 3.103 1.829 3.066 1.354-.022 3.495-.445 4.356-1.634.63-.87.412-2.216.451-3.238q.1-2.64.104-5.284c.003-3.53-.133-7.06-.448-10.576-.565-6.305-1.806-12.497-3.294-18.635.73 1.493 1.316 3.081 1.889 4.414a83 83 0 0 1 3.648 10.345c2.054 7.313 3.26 15.113 1.903 22.665a32 32 0 0 1-.591 2.666c-.121.45-.532 1.208-.444 1.669.122.642.653.77 1.265.861 1.473.221 3.723-.227 4.81-1.303.849-.84.983-2.275 1.239-3.389a36.5 36.5 0 0 0 .838-5.873c.22-3.515-.002-7.053-.53-10.531-.84-5.526-2.369-10.95-4.417-16.164.489.96.958 1.931 1.395 2.916 1.737 3.919 3.07 8.02 4.06 12.189 1.002 4.219 1.635 8.53 1.836 12.863.11 2.37.064 4.734-.08 7.1-.06.988-.175 1.305.78 1.629 1.455.493 4.2-.217 5.25-1.322.957-1.007.671-2.809.711-4.095.035-1.118.033-2.237.011-3.355 1.16 5.734 1.977 11.548 2.618 17.344.395 3.573.507 7.241 1.305 10.756.262 1.151.629 3.163 1.845 3.777.378.191.852.198 1.321.12.062.056.123.111.177.15.189 6.257.301 12.521.063 18.769a105 105 0 0 1-.155 2.977c-.478 7.227-1.783 14.713-5.076 21.14-.841 1.64-4.276 5.433-1.202 6.683 2.777 1.129 5.474-1.896 6.829-3.871 4.499-6.561 6.534-14.758 7.549-22.539 1.446-11.087.758-22.319.208-33.444 4.198-6.467 6.547-13.675 7.448-21.13 1.291.13 2.581.246 3.862.33 2.134.139 4.295.249 6.431.091.803-.059 2.855-.113 3.273-1.006.269-.574-.057-.586-.551-.935-1.243-.879-2.502-1.728-3.721-2.647-.354-.267-1.629-1.325-2.639-2.184.437.029.873.085 1.308.09.979.013 3.145.096 3.77-.894.789-1.249-2.413-1.866-3.188-2.2-2.101-.906-3.738-2-4.82-3.802 3.397.745 6.62 1.966 9.48 4.069 1.921 1.413 4.011.218 3.557-2.165-.51-2.681-3.3-5.209-5.312-6.892-.573-.479-1.186-.903-1.803-1.319.391.208.777.427 1.151.666 1.385.887 3.22 2.25 4.652.358 1.31-1.732-.206-3.803-1.383-5.057-.892-.95-1.969-1.627-3.123-2.17l2.194.013c1.856.011 4.264.443 6.057-.181 2.852-.995-.527-2.842-1.917-3.329M53.253 92.143c-.215 3.334-.155 6.689.251 9.997-2.805.336-5.631.558-8.453.529-.445-.005-.93-.074-1.407-.121.508-.325 1.065-.869 1.409-1.124 1.829-1.354 3.999-2.72 5.431-4.52 1.32-1.659-.641-1.534-1.859-1.296-.902.176-1.829.267-2.754.29.519-.241 1.045-.533 1.377-.684 2.909-1.319 5.101-3.055 6.171-6.147.205-.594-.929-.589-1.196-.551-2.874.408-5.72 1.029-8.435 2.075-1.541.593-2.842 1.405-4.153 2.248.03-.286.051-.559.087-.689.216-.765.607-1.31 1.097-1.937.979-1.254 2.015-2.464 3.202-3.528 2.746-2.46 6.144-3.965 9.512-5.369 1.205-.502.935-1.422-.342-1.275-2.755.318-5.476.848-8.096 1.774-1.716.607-3.12 1.528-4.603 2.41-.031-.641.258-1.704.339-1.868.365-.741 1.074-1.507 1.684-2.055 1.471-1.319 3.515-1.89 5.341-2.522.874-.302 1.215-1.305.011-1.298l-8.742.051c-.789.005-1.845.145-2.623.015-.152-.025-.331.066-.408.112.047-.032.139-.1.299-.228.916-.731 2.147-.932 3.202-1.388 3.757-1.623 6.281-5.097 10.15-6.473.871-.31 1.217-1.299.011-1.298-1.715.002-3.438-.014-5.152.054-1.016.04-2.947.169-4.173.751a2 2 0 0 1 .013-.361c.215-.918 1.202-1.77 1.871-2.33 2.023-1.69 4.57-2.749 7.172-3.086.455-.059 2.028-.546 1.505-1.275-1.126-1.568-2.222-3.168-3.188-4.841l.443.185c.685.278 1.375.544 2.075.784 1.292.443 2.833 1.088 4.214.682 1.368-.402 1.376-.956.789-1.73 1.767.758 3.611.815 5.484.447.401-.079 2.084-.556 1.505-1.275-1.708-2.118-3.587-4.11-5.81-5.697-.92-.656-1.887-1.257-2.908-1.744-.405-.193-1.023-.293-1.357-.56q-.645-.214.215.029a3.4 3.4 0 0 1 1.149-.003c5.07.369 9.259 2.946 13.247 5.889.618.456 3.322-.138 2.607-1.075-2.192-2.872-4.763-5.593-8.013-7.271a13 13 0 0 0-1.081-.503q-.467-.993.489-.571c.6-.078 1.465.252 2.008.468 1.586.629 2.903 1.848 4.191 2.929.624.524 3.21-.067 2.607-1.075l-2.825-4.719-1.145-1.912c.707.556 1.408 1.092 2.117 1.414 2.548 1.155 5.164 1.699 7.388 3.508.518.421 3.185-.1 2.704-.913-1.201-2.029-2.274-4.503-4.158-5.971-.387-.302-.825-.533-1.212-.833.178.021.357.03.532.072 1.47.302 2.884 1.065 4.115 1.897 3.115 2.106 5.406 5.385 7.006 8.995-7.866 3.584-14.945 9.503-20.167 16.084-6.489 8.187-10.092 18.041-10.76 28.427m100.744 29.735c3.903-10.341 5.807-22.437.706-32.562 2.96 10.997.792 22.05-1.472 32.998-.017-3.651-.077-7.328-.281-10.8-.611-8.061-1.187-16.681-5.312-23.838 2.832 7.63 3.007 15.885 3.558 23.938.374 4.963.501 11.424 1.087 17.234.81 15.702 1.642 32.469-5.019 47.013a34 34 0 0 1-2.117 3.938c-.399.636-.813 1.272-1.28 1.86-.209.263-.829 1.167-1.159 1.235-1.043.215-.804-.843-.587-1.431.477-1.29 1.52-2.486 2.144-3.727a38 38 0 0 0 1.761-4.112c2.504-6.926 3.39-14.359 3.584-21.685.233-8.817-.099-17.65-.397-26.462-.008-.222-.187-.348-.451-.401-.405-7.895-1.785-15.696-4.826-22.981 1.567 7.816 2.213 15.679 2.704 23.569-.122.115-.215.236-.228.366q-.18 1.87-.351 3.743c-1.273-5.921-1.344-12.188-2.206-18.182-1.801-12.519-4.799-24.958-10.705-36.22-.474-.903-3.184-.104-2.801.751 2.988 6.669 4.978 13.77 5.841 21.03.453 3.807.583 7.653.338 11.479-.033.511.08 1.806-.867 1.552-.526-.141-.211-.489-.128-1.298.172-1.659.121-3.394.086-5.061-.155-7.3-1.542-14.577-3.916-21.477-1.126-3.273-2.498-6.463-4.155-9.502-.694-1.273-1.529-3.289-2.582-4.264-.962-.89-2.42-1.54-3.554-2.193-.486-.28-2.96.196-2.517 1.047 3.859 7.406 6.708 15.419 8.068 23.672.723 4.386.99 8.873.438 13.295a35 35 0 0 1-.529 3.12c-.164.752-.317 2.522-.928 3.056-.836.731-.8.065-.644-.47q.383-1.314.656-2.653c1.585-7.774.437-15.887-1.651-23.451a83 83 0 0 0-4.066-11.441 76 76 0 0 0-2.781-5.66c-.356-.654-.734-1.703-1.262-2.226-.435-.431-1.462-.648-2.018-.898-.573-.258-2.775.059-2.517 1.047 1.902 7.268 3.66 14.593 4.486 22.074.434 3.93.637 7.884.657 11.837a135 135 0 0 1-.135 6.587c-.03.692.164 1.528-.414 1.993-.912.735-.681-.435-.627-.904.407-3.512.209-7.264.094-10.792a107 107 0 0 0-.964-11.397c-1.087-7.724-3.082-15.281-5.091-22.807-.247-.927-2.705-.252-2.8.554-.468 3.986-.402 8.041-.491 12.049-.092 4.121-.282 8.241-.303 12.363-.02 3.766.105 7.541.599 11.279a51 51 0 0 0 1.008 5.44q.377 1.543.866 3.053c.229.703.662 1.193.266 1.509-1.146.912-1.969-3.55-2.15-4.292a51 51 0 0 1-1.003-5.437c-.542-4.129-.636-8.304-.579-12.463.107-7.835-.393-16.023.904-23.763.101-.605-.826-.649-1.205-.585-.868.148-2.161.146-2.854.805-.863.82-1.157 2.838-1.478 3.94-.951 3.267-1.631 6.609-2.109 9.976-.878 6.181-1.299 12.544-.921 18.783.186 3.074.603 6.144 1.402 9.122.22.819.466 1.632.747 2.432.125.356.896 1.703.79 2.019-.344 1.021-1.062.005-1.303-.405-.414-.705-.623-1.656-.866-2.433-1.974-6.317-2.137-13.076-1.784-19.633.416-7.744 1.402-15.543 4.08-22.86.402-1.098-2.361-.267-2.702.156-2.437 3.025-4.432 6.192-5.671 9.89-1.346 4.02-2.28 8.248-3.023 12.416-.745 4.181-1.204 8.417-1.295 12.664a75 75 0 0 0 .109 6.142 68 68 0 0 0 .289 3.405c.074.677.753 2.947.453 3.508-.845 1.575-1.216-1.19-1.26-1.51a72 72 0 0 1-.633-10.723c.068-4.19.489-8.372 1.184-12.503 1.319-7.845 3.115-15.988 8.173-22.328.66-.827-1.119-.832-1.487-.712-1.167.384-2.563.713-3.599 1.376-.934.598-1.763 1.623-2.496 2.438-2.045 2.276-3.749 4.949-5.09 7.697-2.447 5.014-3.662 10.585-4.275 16.102-.626 5.632-.605 11.328-.321 16.98.037.732.635 3.461-.475 3.51-.65.028-.391-.361-.414-.957-.031-.818-.099-1.635-.141-2.453-.186-3.648-.25-7.298-.129-10.95.038-1.155-2.59-.517-2.799.358-2.158 9.013-3.38 18.205-4.265 27.422-.159 1.659-.335 3.319-.633 4.959-.036-.217-.075-.44-.092-.624a895 895 0 0 0-.348-3.639c-.019-.199-.18-.313-.399-.376.385-6.28.865-12.557 2.12-18.665-2.87 6.018-4.06 12.579-4.306 19.221-.121.117-.211.241-.216.374-.405 12.01-1.304 24.393.377 36.342.781 5.547 2.107 11.213 4.731 16.203.449.855.952 1.67 1.471 2.483-.033-.051 1.186 1.904.892 2.032-.174.076-1.174-.9-1.255-.977-1.9-1.815-3.188-4.47-4.266-6.825-5.611-12.258-5.805-26.367-5.342-39.585.121-3.453.3-6.905.471-10.356.032-.641.019-1.115-.047-1.543.201-4.064.333-8.132.582-12.182.626-9.175.543-18.617 3.698-27.358-4.427 8.284-4.778 18.095-5.452 27.27a223 223 0 0 0-.228 7.416c-1.97-9.853-3.449-19.775-.79-29.654-3.967 7.871-3.695 16.94-1.546 25.447-1.826-4.634-3.364-9.346-3.861-14.348-1.005-10.127.848-20.68 5.768-29.625 5.366-9.755 14.103-17.626 24.138-22.392 2.042-.97 4.233-1.607 6.433-2.106a39 39 0 0 1 4.362-.735c1.68-.184 3.358.041 5.016-.087 2.245-.173 4.408-1.333 6.703-1.597 2.777-.319 5.603-.174 8.359.255 8.664 1.347 16.305 5.154 23.341 10.215 10.126 7.283 16.528 18.716 18.677 30.911 2.188 12.427 1.11 25.518-4.977 36.626m23.956-45.282-8.742-.051c-.358-.002-2.846.926-1.699 1.323 1.92.664 4.013 1.284 5.586 2.626a10 10 0 0 1 1.55 1.704c.319.436.624.848.747 1.379-.18-.108-.358-.219-.541-.322a21 21 0 0 0-3.098-1.415c-2.549-.926-5.226-1.434-7.913-1.744-.469-.054-3.165.823-2.008 1.306 3.509 1.463 7.045 3.038 9.905 5.601 1.115.999 2.111 2.122 3.046 3.29.304.38.904 1.148 1.327 1.964-.953-.609-1.93-1.18-3.057-1.628-2.643-1.052-5.436-1.658-8.245-2.057-.437-.062-2.554.263-2.279 1.059.978 2.827 2.918 4.459 5.588 5.671.408.185.826.346 1.241.514-.062-.003-.132-.006-.165-.01-.982-.142-3.996-.998-4.234.709-.169 1.21 3.028 3.195 3.831 3.811.98.751 2.08 1.786 3.207 2.395-2.886.04-5.786-.204-8.646-.544-.272-.032-.546-.074-.819-.108.419-4.486.335-9.046-.186-13.579-1.387-12.064-6.538-24.285-15.837-32.4a59.6 59.6 0 0 0-14.499-9.354c.96-2.057 2.125-4.033 3.582-5.772 1.516-1.81 4.14-4.171 6.649-4.357.753-.056 1.427.016 1.03.704-.314.544-1.412 1.006-1.874 1.514-1.321 1.452-2.232 3.372-3.231 5.06-.658 1.112 2.02.429 2.392.127 2.971-2.417 6.98-2.756 10.037-5.08.38-.289.717-.628 1.098-.915l.046-.036c-.723.696-1.193 1.61-1.736 2.517l-3.694 6.171c-.659 1.101 2.018.441 2.392.127 1.344-1.129 2.785-2.552 4.545-2.95.799-.181 1.947-.335 2.531.387.369.456.347.01.137.428-.044.087-1.149.544-1.13.534-3.342 1.749-6.011 4.531-8.275 7.498-.775 1.016 2.043.384 2.392.127 3.884-2.867 9.211-6.584 14.318-5.296.174.044.328.179.459.262-.361.152-.886.322-1.046.4a21 21 0 0 0-2.983 1.792c-2.289 1.636-4.238 3.693-5.997 5.875-.304.377.069.591.411.658 2.935.576 5.552-.161 7.997-1.691a43 43 0 0 1-1.385 1.77c-1.49 1.826 1.471 1.256 2.552.963a38 38 0 0 0 5.529-1.99c-.155.343-.296.702-.441.957-1.002 1.763-2.161 3.434-3.343 5.079-.266.37.034.609.411.658a16.06 16.06 0 0 1 7.159 2.77c.833.586 1.678 1.267 2.3 2.084.176.231.303.497.443.747-.866-.284-1.751-.41-2.66-.454-1.763-.086-3.541-.061-5.306-.063-.354 0-2.848.914-1.699 1.322 4.432 1.576 7.232 5.616 11.772 7.062.522.183.976.516 1.43.818-.38.022-.728.054-.872.053" style="fill:#122a89"/><path d="M74.27 72.012c6.449-7.466 14.533-12.553 23.93-15.488-9.835.373-19.635 6.597-23.93 15.488m43.423-22.364c5.945 2.06 12.019 3.656 17.255 6.819 5.288 3.082 9.588 7.614 13.99 12.108-6.943-11.926-17.657-17.823-31.245-18.927" style="fill:#122a89"/><path d="M103.177 52.253c.234-2.238.707-4.432 1.488-6.808-3.657 2.921-4.395 9.071-1.553 12.785a32.6 32.6 0 0 1 .051-5.753c13.436.149 26.28 4.071 37.513 11.502-9.652-9.382-24.208-13.882-37.499-11.726" style="fill:#122a89"/></svg>