<svg xmlns="http://www.w3.org/2000/svg" xml:space="preserve" viewBox="0 0 215 220"><path d="M149.033 95.029c-4.559-4.559-9.527-8.997-18.167-11.265-1.149-.302-6.425-1.053-7.58-5.41-.207-.779-.417-1.181-.626-1.271a41 41 0 0 1-.439-2.218c-.216-1.323-4.177 3.636-4.98 3.384 0 0-1.192-4.705-1.523-5.712-1.078-3.182-2.844 1.881-5.014 3.5-.126-1.669-.807-4.189-1.705-5.7-1.609-2.704-1.822.406-2.871 2.481-1.141 1.787-1.525 3.337-2.111 3.948-1.065-.32-4.217-3.776-5.249-3.961-1.895-.34-.574 1.254-.167 4.602.074.611.184 2.2.219 2.82-1.756-.473-5.126-7.529-5.337-5.497-.09.867-.297 1.85-.567 2.898a5 5 0 0 0-.243.727c-1.155 4.357-6.432 5.108-7.58 5.41-8.64 2.268-13.608 6.705-18.167 11.265-8.161 8.161-9.794 21.009-9.794 26.204 0 14.252 3.541 35.098 6.184 28.079.176-.647.308-1.435.425-2.289 1.046-7.677.253-22.887 7.616-31.397 7.813-9.031 15.219-11.583 19.595-12.024 1.928 3.185 4.615 6.084 7.336 6.341 1.859.429.486-4.819 1.477-3.642 1.429 1.697 3.804 4.993 6.025 3.827 1.32-.693 3.041-2.897 2.977-4.358 2.123.521 4.076 8.541 8.957.303.489 1.88 2.446 4.141 4.225 2.201 1.086-1.184 2.723-2.297 4.132-4.528 4.457.733 11.318 3.548 18.527 11.88 7.363 8.51 6.57 23.719 7.616 31.397.116.854.249 1.642.425 2.289 2.643 7.019 6.184-17.267 6.184-28.079-.006-5.196-2.227-18.631-9.8-26.205" style="fill:#122a89"/></svg>