<svg xmlns="http://www.w3.org/2000/svg" xml:space="preserve" viewBox="0 0 215 220"><path d="M163.826 105.506c-.612-7.507-4.153-11.23-9.072-17.886-7.115-9.626-23.815-17.4-35.291-18.283-7.44-.572-37.265 5.104-43.722 7.504-9.927 3.688-23.164 28.473-23.404 35.514-.265 7.757-1.169 16.812.355 22.922.301 1.208 4.052 6.189 6.554 15.426-.421-8.176 2.186-14.14 4.626-20.641 1.197-3.189 2.355-6.505 3.094-10.278 1.695-8.648 8.584-14.578 19.751-16.413-.254 2.195-.468 3.87-.841 4.346-.811 1.035-1.233 5.339.842 3.067 2.812-3.079 4.524-5.101 11.48-6.978-1.17 3.774-4.195 7.212-8.713 9.815-1.42.818 4.201-.336 5.809-1.023 8.812-3.762 12.457-5.987 17.936-11.773-.851 3.536-3.463 6.824-7.652 9.326-1.402.837 3.379.327 5.012-.334 5.158-2.088 6.346-2.986 9.094-6.423l.242 7.694c.031.999 3.153-1.056 3.868-2.099 1.014-1.477 4.488-2.835 8.468-4.172 5.459 8.186 14.067 10.693 19.237 18.411.055.082.108.183.161.277 3 5.244 4.309 28.901 5.053 25.293.59-2.858 5.611-13.254 6.513-18.597 1.094-6.476 1.24-16.845.6-24.695" style="fill:#122a89"/></svg>