<svg xmlns="http://www.w3.org/2000/svg" xml:space="preserve" viewBox="0 0 215 220"><path d="M162.295 136.522c-3.21-1.912-6.854-2.742-10.535-3.248-.295 3.167-.722 6.61-1.343 10.527-.706 4.449-1.675 8.08-2.906 11.231.053.047.1.103.153.149.483.42.987.777 1.505 1.093-.57 2.194-1.188 4.373-1.532 6.443-.938 5.652-.135 12.358 6.288 14.317 1.006.307 2.531.004 3.554-.429.509-.215 1.846-.979.811-1.294-6.504-1.984-6.441-9.679-5.202-15.17.175-.775.372-1.561.575-2.352.35.037.705.034 1.059.041 2.321 4.234 4.161 9.762 2.062 14.026-.4.812.589.822.935.758.697-.129 1.596-.632 1.985-1.422 2.084-4.233.798-9.471-1.298-13.787.61-.152 1.218-.333 1.821-.556 3.955-1.467 8.45-4.425 8.876-9.019.451-4.862-2.839-8.943-6.808-11.308m-2.964 8.922c.228.741.392 1.524.421 2.301.017.458.003.978-.163 1.41-.015.039-.059.109-.1.178a3 3 0 0 1-.318-.086c-.709-.261-1.324-.755-1.838-1.296-2.102-2.215-2.511-5.253-2.51-8.22 2.133 1.27 3.778 3.338 4.508 5.713m2.988 6.71c-1.328 1.327-3.32 2.509-5.299 2.7a58 58 0 0 0-1.947-2.971l.026-.141c.908.407 1.892.64 2.916.66 1.844.036 3.97-.529 5.379-1.827-.267.567-.603 1.107-1.075 1.579m-97.638.038c.513-1.978 1.137-3.98 1.669-6.017a75 75 0 0 1-.416-2.374c-.698-4.401-1.148-8.199-1.443-11.682-.74.01-1.35.255-1.176.789 2.344 7.161-1.04 13.733-2.392 20.088-1.122 5.275-1.215 12.146 2.757 16.124.622.623 1.635.811 2.336.709.348-.051 1.282-.377.642-1.018-4.023-4.029-3.28-11.598-1.977-16.619m84.021-43.42c3.622 8.594-.779 22.87 2.875 17.684.238-.338.462-.672.693-1.008 6.72-9.797 10.035-18.638 9.296-31.699-.58-10.252-2.614-18.492-7.624-26.717-5.707-9.37-10.345-12.098-16.8-16.523-3.901-2.674-20.947-11.353-34.492-5.905l-.009.003c-5.909-.545-13.668 1.556-16.909 3.148-16.45 8.078-25.638 20.613-29.191 33.507-1.603 5.818-3.323 18.291.489 28.913 1.676 4.67 4.462 16.077 6.929 15.792.055-.018.093-.056.142-.082 1.405-.724.361-4.506-.156-7.964-.202-1.351-.324-2.652-.181-3.694q.05-.358.177-.778c.582-1.927 2.351-4.803 4.783-8.284-.458 4.937-.511 9.909-.042 14.811.158 1.647 5.276.554 5.093-1.365-.694-7.248-.194-14.651 1.094-21.851 1.011-1.354 2.052-2.745 3.106-4.163-.785 7.265-.672 14.663-.276 21.405.104 1.77 5.214.694 5.093-1.365-.507-8.637-.606-18.801 1.357-28.194 1.752-2.219 3.436-4.214 5.13-6.005-2.467 11.165-3.606 22.485-2.024 33.884.252 1.818 5.371.637 5.093-1.365-1.559-11.239-.398-22.398 2.083-33.414.353-1.568.693-3.12 1.087-4.646.49-.349.994-.677 1.502-.999a139 139 0 0 0-1.199 10.017c-.831 9.827-1.358 20.34.637 30.067.38 1.853 5.492.583 5.093-1.365-1.948-9.497-1.437-19.703-.626-29.297.345-4.081.832-8.162 1.562-12.196.302-.12.593-.25.903-.364-.117 3.476-.059 6.965-.034 10.382.08 10.59.685 21.13 2.302 31.603.293 1.898 5.409.685 5.093-1.365-1.616-10.465-2.233-20.997-2.289-31.579-.018-3.325-.061-6.716.066-10.094l.731.488c2.792 13.926 4.614 27.91 4.933 42.201.061 2.725 5.22 2.004 5.168-.357-.281-12.61-1.684-24.992-3.889-37.303a80 80 0 0 1 2.47 2.082c.796 2.427 1.501 4.88 2.121 7.341 2.397 9.521 3.645 19.484 2.684 29.29-.257 2.623 4.934 1.936 5.161-.383.953-9.724-.205-19.67-2.489-29.15a421 421 0 0 1 3.56 3.618c2.67 8.984 4.26 18.548 3.588 27.905-.164 2.275 4.978 1.369 5.116-.55.472-6.562-.102-13.226-1.38-19.732a238 238 0 0 1 3.297 3.569c1.703 7.21 2.685 14.673 2.178 22.005-.049.712 4.988.152 5.093-1.365.284-4.108.086-8.258-.427-12.385 1.126 1.581 1.849 2.819 2.259 3.791" style="fill:#122a89"/></svg>