<svg xmlns="http://www.w3.org/2000/svg" xml:space="preserve" viewBox="0 0 215 220"><path d="M164.909 177.091c-1.774-.683-3.325-2.17-4.736-3.474 1.698-.913 3.379-2.075 4.713-3.385 2.098-2.059 1.903-5.45 1.193-8.034-1.455-5.297-5.87-9.163-10.687-11.498a22.5 22.5 0 0 0-3.317-1.284 20 20 0 0 0-2.207-.532 18 18 0 0 0-.884-.138c-.046.238-.096.463-.144.696-.046.223-.09.448-.138.666-.838 3.884-1.92 7.075-3.31 9.92a34.4 34.4 0 0 1-2.836 4.808q-.27.391-.552.779-.167.226-.337.451c-.134.179-.264.359-.402.537l-.205.262c-.065.083-.135.166-.201.249-.239.301-.477.602-.727.903l-.026.032c.026.044.048.09.074.134.135.225.281.447.423.671q.626.987 1.297 1.961c1.662 2.416 3.418 4.822 4.423 7.546.217.589.212 1.253.443 1.823.415 1.024 1.737 1.003 2.537.417.684-.501.924-1.421 1.17-2.185.195-.608.327-1.201.424-1.801 1.984 1.224 3.983 2.043 6.27 2.481 2.297.44 4.474.564 6.775.064.576-.125 2.102-.419 2.223-1.176.095-.597-.869-.744-1.256-.893m-16.673-2.446q-.007.519-.037 1.037a36 36 0 0 0-1.33-2.346 74 74 0 0 0-1.239-1.946 332 332 0 0 1-1.872-2.845c.038-.049.072-.098.11-.147q.358-.468.701-.941l.073-.097c.053-.073.11-.145.163-.219.257-.36.502-.725.747-1.09q.078-.112.154-.225l.22-.336c.099.182.205.359.298.543.46.914.875 1.849 1.193 2.814.128.386.233.767.329 1.146q.046.184.087.368a15.4 15.4 0 0 1 .37 2.528l.004.096c.022.363.04.727.04 1.103-.002.186-.009.371-.011.557m.682-9.658a21 21 0 0 0-1.353-2.27q.47-.873.904-1.786a40 40 0 0 0 1.452-3.506q.333-.922.637-1.896c.406-1.3.774-2.674 1.106-4.139.016-.068.029-.143.044-.212.464.205.903.414 1.303.613 3.93 1.962 8.009 5.126 9.68 9.324 1.028 2.581 1.619 5.526.393 8.132-.719 1.527-2.346 2.565-3.838 3.506q-.401-.374-.799-.753a7.6 7.6 0 0 0 .275-1.554c1.431-.535 2.352-2.184 2.429-3.771.027-5.115-5.248-8.307-9.549-9.658 3.389 3.234 11.006 7.951 7.126 13.169.147-4.149-2.839-8.591-7.143-8.925 3.539 2.408 5.491 5.771 5.745 9.686a63 63 0 0 0-2.299-2.114c-1.874-1.588-3.86-2.915-6.113-3.846m.75 14.505c.231.024.13.06 0 0m10.54-1.523a18.36 18.36 0 0 1-8.258-3.43c-.304-.225-.59-.474-.88-.717-.001-.227.004-.457-.003-.682-.013-.379-.047-.753-.08-1.127a17.4 17.4 0 0 0-.755-3.817c.743.517 1.47 1.064 2.18 1.666 1.451 1.252 2.819 2.593 4.216 3.902q.263.246.528.489c-.008.048-.008.094-.017.142-.008.047-.008.092-.016.14.046-.054.078-.115.122-.17l.013-.018.012.011.368.34a40 40 0 0 0 2.115 1.802c.673.529 1.499 1.195 2.365 1.626a13.4 13.4 0 0 1-1.91-.157M107.407 40.548l.009-.003-.06.002c.108.004.17.003.051.001" style="fill:#122a89"/><path d="M142.298 93.165c-.315 1.473-1.726 4.403-.906 5.881.361.65.904.638 1.546.821.95.271 1.652.67 2.269 1.462 2.535 3.25 1.996 8.604 2.395 12.473.151 1.464.275 3.407 1.31 4.572 1.052 1.184 2.87.999 4.288.761 5.759-.966 4.262-7.318 5.304-11.568.661-2.694 2.575-4.772 3.425-7.384.999-3.072.987-6.608.918-9.807-.158-7.338-1.662-14.771-4.326-21.608-1.104-2.832-2.448-5.562-4.137-8.093-2.229-3.265-4.568-6.451-7.47-9.157-3.528-3.289-7.703-5.809-12.069-7.821-5.286-2.437-10.79-3.71-16.573-4.269-2.924-.282-5.84-.296-8.769-.426l-.007.228a.84.84 0 0 0-.441-.204c-.162-.003-.327-.023-.489-.03-.031-.001-.064.013-.096.013l.034-.011c-8.102.037-16.466.608-24.052 3.684-6.251 2.535-12.214 6.035-16.855 10.987-9.043 9.649-13.557 22.544-14.23 35.639-.167 3.24-.136 6.57.45 9.77.52 2.838 2.298 4.882 3.334 7.493 1.472 3.707-.46 11.63 4.9 12.578 3.839.679 5.853-1.196 6.372-4.853.579-4.078-.044-8.965 2-12.693.42-.766.946-1.431 1.784-1.73.797-.285 1.634-.223 2.249-.931 1.098-1.263.072-3.574-.273-4.949-.745-2.965-1.273-5.846.752-8.405 2.558-3.233 5.623-6.103 8.928-8.561 2.045-1.521 4.428-3.26 6.915-3.98 3.571-1.033 7.501.806 10.646 2.347 1.843.904 3.968 2.421 6.102 2.451 2.24.031 4.455-1.483 6.381-2.439 3.225-1.599 6.986-3.355 10.655-2.331 2.441.681 4.771 2.286 6.801 3.739a50 50 0 0 1 8.394 7.567c1.114 1.262 2.396 2.547 2.771 4.239.333 1.497.086 3.065-.23 4.545m12.008 23.672a1.9 1.9 0 0 1-.448.504 26.5 26.5 0 0 0 1.486-5.793c-.07 1.874-.155 3.774-1.038 5.289m-89.672.973c-.051.191-.783.099.01-.029q-.004.015-.01.029m71.59-40.368c-3.855-3.105-8.432-6.461-13.621-6.193-3.078.159-6.018 1.241-8.779 2.549-1.694.802-4.21 2.886-6.092 2.228-2.61-.912-4.954-2.535-7.554-3.509-2.663-.997-5.511-1.585-8.352-1.134-5.059.803-9.807 4.626-13.517 7.909-2.431 2.151-5.513 4.806-6.989 7.741-1.093 2.174-.639 4.764-.105 7.026.245 1.038.572 2.064.762 3.114.068.377 0 .936.112 1.279.002.006.007.007.01.012-.071.01-.149.023-.256.045-1.643.351-3.095 1.484-3.944 2.91-2.048 3.442-1.752 7.974-2.115 11.821-.085.897-.177 1.803-.381 2.682-.151.649-.561 1.22-.741 1.813a2.3 2.3 0 0 1-.349-.028c-.378-.075-.768-.048-1.136-.188-.911-.347-1.33-1.098-1.623-1.988-.678-2.057-.613-4.245-.841-6.384a.78.78 0 0 0 .266-.613c-.02-4.065.243-8.132.99-12.125 1.596-9.131 9.477-27.057 19.102-29.563-4.215.471-7.442 3.815-10.011 6.927-5.343 6.393-9.07 14.134-10.707 22.318a56 56 0 0 0-.548 3.22c-.796-10.286.466-20.876 7.445-28.872-8.79 8.365-9.93 21.038-8.708 32.652-.662-1.156-1.318-2.314-1.674-3.62-1.759-6.447-.735-14.04.611-20.463 1.356-6.47 3.545-12.89 7.304-18.373 3.261-4.757 6.934-9.032 11.803-12.212 6.917-4.517 14.533-6.875 22.729-7.561a95 95 0 0 1 6.574-.299c.465-.006.971.013 1.468-.015-.219-.006-.646-.029-.277-.106.091-.019.272.037.423.075l-.086.029c.06-.004.121 0 .181-.006.014.002.038.011.05.012 1.386.11 2.809.027 4.2.079 2.849.106 5.696.325 8.516.751 5.284.797 10.185 2.485 14.917 4.959 7.041 3.68 12.073 8.937 16.5 15.42 3.722 5.577 5.822 12.259 7.092 18.794.676 3.482 1.095 7.023 1.174 10.571.071 3.203.065 6.865-1.085 9.903-.366.967-.862 1.859-1.365 2.745.876-8.11-.624-16.567-4.307-23.762 2.169 8.799 3.133 17.553 2.897 26.505a10 10 0 0 0-.479 1.41c-.035.144-.053.299-.081.447.239-8.145-2.894-16.525-8.783-22.021 6.201 9.269 8.522 20.271 6.661 31.216-.739.36-1.668.22-2.18-.564-.865-1.325-.876-3.367-1.003-4.884-.313-3.738-.045-8.419-2.324-11.627-.429-.604-.954-1.119-1.598-1.493-.555-.322-1.898-.399-2.237-.806-.816-.978.826-4.789 1.034-5.867.449-2.326.509-4.695-.905-6.705-2.177-3.091-5.139-5.822-8.068-8.181" style="fill:#122a89"/><path d="M78.829 53.449c8.162-6.196 17.894-9.093 28.116-8.399-9.746-3.313-21.78.292-28.116 8.399m-.889 7.756c4.811-3.37 9.446-5.724 14.994-7.651-5.829-.62-12.071 2.575-14.994 7.651" style="fill:#122a89"/><path d="M76.913 59.288c5.663-5.493 12.499-8.641 20.349-9.403-7.712-1.912-16.802 2.298-20.349 9.403m35.919 9.564c9.779-2.492 19.724.195 26.936 7.251-5.1-8.908-18.053-12.386-26.936-7.251m19.637-3.696c7.862 5.018 13.65 11.954 17.207 20.574-1.016-9.293-8.246-17.924-17.207-20.574m10.974 3.415c2.809 4.295 5.023 8.145 7.35 12.72.141-5.108-2.862-10.287-7.35-12.72m-35.36 2.226c.935-7.742.949-15.225.931-23.018-2.391 7.417-2.409 15.411-.931 23.018" style="fill:#122a89"/></svg>