<svg xmlns="http://www.w3.org/2000/svg" xml:space="preserve" viewBox="0 0 215 220"><path d="M165.226 105.1c-.365-3.822-1.605-7.251-3.661-10.484-2.138-3.362-4.607-6.787-7.288-9.735-5.081-5.587-11.989-9.604-18.916-12.445-5.547-2.275-11.704-4.181-17.764-3.959-5.52.202-11.035 1.117-16.473 2.026-6.078 1.017-12.143 2.175-18.148 3.564-4.036.933-8.171 1.771-11.555 4.291-4.863 3.623-8.567 8.88-11.744 13.97-3.105 4.973-5.964 10.306-7.8 15.893-.957 2.912-.991 5.689-1.139 8.744-.236 4.851-.554 9.754-.1 14.602.278 2.965 1.012 4.81 2.369 7.345 2.067 3.861 3.663 7.915 4.837 12.134.29 1.042 2.842.262 2.801-.751-.23-5.724 1.291-10.905 3.103-16.058 1.174-3.337 2.468-6.662 3.492-10.116 1.078-3.637 1.449-7.375 3.489-10.659 1.879-3.025 4.664-5.347 7.853-6.894 7.191-3.488 15.502-2.791 23.191-4.333 4.076-.817 8.117-1.897 12.002-3.388a39 39 0 0 0 4.441-2.01c.355-.19.797-.369 1.11-.627.091-.075.138-.123.197-.178 2.876.807 5.418 1.704 7.629 3.856 1.494 1.455 2.38 3.214 3.482 4.954 1.213 1.916 2.686 3.645 4.327 5.208 2.773 2.64 5.977 4.753 8.954 7.145 2.547 2.046 5.549 4.543 6.818 7.64.551 1.345.968 2.763 1.31 4.215.888 3.778 1.213 7.804 1.69 11.52.303 2.364.552 4.742.934 7.095.205 1.261.236 2.507 1.883 2.233 1.993-.332 2.196-3.353 2.794-4.886 1.497-3.839 3.163-7.622 4.399-11.557 1.294-4.119 1.578-8.466 1.757-12.759.215-5.193.131-10.411-.274-15.596m-2.92 21.274c.046-.163.076-.331.119-.495-.177 2.101-.46 4.191-.986 6.203-.904 3.456-2.301 6.785-3.63 10.093l-.737 1.828-.13-1.006a.8.8 0 0 0 .513-.496c4.316-10.724 4.578-23.593-1.415-33.706 3.608 8.026 4.078 16.855 2.225 25.265-.25-10.764-5.265-21.444-13.85-27.993 8.63 8.209 13.182 20.516 11.934 32.324-.521-4.093-1.059-8.23-2.14-12.208-1.328-4.886-5.205-8.208-9.106-11.194-2.559-1.959-5.206-3.817-7.545-6.044-2.637-2.511-4.142-5.469-6.245-8.358-2.406-3.305-6.847-6.062-11.04-6.244-1.911-.083-3.761 1.658-5.457 2.417-3.098 1.386-6.365 2.374-9.655 3.188-11.55 2.858-25.507.859-34.501 10.196-4.813 4.996-5.174 11.635-7.395 17.893-1.339 3.774-2.758 7.42-3.813 11.142.285-6.611.661-13.097 1.164-19.801-2.708 7.292-3.383 15.389-1.969 23.052-.021.1-.035.202-.055.302-2.241-13.237-1.905-26.533 1.098-39.682-5.288 12.59-5.782 27.394-1.413 40.358a54 54 0 0 0-1.622-3.612c-.797-1.597-1.969-3.173-2.546-4.867-1.229-3.61-.936-8.082-.838-11.823.101-3.843.066-7.844.528-11.66.563-4.653 3.066-9.303 5.228-13.371 2.909-5.474 6.305-10.879 10.526-15.445 1.648-1.783 3.478-3.586 5.647-4.726 1.497-.787 3.223-1.163 4.85-1.581 5.258-1.353 10.599-2.412 15.938-3.386 5.58-1.018 11.194-1.954 16.839-2.534 5.252-.539 10.053.01 15.138 1.56 8.001 2.439 16.006 6.547 22.082 12.361 2.945 2.818 5.342 6.253 7.686 9.573 2.59 3.668 4.262 7.456 4.692 11.956q.282 3.62.354 7.249c-1.122-6.018-3.979-11.742-8.266-15.974 5.415 8.94 8.031 18.797 7.793 29.246" style="fill:#122a89"/><path d="M73.361 104.372c10.83-9.435 27.881-2.534 38.575-12.184-11.7 7.349-29.078.579-38.575 12.184" style="fill:#122a89"/><path d="M101.921 88.582c-8.84 6.197-23.769 1.006-29.489 11.997 7.381-9.005 21.774-3.522 29.489-11.997" style="fill:#122a89"/><path d="M65.717 103.781c2.748-6.622 8.133-11.192 15.121-12.802-7.284-1.158-15.067 5.375-15.121 12.802m59.851-19.544c5.791 3.837 10.496 8.117 14.883 13.503-2.142-6.588-8.123-12.002-14.883-13.503m1.425-4.002c6.14 3.455 11.156 7.533 15.813 12.819-2.455-6.587-8.865-11.771-15.813-12.819m4.424-2.743c5.816 3.457 10.579 7.373 15.117 12.391-2.349-6.326-8.457-11.321-15.117-12.391" style="fill:#122a89"/></svg>