<svg xmlns="http://www.w3.org/2000/svg" xml:space="preserve" viewBox="0 0 215 220"><path d="M170.411 140.081c1.461-9.885 1.667-18.498-2.128-39.749-2.879-16.122-5.158-22.199-10.169-30.425-5.707-9.37-14.213-16.848-20.668-21.273-3.375-2.313-16.953-8.347-29.325-6.411-12.403-1.987-26.056 4.091-29.441 6.411-6.455 4.425-14.96 11.903-20.668 21.273-5.01 8.226-7.29 14.303-10.169 30.425-3.795 21.252-3.589 29.864-2.128 39.749 3.565 24.118-1.937 21.753-2.63 32.341-.181 2.763 8.135-.25 16.481 3.615 6.936 3.212 12.867 2.382 13.352.24.86-3.802 1.274-7.94 1.272-12.421-4.122-5.316-6.903-11.189-8.449-20.932-1.632-10.283-1.932-17.332-1.983-24.55l.007.01c.053-.898.015-1.989-.018-3.244l.001-3.948c.124-3.223.656-7.047 2.48-11.225 1.415-3.239 3.65-6.313 6.373-9.444 1.823 4.828 6.247 8.236 12.052 8.636 1.917.132 4.19-1.004 5.569-2.364.87.777 1.789 1.525 2.811 2.208 2.382 1.594 7.806-.393 8.949-2.755a21.3 21.3 0 0 0 4.272 2.886c2.062 1.05 6.097-.225 8.088-1.931.258.342.512.691.775 1.021 2.426 3.049 10.45.25 9.901-3.157a22.3 22.3 0 0 0 4.918 3.102c2.138.98 9.117-1.657 9.041-3.5 17.215 24.531 7.697 36.721 4.774 51.82-1.211 6.253-1.798 11.94-1.817 17.156-.016 4.564.4 8.771 1.273 12.633.485 2.142 6.416 2.973 13.352-.24 8.346-3.865 16.662-.852 16.481-3.615-.692-10.589-6.194-8.224-2.629-32.342M82.688 79.952l.242-.248c-.305 4.261.801 8.585 3.282 12.417-4.259-1.784-4.69-7.726-3.524-12.169M97.17 90.117c-5.274-6.13-6.052-15.044.185-20.818-3.32 6.638-3.429 14.475-.185 20.818m13.141.774c-6.777-6.437-7.289-17.838-.501-25.02.266.074.537.159.806.239-6.198 7.344-4.548 16.75-.305 24.781m7.365-8.976c-1.363-4.186-1.496-8.495.868-12.227.311.222.585.479.876.721-1.691 3.796-2.237 7.751-1.744 11.506m20.507 11.846c-6.125-2.809-9.555-8.286-10.261-14.268 3.524 4.395 5.629 7.941 8.584 11.794a100 100 0 0 1 1.969 2.659c-.094-.062-.168-.128-.292-.185" style="fill:#122a89"/></svg>