<svg xmlns="http://www.w3.org/2000/svg" xml:space="preserve" viewBox="0 0 215 220"><path d="M175.045 148.445c3.185-11.047-7.372-9.723-5.319-35.137.9-11.148 2.639-23.85-8.828-42.853-4.769-7.903-11.621-12.128-23.45-21.613-3.192-2.559-16.896-8.412-29.305-6.428-12.435-2.027-26.205 3.862-29.405 6.428-11.829 9.484-18.681 13.71-23.45 21.613-11.467 19.004-9.728 31.705-8.828 42.853 2.053 25.414-8.504 24.09-5.319 35.137 6.03 20.917-6.117 21.946 4.616 27.461 9.65 4.958 12.545-.596 18.955.629 15.624 2.985 8.908-6.153 6.533-16.799-2.537-4.313-4.359-9.398-5.503-16.604-1.632-10.283-1.932-17.332-1.983-24.55l.007.01c.054-.907.015-2.028-.018-3.301l.001-3.854c.065-1.72.244-3.609.675-5.635 2.108.867 8.232-.774 7.95-3.074-.493-4.012-.321-8.135.399-12.195a97 97 0 0 1 1.539-1.718c-.379 3.672-.408 7.508-.095 11.468.104 1.313 8.828-.167 8.658-2.32-.533-6.742-.204-13.512 1.547-19.596q.542-.568 1.087-1.147c-1.724 6.884-1.904 14.257-.692 20.952.702 3.875 9.384 1.688 8.658-2.32-.794-4.382-.929-9.495-.237-14.543-.187 6.061.475 11.966 1.789 16.616 1.094 3.87 9.751 1.546 8.658-2.32-1.434-5.072-2.064-12.354-1.402-19.422.281 7.192 1.502 14.447 2.951 20.848.635 2.805 9.323.62 8.658-2.32-1.566-6.921-2.872-14.727-2.969-22.362 2.096 8.076 3.458 16.243 3.82 24.793.138 3.271 8.815 1.404 8.658-2.32-.283-6.698-1.18-13.16-2.559-19.529 2.923 6.951 4.292 14.504 3.38 21.959-.432 3.535 8.297 2.006 8.669-1.039.485-3.968.377-7.962-.226-11.89.757 1.581 1.403 3.073 2.103 4.491.816 3.768 1.132 7.598.827 11.354-.06.74 3.992.556 6.574-.461 7.832 16.076-6.541 36.514.287 44.883 3.616 4.432 3.631 9.613 2.624 14.521-2.238 10.909-9.533 20.464 6.395 17.42 6.41-1.225 9.305 4.329 18.955-.629 10.731-5.511-1.415-6.541 4.615-27.457" style="fill:#122a89"/></svg>