<svg xmlns="http://www.w3.org/2000/svg" xml:space="preserve" viewBox="0 0 215 220"><path d="M171.57 83.055c-.972-12.855-1.015-18.607-11.237-30.959-15.829-19.126-38.724-19.685-43.874-20.391-.13-.019-.259-.045-.389-.064-.326-.069-.424-.081-.225-.037-13.77-1.967-27.498 1.241-34.933 9.664-3.368.827-17.231.911-28.168 18.472-3.652 5.864-6.553 15.941-7.61 28.648-.61 7.331-.228 22.816 5.882 29.986-.698 19.413 6.047 36.224 6.9 51.04.965 16.755 1.652 8.308 4.211 4.361 0 0 .987 5.149 3.133 9.05 2.46 4.471 6.108 7.645 5.879 5.381-.812-8.028.965-14.972 4.835-22.552.051-.1.091-.193.141-.292-5.187-5.992-8.588-12.079-10.362-23.256-.702-4.426-1.153-8.243-1.449-11.742 1.766.61 3.269.024 2.876-.715-2.804-5.278-3.872-21.724 2.188-37.167 4.509-11.49 11.795-17.896 16.431-20.415 8.488 15.326 18.457 27.572 31.532 33.064.98.412 6.642 1.709 7.309.897 4.885 3.73 9.817 6.713 14.806 8.752.836.342 4.203 1.082 6.366 1.127 3.241 3.744 5.222 7.709 3.837 13.393-.176.722.707.741 2.13-.103-.29 3.813-.763 7.988-1.544 12.909-1.774 11.178-5.174 17.264-10.361 23.256.05.099.09.192.141.292 3.871 7.58 5.648 14.523 4.835 22.552-.229 2.265 3.419-.91 5.879-5.381 2.146-3.9 3.133-9.05 3.133-9.05 2.56 3.948 3.247 12.395 4.211-4.361.92-15.982 8.693-34.286 6.584-55.674 6.858-7.234 7.48-23.188 6.913-30.685M51.219 114.816c-.31-.946-.565-1.836-.662-2.489-.636-4.32-1.113-8.548-1.353-12.727a43 43 0 0 0 2.847 8.942 72 72 0 0 0-.832 6.274m65.474-13.672C103.549 90.58 98.556 83.281 91.346 70.053l.294-.071c10.189 13.998 20.529 26.028 31.093 34.545-1.454-.557-3.581-1.406-6.04-3.383m20.452 8.056c-17.102-12.84-25.497-22.296-37.124-38.093 2.57 1.57 5.65 4.375 9.283 8.965 20.167 25.485 18.751 18.295 31.487 30.707q.862.839 1.696 1.655c-1.484-.688-3.268-1.677-5.342-3.234m26.737-.965c1.303-5.61 2.183-12.376 2.889-20.366q.07-.78.16-1.566c.26 5.814-.091 12.749-1.492 21.065-.151.894-.615 2.223-1.119 3.545a69 69 0 0 0-.438-2.678" style="fill:#122a89"/></svg>