<svg xmlns="http://www.w3.org/2000/svg" xml:space="preserve" viewBox="0 0 215 220"><path d="M167.801 108.144c-2.427-14.266-4.66-22.199-9.671-30.425-5.707-9.37-14.213-16.848-20.668-21.273-3.373-2.312-16.937-8.341-29.304-6.415-12.394-1.97-26.025 4.097-29.407 6.415-6.455 4.425-14.96 11.903-20.668 21.273-5.01 8.226-7.244 16.158-9.671 30.425-3.62 21.282-9.191 27.467-6.474 44.053 1.723 10.517 21.347 20.84 30.848 17.531-3.348-4.84-5.67-10.415-7.031-18.993-1.632-10.283-1.932-17.332-1.983-24.55l.007.01c.053-.898.015-1.989-.018-3.244l.001-3.948c.124-3.223.656-7.047 2.48-11.225 3.42-7.833 11.596-14.695 20.032-23.753 8.214-8.82 11.379-11.262 17.885-11.106 4.192 4.542 14.039 10.837 19.406 13.547 5.03 2.54 10.134 4.605 12.956 12.632 13.802 39.261 12.97 45.771 9.184 64.965-.078.396.026.729.256 1.012 2.691 3.325 24.875-1.05 28.312-12.88 4.215-14.495-2.852-22.769-6.472-44.051" style="fill:#122a89"/></svg>