<svg xmlns="http://www.w3.org/2000/svg" xml:space="preserve" viewBox="0 0 215 220"><path d="M170.411 140.081c1.461-9.885 1.667-18.498-2.128-39.749-2.879-16.122-5.158-22.199-10.169-30.425-5.707-9.37-14.213-16.848-20.668-21.273-3.375-2.313-16.953-8.347-29.325-6.411-12.403-1.987-26.056 4.091-29.441 6.411-6.455 4.425-14.96 11.903-20.668 21.273-5.01 8.226-7.29 14.303-10.169 30.425-3.795 21.252-3.589 29.864-2.128 39.749 3.565 24.118-1.937 21.753-2.63 32.341-.181 2.763 8.135-.25 16.481 3.615 6.936 3.212 12.867 2.382 13.352.24.86-3.802 1.274-7.94 1.272-12.421-4.122-5.316-6.903-11.189-8.449-20.932-1.632-10.283-1.932-17.332-1.983-24.55l.007.01c.053-.898.015-1.989-.018-3.244l.001-3.948c.124-3.223.656-7.047 2.48-11.225 3.42-7.833 11.596-14.695 20.032-23.753 9.556-10.261 12.266-11.9 21.369-10.845l.008-.065c4.183 1.018 9.337 2.574 12.638 5.809 9.101 8.916 11.624 14.166 16.232 20.174 20.578 26.831 10.3 39.422 7.245 55.201-1.211 6.253-1.798 11.94-1.817 17.156-.016 4.564.4 8.771 1.273 12.633.485 2.142 6.416 2.973 13.352-.24 8.346-3.865 16.662-.852 16.481-3.615-.693-10.588-6.195-8.223-2.63-32.341" style="fill:#122a89"/></svg>