<svg xmlns="http://www.w3.org/2000/svg" xml:space="preserve" viewBox="0 0 215 220"><path d="M166.13 109.945c-1.796-3.292-3.835-6.628-4.517-9.193-2.258-8.504-.627-13.381-6.041-18.077-2.335-2.025-8.956-8.118-13.244-11.899-7.285-6.424-21.032-8.207-28.532-6.454-14.67 3.429-14.552-1.416-27.555 1.082-7.566 1.453-9.903 4.996-14.425 9.156-2.752 2.532-7.304 5.11-11.47 8.115-6.973 5.03-4.347 18.09-10.558 27.27-2.866 4.237-1.767 17.145 4.704 23.932 2.249 2.359 5.004 6.906 4.889 13.385-.023 1.297 2.265 7.163 4.504 8.688.728.496 1.451.538 2.087-.193a.34.34 0 0 0 .051-.359c-.791-1.801-.737-5.587-.49-9.018 3.376 3.646 3.38 2.79 2.972.745-.993-4.978.191-11.038.742-14.34 1.743-2.773 4.006-5.263 6.492-8.186 8.47-1.255 12.987-5.386 15.464-9.733l.115-.209c-.082 3.778 1.057 7.603 4.389 10.715.937.875 2.575 1.349 3.74 1.41.579.03 2.156-.109 1.192-1.009-4.874-4.553-4.378-10.957-2.535-16.127 1.157 5.886 4.828 12.222 13.448 14.081 1.484.32 3.458-.05 4.7-.555.104-.042.236-.107.373-.179 3.121 2.391 7.482 3.29 13.277.654.959-.436 2-1.305 2.882-2.211 2.798 1.665 5.95 2.783 9.47 2.954 1.7 2.1 3.03 4.221 4.045 6.116.092.587.19 1.193.293 1.832.511 3.184 1.854 9.592.818 14.788-.406 2.036-.406 2.895 2.924-.693.34 7.131-1.048 9.811 1.1 9.421.223-.041.421-.09.607-.15 1.623-.517 2.025-1.97 4.794-8.34.784-1.805 2.94-10.372 4.254-13.078 5.728-11.796 6.842-21.039 5.041-24.341m-61.785-5.027a79 79 0 0 1-.063-3.167c4.647 3.395 5.505 10.698 8.053 15.822a17.2 17.2 0 0 0 2.254 3.448c-7.713-2.855-9.989-10.486-10.244-16.103m12.92 5.605c-.79-1.978-1.465-4.122-2.244-6.187.11.093.229.175.338.268 3.978 3.41 7.134 7.456 10.661 11.248a34 34 0 0 0 3.972 3.662c-6.817 1.01-10.83-4.243-12.727-8.991" style="fill:#122a89"/></svg>