<svg xmlns="http://www.w3.org/2000/svg" xml:space="preserve" viewBox="0 0 215 220"><path d="M170.411 106.46c-.978-5.187-2.199-10.316-4.517-15.087-2.751-5.663-6.789-10.556-11.097-15.101-8.234-8.686-18.716-16.398-30.188-20.15-10.665-3.488-22.004.253-31.962 4.371-1.765.73-3.513 1.502-5.236 2.325-1.549.741-2.058.441-3.93.511-4.579.172-9.496.662-13.429 3.229-3.04 1.985-5.25 5.077-7.637 7.753-3.914 4.39-6.971 9.616-9.521 14.892-3.026 6.26-5.247 12.867-6.008 19.797-.521 4.752-.305 9.07 2.697 12.978 1.317 1.714 3.377 3.122 4.335 5.05.803 1.615 1.153 3.562 1.538 5.306 1.123 5.082 1.861 10.275 2.345 15.455.287 3.083-.372 19.355 5.287 17.285 1.357-.496 1.712-1.863 1.828-3.281.072-.882.053-1.784.121-2.51.408-4.346.805-8.693 1.208-13.04.355-3.826.694-7.654 1.092-11.475.619-5.947 3.22-10.364 7.1-14.795 1.016-1.16 2.017-2.33 3.028-3.493-.709 3.838-.531 8.017 2.243 10.477 1.065.944 2.686 1.759 4.106 1.052 1.967-.98.583-3.684.549-5.324-.25-12.074 11.138-19.004 18.892-26.475 4.075 2.677 7.842 5.723 11.169 9.312 3.503 3.778 6.571 7.976 10.261 11.578 5.868 5.729 13.147 8.835 21.042 6.53 4.05 8.199 3.814 17.846 4.164 26.811.142 3.646.151 7.361.697 10.976.079.525.188 1.091.352 1.62.381 1.228 1.096 2.233 2.689 1.899 3.049-.64 2.622-4.858 3.148-7.157.661-2.888 1.854-5.329 2.261-8.268.943-6.806 1.546-13.676 2.827-20.432.233-1.23.393-2.667.954-3.805.786-1.595 2.442-3.239 3.442-4.912 2.319-3.88 4.855-9.233 4.15-13.902m-4.675 9.455c.778-4.023.339-8.284-1.496-11.854.809 5.807.25 11.368-1.655 16.677.49-6.396-.318-12.906-2.594-18.855.92 7.431 1.081 14.694.805 22.048a12 12 0 0 0-.552 1.013c.986-13.18-6.239-27.082-17.792-33.499 10.396 8.667 16.62 21.2 17.327 34.647-.043.131-.098.256-.135.39-1.599 5.908-2.049 12.21-2.805 18.266-.305 2.444-.554 4.911-1.002 7.334-.224 1.209-.874 2.367-1.305 3.728-.506 1.596-.795 3.218-1.052 4.861a7.5 7.5 0 0 1-.222-1.041c-.416-3.69-.446-7.431-.595-11.139-.201-4.99-.436-9.993-1.061-14.952-.555-4.402-1.581-7.951-3.672-11.884-.338-.636-1.415-.404-1.905-.218-8.986 3.404-16.597-2.822-22.169-9.244-2.959-3.411-5.784-6.951-9.007-10.123-3.193-3.141-6.755-5.841-10.539-8.229-.724-.457-1.69-.185-2.252.392-6.534 6.703-14.759 11.58-18.709 20.457-.865 1.943-1.5 4.035-1.73 6.153a16.5 16.5 0 0 0-.046 3.01q.047.633.139 1.262a3.8 3.8 0 0 1-.562-.666c-.783-1.217-.936-2.805-1.029-4.221-.196-2.987.449-5.883 1.542-8.65.593-1.501-1.878-1.338-2.516-.59-3.972 4.661-8.714 9.127-11.786 14.462-2.076 3.606-2.669 7.511-3.065 11.569-.767 7.865-1.457 15.737-2.203 23.604-.009.095-.03.221-.055.36l-.005-.012c-.851-3.1-1.017-6.27-1.122-9.458-.137-4.142-.659-8.287-1.289-12.385a25 25 0 0 0 1.048 3.434c-1.315-10.517.825-20.751 6.219-29.872-5.665 5.694-8.516 14.197-7.907 22.283-.481-3.015-1.08-6.107-2.313-8.812-.292-.641-.717-1.194-1.178-1.725-.362-10.339 2.722-20.754 8.83-29.159 1.014-1.403 2.611-3.301 3.749-4.572a77 77 0 0 0-2.295 1.91l-2.123 2.119-1.903 2.328c-5.564 7.312-8.299 16.783-7.597 25.95a21 21 0 0 1-1.057-1.118c-.095-.111-.183-.228-.277-.34a38.03 38.03 0 0 1 11.815-31.64c-10.141 6.018-15.38 19.565-12.384 30.942-1.02-1.31-1.89-2.722-2.34-4.344-1.475-5.309.162-12.03 1.734-17.129 1.916-6.215 4.803-12.198 8.272-17.692 2.396-3.794 5.324-7.128 8.297-10.472 2.41-2.71 4.99-4.431 8.588-5.161 2.821-.572 5.747-.671 8.617-.704 1.389-.016 1.976-.251 3.131-.806 8.454-4.058 18.486-8.228 28.024-7.795 5.644.256 11.156 2.879 16.008 5.583 4.984 2.777 9.747 6.044 14.08 9.759 8.561 7.34 16.251 16.68 19.297 27.696.676 2.443 1.184 4.929 1.654 7.419.423 2.808-.599 5.94-1.875 8.705" style="fill:#122a89"/><path d="M126.202 98.887c3.139 5.647 8.041 10.387 13.766 13.56-13.277 1.408-16.815-15.941-27.17-21.037 4.944 4.014 7.523 9.705 11.488 14.607 3.536 4.658 10.093 8.847 16.005 6.604 3.398 1.839 7.075 3.132 10.843 3.731-9.585-4.085-17.826-9.845-24.932-17.465m-3.576-8.516c8.289 4.103 11.259 15.218 20.681 17.495-8.071-4.377-11.123-15.527-20.681-17.495m6.203-21.72c-10.297-9.468-28.175-9.176-38.17.606 11.599-7.49 26.336-7.715 38.17-.606" style="fill:#122a89"/><path d="M92.367 72.278c7.072-3.982 14.613-5.602 22.698-4.904-7.462-3.265-17.245-1.143-22.698 4.904" style="fill:#122a89"/><path d="M93.896 74.282c8.748-4.061 18.435-4.167 27.278-.325-7.506-6.215-19.919-6.058-27.278.325m-13.212 33.217c3.671-8.592 10.88-14.749 19.932-17.058-9.475-.42-18.875 7.636-19.932 17.058" style="fill:#122a89"/><path d="M93.366 90.245c-6.994-.26-13.984 5.5-15.087 12.406 3.595-5.918 8.59-10.014 15.087-12.406" style="fill:#122a89"/></svg>