<svg xmlns="http://www.w3.org/2000/svg" xml:space="preserve" viewBox="0 0 215 220"><path d="M162.28 84.169c-2.019-1.842-4.507-2.478-5.94-1.627-.195-1.833-1.92-3.9-4.527-5.147-1.943-.93-3.926-1.179-5.459-.843-.064-.224-.164-.444-.264-.666 2.666.536 5.106.003 6.283-1.286.388 1.292 1.507 2.675 3.13 3.676 2.626 1.62 5.563 1.624 6.56.009s-.325-4.238-2.952-5.858c-2.326-1.435-4.889-1.596-6.138-.494-.533-1.764-2.612-3.475-5.405-4.216-2.082-.552-4.077-.428-5.521.187-1.096-2.183-4.177-3.965-7.976-4.343-3.998-.399-7.506.89-8.878 2.999-2.8-1.475-6.939-1.895-11.272-.867-5.82 1.379-10.16 4.929-10.952 8.566-2.747-.496-6.13-.151-9.508 1.158-4.153 1.609-7.325 4.3-8.797 7.102-2.326-.961-5.947-.035-9.015 2.559-2.916 2.464-4.445 5.678-4.112 8.098-1.539.311-3.253 1.339-4.655 2.974-1.882 2.193-2.626 4.781-2.065 6.536-1.654-.2-3.675 1.385-4.779 3.885-1.246 2.823-.849 5.733.887 6.499.154.068.319.095.483.125-2.68.244-4.668 3.906-4.456 8.302.149 3.084 1.35 5.681 2.976 6.97-1.526.68-2.803 2.773-3.097 5.392-.344 3.063.781 5.725 2.553 6.327-.745.844-1.308 2.126-1.476 3.625-.224 2 .311 3.795 1.265 4.71-.629.76-1.099 1.879-1.244 3.172-.279 2.484.734 4.637 2.262 4.808s2.992-1.703 3.27-4.188c.19-1.691-.228-3.211-.99-4.074.624-.655 1.134-1.605 1.408-2.745q.116-.479.174-.994a7.4 7.4 0 0 0-.178-2.697c-.303-1.154-.892-2.045-1.665-2.434.706-.68 1.288-1.682 1.664-2.881a9.5 9.5 0 0 0 .393-1.794c.138-1.232.037-2.401-.245-3.4-.238-.845-.617-1.547-1.087-2.079a3.5 3.5 0 0 0 1.223-.561c1.347-.989 2.313-2.963 2.628-5.353.452.443.977.656 1.467.533.978-.245 1.448-1.733 1.05-3.324-.207-.828-.611-1.514-1.086-1.954.54-.679.732-1.892.411-3.173-.24-.96-.718-1.744-1.277-2.228.721-.358 1.176-1.266 1.268-2.407.192.468.44.865.727 1.175-.564.621-.885 1.725-.764 2.959.177 1.814 1.224 3.196 2.34 3.087s1.876-1.667 1.699-3.481c-.092-.944-.423-1.764-.873-2.325.705-.657 1.114-1.96.972-3.42-.107-1.094-.503-2.035-1.038-2.658 1.298-.42 2.146-2.349 1.928-4.585-.014-.139-.044-.268-.064-.402l.03-.039c.274.623.62 1.152 1.02 1.549-1.068.52-1.741 2.207-1.553 4.134.124 1.273.601 2.358 1.238 3.047-.627.69-.983 1.917-.849 3.288.197 2.015 1.36 3.551 2.6 3.43s2.085-1.852 1.888-3.868c-.102-1.049-.47-1.96-.97-2.583.784-.731 1.238-2.178 1.08-3.8-.119-1.215-.559-2.261-1.153-2.953 1.442-.467 2.384-2.61 2.142-5.094a7.4 7.4 0 0 0-.562-2.197c.658-.218 1.325-.53 1.99-.894.238.873.614 1.617 1.08 2.179-1.238.459-2.163 2.252-2.163 4.404 0 1.421.411 2.673 1.041 3.503-.768.696-1.294 2.014-1.294 3.545 0 2.25 1.122 4.073 2.505 4.073s2.505-1.824 2.505-4.073c0-1.171-.308-2.219-.794-2.962.945-.723 1.604-2.274 1.604-4.086 0-1.357-.375-2.56-.956-3.39 1.645-.361 2.918-2.629 2.918-5.403a8.3 8.3 0 0 0-.359-2.415q.884.537 1.976.872c.139 1.058.469 1.982.933 2.698-1.425.347-2.679 2.205-2.958 4.58-.184 1.568.107 3.003.695 4-.938.668-1.688 2.055-1.887 3.744-.291 2.483.71 4.64 2.237 4.82 1.527.179 3.001-1.688 3.292-4.171.152-1.292-.053-2.488-.493-3.371 1.137-.676 2.065-2.302 2.299-4.301.176-1.497-.082-2.874-.617-3.865 1.5-.149 2.88-1.7 3.552-3.902.229-.042.462-.099.694-.15.125.229.269.428.415.622-1.396.45-2.511 2.395-2.616 4.784-.069 1.577.326 2.987.985 3.939-.886.735-1.534 2.172-1.608 3.872-.109 2.497 1.047 4.576 2.582 4.643 1.536.067 2.869-1.902 2.979-4.4.057-1.3-.234-2.478-.738-3.326 1.085-.757 1.891-2.447 1.979-4.457.066-1.506-.292-2.86-.897-3.809 1.48-.257 2.739-1.893 3.252-4.127a5.7 5.7 0 0 0 .841 1.143c-1.489.589-2.531 2.68-2.424 5.131.07 1.618.633 3.023 1.443 3.935-.904.833-1.481 2.362-1.405 4.106.111 2.563 1.57 4.581 3.26 4.508s2.969-2.21 2.858-4.773c-.058-1.334-.485-2.511-1.116-3.332 1.119-.874 1.847-2.676 1.757-4.739-.067-1.546-.584-2.897-1.335-3.811.61-.152 1.171-.49 1.647-1.003.476.513 1.037.85 1.647 1.003-.751.914-1.268 2.265-1.335 3.811-.089 2.063.639 3.865 1.757 4.739-.631.821-1.058 1.998-1.116 3.332-.111 2.563 1.168 4.699 2.858 4.773 1.689.073 3.149-1.945 3.26-4.508.076-1.744-.501-3.273-1.405-4.106.81-.912 1.373-2.316 1.443-3.935.106-2.451-.936-4.543-2.424-5.131a5.7 5.7 0 0 0 .841-1.143c.514 2.234 1.772 3.87 3.252 4.127-.605.949-.963 2.303-.897 3.809.088 2.011.895 3.701 1.98 4.457-.504.848-.795 2.027-.738 3.326.109 2.497 1.443 4.467 2.979 4.4s2.692-2.146 2.583-4.643c-.074-1.7-.722-3.137-1.609-3.872.659-.952 1.054-2.362.985-3.939-.105-2.389-1.219-4.334-2.616-4.784.147-.194.29-.393.415-.622.231.051.464.108.694.15.672 2.203 2.052 3.753 3.552 3.902-.534.991-.792 2.367-.617 3.865.234 1.999 1.162 3.625 2.299 4.301-.441.883-.645 2.079-.493 3.371.291 2.483 1.765 4.35 3.292 4.171s2.528-2.337 2.237-4.82c-.198-1.69-.949-3.076-1.887-3.744.587-.997.879-2.432.695-4-.279-2.375-1.532-4.233-2.958-4.58.465-.716.795-1.64.933-2.698a8.7 8.7 0 0 0 1.976-.872 8.3 8.3 0 0 0-.359 2.415c0 2.774 1.273 5.042 2.918 5.403-.582.83-.956 2.033-.956 3.39 0 1.811.659 3.362 1.604 4.086-.486.743-.794 1.791-.794 2.962 0 2.25 1.122 4.073 2.505 4.073s2.505-1.824 2.505-4.073c0-1.531-.526-2.849-1.294-3.545.63-.83 1.041-2.082 1.041-3.503 0-2.152-.926-3.945-2.163-4.404.466-.562.843-1.306 1.08-2.179.665.364 1.332.677 1.99.894a7.4 7.4 0 0 0-.562 2.197c-.242 2.485.7 4.628 2.142 5.094-.594.692-1.034 1.737-1.153 2.953-.158 1.623.296 3.07 1.08 3.8-.501.623-.868 1.535-.97 2.583-.197 2.015.649 3.747 1.888 3.868s2.403-1.415 2.6-3.43c.134-1.371-.222-2.598-.849-3.288.637-.688 1.114-1.774 1.238-3.047.188-1.927-.485-3.614-1.553-4.134.4-.397.746-.926 1.02-1.549l.03.039c-.021.135-.051.264-.065.402-.218 2.236.63 4.165 1.928 4.585-.534.623-.931 1.564-1.038 2.658-.142 1.46.267 2.763.972 3.42-.451.561-.781 1.381-.873 2.325-.177 1.814.584 3.372 1.699 3.481s2.163-1.273 2.34-3.087c.12-1.234-.2-2.338-.764-2.959.287-.31.535-.707.726-1.175.092 1.142.547 2.049 1.268 2.407-.558.484-1.036 1.268-1.277 2.228-.321 1.281-.13 2.495.411 3.173-.476.439-.879 1.126-1.086 1.954-.398 1.591.072 3.079 1.05 3.324.49.123 1.015-.09 1.467-.533.314 2.39 1.28 4.364 2.628 5.353.379.278.793.45 1.223.561-.47.532-.848 1.234-1.087 2.079-.282.999-.383 2.168-.245 3.4.071.637.216 1.23.393 1.794.376 1.2.958 2.202 1.664 2.881-.773.39-1.363 1.28-1.665 2.434a7.4 7.4 0 0 0-.178 2.697q.059.515.174.994c.274 1.14.785 2.09 1.408 2.745-.762.864-1.179 2.384-.99 4.074.279 2.484 1.743 4.359 3.27 4.188 1.528-.171 2.54-2.324 2.262-4.808-.145-1.293-.615-2.412-1.244-3.172.954-.916 1.49-2.71 1.265-4.71-.168-1.498-.731-2.781-1.476-3.625 1.772-.602 2.897-3.264 2.553-6.327-.294-2.618-1.571-4.711-3.097-5.392 1.627-1.29 2.828-3.887 2.976-6.97.212-4.395-1.776-8.058-4.456-8.302.164-.031.329-.057.483-.125 1.736-.766 2.133-3.676.887-6.499-1.104-2.5-3.124-4.085-4.779-3.885.561-1.756-.183-4.343-2.065-6.536-1.403-1.635-3.117-2.663-4.655-2.974a5.4 5.4 0 0 0-.001-1.477c2.479.972 4.918.887 6.292-.144.141 1.342.983 2.909 2.392 4.194 2.279 2.08 5.164 2.631 6.443 1.229s.469-4.225-1.81-6.305c-2.019-1.843-4.507-2.478-5.939-1.627-.124-1.167-.874-2.42-2.076-3.506 2.111.584 4.079.397 5.261-.49.14 1.342.983 2.909 2.392 4.194 2.279 2.08 5.164 2.631 6.443 1.229s.468-4.224-1.811-6.304m-97.711 30.47c-.745-.817-1.614-1.311-2.541-1.415.835-.064 1.725-.514 2.528-1.289.267.385.566.701.886.936-.477.326-.783.973-.873 1.768m3.666-6.524a6 6 0 0 0-.348-.768 4.6 4.6 0 0 0-.839-1.115 5.2 5.2 0 0 0-.228-1.688c.624.145 1.325.117 2.068-.084.015.027.033.048.048.075.203.362.437.671.694.925-.757.368-1.284 1.39-1.395 2.655m83.441 3.82c.803.775 1.693 1.225 2.528 1.289-.927.103-1.796.598-2.541 1.415-.09-.795-.397-1.442-.873-1.768a4 4 0 0 0 .886-.936m-4.381-7.4c.015-.027.033-.048.048-.075.742.201 1.443.229 2.068.084a5.3 5.3 0 0 0-.228 1.688 4.6 4.6 0 0 0-.839 1.116 6 6 0 0 0-.348.768c-.111-1.265-.637-2.288-1.394-2.656a4.2 4.2 0 0 0 .693-.925m-5.211-21.479a5.2 5.2 0 0 0-.502-1.177c.949-.131 1.814-.375 2.542-.742.358.732.916 1.455 1.65 2.118-1.342-.372-2.623-.433-3.69-.199" style="fill:#122a89"/></svg>