<svg xmlns="http://www.w3.org/2000/svg" xml:space="preserve" viewBox="0 0 215 220"><path d="M176.246 126.802c-.721-5.631-2.36-11.158-4.298-16.48-2.166-5.947-4.804-11.786-8.145-17.173-.013-.037-.041-.072-.064-.109l-.057-.098c-.046-.074-.123-.115-.188-.168-.006-.004-.006-.009-.011-.013-.48-.324-1.088-1.963-1.435-2.503a60 60 0 0 0-4.767-6.442 61 61 0 0 0-7.086-7.089c-3.348-2.839-6.875-5.153-10.908-6.863-5.429-2.302-11.268-3.69-17.129-4.275-4.493-.448-9.824-.249-13.985 1.898-3.702-1.986-8.491-2.267-12.542-2.011-5.487.347-11.007 1.614-16.163 3.499-8.454 3.091-15.47 8.741-21.18 15.666-6.689 8.112-11.489 17.879-14.9 27.825-2.877 8.39-5.762 18.524-3.013 27.355.757 2.432 2.307 4.592 3.947 6.506.983 1.146 2.249 2.68 3.952 2.17 1.456-.436 1.547-1.691 1.365-2.986l-.029-.189c1.069 1.934 2.205 4.199 3.845 5.658 2.677 2.381 3.928-.455 4.664-3.184a28 28 0 0 0 2.268 2.628c.869.899 2.112 2.502 3.431 3.162.288.144.577.258.869.294 1.299.157 2.173-.678 2.297-1.885l.019-.209c2.159 2.055 4.949 3.989 6.417 1.961.636-.878.082-1.885-.253-2.779a35 35 0 0 1-1.572-5.47c-.673-3.411-.806-6.908-.524-10.369.562-6.915 2.68-13.676 5.883-19.815 2.435-4.667 5.61-9.566 10.009-12.615 3.228-2.238 7.46-3.236 11.108-4.6 3.344-1.25 6.827-2.545 9.73-4.677 5.729 4.372 13.407 5.332 19.69 8.639 4.362 2.296 7.579 6.895 10.043 11.017 3.488 5.837 5.899 12.401 6.951 19.122.553 3.534.697 7.126.321 10.686a35 35 0 0 1-.883 4.951c-.417 1.64-1.371 3.283-1.631 4.939-.414 2.637 2.759 1.56 4.016.726.883-.586 1.727-1.285 2.533-2.03.034.396.081.774.143 1.105.221 1.173 1.054 1.524 2.211 1.174a4.2 4.2 0 0 0 .945-.448c1.257-.767 2.378-2.146 3.302-3.101a30 30 0 0 0 2.272-2.609c.106.471.214.94.318 1.417.158.729.32 1.702.886 2.259 1.102 1.084 2.68.24 3.591-.646 1.697-1.65 2.879-3.994 4.031-6.044-.054.306-.103.607-.159.915-.188 1.027-.479 2.497.717 3.001 1.427.601 2.916-.783 3.794-1.708 1.695-1.785 3.374-4.011 4.295-6.314 1.671-4.177 1.623-9.269 1.059-13.671m-5.027 15.836a26 26 0 0 1-1.584 2.141c-.093.114-.25.268-.423.433.543-3.429 1.153-6.654 1.077-10.175-.013-.617-.467-.858-1.005-.865.39-10.397-2.58-21.051-8.38-29.65a124 124 0 0 1 7.756 29.742c-.563.168-1.085.534-1.202 1.01-1.075 4.389-3.002 8.336-5.434 12.124-.308.48-.662.936-.999 1.4-.111-1.569-.815-3.45-1.283-4.841-.373-1.109-2.334-.589-2.734.237-1.221 2.525-3.176 4.61-5.197 6.531a5 5 0 0 1-.049-.45c-.022-.697-.119-1.459.044-2.15.309-1.312-2.129-.796-2.58-.264-1.075 1.268-2.304 2.519-3.618 3.574.156-.51.293-1.008.342-1.15.507-1.48.917-2.994 1.219-4.529 1.21-6.13.742-12.552-.749-18.589a55.9 55.9 0 0 0-7.033-16.461c-2.339-3.688-5.265-7.484-9.04-9.814 9.915 5.615 17.631 14.883 21.239 25.718.527 1.558 1.119 3.841 1.486 5.42-.023-1.633-.371-4.024-.655-5.647-2.855-13.062-13.258-24.419-26.342-27.625.079.035.156.075.235.11-5.834-2.408-12.377-3.495-17.251-7.697-.485-.418-1.574-.186-2.004.185-5.586 4.815-13.568 5.732-20.002 8.983-3.936 1.989-6.966 5.595-9.429 9.158-6.807 9.848-10.771 22.591-9.184 34.58a34 34 0 0 0 1.2 5.537c.127.413.274.818.422 1.222a42 42 0 0 1-1.482-1.384c-.595-.586-1.195-1.177-1.736-1.815-.672-.793-2.975-.245-2.686.981.077.328.134 1.259.148 2.129-.834-.897-1.827-2.034-2.067-2.296-1.249-1.365-2.421-2.821-3.231-4.495-.453-.936-2.397-.766-2.734.237-.475 1.412-.979 2.942-1.184 4.445-.349-.484-.726-.958-1.047-1.453a44.3 44.3 0 0 1-3.977-7.61c-.599-9.883-.432-20.031 6.607-27.704-7.244 5.214-9.016 13.978-8.38 22.57-.637-.7-2.618-.15-2.639.806-.056 2.505.084 5.006.486 7.481.105.649.248 1.291.388 1.934-.034-.036-.075-.078-.098-.106a27 27 0 0 1-1.906-2.619c-1.036-1.646-1.595-3.41-1.88-5.324-1.275-8.562.989-17.116 3.856-25.142 5.557-15.559 15.091-32.641 30.959-39.638 4.435-1.956 9.183-3.246 13.974-3.948 4.842-.71 11.06-1.146 15.406 1.634.609.389 1.444.178 2.004-.185 4.36-2.82 10.993-2.097 15.794-1.338 5.034.795 10.045 2.235 14.656 4.428 3.795 1.804 7.183 4.407 10.269 7.236a59.6 59.6 0 0 1 6.643 7.203 61 61 0 0 1 2.837 3.937c.548.829 1.281 2.633 2.078 3.366 6.199 9.926 10.944 22 12.359 33.659.586 4.837.484 10.615-2.26 14.813" style="fill:#122a89"/><path d="M46.36 134.191a49.66 49.66 0 0 1 16.838-38.357c-12.645 7.566-19.819 23.93-16.838 38.357m6.351 6.881c-.394-7.592.619-14.587 3.179-21.746-4.777 5.897-6.078 14.729-3.179 21.746m88.284-38.275c7.221 5.542 12.307 12.692 15.2 21.321-.316-9.116-6.692-18.044-15.2-21.321m10.982 5.385c3.696 5.705 6.655 11.199 9.413 17.412-.316-6.761-3.936-13.439-9.413-17.412M74.808 86.863c7.339-5.887 16.156-8.706 25.549-8.201-8.931-3.142-20.112.457-25.549 8.201m5.063-9.328c8.372-2.53 16.637-3.195 25.309-2.066-7.959-3.591-18.035-2.759-25.309 2.066m27.196-5.919c-7.595-4.163-17.671-4.014-25.149.349 8.439-1.999 16.657-2.104 25.149-.349m3.385 13.321c6.142 1.32 11.626 2.877 17.556 4.952-4.625-4.21-11.414-6.115-17.556-4.952m.001-3.762c5.408.671 10.039 1.739 15.205 3.476-3.797-3.885-10.097-5.316-15.205-3.476m-3.197 3.478c-.36-4.622.107-8.381 1.554-12.785-3.657 2.922-4.396 9.072-1.554 12.785" style="fill:#122a89"/></svg>