<svg xmlns="http://www.w3.org/2000/svg" xml:space="preserve" viewBox="0 0 215 220"><path d="M171.353 106.56c-2.427-14.266-6.155-23.195-11.165-31.421-5.707-9.37-12.752-16.908-21.664-21.274-3.582-1.754-16.72-7.176-28.874-5.576-15.895-4.612-28.269 4.132-31.829 6.573C71.365 59.287 62.86 68.26 57.153 77.63c-5.01 8.226-9.735 20.642-12.162 34.908-3.62 21.282.846 36.285 6.246 45.959 6.433 11.525 9.836 12.254 9.836 7.121 0 0 8.464 14.417 6.549 3.042-3.457-20.531-9.346-28.733-3.871-45.126 1.257-3.762 3.111-7.955 5.732-12.828 2.281-4.242 5.371-9.539 8.669-14.702 2.216 3.829 6.136 6.524 11.111 6.866 2.243.154 4.551-1.233 5.808-2.853.525.419 1.049.84 1.628 1.227 1.793 1.2 7.138-.842 9.056-2.327a21 21 0 0 0 5.019 3.588c2.238 1.14 6.315-.224 8.24-2.036.166.215.329.44.496.65 1.559 1.959 9.275-.445 9.773-2.752a22.2 22.2 0 0 0 5.224 3.358c3.113 1.428 12.399-3.059 8.076-5.041-4.826-2.213-8.093-6.161-9.546-10.714l.031.034c8.436 9.058 14.046 12.358 17.466 20.191a29 29 0 0 1 1.692 5.143c.004.759.011 1.51.005 2.285-.094 12.136.414 20.273-2.007 35.53-.794 5.004-1.914 8.984-3.373 12.395 1.433 3.868 2.296 7.078 2.96 8.637 1.403 3.297 6.186-7.426 6.186-7.426 4.236 5.679 3.926 3.465 7.88-5.171 5.475-11.955 11.096-29.746 7.476-51.028M87.335 83.03c.056-.069.111-.13.167-.199-.488 4.091.474 8.282 2.851 11.995-4.067-1.842-4.331-7.529-3.018-11.796m12.296-9.038 1.782-.861c-2.999 6.622-2.882 14.331.398 20.548-4.723-5.736-6.019-13.591-2.18-19.687m15.179 20.065c-6.738-6.313-7.232-17.394-.626-24.574q.69.189 1.358.452c-6.747 7.059-4.987 16.286-.732 24.122m7.444-8.727c-1.209-3.731-1.529-7.572-.273-11.088q.588.535 1.181 1.114a22.8 22.8 0 0 0-.908 9.974" style="fill:#122a89"/></svg>