<svg xmlns="http://www.w3.org/2000/svg" xml:space="preserve" viewBox="0 0 215 220"><path d="m59.678 130.624.194 4.09c.021.47.41.838.877.838l.041-.001a.877.877 0 0 0 .836-.919l-.194-4.092c-.022-.484-.417-.876-.918-.836a.88.88 0 0 0-.836.92m95.746-.92c-.453-.035-.894.352-.918.836l-.194 4.092a.877.877 0 1 0 1.754.082l.194-4.09a.88.88 0 0 0-.836-.92" style="fill:#122a89"/><path d="M163.489 111.334c.118-1.865.065-7.491-1.461-12.302 0 0-1.307-4.342-4.85-9.664.027.02.054.036.08.057 2.706 2.097 4.973 6.19 3.986 2.615-3.079-11.15-19.245-23.29-27.193-25.257h-.001c-5.507-1.802-13.05-1.372-17.477-.745-3.27.463-6.115 1.04-8.598 1.726-2.483-.686-5.328-1.263-8.598-1.726-4.427-.626-11.97-1.057-17.477.745h-.001C73.95 68.75 57.784 80.891 54.706 92.04c-.987 3.575 1.28-.518 3.986-2.615.027-.021.054-.036.08-.057-3.543 5.323-4.85 9.664-4.85 9.664-1.525 4.812-1.578 10.438-1.461 12.302.041.641.081 1.152.122 1.604a53.7 53.7 0 0 0 .813 15.449c1.018 5.045 2.556 9.954 3.337 15.048.362 2.356.617 4.73 1.026 7.078.181 1.042.295 2.847 1.218 3.572 1.354 1.063 3.884-.077 4.844-1.359.06-.08.134-.158.181-.239.963-1.657 1.026-3.981 1.212-5.831.705-7.028.921-14.087 2.09-21.066a70 70 0 0 1 1.201-5.745c.503 1.177 1.242 2.568 2.139 2.657.935.094-.631-6.49 4.734-16.412.284-.526.585-1.012.893-1.48q.637-.658 1.332-1.27c-1.567 3.917-2.525 7.857-2.401 11.363.133 3.768 1.048-.886 2.965-3.733 1.94-2.88 4.212-5.116 6.423-7.058a7.1 7.1 0 0 1 1.942-1.219c-1.138 1.989-2.775 5.269-3.2 6.848-1.142 4.24-.892 4.433.126 2.818 1.61-2.554 7.346-6.503 10.923-9.027-1.69 3.38-2.946 6.691-3.267 8.447-.387 2.115 1.371-.543 3.164-2.065 2.02-1.714 3.82-2.902 5.718-4.223 2.236-1.556 4.884-2.556 7.133-3.713.544.103 1.17.116 1.823.075 2.219 1.127 4.81 2.115 6.999 3.638 1.898 1.321 3.698 2.509 5.718 4.223 1.793 1.522 3.551 4.18 3.164 2.065-.322-1.757-1.578-5.068-3.268-8.448 3.577 2.524 9.313 6.474 10.923 9.027 1.018 1.615 1.267 1.422.126-2.818-.425-1.579-2.062-4.859-3.2-6.848a7.1 7.1 0 0 1 1.942 1.219c2.211 1.942 4.483 4.177 6.423 7.058 1.917 2.847 2.832 7.501 2.965 3.733.11-3.101-.63-6.542-1.884-10.006a27 27 0 0 1 2.283 2.521c4.654 9.283 3.26 15.373 4.159 15.283.82-.082 1.512-1.256 2.009-2.356 1.066 3.989 1.678 8.143 2.131 12.21.497 4.467.744 8.953 1.121 13.43.193 2.287.09 5.646 1.443 7.641.028.041.067.058.096.097 1.601 2.115 4.979.324 5.635-1.797.827-2.674.945-5.635 1.353-8.392.469-3.163 1.163-6.245 1.944-9.341 1.776-7.043 2.866-13.928 2.342-21.176.04-.422.077-.901.113-1.482M61.381 148.331c-.197-1.16-.38-2.322-.54-3.488.006-.006.014-.008.02-.015l1.007-1.149a62 62 0 0 1-.487 4.652m1.966-21.169-1.745-1.871a.878.878 0 1 0-1.284 1.2l2.71 2.905a152 152 0 0 0-.561 5.035 101 101 0 0 0-.283 3.898l-.873-.778a.88.88 0 0 0-1.171 1.313l1.92 1.711-.061 1.073a.87.87 0 0 0-.913.259l-.576.656c-.269-1.89-.561-3.776-1.006-5.639-.682-2.856-1.449-5.702-2.073-8.576l.014.005q.058.007.115.007a.88.88 0 0 0 .87-.766l.53-4.099a.88.88 0 0 0-1.744-.225l-.307 2.375c-.135-.784-.277-1.567-.371-2.359a52 52 0 0 1-.296-3.753c1.44-2.171 2.539-3.616 3.291-4.534a.88.88 0 0 0 1.059-.62l.073-.268c-.136 2.935-1.458 6.745-1.202 8.018.045.224.171.259.359.164a.87.87 0 0 0 .734.402.88.88 0 0 0 .863-.721l.293-1.611a48 48 0 0 1 2.198-2.381l.009.014a.876.876 0 0 0 1.214.267.9.9 0 0 0 .224-.217c-.91 2.969-1.54 6.031-2.01 9.116m2.174-9.616a.85.85 0 0 0-.123-.498l-.224-.35q.505-.506.939-.936c-.213.588-.401 1.186-.592 1.784m85.019-.498-.006.014a40 40 0 0 0-.287-.894l.521.521zm4.379 29.646c-.07.511-.157 1.02-.229 1.531-.197-1.422-.302-2.865-.388-4.282l.776.885c.039.044.091.066.136.1-.096.59-.213 1.171-.295 1.766m4.178-20.519-.376-2.905a.877.877 0 0 0-.985-.759.88.88 0 0 0-.759.984l.53 4.099a.88.88 0 0 0 .985.759c.082-.011.153-.046.225-.077-.039.198-.07.399-.112.597-.984 4.659-2.156 9.21-3.026 13.863l-.727-.829a.86.86 0 0 0-.711-.283l-.092-1.201 1.749-1.558a.88.88 0 0 0-1.171-1.313l-.747.665c-.223-2.9-.466-5.797-.829-8.684l-.033-.253 2.601-2.789a.88.88 0 0 0-1.284-1.2l-1.627 1.744c-.433-2.942-.999-5.888-1.81-8.746.123.06.249.111.38.111a.88.88 0 0 0 .74-.405l.014-.022a47 47 0 0 1 2.189 2.37l.296 1.63a.88.88 0 0 0 1.023.706.87.87 0 0 0 .575-.389c.196.104.325.068.371-.162.254-1.264-1.047-5.029-1.198-7.955l.056.206a.88.88 0 0 0 1.072.618c.754.92 1.857 2.371 3.305 4.555a53 53 0 0 1-.624 6.623" style="fill:#122a89"/></svg>