<svg xmlns="http://www.w3.org/2000/svg" xml:space="preserve" viewBox="0 0 215 220"><path d="M46.315 105.39c.315-2.613.708-5.426 1.201-8.524 1.247-7.843 2.464-14.306 4.015-20.071-2.661 6.042-3.863 10.327-5.123 17.799-.471 2.792-.48 7.985-.093 10.796m10.742 19.96a25 25 0 0 1-3.622-1.907c-2.325 7.337-.233 10.704 4.019 13.101-.362-3.62-.539-7.347-.397-11.194m1.013-9.314c-1.135 1.32-2.148 2.544-2.953 3.791.697.617 1.437 1.265 2.172 1.908.168-1.87.439-3.774.781-5.699m98.004 22.304c4.627-2.105 6.698-10.191.493-16.734.46 5.834.164 11.403-.493 16.734m8.194-59.389c1.404 5.532 2.316 11.217 3.057 17.124.42 3.343.951 6.702 1.377 10.052.035-.145.079-.264.112-.415 1.109-5.118-.004-11.845-2.11-19.368-.659-2.352-1.528-4.921-2.436-7.393" style="fill:none"/><path d="M125.652 67.803c2.495 6.009 4.516 12.374 6.191 19.109 2.183 8.783 3.81 19.917 12.125 22.943-3.085-4.729-5.907-12.488-11.626-30.196-1.202-3.719-3.5-8.146-6.69-11.856m-4.241 8.789a94 94 0 0 0-4.124-9.673c1.211 4.596 1.542 9.201 2.273 13.647.883 5.371 3.181 12.547 8.006 17.667a60 60 0 0 1-.912-3.009c-1.716-6.251-3.081-12.641-5.243-18.632m-47.293 7.705c-2.808 8.456-6.132 18.588-9.317 23.284-.39.574-.774 1.113-1.155 1.637a28.5 28.5 0 0 0 3.051-1.983c2.08-1.556 3.622-4.46 5.065-7.21 1.973-3.76 2.534-10.317 2.425-14.172a61 61 0 0 0-.069-1.556" style="fill:#fff"/><path d="M163.015 63.157c-10.986-18.358-20.903-24.907-23.123-26.06-4.424-3.044-9.852-5.149-17.4-6.246-10.335-1.502-20.227-.342-26.597 3.53-3.629-1.034-8.992-1.719-13.36-.623-3.341.838-6.124 1.893-8.594 3.307h-.004l-.03.018-.12.072c-10.977 5.887-23.87 25.737-27.144 33.956-5.867 14.728-6.851 25.274-5.543 33.737.47 3.038 1.58 6.125 3.259 8.987-.252 9.171 1.348 14.62 4.991 18.939 2.283 2.706 5.605 3.8 7.582 4.109 1.351 12.333 4.747 23.401 5.223 33.478.719 15.212 1.395 7.533 3.693 3.924 0 0 .832 4.669 2.701 8.194 2.141 4.04 5.346 6.892 5.161 4.837-.654-7.286.975-13.609 4.462-20.529l.012-.026c-.299-.303-.601-.601-.896-.91-6.961-7.3-11.355-13.478-13.472-26.816-1.828-11.522-2.006-19.033-2.018-27.206 5.143-1.385 10.815-3.784 13.47-6.954 5.137-6.135 7.002-18.665 8.06-30.552.506-5.692 1.795-9.473 3.781-12.193a13.3 13.3 0 0 1 3.67-.792c7.788-.576 9.912 1.454 11.333 1.249 1.944-.303 4.599-1.587 7.588-2.121 3.14 7.01 2.928 14.254 4.404 21.006 1.674 7.66 6.095 17.217 15.244 21.516.368.173.759.295 1.156.38 2.604 4.68 6.185 7.802 11.579 9.304.9.25 2.832.46 4.339.312 1.385 1.471 2.953 2.74 4.897 4.252-.124 6.306-.546 12.839-1.968 21.798-2.117 13.338-6.511 19.516-13.472 26.816-.292.306-.591.601-.886.901l.017.035c3.488 6.919 5.117 13.243 4.462 20.529-.185 2.055 3.02-.797 5.161-4.837 1.868-3.525 2.701-8.194 2.701-8.194 2.298 3.609 2.974 11.288 3.693-3.924.45-9.515 3.497-19.917 4.974-31.429 1.629.364 7.762-.641 11.753-10.191 2.146-5.136 2.642-10.454 2.428-15.846 1.766-1.83 3.063-4.245 3.756-7.117 2.573-10.648-6.232-34.782-10.923-42.62M57.452 115.125a68 68 0 0 0-.79 5.771c-.745-.652-1.495-1.308-2.2-1.933.815-1.262 1.841-2.501 2.99-3.838m-11.064-19.99a232 232 0 0 0-1.224 8.686c-.394-2.864-.385-8.156.095-11.002 1.283-7.614 2.508-11.98 5.22-18.137-1.58 5.876-2.82 12.461-4.091 20.453m6.37 27.49a25.5 25.5 0 0 0 3.668 1.932c-.144 3.896.036 7.67.402 11.335-4.306-2.427-6.424-5.837-4.07-13.267m18.559-23.714c-1.461 2.785-3.024 5.726-5.13 7.301a29 29 0 0 1-3.089 2.008c.386-.53.775-1.076 1.17-1.658 3.225-4.755 6.591-15.015 9.435-23.579.03.543.055 1.071.07 1.575.11 3.906-.458 10.546-2.456 14.353m48.403-19.705c-.74-4.502-1.075-9.165-2.302-13.819a94 94 0 0 1 4.176 9.796c2.19 6.066 3.571 12.537 5.309 18.867.291 1.061.601 2.07.924 3.047-4.885-5.186-7.213-12.453-8.107-17.891m12.123 7.706c-1.675-6.735-3.696-13.101-6.191-19.109 3.19 3.71 5.488 8.137 6.689 11.856 5.72 17.709 8.541 25.467 11.626 30.196-8.314-3.026-9.941-14.16-12.124-22.943m24.231 51.428c.657-5.331.953-10.9.493-16.734 6.205 6.543 4.134 14.629-.493 16.734m13.524-33.669c-.033.152-.078.273-.113.42-.432-3.393-.97-6.794-1.395-10.179-.751-5.982-1.675-11.739-3.096-17.341.92 2.503 1.8 5.105 2.467 7.488 2.133 7.618 3.261 14.43 2.137 19.612" style="fill:#122a89"/></svg>