<svg xmlns="http://www.w3.org/2000/svg" xml:space="preserve" viewBox="0 0 215 220"><path d="M167.451 113.212c.261-.639.563-1.612.917-3.027 1.139-4.558.786-8.628-.863-13.024-1.545-4.118-4.415-6.911-10.473-13.029-.419-.49-.885-.976-1.441-1.458-2.335-2.025-8.956-8.118-13.244-11.899-7.285-6.424-21.032-8.207-28.532-6.454-14.67 3.429-14.552-1.416-27.555 1.082-7.566 1.453-9.903 4.996-14.425 9.156-2.752 2.532-7.304 5.11-11.47 8.115a9.5 9.5 0 0 0-2.125 2.148c-5.59 5.641-8.304 8.379-9.789 12.338-1.649 4.396-2.003 8.466-.863 13.024.354 1.415.657 2.388.917 3.027-2.723 6.804-3.641 9.134-3.146 12.76.562 4.119 1.831 7.204 5.441 9.707 4.637 3.214 4.451 1.725 3.401-.163a23 23 0 0 1-1.887-4.48 18.3 18.3 0 0 0 2.198 2.839c2.249 2.359 5.004 6.906 4.889 13.385-.023 1.297 2.265 7.163 4.504 8.688.728.496 1.451.538 2.087-.193a.34.34 0 0 0 .051-.359c-.791-1.801-.737-5.587-.49-9.018 3.376 3.646 3.38 2.79 2.972.745-.958-4.802.109-10.607.682-13.978.283.022.555.036.801.038 12.291.077 18.228-6.18 21.216-12.816l.115-.265c-.082 4.781 1.057 9.621 4.389 13.56.937 1.108 2.575 1.707 3.74 1.784.579.038 2.156-.138 1.192-1.277-4.874-5.761-4.378-13.866-2.535-20.408 1.158 7.448 4.828 15.466 13.448 17.819 1.484.405 3.458-.063 4.7-.703.104-.053.236-.135.373-.226 3.121 3.026 7.482 4.164 13.277.828.959-.552 2.01-1.644 2.893-2.79 3.89 2.925 8.466 4.511 13.757 3.395l.04.252c.511 3.184 1.854 9.592.818 14.788-.406 2.036-.406 2.895 2.924-.693.34 7.131-1.048 9.811 1.1 9.421.223-.041.421-.09.607-.15 1.623-.517 2.025-1.97 4.794-8.34.784-1.805 2.94-10.372 4.254-13.078a74 74 0 0 0 3.364-8.057c-.068 2.778-.958 6.128-2.718 9.291-1.05 1.887-1.236 3.377 3.401.163 3.61-2.502 4.879-5.587 5.441-9.707.493-3.627-.424-5.956-3.147-12.761m-117.166-4.058c.736-4.283 2.122-8.012 3.681-10.218-.747 3.509-1.753 7.058-3.681 10.218m33.58 6.074c-1.992 5.033-4.909 11.269-11.931 13.894 1.706-2.109 3.649-4.243 5.693-6.764 1.956-2.413 4.145-5.123 6.51-7.765-.089.213-.188.42-.272.635m20.498-7.447a126 126 0 0 1-.063-4.008c4.647 4.297 5.505 13.538 8.053 20.022.605 1.54 1.359 3.026 2.254 4.364-7.713-3.613-9.989-13.27-10.244-20.378m12.92 7.092c-.79-2.503-1.465-5.216-2.244-7.83.11.117.229.221.338.34 3.978 4.315 7.134 9.435 10.661 14.235a39 39 0 0 0 3.972 4.635c-6.816 1.277-10.829-5.37-12.727-11.38m13.037-1.832c3.894 3.731 5.883 4.86 9.963 9.082a35 35 0 0 1 2.882 3.411c-5.342-2.242-9.536-7.693-12.845-12.493m31.311-12.289a44 44 0 0 1-.688-3.037c.047.045.098.079.144.125 1.892 1.88 3.678 6.154 4.561 11.201-1.659-2.992-3.398-5.959-4.017-8.289" style="fill:#122a89"/></svg>