<svg xmlns="http://www.w3.org/2000/svg" xml:space="preserve" viewBox="0 0 215 220"><path d="M171.353 106.579c-2.427-14.266-6.155-23.195-11.165-31.421-5.707-9.37-12.752-16.908-21.664-21.274-3.573-1.75-16.654-7.149-28.782-5.589-15.944-4.679-28.353 4.139-31.921 6.585-6.455 4.425-14.96 13.398-20.668 22.768-5.01 8.226-9.735 20.642-12.162 34.908-3.62 21.282.846 36.285 6.246 45.959 6.433 11.525 9.836 12.254 9.836 7.121 0 0 8.464 14.417 6.549 3.042-3.457-20.531-9.346-28.733-3.871-45.126 1.257-3.762 3.111-7.955 5.732-12.828 6.293-11.701 18.711-31.442 24.799-34.184 4.484-2.02 11.442-5.63 16.146-7.492 8.324-.208 13.548 7.212 22.639 16.973 8.436 9.058 14.046 12.358 17.466 20.191a29 29 0 0 1 1.692 5.143c.004.759.011 1.51.005 2.285-.094 12.136.414 20.273-2.007 35.53-.794 5.004-1.914 8.984-3.373 12.395 1.433 3.868 2.296 7.078 2.96 8.637 1.403 3.297 6.186-7.426 6.186-7.426 4.236 5.679 3.926 3.465 7.88-5.171 5.476-11.953 11.097-29.744 7.477-51.026" style="fill:#122a89"/></svg>