<svg xmlns="http://www.w3.org/2000/svg" xml:space="preserve" viewBox="0 0 215 220"><path d="M173.526 111.952c-.075-.774-.186-1.547-.279-2.321 0-.018.015-.034.013-.052-.074-.688-.172-1.371-.266-2.055-.014-.099-.024-.198-.039-.297a77 77 0 0 0-.678-4 90.6 90.6 0 0 0-4.169-15.015c-.173-.506-.344-1.013-.521-1.518-2.149-6.107-4.896-11.685-8.82-16.866a66 66 0 0 0-7.594-8.429c-2.931-2.846-6.173-5.348-9.76-7.347-2.46-1.421-4.988-2.52-7.628-3.403-7.59-2.782-15.986-4.385-23.972-3.295-22.232-5.64-42.121 11.481-53.361 29.297-7.38 11.697-11.522 25.743-13.362 39.364-1.65 12.217-.964 24.966 3.693 36.488 2.116 5.234 5.069 11.404 9.433 15.109 1.65 1.401 3.59 1.58 4.869.657.868 1.359 1.801 2.686 2.87 3.865.796.878 1.644 1.667 2.896 1.602 1.404-.073 2.299-.872 2.441-2.229.299-2.86-.751-6.09-1.324-8.857-.686-3.317-1.486-6.608-2.292-9.897-1.31-5.347-2.675-10.754-2.75-16.291-.083-6.047 1.556-11.859 3.853-17.394.325.256.77.432 1.408.492 1.657.155 3.781-.44 4.979-1.633.514-.512.773-.987.818-1.71.109-1.725-.344-3.626-.425-5.365-.088-1.89-.425-4.107.4-5.85.067-.141.148-.278.218-.417q-.011 2.326.071 4.652c.055 1.547.137 3.092.236 4.637.047.742-.145 1.616.477 2.112 1.502 1.196 6.053-.238 7.122-1.569 1.045-1.3.201-4.157.136-5.722-.132-3.189-.159-6.387.006-9.575.147-2.847 0-6.806 1.371-9.377.482-.905 1.09-1.785 1.731-2.652-1.359 6.193-2.135 12.502-1.991 18.86.044 1.953.173 3.905.393 5.847.113 1-.057 3.069.778 3.79 1.101.951 3.595.233 4.748-.152 1.808-.604 2.968-1.269 2.704-3.238-.547-4.078-.856-8.14-.708-12.257.193-5.358.971-10.786 2.255-16.057-.401 3.58-.635 7.183-.672 10.758-.031 3.078.12 6.165.594 9.209.407 2.614.896 6.45 2.475 8.657 1.365 1.907 6.602.499 7.68-1.299.415-.693.089-1.076-.211-1.816a31.4 31.4 0 0 1-1.43-4.515c-.721-3.017-1.049-6.118-1.156-9.214a84.3 84.3 0 0 1 .943-15.75c-.081 4.116-.094 8.239-.093 12.337 0 3.279.127 6.564.551 9.818.219 1.686.518 3.362.916 5.016.337 1.403.634 3.744 1.516 4.908 1.263 1.667 6.066.407 7.419-1.137.013.206.04.392.101.525.595 1.299 2.642.874 3.878.633 1.986-.387 3.886-1.027 4.053-3.223.323-4.241.251-8.567.024-12.809-.267-4.995-.995-9.903-1.982-14.766 1.157 2.819 2.179 5.696 2.989 8.638 1.858 6.75 2.855 13.95 1.422 20.88-.416 2.011-2.087 4.494.621 5.275 1.784.514 4.117-.011 5.464-1.302 1.88-1.803 2.107-5.699 2.364-8.131.331-3.134.255-6.309-.104-9.437-.053-.464-.131-.926-.196-1.389.02.091.044.185.064.275a62.3 62.3 0 0 1 1.422 11.328c.063 2.063-.37 4.294-.174 6.324.067.69.106 1.026.713 1.443 1.273.875 3.463.395 4.772-.135 2.306-.932 2.466-2.213 2.579-4.576a65 65 0 0 0-.227-9.16q.292 2.107.447 4.229c.204 2.797.236 5.609.067 8.409-.081 1.348-.439 2.409 1.074 2.839.592.169 1.392.19 2.227.098 1.728-.191 3.626-.913 4.281-2.143.835-1.569.406-4.589.4-6.381-.004-1.204-.069-2.403-.138-3.602a28.5 28.5 0 0 1 3.107 9.396c.024.163.024.324.045.487q-.011 2.297-.009 4.445v.517c.008 9.047.016 16.86-1.981 29.446-.575 3.625-1.309 6.677-2.227 9.387a40 40 0 0 1-1.576 3.955 90 90 0 0 1 1.445 4.038c.048.146.103.288.15.435.553 1.712.897 5.119 3.335 4.908 2.638-.228 4.498-3.596 5.774-6.402.647.718 1.396 1.32 2.294 1.458 1.454.223 2.614-.659 3.352-1.825 1.448-2.285 2.315-5.051 3.423-7.506a110 110 0 0 0 2.976-7.227c4.501-12.233 6.494-25.252 5.239-38.258m-61.236-3.941c-.008.238-.054.582-.106.958-.027-.072-.053-.132-.08-.211a41 41 0 0 1-1.37-4.932c-.71-3.334-1.036-6.741-1.158-10.144-.155-4.339-.069-8.701.074-13.06 1.226 5.474 2.153 11 2.5 16.635.138 2.239.202 4.483.204 6.727q.002 2.013-.064 4.027m56.621 31.006c-1.308 5.661-3.178 11.177-5.495 16.504-1.157 2.66-2.27 5.365-3.529 7.976-.129.268-.405.648-.516.96-.415-.671-1.778-1.905-2.084-2.312-.551-.731-2.272-.284-2.615.481a50 50 0 0 1-1.793 3.598c-.459.838-.935 1.68-1.487 2.462-.092.13-.229.275-.365.423-.156-.89-.762-2.031-1.009-2.795q-.582-1.804-1.205-3.594a41 41 0 0 0 1.015-2.519q.333-.922.637-1.896c.406-1.3.774-2.674 1.106-4.139q.25-1.098.472-2.267.223-1.17.421-2.415c.254-1.602.477-3.129.671-4.591a162 162 0 0 0 .701-6.185 141 141 0 0 0 .488-7.315 170 170 0 0 0 .135-5.102l.001-.18c.368-.882.696-1.773.964-2.677 4.86-8.723 5.942-19.749 2.739-29.176.75 8.018.185 15.83-1.679 23.491.8-9.218-2.527-18.885-7.292-26.597 3.908 10.788 7.263 21.958 5.276 33.358l.006-1.069-.096.075c-.104-3.646.215-7.238-.402-10.879-.871-5.138-3.118-9.803-6.412-13.813-.51-.62-2.824.011-2.705.907.584 4.404.81 8.844.544 13.283-.048.801.125 1.6-.541 2.099-.261.196-1.328.429-1.612.194-.668-.552-.032-3.738-.016-4.687a66.3 66.3 0 0 0-.873-11.856c-.326-1.977-.688-3.992-1.259-5.915-.523-1.763-2.475-3.035-3.76-4.321-.51-.51-2.969-.007-2.705.907 1.691 5.853 2.631 11.895 2.684 17.992.01 1.213.795 7.189-1.758 6.633-1.484-.323-.562-5.259-.584-6.645-.095-5.983-1.132-11.948-2.89-17.663a63 63 0 0 0-3.233-8.406c-.681-1.439-1.367-3.1-2.317-4.388-.737-.999-1.778-1.879-2.678-2.737-.502-.478-3.101.082-2.705.907 3.314 6.926 5.827 14.35 6.818 21.987.488 3.766.581 7.599.013 11.362-.225 1.487-.399 3.968-1.246 5.213-.633.932-2.077 1.507-2.346.085-.13-.689.681-2.316.842-3.044 3.074-13.945-2.66-29.597-9.967-41.346l-.001-.003h-.001l-.095-.157c-.411-.657-2.934.064-2.705.907 1.923 7.089 3.67 14.242 4.432 21.562a106 106 0 0 1 .55 10.92q0 2.858-.13 5.713c-.055 1.215.054 2.654-1.701 2.382-.78-.12-.624-.095-.62-.98.005-.981.085-1.967.111-2.949q.06-2.196.045-4.394a103 103 0 0 0-.638-10.915c-.824-7.231-2.588-14.296-4.501-21.304-.231-.847-2.774-.204-2.797.567-.203 6.838-.519 13.697-.499 20.538.01 3.543.186 7.093.725 10.597.259 1.683.6 3.352 1.044 4.996q.36 1.334.817 2.64c.246.704.556.858.202 1.18-.245.223-.91.403-1.258.436-1.119.105-.996-.296-1.367-1.38-.51-1.49-.911-3.02-1.238-4.561-.762-3.59-1.075-7.26-1.172-10.924-.096-3.621.056-7.235.145-10.854.093-3.81-.039-7.621.153-11.429.043-.855-1.496-.535-1.934-.326-.848.404-1.915.696-2.47 1.48-.507.717-.578 2.42-.752 3.282a74 74 0 0 0-.459 2.485c-.61 3.639-.936 7.325-1.107 11.01-.309 6.666-.066 13.611 2.39 19.899.163.417.676 1.099.439 1.502-.169.286-1.37.604-1.681.553-1.103-.182-1.687-3.189-1.961-4.144-.943-3.291-1.386-6.712-1.537-10.126-.326-7.337.396-14.935 1.817-22.133.17-.862-1.584-.489-1.934-.326-.737.345-1.977.668-2.52 1.332-.852 1.042-1.112 3.341-1.452 4.589-.882 3.234-1.641 6.496-2.184 9.805-1.06 6.463-1.345 13.08-.599 19.594.137 1.199.929 3.017-.082 3.749-.161.117-1.023.339-1.226.284-.746-.202-.406.307-.649-.93-.641-3.258-.753-6.714-.746-10.024.017-7.195 1.224-14.32 3.063-21.259.294-1.109-2.372-.195-2.692.193a103 103 0 0 0-3.854 4.98c-.618.849-1.372 1.711-1.869 2.637-.489.912-.578 1.891-.725 2.923-.623 4.371-.789 8.801-.72 13.212.033 2.136.14 4.269.26 6.402.061 1.085.335 1.629-.751 1.984-.282.092-1.116.342-1.399.189-.343-.184-.22-2.789-.251-3.35a147 147 0 0 1-.15-3.381c-.09-2.773-.083-5.546.044-8.318.051-1.103-2.354-.362-2.692.193-1.094 1.795-2.978 4.025-3.583 6.044-.521 1.736-.122 4.2-.027 6.024.075 1.437 1.104 4.835-.133 5.792-2.012 1.556-1.926-2.045-2.014-3.068-.088-1.02-2.543.036-2.797.567-1.644 3.45-3.127 7.011-4.169 10.692.039-.802.059-1.606.115-2.406.295-6.874 2.075-13.381 3.785-20.029-5.161 9.721-6.341 20.817-5.388 31.662-.122 3.574.258 7.138.95 10.659 1.042 5.302 2.523 10.509 3.673 15.788.652 2.994 1.418 6.072 1.66 9.131.002.02-.001.069-.005.135-1.449-1.579-2.647-3.466-3.736-5.303-4.033-8.196-4.789-17.821-6.219-26.863-1.068 7.881-.284 18.639 4.128 26.251-.518.201-.944.543-.953.958-.003.117-.135.633-.224 1.06l-.049-.026c-1.3-.856-2.335-2.232-3.259-3.457-2.407-3.191-4.387-6.76-5.982-10.423-3.067-7.041-4.631-14.669-4.998-22.323-.502-10.47 1.216-21 4.06-31.054 2.486-8.79 5.942-17.399 11.062-25 8.234-12.223 20.729-25.13 36.209-26.906a30 30 0 0 1 6.695-.018c1.209.132 2.415.336 3.6.607 1.248.286 2.636 1.006 3.895 1.084 1.328.082 2.766-.469 4.131-.489 1.904-.029 3.805.152 5.689.412 7.326 1.015 14.376 2.975 20.586 7.093 8.564 5.679 15.941 13.891 20.553 23.081 2.062 4.109 3.48 8.589 4.87 12.961 1.841 5.793 3.293 11.705 3.946 17.756.021.197.202.309.452.361l-.365.283c.976 9.403.47 18.939-1.635 28.048" style="fill:#122a89"/><path d="M114.293 64.229c13.154 2.289 21.36 12.94 29.839 22.273-6.279-10.719-16.248-22.575-29.839-22.273" style="fill:#122a89"/><path d="M112.291 60.449c11.312 1.38 20.297 7.933 29.74 13.776-7.753-7.729-18.266-14.93-29.74-13.776m46.937 60.095c4.145-4.393 5.973-11.031 4.684-16.929-1.203 5.947-2.669 11.206-4.684 16.929M75.012 80.187c7.618-10.696 19.178-17.642 32.192-19.375-13.159-.944-26.859 7.313-32.192 19.375m3.128-15.958c7.286-6.009 15.85-9.329 25.279-9.832-9.23-2.128-19.907 2.035-25.279 9.832" style="fill:#122a89"/><path d="M100.079 57.366c-7.332-.168-14.844 3.49-19.251 9.348 6.145-4.049 12.272-7.014 19.251-9.348m9.646 7.234c-.36-4.622.107-8.381 1.553-12.785-3.657 2.922-4.395 9.072-1.553 12.785" style="fill:#122a89"/></svg>