<svg xmlns="http://www.w3.org/2000/svg" xml:space="preserve" viewBox="0 0 215 220"><path d="M158.318 82.807c-11.585-10.811-25.721-15.585-33.075-17.165-10.235-2.199-29.375-3.798-41.316 1.547-3.908 1.749-7.873 5.782-11.212 10.417-5.053-.388-10.283.918-16.595 7.771-5.339 5.798-12.303 23.39-12.299 29.643.012 15.286 1.793 27.255 14.207 20.113 1.312-.755 3.481 21.873 5.802 17.839.063-.109.126-.228.189-.377 1.288-3.053 2.064-7.215 3.092-11.805.479.971 1.104 1.971 1.989 3.165 3.794 5.118 3.968 3.092 3.387.382-1.481-6.903-.913-14.077.997-17.843 1.752-3.454 4.477-6.155 6.523-9.222 4.14 6.297 8.933 11.538 13.428 13.701 5.203 2.504 7.079 3.136 13.048 1.894 7.667-1.596 6.037-2.825 3.173-3.565-5.128-1.324-9.489-3.848-12.239-6.632 5.061 1.896 10.11 2.962 13.059 3.872 4.173 1.289 9.102 6.572 11.849 13.524 1.079 2.73 2.484 4.209 3.1-3.429.324-4.027.016-6.15-1.164-8.601.734.183 1.472.367 2.194.549 19.962 5.017 12.646 16.731 14.428 16.507 2.091-.262 3.813-2.331 4.948-4.934 1.115-2.556 1.537-3.951 1.537-3.951s.635 15.554 3.12 19.351c.685 1.048 1.12 1.083 1.511.383.96-1.718 1.65-7.997 5.091-15.532 2.734-5.986 9.976-.883 12.934-8.243 6.097-15.171-3.903-42.078-11.706-49.359" style="fill:#122a89"/></svg>