<svg xmlns="http://www.w3.org/2000/svg" xml:space="preserve" viewBox="0 0 215 220"><path d="M170.255 119.774c-.772-4.061-9.213-13.982-20.714-27.003-4.785-5.417-15.151-10.172-24.55-13.073l3.506-1.987c1.902-1.078 2.935-3.256 1.952-5.363-.87-1.865-3.466-3.027-5.363-1.952l-2.097 1.189.329-.485c2.919-4.309-3.668-8.976-6.58-4.678l-.912 1.345.069-.499c.688-4.956-6.72-5.707-7.917-1.187-1.197-4.52-8.606-3.769-7.917 1.187l.069.499-.912-1.345c-2.912-4.298-9.499.37-6.58 4.678l.329.485-2.097-1.189c-1.898-1.075-4.494.087-5.363 1.952-.983 2.108.05 4.285 1.952 5.363l3.506 1.987c-9.399 2.901-19.765 7.655-24.55 13.073-11.501 13.021-19.942 22.942-20.714 27.003-2.332 12.265 4.17 15.858 6.506 20.721.276.575 2.645 3.866 2.287 10.878-.768 4.853 4.931 12.125 5.912-6.584.096-1.826 1.576-3.653 3.325-5.535 2.364-2.545 5.219-5.19 5.824-8.076.254-1.163-4.17-15.724 1.843-21.273 2.63-2.427 10.274-2.828 12.786-4.462 2.652-1.725 4.963-9.091 7.702-11.819 4.055-4.037 10.934 1.761 14.971 3.016.308.193.696.237 1.122.213.426.023.814-.02 1.122-.213 4.037-1.255 10.916-7.053 14.971-3.016 2.74 2.728 5.05 10.094 7.702 11.819 2.512 1.634 10.156 2.035 12.786 4.462 6.013 5.549 1.589 20.11 1.843 21.273.604 2.886 3.46 5.531 5.824 8.076 1.748 1.882 3.229 3.708 3.325 5.535.981 18.709 6.68 11.437 5.912 6.584-.358-7.012 2.011-10.303 2.287-10.878 2.334-4.863 8.836-8.456 6.504-20.721" style="fill:#122a89"/></svg>