<svg xmlns="http://www.w3.org/2000/svg" xml:space="preserve" viewBox="0 0 215 220"><path d="M175.402 66.204c1.311-1.804 1.87-4.903 1.815-7.092-.027-1.088-.464-4.041-1.812-2.185-1.656 2.28-3.539 3.954-5.558 5.161.678-7.138-.857-15.23-7.836-20.246-8.904-6.4-20.643-6.014-29.842-2.551-4.761 1.792-8.853 4.402-12.577 7.391-4.607-.464-8.977-2.849-11.134-9.096-.572-1.657-1.317.512-1.505 1.334-.379 1.656-.509 4.116.048 5.727a19 19 0 0 0 1.414 3.152c-1.888.272-3.755.732-5.558 1.458l-.009.003c-5.909-.545-13.668 1.556-16.909 3.148-16.45 8.078-25.638 20.613-29.191 33.508-1.603 5.818-3.323 18.291.489 28.913 1.676 4.67 4.462 16.077 6.929 15.792.055-.018.093-.056.142-.082 1.405-.724.361-4.506-.156-7.964-.202-1.351-.324-2.652-.181-3.694a5 5 0 0 1 .177-.731c.043-.14.085-.279.137-.427 2.624.943 7.358-1.092 6.993-4.385a46 46 0 0 1-.233-6.48c.595-.817 1.219-1.663 1.857-2.525.012 1.999.075 4.012.218 6.038.245 3.466 8.928 1.508 8.658-2.32-.381-5.393-.329-10.956.488-16.26.41-.539.812-1.056 1.212-1.572-.809 6.041-.674 12.204.241 17.809.391 2.397 9.107.43 8.658-2.32-.826-5.057-1.001-11.188-.211-17.281-.288 7.042.399 13.976 1.763 19.328.638 2.506 9.314.254 8.658-2.32-1.575-6.182-2.294-14.841-1.476-23.17.19 8.395 1.481 16.922 3.026 24.499.696 3.412 9.382 1.233 8.658-2.32-1.614-7.915-2.939-16.636-2.981-25.186 2.069 8.766 3.429 17.607 3.78 26.821.17 4.451 8.903 3.054 8.76-.702-.303-7.942-1.285-15.65-2.804-23.272 3.089 7.964 4.489 16.565 3.566 24.945-.409 3.71 8.336 2.202 8.686-.977.493-4.472.368-8.995-.271-13.461l1.372 1.425c1.373 5.197 1.953 10.506 1.583 15.551-.271 3.7 8.452 2.097 8.679-1.004.078-1.071.115-2.148.12-3.228q.675.803 1.262 1.531c.245 2.442.323 4.856.167 7.194-.123 1.844 2.523 2.117 4.918 1.526 2.236 8.593-1.208 20.272 2.151 15.503.238-.338.462-.672.692-1.008 6.72-9.797 10.035-18.638 9.296-31.699-.256-4.521-.819-8.638-1.771-12.548 3.712 4.244 6.071 9.23 4.574 14.403-.423 1.46 1.555.894 2.216.595 1.33-.603 2.892-1.89 3.303-3.309 1.584-5.473-.558-10.708-4.178-15.184 2.785 2.125 4.895 4.983 5.767 8.921.355 1.604 1.277 1.312 2.096.036.992-1.545 1.166-4.283.81-5.892-1.192-5.381-4.212-9.158-8.166-11.817l.104-.191c3.251-1.354 6.289-3.653 8.876-7.213m-22.187-7.113c-1.331.806-3.004 1.195-4.65 1.368-1.3.136-2.581.101-3.851-.013-2.278-1.871-4.661-3.431-7.365-5.284-.605-.415-1.558-.983-2.734-1.612a26.7 26.7 0 0 1 11.411.839c1.702.51 3.41 1.169 4.951 2.032.908.509 1.9 1.141 2.545 1.906.058.069.142.22.228.365a5 5 0 0 1-.535.399m9.819 5.322a23 23 0 0 1-4.991.112c2.18-2.848 3.529-6.808 2.657-10.508.788 1.083 1.445 2.244 1.811 3.537.601 2.128.811 4.546.523 6.859m-9.955 82.127c-.829-2.904-1.1-5.868-.885-8.856.008-.114-.06-.194-.184-.247a162 162 0 0 1-1.386 11.019c-1.377 8.678-3.737 14.282-7.148 19.161-.663 4.892-.187 6.981 2.828 9.889 1.206 1.163 2.772 2.219 5.268 2.82 1.795.432 3.201-.264 2.262-.596-5.901-2.09-6.364-10.438-5.149-16.22.682-3.247 1.666-6.657 2.141-9.968.04.084.074.169.115.253 1.906 3.946 4.108 9.342-1.293 12.88-.73.478-.358.744.49.758 1.026.017 2.462-.519 3.194-.999 5.15-3.373 4.777-8.084 3.006-12.163-1.12-2.579-2.5-5.076-3.259-7.731m-80.413 20.167c-3.078-4.671-5.232-10.109-6.525-18.251-.483-3.046-.846-5.8-1.124-8.367-.282.037-.458.132-.446.31.215 2.989-.056 5.952-.885 8.856-.758 2.656-2.139 5.153-3.258 7.731-1.771 4.079-2.143 8.791 3.006 12.163.732.48 2.168 1.016 3.194.999.848-.014 1.22-.28.49-.758-5.402-3.538-3.199-8.934-1.293-12.88.041-.084.075-.169.115-.253.475 3.311 1.459 6.721 2.141 9.968 1.215 5.782.752 14.13-5.149 16.22-.939.332.467 1.028 2.262.596 2.496-.601 4.062-1.657 5.268-2.819 3.294-3.177 3.573-5.333 2.63-11.285a43 43 0 0 0-.426-2.23" style="fill:#122a89"/></svg>