<svg xmlns="http://www.w3.org/2000/svg" xml:space="preserve" viewBox="0 0 215 220"><path d="M173.438 112.766c-1.44-3.83-2.251-15.395-4.08-20.164 0 0-3.362-10.19-12.052-16.5a63 63 0 0 0-1.351-1.159c-2.33-1.946-8.936-7.8-13.214-11.432-7.269-6.171-21.016-7.852-28.525-6.141-14.687 3.347-14.554-1.324-27.57 1.12-7.573 1.422-9.922 4.843-14.458 8.867-1.702 1.509-4.089 3.038-6.647 4.669a30 30 0 0 0-4.123 2.691c-.243.165-.488.327-.729.495-1.146.798-2.102 1.736-2.938 2.777-6.459 6.558-9.756 14.359-9.756 14.359-1.707 4.84-2.054 16.431-3.395 20.317-1.818 5.273-.803 6.062 2.255 2.592.363-.412.693-.842 1.004-1.282.021 2.736.194 4.459.194 4.459.558 5.044 1.801 7.762 2.882 9.817 2.364 4.493 3.65 3.723 3.215 1.568-.452-2.234-.545-4.342-.444-6.341.308.38.625.753.973 1.104 2.243 2.268 4.986 21.43 4.851 27.676-.036 1.657 1.073 13.429 3.675 10.551.035-.039.452-4.51.96-10.014.727-7.864 1.642-17.838 1.901-20.022 1.024-8.629 6.018-12.528 11.772-19.359 1.106-1.314 2.288-2.72 3.532-4.153-.602 4.101-2.618 8.251-7.647 11.737-1.284.89-.829 1.304.439 1.24 1.535-.078 3.901-1.141 5.189-2.034a27.6 27.6 0 0 0 3.174-2.559q.479.002 1.265-.172c2.297-.514 5.707-2.302 7.518-3.606 3.981-2.869 6.797-5.701 8.709-8.447.812 3.356 2.667 6.569 6.025 9.33 1.436 1.181 3.982 1.789 5.801 1.842.904.026 3.375-.207 1.898-1.422-5.931-4.878-6.519-11.454-4.982-17.547 1.8 6.024 3.897 10.129 3.897 10.129 2.495 4.764 4.801 6.906 6.69 8.464 4.128 3.405 5.147 2.061 3.88.115-3.108-4.774-4.078-9.752-4.332-14.126 1.694 6.299 5.442 12.31 12.706 14.293 1.484.405 3.458-.063 4.7-.703.617-.318 2.17-1.431.643-1.847-5.387-1.47-8.592-5.535-10.418-10.194 7.148 2.119 14.619 6.896 14.961 22.314.055 2.495.832 2.025 1.667.022.877-2.105 1.39-5.599 1.474-8.122 3.383 4.934 4.651 9.327 4.651 9.327 1.943 8.805 1.892 21.142 2.364 28.772.266 4.311.699 7.125 1.754 6.937 2.176-.387.524-4.072 3.631-10.923.79-1.742 4.113-27.143 5.819-29.542.79-1.111 1.456-2.364 2.026-3.684a26.7 26.7 0 0 1-.032 7.707c-.327 2.17.933 2.889 3.003-1.695.947-2.096 2.021-4.861 2.345-9.923 0 0 .019-.35.032-.976.363.51.745 1.008 1.174 1.477 3.061 3.345 3.997 2.516 2.044-2.679m-88.062 1.627c3.018-4.228 3.796-8.763 3.498-12.972a47 47 0 0 1 3.801-3.126c.711 4.828-.512 10.345-7.299 16.098" style="fill:#122a89"/></svg>