<svg xmlns="http://www.w3.org/2000/svg" xml:space="preserve" viewBox="0 0 215 220"><path d="M164.8 140.865c-4.014-8.928 6.995-16.999 5.158-36.746-.596-6.403-5.86-14.656-10.498-20.014-9.542-11.023-17.378-17.248-31.383-19.291-7.679-1.12-21.336 2.119-26.154 7.611-.082.093-.195.284-.324.527a8.78 8.78 0 0 0-5.983-2.456c-2.912-.048-5.674 1.205-7.698 3.21-6.941-1.941-11.331-.832-15.611 7.49-1.742-.545-4.922.469-6.163 1.538-2.788 2.403-4.183 5.121-4.834 8.492-.27.101-.544.206-.844.333-4.604 1.948-7.225 5.994-7.978 11.652-.237 1.778-.224 3.826.009 5.951-.549.634-1.131 1.465-1.716 2.535-2.11 3.857-2.317 9.135.253 14.419-1.487 4.119-.561 12.642 4.304 15.5 3.564 2.093 4.384 15.118 6.683 13.676 1.573-.987 1.18-10.336 1.802-13.653l.015-.094c1.17-5.861 2.613-11.178 3.048-12.801.137-.511-.028-.659-.372-.598.583-2.02 1.318-4.396 2.328-7.312 3.914-1.324 9.69-4.547 5.799-8.194a11 11 0 0 1-2.99-4.733c.16.261.311.526.482.781 3.915 5.846 12.34 2.214 11.265-4.531 2.57.223 4.988-1.394 6.094-3.649 1.776.327 3.638-.122 5.032-1.662 1.797-.666 3.384-2.122 4.093-3.977.109.801.229 1.382.358 1.627 2.984 5.679 10.859 6.328 16.027 10.248 3.496 2.652 6.217 9.35 6.232 16.883.006 2.958.792 4.842 4.24-2.19a35 35 0 0 0 1.073-2.414c.118.136.227.28.35.413q.012.145.035.24c1.616 6.209 9.137 8.631 13.278 13.622 2.802 3.377 3.929 10.518 2.232 17.857-.666 2.882-.329 4.896 4.627-1.169 2.954-3.615 3.821-5.621 4.148-8.947.359.19.715.385 1.079.561 6.166 2.973 13.023 3.892 15.521 2.512 1.505-.827-1.786-.511-3.017-3.247M53.233 113.328a31 31 0 0 0 1.321 4.158 42 42 0 0 0-.131 1.669c-.836-1.404-1.586-3.457-1.19-5.827m2.092 20.981c-.776-.373-1.939-2.278-2.214-4.746 1.497 2.082 2.618 2.928 4.084 4.448-.789.348-1.451.499-1.87.298m5.482-36.619c-.489.536-1.015 1.371-1.549 2.407-.014-1.301.375-2.789 1.588-4.311-.021.62-.039 1.244-.039 1.904" style="fill:#122a89"/></svg>