<svg xmlns="http://www.w3.org/2000/svg" xml:space="preserve" viewBox="0 0 215 220"><path d="M173.321 147.823c11.485-21.884-10.172-82.61-15.59-92.68-6.141-11.414-18.408-18.453-30.039-22.032-5.586-2.109-12.8-3.837-19.715-2.856-6.915-.981-14.128.746-19.714 2.855-11.63 3.58-23.898 10.62-30.039 22.033-5.418 10.069-27.074 70.796-15.59 92.68 19.818 37.761-7.346 40.137-2.105 40.953 33.722 5.251 53.781-6.81 49.766-21.759-3.874-2.613-7.698-5.884-11.253-9.613-6.028-6.322-10.106-11.794-12.429-21.925-.046-9.624.331-22.278.585-32.409.486 5.506 1.126 11.226 1.618 17.17.156 1.888 2.235 1.767 3.079-7.32 1.856-19.986 5.061-39.226 15.154-55.05.274-.185.537-.371.83-.557 2.688-1.709 12.011-1.102 20.098-6.172 7.953 5.012 17.361 4.442 20.1 6.172.292.184.554.368.826.552 10.096 15.825 13.302 35.067 15.158 55.055.844 9.087 2.923 9.208 3.079 7.32.492-5.944 1.132-11.664 1.618-17.17.254 10.131.632 22.784.585 32.408-2.323 10.131-6.401 15.603-12.429 21.925-3.555 3.729-7.38 6.999-11.253 9.613-4.015 14.949 16.044 27.01 49.766 21.759 5.24-.815-21.924-3.191-2.106-40.952" style="fill:#122a89"/></svg>