<svg xmlns="http://www.w3.org/2000/svg" xml:space="preserve" viewBox="0 0 215 220"><path d="M173.005 79.136c-1.006.091-1.582.7-2.223 1.386-1.562 1.671-3.975 2.673-6.069 3.616.025-1.52-.156-3.038-.604-4.471-1.116-3.566-3.972-5.865-7.291-7.352-3.17-1.421-6.685-2.094-10.156-1.873-3.447.22-6.325 1.733-9.113 3.692a29 29 0 0 0-3.167 2.566c-4.768-3.112-10.209-5.183-15.966-5.917-5.662-.721-11.703-.738-17.38-.155-5.24.538-10.703 2.071-15.33 4.603-6.73 3.683-13.985 10.017-16.602 17.668-1.846 1.29-3.723 2.971-5.704 5.092-4.087 4.377-6.95 9.53-7.085 13.471-.044 1.281.38 2.705 1.059 3.271a34 34 0 0 0-1.596 1.827c-1.17 1.454-1.209 4.347-.017 5.878.493.633 1.079 1.023 1.684 1.178-.355.549-.701 1.11-1.026 1.693-.724 1.298-.489 3.457.467 4.755-.253.398-.522.778-.756 1.197-.663 1.188-.337 3.272.708 4.227.088.08.179.14.269.206l-.034.043c-.761 1.075-1.008 3.22-.469 4.359.363.768.911 1.068 1.471.883-.283.392-.57.774-.841 1.199-.634.994-.809 2.928-.326 3.93.189.391.427.64.688.745-.27.748-.326 1.743-.059 2.33.351.773.983.814 1.494.052.142-.212 1.314-1.684 1.606-1.973.3-.298.946-1.233 2.085-1.741.413-.184.88-.273 1.342-.328.811-.096 1.6-.049 2.011.042.541.12 1.183-1.001 1.26-2.01.091-1.191-.279-1.904-.858-2.033-.776-.172-1.577-.139-2.382.054a7 7 0 0 0-1.547.593c.383-.336.814-.666 1.358-.924.063-.03.133-.051.199-.079 1.527-.642 3.538-.591 4.391-.423.745.147 1.591-1.411 1.665-2.798.087-1.636-.441-2.602-1.24-2.76-1.509-.297-3.072-.067-4.616.616-.88.389-1.751.945-2.605 1.621.461-.481 1.305-1.448 2.634-2.148.179-.094.331-.204.528-.285 1.815-.741 4.32-.572 5.35-.332.864.2 1.882-1.493 2-3.033.139-1.817-.454-2.919-1.379-3.134-1.587-.368-3.237-.229-4.883.307 2.133-1.099 5.412-1.504 6.816-1.511 1.182-.006 1.994-1.837 1.681-3.319-.368-1.749-1.471-2.656-2.738-2.65-.426.002-.843.067-1.264.104 2.4-.779 5.158-1.09 6.511-1.096 1.459-.007 2.461-2.267 2.076-4.098a5.5 5.5 0 0 0-.5-1.424c.269.031.523.063.733.098 1.6.264 3.119-2.024 3.038-4.102-.008-.213-.037-.41-.063-.609.13-.042.265-.077.392-.121 2.132-.736 4.171-1.905 6.456-2.089 3.675-.296 7.748 1.16 10.893 2.935 1.964 1.108 5.097 4.958 7.895 4.722.376.017.81-.062 1.242-.184l.039.068-.022-.073c.348-.099.687-.22.989-.346.085.035.169.078.253.112l-.183-.143c.274-.116.518-.231.686-.32 1.553-.821 2.719-2.243 4.139-3.26 2.86-2.05 6.697-3.545 10.252-3.542 2.148.002 4.121.718 6.086 1.508a25 25 0 0 0 3.227 1.064c-.008.095-.025.181-.029.278-.08 2.077 1.439 4.366 3.038 4.102.21-.035.464-.067.733-.098a5.4 5.4 0 0 0-.5 1.424c-.385 1.831.617 4.091 2.076 4.098 1.352.007 4.11.318 6.511 1.096-.421-.038-.838-.102-1.264-.104-1.267-.006-2.369.901-2.738 2.65-.312 1.483.499 3.313 1.681 3.319 1.404.007 4.683.412 6.816 1.511-1.646-.535-3.296-.675-4.883-.307-.925.215-1.518 1.317-1.379 3.134.118 1.54 1.137 3.234 2 3.033 1.03-.239 3.535-.408 5.35.332.105.043.182.105.282.152 1.48.698 2.39 1.769 2.881 2.281-.932-.737-1.884-1.319-2.846-1.714-1.466-.602-2.945-.805-4.375-.523-.799.158-1.328 1.124-1.24 2.76.074 1.387.92 2.945 1.665 2.798.809-.16 2.66-.214 4.152.329.148.054.298.107.438.173.544.258.975.588 1.358.924-.594-.303-1.19-.537-1.785-.654a5.2 5.2 0 0 0-2.144.007c-.579.129-.949.842-.858 2.033.077 1.009.719 2.13 1.26 2.01.371-.082 1.05-.128 1.774-.069.536.044 1.095.139 1.579.355 1.139.508 1.784 1.443 2.085 1.741.292.289 1.464 1.761 1.606 1.973.511.762 1.142.721 1.494-.052.267-.587.211-1.582-.059-2.33.26-.105.499-.354.688-.745.483-1.002.308-2.936-.326-3.93-.271-.425-.558-.807-.841-1.199.56.185 1.107-.116 1.471-.883.539-1.139.292-3.284-.469-4.359l-.034-.043c.09-.065.182-.126.269-.206 1.044-.955 1.371-3.038.708-4.227-.234-.419-.503-.799-.756-1.197.956-1.297 1.191-3.457.467-4.755a31 31 0 0 0-1.026-1.693c.605-.156 1.19-.545 1.684-1.178 1.192-1.531 1.154-4.424-.017-5.878a34 34 0 0 0-1.596-1.827c.679-.565 1.103-1.989 1.059-3.271-.108-3.172-2.001-7.124-4.86-10.829 2.645-.53 5.301-1.002 7.979-.96 1.292.02 3.917 1.117 4.741-.476.357-.69-.432-1.303-.882-1.724-.953-.894-1.95-1.663-3.107-2.272-.303-.16-.614-.3-.923-.447q.8-.464 1.567-.983c2.488-1.691 4.562-3.662 6.23-6.159 1.433-2.145 2.73-4.439 3.055-7.045.121-.975-.252-1.529-1.339-1.431m-13.373-.701c-.037.015-.071.042-.11.059.058-.05.258-.116.11-.059m-58.722 30.364.19.023.117.11c-.1-.048-.206-.087-.307-.133m44.529-5.677c-.512 1.93-1.412 3.903-2.934 5.248-2.104 1.859-4.717 1.249-7.145.355-1.89-.696-3.699-1.59-5.694-1.97-2.408-.459-4.866-.229-7.239.315a31.4 31.4 0 0 0-5.387 1.763c3.77-3.29 6.813-7.32 7.354-12.285-1.636 6.198-6.826 10.494-12.138 13.939 1.225-2.098 2.124-4.382 2.583-6.746.689-3.817.416-7.827-1.094-11.32.722 3.707.627 7.477-.334 10.999-.899 3.497-2.606 6.751-4.973 9.424-3.152-10.438-3.37-21.264-.529-31.874-5.055 9.695-4.998 22.163-.027 31.93-6.996-5.745-13.177-12.743-13.079-22.329-1.738 6.474.967 12.664 5.421 17.368-5.526-2.577-10.626-5.54-13.311-11.391.281 4.625 3.48 8.165 7.494 10.25-2.313-.367-4.66-.349-7.019.266-3.532.92-7.032 3.537-10.776 2.095-3.096-1.193-4.725-4.409-5.367-7.481-1.875-8.967 3.744-16.477 10.276-21.996-4.182 5.307-5.306 13.238-1.942 19.133-1.658-8.023.412-15.871 5.722-21.922 8.628-5.452 18.905-6.038 29.084-5.219 12.29.989 23.384 8.139 29.589 18.801 2.053 3.761 2.564 8.512 1.465 12.647m1.336-13.398a39 39 0 0 0-10.693-11.847c.139-.142.253-.294.398-.434 2.057-1.975 4.855-4.206 7.658-4.954 2.683-.716 5.675-.324 8.296.463 2.12.636 4.388 1.673 6.119 3.199-.054-.003-.108.001-.162-.001-5.805-3.43-15.221-2.593-17.667 4.47 3.938-4.729 9.799-5.324 15.495-4.344a12.3 12.3 0 0 0-3.645 1.143c-2.451 1.218-4.471 3.315-5.369 5.796 1.603-2.073 3.708-3.539 5.98-4.426a12.7 12.7 0 0 1 6.314-.769c-.005.101-.005.204-.018.302.002.079-.027.167-.04.216-.151.073-.309.143-.431.233-2.159 2.077-3.512 4.273-5.217 6.67 2.086-1.589 4.143-3.765 6.068-5.395.258-.159.413-.109.727-.378.127-.16.206-.292.279-.421.867 1.894 1.128 4.067.981 6.153-1.552.669-3.106 1.335-4.62 2.082-2.651 1.335-5.165 2.857-7.3 4.931q-.96.098-1.911.267a16 16 0 0 0-1.242-2.956m17.186 8.01c.13.109.252.229.382.34q-.698.01-1.393.058c-2.793.184-5.531.725-8.272 1.249a38 38 0 0 0-1.222-1.389c-1.441-1.543-2.826-2.851-4.185-3.951a23.5 23.5 0 0 1 5.15-.024c2.482.263 4.728 1.076 6.981 2.156.916.439 1.78.908 2.559 1.561m6.192-12.685c-1.248 2.278-2.684 4.347-4.634 6.056a23.5 23.5 0 0 1-3.988 2.811 25.8 25.8 0 0 0-8.596-1.623c1.638-1.41 3.456-2.538 5.43-3.532 3.64-1.795 7.459-3.182 11.03-5.13.52-.283 1.115-.611 1.704-.968-.239.823-.52 1.608-.946 2.386" style="fill:#122a89"/><path d="M134.445 83.086c1.001 7.287.551 14.076-1.433 21.159 4.287-5.964 4.886-14.671 1.433-21.159m3.962 7.282c.058 5.246-.835 9.645-2.962 14.442 4.205-3.188 5.581-9.857 2.962-14.442m-2.036 17.477c4.082-.941 7.005-5.7 5.976-9.766-1.611 3.831-3.291 6.594-5.976 9.766M82.612 88.986C84.487 82.07 89 76.965 95.621 74.231c-7.337.014-13.906 7.476-13.009 14.755" style="fill:#122a89"/></svg>