<svg xmlns="http://www.w3.org/2000/svg" xml:space="preserve" viewBox="0 0 215 220"><path d="M171.008 112.811s-.762-5.406-3.959-12.502c.027.03.056.056.084.086 2.787 3.113 4.713 8.459 4.19 4.03-1.631-13.814-18.353-31.955-27.279-36.183-6.107-3.445-7.924-3.88-12.918-5.611-7.067-2.451-13.622-3.83-25.397.152-1.097.371-1.886.674-2.516.911-8.753-3.825-18.506-2-26.588.285-6.711 1.898-11.183 5.257-13.95 8.608-1.646 1.994 1.759.174 4.535-.444a55 55 0 0 1 4.022-.73c-.151.072-7.566 3.619-12.083 7.673-12.318 9.787-16.83 31.067-16.83 31.067-.37 2.179-.789 8.372-.448 10.762.747 5.225 1.102 5.305 1.442 3.008.162-1.098.673-2.538 1.373-4.135.414 1.93.897 3.735 1.262 5.574 1.524 7.686 2.297 10.76 2.13 19.662-.041 2.156 4.869-3.716 6.783 1.126 4.351 11.005 4.857-3.547 4.742 2.736-.031 1.698 1.063 8.587 3.506 10.736-1.32-16.868-.76-16.19-.686-28.053.016-2.492.604-1.326 1.261.155.658 1.486 1.385 3.29 1.668 2.034.7-3.101.559-7.236 2.311-12.366a68 68 0 0 1 4.947-11.154c-2.649 9.559.563 16.253 1.6 15.622.472-2.879-1.737-5.116 5.47-15.573 2.879-4.177 9.027-8.422 7.288-5.891-1.029 1.498-7.297 22.798-4.744 19.549 3.459-4.403 11.442-18.507 18.742-20.46-1.275 8.094-4.219 13.93-12.49 20.787-1.475 1.223 3.697-.333 6.699-1.683 9.679-4.355 16.512-10.857 23.205-19.104-.574 7.459-5.991 14.082-10.931 17.018-2.084 1.239 1.393 1.081 4.833-.148 5.758-2.058 11.677-4.589 16.98-11.462 1.56-1.81 4.674-4.71 4.674-4.71.988-.398.829 1.874 1.107 4.375 0 0 .084 2.807-.992 6.476-1.312 4.472-2.76 5.74-1.542 5.703 1.816-.056 8.388-4.447 11.369-9.859.11.233.232.463.328.701 1.805 4.493 2.897 7.15 3.943 12.369 1.359 6.774 1.358 9.81 1.359 12.313 0 1.147 1.63-.469 2.646-1.59.461-.508.796-.914.796-.914s-1.086 27.901.678 25.863c2.242-2.59 1.048-19.878 3.016-13.543 2.163 6.964 2.969 2.176 3.287-1.447.455-5.183 7.955 1.58 7.703-.335-.324-2.468.294-9.882.607-17.839.467 1.463.79 2.774.85 3.761.129 2.127.442 2.083 1.459-2.633.464-2.156 1.391-8.764.458-14.773" style="fill:#122a89"/></svg>