<svg xmlns="http://www.w3.org/2000/svg" xml:space="preserve" viewBox="0 0 215 220"><path d="M175.692 168.02c-4.873-.827-8.118-3.309-10.22-6.6 8.073-5.274 7.477-11.912 4.622-17.555-1.838-3.632-4.108-7.124-5.347-10.899a31 31 0 0 1-.794-2.932c.804-7.94.405-15.65-5.69-21.437-.321-.305-.956-.395-1.739-.345 3.685-7.191 5.393-14.581 4.842-24.32-.426-7.536-1.651-13.982-4.253-20.137 2.969 1.943 5.303 4.584 5.835 8.366.143 1.015.71.951 1.259.279.664-.814.89-2.451.747-3.469-.746-5.301-4.312-8.805-8.641-11.16 3.264.128 6.402-.951 8.796-4.104.739-.973 1.025-2.759.967-4.051-.029-.642-.32-2.408-1.08-1.407-1.003 1.322-2.169 2.206-3.427 2.778-.04-.147-.072-.299-.138-.431-1.531-3.056-4.425-4.742-7.627-5.6.312-1.135.568-2.298.713-3.503.713-5.919-.075-13.485-5.493-17.001-5.733-3.72-12.894-2.236-18.362 1.216-3.535 2.231-6.384 5.267-8.913 8.585-6.095-1.516-13.062-2.015-19.298.494l-.009.003c-5.909-.545-13.668 1.556-16.909 3.148-16.45 8.078-25.638 20.613-29.191 33.508-1.603 5.818-3.323 18.291.489 28.913.689 1.919 1.566 4.973 2.531 7.888-.751-.04-1.358.055-1.67.351-6.095 5.787-6.494 13.496-5.69 21.436a31 31 0 0 1-.794 2.932c-1.239 3.775-3.509 7.267-5.347 10.899-2.855 5.643-3.451 12.281 4.622 17.555-2.102 3.291-5.348 5.773-10.22 6.6-2.026.344.319 1.94 1.228 2.417 1.83.96 4.637 1.79 6.607 1.456 5.907-1.003 9.701-4.091 12.038-8.111 1.705 5.861.204 11.932-11.842 12.141-2.315.04.781 1.326 1.952 1.73 2.357.813 5.811 1.455 8.088 1.591 3.319.198 5.952-.199 7.999-1.006 2.136 3.468 5.826 6.555 11.771 8.711 2.258.819 5.741.871 8.096.548 1.17-.16 4.262-.887 1.939-1.729-14.604-5.297-13.874-17.203-10.642-25.292.152-.38.317-.762.478-1.143-2.989-3.219-5.463-6.304-7.447-10.003-.986 2.535-2.213 5.054-3.337 7.539-3.301-5.978-5.978-11.944.125-15.614a52 52 0 0 1-.299-1.094c-1.03-.526-2.902-1.147-4.817-1.635-1.159-7.876-2.3-15.961 1.318-22.419.081.015.163.05.243.041.055-.018.093-.056.142-.082 1.405-.724.361-4.506-.156-7.964-.202-1.351-.324-2.652-.181-3.694.032-.235.095-.494.177-.77 1.147-3.822 6.98-11.393 13.418-20.034-.344 4.06.06 6.469.518 6.096.869-1.195 1.881-2.128 3.438-3.781 1.173-1.246 5.764-5.644 4.803-3.586-.569 1.219-.868 6.492.59 3.837 1.974-3.598 3.177-5.97 8.059-7.798-.822 4.568-2.946 8.593-6.118 11.486-.997.909 2.948-.123 4.077-.857 6.185-4.023 8.744-6.51 12.591-13.257-.598 4.297-2.432 8.166-5.374 10.957-.984.934 2.371.637 3.518-.064 3.621-2.213 4.454-3.237 6.384-7.28l.167 9.495c.022 1.233 2.213-1.082 2.715-2.316 1.84-4.521 6.65-6.479 8.562-10.681 0 0 .042 1.564.04 4.002s-2.18 3.754-1.339 4.008c2.251.68 7.327-3.712 8.943-8.192a856 856 0 0 1 5.759 5.973c9.069 9.487 12.82 14.485 14.01 17.308 3.622 8.594-.779 22.87 2.875 17.684.238-.338.462-.672.692-1.008l.039-.057c3.997 6.543 2.838 14.856 1.646 22.953-1.916.488-3.787 1.11-4.817 1.636q-.146.557-.299 1.094c6.103 3.67 3.426 9.636.125 15.614-1.124-2.485-2.351-5.004-3.337-7.539-1.984 3.7-4.459 6.784-7.447 10.003.161.381.326.764.478 1.143 3.231 8.089 3.962 19.995-10.642 25.292-2.323.842.769 1.569 1.939 1.729 2.355.323 5.839.271 8.096-.548 5.945-2.156 9.635-5.243 11.771-8.711 2.047.808 4.68 1.205 7.999 1.006 2.278-.136 5.731-.779 8.088-1.591 1.171-.404 4.267-1.69 1.952-1.73-12.045-.209-13.547-6.28-11.842-12.141 2.337 4.02 6.13 7.107 12.038 8.111 1.969.334 4.777-.496 6.607-1.456.909-.478 3.253-2.074 1.227-2.418M52.317 157.595c-1.602-3.164-.967-6.558.334-9.687.285.918.664 1.857 1.093 2.806-.204 2.362-.656 4.704-1.427 6.881m92.109-119.71c-.777.721-1.783 1.174-2.782 1.468-2.569.756-5.112.461-7.559-.34a54 54 0 0 0-4.059-1.937c2.907-1.776 6.446-2.47 9.791-1.857 1.064.195 2.138.496 3.119.963.578.275 1.213.631 1.642 1.119.038.044.097.144.156.241a3.4 3.4 0 0 1-.308.343m5.512 6.458a28 28 0 0 0-3.044-.09 35 35 0 0 0-1.698.103c.955-.831 1.782-1.816 2.398-2.971 1.224-2.293 1.885-5.33 1.179-7.942.531.704.985 1.477 1.267 2.376.806 2.568.982 5.895-.102 8.524m1.468 6.108c.382-.578.72-1.187 1.033-1.814 2.418.503 4.69 1.473 6.324 3.14-2.392.244-4.947-.344-7.357-1.326m12.232 107.144c-.771-2.177-1.223-4.519-1.427-6.88.43-.949.809-1.888 1.094-2.806 1.3 3.128 1.935 6.522.333 9.686" style="fill:#122a89"/></svg>