<svg xmlns="http://www.w3.org/2000/svg" xml:space="preserve" viewBox="0 0 215 220"><path d="M175.32 66.204c1.311-1.804 1.87-4.903 1.815-7.092-.027-1.088-.464-4.041-1.812-2.185-1.656 2.28-3.539 3.954-5.558 5.161.678-7.138-.857-15.23-7.836-20.246-8.904-6.4-20.643-6.014-29.842-2.551-4.761 1.792-8.853 4.402-12.577 7.391-4.607-.464-8.977-2.849-11.134-9.096-.572-1.657-1.317.512-1.505 1.334-.379 1.656-.509 4.116.048 5.727a19 19 0 0 0 1.414 3.152c-1.888.272-3.755.732-5.558 1.458l-.009.003c-5.909-.545-13.668 1.556-16.909 3.148-16.45 8.078-25.638 20.613-29.191 33.508-1.603 5.818-3.323 18.291.489 28.913.131.366.272.785.416 1.225-1.044.328-2.105.534-3.176.555-2.832.054-3.976 3.614-.5 3.549 1.602-.03 3.174-.353 4.702-.855 1.606 5.166 3.637 11.532 5.487 11.318.055-.018.093-.056.142-.082 1.405-.724.361-4.506-.156-7.964-.202-1.351-.324-2.652-.181-3.694.028-.202.112-.448.177-.68.153-.543.37-1.137.708-1.829.271-.16.545-.318.811-.479 4.565-2.768 8.696-6.226 12.628-9.819 3.789-3.462 7.388-7.151 10.716-11.059 3.136-3.683 5.578-7.852 8.674-11.556 2.704-3.236 5.853-6.329 9.388-8.797-3.761 4.912-6.652 10.708-9.748 15.767-5.064 8.274-11.359 18.257-21.563 20.396-.757.159-2.479.936-2.202 1.968.29 1.083 2.178.752 2.891.603 17.43-3.654 24.663-22.493 33.502-35.744q.228-.341.461-.684c-.394 2.06-.953 4.101-1.486 6.045-1.34 4.888-3.042 9.705-5.174 14.305-2.904 6.265-7.695 11.055-14.7 12.31-.84.15-2.759.585-2.911 1.666-.151 1.073 1.49 1.101 2.169.979 8.8-1.576 15.877-6.309 19.898-14.345 2.336-4.668 4.107-9.66 5.538-14.673.375-1.314.747-2.661 1.083-4.023 4.992 8.611 11.404 16.483 18.547 23.326 4.728 4.529 10.11 9.01 16.039 12.284 2.667 8.642-1.092 21.18 2.368 16.268.244-.346.458-.685.693-1.029 2.625-3.832 4.745-7.527 6.289-11.377.991.269 1.989.51 3.003.69.825.146 2.098-.099 2.701-.724.519-.537.518-1.084-.331-1.235a33 33 0 0 1-4.482-1.146c1.765-5.296 2.504-11.004 2.115-17.887-.256-4.521-.819-8.638-1.771-12.548 3.712 4.244 6.071 9.23 4.574 14.403-.423 1.46 1.555.894 2.216.595 1.33-.603 2.892-1.89 3.303-3.309 1.584-5.473-.558-10.708-4.178-15.184 2.785 2.125 4.895 4.983 5.767 8.921.355 1.604 1.277 1.312 2.096.036.992-1.545 1.166-4.283.81-5.892-1.192-5.381-4.212-9.158-8.166-11.817l.104-.191c3.249-1.353 6.287-3.652 8.874-7.212M98.38 76.826c-4.278 3.946-7.306 8.591-10.762 13.195-4.995 6.653-11.032 12.842-17.571 18.107 2.506-3.492 5.535-7.481 8.651-11.682 8.226-11.094 13.763-18.205 22.649-22.155a56 56 0 0 0-2.967 2.535m37.992 23.816c-5.717-5.547-10.963-11.755-15.354-18.478 3.425 3.226 7.653 7.525 13.799 13.954 5.574 5.831 9.134 9.962 11.33 12.938-3.516-2.597-6.788-5.516-9.775-8.414m16.761-41.551c-1.331.806-3.004 1.195-4.65 1.368-1.3.136-2.581.101-3.851-.013-2.278-1.871-4.661-3.431-7.365-5.284-.605-.415-1.558-.983-2.734-1.612a26.7 26.7 0 0 1 11.411.839c1.702.51 3.41 1.169 4.951 2.032.908.509 1.9 1.141 2.545 1.906.058.069.142.22.228.365a5 5 0 0 1-.535.399m9.819 5.322a23 23 0 0 1-4.991.112c2.18-2.848 3.529-6.808 2.657-10.508.788 1.083 1.445 2.244 1.811 3.537.601 2.128.811 4.546.523 6.859m-9.955 82.127c-.829-2.904-1.1-5.868-.885-8.856.008-.114-.06-.194-.184-.247a162 162 0 0 1-1.386 11.019c-1.377 8.678-3.737 14.282-7.148 19.161-.663 4.892-.187 6.981 2.828 9.889 1.206 1.163 2.772 2.219 5.268 2.82 1.795.432 3.201-.264 2.262-.596-5.901-2.09-6.364-10.438-5.149-16.22.682-3.247 1.666-6.657 2.141-9.968.04.084.074.169.115.253 1.906 3.946 4.108 9.342-1.293 12.88-.73.478-.358.744.49.758 1.026.017 2.462-.519 3.194-.999 5.15-3.373 4.777-8.084 3.006-12.163-1.12-2.579-2.5-5.076-3.259-7.731m-80.413 20.167c-3.078-4.671-5.232-10.109-6.525-18.251-.483-3.046-.846-5.8-1.124-8.367-.282.037-.458.132-.446.31.215 2.989-.056 5.952-.885 8.856-.758 2.656-2.139 5.153-3.258 7.731-1.771 4.079-2.143 8.791 3.006 12.163.732.48 2.168 1.016 3.194.999.848-.014 1.22-.28.49-.758-5.402-3.538-3.199-8.934-1.293-12.88.041-.084.075-.169.115-.253.475 3.311 1.459 6.721 2.141 9.968 1.215 5.782.752 14.13-5.149 16.22-.939.332.467 1.028 2.262.596 2.496-.601 4.062-1.657 5.268-2.819 3.294-3.177 3.573-5.333 2.63-11.285a43 43 0 0 0-.426-2.23" style="fill:#122a89"/></svg>