<svg xmlns="http://www.w3.org/2000/svg" xml:space="preserve" viewBox="0 0 215 220"><path d="M175.402 66.204c1.311-1.804 1.87-4.903 1.815-7.092-.027-1.088-.464-4.041-1.812-2.185-1.656 2.28-3.539 3.954-5.558 5.161.678-7.138-.857-15.23-7.836-20.246-8.904-6.4-20.643-6.014-29.842-2.551-4.761 1.792-8.853 4.402-12.577 7.391-4.607-.464-8.977-2.849-11.134-9.096-.572-1.657-1.317.512-1.505 1.334-.379 1.656-.509 4.116.048 5.727a19 19 0 0 0 1.414 3.152c-1.888.272-3.755.732-5.558 1.458l-.009.003c-5.909-.545-13.668 1.556-16.909 3.148-16.45 8.078-25.638 20.613-29.191 33.508-1.603 5.818-3.323 18.291.489 28.913 1.676 4.67 4.462 16.077 6.929 15.792.055-.018.093-.056.142-.082 1.405-.724.361-4.506-.156-7.964-.202-1.351-.324-2.652-.181-3.694q.05-.358.177-.778c.582-1.927 2.351-4.803 4.783-8.284-.458 4.937-.511 9.909-.042 14.811.158 1.647 5.276.554 5.093-1.365-.694-7.248-.194-14.651 1.094-21.851 1.011-1.354 2.052-2.745 3.106-4.163-.785 7.265-.672 14.663-.276 21.405.104 1.77 5.214.694 5.093-1.365-.507-8.637-.606-18.801 1.357-28.194 1.752-2.219 3.436-4.214 5.13-6.005-2.467 11.165-3.606 22.485-2.024 33.884.252 1.818 5.371.637 5.093-1.365-1.559-11.239-.398-22.398 2.083-33.414.353-1.568.693-3.12 1.087-4.646.49-.349.994-.677 1.502-.999a139 139 0 0 0-1.199 10.017c-.831 9.827-1.358 20.34.637 30.067.38 1.853 5.492.583 5.093-1.365-1.948-9.497-1.437-19.703-.626-29.297.345-4.081.832-8.162 1.562-12.196.302-.12.593-.25.903-.364-.117 3.476-.059 6.965-.034 10.382.08 10.59.685 21.13 2.302 31.603.293 1.898 5.409.685 5.093-1.365-1.616-10.465-2.233-20.997-2.289-31.579-.018-3.325-.061-6.716.066-10.094l.731.488c2.792 13.926 4.614 27.91 4.933 42.201.061 2.725 5.22 2.004 5.168-.357-.281-12.61-1.684-24.992-3.889-37.303a80 80 0 0 1 2.47 2.082c.796 2.427 1.501 4.88 2.121 7.341 2.397 9.521 3.645 19.484 2.684 29.29-.257 2.623 4.934 1.936 5.161-.383.953-9.724-.205-19.67-2.489-29.15a421 421 0 0 1 3.56 3.618c2.67 8.984 4.26 18.548 3.588 27.906-.164 2.275 4.978 1.369 5.116-.55.472-6.562-.102-13.226-1.38-19.732a238 238 0 0 1 3.297 3.569c1.703 7.21 2.685 14.673 2.178 22.005-.049.712 4.988.152 5.093-1.365.284-4.108.086-8.258-.427-12.385 1.129 1.581 1.852 2.819 2.262 3.791 3.622 8.594-.779 22.87 2.875 17.684.238-.338.462-.672.692-1.008 6.72-9.797 10.035-18.638 9.296-31.699-.256-4.521-.819-8.638-1.771-12.548 3.712 4.244 6.071 9.23 4.574 14.403-.423 1.46 1.555.894 2.216.595 1.33-.603 2.892-1.89 3.303-3.309 1.584-5.473-.558-10.708-4.178-15.184 2.785 2.125 4.895 4.983 5.767 8.921.355 1.604 1.277 1.312 2.096.036.992-1.545 1.166-4.283.81-5.892-1.192-5.381-4.212-9.158-8.166-11.817l.104-.191c3.247-1.355 6.285-3.654 8.872-7.214m-22.187-7.113c-1.331.806-3.004 1.195-4.65 1.368-1.3.136-2.581.101-3.851-.013-2.278-1.871-4.661-3.431-7.365-5.284-.605-.415-1.558-.983-2.734-1.612a26.7 26.7 0 0 1 11.411.839c1.702.51 3.41 1.169 4.951 2.032.908.509 1.9 1.141 2.545 1.906.058.069.142.22.228.365a5 5 0 0 1-.535.399m9.819 5.322a23 23 0 0 1-4.991.112c2.18-2.848 3.529-6.808 2.657-10.508.788 1.083 1.445 2.244 1.811 3.537.601 2.128.811 4.546.523 6.859m-9.955 82.127c-.829-2.904-1.1-5.868-.885-8.856.008-.114-.06-.194-.184-.247a162 162 0 0 1-1.386 11.019c-1.377 8.678-3.737 14.282-7.148 19.161-.663 4.892-.187 6.981 2.828 9.889 1.206 1.163 2.772 2.219 5.268 2.82 1.795.432 3.201-.264 2.262-.596-5.901-2.09-6.364-10.438-5.149-16.22.682-3.247 1.666-6.657 2.141-9.968.04.084.074.169.115.253 1.906 3.946 4.108 9.342-1.293 12.88-.73.478-.358.744.49.758 1.026.017 2.462-.519 3.194-.999 5.15-3.373 4.777-8.084 3.006-12.163-1.12-2.579-2.5-5.076-3.259-7.731m-80.413 20.167c-3.078-4.671-5.232-10.109-6.525-18.251-.483-3.046-.846-5.8-1.124-8.367-.282.037-.458.132-.446.31.215 2.989-.056 5.952-.885 8.856-.758 2.656-2.139 5.153-3.258 7.731-1.771 4.079-2.143 8.791 3.006 12.163.732.48 2.168 1.016 3.194.999.848-.014 1.22-.28.49-.758-5.402-3.538-3.199-8.934-1.293-12.88.041-.084.075-.169.115-.253.475 3.311 1.459 6.721 2.141 9.968 1.215 5.782.752 14.13-5.149 16.22-.939.332.467 1.028 2.262.596 2.496-.601 4.062-1.657 5.268-2.819 3.294-3.177 3.573-5.333 2.63-11.285a43 43 0 0 0-.426-2.23" style="fill:#122a89"/></svg>