<svg xmlns="http://www.w3.org/2000/svg" xml:space="preserve" viewBox="0 0 215 220"><path d="M68.65 173.603c.8-1.174 1.221-3.188.999-5.439-.198-2.004-.86-3.716-1.717-4.767 1.11-1.358 1.716-3.95 1.428-6.871-.242-2.449-1.057-4.541-2.109-5.809.967-.927 1.769-2.441 2.288-4.309-1.668-3.621-2.933-7.867-3.802-13.345-.067-.424-.124-.823-.187-1.236-.036-.005-.071-.017-.108-.021-.716-.065-1.406.171-2.04.645-.461.043-.918.21-1.364.473-.76-1.242-1.723-2.04-2.804-2.171-2.785-.338-5.282 3.837-5.577 9.325-.202 3.756.68 7.152 2.15 9.031-1.152 1.034-2.14 2.935-2.591 5.31-.538 2.834-.162 5.53.821 7.109-.94.861-1.744 2.417-2.113 4.361-.414 2.183-.172 4.267.519 5.6-1.06.569-2.012 2.116-2.351 4.632-.871 6.463-3.197 7.048-3.093 8.052.182 1.746 6.429.759 8.229-5.55.739-2.588.611-4.653.027-5.934.909-.468 1.747-1.607 2.309-3.15.109 2.027.72 3.754 1.599 4.682-.834.992-1.402 2.915-1.254 5.684.361 6.749 6.12 10.185 6.671 8.588.317-.918-1.781-2.405-1.22-8.931.218-2.541-.358-4.4-1.249-5.366.754-.794 1.337-2.152 1.581-3.814.412 1.746 1.173 3.134 2.069 3.817-.689 1.146-.994 3.165-.486 5.885 1.239 6.63 7.343 8.927 7.675 7.235.19-.973-2.064-2.043-2.369-8.631-.12-2.564-.93-4.298-1.931-5.085m-10.441-8.566c-.065-1.001-.262-1.908-.592-2.619q.326-.228.635-.546c.243.616.532 1.15.864 1.586-.35.409-.657.945-.907 1.579m5.285.942c-.185-.747-.443-1.405-.762-1.941a4.8 4.8 0 0 0 .98-1.204q.284.388.592.688c-.385.631-.659 1.484-.81 2.457m102.372 10.143c-.339-2.516-1.291-4.064-2.351-4.632.691-1.333.934-3.417.52-5.6-.369-1.944-1.174-3.5-2.114-4.361.983-1.58 1.359-4.276.821-7.109-.451-2.376-1.439-4.276-2.591-5.31 1.47-1.878 2.352-5.275 2.15-9.031-.295-5.488-2.792-9.663-5.577-9.325-1.081.131-2.044.929-2.804 2.171-.447-.262-.904-.429-1.364-.473-.635-.474-1.324-.71-2.04-.645-.037.003-.072.016-.108.021-.063.413-.12.812-.187 1.236-.869 5.479-2.134 9.724-3.802 13.345.519 1.868 1.321 3.382 2.288 4.31-1.052 1.268-1.867 3.359-2.109 5.808-.288 2.921.318 5.513 1.428 6.871-.857 1.051-1.52 2.763-1.717 4.767-.222 2.251.198 4.264.999 5.439-1.001.787-1.811 2.521-1.929 5.086-.305 6.588-2.559 7.658-2.368 8.631.331 1.692 6.436-.605 7.674-7.235.508-2.72.203-4.739-.486-5.885.896-.683 1.657-2.071 2.069-3.817.244 1.662.827 3.02 1.581 3.814-.891.967-1.467 2.825-1.249 5.366.561 6.526-1.537 8.013-1.22 8.931.551 1.597 6.31-1.839 6.671-8.588.148-2.769-.419-4.692-1.254-5.683.879-.928 1.49-2.655 1.599-4.682.561 1.543 1.4 2.682 2.309 3.15-.584 1.281-.712 3.346.027 5.934 1.8 6.308 8.047 7.296 8.229 5.55.102-1.006-2.224-1.591-3.095-8.054m-13.405-10.143c-.151-.972-.424-1.825-.81-2.457q.308-.3.592-.688c.292.498.624.893.98 1.204-.319.536-.577 1.193-.762 1.941m5.285-.942c-.249-.633-.557-1.169-.907-1.578.332-.436.621-.97.864-1.586q.31.318.635.546c-.33.71-.527 1.617-.592 2.618M143.051 63.816c.188-1.928-.485-3.614-1.553-4.134.4-.397.746-.926 1.02-1.549l.03.04c-.021.135-.051.264-.065.402-.218 2.236.63 4.165 1.928 4.585-.534.623-.931 1.564-1.038 2.658-.142 1.46.267 2.763.972 3.42-.451.561-.781 1.381-.873 2.325-.177 1.814.584 3.372 1.699 3.481s2.163-1.273 2.34-3.087c.12-1.234-.2-2.338-.764-2.959.287-.31.535-.707.726-1.175.092 1.142.547 2.049 1.268 2.408-.558.484-1.036 1.268-1.277 2.228-.321 1.281-.13 2.495.411 3.173-.476.439-.879 1.126-1.086 1.954-.398 1.591.072 3.079 1.05 3.324.49.123 1.015-.09 1.467-.533.312 2.369 1.261 4.335 2.59 5.332a3.5 3.5 0 0 0 1.26.582c-.485.55-.869 1.286-1.106 2.168a9 9 0 0 0-.226 3.311c.071.629.213 1.215.386 1.772.376 1.209.961 2.219 1.671 2.903-.77.389-1.359 1.273-1.663 2.422a7.5 7.5 0 0 0-.181 2.709q.059.514.174.992c.274 1.141.785 2.091 1.409 2.747-.762.863-1.179 2.384-.99 4.074.279 2.484 1.743 4.359 3.27 4.188 1.528-.171 2.54-2.324 2.262-4.808-.145-1.293-.615-2.412-1.244-3.172.954-.916 1.49-2.71 1.265-4.71-.168-1.498-.731-2.781-1.476-3.625 1.772-.602 2.897-3.264 2.553-6.327-.294-2.618-1.571-4.711-3.097-5.392 1.627-1.29 2.828-3.887 2.976-6.97.212-4.395-1.776-8.058-4.456-8.302.164-.031.329-.057.484-.125 1.736-.766 2.133-3.676.887-6.499-1.104-2.5-3.124-4.085-4.779-3.885.561-1.756-.183-4.343-2.065-6.536-1.403-1.635-3.116-2.663-4.655-2.974.333-2.42-1.196-5.634-4.111-8.098-3.068-2.594-6.689-3.519-9.015-2.559-1.472-2.802-4.644-5.492-8.797-7.102-6.188-2.398-12.384-1.56-14.655 1.77-2.271-3.33-8.468-4.168-14.655-1.77-4.153 1.609-7.325 4.3-8.797 7.102-2.326-.96-5.947-.035-9.015 2.559-2.916 2.465-4.445 5.679-4.112 8.098-1.539.311-3.253 1.339-4.655 2.974-1.882 2.193-2.626 4.781-2.065 6.536-1.654-.201-3.675 1.385-4.779 3.885-1.246 2.823-.849 5.733.887 6.499.154.068.32.095.484.125-2.681.244-4.668 3.906-4.456 8.302.149 3.084 1.35 5.681 2.977 6.97-1.526.68-2.803 2.773-3.097 5.392-.344 3.063.781 5.725 2.553 6.327-.745.844-1.308 2.126-1.476 3.625-.224 2 .311 3.795 1.265 4.71-.629.76-1.099 1.879-1.244 3.172-.279 2.484.734 4.637 2.262 4.808s2.992-1.704 3.27-4.188c.19-1.691-.228-3.211-.99-4.074.624-.655 1.135-1.606 1.409-2.747a8 8 0 0 0 .174-.992 7.4 7.4 0 0 0-.181-2.709c-.303-1.149-.892-2.034-1.663-2.422.71-.684 1.295-1.694 1.671-2.903a9.5 9.5 0 0 0 .386-1.773 9 9 0 0 0-.226-3.311c-.237-.882-.62-1.618-1.106-2.168a3.5 3.5 0 0 0 1.26-.582c1.329-.997 2.279-2.963 2.59-5.332.452.443.977.656 1.467.533.978-.245 1.448-1.733 1.05-3.324-.207-.828-.611-1.514-1.086-1.954.54-.679.731-1.892.411-3.173-.24-.96-.718-1.744-1.277-2.228.721-.358 1.176-1.266 1.268-2.408.192.468.44.865.727 1.175-.564.621-.885 1.725-.764 2.959.177 1.814 1.224 3.196 2.34 3.087s1.876-1.667 1.699-3.481c-.092-.944-.423-1.764-.873-2.325.705-.657 1.115-1.96.972-3.42-.107-1.094-.503-2.035-1.038-2.658 1.298-.42 2.146-2.349 1.928-4.585-.014-.139-.044-.268-.064-.402l.03-.04c.274.623.62 1.152 1.02 1.549-1.068.52-1.741 2.207-1.553 4.134.124 1.273.601 2.358 1.238 3.047-.627.69-.983 1.917-.849 3.288.197 2.015 1.36 3.551 2.6 3.43s2.085-1.852 1.888-3.868c-.102-1.049-.47-1.96-.97-2.584.784-.73 1.238-2.177 1.08-3.8-.119-1.216-.559-2.261-1.153-2.953 1.442-.467 2.384-2.61 2.142-5.094a7.4 7.4 0 0 0-.562-2.197c.658-.218 1.325-.53 1.99-.894.238.873.614 1.617 1.08 2.179-1.238.459-2.163 2.252-2.163 4.404 0 1.421.411 2.673 1.041 3.503-.768.696-1.294 2.014-1.294 3.545 0 2.25 1.122 4.073 2.505 4.073s2.505-1.824 2.505-4.073c0-1.171-.308-2.219-.794-2.962.945-.723 1.604-2.274 1.604-4.086 0-1.357-.375-2.56-.956-3.39 1.645-.361 2.918-2.629 2.918-5.403a8.3 8.3 0 0 0-.359-2.415c.587.357 1.249.65 1.976.872.139 1.058.469 1.982.933 2.698-1.425.347-2.679 2.206-2.958 4.58-.184 1.568.107 3.003.695 4-.938.668-1.688 2.055-1.887 3.744-.291 2.482.71 4.64 2.237 4.819s3.001-1.688 3.292-4.171c.152-1.292-.053-2.488-.493-3.371 1.137-.676 2.065-2.302 2.299-4.301.176-1.497-.082-2.874-.617-3.865 1.5-.149 2.88-1.699 3.552-3.902.229-.042.462-.099.694-.15.125.229.269.428.416.622-1.396.45-2.511 2.395-2.616 4.784-.069 1.577.326 2.987.985 3.939-.886.735-1.534 2.172-1.608 3.872-.109 2.497 1.047 4.576 2.582 4.643 1.536.067 2.869-1.903 2.979-4.4.057-1.3-.234-2.478-.738-3.326 1.085-.757 1.891-2.447 1.979-4.457.066-1.506-.292-2.86-.897-3.809 1.48-.257 2.739-1.893 3.252-4.127a5.7 5.7 0 0 0 .841 1.143c-1.489.589-2.531 2.68-2.425 5.131.07 1.618.633 3.023 1.443 3.935-.904.833-1.48 2.362-1.405 4.107.111 2.563 1.57 4.581 3.26 4.508s2.969-2.21 2.858-4.773c-.058-1.334-.485-2.511-1.116-3.332 1.119-.874 1.847-2.676 1.757-4.739-.067-1.546-.584-2.897-1.335-3.811.61-.153 1.171-.49 1.647-1.003.476.513 1.037.85 1.647 1.003-.751.914-1.268 2.265-1.335 3.811-.089 2.064.639 3.865 1.757 4.739-.631.821-1.058 1.998-1.116 3.332-.111 2.563 1.168 4.699 2.858 4.773 1.689.073 3.149-1.945 3.26-4.508.076-1.744-.501-3.273-1.405-4.107.81-.912 1.373-2.316 1.443-3.935.106-2.451-.936-4.543-2.425-5.131a5.7 5.7 0 0 0 .841-1.143c.514 2.234 1.772 3.87 3.252 4.127-.605.949-.963 2.303-.897 3.809.088 2.011.895 3.701 1.98 4.458-.504.848-.795 2.027-.738 3.326.109 2.497 1.443 4.467 2.979 4.4s2.692-2.146 2.583-4.643c-.074-1.7-.722-3.137-1.609-3.872.659-.952 1.054-2.362.985-3.939-.105-2.389-1.219-4.334-2.616-4.784.147-.194.29-.393.415-.622.231.051.464.108.693.15.672 2.203 2.052 3.753 3.552 3.902-.534.991-.792 2.367-.617 3.865.234 1.999 1.162 3.626 2.299 4.301-.441.883-.645 2.079-.493 3.371.291 2.483 1.765 4.35 3.292 4.171s2.528-2.337 2.237-4.819c-.198-1.69-.949-3.076-1.887-3.744.588-.997.879-2.432.695-4-.279-2.375-1.532-4.233-2.958-4.58.465-.716.795-1.64.933-2.698a8.7 8.7 0 0 0 1.976-.872 8.3 8.3 0 0 0-.359 2.415c0 2.774 1.273 5.042 2.918 5.403-.582.83-.956 2.033-.956 3.39 0 1.811.659 3.363 1.604 4.086-.486.743-.794 1.791-.794 2.962 0 2.25 1.122 4.073 2.505 4.073s2.505-1.824 2.505-4.073c0-1.531-.526-2.849-1.294-3.545.63-.83 1.041-2.082 1.041-3.503 0-2.152-.926-3.945-2.163-4.404.466-.562.843-1.306 1.08-2.179.665.364 1.332.676 1.99.894a7.4 7.4 0 0 0-.562 2.197c-.242 2.485.7 4.628 2.142 5.094-.594.692-1.034 1.737-1.153 2.953-.158 1.623.296 3.069 1.08 3.8-.501.623-.868 1.535-.97 2.584-.197 2.015.649 3.747 1.888 3.868s2.403-1.415 2.6-3.43c.134-1.372-.222-2.598-.849-3.288.638-.689 1.115-1.775 1.239-3.047m8.487 5.193c.803.776 1.693 1.225 2.529 1.289-.928.103-1.797.598-2.542 1.415-.09-.795-.397-1.442-.873-1.768a4 4 0 0 0 .886-.936m-4.502-7.209c.056-.09.118-.17.169-.266.742.201 1.443.229 2.068.084a5.2 5.2 0 0 0-.228 1.688c-.357.342-.675.796-.937 1.323-.09.18-.176.364-.25.561-.111-1.265-.637-2.288-1.394-2.656.208-.206.398-.455.572-.734m-82.605 9.913c-.745-.817-1.614-1.312-2.542-1.415.836-.064 1.725-.514 2.529-1.289.267.385.566.701.886.936-.476.326-.783.973-.873 1.768m3.666-6.523a6 6 0 0 0-.25-.561c-.262-.527-.58-.981-.937-1.323a5.2 5.2 0 0 0-.228-1.688c.624.145 1.325.117 2.068-.084.052.096.113.176.169.266.174.279.364.527.572.734-.756.368-1.283 1.391-1.394 2.656" style="fill:#122a89"/></svg>