<svg xmlns="http://www.w3.org/2000/svg" xml:space="preserve" viewBox="0 0 215 220"><path d="M169.407 105.871c-1.794-2.861-5.072-5.134-7.971-5.859.986-1.398 5.274-1.111 6.507-.626 2.705 1.065.013-2.917-7.451-5.974.147-.839.238-1.682.283-2.527 1.743.243 3.029.708 2.632.125-.705-1.033-1.663-2.045-2.718-2.997-.266-2.562-1.078-5.051-2.703-7.26-2.856-3.883-7.302-4.615-11.957-4.058.15-1.536-.464-2.854.677-4.039.753-.782 3.148-1.399 2.722-1.794s-4.671-1.065-6.893-.89c-3.509.277-8.27 2.162-10.302 4.279-7-8.081-4.17-5.878-6.003-3.311-1.667 2.334-3.475 1.814-5.213 2.72-.781-1.675-.791-5.796-2.813-4.698-7.27 3.946.225-2.691-5.108-2.056-9.155 1.089-13.11 6.534-13.11 6.534 1.54-4.532-1.825-2.912-5.763.836-3.303-.051-6.169.813-8.476 2.382-6.289 2.139-10.457 6.296-11.913 10.801-3.462 1.119-6.817 3.589-10.532 7.568-4.087 4.377-6.95 9.53-7.085 13.471-.044 1.281.38 2.705 1.059 3.271a34 34 0 0 0-1.596 1.827c-1.17 1.454-1.209 4.347-.017 5.878.493.633 1.079 1.023 1.684 1.178-.355.549-.701 1.11-1.026 1.693-.724 1.298-.489 3.457.467 4.755-.253.398-.522.778-.756 1.197-.663 1.188-.336 3.272.708 4.227.088.08.179.141.269.206l-.034.043c-.761 1.075-1.008 3.22-.469 4.359.363.768.911 1.068 1.471.883-.283.392-.57.774-.841 1.199-.635.994-.809 2.928-.326 3.93.188.391.427.64.688.745-.27.748-.326 1.743-.059 2.33.351.773 2.356 8.958 5.185 6.445a8.7 8.7 0 0 0 1.378-1.604c2.606-3.821 3.169-9.925 3.235-10.798.091-1.191-.279-1.904-.858-2.033-.768-.171-1.561-.141-2.358.046a7 7 0 0 0-1.572.601c.383-.336.814-.666 1.358-.924.071-.034.15-.058.224-.088 1.524-.632 3.518-.581 4.366-.413.745.147 1.591-1.411 1.665-2.798.087-1.636-.441-2.602-1.24-2.76-1.5-.296-3.055-.072-4.591.603-.889.39-1.768.952-2.63 1.634.465-.484 1.315-1.461 2.66-2.162.171-.089.315-.194.503-.271 1.815-.741 4.32-.572 5.35-.332.864.2 1.882-1.493 2-3.033.139-1.817-.454-2.919-1.379-3.134-1.587-.368-3.237-.229-4.883.307 2.133-1.099 5.412-1.504 6.816-1.511 1.182-.006 1.994-1.837 1.681-3.319-.368-1.749-1.471-2.656-2.738-2.65-.426.002-.843.067-1.264.104 2.4-.779 5.158-1.09 6.511-1.096 1.459-.007 2.461-2.267 2.076-4.098a5.5 5.5 0 0 0-.5-1.424c.269.031.523.063.733.098 1.6.264 3.119-2.024 3.038-4.102-.052-1.336-.465-2.372-1.1-3.095.719-.789 1.292-1.933 1.452-3.076.009-.061.025-.147.037-.216.047.856.126 1.74.253 2.673.979 7.192 6.373 5.87 8.05 3.432.312-.454 5.612 3.757 8.715-1.395.702.406 4.824 4.156 9.996 1.309 1.168 1.163 5.032 1.681 7.134 1.593 3.69-.155 5.536-.983 6.768-1.476 3.077 2.603 7.131 3.162 10.897 1.447.386 1.662 1.611 3.119 2.903 2.906.21-.035.464-.067.733-.098a5.4 5.4 0 0 0-.5 1.424c-.385 1.831.617 4.091 2.076 4.098 1.352.007 4.11.318 6.511 1.096-.421-.038-.838-.102-1.264-.104-1.267-.006-2.369.901-2.738 2.65-.312 1.483.499 3.313 1.681 3.319 1.404.007 4.683.412 6.816 1.511-1.646-.535-3.296-.675-4.883-.307-.925.215-1.518 1.317-1.379 3.134.118 1.54 1.137 3.233 2 3.033 1.03-.239 3.535-.408 5.35.332.187.076.332.182.503.271.56.291 1.043.619 1.437.962l-.184.218a11 11 0 0 0-1.224-.652c-1.536-.674-3.091-.898-4.591-.603-.799.158-1.328 1.124-1.24 2.76.074 1.387.919 2.945 1.665 2.798.848-.167 2.842-.218 4.367.413.074.031.152.055.224.088.544.258.975.588 1.358.924a7 7 0 0 0-1.572-.601c-.797-.188-1.59-.217-2.358-.046-.58.129-.949.842-.858 2.033.067.873.629 6.977 3.235 10.798a8.7 8.7 0 0 0 1.378 1.604c2.829 2.513 4.833-5.672 5.185-6.445.267-.587.211-1.582-.059-2.33.26-.105.499-.354.688-.745.483-1.002.308-2.936-.326-3.93-.271-.425-.558-.806-.841-1.199.56.185 1.107-.116 1.471-.883.539-1.139.292-3.284-.469-4.359l-.034-.043c.09-.065.181-.126.269-.206.343-.314.6-.756.779-1.242 2.624-2.266 4.672-5.167 5.635-8.782.152-.569.246-1.127.315-1.679.219 1.32.41 2.784.655 4.625.387 2.917.563 5.34 1.245 4.353 3.219-4.659 4.259-11.338-.087-19.019a22 22 0 0 0-1.783-2.654c.588.138 1.201.421 1.849.908 3.784 2.838 4.089 1.664 1.062-3.163M79.573 86.813q-.81-.066-1.599-.049c.567-1.935 1.664-3.549 2.737-4.914.378-.481.869-.996 1.401-1.511-1.255 1.861-2.13 4.051-2.539 6.474m5.9-.509c-.262.708-.51 1.394-.746 2.07-.073-.299-.191-.503-.377-.564-.064-.021-.125-.035-.188-.055.534-4.479 2.621-7.044 4.553-8.947.893-.879 2.215-1.722 3.451-2.437-2.817 3.065-5.549 6.841-6.693 9.933m67.212-3.504c-1.119-.408-3.394-1.552-5.323-2.445 1.29-.003 2.525.073 3.12.268 1.644.537 2.868 1.535 3.891 2.972-.658-.348-1.255-.637-1.688-.795m3.025 8.997c.538-.439 1.157-.705 1.805-.859q.15.693.311 1.489a42 42 0 0 0-2.116-.63m5.121 29.789c-.15.469-.301.888-.453 1.302a3 3 0 0 0-.228-.545 31 31 0 0 0-1.026-1.693c.605-.155 1.19-.545 1.684-1.178.243-.312.422-.69.564-1.093-.003 1.047-.188 2.105-.541 3.207" style="fill:#122a89"/></svg>