<svg xmlns="http://www.w3.org/2000/svg" xml:space="preserve" viewBox="0 0 215 220"><path d="M162.133 113.762c.574-4.899-6.432-40.066-36.412-42.637-7.712-.661-22.469-4.883-28.612 3.26-.083-.128-.163-.261-.254-.376-1.763-2.225-3.904-3.86-12.636-1.226-9.839 2.969-15.798 3.837-23.21 17.884-6.938 13.148-7.456 24.779-7.456 24.779l.009-.018c-.167 1.551-.15 3.136.159 4.709 1.078 5.475.203 13.968 2.513 18.974 2.044 4.432 3.667 2.445 3.707 4.545-.432 2.729 1.918 7.002 3.818 6.899 1.479-.08 2.685-2.813 2.094-10.992-.786-10.878 5.511-11.974 3.166-16.922 3.741-3.789 4.653-7.671 4.304-7.994-3.064-2.834 1.742-4.294.446-6.48-.495-.835-.76-1.591-.885-2.277.533.123 1.244.258 2.19.41 7.839 1.265 12.869.319 19.191-2.532.232-.104.397-.206.59-.308 4.285 1.744 9.942 2.244 15.686 2.212 2.807 1.881 6.047 3.186 10.414 4.074 8.776 1.784-.607-2.013-3.208-4.432a53 53 0 0 1-1.454-1.404c5.838 2.327 11.008 2.972 18.354 1.676 2.078 1.206 4.577 2.352 7.314 3.434.088 1.753 3.314 3.176.665 5.627-.349.323.563 4.204 4.304 7.994-2.345 4.948 3.952 6.044 3.166 16.922-.592 8.188.618 10.917 2.099 10.992 1.899.096 4.244-4.172 3.813-6.899.04-2.1 1.663-.113 3.707-4.545 2.309-5.006 1.435-13.499 2.513-18.974.422-2.143.309-4.308-.095-6.375m-75.305-13.088c-1.939 1.056-2.592 1.681-7.045 3.134 4.746-4.743 7.499-4.791 9.48-3.892-.899.144-1.747.384-2.435.758m14.024.816a12.7 12.7 0 0 1-2.866-1.307c1.554-.272 3.691-.339 6.626.074.992 1.152 1.977 2.207 2.994 3.135-2.808-.84-5.966-1.649-6.754-1.902m29.251 1.178c-2.178-.705-3.545-1.239-4.574-1.716a51 51 0 0 0 3.502-.642c.349.88.984 1.738 1.859 2.57a9 9 0 0 1-.787-.212m12.965 3.214c-1.516-1.171-2.88-2.18-3.283-2.531a7 7 0 0 1-1.188-1.296c1.261.153 2.581.274 3.931.408.379.777.811 1.917.54 3.419" style="fill:#122a89"/></svg>