<svg xmlns="http://www.w3.org/2000/svg" xml:space="preserve" viewBox="0 0 215 220"><path d="M149.153 94.579a46 46 0 0 0-12.769-10.505c-1.8-.999-9.058-4.308-19.777-4.917-4.118 0-6.832.456-8.63 1.184-1.798-.728-4.512-1.184-8.63-1.184-10.719.61-17.977 3.918-19.777 4.917a46 46 0 0 0-12.769 10.505c-7.684 9.097-9.356 18.236-9.222 25.697.098 5.456 1.223 9.866 3.728 13.677.836 1.271 1.932 2.872 2.854 3.907.695.78 1.293 1.247 1.591.958.771-.747.515-2.022 1.542-4.484 1.048 2.014 3.548 4.102 5.247 5.451 1.696 1.346 1.267.248 1.356-.886.112-1.415-.02-1.795-.02-1.795s.724.742 2.683 2.304c.974.776 3.761 2.626 2.653.312-6.97-14.55 11.254-14.129 19.372-17.078 4.361-1.584 7.374-6.678 9.391-12.319 2.016 5.64 5.029 10.735 9.39 12.319 8.118 2.949 26.342 2.528 19.372 17.078-1.109 2.314 1.679.465 2.653-.312 1.96-1.562 2.683-2.304 2.683-2.304s-.131.38-.019 1.795c.089 1.134-.34 2.232 1.356.886 1.7-1.349 4.199-3.436 5.247-5.451 1.027 2.462.771 3.737 1.542 4.484.298.288.896-.178 1.591-.958.922-1.034 2.018-2.635 2.854-3.907 2.506-3.811 3.63-8.221 3.728-13.677.136-7.461-1.536-16.601-9.22-25.697" style="fill:#122a89"/></svg>