<svg xmlns="http://www.w3.org/2000/svg" xml:space="preserve" viewBox="0 0 215 220"><path d="M172.409 166.523c4.319-8.371-3.871-16.677-.282-24.46 9.049-19.626-4.42-29.72-2.781-43.348 2.781-23.126-6.647-40.32-12.854-48.527-16.921-22.372-35.936-25.457-48.057-22.23-.161.043-.307.113-.457.176-.15-.063-.297-.134-.457-.176-12.12-3.227-31.136-.142-48.057 22.23-6.208 8.207-15.635 25.402-12.854 48.527 1.639 13.628-11.831 23.723-2.781 43.348 3.589 7.783-4.601 16.089-.281 24.46 5.628 10.907-5.125 18.212-1.487 19.178 24.134 6.411 38.991-10.139 35.772-25.124a93 93 0 0 0-1.418-5.671c-2.201-7.844-4.153-11.983-.821-16.479 5.702-7.694-1.344-23.256-3.457-38.313.464.072.902.112 1.279.115 10.742.088 15.93-7.031 18.541-14.581 1.65-4.772 2.864-9.677 5.077-14.214.292-.599.632-1.17.947-1.755a75 75 0 0 0-1.155 3.847c-2.231 8.338-3.173 19.697 2.057 27.747.819 1.26 2.251 1.942 3.269 2.03.506.044 1.884-.157 1.041-1.453-5.175-7.964-3.425-19.856-1.049-27.72.024.503.046 1.006.082 1.501.653 9.097 3.717 19.832 11.998 22.775 1.19.423 2.719-.003 3.806-.636 2.7 3.11 6.391 4.152 11.236.521.974-.73 2.059-2.288 2.891-3.809 3.381 3.16 7.348 4.778 11.91 3.422l.019.056c-1.676 15.706-9.697 32.405-3.723 40.467 3.332 4.496 1.38 8.635-.821 16.479a93 93 0 0 0-1.418 5.671c-3.219 14.984 11.638 31.535 35.772 25.124 3.638-.966-7.115-8.271-1.487-19.178M85.526 79.802c-1.988 6.54-5.016 14.882-13.258 16.828 2.423-6.671 6.726-12.933 10.405-17.319 1.648-1.965 3.373-3.895 5.091-5.868a78 78 0 0 0-2.238 6.359m-7.808-2.853a66 66 0 0 0-5.173 7.739c.653-2.475 1.661-4.84 3.157-7.037C80.413 70.73 85.2 63.84 91.581 60.107c-4.254 6.264-9.526 11.247-13.863 16.842m30.207-5.62c-.029-1.038-.04-2.089-.047-3.145 3.201 5.304 4.003 14.64 6.033 21.365a32 32 0 0 0 1.428 3.843c-5.509-4.742-7.21-14.627-7.414-22.063m10.294 8.07c-.804-3.314-1.471-6.95-2.307-10.356.21.286.434.546.641.838 3.477 4.91 6.235 10.735 9.317 16.195 1.243 2.202 2.62 4.291 4.13 6.106-6.364 2.213-10.061-5.694-11.781-12.783m11.046-3.735c-.447-.852-.909-1.671-1.367-2.499 1.799 2.071 3.609 4.088 5.335 6.146 2.534 3.021 5.363 6.933 7.673 11.254-4.888-2.629-8.684-9.268-11.641-14.901m8.922 1.285c-4.348-5.609-9.637-10.603-13.897-16.891 6.424 3.721 11.232 10.641 15.963 17.593 1.53 2.247 2.555 4.669 3.206 7.206a66 66 0 0 0-5.272-7.908" style="fill:#122a89"/></svg>