<svg xmlns="http://www.w3.org/2000/svg" xml:space="preserve" viewBox="0 0 215 220"><path d="M178.658 124.364c.241-.48.471-.972.673-1.488 1.228-3.131-1.167-6.675-3.507-6.622l-.105.006c.602-.905 1.083-1.997 1.397-3.278 1.145-4.675-.631-9.667-3.515-12.083.893-1.21 1.623-2.495 1.887-4 .354-2.02-.064-4.112-1.426-5.719.76-2.374.478-4.929-1.517-7.209-.043-.05-.096-.091-.14-.139.907-2.403.726-4.949-1.447-7.044l-.031-.025c5.39-.019 7-6.102 2.881-9.946a9.15 9.15 0 0 0-3.251-1.948c1.799-.965 2.94-2.537 2.799-4.65-.106-1.597-2.372-3.174-4.479-3.39-2.279-.233-3.755.963-3.649 2.552-.047-.711-.234.775-.036.12a.6.6 0 0 0-.033.158c-.026-.008-.083.005-.215.092l-.154.097a4 4 0 0 1-.362.134l-.079.024a6 6 0 0 1-.277.033c.003-.009-.226-.006-.432-.01-.103-.06-1.019-.278-.712-.181-.132-.042-.141-.054-.449-.273-.039-.028-.642-.557-.575-.468l-.082-.088c1.74-1.696 2.6-3.928 3.377-6.057.456-1.25-.619-2.538-2.127-3.341.036-.081.083-.155.107-.245.42-1.549.691-3.234.419-4.918 2.147.444 2.858 2.576 1.554 3.728-1.908 1.686 2.072 4.412 3.979 2.727 1.793-1.585 2.138-4.111.788-6.332-1.438-2.366-4.527-3.929-7.666-4.024-.173-.005-.336.011-.505.016a10.64 10.64 0 0 0-5.463-3.324c-1.606-.385-3.105-.285-4.379.149-1.476-1.116-3.342-1.888-5.297-1.94-1.69-.045-3.121.445-4.21 1.239-1.38-1.189-3.082-2.173-5.191-2.813-.075-.023-.152-.037-.227-.058a10.5 10.5 0 0 0-2.198-1.034 12 12 0 0 0-3.036-.597 5.6 5.6 0 0 0-.922-1.457c-1.554-1.758-4.398-2.775-7.356-1.973-3.99-2.149-9.903-1.492-13.739 1.977a15 15 0 0 0-2.123 2.408c-.935.318-1.835.743-2.701 1.225-2.944-2.847-7.847-4.199-12.223-2.861-.995.304-1.993.743-2.944 1.279a16.7 16.7 0 0 0-3.432-.016c-1.638-3.165-5.27-5.741-9.83-5.893-6.995-.233-10.862 5.976-5.464 10.034 1.394 1.048 3.817.75 4.884-.288 1.222-1.189.728-2.768-.67-3.819.077.058.442-.421.376-.387.457-.241 1.298-.188 1.826-.038 1.225.347 2.084 1.274 2.522 2.224-1.851.905-3.596 2.109-4.354 3.691a3.7 3.7 0 0 0-.29 2.32c-2.247-1.162-5.216-1.776-8.357-.761-2.409.779-4.24 2.194-5.511 3.858-1.323.152-2.71.53-4.119 1.245a14.96 14.96 0 0 0-6.061 5.663c-.583.064-1.182.156-1.817.309-7.985 1.927-13.013 10.98-7.968 14.476 1.315.911 3.96.121 5.442-1.393 1.602-1.638 1.585-3.538.276-4.445.586.406-.461-.666-.071-.103a.6.6 0 0 0-.103-.124c.022-.015.048-.068.062-.226l.02-.181c.035-.122.072-.244.121-.367l.03-.077q.07-.12.146-.237c.005.008.145-.173.277-.332.111-.043.852-.624.585-.445.115-.077.131-.077.494-.181.046-.013.836-.155.724-.158l.119-.009c.209 2.074 1.134 3.879 2.137 5.572-.17.017-.338.025-.509.053-2.784.451-5.525 2.271-6.386 5.001-4.618 2.226-7.351 7.257-5.869 11.895.298.932.76 1.877 1.343 2.786a11.6 11.6 0 0 0-.265 3.144c-3.964 1.286-7.356 4.438-7.868 8.608-.684 5.574 4.748 9.3 9.677 7.074-2.635 2.532-4.186 7.272-3.097 11.718.314 1.281.795 2.373 1.397 3.278l-.105-.006c-2.34-.053-4.735 3.491-3.507 6.622.202.516.432 1.008.673 1.488-2.902.154-5.194 5.847-2.211 8.312 2.183 1.804 4.494 3.519 7.201 3.366a6 6 0 0 0 .849-.121c.021 1.332.176 2.667.454 3.958-1.484 1.583-2.612 3.819-3.084 6.661-.646 3.894-.008 8.062 1.422 11.499-.117.258-.248.496-.354.77-1.909 4.958-1.579 11.172 1.033 15.554 2.453 4.114 6.471 5.873 10.022 4.53.651-.246 1.135-.717 1.488-1.304.119.109.23.232.351.336-2.623 1.803-3.17 8.344.244 8.899 2.498.406 5.089.658 7.534-1.034 2.545-1.76 4.663-5.402 4.721-9.544 3.805-4.971 5.012-13.07 2.285-18.905a16.8 16.8 0 0 0-2.072-3.322 23.6 23.6 0 0 0-.63-4.474c.507-.501.982-1.067 1.436-1.664-.904-2.696-1.643-5.737-2.21-9.311-.755-4.756-1.224-8.819-1.517-12.528-1.263.2-2.519.937-3.636 2.225-.732-.868-1.496-1.666-2.308-2.337a6.9 6.9 0 0 0 2.773-.639c1.07-.491 2.072-1.284 2.968-2.272-.389-6.823-.232-12.681-.288-19.979-.011-1.409-.002-2.786.018-4.142-.052-.058-.094-.123-.15-.178-.022-.022-.046-.036-.068-.058.076-.154.163-.297.235-.456v-.003c1.82-.524 3.344-2.033 3.131-4.118-.153-1.5-.597-2.908-1.344-4.102a4.3 4.3 0 0 0 1.823-.452 11.7 11.7 0 0 0 1.57 4.43c-.117.179-.248.343-.354.532-1.909 3.427-1.579 7.721 1.033 10.75 2.452 2.843 6.471 4.059 10.022 3.13 3.776-.987 2.283-6.968-1.495-5.98-2.582.675-5.317-1.426-4.582-4.008 2.352 1.35 5.057 2.117 7.658 2.639 2.331.468 4.168-1.265 3.755-3.655-.601-3.478-3.572-6.379-6.953-7.141a8.6 8.6 0 0 0-4.275.125 4.45 4.45 0 0 1-.402-2.263c.048-.645.318-1.16.725-1.552 3.105 2.532 7.248 3.213 11.124 3.148 2.355-.04 4.438-3.402 2.185-5.21-3.168-2.543-6.75-5.044-10.953-4.968l-.128.007c-.215-.76-.181-1.542.323-2.181.585-.742 1.621-1.042 2.689-1.052 2.602 2.824 5.998 5.085 9.339 6.731 1.041.513 2.04.455 2.835.059-.295 2.321.093 4.678 1.434 6.67 3.598 5.346 11.689 3.579 12.646-3.435.247-1.811-1.364-3.381-2.946-3.396-1.813-.018-3.062 1.524-3.31 3.34.014-.1-.648-.013-.578.01-.481-.159-.89-.82-1.034-1.321-.335-1.165.087-2.49.763-3.521 1.883.695 3.996 1.087 5.933.469 2.124-.678 3.827-2.717 4.083-5.037-.006.447.008.897.059 1.35.299 2.669 3.203 3.858 5.676 3.354-.512 1.91-.057 3.892 1.862 5.053 1.957 1.184 5.464.789 6.602-1.465q.19-.377.377-.753c-.026.146-.067.287-.087.435-.327 2.473 1.129 4.266 2.978 3.782 2.063-.54 4.208-1.334 6.073-2.73.583 2.671-1.586 4.846-3.634 4.147-2.996-1.022-4.18 5.166-1.185 6.188 2.816.96 6.003-.297 7.948-3.239 2.072-3.134 2.333-7.577.819-11.123-.084-.196-.188-.366-.281-.55.723-1.566 1.15-3.347 1.261-5.152.26.07.526.121.8.136-.93 1.574-1.075 3.438.177 5.009 1.016 1.276 2.756 1.973 4.361 1.649a7 7 0 0 0-.335 2.713c.208 2.577 2.082 4.294 4.326 4.33-.747 1.193-1.191 2.602-1.344 4.102-.263 2.57 2.105 4.292 4.424 4.333-.839 1.687-.826 3.644.665 5.135.558.558 1.347.955 2.193 1.147-.025 6.541.079 12.025-.28 18.32.897.988 1.899 1.781 2.969 2.272a6.9 6.9 0 0 0 2.773.639c-.811.671-1.576 1.469-2.308 2.337-1.117-1.288-2.372-2.025-3.636-2.225-.292 3.709-.762 7.772-1.517 12.528-.567 3.574-1.306 6.615-2.21 9.311.454.597.929 1.163 1.436 1.664a23.6 23.6 0 0 0-.63 4.474 16.8 16.8 0 0 0-2.072 3.322c-2.727 5.835-1.52 13.934 2.284 18.905.058 4.141 2.176 7.783 4.721 9.544 2.445 1.691 5.036 1.44 7.534 1.034 3.414-.555 2.867-7.096.244-8.899.121-.104.232-.227.351-.336.353.587.837 1.057 1.488 1.304 3.55 1.343 7.569-.416 10.022-4.53 2.612-4.382 2.941-10.596 1.033-15.554-.105-.274-.237-.511-.354-.77 1.43-3.437 2.068-7.606 1.422-11.499-.472-2.842-1.6-5.078-3.084-6.661.278-1.291.433-2.626.454-3.958.283.055.567.105.849.121 2.708.153 5.019-1.562 7.201-3.366 2.987-2.47.695-8.163-2.207-8.317M42.89 94.773c-1.191-.363-2.557.056-3.595.968.076-.066-.481-.434-.443-.371-.26-.436-.135-1.203.085-1.676.51-1.099 1.698-1.823 2.884-2.16.366.666.806 1.304 1.288 1.904a8 8 0 0 0-.219 1.335m21.298 70.639a6.6 6.6 0 0 1-.599 2.854 6 6 0 0 0-.856-.549c-.143-.074-.288-.116-.432-.176a11.6 11.6 0 0 0 1.887-2.129M57.569 63.129c-.112.161-.198.34-.3.509q-.133-.052-.267-.101c.202-.12.38-.268.567-.408M50.607 81.32c.075.352-.158.601-.268.736a.56.56 0 0 1-.276-.05c-.45-.24-.929-.413-1.365-.685-.122-.076-.244-.161-.366-.243.774-.385 2.149-.354 2.275.242m-2.758 38.725c-.061-.09-.113-.19-.177-.277-.111-.15-.233-.271-.348-.409.146-.029.29-.086.436-.125.021.275.06.54.089.811M46.455 73.98q.333.326.715.605c.123.089.254.158.38.238a10 10 0 0 0-2.225.881c.177-.656.568-1.252 1.13-1.724m-.197 75.564c.048-.934.318-1.678.725-2.246 1.928 2.275 4.256 3.514 6.672 4.107.063.056.119.122.184.175-.464.563-.858 1.222-1.215 1.919-.547-.361-1.108-.671-1.689-.861-1.466-.478-2.925-.383-4.275.18-.31-.957-.466-2.039-.402-3.274m8.516 19.311c-.612.366-1.135 1.013-1.546 1.781-.586-.509-1.316-.719-2.171-.395-2.582.977-5.317-2.064-4.582-5.799 2.352 1.953 5.057 3.063 7.658 3.818l.005.001c.239.202.482.387.734.54q-.05.026-.098.054m-.319-30.051c-1.602-1.051-3.298-1.726-5.116-1.678-.043.001-.086.008-.128.01-.215-1.099-.181-2.231.323-3.156.585-1.074 1.621-1.507 2.689-1.523a34 34 0 0 0 4.295 5.398c-.715.135-1.414.456-2.063.949m4.915 20.181c.139.056.279.123.42.189-.635.851-1.963 1.367-2.252.59-.171-.459-.017-.899.05-1.131.084-.039.187-.071.279-.043.499.149 1.008.195 1.503.395m1.52-43.84c-1.065 2.022-2.822 2.301-4.322 1.466a18 18 0 0 0-.142-2.68c-.145-1.102-.414-2.231-.743-3.354.474-.567 1.021-1.039 1.701-1.301 2.393-.923 5.034 2.966 3.506 5.869m-.478-54.602a7.8 7.8 0 0 0-1.36.945c.102-.185.227-.364.291-.557 1.19-3.556.506-6.827-1.706-8.716.081-.19.167-.364.258-.491.04-.055.332-.456.424-.596.112-.113.312-.324.344-.356l.071-.073c.025-.018.044-.03.083-.059.054-.04.376-.244.469-.308l.014-.002.001.019c.177 2.448.956 4.678 2.336 6.506a9.9 9.9 0 0 0-1.225 3.688m8.8-13.8c-.129-.191-.249-.388-.402-.565l.007.002c.381.107.227.058.445.148.112.046.223.104.335.156-.137.08-.256.173-.385.259M84.207 65.5c-1.227-.295-2.372-1.094-2.953-2.22.255-.707.636-1.348 1.158-1.869.024-.012.052-.015.077-.028a4.2 4.2 0 0 0 1.006-.738c.292-.152.596-.292.943-.385.104-.028.209-.016.314-.032.084.425.196.846.372 1.251a11.7 11.7 0 0 0-.917 4.021m1.085 6.27c.176-.002.355-.033.532-.044.212.317.465.603.717.891-.411-.291-.814-.598-1.249-.847m7.449 7.161a3.8 3.8 0 0 0-.451-.693c-1.062-1.277-2.205-2.57-3.448-3.747.755.419 1.586.778 2.485 1.042a11.6 11.6 0 0 0 1.86 2.549c-.164.275-.301.564-.446.849m5.667-10.112c-.497.114-.973.297-1.48.377q-.215.032-.436.056c.332-.799 1.391-1.676 1.878-1.308.287.217.274.558.28.732a.6.6 0 0 1-.242.143m10.048 7.758c.017-.272.028-.544.003-.821a4.8 4.8 0 0 0-.604-1.953c.38.012.764-.004 1.151-.084-.341.901-.51 1.867-.55 2.858m4.37-36.642c-.307.236-.639.199-.812.19a.36.36 0 0 1-.064-.224c.048-.447.021-.88.105-1.333.023-.127.055-.258.085-.388.681.355 1.206 1.355.686 1.755m5.055-5.959c-.036.134-.049.264-.075.396a7.3 7.3 0 0 0-1.739-1.135 4.07 4.07 0 0 1 2.104-.087 6 6 0 0 0-.29.826m4.128 36.502c-.066-.055-.112-.126-.18-.18.045-.538.036-1.073 0-1.604a27 27 0 0 0 4.061-3.762c1.273.756 2.681.936 3.973.599q-.177.246-.352.494c-.076.109-.118.23-.18.344-2.745.104-5.157 1.963-7.322 4.109m9.827 7.086a5.27 5.27 0 0 0-3.39-.129c-1.431.421-2.758 1.483-3.767 2.918.307-1.086.482-2.202.424-3.375-.004-.073-.026-.143-.031-.215 2.341-.291 4.658-1.178 6.508-3.147.323.406.537.938.575 1.606a5.9 5.9 0 0 1-.319 2.342m.855-30.965c-.581-.961-1.282-1.82-2.134-2.514l-.025-.111c.151.077.285.171.443.239a8.2 8.2 0 0 0 1.923.559 11 11 0 0 0-.207 1.827m3.169-7.204a12 12 0 0 0-1.282 1.535 3 3 0 0 1-.771.165c-1.484.123-2.514-1.141-2.408-2.226.408-.322.722-.729.896-1.215.795-.485 1.788-.605 2.821-.446.627.644.864 1.463.744 2.187m5.427 11.413-.003-.006c-.154-.364-.096-.214-.161-.44-.253-.876-.371-1.916-.312-2.564.073-.81.289-1.567.616-2.263a32 32 0 0 0 1.318 2.278c-.72.899-1.248 1.888-1.458 2.995m7.395-10.933c-.735 1.19-.846 2.527-.661 3.898-.287.096-.572.198-.811.349l-.273.179c-.345-1.333-.837-2.671-1.549-3.938.34-.564.884-1.017 1.617-1.087.631-.061 1.223.174 1.721.533zm4.463 127.843a5.7 5.7 0 0 0-.856.549 6.6 6.6 0 0 1-.599-2.854 11.6 11.6 0 0 0 1.887 2.129c-.144.06-.289.102-.432.176m-2.067-112.673c1.997-2.071 3.22-4.588 3.366-7.382a3.3 3.3 0 0 0-.182-1.248c.767-1.706 1.089-3.596.375-5.518a2.46 2.46 0 0 1 1.379.117c.654.242 1.161.567 1.556.945-.709.591-1.211 1.344-1.421 2.229-.396 1.668.369 3.644 1.966 5.102-2.831 1.213-4.643 3.293-5.049 5.687a9.2 9.2 0 0 0-1.99.068m5.412 10.998q-.031.18-.069.354c-.032.138-.08.267-.125.398a8 8 0 0 0-.987.107c.176-.385.7-.768 1.181-.859m1.849 93.721c-.289.777-1.617.26-2.252-.59.14-.066.281-.133.42-.189.495-.2 1.004-.246 1.503-.396.093-.028.195.004.279.043.067.233.221.674.05 1.132m-3.352-44.619c-1.528-2.903 1.113-6.792 3.507-5.869.679.262 1.226.733 1.701 1.301-.329 1.122-.598 2.251-.743 3.354-.118.9-.161 1.796-.142 2.68-1.501.835-3.258.556-4.323-1.466m8.667 17.312c1.068.015 2.104.449 2.689 1.523.504.925.538 2.056.323 3.156-.043-.002-.085-.009-.128-.01-1.818-.048-3.514.627-5.116 1.678-.649-.493-1.348-.814-2.062-.949a34 34 0 0 0 4.294-5.398m1.166 37.784c-.855-.323-1.585-.113-2.171.395-.411-.768-.934-1.415-1.546-1.781l-.098-.055c.252-.153.495-.339.734-.54l.004-.001c2.601-.755 5.306-1.865 7.658-3.818.736 3.736-1.999 6.777-4.581 5.8m4.397-17.422a6.03 6.03 0 0 0-4.275-.18c-.581.189-1.142.5-1.689.861-.357-.697-.751-1.356-1.215-1.919.065-.052.121-.119.184-.175 2.416-.592 4.744-1.832 6.672-4.107.407.568.677 1.312.725 2.246.064 1.234-.092 2.316-.402 3.274m-1.189-32.774c.029-.271.068-.536.09-.81.146.038.289.095.436.124-.115.138-.237.259-.348.409-.065.086-.117.187-.178.277m2.529-48.533c-1.532-.129-2.886.631-2.965 2.15-.024.461.117.959.365 1.419a9.5 9.5 0 0 0-1.266-.303c.535-1.472.334-3.231-.13-4.87.898-.374 2.028-.482 2.984.013.412.213.943.677 1.051 1.109-.017-.062-.123.475-.039.482" style="fill:#122a89"/></svg>