<svg xmlns="http://www.w3.org/2000/svg" xml:space="preserve" viewBox="0 0 215 220"><path d="M171.57 112.224c-.972-12.855-1.015-18.607-11.237-30.959-15.829-19.126-38.724-19.685-43.874-20.391-.13-.019-.259-.045-.389-.064-.326-.069-.424-.081-.225-.037-13.77-1.967-27.498 1.241-34.933 9.664-3.368.827-17.231.911-28.168 18.472-3.652 5.864-6.553 15.941-7.61 28.648-.667 8.023-.169 25.844 7.75 31.806.701.528-1.96-5.378-2.326-7.868-.636-4.32-1.113-8.548-1.353-12.727 2.212 10.877 7.203 15.601 11.214 26.535.922 2.512 2.487 3.745 3.887 4.229 1.766.61 3.269.024 2.876-.715-2.804-5.278-3.872-21.724 2.188-37.167 4.509-11.49 11.795-17.896 16.431-20.415 8.488 15.326 18.457 27.572 31.532 33.064.98.412 6.642 1.709 7.309.897 4.885 3.73 9.817 6.713 14.806 8.752.836.342 4.203 1.082 6.366 1.127 3.241 3.744 5.222 7.709 3.837 13.393-.176.722.707.742 2.13-.103 2.512-1.49 6.726-5.696 9.906-13.675 2.639-6.621 4.04-15.829 5.085-27.653q.07-.78.16-1.566c.26 5.814-.091 12.749-1.492 21.065-.426 2.527-3.358 8.542-2.599 7.999 8.58-6.139 9.343-24.194 8.729-32.311m-54.877 18.089c-13.144-10.565-18.136-17.864-25.346-31.091l.294-.071c10.189 13.998 20.529 26.028 31.093 34.545-1.455-.557-3.582-1.406-6.041-3.383m20.452 8.055c-17.102-12.84-25.497-22.296-37.124-38.093 2.57 1.57 5.65 4.375 9.283 8.965 20.167 25.485 18.751 18.295 31.487 30.707q.862.839 1.696 1.655c-1.484-.688-3.268-1.677-5.342-3.234" style="fill:#122a89"/></svg>