<svg xmlns="http://www.w3.org/2000/svg" xml:space="preserve" viewBox="0 0 215 220"><path d="M163.968 177.892c-1.305-.391-3.405-2.108-5.417-3.929 2.194-1.108 5.104-3.39 5.4-3.88 1.708-2.826 1.504-5.012.376-8.566-1.664-5.243-8.492-10.335-14.613-11.778-1.669 8.066-4.362 13.277-8.17 18.082 1.423 2.341 6.163 8.779 6.487 11.417.166 1.353.462 1.343 1.33-1.582.207-.698.293-2.008.302-3.286 3.224 2.726 6.393 3.698 6.393 3.698 1.232.409 4.758 1.049 6.138.879 3.016-.374 3.075-.666 1.774-1.055m-20.509-78.7c8.173.907 3.015 19.431 8.15 19.431q.37 0 .704-.014c3.251-.139 4.027-1.439 4.416-8.095.357-6.109 3.38-6.783 4.206-11.691 1.979-11.753-1.846-28.667-7.852-37.484-4.577-6.72-9.077-12.666-21.931-17.979-6.691-2.765-15.157-3.45-22.954-3.464l-.003-.003-.118.001-.118-.001-.003.003c-7.797.014-16.263.699-22.954 3.464-12.855 5.313-17.355 11.259-21.932 17.979-6.006 8.818-9.831 25.732-7.852 37.484.827 4.908 3.849 5.582 4.206 11.691.389 6.656 1.165 7.956 4.416 8.095q.334.014.704.014c5.135 0-.024-18.525 8.15-19.431 2.844-.315-2.913-8.525.47-12.904 6.069-7.856 14.289-12.973 17.564-13.839 6.99-1.848 14.593 4.698 17.348 4.739 2.755-.041 10.358-6.587 17.348-4.739 3.275.866 11.495 5.983 17.564 13.839 3.383 4.379-2.374 12.588.471 12.904" style="fill:#122a89"/></svg>