<svg xmlns="http://www.w3.org/2000/svg" xml:space="preserve" viewBox="0 0 215 220"><path d="M165.16 131.199c2.53-4.256 4.024-8.977 1.267-13.144a12.2 12.2 0 0 0-2.567-2.809c.091-1.546-.128-2.892-1.192-4.126a33 33 0 0 1-.944-1.148c4.299 2.019 7.053 2.823 1.904-4.906-3.821-5.736 1.368-8.929-6.266-15.009-.463-7.355-4.502-20.826-39.126-23.795-6.555-.562-16 .075-22.212 5.702-2.953-1.823-11.393-2.782-19.209-.424-9.839 2.969-18.784 12.711-24.071 26.677-2.32 6.129-2.163 5.902-3.523 9.911-1.648 4.855-.837 8.985 1.113 5.196 1.092-2.121 2.789-3.509 4.769-4.554-.511.725-1.107 1.5-1.84 2.351-1.007 1.168-1.256 2.436-1.204 3.879-3.143 3.026-5.336 6.664-4.191 10.963.669 2.509 2.056 4.545 3.838 6.161.54 1.78 1.915 2.679-.037 7.239-.664 1.551 1.055.851 3.094.279-2.302 2.795-5.096 6.562-1.471 5.394 2.469-.796 4.762-1.78 6.63-3.029-.001.098.017.169.012.273-.19 1.204.161 2.707.776 4.004-.63 1.177-1.417 2.075-2.449 2.697-1.05.633-9.386 4.259-5.708 4.743 4.357.573 8.651-.061 11.197-4.209q.113-.184.222-.376c1.151-.282 2.079-2.331 2.022-7.549.115-1.765.04-3.548-.215-5.314.03-9.116 5.433-10.369 3.234-15.01 3.741-3.789 4.653-7.671 4.304-7.994-3.064-2.834 1.742-4.294.446-6.48-.729-1.23-.973-2.295-.975-3.2 2.895.069 5.544.302 6.694-.873 9.878-10.103 11.3-.193 14.758-2.524 1.242-.68 3.838-2.401 11.183-1.198 5.462 2.474 9.418-2.063 11.602 0 2.416 2.283 13.051-.186 14.16-.629 3.991 3.004 7.028 3.402 11.924 4.593.129 1.025-.034 2.302-.94 3.83-1.296 2.186 3.51 3.645.446 6.48-.349.323.563 4.204 4.304 7.994-2.345 4.948 3.952 6.044 3.166 16.922-.592 8.188.618 10.917 2.099 10.992.272.014.552-.069.833-.217 2.573 3.772 6.722 4.339 10.928 3.786 3.678-.484-4.658-4.11-5.708-4.743-1.09-.657-1.909-1.619-2.556-2.897.31-.974.45-1.977.315-2.829-.005-.104.013-.175.012-.273 1.867 1.249 4.161 2.233 6.63 3.029 3.625 1.168.831-2.599-1.471-5.394 2.039.572 3.758 1.272 3.094-.279-1.096-2.56-1.141-3.963-.875-5.019.539-.971 1.138-2.075 1.774-3.144m-112.793-4.208a20 20 0 0 1-.625-1.693c-.508-1.589-.547-3.052 0-4.571.126-.35.454-.882.859-1.461.298 2.176.476 4.703-.234 7.725m110.837-6.7c.816 1.228 1.25 2.494 1.218 3.96-.013.608-.361 1.82-.786 2.997-.665-2.665-.645-4.957-.432-6.957" style="fill:#122a89"/></svg>