<svg xmlns="http://www.w3.org/2000/svg" xml:space="preserve" viewBox="0 0 215 220"><path d="M161.161 116.49c-.79-3.325-1.493-5.683-4.643-10.807-1.822-2.964-5.033-5.656-9.696-4.362q-.195.055-.395.118c-12.622-4.54-26.652-4.509-36.447-3.23-3.107.406-6.101.977-9.133 1.553 2.502-.85 4.892-1.744 7.408-2.528 7.403-2.307 20.498-4.073 36.432-.014 1.742.444 3.509.937 5.316 1.528 2.915.953 1.482-.561.788-1.119-1.397-1.123-4.164-2.714-6.998-3.64-.669-.219-1.329-.417-1.989-.618-14.099-4.28-26.29-4.497-35.109-3.217 6.64-2.455 16.747-4.274 29.518-2.198 1.692.275 3.427.612 5.211 1.032 2.864.674 1.23-.724.476-1.222-1.517-1.002-4.384-2.341-7.168-2.995a87 87 0 0 0-4.846-.984c-15.053-2.653-25.243-.188-33.887 1.449-.281.053-1.812.085-2.097.072 4.786-3.361 17.335-4.853 30.351-3.999 3.502.23 7.035.619 10.462 1.199 2.901.491 1.181-.8.398-1.249-1.577-.904-4.554-1.904-7.344-2.536-18.353-4.156-32.947-3.019-41.218 0-5.708 2.083-10.97 4.323-17.499 11.225-4.067 4.299-6.912 10.878-6.899 12.652-1.111.849-2.017 1.946-2.716 3.083-3.15 5.123-3.852 7.482-4.642 10.807-1.17 4.922-.632 12.124 1.226 18.749.382 1.363 1.32 2.925 1.991 3.838.333.454 1.271 1.523.83.133-2.772-8.743-.321-13.45 2.052-15.43q.405-.334.832-.644c-.099.168-.199.335-.291.509-1.675 3.14-2.767 8.41-.2 14.937.402 1.022 1.18 2.043 1.752 2.569.204.187.662.515.756.302.022-.05.026-.124 0-.243a2 2 0 0 0-.094-.298c-2.313-5.879-1.212-10.68.312-13.632.189-.367.384-.71.581-1.018q.195-.304.398-.602a15 15 0 0 0-.257.622c-.347.905-.632 1.987-.824 3.189a19 19 0 0 0-.121 4.985c.202 1.91.685 3.983 1.589 6.173.388.941 1.087 1.845 1.59 2.295.249.223.934.676.535-.292-2.511-6.089-1.377-11.294-.055-14.138.403-.866.854-1.691 1.287-2.553-.22.601-.426 1.209-.587 1.855-.772 3.104-.78 8.097 2.153 13.778.459.89 1.2 1.73 1.711 2.142.254.204.932.611.46-.304-2.97-5.754-2.494-10.81-1.589-13.602 1.089-3.358 2.431-8.165 2.786-15.207.047-.925.033-2.731-.242-4.76 1.354.586 2.749 1.114 4.176 1.496 14.399 3.853 22.189.712 32.156.668 8.29-.037 17.679-.491 27.928 5.432 1.63.942 1.567-.058 1.412-.452-.311-.793-1.375-2.04-2.959-2.955-10.12-5.849-18.689-5.951-27.573-6.201a110 110 0 0 0-5.484.006c2.775-.202 5.485-.44 8.226-.603 7.955-.471 20.318-.038 31.184 3.844a27 27 0 0 0-.1 3.525c.355 7.042 1.697 11.85 2.786 15.207.906 2.793 1.381 7.848-1.589 13.602-.472.915.206.508.46.304.511-.411 1.251-1.252 1.711-2.142 2.933-5.682 2.925-10.674 2.153-13.778a18 18 0 0 0-.587-1.855c.433.862.884 1.687 1.287 2.553 1.323 2.844 2.456 8.049-.055 14.138-.399.969.285.516.535.292.503-.449 1.202-1.353 1.59-2.295.903-2.191 1.387-4.264 1.589-6.173a19 19 0 0 0-.121-4.985c-.192-1.202-.477-2.284-.824-3.189a15 15 0 0 0-.257-.622q.203.298.398.602c.197.308.392.651.581 1.018 1.524 2.951 2.625 7.753.312 13.632a2 2 0 0 0-.094.298c-.027.118-.022.193 0 .243.094.212.552-.115.756-.302.572-.526 1.35-1.547 1.752-2.569 2.567-6.527 1.475-11.797-.2-14.937-.093-.174-.192-.341-.291-.509.283.208.563.419.832.644 2.373 1.98 4.825 6.687 2.052 15.43-.441 1.391.497.321.83-.133.671-.913 1.609-2.474 1.991-3.838 1.854-6.626 2.392-13.828 1.222-18.749m-18.382-7.883c-10.112-4.267-21.576-5.599-30.471-5.619l.08-.014c7.992-1.324 20.378-2.092 31.982.842-.789 1.448-1.285 3.147-1.591 4.791" style="fill:#122a89"/></svg>