<svg xmlns="http://www.w3.org/2000/svg" xml:space="preserve" viewBox="0 0 215 220"><path d="M160.737 117.737c-.05-3.434-1.104-7.226-2.727-9.89.463-1.701.716-3.528.759-5.527.14-6.395-1.6-14.229-9.599-22.027-3.953-3.854-8.576-6.85-13.291-9.005-1.873-.856-9.428-3.693-20.585-4.215-3.177 0-5.536.219-7.317.583-1.781-.365-4.14-.583-7.317-.583-11.157.523-18.712 3.359-20.585 4.215-4.714 2.155-9.337 5.151-13.291 9.005-7.999 7.798-9.739 15.632-9.599 22.027.044 1.999.296 3.825.759 5.527-1.623 2.665-2.676 6.456-2.727 9.89-.15 10.265-1.328 19.109 1.502 22.713.335.427 2.715 1.542 3.494 7.272.044 2.256 2.114 5.461 3.576 5.19 1.155-.214 1.931-2.599 1.024-9.348-.472-3.511 4.838-12.665 4.985-16.879.079-1.792-.349-5.012-.976-8.403.128-.002.237-.019.298-.067.803-.64 2.323-4.874 3.391-6.985 1.091 1.727 6.534 4.854 8.303 6.011 1.766 1.154 1.318.212 1.411-.76.116-1.213-.529-5.251-.529-5.251s4.205 3.04 6.244 4.379c1.013.666 3.915 2.251 2.761.267-5.441-9.354 3.613-3.219 5.507-.081.84 1.391 2.999-.958 3.657-2.752 1.314-3.583 4.409 3.781 5.859 1.457.753-1.205 1.491-3.164 2.195-5.555.749 1.607 1.599 2.928 2.57 3.813 4.639 4.226 4.28-3.297 5.593.285.658 1.794 2.818 4.142 3.657 2.752 1.895-3.138 10.949-9.273 5.507.081-1.154 1.984 1.748.398 2.761-.267 2.04-1.339 6.244-4.379 6.244-4.379s-.645 4.038-.529 5.251c.093.972-.354 1.914 1.411.76 1.769-1.156 7.212-4.284 8.303-6.011 1.069 2.11 2.589 6.344 3.391 6.985.061.049.17.065.298.067-.626 3.391-1.055 6.611-.976 8.403.147 4.215 5.457 13.368 4.985 16.879-.907 6.75-.131 9.134 1.024 9.348 1.462.271 3.533-2.934 3.576-5.19.779-5.729 3.159-6.845 3.494-7.272 2.837-3.604 1.659-12.448 1.509-22.713" style="fill:#122a89"/></svg>