<svg xmlns="http://www.w3.org/2000/svg" xml:space="preserve" viewBox="0 0 215 220"><path d="M168.423 104.786c-2.59-2.54-6.363-3.619-4.871-7.977 1.379-4.505-3.759-9.029-7.137-11.003-2.612-1.527-5.452-2.009-8.265-3.001-3.133-1.105-5.705-2.77-8.037-5.109-8.561-8.584-20.346-10.498-31.472-6.38-8.155-3.134-17.072-2.971-24.871 1.184-3.646 1.943-6.169 4.744-9.286 7.335-3.858 3.207-8.763 3.441-13.096 5.599-3.262 1.625-6.406 4.195-8.093 7.483-.56 1.092-.981 2.361-.846 3.606.136 1.25.825 2.328.579 3.631-.374 1.98-2.51 2.954-3.945 4.087-1.942 1.533-3.391 3.424-3.83 5.912-.599 3.389.228 5.879 2.376 8.457.915 1.098 2.507 2.443 2.858 3.883.198.814-.089 1.027-.477 1.691-.56.96-1.01 1.877-1.167 2.989-.432 3.057 1.266 6.131 4.254 7.103 1.083.352 2.144.363 3.193.222 1.2 2.31 2.788 3.914 3.041 8.241.389 6.656 1.165 7.956 4.416 8.095q.334.014.704.014c4.099 0 1.646-11.794 4.642-17.019.212.136.422.244.638.399 1.414 1.012 2.716 1.567 4.497 1.364 2.347-.267 4.815-1.353 5.932-3.54 1.889-3.697.236-7.794.337-11.639.01-.399.311-1.03.101-1.065.365-.079.904.014 1.218.021 1.249.03 2.488.125 3.734-.012 2.581-.283 5.091-1.392 6.098-3.941.629-1.592.259-3.581 1.183-5.048.336-.533.136-.384.865-.232.656.137 1.335.211 1.996.329 4.026.718 7.872.767 11.809-.289 2.573.719 5.202 1.031 7.879.824 2.071-.16 4.209-.933 6.275-.909 2.049.023 2.158 2.16 2.389 3.758.29 1.999.971 3.903 2.879 4.86 1.401.703 3.02.75 4.557.722 1.023-.019 3.079-.508 3.883.354.625.67.271 1.887.176 2.651-.189 1.517-.349 3.044-.391 4.573-.065 2.359.058 5.173 1.826 6.958 2.154 2.176 5.801 2.056 8.267.563.496-.3.959-.68 1.437-1.031 3.303 5.042.651 17.348 4.837 17.348q.37 0 .704-.014c3.251-.139 4.027-1.439 4.416-8.095.252-4.305 1.826-5.915 3.023-8.206a7.8 7.8 0 0 0 2.821-.436c1.973-.683 3.668-2.069 4.469-4.031 1.078-2.639.055-4.551-1.037-6.902-.939-2.022 1.958-4.242 3.123-5.712 2.944-3.71 2.866-9.255-.611-12.665m-.17 9.001c-.347 3.241-3.391 5.073-4.92 7.732-.534.929-.669 1.546-.19 2.471.977 1.888 1.855 3.396 1.32 5.616-.386 1.602-1.552 3.486-3.345 3.68-2.054.223-4.542-1.317-6.547-1.749-2.415-.52-4.923-.616-7.276.232-1.514.546-2.595 1.838-4.024 2.405-1.997.793-4.18-1.372-4.786-3.101-.569-1.625-.588-3.432-.522-5.131.073-1.89.771-4.076.543-5.953a1.96 1.96 0 0 0-.397-1.005c.278-7.564-4.894-15.415-12.262-17.423 6.038 3.946 9.882 9.87 11.092 16.706-.516-.148-1.093-.196-1.649-.209-3.693-1.765-2.689-7.594-6.657-9.163 1.744 2.724 1.266 6.334 3.886 8.562.289.265.644.473 1.016.645-1.575.082-3.206.155-4.546-.714-2.654-1.722-1.425-4.998-2.904-7.292-1.034-1.603-3.079-1.391-4.737-1.151-3.283.477-6.347 1.132-9.684.525-.957-.174-2.007-.672-2.98-.677-.714-.004-1.407.34-2.092.506-2.126.517-4.298.565-6.463.306-.201-.024-.41-.054-.619-.084 2.655-2.325 4.985-3.657 8.399-4.833-3.46-1.457-8.014 1.13-8.682 4.792-1.778-.269-3.777-.666-5.513-.54 3.102-3.813 6.547-6.508 11.072-8.671-5.152-.264-10.338 3.736-11.577 8.731-.852.12-1.626.389-2.25.902.87-4.523 3.504-8.473 7.627-10.784 1.795-1.022 3.79-1.729 5.944-2.106-8.198-1.419-15.632 6.697-14.712 14.554a6.3 6.3 0 0 0-.365 1.358c-.409 2.724-.903 5.17-4.074 5.211-1.959.025-4.003-.368-5.876.409-2.384.989-1.737 2.964-1.501 5.127.312 2.864 1.203 8.887-2.203 10.42-1.54.693-2.701-.364-3.894-1.206-1.536-1.083-3.142-1.684-5.037-1.751-1.298-.046-2.595.121-3.864.38-2.032.415-4.205 1.671-6.242 1.772-3.964.196-5.937-4.571-4.837-7.811.392-1.153 1.633-2.154 1.447-3.43-.174-1.193-1.374-2.389-2.114-3.266-1.007-1.194-2.214-2.389-2.862-3.832-.693-1.541-.655-3.6-.366-5.235.441-2.496 1.866-4.24 3.851-5.711 1.338-.992 3.01-1.954 3.696-3.559.911-2.131-.716-4.117-.172-6.277.949-3.766 4.689-6.847 8.064-8.381 3.859-1.755 7.985-2.203 11.627-4.582 3.365-2.197 5.773-5.483 9.272-7.563 3.881-2.308 8.305-3.476 12.825-3.255 2.573.126 5.109.658 7.546 1.483.799.271 1.644.797 2.474.894 1 .117 1.995-.488 2.888-.812 8.763-3.175 18.113-1.229 25.191 4.719 1.495 1.256 2.748 2.773 4.278 3.982 1.694 1.338 3.648 2.34 5.66 3.105 4.135 1.572 8.107 2.179 11.554 5.22 2.153 1.899 4.946 5.148 3.99 8.272a6.8 6.8 0 0 0-.326 1.412c-.887-2.042-1.714-4.189-3.525-5.583-1.326-1.074-3.365-1.661-4.846-.782 3.384-.072 4.98 2.89 6.147 5.647.908 2.289 2.754 5.438 5.401 6.024.765.595 1.568 1.211 2.288 1.94 2.078 2.101 2.647 5.014 2.34 7.882" style="fill:#122a89"/><path d="M160.225 112.369c-.042.04-.094.061-.137.098-4.37-3.793-6.369-10.945-12.318-12.85 4.347 3.12 6.631 10.291 10.95 13.63a4.86 4.86 0 0 1-2.551.213c-6.42-1.349-6.234-9.422-9.781-13.903-2.878-3.826-8.452-5.501-12.811-3.718 6.09-.93 11.599 2.773 13.435 8.552 1.488 3.942 3.862 9.854 9.085 9.928a5.43 5.43 0 0 0 2.957-.834c1.762 1.251 3.852 1.883 6.556 1.35-2.266-.174-4.015-1.066-5.493-2.341.03-.046.079-.077.108-.125M92.743 76.98c-5.847.306-8.454 7.247-12.648 9.752-2.81 1.748-6.504 1.639-10.106 2.295-3.469.61-7.734 2.754-8.06 6.65 1.92-5.641 8.736-5.228 13.636-5.745 1.828-.224 3.743-.683 5.444-1.7 3.385-2.139 5.042-5.574 7.495-7.948 2.287-2.451 6.497-3.787 9.053-.961-.866-1.664-2.939-2.409-4.814-2.343M65.391 96.333c-2.559 1.053-4.888 3.704-4.543 6.576 2.43-9.398 14.829-3.714 20.786-8.92 2.3-1.644 4.021-3.804 5.615-5.994-2.094 1.732-4.128 3.526-6.362 4.844-4.686 3.01-10.389 1.296-15.496 3.494m-6.408 14.771c2.503-6.052 9.302-7.035 14.813-9.043 1.946-.727 3.906-1.674 5.43-3.123-6.901 3.016-19.062 2.487-20.243 12.166m51.733-14.878c3.809-6.271 2.575-15.459-2.737-20.516 3.141 6.578 4.034 13.346 2.737 20.516" style="fill:#122a89"/></svg>