<svg xmlns="http://www.w3.org/2000/svg" xml:space="preserve" viewBox="0 0 215 220"><path d="M162.863 113.507c-.173-13.287-5.087-11.301-8.114-23.14-2.407-9.414-23.815-18.397-35.291-19.279-7.44-.572-9.515 3.668-16.905 1.897-14.833-3.556-20.359 3.208-26.817 5.607-9.927 3.688-10.032 11.783-15.008 15.228-7.157 4.955-10.442 16.92-9.094 23.835 1.405 7.208-2 14.929 1.052 19.373.705 1.026 5.594 14.09 8.178 11.63 2.694 0 .912-19.246 3.989-28.323.948-2.798 2.353-4.641 4.5-4.641 3.342 0 6.667-21.112 22.536-20.667 6.767.19 11.381 9.231 16.833 7.334 8.021-2.792 7.496-9.695 16.285-8.218 9.271 1.558 12.635 7.003 15.771 12.907 4.186 7.878-.311 11.312 8.463 14.244 1.058.354 1.801 1.606 2.354 3.361 2.222 7.058 1.314 22.381 4.879 21.421 2.434-.655 2.608-3.027 5.327-7.714 5.302-9.138 1.165-16.98 1.062-24.855" style="fill:#122a89"/></svg>