<svg xmlns="http://www.w3.org/2000/svg" xml:space="preserve" viewBox="0 0 215 220"><path d="M61.318 129.699c-.835.055-1.876.348-2.53.911-4.029 3.472-3.463 9.24-2.49 13.97.67 3.257 1.508 6.664.77 9.987a10.02 10.02 0 0 1-4.833 6.544c-.691.391-.399.712.212.806.843.13 1.949-.323 2.67-.731 2.209-1.249 4.06-3.139 5.085-5.518 1.268-2.943 1.013-6.206.445-9.286-.941-5.105-3.069-12.109 1.553-16.09.661-.567-.588-.612-.882-.593m102.402 31.413a10.02 10.02 0 0 1-4.833-6.544c-.738-3.323.1-6.73.77-9.987.973-4.73 1.539-10.499-2.49-13.97-.654-.564-1.695-.857-2.53-.911-.294-.019-1.543.026-.882.595 4.622 3.982 2.494 10.985 1.553 16.09-.568 3.08-.823 6.343.445 9.286 1.025 2.379 2.876 4.268 5.085 5.518.722.408 1.827.861 2.67.731.611-.096.904-.417.212-.808" style="fill:#122a89"/><path d="M178.524 75.151c-5.39-1.566-6.808-5.446-11.772-7.062 0 0 2.02 0 5.152.054s4.326 1.82 4.845 1.155c1.468-1.885-3.64-6.422-9.436-7.53-.337-.064-.699-.097-1.047-.147 3.321-4.571 4.94-7.833 4.417-7.701-1.18.703-2.276 1.07-4.095 1.85-1.37.587-6.446 2.417-4.696.915 1.036-.889 4.38-5.918 2.008-4.098-3.214 2.466-5.28 4.147-8.955 3.288 3.193-4.049 6.744-6.855 10.162-7.975 1.074-.352-1.626-1.485-2.664-1.377-5.687.591-8.537 1.646-14.64 6.193 2.912-3.905 6.215-6.714 9.45-7.86 1.082-.383-.863-1.919-1.89-1.853-3.244.207-4.301.761-7.76 3.69l5.649-9.438c.734-1.226-1.819-.14-2.829.801-3.701 3.448-7.416 2.757-10.962 5.852 0 0 .923-1.563 2.397-3.962s3.416-2.508 3.127-3.216c-.819-2.005-6.741-.146-10.265 3.829-1.621 1.828-3.051 4.165-4.207 6.684-7.194-3.154-18.49-6.355-28.059-2.506l-.009.003c-5.811-.536-13.401 1.486-16.734 3.067-1.195-2.737-2.729-5.283-4.471-7.248-3.524-3.974-9.445-5.834-10.265-3.829-.289.708 1.653.818 3.127 3.216a293 293 0 0 1 2.397 3.962c-3.546-3.095-7.262-2.404-10.962-5.852-1.011-.942-3.563-2.027-2.829-.801l5.649 9.438c-3.459-2.929-4.517-3.483-7.761-3.69-1.027-.066-2.973 1.47-1.89 1.853 3.235 1.146 6.539 3.955 9.45 7.86-6.103-4.547-8.953-5.602-14.64-6.193-1.038-.108-3.738 1.025-2.664 1.377 3.418 1.12 6.969 3.926 10.162 7.975-3.675.859-5.742-.821-8.955-3.288-2.372-1.82.972 3.209 2.008 4.098 1.75 1.502-3.325-.327-4.696-.915-1.819-.78-2.916-1.147-4.095-1.85-.522-.132 1.097 3.13 4.417 7.701-.348.05-.711.083-1.047.147-5.796 1.107-10.904 5.645-9.436 7.53.519.666 1.713-1.101 4.845-1.155s5.152-.054 5.152-.054c-4.964 1.617-6.382 5.496-11.772 7.062-1.472.427-3.946 2.226-2.357 2.217l12.239-.072c-4.756 1.627-5.881 2.314-7.899 5.251-.639.93-.254 3.613.721 2.808 2.915-2.407 7.468-3.954 12.854-4.524-7.792 3.215-10.404 5.311-14.162 10.333-.686.917-1.111 4.086-.17 3.272 2.994-2.593 7.682-4.375 13.364-5.13-1.235 3.935-4.009 4.945-8.182 6.599-3.08 1.22 3.629.868 5.065.388 2.425-.812-2.179 2.947-3.512 3.91-1.77 1.278-2.737 2.106-4.075 2.825-.5.498 5.324.815 13.691-.316.359 2.561.936 5.128 1.822 7.596 1.46 4.067 3.716 10.093 5.944 14.136l-.074 2.02c-.423 11.51-.852 23.046.416 34.054 1.025 8.897 3.032 15.99 5.494 20.702.804 1.539 2.047 3.254 3.026 2.788.709-.337 1.067-1.529.296-3.004-2.717-5.201-4.605-14.108-5.136-24.524-.115-2.246-.169-4.971-.184-7.984-.046-9.624.331-22.278.585-32.409.486 5.506 1.126 11.226 1.618 17.17.156 1.888 2.235 1.767 3.079-7.32.914-9.84 2.155-19.499 4.378-28.662-.18 4.956.022 9.937.356 14.794.055.796 3.898.109 3.82-1.023-.897-13.034-.783-28.365 6.155-39.461.111-.179.228-.355.34-.533a29.4 29.4 0 0 1 5.3-6.112 30 30 0 0 1 2.53-.918c-.196.247-.395.493-.586.742-2.849 3.708-4.262 7.391-5.475 11.877-3.104 11.479-4.387 23.214-2.481 35.012.219 1.356 4.057.449 3.82-1.023-1.744-10.797-.772-21.546 1.879-32.11 1.04-4.146 2.018-8.116 4.428-11.689.793-1.176 1.688-2.435 2.68-3.639a49 49 0 0 0-1.283 3.966c-1.299 4.693-2.034 9.548-2.446 14.394-.753 8.85-.981 19.035 2.626 27.349.596 1.374 4.357.216 3.82-1.023-3.541-8.161-3.358-18.095-2.619-26.779.399-4.686 1.102-9.374 2.318-13.922.443-1.656.943-3.351 1.601-4.973l1.494-.256c-.311 2.032-.373 4.109-.437 6.156-.129 4.19-.173 8.383-.318 12.573-.321 9.276-.414 18.85 2.855 27.688.493 1.333 4.279.22 3.82-1.024-3.305-8.935-3.135-18.558-2.828-27.928.186-5.696-.283-11.813.64-17.514 1.897 7.1 3.77 14.223 4.892 21.493 1.254 8.126 1.442 16.326.993 24.527-.022.404 3.763.013 3.82-1.023.449-8.2.261-16.401-.993-24.527-.931-6.032-2.381-11.963-3.93-17.864.646.3 1.235.546 1.773.749 3.298 5.558 5.845 11.584 7.662 17.75 2.576 8.737 4.094 18.681 1.234 27.544-.68 2.108 3.127 2.096 3.657.455 2.964-9.183 1.717-19.271-.888-28.391a82.2 82.2 0 0 0-6.159-15.473c.117.065.233.128.352.203.787.497 1.791 1.105 2.918 1.804 3.006 4.414 5.285 9.36 6.947 14.384 2.842 8.589 4.2 17.804 3.438 26.84-.166 1.962 3.724 1.43 3.869-.293.798-9.462-.629-19.194-3.686-28.163a68 68 0 0 0-2.571-6.446c7.998 14.891 10.773 32.378 12.453 50.471.844 9.087 2.923 9.208 3.079 7.32.492-5.944 1.132-11.664 1.618-17.17.254 10.131.632 22.784.585 32.408-.014 3.013-.069 5.738-.184 7.984-.531 10.416-2.419 19.323-5.137 24.524-.77 1.475-.412 2.666.296 3.004.979.466 2.222-1.249 3.026-2.788 2.462-4.712 4.469-11.805 5.494-20.702 1.268-11.008.839-22.544.416-34.054l-.039-1.071c4.195-6.132 7.092-13.896 7.965-22.65 8.242 1.093 13.952.777 13.456.284-1.337-.719-2.305-1.547-4.075-2.825-1.333-.963-5.937-4.721-3.512-3.91 1.436.481 8.145.832 5.065-.388-4.173-1.653-6.947-2.664-8.182-6.599 5.682.755 10.37 2.536 13.364 5.13.941.815.516-2.355-.17-3.272-3.757-5.022-6.369-7.117-14.162-10.333 5.386.57 9.939 2.117 12.854 4.524.975.805 1.36-1.878.721-2.808-2.018-2.937-3.143-3.624-7.898-5.251l12.239.072c1.585.009-.889-1.789-2.361-2.217" style="fill:#122a89"/></svg>