<svg xmlns="http://www.w3.org/2000/svg" xml:space="preserve" viewBox="0 0 215 220"><path d="M175.045 148.445c3.185-11.047-7.372-9.723-5.319-35.137.9-11.148 2.639-23.85-8.828-42.853-4.769-7.903-11.621-12.128-23.45-21.613-3.192-2.559-16.896-8.412-29.305-6.428-12.435-2.027-26.205 3.862-29.405 6.428-11.829 9.484-18.681 13.71-23.45 21.613-11.467 19.004-9.728 31.705-8.828 42.853 2.053 25.414-8.504 24.09-5.319 35.137 6.03 20.917-6.117 21.946 4.616 27.461 9.65 4.958 12.545-.596 18.955.629 15.624 2.985 8.908-6.153 6.533-16.799-2.537-4.313-4.359-9.398-5.503-16.604-1.632-10.283-1.932-17.332-1.983-24.55l.007.01c.053-.898.015-1.989-.018-3.244l.001-3.948c.124-3.223.656-7.047 2.48-11.225 2.448-5.605 7.335-10.717 13.005-16.488-3.001 8.286-2.552 14.082-1.676 13.505 1.082-1.156 2.322-2.071 4.24-3.685 1.445-1.216 7.08-5.526 5.854-3.558-.726 1.165-1.295 6.12.544 3.572 2.493-3.453 4.018-5.725 9.895-7.638-1.163 4.315-3.852 8.175-7.738 11.015-1.221.893 3.509-.235 4.88-.969 7.514-4.023 10.656-6.458 15.503-12.94-.886 4.052-3.223 7.753-6.832 10.489-1.207.915 2.792.5 4.183-.203 4.393-2.223 5.425-3.216 7.883-7.084l-.188 8.892c-.024 1.155 2.674-1.104 3.321-2.282 2.371-4.312 8.166-6.344 10.61-10.361 0 0-.014 1.465-.115 3.749-.101 2.285-2.744 3.607-1.754 3.811 1.436.296 3.921-.846 6.231-2.629 1.115 2.414 2.233 4.615 4.171 6.673 15.605 16.567-3.453 41.16 4.208 50.55 3.616 4.432 3.631 9.613 2.624 14.521-2.238 10.909-9.533 20.464 6.395 17.42 6.41-1.225 9.305 4.329 18.955-.629 10.733-5.515-1.413-6.545 4.617-27.461" style="fill:#122a89"/></svg>