<svg xmlns="http://www.w3.org/2000/svg" xml:space="preserve" viewBox="0 0 215 220"><path d="M179.039 117.023c-.982 1.076-1.994 1.704-3.008 2.02-.034-1.347-.193-2.712-.413-3.674-.575-2.513-1.323-4.634-2.193-6.448.12-.162.225-.336.287-.461.445-.896.823-2.374.655-3.557-.543-3.814-2.207-6.62-4.332-8.639 1.084-.789 2.622-2.321 3.381-3.674.667-1.189.692-1.868-.389-1.14-3.977 2.678-6.914 2.457-9.176.94-1.135-1.698-2.197-2.48-2.987-3.127-.12-.174-.232-.355-.347-.534.238-1.711 1.347-.936 2.302-.206.978.747 2.246 3.101 2.735 3.22 1.081.264-.533-5.283-3.174-7.875-3.682-3.614-7.181-3.761-8.952-2.661-2.793-8.528-9.174-9.129-10.493-8.912-.146-1.571 3.275-1.53-.312-2.585-6.158-1.812-9.888 1.39-9.888 1.39 2.771-4.47-3.347-2.043-8.159 1.86-4.047-3.922-7.594-5.716-6.021-1.086 0 0-3.955-5.445-13.11-6.534-5.333-.635-.605 1.045-1.386 2.72-1.738-.907-10.752-3.455-17.752 4.626-2.033-2.117-6.908-3.718-13.317-1.553-4.598 1.553-8.871 6.912-7.284 7.163.719.114 3.335-1.866 4.959-2.204 1.585-.33 3.4-.634 3.095 1.391-.224.141-.446.285-.675.419-1.327.322-3.08.656-5.271 1.974-3.677.547-7.806-.687-12.296-5.674-1.22-1.355-1.437-.587-.957 1.072.543 1.878 2.09 4.369 3.29 5.797-3.669 1.176-6.995 3.459-9.151 7.426-.669 1.231-.693 3.066-.412 4.288.039.171.12.417.226.658-1.87 1.579-3.685 3.562-5.405 6.069-.659.96-1.382 2.399-1.927 3.88-1.28-.863-2.443-2.073-3.398-3.765-.692-1.226-1.092.626-1.161 1.312-.14 1.382.032 3.364.704 4.556 1.686 2.987 3.897 4.707 6.315 5.562-1.61 1.225-2.812 3.222-3.263 6.299-.182 1.246.256 3.159.765 4.451.086.217.241.552.414.854-.965 1.142-1.5 1.89-1.5 1.89-2.177 3.128-2.771 5.353-3.135 7.117-.794 3.856.379 4.164 1.188 2.715 2.272-4.07 5.618-6.285 8.591-7.752.089.056.177.111.248.16-2.476 1.673-6.613 8.971-2.056 18.619.069.145.135.243.203.368-.954.018-1.97-.091-3.053-.354-1.368-.331-.288 1.225.166 1.744.915 1.046 2.48 2.274 3.81 2.596 5.192 1.257 9.02-.491 11.731-3.41.846 2.512 2.501 6.624 4.619 4.743a8.7 8.7 0 0 0 1.378-1.604c.787-1.153 1.385-2.51 1.842-3.873 1.075.386 2.283.672 3.181.611 7.551-.519 9.115-5.937 8.497-11.114 6.889 2.5 13.465-1.451 14.564-9.114.293-2.235.605-4.146.989-5.82 5.064.309 9.48-2.102 12.391-6.241 6.141-1.75 10.231-5.999 10.864-10.937.226-1.765-.13-3.341-.79-4.724 4.565 3.062 10.031.571 10.329 1.004.935 1.359 2.65 2.877 4.716 3.531.027 1.733.274 3.689.858 5.849 1.348 4.986 4.107 8.743 7.639 10.48a87 87 0 0 1-.434 3.161c-.936 6.461 2.47 11.556 7.466 11.573-1.512 3.966-1.665 8.766 3.11 11.397.568.313 1.411.438 2.19.444.003 1.863.219 3.818.906 5.333.046.101.099.167.149.246 1.006 1.594 2.824-1.011 3.86-2.692 1.127 3.134 3.228 5.657 6.858 6.172.93.132 2.206-.392 3.023-.962.406-.283 1.439-1.213.482-1.349a7 7 0 0 1-2.052-.612c.071-.08.135-.139.21-.235 5.023-6.394 3.914-13.454 2.671-15.521.057-.019.125-.037.195-.056 1.609 2.047 3.298 4.804 3.893 8.731.212 1.398 1.038 1.496 1.352-1.827.144-1.52.238-3.477-.499-6.622 0 0-.185-.756-.565-1.954.177-.191.349-.414.451-.563.607-.885 1.302-2.29 1.451-3.342.37-2.597.021-4.55-.758-6.004 1.749.024 3.549-.706 5.282-2.604.691-.757 1.228-2.295 1.435-3.443.107-.572.246-2.172-.465-1.393M51.325 99.97a43 43 0 0 0-1.862 4.954c-1.689.255-3.396.255-5.02-.121 2.186-2.356 4.503-3.912 6.882-4.833m-8.547 21.31c.954-3.314 3.155-4.815 5.734-5.271a45 45 0 0 0-5.734 5.271m5.459 23.901c.568-1.309.901-2.801.901-2.801.714-2.104 2.203-1.843 4.026-.899-1.316 1.643-2.945 2.976-4.927 3.7m10.061-56.448a20 20 0 0 0-6.924 2.628c2.311-2.685 5.445-4.109 8.748-4.741a51 51 0 0 0-1.824 2.113m7.972 54.466c.187-.809.327-1.56.431-2.221 1.066-.406 2.044-.355 3.252-.793-.751 1.323-1.927 2.394-3.683 3.014m29.1-26.503c-.51.259-1.105.482-1.732.679.636-1.745 1.446-3.162 2.582-4.318.821-.835 4.226-2.844 6.945-5.458-1.802 5.519-5.028 7.69-7.795 9.097m16.086-13.6c-.355 3.452-2.238 5.61-4.243 7.197q.323-.791.587-1.63c1.099-3.506 1.171-6.473.774-8.805a88 88 0 0 1 2.281-.702c.457 1.272.738 2.61.601 3.94m23.556 3.928a95 95 0 0 1-.966-4.107c.144-.039.289-.094.434-.144 1.108 3.44 3.445 6.811 3.856 7.873.46 1.188.682 2.478.736 3.951-1.601-1.538-3.107-3.816-4.06-7.573m16.227 36.556c-1.003-1.012-1.534-2.215-1.736-3.495.688.706 1.332.951 1.934 1.589-.074.56-.146 1.203-.198 1.906m11.243 6.876c-1.126-1.16-1.893-2.704-2.392-4.404 1.379-.22 2.401.003 2.411 1.895.001 0-.105 1.294-.019 2.509m4.896-50.405c2.002 1.475 3.724 3.535 4.642 6.364-1.171-1.77-2.497-3.118-3.916-4.136a52 52 0 0 0-.726-2.228m1.197 26.951c1.571 1.122 2.672 2.97 2.578 5.905a44 44 0 0 0-2.578-5.905m1.767-9.159a47 47 0 0 0-.14-4.515c1.341 1.435 2.506 3.361 3.415 5.89-1.132-.175-2.236-.676-3.275-1.375" style="fill:#122a89"/></svg>