<svg xmlns="http://www.w3.org/2000/svg" xml:space="preserve" viewBox="0 0 215 220"><path d="M177.265 169.732c.011-3.986-1.294-6.792-3.079-8.27 1.771-1.866 2.924-5.084 2.886-8.737-.026-2.476-.596-4.742-1.523-6.517 2.235-1.654 3.767-5.279 3.723-9.479-.031-2.936-.827-5.573-2.076-7.448 1.664-1.892 2.735-5.01 2.698-8.532-.04-3.854-1.397-7.196-3.373-8.965 1.034-1.854 1.655-4.302 1.627-6.992-.04-3.854-1.397-7.196-3.373-8.965 1.034-1.854 1.655-4.302 1.627-6.992-.045-4.342-1.76-8.039-4.151-9.562.473-2.171.266-4.879-.744-7.602-1.511-4.073-4.372-7-7.138-7.666-.898-1.825-2.407-3.666-4.471-5.191-2.735-2.021-5.757-3.018-8.229-2.937-4.808-6.883-9.069-9.459-14.725-13.336-3.901-2.674-20.947-11.353-34.492-5.905l-.009.003c-5.909-.545-13.668 1.556-16.909 3.148-8.806 4.324-15.512 9.932-20.406 16.182-2.607-.377-6.012.585-9.071 2.844-2.064 1.525-3.573 3.366-4.471 5.191-2.766.666-5.627 3.593-7.138 7.666-1.01 2.723-1.217 5.431-.744 7.602-2.391 1.522-4.106 5.22-4.151 9.562-.028 2.689.594 5.138 1.627 6.992-1.976 1.769-3.332 5.111-3.373 8.965-.028 2.689.594 5.138 1.627 6.992-1.976 1.769-3.332 5.111-3.373 8.965-.037 3.522 1.034 6.64 2.698 8.532-1.25 1.875-2.045 4.512-2.076 7.448-.044 4.201 1.487 7.825 3.723 9.479-.927 1.775-1.497 4.041-1.523 6.517-.038 3.653 1.115 6.87 2.886 8.737-1.785 1.478-3.09 4.283-3.079 8.27.03 11.025-4.541 12.924-4.047 14.541.858 2.811 13.294-1.329 15.198-12.47.775-4.535-.042-7.876-1.564-9.766 2.111-1.704 3.581-5.164 3.623-9.179.044-4.2-1.487-7.825-3.723-9.479.927-1.774 1.497-4.041 1.523-6.517.037-3.522-1.034-6.64-2.698-8.532 1.249-1.875 2.046-4.513 2.076-7.448.028-2.689-.594-5.138-1.627-6.991 1.976-1.769 3.332-5.111 3.373-8.965.028-2.689-.594-5.138-1.627-6.992 1.976-1.769 3.332-5.111 3.373-8.965.024-2.258-.412-4.345-1.162-6.056 1.371-.816 2.681-2.14 3.755-3.823-.943 6.437-1.146 15.279 1.668 23.12 1.4 3.902 3.533 9.585 5.672 13.613l-.125 2.543c-.575 11.51-1.157 23.046.565 34.054 1.391 8.897 4.116 15.99 7.459 20.702 1.092 1.539 2.779 3.254 4.108 2.788.962-.337 1.448-1.529.402-3.004-3.689-5.201-6.252-14.108-6.973-24.524a99 99 0 0 1-.176-3.773c-.219-7.263.059-17.324.38-26.799.236 2.412.468 4.86.674 7.35.156 1.888 2.235 1.767 3.079-7.32.311-3.353.668-6.682 1.08-9.982.198-.3.397-.611.601-.951 6.988-11.678 11.247-29.221 17.759-48.113a41 41 0 0 1 2.235-.8c-5.488 16.82-9.907 39.103-16.587 45.327-1.342 1.251 1.184 1.77 4.208-3.005C87.705 90.029 90.823 73.84 97.26 56.93q.901-.228 1.761-.433c-3.817 14.282-6.782 31.137-12.505 36.518-1.257 1.182 1.296 1.442 4.001-2.913 5.269-8.482 7.449-20.927 11.751-34.398 2.332-.608 4.22-1.269 5.356-2.405 2.727 1.803 4.776 2.855 6.416 3.538 4.068 13.033 6.278 25.022 11.398 33.264 2.706 4.355 5.258 4.095 4.001 2.913-5.53-5.199-8.485-21.111-12.121-35.063.736.204 1.38.378 1.997.612 6.029 16.315 9.144 31.797 15.448 41.751 3.024 4.775 5.551 4.256 4.208 3.005-6.309-5.878-10.602-26.077-15.682-42.473.801.495 1.67 1.039 2.581 1.629 5.831 17.475 9.977 33.515 16.508 44.43.204.34.403.651.601.951.412 3.299.769 6.628 1.08 9.982.844 9.087 2.923 9.208 3.079 7.32.206-2.49.438-4.938.674-7.35.322 9.475.6 19.535.38 26.799a99 99 0 0 1-.176 3.773c-.721 10.416-3.284 19.323-6.973 24.524-1.046 1.475-.56 2.666.402 3.004 1.329.466 3.016-1.249 4.108-2.788 3.342-4.712 6.067-11.805 7.459-20.702 1.721-11.008 1.139-22.544.565-34.054l-.073-1.486c5.391-8.089 8.551-18.929 7.863-31.096a81 81 0 0 0-.671-6.853c1.091 1.757 2.438 3.14 3.851 3.981-.75 1.711-1.186 3.798-1.162 6.056.04 3.854 1.397 7.196 3.373 8.965-1.034 1.854-1.655 4.302-1.627 6.992.04 3.854 1.397 7.196 3.373 8.965-1.034 1.854-1.655 4.302-1.627 6.991.031 2.936.827 5.574 2.076 7.448-1.664 1.892-2.735 5.01-2.698 8.532.026 2.476.596 4.742 1.523 6.517-2.235 1.654-3.767 5.279-3.723 9.479.042 4.015 1.512 7.475 3.623 9.179-1.522 1.89-2.339 5.231-1.564 9.766 1.904 11.142 14.34 15.282 15.198 12.47.494-1.614-4.077-3.513-4.047-14.538M73.681 102.693c2.089-14.005 5.614-27.268 12.655-38.787-4.197 14.154-8.222 29.149-12.655 38.787m56.373-37.317q.376.279.75.565c6.252 11.036 9.503 23.563 11.471 36.752-4.281-9.304-8.18-23.603-12.221-37.317" style="fill:#122a89"/></svg>