<svg xmlns="http://www.w3.org/2000/svg" xml:space="preserve" viewBox="0 0 215 220"><path d="M173.321 147.823c11.485-21.884-10.172-82.61-15.59-92.68-6.141-11.414-18.408-18.453-30.039-22.032-5.586-2.109-12.8-3.837-19.715-2.856-6.915-.981-14.128.746-19.714 2.855-11.63 3.58-23.898 10.62-30.039 22.033-5.418 10.069-27.074 70.796-15.59 92.68 19.818 37.761-7.346 40.137-2.105 40.953 33.722 5.251 53.781-6.81 49.766-21.759-3.874-2.613-7.698-5.884-11.253-9.613-6.855-7.19-11.189-13.281-13.287-26.376.436.211.92-1.354.268-6.958a330 330 0 0 1-1.212-12.202c.251-5.207-.143-18.565 7.554-29.588 5.589-8.003 3.029-14.159 6.087-19.94.764-1.444 1.556-2.614 2.376-3.583 7.73 9.676 12.085 18.555 21.963 24.692 5.308 3.298 10.317 3.101 7.85 2.206-11.427-4.146-17.25-17.291-24.933-28.222 9.783 11.017 15.863 21.241 27.033 28.048 2.756 1.68 5.29 2.487 6.962 2.783 2.566 2.298 5.281 4.425 8.251 6.341 6.02 3.883 10.862 4.19 10.535 3.481 6.041 3.817 8.914 7.924 10.44 11.067.907 3.26 1.855 6.626 2.745 9.956-.295 3.517-.748 7.355-1.455 11.809-2.091 13.174-6.431 19.276-13.306 26.487-3.555 3.729-7.38 6.999-11.253 9.613-4.015 14.949 16.044 27.01 49.766 21.759 5.241-.817-21.923-3.193-2.105-40.954M90.379 55.788l.842.296c10.087 10.976 17.337 21.449 26.058 29.913-10.351-5.84-18.031-19.119-26.9-30.209m12.587 6.316c3.759 2.809 8.011 6.961 12.95 13.442 8.246 10.821 9.89 14.94 21.721 22.007-12.861-5.051-23.452-20.841-34.671-35.449" style="fill:#122a89"/></svg>