<svg xmlns="http://www.w3.org/2000/svg" xml:space="preserve" viewBox="0 0 215 220"><path d="M180.806 120.581c-5.056-5.108-8.555-11.627-9.05-15.973-.732-6.425 4.672-22.775.371-31.767s-13.4-12.315-16.332-18.767c-3.32-7.304-6.806-12.457-12.275-16.138-2.173-1.463-10.939-6.307-23.883-7.2-6.025 0-9.571.976-11.659 2.459-2.089-1.483-5.634-2.459-11.659-2.459-12.944.892-21.709 5.737-23.883 7.2-5.47 3.681-12.628 8.31-16.928 19.657-4.579 12.082-6.875 8.437-12.216 18.598s1.639 21.992.907 28.417c-.495 4.346-3.995 10.866-9.05 15.973-1.985 2.006-2.962 3.855 3.032 1.614 4.339-1.622 7.141-2.616 10.235-6.487.422 9.151-4.473 14.009-3.385 13.906a10.6 10.6 0 0 0 3.363-.868c-.24 4.273.599 9.251 4.003 15.719 3.992 7.585-5.489 21.223-.737 29.357 6.191 10.597-4.426 13.48-.742 14.255 21.461 4.514 35.045-4.448 35.329-16.718a74 74 0 0 1-7.204-6.632c-6.875-7.211-11.215-13.313-13.306-26.487a181 181 0 0 1-.696-4.805c2.207 1.091 1.719.036.098-3.159a9 9 0 0 1-.67-1.784c-.154-1.56-.276-3.052-.372-4.494.214-3.298 1.309-6.374 2.133-7.507 0 0 .564 2.143.359 6.727-.075 1.665-.479 5.873 1.379 2.759 4.523-7.58 2.94-10.749 2.94-21.173 0-9.793 7.011-28.911 17.329-38.349 4.906-4.488 10.808-6.149 15.37-7.976 2.346 1.363 4.468 3.576 5.281 8.379 4.041 23.886 19.35 35.109 25.256 38.486 12.843 7.342 9.32 13.053 13.844 20.633 1.858 3.114 1.453-1.094 1.379-2.759-.205-4.584.359-6.727.359-6.727.823 1.133 1.919 4.21 2.133 7.507a141 141 0 0 1-.372 4.494 9.2 9.2 0 0 1-.669 1.784c-1.621 3.195-2.108 4.25.098 3.159a181 181 0 0 1-.696 4.805c-2.091 13.174-6.431 19.276-13.306 26.487a74 74 0 0 1-7.203 6.632c.284 12.27 13.868 21.232 35.329 16.718 3.684-.775-10.435-3.658-4.244-14.255 4.752-8.134-1.227-21.772 2.765-29.357 3.404-6.469 4.243-11.447 4.003-15.719.984.442 2.094.748 3.363.868 1.088.103-3.807-4.755-3.385-13.906 3.094 3.872 5.896 4.866 10.235 6.487 5.991 2.24 5.014.391 3.029-1.614" style="fill:#122a89"/></svg>