<svg xmlns="http://www.w3.org/2000/svg" xml:space="preserve" viewBox="0 0 215 220"><path d="M175.237 83.485c.116-9.655 3.544-19.179-.314-29.372-7.231-19.103-28.646-23.635-37.955-22.638-5.232.561-11.1 1.69-13.859 4.602-4.542-1.215-9.625-1.906-14.564-1.205-12.278-1.742-25.499 5.054-28.876 7.369-6.455 4.425-11.092 7.153-16.8 16.523-5.01 8.226-7.044 16.465-7.624 26.717-.697 12.316 2.554 23.269 8.067 31.389l-.043 1.192c-.423 11.51-.852 23.046.416 34.054 1.025 8.897 3.032 15.99 5.494 20.702.804 1.539 2.047 3.254 3.026 2.788.709-.337 1.067-1.529.296-3.004-2.717-5.201-4.605-14.108-5.136-24.524-.115-2.246-.169-4.971-.184-7.983-.046-9.624.331-22.278.585-32.409.486 5.506 1.126 11.226 1.618 17.17.156 1.888 2.235 1.767 3.079-7.32 1.024-11.029 2.452-21.835 5.222-31.965.379.057.761.109 1.156.136 1.81.125 4.972-.264 6.663-1.477.964.898 1.99 1.76 3.147 2.535 2.527 1.69 7.733-.29 8.947-2.708a21 21 0 0 0 4.296 2.916c2.275 1.159 5.251 1.067 7.304-.615.344-.282.691-.667.989-1.102.184.24.361.489.548.725 2.734 3.435 10.557.546 9.968-3.15a22.2 22.2 0 0 0 4.837 3.041c2.66 1.22 12.01-2.813 8.205-4.558-8.306-3.809-11.674-12.456-9.95-20.667 2.178.368 3.911.69 4.85 1.283.292.184.554.368.826.552 10.096 15.825 13.302 35.067 15.158 55.055.844 9.087 2.923 9.208 3.079 7.32.492-5.944 1.132-11.664 1.618-17.17.254 10.131.632 22.784.585 32.408-.624 2.72-1.378 5.096-2.259 7.251-.127 3.17.331 6.083 1.399 8.445-.887 7.045-2.444 12.952-4.461 16.812-.77 1.475-.412 2.666.296 3.004.979.466 2.222-1.249 3.026-2.788 1.698-3.25 3.17-7.656 4.263-12.983 4.761 3.934 7.46 8.712 8.745 16.994 1.594 10.277-4.961 8.381-1.316 11.357 1.738 1.419 7.951-.555 10.793-3.908 7.286-8.595-1.285-16.903 2.106-22.558 8.324-13.879.298-21.627 5.041-28.908 14.606-22.429-2.488-34.311-2.307-49.328m-95.353-4.949c.155-.44.32-.874.482-1.311a22 22 0 0 0 1.834 3.228 7.2 7.2 0 0 1-2.316-1.917m9.932-17.171c.412-.119.889-.226 1.398-.328-1.496 5.492-1.081 11.384 1.334 16.398-3.942-4.685-5.211-10.881-2.732-16.07m12.341-2.671q.666-.218 1.338-.468c-2.491 6.417-1.087 13.508 2.191 19.95-5.197-5.023-6.514-12.896-3.529-19.482m11.163 11.242c-1.459-4.03-1.816-8.207.31-11.699q.542.201 1.08.38c-1.537 3.744-1.949 7.633-1.39 11.319m25.948-26.434c10.262.098 15.002 3.398 18.345 9.984 3.986 7.852 3.445 13.222 2.217 18.445a48.9 48.9 0 0 0-5.61-13.165c-5.147-8.451-9.428-11.502-14.952-15.264m16.064 83.913c-.409.499-.79 1.023-1.169 1.549a754 754 0 0 0-.343-10.899l-.043-1.192c3.197-4.708 5.598-10.391 6.945-16.717 2.27 9.022 2.725 17.364-5.39 27.259" style="fill:#122a89"/></svg>