<svg xmlns="http://www.w3.org/2000/svg" xml:space="preserve" viewBox="0 0 215 220"><path d="M167.801 108.144c-2.427-14.266-4.66-22.199-9.671-30.425-5.707-9.37-14.213-16.848-20.668-21.273-3.373-2.312-16.937-8.341-29.304-6.415-12.394-1.97-26.025 4.097-29.407 6.415-6.455 4.425-14.96 11.903-20.668 21.273-5.01 8.226-7.244 16.158-9.671 30.425-3.62 21.282-9.191 27.467-6.474 44.053 1.723 10.517 21.347 20.84 30.848 17.531-3.348-4.84-5.67-10.415-7.031-18.993-1.632-10.283-1.932-17.332-1.983-24.55l.007.01c.055-.926.015-2.074-.018-3.38l.001-3.558c.064-1.941.264-4.098.811-6.435 5.376-3.185 10.282-7.317 14.634-11.487 7.142-6.842 13.554-14.713 18.545-23.323.336 1.362.708 2.71 1.083 4.025 1.431 5.015 3.208 10 5.538 14.673 4.01 8.042 11.097 12.781 19.895 14.357.69.124 2.324.079 2.174-1.001-.151-1.09-2.059-1.526-2.908-1.678-7-1.254-11.8-6.034-14.703-12.298-2.132-4.6-3.834-9.417-5.174-14.305-.533-1.942-1.091-3.98-1.486-6.038l.46.682c8.84 13.251 16.072 32.09 33.502 35.744.712.149 2.601.48 2.891-.603.277-1.032-1.445-1.809-2.202-1.967-10.204-2.139-16.499-12.122-21.563-20.397-2.63-4.297-5.111-9.125-8.102-13.492 1.738 1.454 3.78 2.965 5.892 4.41a61 61 0 0 1 1.85 2.113c3.096 3.704 5.538 7.872 8.674 11.556 3.328 3.908 6.927 7.597 10.716 11.059 1.927 1.76 3.903 3.486 5.952 5.116 9.878 29.813 8.869 36.829 5.463 54.095-.078.396.026.729.256 1.012 2.691 3.325 24.875-1.05 28.312-12.88 4.216-14.495-2.851-22.769-6.471-44.051m-91.669-8.723c-3.042 2.951-6.378 5.923-9.968 8.555.028-.066.051-.131.08-.198 3.42-7.833 11.596-14.695 20.032-23.753 3.378-3.627 5.895-6.16 8.146-7.894-4.884 8.597-11.233 16.442-18.29 23.29m48.754-10.62a237 237 0 0 1-1.97-2.673c.219.114.445.235.652.339 5.03 2.54 10.134 4.605 12.956 12.632.471 1.34.922 2.635 1.359 3.9-4.777-4.33-9.191-9.128-12.997-14.198" style="fill:#122a89"/></svg>