<svg xmlns="http://www.w3.org/2000/svg" xml:space="preserve" viewBox="0 0 215 220"><path d="M169.388 173.762c6.76-8.567-1.745-22.932 3.933-30.921 14.319-20.144-3.212-26.587 1.746-40.571 3.837-10.822-11.918-38.552-17.336-48.622-7.183-13.35-22.736-19.972-35.858-22.369-4.369-1.103-9.199-1.69-13.895-1.024-4.696-.666-9.527-.079-13.895 1.024-13.122 2.397-28.675 9.019-35.858 22.369-5.418 10.069-21.173 37.8-17.336 48.622 4.958 13.983-12.572 20.427 1.746 40.571 5.679 7.989-7.809 22.354-1.048 30.921 8.808 11.162-6.297 14.198-1.056 15.014 33.722 5.251 53.781-6.81 49.766-21.759-3.874-2.613-7.698-5.884-11.253-9.613-6.028-6.322-10.106-11.794-12.429-21.925-.046-9.624.331-22.278.585-32.409.486 5.506 1.126 11.226 1.618 17.17.156 1.888 2.235 1.767 3.079-7.32 1.856-19.986 5.061-39.226 15.154-55.05.274-.185.537-.371.83-.557 2.688-1.709 12.011-1.102 20.098-6.172 7.953 5.012 17.361 4.442 20.1 6.172.292.184.554.368.826.552 10.096 15.825 13.302 35.067 15.158 55.055.844 9.087 2.923 9.208 3.079 7.32.492-5.944 1.132-11.664 1.618-17.17.254 10.131.632 22.784.585 32.408-2.323 10.131-6.401 15.603-12.429 21.925-3.555 3.729-7.38 6.999-11.253 9.613-4.015 14.949 16.044 27.01 49.766 21.759 5.238-.815-14.849-3.852-6.041-15.013" style="fill:#122a89"/></svg>