<svg xmlns="http://www.w3.org/2000/svg" xml:space="preserve" viewBox="0 0 215 220"><path d="M167.786 89.09c-2.427-14.266-4.66-22.199-9.671-30.425-5.707-9.37-14.213-16.848-20.668-21.273-3.273-2.244-16.146-7.984-28.207-6.565a39 39 0 0 0-1.879.052c-12.18-1.604-25.313 4.244-28.624 6.513-6.455 4.425-14.96 11.903-20.668 21.273-5.01 8.226-7.244 16.158-9.671 30.425-3.62 21.282-4.347 63.35-4.347 79.389 0 7.465 2.942 17.648 9.879 19.611 10.205 2.888 22.807 1.433 26.014-8.98 2.388-7.754-.885-13.313-3.973-24.325-5.113-5.944-8.471-12.021-10.23-23.104-2.421-15.257-1.913-23.393-2.007-35.53-.003-.361.003-.708.002-1.065.227-1.098.522-2.233.93-3.409a64 64 0 0 0 .363 3.739c.279 2.143 8.486.403 8.149-2.183-.603-4.624-.696-9.376-.175-14.025q.591-.614 1.209-1.23c-.352 5.009-.138 10.084.257 15.066.261 3.302 8.435 1.439 8.149-2.183-.56-7.071-.738-14.578.874-21.597q.617-.57 1.24-1.152c-1.945 8.056-2.21 16.285-.659 24.571.291 1.553 8.503-.293 8.149-2.183-1.772-9.462-1.282-18.856 1.662-28.036q.096-.296.193-.588c-.224 1.67-.403 3.315-.559 4.864-.826 8.217-1.044 17.101 1.107 25.147.449 1.681 8.607-.469 8.149-2.183-1.958-7.324-1.913-15.328-1.303-22.869.501 7.723 1.424 15.429 3.02 23 .711 3.373 8.882 1.297 8.149-2.183-1.846-8.761-2.868-17.728-3.252-26.669l-.045-1.032c.934 3.131 1.812 6.278 2.527 9.468 1.66 7.397 2.312 14.898 1.85 22.469-.052.848 8.013.037 8.149-2.183.368-6.034.017-12.023-.976-17.952 1.809 6.574 2.797 13.466 2.166 20.247-.35 3.768 7.903 2.42 8.204-.813.785-8.441-.67-17.096-3.263-25.124 3.653 8.219 5.184 17.505 4.359 26.041-.088.91 7.92.176 8.149-2.183.49-5.063.155-10.372-.955-15.565q.825.852 1.616 1.688c1.316 5.593 1.722 11.377 1.207 16.826-.261 2.762 7.876 1.158 8.099-1.203.08-.843.132-1.695.172-2.55a29 29 0 0 1 1.581 4.953c.002.694.01 1.378.005 2.085-.094 12.136.414 20.273-2.007 35.53-1.722 10.852-4.975 16.905-9.91 22.732-3.118 11.258-6.491 16.857-4.076 24.697 3.208 10.413 15.81 11.868 26.014 8.98 6.937-1.964 9.879-12.147 9.879-19.611 0-16.043-.727-58.111-4.347-79.393" style="fill:#122a89"/></svg>