<svg xmlns="http://www.w3.org/2000/svg" xml:space="preserve" viewBox="0 0 215 220"><path d="M178.873 84.919c-1.59.476-3.053.502-4.405.222.055-.143.118-.284.143-.43.968-5.761-3.573-10.68-8-13.696-1.349-.919-2.824-1.755-4.316-2.602q-.261-.749-.531-1.493c3.593-2.864 5.532-7.199 5.532-12.621 0-8.314-4.228-18.06-18.263-17.816-5.315.093-9.237 1.728-12.046 4.177l-.044-.03c-3.901-2.674-20.947-11.353-34.492-5.905l-.009.003c-5.909-.545-13.668 1.556-16.909 3.148a66 66 0 0 0-5.959 3.314c-2.837-2.749-6.954-4.608-12.653-4.707-14.035-.244-18.262 9.502-18.262 17.816 0 5.421 1.939 9.757 5.532 12.621q-.27.743-.531 1.493c-1.491.847-2.966 1.682-4.316 2.602-4.426 3.016-8.968 7.935-8 13.696.025.146.088.287.143.43-1.352.28-2.816.254-4.405-.222-1.204-.36-.397 1.237-.042 1.772.714 1.078 1.999 2.351 3.17 2.701 3.793 1.134 6.964.154 9.524-1.874-2.106 4.455-2.919 9.389-.395 14.109.485.907 1.633 2.095 2.649 2.361.839.219 1.335-.064.852-.968-2.566-4.798-.814-9.879 1.783-14.296.215 3.839.862 7.82 2.208 11.572 1.42 3.958 3.595 9.755 5.764 13.791l-.001.033c-.193-.096-.378-.211-.589-.268-2.792-.757-6.053 2.309-7.283 6.849-.662 2.441-.583 4.79.048 6.577-1.584 1.446-2.694 4.136-2.757 7.275-.053 2.641.656 4.987 1.786 6.572-1.204 1.705-1.779 4.429-1.362 7.386.364 2.588 1.419 4.772 2.766 6.16-1.031 1.716-1.509 4.244-1.123 6.988.475 3.371 2.106 6.084 4.053 7.187-1.118 1.638-1.571 4.439-.648 8.13 2.249 8.997 12.493 11.595 12.999 9.24.291-1.354-3.498-2.618-4.189-11.642-.269-3.513-1.667-5.822-3.358-6.812 1.302-1.687 1.948-4.492 1.515-7.564-.364-2.588-1.419-4.772-2.766-6.16 1.031-1.716 1.509-4.244 1.123-6.988-.33-2.345-1.218-4.38-2.383-5.774 1.188-1.523 1.986-3.818 2.053-6.436.132 2.42.334 4.821.639 7.194 1.025 7.989 3.032 14.358 5.494 18.589.804 1.382 2.047 2.922 3.026 2.503.709-.303 1.067-1.373.296-2.697-2.601-4.471-4.428-12.005-5.047-20.843-.028-.395-.067-.778-.09-1.178-.442-7.78-.014-21.818.317-33.315.494 5.808 1.18 11.854 1.702 18.154.156 1.888 2.235 1.767 3.079-7.32.914-9.84 2.155-19.499 4.378-28.662-.18 4.956.022 9.937.356 14.794.055.796 3.898.109 3.82-1.023-.897-13.034-.783-28.365 6.155-39.461.111-.179.228-.355.34-.533a29.4 29.4 0 0 1 5.3-6.112 30 30 0 0 1 2.53-.918c-.196.247-.395.493-.586.742-2.849 3.708-4.262 7.391-5.475 11.877-3.104 11.479-4.387 23.214-2.481 35.012.219 1.356 4.057.449 3.82-1.023-1.744-10.797-.772-21.546 1.879-32.11 1.04-4.146 2.018-8.116 4.428-11.689.793-1.176 1.688-2.435 2.68-3.639a49 49 0 0 0-1.283 3.966c-1.299 4.693-2.034 9.548-2.446 14.394-.753 8.85-.981 19.035 2.626 27.349.596 1.374 4.357.216 3.82-1.023-3.541-8.161-3.358-18.095-2.619-26.779.399-4.686 1.102-9.374 2.318-13.922.443-1.656.943-3.351 1.601-4.973l1.494-.256c-.311 2.032-.373 4.109-.437 6.156-.129 4.19-.173 8.383-.318 12.573-.321 9.276-.414 18.85 2.855 27.688.493 1.333 4.279.22 3.82-1.024-3.305-8.935-3.135-18.558-2.828-27.928.186-5.696-.283-11.813.64-17.514 1.897 7.1 3.77 14.223 4.892 21.493 1.254 8.126 1.442 16.326.993 24.527-.022.404 3.763.013 3.82-1.023.449-8.2.261-16.401-.993-24.527-.931-6.032-2.381-11.963-3.93-17.864.646.3 1.235.546 1.773.749 3.298 5.558 5.845 11.584 7.662 17.75 2.576 8.737 4.094 18.681 1.234 27.544-.68 2.108 3.127 2.096 3.657.455 2.964-9.183 1.717-19.271-.888-28.391a82.2 82.2 0 0 0-6.159-15.473c.117.065.233.128.352.203.787.497 1.791 1.105 2.918 1.804 3.006 4.414 5.285 9.36 6.947 14.384 2.842 8.589 4.2 17.804 3.438 26.84-.166 1.962 3.724 1.43 3.869-.293.798-9.462-.629-19.194-3.686-28.163a68 68 0 0 0-2.571-6.446c7.998 14.891 10.773 32.378 12.453 50.471.844 9.087 2.923 9.208 3.079 7.32.521-6.3 1.208-12.346 1.702-18.154.331 11.497.759 25.536.317 33.315-.023.4-.062.783-.09 1.178-.619 8.838-2.446 16.373-5.047 20.844-.77 1.324-.412 2.394.296 2.697.979.418 2.222-1.121 3.026-2.503 2.462-4.231 4.469-10.6 5.494-18.589.305-2.378.505-4.784.637-7.21.064 2.625.864 4.926 2.055 6.453-1.165 1.395-2.053 3.43-2.384 5.774-.386 2.743.092 5.272 1.123 6.988-1.347 1.388-2.401 3.572-2.766 6.16-.433 3.072.213 5.877 1.515 7.564-1.691.99-3.09 3.298-3.358 6.811-.69 9.024-4.48 10.288-4.189 11.642.506 2.355 10.749-.243 12.999-9.24.923-3.691.469-6.493-.648-8.13 1.948-1.103 3.579-3.816 4.054-7.187.386-2.743-.092-5.272-1.123-6.988 1.347-1.388 2.401-3.572 2.766-6.16.416-2.956-.158-5.68-1.362-7.386 1.13-1.585 1.838-3.931 1.786-6.572-.063-3.139-1.173-5.829-2.757-7.275.631-1.787.71-4.137.048-6.577-1.196-4.412-4.307-7.403-7.045-6.873 4.231-6.797 6.941-15.357 7.23-24.956 2.549 4.382 4.234 9.404 1.697 14.149-.483.904.012 1.187.852.968 1.017-.266 2.164-1.454 2.649-2.361 2.524-4.721 1.712-9.654-.395-14.109 2.56 2.028 5.731 3.009 9.524 1.874 1.171-.35 2.455-1.623 3.17-2.701.352-.539 1.16-2.137-.045-1.776m-134.676-.828c.589-4.042 4.038-7.508 7.385-9.861-1.509 3.753-3.958 7.858-7.385 9.861m17.118 45.123c.335-.268.655-.591.966-.936.012 1.597.056 3.185.12 4.768-.159-1.437-.54-2.746-1.086-3.832m93.326 0c-.544 1.08-.923 2.381-1.083 3.81q.095-2.363.114-4.748c.312.346.633.67.969.938m9.733-54.985c3.347 2.354 6.796 5.82 7.385 9.861-3.428-2.002-5.876-6.107-7.385-9.861" style="fill:#122a89"/></svg>