<svg xmlns="http://www.w3.org/2000/svg" xml:space="preserve" viewBox="0 0 215 220"><path d="M181.094 125.704c.954-8.033-2.704-15.068-7.331-19.305-2.395-2.193-5.048-3.647-7.806-4.722-1.093-3.009-1.045-6.646 1.801-10.487.755-1.019-.671-.6-1.185-.384-1.034.436-2.442 1.348-3.176 2.338a15.6 15.6 0 0 0-1.918 3.351c-.149-.157-.318-.303-.474-.456.585-3.749.805-7.698.573-11.807-.58-10.252-2.614-18.492-7.624-26.717-5.707-9.37-10.345-12.098-16.8-16.523-3.377-2.315-16.598-9.111-28.876-7.369C96 31.881 82.779 38.677 79.402 40.992c-6.455 4.425-11.092 7.153-16.8 16.523-5.01 8.226-7.044 16.465-7.624 26.717-.487 8.607.961 16.544 3.753 23.319-1.735 2.317-3.216 5.01-4.276 8.822-1.091 3.922-.556 7.854.87 11.773-3.799 2.023-7.251 4.769-8.265 9.187-.66 2.878-.298 5.866 1.514 8.267 1.391 1.843 3.482 2.842 5.566 3.7 1.02.42 2.71 1.128 2.717 1.961s-1.995 2.656-2.746 3.481c-1.827 2.007-3.403 4.282-3.377 7.115.028 3.047 1.646 5.844 4.619 6.835 4.254 1.419-3.142-3.076.619-8.807 2.189-3.336 5.221-4.763 6.519-6.324 3.002-3.609 1.69-7.032-2.556-9.415-.909-.51-3.077-1.413-4.577-2.054s-1.528-1.553-1.522-2.153c.025-2.508 2.157-4.17 4.499-5.408 2.073 3.642 3.853 5.76 5.946 8.608 1.145 1.558 3.044 4.167 3.117 5.951s-1.972 4.374-2.727 5.648c-1.838 3.099-3.382 6.933-3.134 12.997.266 6.523 2.249 13.544 5.57 17.592 4.752 5.792-3.666-8.607-.007-18.4 2.048-5.48 5.331-10.014 6.735-12.57.057-.103.13-.224.18-.321 2.996-5.755 1.008-10.291-3.809-18.136-.993-1.617-3.28-4.757-4.954-7.08l-.2-.277c-1.687-2.343-1.787-4.306-1.827-5.585-.049-1.579.363-3.018 1.083-4.395 2.907-5.56 11.031-10.068 15.982-18.304 8.934-14.859 5.462-25.079 5.487-29.327.026-4.477 1.866-8.083 3.832-10.832 3.747-1.063 11.667-1.203 18.668-5.592 6.896 4.345 14.878 4.5 18.667 5.587 1.966 2.749 3.808 6.356 3.834 10.836.025 4.248-3.447 14.467 5.487 29.327 4.952 8.236 13.075 12.744 15.982 18.304-.175 3.14-.462 6.476-.944 10.258-1.675 2.323-3.961 5.463-4.954 7.08-4.817 7.845-6.805 12.381-3.809 18.136.05.097.124.218.18.321 1.404 2.556 4.687 7.09 6.735 12.571 3.659 9.793-4.759 24.192-.007 18.4 3.321-4.048 5.304-11.068 5.57-17.592.248-6.065-1.296-9.898-3.134-12.997-.26-.439-.676-1.04-1.103-1.705.552.188 1.141.26 1.652.08q.514-.183.993-.427c.188.291.393.582.637.876 1.298 1.561 4.33 2.988 6.519 6.324 3.76 5.731-3.635 10.226.619 8.807 2.973-.992 4.591-3.788 4.619-6.835.026-2.833-1.55-5.108-3.377-7.115-.654-.719-2.257-2.194-2.654-3.114.273-.213.518-.435.713-.649.392-.43.746-.872 1.078-1.321.295-.135.585-.255.834-.358 2.085-.858 4.175-1.857 5.566-3.7a8.8 8.8 0 0 0 1.207-2.222c.712.173 1.453.305 2.261.349 1.389.075 3.28-.832 4.483-1.748.598-.455 2.115-1.913.686-1.991-1.756-.095-3.24-.573-4.505-1.323 4.177-2.463 8.234-6.665 8.982-12.963M69.335 94.98a45 45 0 0 1-2.968 3.944c.62-5.091 1.724-10.587 3.806-15.599.735-1.77 3.125-4.719 5.195-7.337.022 4.835-.416 10.567-6.033 18.992m77.888 0c-5.617-8.425-6.056-14.157-6.034-18.992 2.07 2.618 4.46 5.567 5.195 7.337 2.082 5.012 3.186 10.508 3.806 15.599a45 45 0 0 1-2.967-3.944m7.438 50.523c-1.083.931-1.791 1.966-2.076 3.071-.876.953-1.888 1.699-3.057 2.158-.236-.578-.391-1.142-.37-1.64.073-1.783 1.972-4.393 3.117-5.951 1.33-1.81 2.534-3.33 3.765-5.124.277.267.552.542.839.773-.486 2.362-1.201 4.702-2.218 6.713m10.95-23.004c-.005-.328-.013-.657-.01-.977.021-2.858.21-5.855.257-8.809 1.74 2.2 3.012 5.087 3.559 8.261.215 1.248.349 2.56.32 3.851-.017.761-.078 1.624-.316 2.327-.021.063-.08.176-.136.287a2.6 2.6 0 0 1-.379-.167c-.84-.49-1.547-1.358-2.126-2.297-.479-.775-.851-1.611-1.169-2.476m6.876 9.846c-.999 1.215-2.271 2.31-3.631 3.066a11.2 11.2 0 0 0-1.176-2.039c-.139-.31-.264-.631-.387-.953 2.226.186 4.827-.584 6.633-2.61-.372.92-.826 1.791-1.439 2.536" style="fill:#122a89"/></svg>