<svg xmlns="http://www.w3.org/2000/svg" xml:space="preserve" viewBox="0 0 215 220"><path d="M175.045 148.445c3.185-11.047-7.372-9.723-5.319-35.137.9-11.148 2.639-23.85-8.828-42.853-4.769-7.903-11.621-12.128-23.45-21.613-3.192-2.559-16.896-8.412-29.305-6.428-12.435-2.027-26.205 3.862-29.405 6.428-11.829 9.484-18.681 13.71-23.45 21.613-11.467 19.004-9.728 31.705-8.828 42.853 2.053 25.414-8.504 24.09-5.319 35.137 6.03 20.917-6.117 21.946 4.616 27.461 9.65 4.958 12.545-.596 18.955.629 15.624 2.985 8.908-6.153 6.533-16.799-2.537-4.313-4.359-9.398-5.503-16.604-1.632-10.283-1.932-17.332-1.983-24.55l.007.01c.053-.898.015-1.989-.018-3.244l.001-3.948c.124-3.223.656-7.047 2.48-11.225 1.415-3.239 3.65-6.313 6.373-9.444 1.823 4.828 6.247 8.236 12.052 8.636 1.917.132 4.19-1.004 5.569-2.364.87.777 1.789 1.525 2.811 2.208 2.382 1.594 7.806-.393 8.949-2.755a21.3 21.3 0 0 0 4.272 2.886c2.062 1.05 6.097-.225 8.088-1.931.258.342.512.691.775 1.021 2.426 3.049 10.45.25 9.901-3.157a22.3 22.3 0 0 0 4.918 3.102c2.132.978 9.079-1.642 9.041-3.485 14.214 16.548-4.058 40.469 3.475 49.702 3.616 4.432 3.631 9.613 2.624 14.521-2.238 10.909-9.533 20.464 6.395 17.42 6.41-1.225 9.305 4.329 18.955-.629 10.734-5.515-1.412-6.545 4.618-27.461M82.69 80.161l.242-.248c-.305 4.261.801 8.585 3.282 12.417-4.259-1.784-4.69-7.727-3.524-12.169m14.482 10.164c-5.274-6.13-6.052-15.044.185-20.818-3.32 6.639-3.43 14.475-.185 20.818m13.141.775c-6.741-6.403-7.278-17.715-.602-24.904q.395.115.8.237c-6.083 7.327-4.419 16.678-.198 24.667m7.365-8.976c-1.416-4.35-1.503-8.833 1.16-12.661q.473.214.928.435c-1.956 4.012-2.613 8.232-2.088 12.226m10.119-5.595c5.825 7.155 5.955 12.681 10.383 17.438-7.194-3.301-10.686-10.278-10.383-17.438" style="fill:#122a89"/></svg>