<svg xmlns="http://www.w3.org/2000/svg" xml:space="preserve" viewBox="0 0 215 220"><path d="M177.534 110.945c-10.625-13.724-5.181-24.066-27.553-43.894-.151-.133-.299-.274-.451-.405l-.04-.036-.001.002a55 55 0 0 0-5.969-4.495c-2.173-1.411-10.939-6.084-23.883-6.945-6.025 0-9.57.942-11.659 2.372-2.089-1.431-5.634-2.372-11.659-2.372-12.944.861-21.709 5.534-23.883 6.945a55 55 0 0 0-5.969 4.495l-.001-.002-.04.036c-.151.131-.3.271-.451.405-22.372 19.828-16.928 30.171-27.553 43.894-5.028 6.495 2.295 11.691-.627 22.732-1.44 5.441.692 10.313 3.838 14.148 4.041 4.926 2.358.658 2.553-2.108.284-4.048.931-6.133 1.749-7.874.382 1.734.695 3.575.823 5.529.595 9.069-3.616 13.476-1.708 13.236 3.653-.459 4.065-1.259 6.305-3.615 2.694-2.833 5.199-7.616 5.772-10.493-.194 3.411-1.121 17.096 8.302 21.818.252.126.453.214.647.294 1.723.719 1.194-.363-.318-3.237a8 8 0 0 1-.328-.725c-.675-1.659-.838-3.553-.71-5.379.222-3.163 1.31-6.106 2.129-7.194 0 0 .564 2.068.359 6.49-.075 1.606-1.097 5.181 1.379 2.662 3.684-3.748 5.781-6.913 6.467-16.945.78-11.411-7.854-22.865 6.662-38.544 6.103-6.591-.323-13.088 11.109-19.47 6.823-3.809 12.098-2.562 15.154-3.165 3.055.603 8.331-.644 15.153 3.165 11.432 6.382 5.006 12.879 11.109 19.47 14.516 15.679 5.882 27.133 6.662 38.544.686 10.032 2.783 13.197 6.467 16.945 2.476 2.519 1.454-1.056 1.379-2.662-.205-4.422.359-6.49.359-6.49.819 1.088 1.907 4.031 2.129 7.193.128 1.826-.035 3.721-.71 5.38-.1.246-.204.491-.327.725-1.512 2.875-2.041 3.956-.318 3.237.193-.081.394-.168.647-.294 9.423-4.722 8.496-18.407 8.302-21.818.573 2.877 3.078 7.66 5.772 10.493 2.241 2.356 2.652 3.156 6.305 3.615 1.909.24-2.302-4.167-1.708-13.236.128-1.954.442-3.796.823-5.529.818 1.741 1.464 3.826 1.749 7.874.194 2.765-1.489 7.034 2.552 2.108 3.146-3.835 5.278-8.707 3.838-14.148-2.923-11.041 4.4-16.237-.628-22.732" style="fill:#122a89"/></svg>