<svg xmlns="http://www.w3.org/2000/svg" xml:space="preserve" viewBox="0 0 215 220"><path d="M167.784 89.097c-2.427-14.266-4.66-22.199-9.671-30.425-5.707-9.37-14.213-16.848-20.668-21.273-3.377-2.315-16.975-8.367-29.355-6.422-12.38-1.946-25.978 4.107-29.355 6.422-6.455 4.425-14.96 11.903-20.668 21.273-5.01 8.226-6.916 16.218-9.671 30.425-4.66 24.033-4.565 65.256-4.347 79.389.115 7.464 7.232 19.371 19.367 18.701 10.59-.584 14.496-.833 19.276-11.934 1.293-3.002 1.1-7.582.215-13.311a76 76 0 0 1-3.862-3.768c-6.875-7.211-11.215-13.313-13.306-26.487-1.632-10.283-1.932-17.332-1.983-24.55l.007.01c.053-.898.015-1.989-.018-3.244l.001-3.948c.124-3.223.656-7.047 2.48-11.225 3.42-7.833 11.596-14.695 20.032-23.753 1.651-1.773 3.088-3.272 4.398-4.56 3.691 4.57 15.324 10.966 26.512 15.949 9.333 4.157 19.365 13 22.186 21.027 8.176 23.259 4.098 42.858.288 57.805-2.621 10.284-5.116 18.366-3.405 23.919 3.208 10.413 15.81 11.868 26.014 8.98 6.937-1.964 9.879-12.147 9.879-19.611.001-16.039-.726-58.107-4.346-79.389" style="fill:#122a89"/></svg>