<svg xmlns="http://www.w3.org/2000/svg" xml:space="preserve" viewBox="0 0 215 220"><path d="M173.321 147.825c11.485-21.884-10.172-82.61-15.59-92.68-6.042-11.23-18.021-18.221-29.489-21.856-5.668-2.202-13.115-4.056-20.249-3.023l-.016.001c-13.205-.825-39.697 6.189-49.754 24.879-5.418 10.069-27.074 70.796-15.59 92.68 19.818 37.761-7.346 40.137-2.105 40.953 33.722 5.251 53.781-6.81 49.766-21.759a63 63 0 0 1-5.186-3.922c2.172 4.152 1.125 9.957-1.932 13.386 1.34-5.189 2.108-10.1.044-15.025a76 76 0 0 1-4.179-4.051c-6.028-6.322-10.106-11.794-12.429-21.925-.046-9.624.331-22.278.585-32.409.486 5.506 1.126 11.226 1.618 17.17.156 1.888 2.235 1.767 3.079-7.32.914-9.84 2.155-19.499 4.378-28.662-.18 4.956.022 9.937.356 14.794.055.796 3.898.109 3.82-1.023-.897-13.034-.783-28.365 6.155-39.461.111-.179.228-.355.34-.533a29.4 29.4 0 0 1 5.3-6.112 30 30 0 0 1 2.53-.918c-.196.247-.395.493-.586.742-2.849 3.708-4.262 7.391-5.475 11.877-3.104 11.479-4.387 23.214-2.481 35.012.219 1.356 4.057.449 3.82-1.023-1.744-10.797-.772-21.546 1.879-32.11 1.04-4.146 2.018-8.116 4.428-11.689.793-1.176 1.688-2.435 2.68-3.639a49 49 0 0 0-1.283 3.966c-1.299 4.693-2.034 9.548-2.446 14.394-.753 8.85-.981 19.035 2.626 27.349.596 1.374 4.357.216 3.82-1.023-3.541-8.161-3.358-18.095-2.619-26.779.399-4.686 1.102-9.374 2.318-13.922.443-1.656.943-3.351 1.601-4.973l1.494-.256c-.311 2.032-.373 4.109-.437 6.156-.129 4.19-.173 8.383-.318 12.573-.321 9.276-.414 18.85 2.855 27.688.493 1.333 4.279.22 3.82-1.024-3.305-8.935-3.135-18.558-2.828-27.928.186-5.696-.283-11.813.64-17.514 1.897 7.1 3.77 14.223 4.892 21.493 1.254 8.126 1.442 16.326.993 24.527-.022.404 3.763.013 3.82-1.023.449-8.2.261-16.401-.993-24.527-.931-6.032-2.381-11.963-3.93-17.864.646.3 1.235.546 1.773.749 3.298 5.558 5.845 11.584 7.662 17.75 2.576 8.737 4.094 18.681 1.234 27.544-.68 2.108 3.127 2.096 3.657.455 2.964-9.183 1.717-19.271-.888-28.391a82.2 82.2 0 0 0-6.159-15.473c.117.065.233.128.352.203.787.497 1.791 1.105 2.918 1.804 3.006 4.414 5.285 9.36 6.947 14.384 2.842 8.589 4.2 17.804 3.438 26.84-.166 1.962 3.724 1.43 3.869-.293.798-9.462-.629-19.194-3.686-28.163a68 68 0 0 0-2.571-6.446c7.998 14.891 10.773 32.378 12.453 50.471.844 9.087 2.923 9.208 3.079 7.32.492-5.944 1.132-11.664 1.618-17.17.254 10.131.632 22.784.585 32.408-2.323 10.131-6.401 15.603-12.429 21.925a77 77 0 0 1-3.771 3.687c-2.262 5.047-1.491 10.072-.117 15.389-3.144-3.525-4.175-9.573-1.752-13.742a63 63 0 0 1-5.612 4.277c-4.015 14.949 16.044 27.01 49.766 21.759 5.238-.817-21.926-3.193-2.108-40.954M60.62 106.976q.462 1.052.936 2.045c-1.905 8.162-1.706 16.727.749 24.67.047 3.317.173 6.611.433 9.863-1.844-3.335-3.375-6.769-4.075-10.424-2.05-8.583-1.392-17.985 1.957-26.154m-8.774 23.798c.368-6.218 2.234-12.196 4.892-17.69-9.17 26.127 1.155 34.12 7.731 42.718a68 68 0 0 0 1.111 4.485c-2.461-4.077-6.218-7.759-9.024-11.65-3.66-5.18-5.124-11.683-4.71-17.863m23.589 45.012c-1.713 3.714-4.804 6.688-8.447 8.088 3.272-2.093 5.723-5.222 6.84-8.717 2.424-8.872-1.705-16.294-6.319-23.719a103 103 0 0 1-.698-7.748c5.626 9.531 13.524 20.684 8.624 32.096m-7.803-3.864c.47-1.738.569-3.371.399-4.926.192.41.382.829.58 1.208q.178.339.381.678a21 21 0 0 1-.534 3.284c-1.031 2.966-2.816 5.574-4.977 7.728 1.86-2.409 3.445-5.068 4.151-7.972m86.01-37.393c2.624-7.932 2.972-16.532 1.189-24.754a45 45 0 0 0 1.067-1.972c3.064 7.974 3.622 17.03 1.642 25.327-.738 3.85-2.397 7.455-4.374 10.958.266-3.154.417-6.343.476-9.559m-12.875 41.257c-4.816-11.228 2.741-22.191 8.344-31.62a102 102 0 0 1-.74 7.792c-4.481 7.253-8.365 14.535-5.997 23.198 1.118 3.496 3.569 6.625 6.84 8.717-3.643-1.399-6.734-4.373-8.447-8.087m6.295-7.07q.149-.257.282-.512c.326-.623.642-1.294.95-1.999a13.05 13.05 0 0 0 .276 5.717c.706 2.904 2.291 5.563 4.151 7.973-3.033-2.915-5.276-6.968-5.659-11.179m12.585-20.078c-3.004 4.165-7.104 8.095-9.529 12.528.46-1.515.886-3.134 1.267-4.87 2.172-2.981 4.752-5.703 6.818-8.66 7.167-10.07 5.181-23.537 1.261-34.552 2.658 5.494 4.524 11.472 4.892 17.69.415 6.18-1.049 12.683-4.709 17.864" style="fill:#122a89"/></svg>