<svg xmlns="http://www.w3.org/2000/svg" xml:space="preserve" viewBox="0 0 215 220"><path d="M66.382 164.887c.757 1.457 1.201 3.079 1.146 4.781.457-1.656.181-3.462-.349-5.109-1.533-4.667-6.044-8.464-6.502-13.277-.688-6.447 4.127-13.167 2.091-19.749.598 7.062-4.535 12.732-3.836 19.948.569 5.4 5.186 8.832 7.45 13.406" style="fill:#122a89"/><path d="M71.485 162.414c2.163 5.104 2.135 11.432-1.698 15.706-1.205 1.445-2.802 2.563-4.633 3.241 1.941-.292 3.754-1.305 5.251-2.641 4.649-4.244 5.091-11.462 2.708-16.966-2.91-7.374-10.494-11.992-10.873-20.255-1.122 8.147 6.564 14.048 9.245 20.915" style="fill:#122a89"/><path d="M175.23 134.62c-1.5-3.627-2.75-7.368-3.482-11.23-1.173-6.186-.816-12.503-1.123-18.76-.436-8.895-1.965-17.839-4.166-26.464-4.022-15.766-13.797-28.644-27.021-38.015-5.181-3.671-11.808-5.726-17.99-6.83-4.09-.73-8.294-1.006-12.426-.464-.38.05-.791.153-1.204.252a35 35 0 0 0-4.496-.26c-1.267-.107-2.545-.085-3.813-.007-13.618.84-27.043 7.905-35.712 18.392-3.287 3.976-5.927 8.409-8.318 12.972a61 61 0 0 0-1.678 3.282q-.63 1.268-1.247 2.539c-2.615 5.382-4.172 11.152-5.151 17.042-.603 3.627-.981 7.284-1.231 10.951-.22 1.964-.407 3.928-.529 5.889-.395 6.355.038 12.795-1.012 19.098-.604 3.624-1.672 7.151-2.998 10.574-1.406 3.63-2.595 6.798-2.307 10.759.517 7.113 4.434 13.522 4.863 20.62.095 1.573-.033 3.147-.56 4.64-.598 1.696-1.756 3.101-2.333 4.813-.989 2.933-.589 6.07 1.514 8.412 4.228 4.707 12.674 4.693 18.428 3.928 6.271-.834 12.847-3.297 17.183-8.077 2.549-2.81 4.521-6.741 4.707-10.645.083-1.744-.192-3.482-.929-5.112a77 77 0 0 1-3.53-3.59 75 75 0 0 1-2.653-2.996c-4.931-5.913-7.765-11.682-9.39-21.916-1.94-12.23-1.988-19.957-1.982-28.688.043-1.7.064-3.398.293-5.092.149-1.104.381-2.196.652-3.279.004.106.001.211.005.317a76 76 0 0 0 .217 3.449c.063.74-.055 2.241.426 2.875 1.225 1.619 4.801.465 6.172-.314.802-.456 1.489-1.027 1.611-1.976.143-1.107-.249-2.482-.33-3.593a71 71 0 0 1-.187-4.425 68 68 0 0 1 .382-8.043c.124-1.146.16-2.665.641-3.807-.551 5.808-.444 11.654-.069 17.481.102 1.585.297 2.746 1.557 3.206.283.104.602.183 1.006.212 1.528.106 3.28-.472 4.413-1.506 1.63-1.488.992-3.563.882-5.55-.204-3.674-.284-7.36-.103-11.037.113-2.287.335-4.571.681-6.835a53 53 0 0 1 .642-3.516c.407-1.824.91-3.012 2.195-4.357l.008-.008c-.22.888-.431 1.777-.624 2.672-1.314 6.088-1.994 12.327-1.833 18.541.052 2.033.185 4.064.418 6.085.139 1.208.025 3.162.829 4.127 1.16 1.392 3.615.99 5.059.378 2.486-1.054 2.617-2.522 2.276-4.956-.608-4.346-.731-8.745-.442-13.123.264-3.99.871-7.951 1.727-11.856a121 121 0 0 0-.363 6.809c-.14 6.299.221 13.214 2.948 19.007 1.321 2.805 6.821 2.461 8.037-.425.366-.87-.034-1.546-.368-2.371a31.5 31.5 0 0 1-1.503-4.843c-.749-3.288-1.048-6.669-1.082-10.037-.049-4.719.235-9.527.947-14.25-.197 5.377-.33 10.766-.094 16.111.188 4.246.705 8.497 1.896 12.587.732 2.512 1.163 4.551 4.126 4.388 1.397-.077 3.701-.66 4.556-2.024.186.831.755 1.104 2.28 1.032 1.558-.074 3.563-.418 4.772-1.491.695-.617.741-1.135.808-2.031.148-1.957.16-3.935.173-5.897.043-6.485-.535-12.908-1.665-19.275.375.371.701.801.937 1.352.708 1.655 1.157 3.497 1.626 5.235.967 3.583 1.68 7.252 1.929 10.959.26 3.867-.011 7.798-1.044 11.544-.504 1.826-.74 2.842 1.494 3.022 1.59.129 3.615-.301 4.917-1.255 1.967-1.442 2.129-5.093 2.413-7.31.533-4.161.312-8.356-.355-12.487a64 64 0 0 1 1.208 6.863c.309 2.628.454 5.274.416 7.92-.021 1.404-.782 4.034.076 5.251 1.246 1.767 4.838.764 6.277-.169.451-.293.753-.601.969-.937.978 5.077 1.48 10.235 1.174 15.418-.317 5.366-1.619 10.519-2.851 15.727-1.116 4.715-1.828 9.452-1.303 14.303.37 3.413 1.556 6.709 1.128 10.179-.319 2.584-1.525 4.706-2.758 6.941-2.818 5.106-2.026 10.49 1.099 15.378 3.644 5.699 10.331 8.759 16.803 9.853 6.123 1.035 14.209.948 19.284-3.156 2.365-1.913 3.649-4.697 3.332-7.748-.364-3.496-3.053-6.039-3.37-9.55-.64-7.096 3.673-13.963 4.661-20.88.553-3.868.038-7.329-1.448-10.922m-63.021-40.573c-.242-.636-.539-1.26-.695-1.799a45 45 0 0 1-1.258-5.844c-.997-6.675-.757-13.506-.586-20.279l.028.126c.422 1.864.808 3.736 1.142 5.618a96 96 0 0 1 1.332 11.665c.187 3.5.169 7.009.037 10.513m61.729 51.206c-.422 3.493-1.537 6.856-2.59 10.198-.974 3.091-2.025 6.264-2.176 9.527-.063 1.362.022 2.758.383 4.077.443 1.618 1.418 2.877 2.106 4.383 1.451 3.177 1.312 6.916-1.485 9.309-2.606 2.23-6.575 2.703-9.883 2.809-6.698.216-14.091-1.708-19.036-6.43-4.104-3.919-7.023-10.646-4.381-16.099.914-1.886 2.11-3.605 2.831-5.586.98-2.691 1.017-5.543.535-8.346-.896-5.206-1.426-9.921-.473-15.175.831-4.578 2.223-9.034 3.002-13.624 1.026-6.049 1.005-12.193.144-18.263-.621-4.379-1.654-8.683-2.887-12.928-.34-1.17-2.856-.371-2.801.751.108 2.215.13 4.43.015 6.646-.06 1.155.094 3.011-1.66 2.773-1.459-.198-.67-2.344-.631-3.485a64.5 64.5 0 0 0-1.456-15.789c-.397-1.814-.838-3.643-1.433-5.404-.559-1.657-2.263-2.34-3.736-3.168-.649-.364-2.816.02-2.499 1.114 1.664 5.736 2.797 11.699 2.483 17.695a35 35 0 0 1-.467 4.207c-.181 1.028-.382 3.756-1.167 4.467-.306.278-1.517.67-1.913.504-.586-.247-.179-.014-.1-.761.076-.723.442-1.582.6-2.298 1.212-5.505.872-11.295-.199-16.793a69 69 0 0 0-2.202-8.389c-.333-1.011-.605-2.533-1.34-3.323-.851-.915-2.7-1.6-3.776-2.273-.691-.432-2.723.039-2.499 1.114 1.309 6.272 2.08 12.604 2.2 19.014q.043 2.315-.004 4.63-.025 1.264-.075 2.527c-.021.552.185 2.179-.122 2.528-.352.4-1.142.482-1.651.546-.077.01-.721.131-.94.08.232-.058.389-2.214.383-2.061.234-5.961.079-11.955-.65-17.879-.371-3.015-.901-6.006-1.536-8.976-.341-1.596-.67-3.214-1.108-4.787-.366-1.315-1.197-1.673-2.284-2.523-.576-.451-2.504-.009-2.507.882-.026 6.567-.387 13.17-.111 19.732.145 3.45.498 6.903 1.271 10.273.36 1.571.883 3.076 1.343 4.615.303 1.013.021 2.057-1.469 1.676-1.128-.288-1.564-3.098-1.834-4.101a45 45 0 0 1-.991-4.674c-.553-3.476-.746-6.996-.763-10.513-.036-7.019.267-14.073.518-21.088.025-.687-.723-.759-1.249-.748a19 19 0 0 0-1.187.042c-.615.031-1.386.41-1.569 1.035-2.023 6.923-2.8 14.256-2.908 21.453-.049 3.283.091 6.587.609 9.833a36 36 0 0 0 1.141 4.98c.321 1.037 1.846 3.422.998 4.242-2.351 2.275-3.935-5.69-4.165-6.775-.755-3.562-1.013-7.212-1.001-10.847.024-7.138.683-14.511 2.384-21.45.287-1.17-1.887-.618-2.306-.376-2.157 1.241-2.932 5.034-3.599 7.289a94 94 0 0 0-2.448 10.388c-1.222 6.928-1.548 14.042-.664 21.032.145 1.149.892 2.89-.349 3.583-1.66.927-1.735-1.031-1.888-2.12a66.5 66.5 0 0 1-.6-11.464c.236-7.126 1.501-14.248 3.528-21.078.363-1.225-2.167-.579-2.555-.172-1.687 1.772-3.968 3.562-5.309 5.59-1.194 1.806-1.398 4.983-1.72 7.095-.803 5.261-.872 10.602-.66 15.91.063 1.568 1.145 5.94-.553 6.727-2.234 1.036-1.673-3.509-1.733-4.69-.305-6.062-.226-12.134.656-18.148.185-1.263-2.113-.634-2.555-.172-1.06 1.109-2.768 2.384-3.463 3.77-.678 1.351-.63 3.78-.771 5.257-.343 3.597-.378 7.217-.174 10.822.064 1.141.858 4.022.13 4.865-.208.241-1.314.544-1.616.447-.682-.221-.33.447-.551-.88-.664-3.994-.518-8.262-.295-12.29.073-1.312-2.342-.692-2.729.053-1.712 3.294-2.983 6.919-3.55 10.595-.344 2.227-.323 4.459-.407 6.698l-.264-.114c-.515-12.215 2.231-24.95 9.78-34.688 1.196-1.516 2.589-2.865 4.083-4.135-1.724.944-3.272 2.194-4.719 3.553-8.814 9.258-11.969 23.266-9.618 35.723-4.285-4.389-4.011-11.417-3.651-17.198.218-2.242.532-4.489 1.01-6.754-3.526 6.969-4.756 17.167.896 23.409.618.676 1.299.965 1.892 1.341.087.419.196.831.296 1.246.004.748.002 1.502.012 2.251a191 191 0 0 0 .135 5.102 146 146 0 0 0 .488 7.315q.09.972.197 1.98c.143 1.345.309 2.743.504 4.205.194 1.462.417 2.988.671 4.591a78 78 0 0 0 .421 2.415q.223 1.17.472 2.267c.332 1.465.7 2.839 1.106 4.139q.304.974.637 1.896c.444 1.23.927 2.393 1.452 3.506a38 38 0 0 0 1.701 3.206 42 42 0 0 0 1.963 3.004q.524.733 1.085 1.456a61 61 0 0 0 2.385 2.882 96 96 0 0 0 2.684 2.923 79 79 0 0 0 2.53 2.523c1.495 5.237-1.355 11.298-5.185 14.835-5.121 4.731-12.584 6.372-19.384 5.777-3.283-.287-6.898-1.029-9.38-3.35-2.54-2.375-2.974-5.85-1.719-9.004.621-1.56 1.687-2.88 2.208-4.484.412-1.268.562-2.621.543-3.95-.045-3.143-1.005-6.221-1.931-9.195-2.151-6.903-4.403-13.627-1.488-20.661 2.486-5.998 4.096-12.132 4.434-18.626.081-1.554.131-3.106.177-4.657 1.169-7.434 1.187-15.105 3.398-22.306 2.437-7.178 5.783-14.398 10.436-20.466-5.832 5.12-9.709 12.632-12.099 19.978-.064.219-.105.441-.165.66.545-4.069 1.333-8.101 2.508-12.032 1.768-5.909 4.728-11.475 7.766-16.817 6.562-11.538 16.769-21.007 29.813-24.561 3.442-.938 7.041-1.673 10.621-1.698 1.56-.011 2.93.429 4.436.597 1.756.196 3.736-.579 5.52-.712 7.661-.572 15.731 1.481 22.633 4.751 5.974 2.83 11.181 7.675 15.668 12.44 5.34 5.67 9.722 12.19 12.494 19.488 2.86 7.53 4.341 15.647 5.527 23.586 1.05 7.026 1.063 14.025 1.323 21.1.237 6.441 1.547 12.552 3.933 18.546 1.458 3.667 2.397 6.878 1.914 10.88" style="fill:#122a89"/><path d="M110.39 43.203c3.074.053 5.831 1.284 8.583 2.469 8.307 3.649 15.598 8.845 22.211 15.143-5.79-8.881-19.81-18.875-30.794-17.612" style="fill:#122a89"/><path d="M104.408 39.043c12.848.689 24.875 4.97 35.285 12.528-8.687-9.484-22.564-14.401-35.285-12.528m40.559 124.95c2.871-6.137 4.624-14.168.476-20.168 1.981 4.812 1.528 10.062-.171 14.806-1.2 3.18-3.241 6.617-2.569 10.256.656 5.503 5.763 9.846 11.066 10.149-6.502-1.679-11.347-8.582-8.802-15.043m14.457.076c-1.041-4.961 2.084-8.655 4.897-12.459 6.657-8.888-.706-19.486-5.314-27.418 3.111 8.234 10.089 18.04 3.861 26.431-2.858 3.753-6.328 8.617-4.769 13.717 1.099 5.001 5.025 8.562 9.067 11.273-3.533-3.234-7.033-6.89-7.742-11.544" style="fill:#122a89"/><path d="M149.57 145.123c.921 1.202 1.154 2.567 1.292 3.942.354 4.316-.519 8.275-2.228 12.378 4.203-3.421 6.08-13.019.936-16.32M102.854 50.03c-.36-4.622.107-8.381 1.553-12.785-3.656 2.922-4.395 9.071-1.553 12.785" style="fill:#122a89"/></svg>