<svg xmlns="http://www.w3.org/2000/svg" xml:space="preserve" viewBox="0 0 215 220"><path d="M61.318 126.162c-.835.055-1.876.348-2.53.911-4.029 3.472-3.463 9.24-2.49 13.97.67 3.257 1.508 6.664.77 9.987a10.02 10.02 0 0 1-4.833 6.544c-.691.391-.399.712.212.806.843.13 1.949-.323 2.67-.731 2.209-1.249 4.06-3.139 5.085-5.518 1.268-2.943 1.013-6.206.445-9.286-.941-5.105-3.069-12.109 1.553-16.09.661-.567-.588-.612-.882-.593m102.402 31.413a10.02 10.02 0 0 1-4.833-6.544c-.738-3.323.1-6.73.77-9.987.973-4.73 1.539-10.499-2.49-13.97-.654-.564-1.695-.857-2.53-.911-.294-.019-1.543.026-.882.595 4.622 3.982 2.494 10.985 1.553 16.09-.568 3.08-.823 6.343.445 9.286 1.025 2.379 2.876 4.268 5.085 5.518.722.408 1.827.861 2.67.731.611-.096.904-.417.212-.808" style="fill:#122a89"/><path d="M153.211 121.733c5.513-8.12 8.764-19.073 8.067-31.389-.58-10.252-2.614-18.492-7.624-26.717-5.707-9.37-10.345-12.098-16.8-16.523-3.377-2.315-16.598-9.111-28.876-7.369-12.278-1.742-25.499 5.054-28.876 7.369-6.455 4.425-11.092 7.153-16.8 16.523-5.01 8.226-7.044 16.465-7.624 26.717-.697 12.316 2.554 23.269 8.067 31.389l-.043 1.192c-.423 11.51-.852 23.046.416 34.054 1.025 8.897 3.032 15.99 5.494 20.702.804 1.539 2.047 3.254 3.026 2.788.709-.337 1.067-1.529.296-3.004-2.717-5.201-4.605-14.108-5.136-24.524-.115-2.246-.169-4.971-.184-7.984-.046-9.624.331-22.278.585-32.409.486 5.506 1.126 11.226 1.618 17.17.156 1.888 2.235 1.767 3.079-7.32 1.856-19.986 5.061-39.226 15.154-55.05.274-.185.537-.371.83-.557 2.688-1.709 12.011-1.102 20.098-6.172 7.953 5.012 17.361 4.442 20.1 6.172.292.184.554.368.826.552 10.096 15.825 13.302 35.067 15.158 55.055.844 9.087 2.923 9.208 3.079 7.32.492-5.944 1.132-11.664 1.618-17.17.254 10.131.632 22.784.585 32.408-.014 3.013-.069 5.738-.184 7.984-.531 10.416-2.419 19.323-5.137 24.524-.77 1.475-.412 2.666.296 3.004.979.466 2.222-1.249 3.026-2.788 2.462-4.712 4.469-11.805 5.494-20.702 1.268-11.008.839-22.544.416-34.054-.016-.406-.03-.795-.044-1.191" style="fill:#122a89"/></svg>