<svg xmlns="http://www.w3.org/2000/svg" xml:space="preserve" viewBox="0 0 215 220"><path d="M173.321 150.32c11.485-21.884-10.172-82.61-15.59-92.68-2.976-5.531-7.414-10.014-12.501-13.601 3.113-.567 6.702-1.115 8.274-.666 1.284.368 1.389.097-.919-1.805-.55-.454-1.7-1.032-2.85-1.529 3.692-1.867 5.782-4.355 5.782-4.355.84-.956 2.766-3.893 3.14-5.203.818-2.865.577-3.03-.272-2.004-1.685 2.034-9.243 4.889-11.519 6.025-.39.195-.751.383-1.096.569.881-3.555.384-7.782-2.382-10.091-4.451-3.716-11.163-4.294-14.383-2.587-2.661 1.41-4.917 3.107-6.572 5.026-.785-.38-1.57-.719-2.345-.964-4.298-1.36-6.551-1.642-11.993-1.642-5.388 0-7.237.138-11.992 1.642C91 28.069 85.436 32.868 82.778 37.331c-.051.086-.09.184-.138.274-9.788 3.961-19.261 10.455-24.416 20.035-5.418 10.069-27.074 70.796-15.59 92.68 19.818 37.761-7.346 40.137-2.105 40.953 33.722 5.251 53.781-6.81 49.766-21.759-3.874-2.613-7.698-5.884-11.253-9.613-3.369-3.534-6.126-6.806-8.311-10.77.072-1.345.313-2.678.861-3.917 2.027-4.578 5.347-8.352 6.58-10.351 2.851-4.621.959-8.263-3.624-14.562-.981-1.349-3.299-4.026-4.904-5.907s-1.701-3.458-1.739-4.484c-.237-6.388 10.36-9.976 16.238-18.226 8.501-11.931 5.197-20.137 5.221-23.548.03-4.233 2.446-7.503 4.64-9.808 4.016-.677 9.203-1.699 13.973-4.689 4.708 2.967 9.914 3.984 13.958 4.67 2.198 2.306 4.627 5.583 4.657 9.827.024 3.411-3.28 11.617 5.221 23.548 5.879 8.251 16.475 11.839 16.238 18.226-.038 1.027-.134 2.603-1.739 4.484s-3.923 4.558-4.904 5.907c-4.584 6.299-6.475 9.941-3.625 14.562 1.233 1.999 4.553 5.773 6.58 10.351.549 1.239.789 2.572.861 3.917-2.185 3.964-4.942 7.236-8.311 10.77-3.555 3.729-7.38 6.999-11.253 9.613-4.015 14.949 16.044 27.01 49.766 21.759 5.241-.816-21.923-3.193-2.105-40.953m-104.41-24.206c1.09 1.251 2.897 3.346 2.966 4.778s-1.876 3.512-2.595 4.535c-.872 1.24-1.673 2.627-2.23 4.309a64 64 0 0 1-1.316-6.322c-.778-4.904-1.251-9.067-1.541-12.87 1.589 2.156 3.047 3.654 4.716 5.57m4.806-38.67c-2.446 3.096-4.92 5.158-7.164 7.195.669-4.075 1.695-8.277 3.318-12.185 1.175-2.829 6.581-8.674 8.146-11.357a88 88 0 0 1 1.441-2.387c-.187 4.686 1.28 9.848-5.741 18.734m68.521 0c-7.021-8.887-5.554-14.049-5.741-18.737a93 93 0 0 1 1.441 2.389c1.565 2.683 6.971 8.528 8.146 11.357 1.623 3.908 2.649 8.11 3.318 12.185-2.244-2.036-4.718-4.098-7.164-7.194m7.981 45.97a64 64 0 0 1-1.316 6.322c-.556-1.682-1.358-3.069-2.229-4.309-.719-1.022-2.664-3.103-2.595-4.535s1.876-3.527 2.966-4.778c1.669-1.916 3.127-3.414 4.716-5.569-.29 3.802-.764 7.965-1.542 12.869" style="fill:#122a89"/></svg>