<svg xmlns="http://www.w3.org/2000/svg" xml:space="preserve" viewBox="0 0 215 220"><path d="M65.063 134.17c-2.489 2.842-2.071 7.037-1.335 10.544.554 2.636 1.246 5.393.636 8.082a8.13 8.13 0 0 1-3.994 5.296c-.571.316-.329.576.175.653.697.105 1.61-.261 2.207-.591 1.826-1.011 3.356-2.54 4.203-4.465.612-1.39.787-2.868.74-4.354-.607-2.148-1.124-4.505-1.546-7.161a172 172 0 0 1-1.086-8.004m111.366 18.05c-1.692-4.052-5.133-6.827-9.132-8.108 2.266-4.082 2.446-9.274-.406-13.312-2.479-3.51-6.692-5.194-10.989-5.285a19 19 0 0 0-3.504.264c-.243 4.752-.74 9.932-1.765 16.394-1.945 12.256-5.84 18.391-11.908 24.993 2.145 3.924 4.992 7.54 8.961 9.623 5.106 2.679 11.573 2.927 16.461-.966 2.68-2.134 4.057-5.415 3.851-8.479 2.31-.276 4.55-.995 6.383-2.56 3.785-3.229 3.755-8.476 2.048-12.564m-24.003-26.979c.11-.103.227-.231.362-.414 6.073-8.231 9.726-19.712 8.991-32.703-.58-10.251-2.613-18.49-7.623-26.714-5.707-9.369-10.343-12.097-16.798-16.521-3.9-2.673-20.936-11.347-34.478-5.908-5.912-.554-13.688 1.551-16.934 3.145-16.45 8.078-25.638 20.613-29.191 33.508-1.603 5.818-3.323 18.291.489 28.913 1.676 4.67 4.401 11.924 6.929 15.792.197-3.329-1.314-13.524-.013-21.793.113-.721.241-1.433.4-2.119 2.076-8.936 6.616-15.384 13.988-25.326 5.734-7.733 10.921-10.99 16.321-12.744 2.576 5.477 6.144 10.893 12.26 16.676 9.065 8.571 20.741 14.985 32.528 23.609 13.259 9.701 10.467 24.751 12.769 22.599" style="fill:#122a89"/></svg>