<svg xmlns="http://www.w3.org/2000/svg" xml:space="preserve" viewBox="0 0 215 220"><path d="M163.104 125.084c3.937-7.612 3.026-17.475-1.812-25.156-3.677-5.838-8.726-8.031-12.538-8.497-1.388-1.161-2.747-2.095-4.103-2.812-1.088-4.924-5.411-9.602-12.217-11.916-2.307-1.569-5.173-2.433-8.476-2.382-3.938-3.748-7.303-5.368-5.763-.836 0 0-3.955-5.445-13.11-6.534-5.333-.635-.605 1.045-1.386 2.72-1.738-.907-10.752-3.455-17.752 4.626-2.033-2.117-6.908-3.718-13.317-1.553-4.598 1.553-8.871 6.912-7.284 7.163.719.114 3.335-1.866 4.959-2.204 1.585-.33 3.4-.634 3.095 1.391-.224.141-.446.285-.675.419-1.327.322-3.08.656-5.271 1.974-3.677.547-7.806-.687-12.296-5.674-1.22-1.355-1.437-.587-.957 1.072.543 1.878 2.09 4.369 3.29 5.797-3.669 1.176-6.995 3.459-9.151 7.426-.669 1.231-.693 3.066-.412 4.288.039.171.12.417.226.658-1.87 1.579-3.685 3.562-5.405 6.069-.659.96-1.382 2.399-1.927 3.88-1.28-.863-2.443-2.073-3.398-3.765-.692-1.226-1.092.626-1.161 1.312-.14 1.382.032 3.364.704 4.556 1.686 2.987 3.897 4.707 6.315 5.562-1.61 1.225-2.812 3.222-3.263 6.299-.182 1.246.256 3.159.765 4.451.086.217.241.552.414.854-.965 1.142-1.5 1.89-1.5 1.89-2.177 3.128-2.771 5.354-3.135 7.117-.794 3.856.379 4.164 1.188 2.715 2.272-4.07 5.618-6.285 8.591-7.752.089.056.177.111.248.16-2.476 1.673-6.613 8.971-2.056 18.619.069.145.135.243.203.368-.954.018-1.97-.091-3.053-.354-1.368-.331-.288 1.225.166 1.744.915 1.046 2.48 2.274 3.81 2.596 5.192 1.257 9.02-.491 11.731-3.41.846 2.512 2.501 6.624 4.619 4.743a8.7 8.7 0 0 0 1.378-1.604c.787-1.153 1.385-2.51 1.842-3.873 1.075.386 2.283.672 3.181.611 7.551-.519 9.115-5.937 8.497-11.114 6.889 2.5 13.465-1.451 14.564-9.114.843-6.428 1.799-10.311 4.388-12.945 1.475-1.5 11.29-6.779 10.481-12.573 5.58-1.928 7.42-2.043 7.94-2.664 4.678 3.78 10.662 1.009 10.974 1.463 1.575 2.29 5.36 5.034 9.313 3.326.063.078.122.161.188.233-.635.723-1.049 1.758-1.101 3.095-.081 2.077 1.439 4.366 3.038 4.102.21-.035.464-.067.733-.098a5.4 5.4 0 0 0-.5 1.424c-.385 1.831.617 4.091 2.076 4.098 1.352.007 4.11.318 6.511 1.096-.421-.038-.838-.102-1.264-.104-1.267-.006-2.369.901-2.738 2.65-.312 1.483.499 3.313 1.681 3.319 1.404.007 4.683.412 6.816 1.511-1.646-.535-3.296-.675-4.883-.307-.925.215-1.518 1.317-1.379 3.134.118 1.541 1.137 3.234 2 3.033 1.03-.239 3.535-.408 5.35.332.187.076.332.182.503.271 1.345.701 2.195 1.677 2.66 2.162-.862-.682-1.741-1.244-2.63-1.634-1.536-.674-3.091-.898-4.591-.603-.799.158-1.328 1.124-1.24 2.76.074 1.387.92 2.945 1.665 2.798.848-.167 2.842-.218 4.366.413.074.031.152.055.224.088.544.258.975.588 1.358.924a7 7 0 0 0-1.572-.601c-.797-.188-1.59-.217-2.358-.046-.58.129-.949.842-.858 2.033.067.873.629 6.977 3.235 10.798a8.7 8.7 0 0 0 1.378 1.604c2.829 2.513 4.833-5.672 5.185-6.445.267-.587.211-1.582-.059-2.33.26-.105.499-.354.688-.745.483-1.002.308-2.936-.326-3.93-.271-.425-.558-.806-.841-1.199.56.185 1.107-.116 1.471-.883.064-.136.116-.288.158-.448.332.819.588 1.729.713 2.773.438 3.632.447 5.045-.428 6.56-1.411 2.442 4.82 1.295 3.755-6.263a12 12 0 0 0-.805-2.919c1.328-1.373 2.597-5.589.357-11.793M50.965 101.582a43 43 0 0 0-1.862 4.954c-1.689.255-3.396.255-5.02-.121 2.186-2.356 4.504-3.912 6.882-4.833m-8.547 21.31c.954-3.314 3.155-4.815 5.734-5.271a45 45 0 0 0-5.734 5.271m5.459 23.901c.568-1.309.901-2.801.901-2.801.714-2.104 2.203-1.843 4.026-.899-1.315 1.643-2.944 2.976-4.927 3.7m10.061-56.448a20 20 0 0 0-6.924 2.628c2.311-2.685 5.445-4.109 8.748-4.741a52 52 0 0 0-1.824 2.113m7.972 54.466c.187-.809.327-1.56.431-2.221 1.066-.406 2.044-.355 3.252-.793-.751 1.323-1.927 2.394-3.683 3.014m67.217-57.42a23 23 0 0 1-.42-1.041c-1.144-3.092-3.876-6.868-6.692-9.933 1.236.715 2.558 1.558 3.451 2.437 1.844 1.816 3.823 4.245 4.466 8.355-.268.058-.534.114-.805.182m5.475-.556c-.411-2.413-1.283-4.594-2.533-6.448.532.514 1.023 1.03 1.401 1.511 1.12 1.424 2.275 3.114 2.816 5.164a14 14 0 0 0-1.684-.227m20.847 45.359c.439-.596.69-1.413.718-2.204.529 1.504.809 2.739.891 3.957a13.4 13.4 0 0 0-1.609-1.753m2.214-12.645a19 19 0 0 1-.211 1.867 25 25 0 0 0-1.197-1.992c1.124-1.552 1.073-4.356-.076-5.783a33 33 0 0 0-1.596-1.827c.679-.565 1.103-1.989 1.059-3.271a10.5 10.5 0 0 0-.234-1.76c2.347 4.884 2.452 9.217 2.255 12.766" style="fill:#122a89"/></svg>