<svg xmlns="http://www.w3.org/2000/svg" xml:space="preserve" viewBox="0 0 215 220"><path d="M178.873 84.919c-1.59.476-3.053.502-4.405.222.055-.143.118-.284.143-.43.968-5.761-3.573-10.68-8-13.696-1.349-.919-2.824-1.755-4.316-2.602q-.261-.749-.531-1.493c3.593-2.864 5.532-7.199 5.532-12.621 0-8.314-4.228-18.06-18.263-17.816-5.315.093-9.237 1.728-12.046 4.177l-.044-.03c-3.901-2.674-20.947-11.353-34.492-5.905l-.009.003c-5.909-.545-13.668 1.556-16.909 3.148a66 66 0 0 0-5.959 3.314c-2.837-2.749-6.954-4.608-12.653-4.707-14.035-.244-18.262 9.502-18.262 17.816 0 5.421 1.939 9.757 5.532 12.621q-.27.743-.531 1.493c-1.491.847-2.966 1.682-4.316 2.602-4.426 3.016-8.968 7.935-8 13.696.025.146.088.287.143.43-1.352.28-2.816.254-4.405-.222-1.204-.36-.397 1.237-.042 1.772.714 1.078 1.999 2.351 3.17 2.701 3.793 1.134 6.964.154 9.524-1.874-2.106 4.455-2.919 9.389-.395 14.109.485.907 1.633 2.095 2.649 2.361.839.219 1.335-.064.852-.968-2.566-4.798-.814-9.879 1.783-14.296.215 3.839.862 7.82 2.208 11.572 1.425 3.972 3.61 9.798 5.787 13.835-.2-.102-.393-.219-.613-.279-2.792-.757-6.053 2.309-7.283 6.849-.662 2.441-.583 4.79.048 6.577-1.584 1.446-2.694 4.136-2.757 7.275-.053 2.641.656 4.987 1.786 6.572-1.204 1.705-1.779 4.429-1.362 7.386.364 2.588 1.419 4.772 2.766 6.16-1.031 1.716-1.509 4.244-1.123 6.988.475 3.371 2.106 6.084 4.053 7.187-1.118 1.638-1.571 4.439-.648 8.13 2.249 8.997 12.493 11.595 12.999 9.24.291-1.354-3.498-2.618-4.189-11.642-.269-3.513-1.667-5.822-3.358-6.812 1.302-1.687 1.948-4.492 1.515-7.564-.364-2.588-1.419-4.772-2.766-6.16.929-1.547 1.372-3.767 1.175-6.197.081.89.155 1.782.256 2.666 1.025 8.897 3.032 15.99 5.494 20.702.804 1.539 2.047 3.254 3.026 2.788.709-.337 1.067-1.529.296-3.004-2.717-5.201-4.605-14.108-5.136-24.524-.115-2.246-.169-4.971-.184-7.984-.046-9.624.331-22.278.585-32.409.486 5.506 1.126 11.226 1.618 17.17.156 1.888 2.235 1.767 3.079-7.32.311-3.353.668-6.682 1.08-9.982.198-.3.397-.611.601-.951 6.988-11.678 11.247-29.221 17.759-48.113a41 41 0 0 1 2.235-.8c-5.488 16.82-9.907 39.103-16.587 45.327-1.342 1.251 1.184 1.77 4.208-3.005 6.514-10.286 9.632-26.474 16.069-43.385q.901-.228 1.761-.433c-3.817 14.282-6.782 31.137-12.505 36.518-1.257 1.182 1.296 1.442 4.001-2.913 5.269-8.482 7.449-20.927 11.751-34.398 2.332-.608 4.22-1.269 5.356-2.405 2.727 1.803 4.776 2.855 6.416 3.538 4.068 13.033 6.278 25.022 11.398 33.264 2.706 4.355 5.258 4.095 4.001 2.913-5.53-5.199-8.485-21.111-12.121-35.063.736.204 1.38.378 1.997.612 6.029 16.315 9.144 31.797 15.448 41.751 3.024 4.775 5.551 4.256 4.208 3.005-6.309-5.878-10.602-26.077-15.682-42.473.801.495 1.67 1.039 2.581 1.629 5.831 17.475 9.977 33.515 16.508 44.43.204.34.403.651.601.951.412 3.299.769 6.628 1.08 9.982.844 9.087 2.923 9.208 3.079 7.32.492-5.944 1.132-11.664 1.618-17.17.254 10.131.632 22.784.585 32.408-.014 3.013-.069 5.738-.184 7.984-.531 10.416-2.419 19.323-5.137 24.524-.77 1.475-.412 2.666.296 3.004.979.466 2.222-1.249 3.026-2.788 2.462-4.712 4.469-11.805 5.494-20.702.102-.883.176-1.776.256-2.666-.198 2.43.246 4.65 1.175 6.197-1.347 1.388-2.401 3.572-2.766 6.16-.433 3.072.213 5.877 1.515 7.564-1.691.99-3.09 3.298-3.358 6.811-.69 9.024-4.48 10.288-4.189 11.642.506 2.355 10.749-.243 12.999-9.24.923-3.691.469-6.493-.648-8.13 1.948-1.103 3.579-3.816 4.054-7.187.386-2.743-.092-5.272-1.123-6.988 1.347-1.388 2.401-3.572 2.766-6.16.416-2.956-.158-5.68-1.362-7.386 1.13-1.585 1.838-3.931 1.786-6.572-.063-3.139-1.173-5.829-2.757-7.275.631-1.787.71-4.137.048-6.577-1.198-4.417-4.315-7.41-7.054-6.873 4.234-6.797 6.95-15.354 7.24-24.955 2.548 4.382 4.232 9.403 1.696 14.147-.483.904.012 1.187.852.968 1.017-.266 2.164-1.454 2.649-2.361 2.524-4.721 1.712-9.654-.395-14.109 2.56 2.028 5.731 3.009 9.524 1.874 1.171-.35 2.455-1.623 3.17-2.701.356-.532 1.164-2.13-.041-1.769m-134.676-.828c.589-4.042 4.038-7.508 7.385-9.861-1.509 3.753-3.958 7.858-7.385 9.861m18.142 44.131a295 295 0 0 0-.052 4.093c-.195-1.146-.521-2.204-.972-3.101a8.3 8.3 0 0 0 1.024-.992m-1.914 13.054c.896-1.149 1.572-2.737 1.879-4.572.048 3.408.185 6.789.459 10.127-.353-2.249-1.21-4.205-2.338-5.555m13.256-40.496c2.089-14.005 5.614-27.268 12.655-38.787-4.197 14.155-8.222 29.15-12.655 38.787m56.373-37.317q.376.279.75.565c6.252 11.036 9.503 23.563 11.471 36.752-4.281-9.304-8.18-23.602-12.221-37.317m25.476 77.813c-1.127 1.35-1.984 3.306-2.339 5.555.274-3.339.411-6.72.459-10.127.308 1.835.984 3.423 1.88 4.572m-.889-12.062c-.451.897-.777 1.954-.972 3.101a295 295 0 0 0-.052-4.093c.328.371.669.709 1.024.992m9.733-54.985c3.347 2.354 6.796 5.82 7.385 9.861-3.428-2.002-5.876-6.107-7.385-9.861" style="fill:#122a89"/></svg>