<svg xmlns="http://www.w3.org/2000/svg" xml:space="preserve" viewBox="0 0 215 220"><path d="M160.787 166.901c.065-4.009 1.269-12.906 2.498-23.487.938 3.672 1.743 7.871 2.062 12.28.348 4.809 5.794-6.58 3.272-27.067-1.691-13.74 2.214-42.944-1.934-59.128-4.043-15.775-10.019-20.039-24.2-29.632-7.413-5.015-45.017-19.228-58.482-1.979-2.373.254-5.189 1.497-8.464 3.196-14.084 7.309-18 12.772-25.049 27.631-6.911 14.568-1.95 46.376-3.372 60.002-2.121 20.317 3.055 31.821 3.326 27.044.29-5.105 1.194-9.914 2.202-13.922 1.29 11.27 2.612 20.853 2.68 25.06.388 23.89-10.46 20.625-7.486 22.422 3.865 2.335 20.11.826 26.089-3.887 6.78-5.344 9.637-10.116 10.752-15.918a75 75 0 0 1-5.642-5.336c-4.576-4.8-8.023-9.119-10.437-15.349.201-2.179-2.336-12.239 2.285-31.581 4.415-18.478 7.496-23.658 14.809-34.255a72 72 0 0 0 2.146-3.313c.052.447.136.821.283 1.04 8.602 12.846 18.583 20.529 29.766 25.401 9.03 3.934 20.906 10.373 20.708 32.522-.027 2.994.867 2.621 1.879.433 1.226-2.649 1.975-7.623 2.002-10.625.087-9.706-1.688-16.974-4.502-22.465 2.177 3.054 3.855 6.454 4.884 10.326 5.829 21.935 1.838 31.908 3.049 32.29 1.421.449 2.491-3.245 3.001-5.504 1.598-7.078 1.794-22.981 1.794-22.981s.178 3.451.752 8.071c-.29 2.886-.686 6.001-1.241 9.502-2.091 13.174-6.431 19.276-13.306 26.487a75 75 0 0 1-5.504 5.221c1.099 5.855 3.951 10.653 10.776 16.033 5.979 4.713 22.224 6.222 26.089 3.887 2.975-1.795-7.873 1.471-7.485-22.419" style="fill:#122a89"/></svg>