<svg xmlns="http://www.w3.org/2000/svg" xml:space="preserve" viewBox="0 0 215 220"><path d="M171.69 137.53c1.644-7.248.641-14.98.102-22.303-.608-8.263-1.468-16.555-3.477-24.611 1.284-4.554 2.194-9.963 1.559-16.79-.596-6.403-5.86-14.656-10.498-20.014-9.542-11.023-17.378-17.248-31.383-19.291-5.919-.863-15.377.87-21.613 4.223-3.704-1.137-8.597-2.317-11.833-2.911-5.721-1.05-13.533-.305-19.217 2.362-6.286 2.95-15.728 11.157-20.734 17.584-4.53 5.817-11.81 14.295-11.224 24.479.277 4.816 1.982 9.387 3.563 13.406-1.516 7.091-2.241 14.338-2.772 21.562-.539 7.323-1.541 15.055.102 22.303.755 3.329 2.208 6.288 4.316 8.963 1.932 2.453 4.389 5.227 2.915 8.526-1.879 4.205-8.032 7.599-5.645 12.926 1.968 4.393 7.88 4.721 11.156 7.704 2.72 2.477 1.773 5.955 1.111 9.132-.675 3.237 17.581-2.816 21.265-6.807 1.118-1.211 2.232-2.455 3.223-3.781a76 76 0 0 1-3.565-3.503c-6.875-7.211-11.215-13.313-13.306-26.487-2.421-15.257-1.913-23.393-2.007-35.53-.008-.985-.001-1.946.007-2.906.14-.144.284-.27.439-.351 6.16-3.26 11.684-6.846 12.309-14.736.069-.869.126-1.68.179-2.466.278.496.58.992.92 1.487 1.461 2.123 2.642 3.184 4.063 4.681.695.732 1.848 1.959 1.892 2.797s-1.197 2.056-1.656 2.655c-1.116 1.457-2.053 3.259-1.903 6.11.162 3.067 1.365 6.367 3.381 8.27 2.885 2.723-2.226-4.046-.004-8.65 1.293-2.68 3.411-4.89 4.198-6.061 1.818-2.705.612-4.838-2.312-8.526-.626-.79-2.105-2.357-3.128-3.459s-1.085-2.024-1.109-2.626c-.151-3.74 6.609-5.841 10.359-10.671 3.117-4.016 3.743-7.306 3.717-9.761q.583-.297 1.141-.604c-.015 2.542.415 6.53 6.834 10.712 5.876 3.828 15.321 4.269 15.767 7.961.072.594.15 1.511-1.034 2.832s-2.897 3.207-3.601 4.128c-3.287 4.304-4.537 6.677-1.624 8.888 1.26.957 4.488 2.612 6.691 4.924 3.783 3.971-1.904 11.809 1.497 8.459 2.377-2.342 3.42-5.856 3.104-8.893-.293-2.824-1.865-4.362-3.617-5.52-.72-.476-2.598-1.37-2.685-2.201-.086-.83 1.249-2.305 2.055-3.187.879-.961 1.687-1.788 2.492-2.715 5.052 5.654 15.593 6.274 20.741 14.368 2.097 3.298 5.606 5.878 9.373 7.694-.022 10.742.246 18.77-1.995 32.894-2.091 13.174-6.431 19.276-13.306 26.487a76 76 0 0 1-3.565 3.503c.991 1.327 2.105 2.57 3.223 3.781 3.684 3.991 21.94 10.044 21.265 6.807-.662-3.177-1.609-6.655 1.111-9.132 3.276-2.983 9.188-3.311 11.156-7.704 2.387-5.327-3.766-8.721-5.645-12.926-1.474-3.298.983-6.073 2.915-8.526 2.109-2.672 3.562-5.63 4.317-8.959M84.711 71.741c-2.619 3.042-5.28 4.391-7.218 6.812.442-2.454 1.218-4.302 2.853-6.04 2.92-3.105 5.073-4.291 7.17-5.071-.539 1.26-1.403 2.672-2.805 4.299m35.559 2.602c-2.594-1.156-5.585-1.969-8.714-3.786-7.013-4.072-6.166-7.282-6.852-9.958.224.09.45.193.67.267 3.086 1.039 7.646 2.255 10.634 3.544 4.251 1.834 4.658 6.178 4.262 9.933" style="fill:#122a89"/></svg>