<svg xmlns="http://www.w3.org/2000/svg" xml:space="preserve" viewBox="0 0 215 220"><path d="M174.609 183.38c-1.342-.905-2.573-1.951-3.609-3.2-3.568-4.303-4.177-10.022-3.433-15.396.674-4.865 2.337-9.55 4.329-14.019 1.643-3.686 3.695-7.08 4.708-11.012 1.837-7.129 1.513-14.772.78-22.031-.886-8.773-2.663-17.452-4.825-25.993a273 273 0 0 0-2.549-9.307c.261-.599.062-.991-.186-1.917-2.392-8.92-5.243-17.849-9.215-26.203-1.728-3.634-3.696-7.128-6.454-10.087-3.047-3.268-6.748-5.828-10.436-8.312-5.523-3.721-11.121-6.479-17.585-8.276-3.946-1.097-8.015-1.829-12.115-1.943-1.78-.05-3.535.06-5.305.238-2.166.218-4.358.005-6.538.162-7.715.556-15.361 2.863-22.421 5.961-5.792 2.541-11.395 5.933-15.881 10.426-4.309 4.316-7.34 9.41-9.603 15.016-4.815 11.93-8.83 24.416-11.829 36.926-.51 2.129-.992 4.275-1.271 6.448-.015.117.046.197.135.26-.948 4.477-1.749 8.985-2.334 13.521-.972 7.525-1.508 15.363-.177 22.88.598 3.378 1.75 6.355 3.29 9.402 2.402 4.752 4.498 9.73 5.695 14.933 1.33 5.786 1.548 12.322-1.865 17.462-1.621 2.441-3.809 3.721-6.08 5.351-.065.009-.129.024-.194.033.047.004.095 0 .142.004q-.129.091-.258.185c-.65.475-1.362 1.043-.587 1.75.382.349 1.533.37 1.916.427 3.262.486 6.547.83 9.842 1.004 9.493.499 19.541-.233 28.336-4.123 5.588-2.472 11.174-6.669 12.689-12.902.236-.97.312-1.949.322-2.928a15.5 15.5 0 0 0-.49-3.992 59 59 0 0 1-3.64-2.577 71.6 71.6 0 0 1-8.223-7.414c-7.268-7.621-11.078-13.457-13.07-26.008-.027-.17-.05-.331-.076-.5.822-.48 1.024-1.538 1.063-2.627.156-4.365-.768-8.832-1.174-13.171-.283-3.025-.319-5.919-.163-8.947.398-7.753 1.948-15.574 5.938-22.328 1.309-2.215 2.85-4.203 3.824-6.608.796-1.964 1.25-4.024 1.547-6.117.512-3.604.908-6.781 2.472-9.876 3.889 5.227 7.75 11.322 12.473 16.248 3.615 3.771 7.731 6.859 12.773 8.311 1.465.422 3.315.899 4.807.301.252-.101.424-.199.561-.294.412.231.811.488 1.232.699 1.597.801 3.371 1.065 4.953 1.785.952.433 1.761 1.383 2.577 2.053a66 66 0 0 0 3.492 2.676c1.399.998 2.866 1.96 4.395 2.804 2.063 1.139 4.242 2.059 6.549 2.505.481.093 2.392.314 3.543-.028 3.615 2.453 7.017 5.124 9.353 9.08 1.01 1.709 1.42 3.549 1.95 5.454a541 541 0 0 1 2.018 7.413 160 160 0 0 1-1.396 11.165c-1.743 10.982-4.878 16.822-10.503 23.216-.272.309-.558.622-.842.935-.555.611-1.124 1.226-1.725 1.857-2.765 2.9-5.623 5.447-8.488 7.617q-.839.636-1.679 1.225-.864.609-1.727 1.168a17.3 17.3 0 0 0-.487 3.988c-.001.386-.009.771.02 1.163.463 6.27 5.223 10.952 10.511 13.763 8.099 4.305 17.683 5.377 26.726 5.256a96 96 0 0 0 8.729-.53c1.972-.207 4.308-.206 6.195-.854 1.067-.367 1.751-1.143.865-2.067-.595-.62-1.605-1.004-2.317-1.484m-4.521 2.514c-2.9.305-5.813.491-8.729.53-5.083.068-10.208-.319-15.181-1.408-6.721-1.472-14.28-4.471-17.963-10.678-1.542-2.598-1.891-5.253-1.581-7.903a65 65 0 0 0 5.948-4.48c-.292 1.693-.127 3.495.363 5.109 2.328 8.389 11.535 13.048 19.556 13.935a49 49 0 0 1-7.42-3.35c-6.051-3.209-12.294-9.195-11.719-16.37a74 74 0 0 0 2.123-1.923c-.41 3.575.456 7.164 3.393 9.508-2.024-3.722-2.025-7.576-1.376-11.475.351-.355.705-.703 1.053-1.068a96 96 0 0 0 2.684-2.923 61 61 0 0 0 2.385-2.882 49 49 0 0 0 1.085-1.456c.7-.978 1.354-1.974 1.963-3.004a39 39 0 0 0 1.701-3.206 40 40 0 0 0 1.452-3.506q.333-.922.637-1.896c.406-1.3.774-2.674 1.106-4.139q.25-1.098.472-2.267.223-1.17.421-2.415c.151-.952.287-1.868.417-2.769.353 1.673.682 3.351.941 5.04 1.27 8.268 1.106 17.932-1.941 25.809-1.412 3.65-3.745 6.167-6.331 8.983-.374.407-1.831 1.712-1.62 2.435.238.815 1.69.52 2.263.425 3.59-.596 6.289-3.53 8.358-6.308 2.416-3.243 4.291-6.875 5.634-10.686 3.415-9.697 3.167-20.115 1.612-30.148-1.123-7.249-2.768-14.416-4.325-21.586a25 25 0 0 0-.782.047c1.031-3.506 1.159-7.307.469-10.962-.833-4.415-2.852-8.611-5.938-11.785 2.207 4.428 3.711 8.973 4.485 13.681.479 2.91.675 5.884.577 8.933l-.055-.053a54 54 0 0 0-1.165-8.01c-1.895-8.499-5.821-16.602-11.464-23.144 4.455 7.902 7.906 16.146 10.301 24.781.088.316.17.635.255.952-.101-.292-.2-.584-.308-.873-2.939-7.869-8.434-14.873-15.492-19.248 6.25 6.017 11.086 13.038 14.447 20.837a65 65 0 0 1 1.964 5.098c.048.145.109.284.156.43l1.306 6.074c3.864 17.998 7.988 38.427-3.27 54.74-.94 1.362-1.962 2.707-3.137 3.876-.222.221-3.48 2.787-3.224 1.975.194-.615 1.033-1.317 1.453-1.765 2.185-2.334 4.236-4.481 5.632-7.41 3.338-6.999 3.694-15.858 3.183-23.473-.593-8.83-3.345-17.557-5.707-26.035-.91-3.267-2.039-5.828-4.233-8.435-2.707-3.216-6.107-5.433-9.638-7.635-5.657-3.528-10.235-7.769-14.238-13.082-4.775-6.336-9.249-12.993-15.168-18.351-1.97-1.784-4.095-3.38-6.431-4.653-.471-.257-2.949.188-2.387.914 5.302 6.842 10.331 13.907 15.909 20.531 4.486 5.327 9.446 10.617 15.475 14.227-2.633-1.324-5.074-3.06-7.38-4.861-1.273-.994-2.586-2.563-4.043-3.194-1.088-.472-2.219-.77-3.337-1.144.202-.043.399-.099.567-.166.14-.056 1.174-.577.73-.831-4.516-4.406-8.576-9.238-12.585-14.101-2.127-2.58-4.242-5.17-6.394-7.73a289 289 0 0 0-3.417-3.995 224 224 0 0 0-1.881-2.13c-.656-.733-1.041-.964-1.966-1.306-.424-.157-2.768.304-2.228.995 4.255 5.443 8.15 11.159 12.478 16.544 3.157 3.929 6.603 7.75 10.694 10.722-2.817-1.751-5.423-3.89-7.807-6.162-6.827-6.505-12.238-14.351-18.465-21.403-.446-.505-2.848.253-2.387.914 5.452 7.815 10.115 17.619 17.632 23.861a42 42 0 0 1-6.595-5.81c-4.76-5.15-8.487-11.167-12.778-16.694-.388-.5-2.059.081-2.358.508-1.932 2.758-2.984 5.52-3.44 8.839-.46 3.346-.766 6.672-2.107 9.815-1.62 3.799-4.352 6.979-5.961 10.817-1.414 3.372-2.348 6.928-2.931 10.533-.928 5.742-1.076 11.526-.521 17.301.054.564.128 1.133.194 1.701a950 950 0 0 1-2.841-13.775c-.543-10.94 1.645-21.603 6.516-31.522-4.965 6.292-7.717 14.391-7.975 22.501-.52-8.388-.07-16.772 1.334-25.172-3.81 10.002-4.337 21.36-1.744 31.783q-.109.032-.215.07c-2.415-6.846-3.118-13.868-2.278-21.176-3.053 6.775-2.32 15.228 1.52 21.6-.108.113-.182.231-.157.357 1.222 6.2 2.499 12.39 3.846 18.564.049.519.1 1.04.156 1.575.143 1.345.309 2.743.504 4.205.194 1.462.417 2.988.671 4.591a78 78 0 0 0 .421 2.415q.223 1.17.472 2.267c.332 1.465.7 2.839 1.106 4.139q.304.974.637 1.896c.444 1.23.927 2.393 1.452 3.506a38 38 0 0 0 1.701 3.206 42 42 0 0 0 1.963 3.004q.525.733 1.085 1.456a61 61 0 0 0 2.385 2.882 96 96 0 0 0 2.684 2.923 79 79 0 0 0 3.244 3.2c-.758 5.449-2.459 10.414-5.255 15.352 4.196-3.326 6.553-8.952 6.348-14.35 2.459 2.207 4.963 4.167 7.467 5.837.56 4.233-.564 8.23-4.024 11.629-5.778 5.675-14.633 7.598-22.416 8.287-5.684.503-11.417.302-17.082-.338-.618-.07-2.243-.434-3.449-.624.292-.213.572-.436.807-.62 11.875-.887 22.586-11.7 22.589-23.755a30.58 30.58 0 0 1-21.345 22.792c.181-.139.363-.276.539-.421-.101.093-.189.194-.292.286 7.382-3.02 11.998-12.204 9.995-19.928-.557 6.201-2.819 11.733-6.628 16.381 2.53-3.559 3.493-7.89 3.337-12.27-.132-3.704-.954-7.351-2.101-10.866-1.555-4.767-4.008-9.039-5.956-13.623-2.632-6.192-2.794-13.322-2.466-19.937.38-7.675 1.638-15.298 3.243-22.809l-.319.024c.019-.037.056-.071.061-.109.628-4.895 2.047-9.723 3.397-14.457a352 352 0 0 1 5.95-18.785c1.666-4.802 3.344-9.668 5.538-14.261 3.048-6.382 8.076-11.818 13.952-15.694 5.338-3.521 11.263-6.057 17.391-7.847 4.205-1.228 8.544-2.112 12.934-2.243 1.853-.055 3.593.078 5.428-.138 2.49-.293 5.016-.225 7.505.043 6.966.751 14.124 2.985 20.292 6.335 2.852 1.549 5.521 3.539 8.17 5.407 3.437 2.425 6.779 5.102 9.348 8.465 5.142 6.729 7.994 15.539 10.588 23.494a206 206 0 0 1 2.657 8.832c.007.014.02.021.026.037.116.299.247.687.389 1.136.274.705.593 1.555.535 1.779l-.004.008c.917 3.222 1.947 7.447 1.947 7.447l-.236.224c3.449 12.703 6.086 25.901 5.822 38.958-.068 3.353-.361 6.727-1.123 9.999-.889 3.82-2.837 7.066-4.453 10.609-3.162 6.936-5.88 14.853-4.848 22.588.566 4.246 2.529 8.107 5.751 10.939.053.047.113.084.166.13-5.312-3.33-9.665-7.733-13.039-13.257 1.169 4.88 4.384 9.263 8.558 12.213-4.85-2.193-9.245-4.917-12.619-9.393 2.101 6.809 9.373 10.862 16.234 11.473.926.418 1.877.771 2.848 1.045-1.162.155-2.328.307-2.714.348M121.681 81.738l-.047-.048c-5.708-6.051-10.673-12.752-15.669-19.406 6.079 5.624 10.441 12.989 15.716 19.454m-16.975-3.339c-2.054-1.49-3.897-3.267-5.576-5.194.769.8 1.551 1.589 2.355 2.356a62 62 0 0 0 3.221 2.838m70.182 107.878c-.048.019-.06-.01-.058-.057.178.058-.025.09.058.057m.54-1.093c.077-.071.141-.099.161-.026z" style="fill:#122a89"/><path d="M85.333 163.875c-2.348 13.068-16.353 18.318-28.14 19.513 12.138 1.536 28.411-5.521 28.14-19.513M64.736 52.564c7.708-11.103 19.498-18.461 32.866-20.478-13.557-.634-27.467 8.022-32.866 20.478m42.622-15.294c9.4 3.007 17.499 7.993 24.437 15.011-4.884-8.565-14.593-14.518-24.437-15.011m12.85-.843c7.577 4.509 13.868 10.001 19.381 16.881-3.312-8.148-10.861-14.711-19.381-16.881m13.441 1.581c7.19 5.547 12.965 11.96 17.755 19.674-2.461-8.718-9.34-16.327-17.755-19.674m-38.868 7.969c2.499-7.242 6.864-13.014 13.134-17.413-7.439 2.008-13.239 9.713-13.134 17.413" style="fill:#122a89"/></svg>