<svg xmlns="http://www.w3.org/2000/svg" xml:space="preserve" viewBox="0 0 215 220"><path d="M110.066 79.589c.216-.394.429-.784.63-1.172 1.047-2.011 2.096-4.444 1.936-7.239-.154-2.73-1.366-4.946-3.407-6.24-.741-.469-1.906-.824-2.399-.118-.516.737 1.105 2.044 1.627 3.611.44 1.321.584 2.533-.243 4.091-.661 1.243-1.669 3.26-2.427 4.647-.441.808-.882 1.617-1.253 2.447-.095.211-.15.412-.233.62-.941 2.342-1.217 4.501-.774 6.56.572 2.665 2.247 4.653 4.6 5.455q.398.133.791.132c1.001 0 1.915-.629 2.262-1.647.455-1.336-.223-2.736-1.543-3.185v-.001c-1.164-.396-1.426-2.117-1.397-3.074.041-1.439.735-2.853 1.53-4.326.1-.187.196-.372.3-.561m53.781 43.13c-1.323-6.959-7.965-8.542-13.087-5.798a11.3 11.3 0 0 0-3.889 3.408c-1.02 1.434-1.73 4.9-.478 10.636.605 2.889 3.467 5.538 5.833 8.086 1.744 1.878 3.22 3.701 3.315 5.524.981 18.709 6.68 8.946 5.912 4.093-.358-7.012 2.011-8.808 2.287-9.383 2.336-4.863 2.439-4.3.107-16.566m-98.651-5.797c-5.122-2.744-11.764-1.161-13.087 5.798-2.332 12.265-2.229 11.703.107 16.566.276.575 2.645 2.371 2.287 9.383-.768 4.853 4.932 14.616 5.912-4.093.096-1.823 1.571-3.646 3.315-5.524 2.366-2.548 5.228-5.197 5.833-8.086 1.252-5.736.542-9.202-.478-10.636a11.3 11.3 0 0 0-3.889-3.408" style="fill:#122a89"/></svg>