<svg xmlns="http://www.w3.org/2000/svg" xml:space="preserve" viewBox="0 0 215 220"><path d="M174.123 83.485c.116-9.655 3.544-19.179-.314-29.372-7.231-19.103-28.646-23.635-37.955-22.638-5.16.553-10.929 1.664-13.734 4.488-4.434-1.144-9.356-1.77-14.142-1.091-4.786-.679-9.708-.054-14.142 1.091-2.804-2.824-8.573-3.935-13.734-4.488-9.309-.997-30.724 3.535-37.955 22.638-3.859 10.193-.431 19.717-.314 29.372.181 15.017-16.913 26.899-2.305 49.329 4.742 7.281-3.283 15.029 5.041 28.908 3.391 5.655-5.18 13.964 2.106 22.558 2.843 3.353 9.056 5.326 10.793 3.908 3.645-2.976-2.91-1.08-1.316-11.357 1.242-8.003 3.814-12.73 8.281-16.59 1.084 5.145 2.524 9.41 4.179 12.578.804 1.539 2.047 3.254 3.026 2.788.709-.337 1.067-1.529.296-3.004-1.933-3.7-3.434-9.296-4.338-15.955 1.21-2.19 1.796-4.969 1.825-8.031-1.121-2.482-2.058-5.255-2.808-8.522-.046-9.624.331-22.278.585-32.409.486 5.506 1.126 11.226 1.618 17.17.156 1.888 2.235 1.767 3.079-7.32 1.206-12.994 2.99-25.669 6.852-37.302.16-.106.353-.307.584-.627 2.493-3.453 4.018-5.725 9.895-7.638-1.163 4.315-3.851 8.175-7.738 11.015-1.221.893 3.509-.235 4.88-.969 7.514-4.023 10.656-6.458 15.503-12.94-.886 4.052-3.223 7.753-6.832 10.489-1.207.915 2.792.5 4.183-.203 4.393-2.223 5.425-3.216 7.883-7.084l-.188 8.892c-.024 1.155 2.674-1.104 3.321-2.282 2.371-4.312 8.166-6.344 10.61-10.361 0 0-.014 1.465-.115 3.749-.101 2.285-2.744 3.607-1.754 3.811 2.801.577 9.602-4.3 11.292-8.789a6.5 6.5 0 0 0 .38-1.932c8.729 15.253 11.666 33.383 13.41 52.171.844 9.087 2.923 9.208 3.079 7.32.492-5.944 1.132-11.664 1.618-17.17.254 10.131.632 22.784.585 32.408-.749 3.267-1.687 6.04-2.808 8.522.029 3.062.615 5.841 1.825 8.031-.904 6.659-2.405 12.255-4.338 15.955-.77 1.475-.412 2.666.296 3.004.979.466 2.222-1.249 3.026-2.788 1.655-3.168 3.096-7.434 4.179-12.578 4.466 3.86 7.039 8.586 8.281 16.59 1.594 10.277-4.961 8.381-1.316 11.357 1.738 1.419 7.951-.555 10.793-3.908 7.286-8.595-1.285-16.903 2.106-22.558 8.324-13.879.298-21.627 5.041-28.908 14.609-22.429-2.486-34.311-2.305-49.328M62.701 118.064a813 813 0 0 0-.327 10.195c-.214-.28-.414-.572-.637-.844-7.763-9.465-7.683-17.51-5.674-26.09 1.389 5.855 3.684 11.131 6.682 15.547zm-.399-59.299a49 49 0 0 0-5.308 12.069c-1.035-4.888-1.246-10.044 2.462-17.348 3.285-6.472 7.903-9.781 17.8-9.986-5.525 3.763-9.807 6.814-14.954 15.265M138.699 43.5c9.897.205 14.515 3.514 17.8 9.986 3.708 7.304 3.497 12.46 2.462 17.348a49 49 0 0 0-5.308-12.069c-5.147-8.451-9.428-11.502-14.954-15.265m15.52 83.915c-.223.272-.423.564-.638.844a812 812 0 0 0-.327-10.195l-.043-1.192c2.998-4.416 5.293-9.691 6.682-15.547 2.009 8.58 2.088 16.624-5.674 26.09" style="fill:#122a89"/></svg>