<svg xmlns="http://www.w3.org/2000/svg" xml:space="preserve" viewBox="0 0 215 220"><path d="M64.649 144.461c-2.489 2.842-2.071 7.037-1.335 10.544.554 2.636 1.246 5.393.636 8.082a8.13 8.13 0 0 1-3.994 5.296c-.571.316-.329.576.175.653.697.105 1.61-.261 2.207-.591 1.826-1.011 3.356-2.54 4.203-4.465.612-1.39.787-2.868.74-4.354-.607-2.148-1.124-4.505-1.546-7.161-.46-2.902-.813-5.542-1.086-8.004m92.384 23.921a8.12 8.12 0 0 1-3.994-5.296c-.61-2.689.083-5.446.636-8.082.804-3.828 1.272-8.497-2.058-11.306-.065-.055-.146-.096-.219-.144a155 155 0 0 1-.426 3.67c.598 2.964-.367 6.451-.892 9.24-.469 2.493-.68 5.133.368 7.515.847 1.925 2.377 3.454 4.203 4.465.597.33 1.51.697 2.207.591.505-.076.747-.336.175-.653m5.735-66.346c-.889-14.687-6.142-29.543-18.121-38.842-8.668-6.728-18.945-11.725-30.081-12.214-3.268-.144-6.568.172-9.728 1.033q-.979.268-1.937.606l-.311.11-.123.048c-.225-.065-.574-.146-.737-.148-1.816-.03-3.629.126-5.426.379-6.442.908-12.167 3.185-17.671 6.612-11.239 6.999-20.15 17.663-23.671 30.556-1.907 6.983-2.381 14.621-1.315 21.774.636 4.266 2.087 8.253 3.64 12.255 1.434 3.694 2.941 7.442 5.072 10.799.102.161.374.217.702.211.041.131.073.268.115.399l-.056-.402c.252-.011.528-.053.804-.13.636-.178 1.222-.499 1.237-.828.215-4.926-.609-9.892-.547-14.831.037-2.931.363-5.75.952-8.498-.02.418-.052.834-.065 1.252a79 79 0 0 0 .042 5.888 85 85 0 0 0 .214 3.348c.049.58-.086 2.105.246 2.493 1.26 1.477 7.311-.077 8.015-1.842.379-.95-.234-3.113-.302-4.098a83 83 0 0 1-.193-5.356c-.013-3.841.254-7.691.863-11.484.053-.33.124-.658.182-.988a77 77 0 0 0-.387 4.536c-.226 4.301-.126 8.612.107 12.911.148 2.726-.299 4.912 2.958 4.653 1.583-.126 4.142-.736 5.037-2.229.532-.888.213-2.056.156-3.034-.1-1.696-.177-3.393-.221-5.091-.178-6.831.112-13.768 1.742-20.43.928-3.796 2.342-7.428 4.319-10.705-1.572 3.877-2.542 8.017-3.357 12.157-1.532 7.785-2.135 15.772-1.349 23.682.228 2.29-.245 4.999 2.582 4.994 1.683-.003 3.78-.505 5.134-1.55.547-.422.807-.764.884-1.439.11-.963-.349-2.386-.457-3.36a69 69 0 0 1-.289-3.355 75.5 75.5 0 0 1 .255-12.109c.33-3.305.883-6.575 1.579-9.817a131 131 0 0 0-.434 6.577c-.151 3.672-.111 7.362.322 11.014.207 1.745.504 3.48.921 5.187.384 1.571.774 3.947 1.749 5.271 1.33 1.806 7.725.49 8.081-1.826.146-.949-.983-2.807-1.26-3.724a39 39 0 0 1-1.197-5.358c-.551-3.555-.688-7.164-.613-10.757.079-3.819.325-7.706.822-11.56-.024 2.848-.019 5.69-.082 8.491-.163 7.21.039 14.545 2.08 21.514.654 2.232.916 3.798 3.461 3.712 1.579-.053 3.63-.545 4.83-1.646.02-.018.034-.037.053-.055.032.142.066.283.117.408 1.047 2.527 6.124.975 7.439-.525.582-.664.586-1.303.636-2.163a117 117 0 0 0 .169-5.553c.041-3.7-.068-7.401-.365-11.089-.312-3.892-.882-7.74-1.606-11.56 1.044 2.761 1.982 5.564 2.727 8.427 1.935 7.438 2.949 15.461 1.124 23.026-.524 2.172-1.251 3.048 1.334 2.977 1.655-.046 3.69-.394 5.101-1.321 1.946-1.279 2.022-5.351 2.272-7.485.379-3.237.318-6.509-.017-9.748.834 4.384 1.264 8.845 1.198 13.307-.024 1.62-1.13 4.602 1.027 5.018 1.508.291 3.33-.187 4.715-.766 1.82-.761 2.076-1.456 2.188-3.384.115-1.968.127-3.942.061-5.913.062.886.148 1.771.177 2.659a70 70 0 0 1-.018 5.122c-.041 1.002-.543 2.753-.003 3.613 1.341 2.134 6.679.487 7.705-1.328.589-1.042.36-2.7.403-3.836.011-.279-.003-.558.005-.837.133 1.041.256 2.076.364 3.086.49 4.609.539 9.232.836 13.852.128 1.99.292 3.917 2.405 3.241.216-.069.43-.136.689-.263 1.422-.696 2.241-2.504 3.029-3.784a46 46 0 0 0 3.909-8.047c2.597-6.989 3.522-14.466 3.153-21.89m-60.425-49.221.019.003c-.492.192-.519.199-.019-.003m9.84 59.481c-.011.404-.068.89-.13 1.401-.041-.106-.086-.215-.117-.313a43 43 0 0 1-.845-3.106c-.82-3.519-1.217-7.122-1.382-10.727-.184-4.022-.06-8.043.052-12.064.017-.606.018-1.213.025-1.819.748 3.531 1.374 7.087 1.778 10.678.407 3.62.612 7.261.656 10.903q.031 2.524-.037 5.047m44.428 12.772a46 46 0 0 1-2.537 5.431c2.317-6.906 1.19-14.865-.756-21.727-.039 8.184.966 16.119-.874 24.078-.504-4.224-.343-8.566-.717-12.802-.571-6.469-1.454-13.763-4.505-19.592-.299-.571-2.912.125-2.801.751.993 5.612 1.402 11.314 1.12 17.009-.054 1.093.25 2.865-1.028 3.281-1.033.336-1.464-.306-1.615-1.159-.188-1.063.167-2.493.199-3.584q.059-2.014.003-4.029c-.143-5.26-.853-10.513-2.171-15.609a61 61 0 0 0-2.465-7.523c-.371-.921-.712-2.023-1.275-2.842-.891-1.297-2.363-2.41-3.544-3.423-.393-.337-2.957.329-2.722.847a72.2 72.2 0 0 1 5.909 20.868c.466 3.732.631 7.505.459 11.263-.048 1.06.066 3.988-2.002 3.116-1.114-.47-.435-2.471-.4-3.466.258-7.321-.826-14.665-2.898-21.681-.997-3.373-2.218-6.684-3.728-9.863a54 54 0 0 0-2.555-4.77c-.798-1.322-1.543-2.915-2.874-3.733-.393-.242-2.996.301-2.722.847 3.742 7.441 6.511 15.501 7.724 23.759.572 3.893.765 7.859.347 11.778-.212 1.986-.492 4.13-1.187 6.022-.349.95-.449 1.192-1.503 1.287-1.073.097-1.001.186-.908-.821.168-1.826.895-3.674 1.117-5.527.22-1.834.297-3.685.262-5.531-.075-3.985-.678-7.948-1.581-11.824a81 81 0 0 0-8.966-22.536c-.328-.561-2.956.154-2.801.751 1.91 7.367 3.619 14.792 4.379 22.377.397 3.965.57 7.951.564 11.934a142 142 0 0 1-.138 5.98c-.048 1.093.017 3.547-1.79 2.744-1.185-.526-.783-2.051-.738-3.079q.131-2.944.136-5.892c.005-3.782-.158-7.565-.533-11.329-.772-7.749-2.574-15.33-4.54-22.85-.157-.6-2.764.107-2.801.751-.245 4.219-.081 8.441-.174 12.663-.083 3.76-.238 7.516-.133 11.278.112 4.009.471 8.026 1.349 11.945q.263 1.177.589 2.338c.24.851 1.02 2.219.998 3.077-.036 1.411-1.581 1.686-2.455.658-.923-1.086-1.28-4.038-1.588-5.404a53 53 0 0 1-.928-5.533c-.469-3.998-.537-8.033-.472-12.054.063-3.839.221-7.676.305-11.515.087-3.986.033-8.025.573-11.981.041-.302-1.067-.134-1.135-.122a2.7 2.7 0 0 0-1.615.879l-.052-.006-.009.076c-.857 1.015-1.057 2.624-1.449 4.044-.851 3.079-1.476 6.215-1.925 9.377-.918 6.469-1.355 13.161-.828 19.684.247 3.057.739 6.105 1.626 9.045.23.763 1.546 3.107 1.164 3.833-.725 1.379-2.235.497-2.667-.464-2.591-5.769-2.897-12.679-2.765-18.903.166-7.824.951-15.824 3.25-23.328.195-.638-2.438.052-2.76.504-2.223 3.122-3.37 6.764-4.331 10.432-1.065 4.063-1.944 8.172-2.506 12.336-.597 4.418-.849 8.885-.68 13.341.085 2.244.277 4.485.579 6.71.106.779.545 1.756-.085 2.392-.366.37-1.345.604-1.808.3-.965-.634-.834-4.229-.932-5.35a73 73 0 0 1-.271-6.648c.021-4.661.475-9.317 1.274-13.907 1.328-7.628 3.128-15.526 7.993-21.734.288-.368-2.282.084-2.645.368-8.936 6.994-12.163 18.147-13.01 29.042-.445 5.725.06 11.345.092 17.058.005.928-.843 2.838-2.128 1.766-.855-.713-.477-3.443-.533-4.515-.197-3.762-.286-7.533-.141-11.299.329-8.552 1.901-17.145 6.373-24.551.258-.427-2.291-.014-2.645.368-1.766 1.907-3.608 3.892-4.712 6.261a51.4 51.4 0 0 0-2.974 8.192c-1.525 5.591-2.201 11.399-2.244 17.187-.022 2.93.125 5.861.416 8.777.13 1.303-.024 1.711-1.377 1.855-1.562.166-1.099-1.307-1.204-2.561-.582-6.941-.302-13.934 1.047-20.774.131-.662-2.479-.026-2.76.504a43.2 43.2 0 0 0-3.79 9.862c.793-6.688 2.272-13.28 4.653-19.566-4.307 7.369-6.63 16.649-6.956 25.863-1.279-7.953-1.569-15.918 1.783-23.635-6.165 8.788-5.001 20.104-1.684 29.985q.126 1.914.371 3.79c-1.478-3.408-2.701-6.958-3.68-10.375-1.899-6.63-1.985-13.763-1.04-20.558 1.648-11.849 7.733-22.613 16.703-30.484 5.131-4.502 11.294-8.642 17.965-10.364a38 38 0 0 1 5.292-.987c1.751-.195 3.488.025 5.219-.101 1.177-.086 2.253-.673 3.38-.981 1.868-.511 3.804-.739 5.738-.773 10.817-.193 20.902 4.616 29.481 10.786 12.963 9.324 18.751 24.437 19.689 39.935.378 7.575-.601 15.185-3.355 22.28" style="fill:#122a89"/><path d="M147.444 79.647c-6.944-11.926-17.658-17.823-31.246-18.928 5.945 2.06 12.019 3.656 17.255 6.819 5.289 3.083 9.589 7.615 13.991 12.109M127.43 69.276c11.672 7.471 20.645 18.006 26.19 30.705-3.09-13.505-13.347-25.516-26.19-30.705M64.953 88.479C71 77.897 79.885 69.693 90.901 64.483c-11.877 2.755-22.266 12.376-25.948 23.996m37.895-20.544c-.36-4.622.107-8.381 1.553-12.785-3.656 2.922-4.395 9.071-1.553 12.785" style="fill:#122a89"/></svg>