<svg xmlns="http://www.w3.org/2000/svg" xml:space="preserve" viewBox="0 0 215 220"><path d="M164.271 113.379c-.074-3.586-.366-7.222-1.961-10.493-1.204-2.469-2.947-4.623-4.128-7.108-1.413-2.972-1.768-6.378-3.633-9.12-1.726-2.536-4.233-4.536-6.744-6.249-6.189-4.222-13.473-7.18-20.728-8.975-3.287-.813-6.773-1.492-10.171-1.207-3.491.293-6.656 2.177-10.141 2.306-2.285.085-4.494-.683-6.733-1.029-2.077-.321-4.17-.465-6.27-.375-3.32.143-6.566.948-9.605 2.282-2.512 1.102-4.817 2.599-7.288 3.78-3.221 1.539-6.315 2.69-8.883 5.3-2.144 2.18-3.55 4.854-5.179 7.406-1.742 2.728-4.417 4.206-6.475 6.638-4.512 5.334-7.024 13.189-6.297 20.159.278 2.666.629 5.169.446 7.87-.173 2.549-.565 5.096-.516 7.656.058 2.974 1.357 5.185 2.532 7.796 1.268 2.817 4.444 11.794 8.797 9.43 1.424-.404 1.963-1.789 2.255-3.216.079-.389.131-.785.191-1.179.333-2.185.413-4.429.551-6.621.386-6.152.303-13.292 2.989-18.981.441-.933.995-1.97 1.84-2.604.657-.493 1.41-.691 1.994-1.305 1.428-1.501 2.211-3.773 3.13-5.588 2.872-5.675 6.73-12.026 13.363-13.636 2.253-.547 4.534-.324 6.827-.363 2.23-.038 4.434-.242 6.614-.721 4.566-1.004 8.856-3.589 13.653-2.585 2.08.435 4.093 1.163 6.157 1.666 2.938.716 5.95.991 8.719 2.293 3.896 1.832 6.539 5.084 8.647 8.737 1.06 1.838 2.06 3.715 2.649 5.763.456 1.584.601 3.205.916 4.815.599 3.064 2.591 4.677 5.425 5.793 1.217.479 1.854.749 2.45 1.928.598 1.182.882 2.543 1.135 3.833.65 3.314.871 6.705 1.209 10.06.08.796.137 1.686.216 2.597.174 2 .47 4.115 1.449 5.658 1.382 2.18 4.311 1.057 5.727-.546 1.414-1.6 2.119-3.867 3.127-5.721 1.537-2.827 2.828-5.554 3.221-8.789.712-5.867-1.323-11.527-1.477-17.355m-7.851 31.833c-.268.233-.172-.088.07-.074-.026.023-.044.051-.07.074m6.059-11.742c-.742 2.915-2.39 5.385-3.703 8.054-.644 1.309-1.177 2.568-2.227 3.55-.011-.015-.028-.027-.034-.044-.123-.336-.377-.667-.512-1.017-.308-.799-.497-1.657-.649-2.527 3.275-2.902 5.076-7.593 4.349-11.891-1.306 3.791-2.748 7.054-4.572 10.394-.109-.942-.191-1.884-.284-2.785l-.007-.073c2.389-2.589 3.252-6.645 1.912-9.905a113 113 0 0 1-2.127 7.687c-.209-2.216-.417-4.432-.76-6.631-.316-2.032-.678-4.334-1.802-6.114 3.138.297 6.39-.698 8.387-3.164-4.813 2.185-9.729 2.005-14.12-.448-.142-.118-.289-.227-.418-.367-1.705-1.841-1.488-4.841-2.058-7.137-.685-2.76-1.971-5.585-3.671-8.15 6.001-.677 11.583-6.006 11.996-12.06-2.761 5.371-6.986 9.21-12.47 11.361-2.243-3.165-5.144-5.851-8.482-7.306-1.85-.806-3.816-1.319-5.806-1.764 6.184-1.257 10.963-8.246 9.4-14.447-1.043 6.309-4.714 11.316-10.315 14.245-1.148-.246-2.298-.485-3.437-.747 5.632-1.185 9.893-8.033 6.839-13.595.724 6.085-3.247 11.615-8.995 13.052l-.126-.033a30 30 0 0 0-1.378-.359c3.225-1.73 5.506-5.509 4.522-9.12-1.123 4.048-3.489 6.968-6.957 8.675-2.012-.249-4.016-.184-6.134.329-4.217 1.021-7.992 2.782-12.396 3.006-3.781.192-7.344-.212-10.981 1.084-4.21 1.5-7.454 4.516-10.015 8.058-5.038.092-9.273-2.129-12.151-6.489.445 5.258 6.62 8.833 11.513 7.424a39 39 0 0 0-1.386 2.202c-5.495.575-10.526-1.512-14.184-5.949 1.424 5.576 8.245 8.682 13.585 7.032-.972 1.783-1.845 3.615-2.789 5.413-.342.652-.675 1.421-1.171 1.974-.232.259-.635.352-1.237.738-3.799.57-7.245-.351-10.475-2.784 1.154 3.418 5.278 5.112 8.733 4.4-2.495 3.03-3.119 7.849-3.576 11.432-.405 3.182-.567 6.386-.764 9.586-1.12-3.707-1.871-7.236-2.369-11.276-1.711 4.257-.731 9.549 2.254 13.043-.085 1.22-.2 2.437-.329 3.653-3.391-4.937-5.245-10.268-5.643-16.368-2.047 5.981.449 13.408 5.57 17.114-.019.158-.027.317-.046.475-.103.825-.191 1.703-.457 2.495-.013.039-.122.291-.204.486-.002-.003-.011-.007-.012-.009-.232-.404-.758-.783-1.053-1.173-.949-1.252-1.687-2.675-2.386-4.076-.979-1.961-1.757-4.028-2.782-5.964-2.067-3.905-1.074-8.159-.791-12.386.28-4.192-.831-8.253-.435-12.42.385-4.045 1.614-8.069 3.633-11.598.949-1.658 2.081-3.218 3.468-4.538 1.196-1.137 2.619-1.963 3.71-3.216 1.923-2.209 3.12-4.932 4.833-7.291 2.533-3.488 5.771-4.863 9.526-6.654.79-.377 1.562-.789 2.33-1.208-2.512 2.759-1.595 8.244 2.062 9.565-1.889-3.345-2.254-6.415-1.19-10.042a82 82 0 0 1 2.506-1.335c-2.5 4.333-1.108 10.942 3.461 13.274-2.955-4.233-3.725-9.042-2.273-13.845.132-.06.259-.13.392-.188 3.46-1.518 7.131-2.088 10.896-1.818 4.391.315 8.392 1.965 12.817.969 3.917-.882 7.088-2.299 11.237-1.798 3.601.435 7.154 1.422 10.58 2.591 4.911 1.675 10.207 3.891 14.674 7.002-.635 4.152-2.266 7.518-5.184 10.759 4.12-1.144 6.765-6.006 6.033-10.176 1.605 1.19 3.088 2.502 4.379 3.968 2.427 2.756 2.797 6.03 4.201 9.309 1.106 2.582 2.752 4.794 4.117 7.228 1.867 3.329 2.307 7.101 2.385 10.863.001.037.007.074.008.111-2.525 2.968-6.412 3.99-10.099 2.545 2.456 3.753 8.79 2.476 10.178-1.51.256 3.93 1.185 7.77 1.47 11.701.168 2.329.045 4.676-.534 6.948" style="fill:#122a89"/><path d="M141.642 96.399c4.925-1.472 8.137-7.563 6.59-12.46-1.131 4.941-3.15 8.739-6.59 12.46m-49.308-6.23c-3.253-3.92-4.773-8.056-4.803-13.151-2.662 4.511-.147 11.422 4.803 13.151" style="fill:#122a89"/></svg>