<svg xmlns="http://www.w3.org/2000/svg" xml:space="preserve" viewBox="0 0 215 220"><path d="M153.523 135.367c.037-.328.077-.663.111-.984-.034.321-.074.656-.111.984" style="fill:#122a89"/><path d="M182.114 121.465c-3.49-3.473-6.614-7.615-8.24-12.311-.941-2.72-.879-5.514-.899-8.355-.062-8.836-.68-17.63-3.422-26.093-5.394-16.651-17.932-32.194-35.01-37.483-5.068-1.57-10.599-2.76-15.922-2.595-3.413.106-7.141.457-10.257 2.024-3.664-1.966-8.482-2.293-12.475-1.972-5.748.461-11.439 1.683-16.845 3.699-9.427 3.517-17.178 10.35-23.081 18.414-7.558 10.325-11.75 22.441-12.677 35.188-.317 4.353-.187 8.706-.359 13.062-.202 5.124-2.89 9.733-6.048 13.643-1.063 1.316-2.263 2.475-3.409 3.713-.392.423-1.089 1.055-1.193 1.659-.236 1.368 1.483 1.231 2.415 1.108 2.824-.376 5.771-1.643 8.345-2.819a18.7 18.7 0 0 0 3.943-2.445c-.128 2.099-.535 4.158-1.28 6.152-.534 1.428-1.545 2.748-2.006 4.176-.856 2.656 5.176.215 6.207-.341a11.4 11.4 0 0 0 2.206-1.545c.316 2.179.733 4.347 1.141 6.489.399 2.093.844 4.539 1.156 7.11-1.193 2.978-.777 6.153.233 9.164-.512 5.13-2.41 9.753-7.202 12.103-.074.036-.098.062-.156.095-.034.017-.085.034-.109.051s-.034.033-.057.05c-.059.044-.098.087-.148.13-1.088.947-.163 1.764 1.108 2.297 1.919.806 4.238.745 6.155-.019.395-.158.774-.344 1.148-.539-.601 5.068 1.994 10.46 6.451 13.149-1.105 1.685-2.798 3.005-5.199 3.717-.059.018-.098.041-.152.061-.072.02-.146.032-.215.06-1.215.492-2.043 1.238-.566 2.049 1.908 1.048 4.456 1.165 6.576 1.108 3.868-.104 8.061-1.503 10.43-4.731 3.216-4.383 2.602-9.374.825-14.13-.896-2.399-2.08-4.737-3.232-6.906q.33-.356.664-.711l.631-.669c-.141-.25-.286-.497-.421-.752-.172-.325-.333-.661-.496-.994-.921-1.88-1.706-3.915-2.375-6.197-.112-.382-.225-.76-.331-1.157-.118-.444-.228-.909-.338-1.373a68 68 0 0 1-1.008-5.115c-.047-.294-.087-.574-.132-.863a180 180 0 0 1-.451-3.098 7 7 0 0 0-.939-.272c-.709-.156-1.431-.243-1.982-.32-.224-1.306-.47-2.604-.713-3.902 1.103.756 2.399 1.41 3.644 1.264 1.905-.223 2.107-1.246 1.391-2.774-.623-1.331-1.157-2.542-1.513-3.792.663.186 1.55-.088 2.065-.391 2.202-1.297 3.579-5.436 4.124-7.777.673-2.893.455-5.899.332-8.839-.143-3.417-.264-6.789.319-10.172.578-3.354 1.55-6.64 2.726-9.83 2.632-7.137 6.359-14.131 11.56-19.737 3.454-3.723 7.638-6.088 12.35-7.876 2.881-1.093 5.9-1.992 8.571-3.548 2.318 1.019 4.775 1.724 6.609 3.588 3.306 3.359 3.323 8.993 4.244 13.346 1.587 7.501 3.497 15.239 7.106 22.061 1.101 2.081 2.386 4.121 4.035 5.815 2.1 2.157 4.923 3.27 7.294 5.082 2.707 2.069 4.734 4.597 5.875 7.818.926 2.617 1.449 5.343 2.73 7.83.602 1.168 1.233 2.715 2.739 2.672.768-.022 1.338-.311 1.725-.783-.284 1.743-.954 3.298-1.807 5.108-1.801 3.822 3.028 1.562 5.366.091q-.18.992-.367 1.982c-.201 1.07-.4 2.139-.589 3.208-.404.086-.815.151-1.211.259-.221.06-.569.145-.953.252-.307.086-.632.189-.947.312-.13.928-.27 1.878-.424 2.861-.022.142-.041.278-.064.421a70 70 0 0 1-.881 4.596 54 54 0 0 1-.465 1.892 46 46 0 0 1-.464 1.622 39 39 0 0 1-2.051 5.35 35 35 0 0 1-.687 1.376c-.206.389-.423.768-.642 1.146l.621.677c.296.32.587.644.883.966-1.043 1.924-2.071 3.865-2.894 5.844-1.545 3.716-2.363 7.568-1.171 11.702 1.295 4.491 5.217 7.024 9.758 7.356 2.322.17 4.764-.054 6.986-.766.677-.217 4.074-1.408 2.166-2.181-.036-.014-.087-.011-.129-.019-.017-.009-.011-.024-.036-.032-2.613-.774-4.758-2.173-6.133-4.151 1.879-1.382 3.475-3.268 4.59-5.056 1.348-2.162 2.093-4.608 2.027-7.083 1.874.786 3.915.657 5.847.002 1.043-.353 4.145-1.76 2.362-3.029-.032-.023-.084-.026-.123-.042-.024-.016-.023-.036-.054-.051-4.859-2.383-6.874-7.232-7.469-12.437.487-1.499.833-3.028.908-4.599.065-1.376-.136-3.199-.741-4.744.09-.723.189-1.434.3-2.109.558-3.397 1.304-6.772 1.841-10.174a10.3 10.3 0 0 0 2.709 1.746c1.3.571 7.053 2.013 5.778-1.02-.639-1.52-1.53-2.886-2.078-4.464-.512-1.473-.823-2.979-.996-4.504 3.147 2.409 7.095 4.026 10.88 4.648.97.16 3.037.218 3.598-.861.544-1.043-.802-2.162-1.459-2.816m-127.503 3.67q.561-1.026.975-2.139c.542 2.861 1.54 5.579 3.248 7.853.411 2.348.912 4.693 1.353 7.038-1.233.013-2.356.254-3.33.865-.723-4.541-1.795-9.042-2.246-13.617m1.125 38.325c-.67.623-1.461 1.272-2.274 1.568-.934.34-1.997.138-2.874-.233-.176-.074-1.917-.878-1.269-1.342 3.59-1.856 5.751-4.892 6.953-8.408l.189.397a92 92 0 0 0 1.748 3.353 19 19 0 0 0-1.472 2.21 11.3 11.3 0 0 0-1.001 2.455m15.875 6.375c.809 3.585.768 7.824-1.486 10.91-1.291 1.768-3.191 2.843-5.346 3.175-1.392.215-2.893.155-4.276-.075-.955-.159-2.357-.973-3.173-.666 2.436-.762 4.807-1.908 6.492-3.807.181.068.354.151.539.211.997.321 2.791.533 3.625-.327 1.116-1.151-.948-2.467-1.603-3.416-.169-.245-.294-.496-.438-.744.39-1.893.275-3.899-.114-5.788a21 21 0 0 0-.656-2.368 12.4 12.4 0 0 1 1.314-2.641 26 26 0 0 1 1.782-2.369c1.422 2.558 2.718 5.147 3.34 7.905m-6.018-16.371.013-.013c.095-.1.182-.204.275-.305.085.248.164.507.252.75.444 1.23.927 2.393 1.452 3.506q.396.84.823 1.643l-.017.019c-.358.388-.714.782-1.073 1.172-.361.392-.723.781-1.08 1.18a28 28 0 0 0-2.174 2.715c-.325.469-.62.956-.896 1.453a13 13 0 0 0-.864 1.875 10.3 10.3 0 0 0-.511 1.894 9.3 9.3 0 0 0 .479 4.768c.069.183.384.709.792 1.353.301.475.65 1.01.996 1.528l.063.094-.075-.058c-.243-.187-.461-.36-.621-.485-.176-.137-.319-.308-.487-.454a16 16 0 0 1-2.534-2.809c-1.53-2.157-2.567-4.696-2.479-7.374.033-1.02.251-1.963.548-2.872.237-.727.531-1.428.897-2.097q.387-.703.846-1.369.406-.594.856-1.166.71-.898 1.488-1.75a92 92 0 0 1 1.832-1.946c.403-.421.807-.837 1.199-1.252m-2.859-13.706c.075.019.17.037.262.056.13.931.271 1.885.425 2.871a9.7 9.7 0 0 0-.812 2.654 10.4 10.4 0 0 0-.124 1.441c-.01.725.052 1.431.145 2.13a18.4 18.4 0 0 0 .976 3.919l.016.041-.03.031c-.577.608-1.164 1.21-1.752 1.812a80 80 0 0 0-1.771 1.868l-.044-.081c-1.067-1.99-2.045-4.004-2.705-6.11-.467-1.488-.777-3.021-.847-4.623-.052-1.175.072-2.354.428-3.477.075-.238.189-.59.321-.966.291-.828.683-1.79 1.029-2.025.399-.271 1.283-.215 2.18-.063a21 21 0 0 1 1.522.326c.318.078.599.151.781.196m90.637 5.121c-.011-.08-.009-.16-.022-.24a9.1 9.1 0 0 0-.74-2.433l-.001-.002q.234-1.52.43-2.955c.355-.043.706-.07 1.03-.091.483-.031.891-.045 1.051-.049.123-.003.227.008.341.011 1.698.058 2.356.91 3.132 2.574.046.1.07.201.112.3 1.304 3.032 1.005 6.161-.049 9.268-.596 1.756-1.429 3.502-2.336 5.221l-.221-.242a109 109 0 0 0-2.159-2.287l-.482-.501a59 59 0 0 1-1.252-1.353c.311-.828.59-1.668.806-2.531.12-.48.214-.968.291-1.457.168-1.069.212-2.155.069-3.233m2.247-6.71c.468-2.634 1.026-5.257 1.478-7.892 1.545-2.092 2.523-4.517 3.101-7.081.319.917.704 1.795 1.165 2.619-.419 4.176-1.391 8.313-2.112 12.471-.835-.311-1.833-.253-2.703-.212-.309.014-.619.067-.929.095m2.23 45.009c.001.001-.003.004-.002.004 1.122.454-1.843.955-1.526.917-.547.066-1.105.096-1.654.101-1.108.01-2.195-.092-3.271-.36-1.872-.467-3.615-1.408-4.912-2.848-2.134-2.369-2.762-5.687-2.584-8.787.213-3.698 1.615-6.981 3.289-10.175.158.181.323.354.48.537 1.269 1.487 2.431 3.158 3.125 4.962-.848 2.575-1.339 5.396-.815 8.054-.078.125-.14.26-.222.382-.557.835-1.624 1.629-2.022 2.553-.612 1.421.873 1.645 1.959 1.506.711-.091 1.398-.312 2.07-.586 1.503 1.838 3.702 3.012 6.085 3.74m-1.705-10.362c-.801 1.287-1.773 2.485-2.926 3.473-.346.296-.705.578-1.084.832-.045.03-.103.052-.151.08a7 7 0 0 1-.451.239c.122-.155.241-.309.355-.475.266-.388.511-.787.709-1.106.122-.195.219-.391.325-.586 1.549-2.838 1.562-5.651.642-8.298a14 14 0 0 0-.684-1.612c-.21-.424-.434-.843-.684-1.256-.743-1.226-1.65-2.399-2.65-3.502-.331-.365-.664-.722-.996-1.082l-.776-.842-.027-.029c.213-.412.425-.824.626-1.25a40 40 0 0 0 1.452-3.506c.036-.099.068-.206.103-.306l.259.276q.429.462.865.921c.209.22.411.442.621.662.569.593 1.146 1.188 1.707 1.797a32 32 0 0 1 1.547 1.793q.333.421.643.857.362.507.686 1.04c.495.814.922 1.671 1.228 2.599.025.075.037.15.06.224.96 3.136.323 6.291-1.399 9.057m10.253-8.911c.003.002 0 .005.003.007 1.109.789-1.952 1.24-2.556 1.1-.678-.158-1.266-.502-1.852-.869-.6-.375-1.157-.811-1.687-1.279-.009-.027-.012-.054-.021-.08-.565-1.707-1.479-3.202-2.549-4.593a104 104 0 0 0 1.696-3.2c1.103 3.733 3.221 7.005 6.966 8.914m10.95-41.554c-3.369-1.245-6.14-2.831-8.499-5.587-.549-.641-2.682.06-2.708.898-.125 3.974.715 7.751 2.542 11.278.058.112.117.235.175.355-.078-.023-.153-.045-.208-.07a8.8 8.8 0 0 1-2.251-1.442c-4.461-3.898-4.524-10.318-5.549-15.693-.161-.844-2.853-.153-2.801.751.345 6.013.063 12.916-3.814 17.865-.573.731-1.217 1.4-1.944 1.979-.298.237-.728.435-1.084.667.402-.643.737-1.652 1.005-2.212a10.7 10.7 0 0 0 1.001-3.441c.382-3.323-.239-7.384-2.178-10.179-.445-.642-2.529.058-2.701.724-.316 1.222-.361 2.53-.397 3.785a34 34 0 0 0 .006 1.896 34 34 0 0 1-1.077-3.175c-.631-2.147-1.233-4.282-2.403-6.211-1.543-2.546-3.811-4.508-6.278-6.131-1.887-1.241-3.889-2.159-5.495-3.778-3.154-3.178-5.064-7.517-6.606-11.65-2.59-6.943-4.202-14.25-5.531-21.526-.334-1.83-.731-3.629-1.454-5.252 7.129 7.853 12.522 17.216 15.469 27.432.467 1.538 1.009 3.777 1.386 5.316a70 70 0 0 0-.185-2.76c-1.395-12.622-8.118-24.719-18.214-32.454a9 9 0 0 0-1.535-1.454c-2.02-1.474-4.447-2.093-6.661-3.188-.646-.32-1.709.092-2.232.467-2.252 1.612-5.047 2.398-7.619 3.343-2.875 1.057-5.733 2.217-8.363 3.804-5.128 3.094-9.046 7.795-12.193 12.824-5.779 9.235-9.728 19.929-9.389 30.905.094 3.027.448 6.126.053 9.143a16.3 16.3 0 0 1-.923 3.656c-.24.631-.536 1.238-.839 1.842.051-1.409.183-2.918.18-3.163-.017-1.403-.048-2.881-.402-4.249-.083-.323-.427-.414-.841-.381.155-1.441.115-2.902-.177-4.307-.929-4.338-3.593-7.876-2.947-12.408-2.103 4.061.399 8.801 1.228 12.768.309 1.481.398 2.997.285 4.514a1 1 0 0 0-.239.209c-.111.159-.183.347-.284.514-.481-6.418-6.433-12.057-6.421-18.727-2.225 7.376 4.369 13.286 5.647 20.221-.741 1.798-1.097 3.813-1.198 5.676-.089 1.639.023 3.325.58 4.882.1.28.626 1.155 1.102 2.035-.162-.117-.34-.212-.496-.336a13 13 0 0 1-2.43-2.558c-1.456-2.006-2.337-4.39-2.883-6.791-.8-3.515-.86-7.128-.654-10.711.058-1.007-2.633-.409-2.787.402-.999 5.243-1.037 11.643-5.353 15.477a7.4 7.4 0 0 1-2.071 1.317c-.297.123-.73.167-1.075.278.304-.542.561-1.185.818-1.697 1.756-3.489 2.506-7.233 2.384-11.13-.029-.923-2.418.074-2.692.394-1.676 1.958-3.567 3.408-5.933 4.42-1.158.495-2.351.92-3.539 1.336-.564.197-1.132.404-1.712.552-.463.118-.881.421-.876.042.004-.367.63-.905.865-1.165.834-.926 1.758-1.765 2.579-2.706a37.4 37.4 0 0 0 4.496-6.375c1.734-3.117 2.656-6.192 2.744-9.737.093-3.73.03-7.457.264-11.184.683-10.889 3.628-21.142 9.13-30.554 4.84-8.278 12.003-16.451 20.719-20.776 4.389-2.178 9.188-3.598 14.007-4.423 5.213-.893 12.09-1.603 16.802 1.475.58.379 1.611.165 2.154-.19 3.449-2.253 8.437-2.223 12.363-1.802 4.531.485 9.005 1.464 13.3 2.993 6.628 2.359 12.155 6.233 17.099 11.25 7.2 7.307 12.7 16.609 15.617 26.449 2.357 7.95 2.909 16.164 2.969 24.409.022 3.025-.045 5.963.998 8.85a26 26 0 0 0 1.498 3.364 95 95 0 0 1-9.835-13.326c1.702 6.913 6.25 13.226 12.234 17.141a42 42 0 0 0 4.431 5.16c.123.122.349.454.588.806-.924-.289-1.836-.63-2.742-.965" style="fill:#122a89"/><path d="M121.987 61.694c7.56 7.675 13.248 16.401 17.247 26.404-1.545-10.639-8.134-20.708-17.247-26.404m25.731 33.757c-2.137-10.665-7.269-20.819-14.566-28.882a364 364 0 0 1 14.566 28.882M77.394 45.952c1.436-.817 3.573-1.831 5.063-2.487a70 70 0 0 0-2.755.732l-2.69.983-2.582 1.255C63.424 52.26 55.584 64.148 55.357 76.691c2.419-12.86 10.661-24.323 22.037-30.739" style="fill:#122a89"/><path d="M61.014 68.986c6.599-12.801 17.879-22.359 31.579-26.795-14.325 1.853-27.412 12.969-31.579 26.795" style="fill:#122a89"/><path d="M70.369 61.041c7.72-9.332 18.622-15.047 30.684-16.118-12.062-1.606-25.155 5.282-30.684 16.118m88.427 29.258c-3.745 8.531.912 19.917 9.576 23.359-7.094-5.773-10.587-14.267-9.576-23.359M107.258 53.57c-.36-4.622.107-8.381 1.554-12.785-3.657 2.921-4.396 9.071-1.554 12.785" style="fill:#122a89"/></svg>