<svg xmlns="http://www.w3.org/2000/svg" xml:space="preserve" viewBox="0 0 215 220"><path d="M174.852 158.759c-10.425-5.438-10.752-21.955-9.09-33.527.814-5.666 2.015-11.539 2.688-17.373 3.263-7.963 3.538-18.73 3.102-24.497-.972-12.855-1.015-18.607-11.237-30.959-15.829-19.126-38.724-19.685-43.874-20.391-.13-.019-.259-.045-.389-.064-.326-.069-.424-.081-.226-.037-13.77-1.967-27.498 1.241-34.933 9.664-3.368.827-17.231.911-28.168 18.472-3.652 5.864-6.553 15.941-7.61 28.648-.511 6.149-.325 18.04 3.35 25.949.582 3.569 1.228 7.117 1.727 10.586 1.662 11.572 1.335 28.089-9.09 33.527-1.658.865.42 2.262 1.215 2.633 1.599.747 4.002 1.121 5.613.28a16.3 16.3 0 0 0 3.161-2.176c-1.138 4.994-.138 10.656 4.936 16.811 1.022 1.24 3.003 2.912 4.809 3.833-1.544 2.476-4.039 4.496-7.886 5.696-2.088.651.935 1.862 2.064 2.192 2.272.663 5.508.784 7.593.416 9.697-1.711 14.246-9.812 13.786-22.43-5.356-6.105-8.85-12.209-10.658-23.6-.702-4.426-1.153-8.243-1.449-11.742 1.766.61 3.269.024 2.876-.715-2.804-5.278-3.872-21.724 2.188-37.167 4.509-11.49 11.795-17.896 16.431-20.415 8.488 15.326 18.457 27.572 31.532 33.064.98.412 6.642 1.709 7.309.897 4.885 3.73 9.817 6.713 14.806 8.752.836.342 4.203 1.082 6.366 1.127 3.241 3.744 5.222 7.709 3.837 13.393-.176.722.707.742 2.13-.103-.29 3.813-.763 7.988-1.544 12.909-1.808 11.391-5.302 17.495-10.658 23.6-.46 12.618 4.089 20.719 13.786 22.43 2.084.368 5.32.247 7.593-.416 1.129-.329 4.152-1.541 2.064-2.192-3.846-1.2-6.342-3.22-7.886-5.696 1.806-.921 3.787-2.593 4.809-3.833 5.074-6.155 6.074-11.816 4.936-16.811a16.3 16.3 0 0 0 3.161 2.176c1.612.841 4.014.467 5.613-.28.797-.369 2.875-1.766 1.217-2.631m-7.938-72.149c.014.302.02.616.031.925-.031-.086-.067-.172-.099-.259q.032-.332.068-.666M61.966 177.883c-4.349-6.219-3.711-11.855-1.289-16.63 1.995 5.417 3.125 11.644 1.289 16.63m54.709-76.431c-13.144-10.565-18.136-17.864-25.346-31.091l.294-.071c10.189 13.998 20.529 26.028 31.093 34.545-1.454-.557-3.581-1.406-6.041-3.383m20.452 8.055c-17.102-12.84-25.497-22.296-37.124-38.093 2.57 1.57 5.65 4.375 9.283 8.965 20.167 25.485 18.751 18.295 31.487 30.707q.862.839 1.696 1.655c-1.483-.688-3.268-1.677-5.342-3.234m16.863 68.376c-1.837-4.986-.707-11.213 1.289-16.63 2.422 4.775 3.059 10.411-1.289 16.63" style="fill:#122a89"/></svg>