<svg xmlns="http://www.w3.org/2000/svg" xml:space="preserve" viewBox="0 0 215 220"><path d="M173.562 112.411c-.083-.906-.207-1.811-.315-2.717-.001-.022.013-.04.011-.062-.027-.254-.076-.505-.106-.758a94 94 0 0 0-.321-2.294 79 79 0 0 0-.4-2.421 96 96 0 0 0-.657-3.306l-.006-.028c-.871-4.049-1.988-8.048-3.41-11.934-1.109-3.402-2.326-6.798-3.917-9.976-4.422-8.834-11.247-16.663-19.249-22.437-6.547-4.724-13.705-7.054-21.596-8.37a41 41 0 0 0-3.116-.388c-3.134-.358-6.283-.411-9.384-.077-1.635-.234-3.475-.967-5.109-1.221a34.3 34.3 0 0 0-7.214-.334c-16.711.95-30.294 13.553-39.584 26.418-5.85 8.102-9.788 17.314-12.563 26.88-3.119 10.754-4.904 22.029-4.211 33.241.564 9.111 2.883 18.1 7.318 26.107 1.332 2.405 2.793 4.783 4.537 6.914 1.004 1.227 2.249 2.686 3.779 3.276 1.266.489 2.328.276 3.1-.347 1.16 1.941 2.533 3.948 4.273 4.989 1.268.759 3.067.456 3.688-.979.352-.815.213-1.854.13-2.709-.2-2.07-.659-4.135-1.068-6.171-1.39-6.935-3.508-13.733-4.645-20.717-1.084-6.663-.501-13.183 1.642-19.584 2.596-7.749 6.79-14.951 10.992-21.926 3.953-6.56 8.115-13.136 13.073-18.992 1.564-1.848 3.269-3.898 5.409-5.102 3.43-1.93 7.216-3.46 10.781-5.133 1.509-.708 3.495-1.978 5.033-2.269.118-.022.246-.026.371-.036 1.527-.118 3.476.662 4.744 1.283 1.429.7 2.736 1.608 3.968 2.62 1.728 1.421 3.303 3.053 4.814 4.658 2.08 2.208 4.103 4.465 6.152 6.698 1.688 1.84 3.392 3.665 5.168 5.425 3.07 3.04 6.365 5.899 9.163 9.201a28.1 28.1 0 0 1 6.129 12.527c.169.814.278 1.624.362 2.433a898 898 0 0 0-.009 4.284v.517c.008 9.047.016 16.86-1.981 29.446-.577 3.637-1.313 6.698-2.236 9.414a40 40 0 0 1-1.567 3.928q.758 2 1.44 4.046c.106.318.22.631.324.951.648 2.01.816 4.513 3.43 3.88 2.573-.622 4.223-3.416 5.445-6.03.551.603 1.177 1.099 1.91 1.229 1.256.224 2.743-.413 3.538-1.366 1.491-1.784 2.192-4.506 3.123-6.594 1.146-2.571 2.291-5.134 3.286-7.768 4.61-12.194 6.726-25.301 5.531-38.319m-5.011 28.394c-1.364 5.438-3.241 10.739-5.514 15.862-1.151 2.594-2.169 5.309-3.493 7.821-.03.057-.086.138-.15.227-.165-.13-.335-.255-.434-.359-.572-.6-1.065-1.283-1.563-1.944-.426-.566-2.519.039-2.781.625a50 50 0 0 1-1.793 3.598c-.46.839-.938 1.677-1.487 2.462-.067.095-.149.186-.226.278-.205-.825-.686-1.747-.928-2.495a197 197 0 0 0-1.374-4.097c.358-.816.702-1.651 1.02-2.529q.333-.922.637-1.896c.406-1.3.774-2.674 1.106-4.139q.25-1.098.472-2.267.223-1.17.421-2.415c.254-1.602.477-3.129.671-4.591a163 163 0 0 0 .701-6.185 141 141 0 0 0 .488-7.315 170 170 0 0 0 .135-5.102l.001-.18c.368-.882.696-1.773.964-2.677 4.86-8.723 5.942-19.749 2.739-29.176.75 8.018.185 15.83-1.679 23.491.8-9.218-2.527-18.885-7.292-26.597 3.908 10.788 7.263 21.958 5.276 33.358l.006-1.069-.08.062c-.058-2.933.168-5.857-.136-8.793-.444-4.287-1.782-8.468-3.995-12.172-4.121-6.898-11.092-11.944-16.492-17.782-5.16-5.577-10.441-13.3-17.93-15.906a14.3 14.3 0 0 0-4.363-.775c-1.794-.039-3.456.945-5.059 1.669-3.933 1.776-7.778 3.741-11.693 5.555-5.042 2.336-8.442 7.028-11.658 11.404-4.604 6.263-8.724 12.901-12.569 19.652-3.909 6.864-7.664 14.057-9.421 21.816.721-8.311 2.139-16.511 4.487-24.619-6.046 12.074-7.587 26.278-5.082 39.473-.001-.407.011-.812.013-1.218q.3 2.517.823 5.025c.806 3.866 1.83 7.684 2.732 11.528a186 186 0 0 1 1.457 6.725c.367 1.872.885 3.87.956 5.808a23 23 0 0 1-1.474-1.86 52 52 0 0 1-2.396-3.676c-3.921-8.138-4.68-17.651-6.094-26.596-1.06 7.82-.29 18.468 4.033 26.07-.476.197-.861.516-.869.898-.003.142-.15.805-.204 1.233-.98-1.219-2.353-2.173-3.332-3.472-2.396-3.176-4.379-6.721-5.967-10.366-3.095-7.105-4.672-14.821-5.006-22.548-.448-10.375 1.265-20.809 4.083-30.772C51.719 91.08 55.199 82.5 60.312 74.91c8.232-12.22 20.783-25.019 36.235-26.807a30.8 30.8 0 0 1 10.28.534c1.283.29 2.614.945 3.899 1.101 1.253.151 2.705-.423 3.997-.464 1.857-.059 3.728.116 5.568.352 7.221.926 14.275 2.84 20.433 6.808 8.724 5.622 16.251 13.951 20.916 23.233 2.064 4.107 3.481 8.589 4.87 12.961 1.841 5.793 3.293 11.705 3.946 17.756.023.217.163.35.343.445l-.247.192c1.05 9.985.42 20.134-2.001 29.784" style="fill:#122a89"/><path d="M114.293 64.282c13.154 2.289 21.36 12.94 29.839 22.273-6.28-10.719-16.249-22.575-29.839-22.273" style="fill:#122a89"/><path d="M112.29 60.503c11.312 1.38 20.297 7.933 29.74 13.776-7.753-7.729-18.265-14.931-29.74-13.776m46.938 60.094c4.145-4.393 5.973-11.031 4.684-16.929-1.204 5.947-2.669 11.207-4.684 16.929M75.011 80.24c7.618-10.696 19.178-17.642 32.192-19.375-13.158-.944-26.859 7.313-32.192 19.375m3.129-15.958c7.286-6.009 15.85-9.329 25.279-9.832-9.23-2.127-19.907 2.035-25.279 9.832" style="fill:#122a89"/><path d="M100.079 57.419c-7.332-.168-14.844 3.49-19.251 9.348 6.144-4.049 12.272-7.014 19.251-9.348m9.645 7.234c-.36-4.622.107-8.381 1.553-12.785-3.656 2.922-4.394 9.072-1.553 12.785" style="fill:#122a89"/></svg>