<svg xmlns="http://www.w3.org/2000/svg" xml:space="preserve" viewBox="0 0 215 220"><path d="M170.411 140.081c1.461-9.885 1.667-18.498-2.128-39.749-2.879-16.122-5.158-22.199-10.169-30.425-5.707-9.37-14.213-16.848-20.668-21.273-3.375-2.313-16.953-8.347-29.325-6.411-12.403-1.987-26.056 4.091-29.441 6.411-6.455 4.425-14.96 11.903-20.668 21.273-5.01 8.226-7.29 14.303-10.169 30.425-3.795 21.252-3.589 29.864-2.128 39.749 3.565 24.118-1.937 21.753-2.63 32.341-.181 2.763 8.135-.25 16.481 3.615 6.936 3.212 12.867 2.382 13.352.24.86-3.802 1.274-7.94 1.272-12.421-4.122-5.316-6.903-11.189-8.449-20.932-1.632-10.283-1.932-17.332-1.983-24.55l.007.01c.053-.898.015-1.989-.018-3.244l.001-3.948c.124-3.223.656-7.047 2.48-11.225 2.448-5.605 7.335-10.717 13.005-16.488-3.001 8.286-2.552 14.082-1.676 13.505 1.082-1.156 2.322-2.071 4.24-3.685 1.445-1.216 7.08-5.526 5.854-3.558-.726 1.165-1.295 6.12.544 3.572 2.493-3.453 4.018-5.725 9.895-7.638-1.163 4.315-3.852 8.175-7.738 11.015-1.221.893 3.509-.235 4.88-.969 7.514-4.023 10.656-6.458 15.503-12.94-.886 4.052-3.223 7.753-6.832 10.489-1.207.915 2.792.5 4.183-.203 4.393-2.223 5.425-3.216 7.883-7.084l-.188 8.892c-.024 1.155 2.674-1.104 3.321-2.282 2.371-4.312 8.166-6.344 10.61-10.361 0 0-.014 1.465-.115 3.749-.101 2.285-2.744 3.607-1.754 3.811 1.361.28 3.665-.732 5.87-2.357a105 105 0 0 0 2.795 3.852c20.578 26.831 10.3 39.422 7.245 55.201-1.211 6.253-1.798 11.94-1.817 17.156-.016 4.564.4 8.771 1.273 12.633.485 2.142 6.416 2.973 13.352-.24 8.346-3.865 16.662-.852 16.481-3.615-.694-10.588-6.196-8.223-2.631-32.341" style="fill:#122a89"/></svg>