<svg xmlns="http://www.w3.org/2000/svg" xml:space="preserve" viewBox="0 0 215 220"><path d="M146.564 43.986c-8.157-7.077-18.939-11.529-36.191-11.434-12.514.069-22.169 6.135-22.169 6.135-11.664-.072-22.746 7.37-31.423 20.857-8.475 13.174-9.687 17.874-11.34 29.274-1.705 11.754.787 13.009 1.978 23.158.566 4.825.63 7.136-1.009 15.104-.16.777 2.038-.206 4.732-2.319.955 16.121 6.056 30.378 6.792 43.147.965 16.755 1.652 8.308 4.211 4.361 0 0 .987 5.149 3.133 9.05 2.46 4.471 6.108 7.645 5.879 5.381-.812-8.028.965-14.972 4.835-22.552.051-.1.091-.193.141-.292-5.187-5.992-8.588-12.079-10.362-23.256-1.542-9.715-1.894-16.543-1.972-23.356 1.485 2.998 2.945 5.302 3.153 3.224 1.024-10.232 5.113-14.315 10.866-22.415 3.355-4.724 7.09-11.513 10.928-17.555-.398.718-.787 1.44-1.15 2.172-3.778 7.624-6.53 18.701-1.747 28.486.749 1.532 2.283 2.685 3.432 3.108.571.21 2.174.461 1.403-1.115-4.843-9.91-.797-21.576 3.169-28.636 2.839-5.053 6.289-9.926 8.425-15.775a74.5 74.5 0 0 1 9.307 9.736c3.941 4.965 7.149 10.741 10.689 16.197 5.276 8.131 12.429 14.978 21.227 12.539 1.433 2.452 3.149 4.87 5.755 7.304 1.103 1.03 2.083 1.695 2.976 2.121-.064 7.017-.39 13.961-1.978 23.966-1.774 11.178-5.174 17.264-10.361 23.256.05.099.09.192.141.292 3.871 7.58 5.648 14.523 4.835 22.552-.229 2.265 3.419-.91 5.879-5.381 2.146-3.9 3.133-9.05 3.133-9.05 2.56 3.948 3.247 12.395 4.211-4.361.777-13.494 6.452-28.641 6.932-45.903 1.289 1.884 4.141 6.779 4.092 3.565-.241-15.656 2.165-17.191 3.223-29.223 1.733-19.699-9.074-37.873-25.775-52.362m-21.078 41.063c-.52-.854-1.054-1.679-1.585-2.511 4.241 3.993 7.775 6.758 11.197 10.805 2.225 2.631 3.726 5.14 5.038 7.578-6.065-2.378-10.92-9.741-14.65-15.872" style="fill:#122a89"/></svg>