<svg xmlns="http://www.w3.org/2000/svg" xml:space="preserve" viewBox="0 0 215 220"><path d="M175.402 66.204c1.311-1.804 1.87-4.903 1.815-7.092-.027-1.088-.464-4.041-1.812-2.185-1.656 2.28-3.539 3.954-5.558 5.161.678-7.138-.857-15.23-7.836-20.246-8.904-6.4-20.643-6.014-29.842-2.551-4.761 1.792-8.853 4.402-12.577 7.391-4.607-.464-8.977-2.849-11.134-9.096-.572-1.657-1.317.512-1.505 1.334-.379 1.656-.509 4.116.048 5.727a19 19 0 0 0 1.414 3.152c-1.888.272-3.755.732-5.558 1.458l-.009.003c-5.909-.545-13.668 1.556-16.909 3.148-16.45 8.078-25.638 20.613-29.191 33.508-1.603 5.818-3.323 18.291.489 28.913 1.676 4.67 4.462 16.077 6.929 15.792.055-.018.093-.056.142-.082 1.405-.724.361-4.506-.156-7.964-.202-1.351-.324-2.652-.181-3.694.028-.203.112-.451.177-.684.807-2.87 4.354-7.929 8.872-14.023 1.807 1.491 4.109 2.382 6.908 2.316 1.235-.029 2.824-.704 3.654-1.796 1.687 1.163 3.74 1.853 6.183 1.796 1.491-.035 3.498-1.012 4.058-2.528.522.49 1.058.966 1.627 1.394 1.168.879 3.727.006 4.921-.429.475-.173 3.358-1.363 2.276-2.177-4.793-3.607-7.853-9.714-7.865-15.72-.007-3.556.983-7.574 2.974-10.813.784-.477 1.6-.914 2.437-1.328-2.058 4.402-2.863 9.534-2.593 14.202.391 6.755 3.697 13.845 9.782 17.251 1.681.941 3.937.621 5.466-.503.577-.424 1.11-1.134 1.29-1.856.183.284.362.572.548.852 1.415 2.129 8.527-.711 7.639-2.047-3.293-4.956-6.187-10.4-6.846-16.404-.299-2.727-.175-5.821.624-8.647q.88.722 1.803 1.526c-2.499 9.775.259 21.541 9.756 26.366 1.619.822 3.963.239 5.418-.685a3.9 3.9 0 0 0 1.057-1.002c.823.619 1.689 1.2 2.647 1.687 1.619.822 3.963.239 5.418-.685.149-.095.299-.21.446-.336 3.645 4.258 5.492 6.997 6.26 8.82 3.622 8.594-.779 22.87 2.875 17.684.238-.338.462-.672.692-1.008 6.72-9.797 10.035-18.638 9.296-31.699-.256-4.521-.819-8.638-1.771-12.548 3.712 4.244 6.071 9.23 4.574 14.403-.423 1.46 1.555.894 2.216.595 1.33-.603 2.892-1.89 3.303-3.309 1.584-5.473-.558-10.708-4.178-15.184 2.785 2.125 4.895 4.983 5.767 8.921.355 1.604 1.277 1.312 2.096.036.992-1.545 1.166-4.283.81-5.892-1.192-5.381-4.212-9.158-8.166-11.817l.104-.191c3.251-1.356 6.289-3.655 8.876-7.215M78.78 99.709c-.464-.455-.879-1.012-1.237-1.6l.957-1.287a16 16 0 0 0 1.472 3.768 5.7 5.7 0 0 1-1.192-.881m11.651 1.141c.32-.008-.271-.071-.453-.156-.448-.211-.979-.61-1.361-.984-.842-.825-1.541-1.975-1.984-3.062-1.227-3.009-1.171-6.285-.41-9.405.061-.252.16-.481.232-.727.344-.411.689-.828 1.03-1.222a24 24 0 0 0-.315 2.747c-.229 4.528 1.314 9.119 3.988 12.845a6 6 0 0 0-.727-.036m14.856-13.109c-.281-4.929.805-11.009 3.92-15.064q.897.6 1.739 1.182c-2.781 3.828-3.513 9.056-3.187 13.655.36 5.08 2.374 9.779 4.934 14.125-4.604-2.936-7.102-8.561-7.406-13.898m19.362-2.138q.732.726 1.519 1.518c.127 3.833 1.041 7.62 2.838 10.888-2.763-3.364-4.178-7.867-4.357-12.406m28.566-26.512c-1.331.806-3.004 1.195-4.65 1.368-1.3.136-2.581.101-3.851-.013-2.278-1.871-4.661-3.431-7.365-5.284-.605-.415-1.558-.983-2.734-1.612a26.7 26.7 0 0 1 11.411.839c1.702.51 3.41 1.169 4.951 2.032.908.509 1.9 1.141 2.545 1.906.058.069.142.22.228.365a5 5 0 0 1-.535.399m9.819 5.322a23 23 0 0 1-4.991.112c2.18-2.848 3.529-6.808 2.657-10.508.788 1.083 1.445 2.244 1.811 3.537.601 2.128.811 4.546.523 6.859m-9.955 82.127c-.829-2.904-1.1-5.868-.885-8.856.008-.114-.06-.194-.184-.247a162 162 0 0 1-1.386 11.019c-1.377 8.678-3.737 14.282-7.148 19.161-.663 4.892-.187 6.981 2.828 9.889 1.206 1.163 2.772 2.219 5.268 2.82 1.795.432 3.201-.264 2.262-.596-5.901-2.09-6.364-10.438-5.149-16.22.682-3.247 1.666-6.657 2.141-9.968.04.084.074.169.115.253 1.906 3.946 4.108 9.342-1.293 12.88-.73.478-.358.744.49.758 1.026.017 2.462-.519 3.194-.999 5.15-3.373 4.777-8.084 3.006-12.163-1.12-2.579-2.5-5.076-3.259-7.731m-80.413 20.167c-3.078-4.671-5.232-10.109-6.525-18.251-.483-3.046-.846-5.8-1.124-8.367-.282.037-.458.132-.446.31.215 2.989-.056 5.952-.885 8.856-.758 2.656-2.139 5.153-3.258 7.731-1.771 4.079-2.143 8.791 3.006 12.163.732.48 2.168 1.016 3.194.999.848-.014 1.22-.28.49-.758-5.402-3.538-3.199-8.934-1.293-12.88.041-.084.075-.169.115-.253.475 3.311 1.459 6.721 2.141 9.968 1.215 5.782.752 14.13-5.149 16.22-.939.332.467 1.028 2.262.596 2.496-.601 4.062-1.657 5.268-2.819 3.294-3.177 3.573-5.333 2.63-11.285a43 43 0 0 0-.426-2.23" style="fill:#122a89"/></svg>