<svg xmlns="http://www.w3.org/2000/svg" xml:space="preserve" viewBox="0 0 215 220"><path d="M66.382 164.891c.757 1.457 1.201 3.079 1.146 4.781.457-1.656.181-3.462-.349-5.109-1.533-4.667-6.044-8.464-6.502-13.277-.688-6.447 4.127-13.167 2.091-19.749.598 7.062-4.535 12.732-3.836 19.948.569 5.4 5.187 8.833 7.45 13.406" style="fill:#122a89"/><path d="M71.485 162.419c2.163 5.104 2.135 11.432-1.698 15.706-1.205 1.445-2.802 2.563-4.633 3.241 1.941-.292 3.754-1.305 5.251-2.641 4.649-4.244 5.091-11.462 2.708-16.966-2.91-7.374-10.494-11.992-10.873-20.255-1.122 8.146 6.565 14.047 9.245 20.915" style="fill:#122a89"/><path d="M172.147 167.376c-.761-4.255.938-8.754 2.199-12.747 1.362-4.315 2.773-8.742 2.558-13.323-.234-4.989-3.007-9.486-4.308-14.252-2.166-7.935-1.544-16.071-2.071-24.191-.698-10.732-2.602-22.104-6.387-32.211-3.648-9.741-10.044-18.115-17.78-24.992-2.968-2.639-6.115-5.357-9.64-7.227-3.678-1.951-7.683-3.373-11.714-4.384-5.084-1.275-10.422-1.913-15.649-1.289-.237.028-.495.08-.761.14-4.813-.751-9.793-.392-14.581.612-7.51 1.425-14.403 4.485-20.72 8.936-7.077 4.986-12.288 11.67-16.454 19.192l-.044.081a63 63 0 0 0-4.04 7.944c-2.097 4.595-3.78 9.322-4.807 14.402-.875 4.325-1.395 8.708-1.72 13.106a116 116 0 0 0-.665 7.672c-.319 6.183.044 12.429-1.046 18.552-.682 3.832-1.881 7.542-3.351 11.141-1.406 3.443-2.155 6.634-1.79 10.38.69 7.082 4.836 13.644 4.831 20.789-.002 3.576-2.213 5.868-3.111 9.153-.825 3.021-.147 6.215 2.099 8.451 4.53 4.509 12.788 4.64 18.696 3.767 6.377-.943 12.97-3.611 17.104-8.756 2.303-2.866 3.99-6.586 4.125-10.293.064-1.743-.221-3.481-.947-5.129a77 77 0 0 1-3.503-3.565 78 78 0 0 1-2.369-2.664c-5.103-6.03-8.019-11.823-9.674-22.247-1.896-11.95-1.985-19.599-1.982-28.087.181-3.795.348-7.419 1.566-11.124 1.833-5.576 5.141-10.107 9.066-14.399 4.001-4.375 8.235-8.538 12.329-12.827.316-.331.638-.659.952-.992 2.515-2.664 5.247-5.865 8.558-7.732a13 13 0 0 1 1.926-.915c.107-.039.234-.084.371-.13 1.057-.359 2.879-.869 3.77-.529.677.258 1.542 1.481 2.107 1.973a61 61 0 0 0 3.297 2.657 98.5 98.5 0 0 0 12.596 8.079c3.718 1.998 7.724 3.559 10.542 6.85 3.764 4.396 5.166 10.977 6.565 16.462 2.103 8.241 3.119 16.744 1.923 25.207-.79 5.591-2.618 10.962-3.476 16.535a35.2 35.2 0 0 0-.31 8.308c.333 3.964 1.828 7.805 1.061 11.812-.582 3.042-2.546 5.375-3.68 8.185-1.347 3.341-.794 6.787.526 10.057 3.272 8.109 11.578 12.248 19.863 13.332 6.865.898 18.666.293 20.955-7.919.522-1.874.314-3.881-.348-5.692-.783-2.144-2.247-3.869-2.657-6.159m-5.706 17.212c-3.952 1.166-8.29 1.17-12.33.494-8.724-1.461-17.333-7.261-18.248-16.747-.294-3.044 1.102-5.423 2.508-7.986 1.637-2.986 2.41-6.031 2.107-9.457-.305-3.45-1.339-6.719-1.349-10.215-.008-2.62.331-5.22.847-7.785 1.122-5.57 2.805-10.987 3.353-16.667.826-8.543-.515-17.127-2.793-25.354-1.399-5.05-2.75-10.748-6.235-14.817-2.722-3.178-6.433-4.856-10.069-6.736-4.142-2.141-8.113-4.67-11.899-7.387-1.895-1.361-3.77-2.779-5.482-4.368-.573-.532-1.147-1.406-1.881-1.701-.712-.286-1.916-.073-2.664-.015-8.738.676-14.542 8.954-20.127 14.727-7.636 7.894-16.123 15.303-19.203 26.237-.965 3.425-1.023 6.792-1.184 10.285l-.266-.114c-.515-12.215 2.231-24.95 9.78-34.688 1.196-1.516 2.589-2.865 4.083-4.135-1.724.944-3.272 2.194-4.719 3.553-8.814 9.258-11.969 23.266-9.618 35.723-4.285-4.389-4.011-11.417-3.651-17.198.218-2.242.532-4.489 1.01-6.754-3.526 6.969-4.756 17.167.896 23.409.618.676 1.299.965 1.892 1.341.087.419.196.831.296 1.246.004.748.002 1.502.012 2.251a191 191 0 0 0 .135 5.102 146 146 0 0 0 .488 7.315q.09.972.197 1.98c.143 1.345.309 2.743.504 4.205.194 1.462.417 2.988.671 4.591a78 78 0 0 0 .421 2.415q.223 1.17.472 2.267c.332 1.465.7 2.839 1.106 4.139q.304.974.637 1.896c.444 1.23.927 2.393 1.452 3.506a38 38 0 0 0 1.701 3.206 42 42 0 0 0 1.963 3.004q.524.733 1.085 1.456a61 61 0 0 0 2.385 2.882 96 96 0 0 0 2.684 2.923c.773.81 1.555 1.586 2.342 2.346 1.13 4.009.069 8.179-2.45 11.805-3.634 5.228-10.083 7.837-16.22 8.536-5.396.615-14.257.411-16.9-5.406-1.486-3.27.075-6.177 1.578-9.059 1.196-2.294 1.434-4.834 1.171-7.376-.647-6.236-3.726-11.946-4.612-18.147-.516-3.617-.016-6.832 1.37-10.186 1.265-3.06 2.365-6.205 3.129-9.43 1.066-4.5 1.265-9.056 1.363-13.644 1.206-7.506 1.197-15.262 3.431-22.537 2.437-7.178 5.783-14.398 10.436-20.466-5.832 5.12-9.709 12.632-12.099 19.978-.084.286-.139.576-.216.863.739-5.755 1.975-11.454 4.168-16.78 3.203-7.779 7.492-15.835 13.047-22.195 5.558-6.364 13.287-11.68 21.402-14.138 4.223-1.279 8.777-2.321 13.216-2.127 1.799.079 3.35.769 5.118.401 3.192-.665 6.458-.747 9.698-.442 8.338.784 16.548 3.662 23.197 8.77 8.371 6.431 15.76 14.622 20.202 24.271 4.283 9.303 6.162 19.951 7.394 30.047 1.011 8.286.239 16.722 1.521 24.965.702 4.513 2.142 8.837 3.878 13.049 1.857 4.505 1.763 8.84.604 13.533-1.094 4.428-2.917 8.678-3.708 13.181-.302 1.721-.428 3.488-.192 5.226.305 2.249 1.471 3.795 2.388 5.79 2.286 4.977-.027 9.609-5.223 11.143" style="fill:#122a89"/><path d="M110.391 43.207c3.074.053 5.831 1.284 8.583 2.469 8.307 3.649 15.598 8.845 22.211 15.143-5.79-8.88-19.81-18.875-30.794-17.612m-4.897-4.994c12.848.689 24.875 4.97 35.285 12.528-8.688-9.485-22.564-14.401-35.285-12.528m39.473 125.784c2.871-6.137 4.624-14.168.476-20.168 1.981 4.812 1.528 10.062-.171 14.806-1.2 3.18-3.241 6.617-2.569 10.256.656 5.503 5.763 9.846 11.066 10.149-6.501-1.679-11.346-8.582-8.802-15.043m14.457.076c-1.041-4.961 2.084-8.655 4.897-12.459 6.657-8.888-.706-19.486-5.314-27.418 3.111 8.234 10.089 18.04 3.861 26.431-2.858 3.753-6.328 8.617-4.769 13.717 1.099 5.001 5.025 8.562 9.067 11.273-3.532-3.233-7.032-6.89-7.742-11.544" style="fill:#122a89"/><path d="M149.57 145.127c.921 1.202 1.154 2.567 1.292 3.942.354 4.316-.519 8.275-2.228 12.378 4.204-3.421 6.081-13.019.936-16.32m-46.715-95.093c-.36-4.622.107-8.381 1.553-12.785-3.656 2.922-4.395 9.072-1.553 12.785" style="fill:#122a89"/></svg>