<svg xmlns="http://www.w3.org/2000/svg" xml:space="preserve" viewBox="0 0 215 220"><path d="M167.801 108.144c-2.427-14.266-4.66-22.199-9.671-30.425-5.707-9.37-14.213-16.848-20.668-21.273-3.373-2.312-16.937-8.341-29.304-6.415-12.394-1.97-26.025 4.097-29.407 6.415-6.455 4.425-14.96 11.903-20.668 21.273-5.01 8.226-7.244 16.158-9.671 30.425-3.62 21.282-9.191 27.467-6.474 44.053 1.723 10.517 21.347 20.84 30.848 17.531-3.348-4.84-5.67-10.415-7.031-18.993-1.632-10.283-1.932-17.332-1.983-24.55l.007.01c.053-.898.015-1.989-.018-3.244l.001-3.948c.124-3.223.656-7.047 2.48-11.225 1.415-3.241 3.652-6.316 6.377-9.448 1.627 4.234 5.486 7.206 10.655 7.562 1.81.125 4.972-.265 6.663-1.477.964.898 1.99 1.76 3.147 2.535 2.527 1.69 7.733-.29 8.947-2.708a21 21 0 0 0 4.296 2.916c2.275 1.159 5.251 1.067 7.304-.615.344-.282.691-.667.989-1.102.184.24.361.489.548.725 2.734 3.435 10.557.546 9.968-3.151a22.2 22.2 0 0 0 4.837 3.041c1.729.793 6.267-.635 8.199-2.209 12.068 35.062 11.161 41.828 7.534 60.218-.078.396.026.729.256 1.012 2.691 3.325 24.875-1.05 28.312-12.88 4.214-14.497-2.853-22.771-6.473-44.053M82.432 88.045l.476-.487c-.276 4.513.975 9.096 3.729 13.078-4.142-2.198-5.121-7.964-4.205-12.591m14.354-10.103c-2.744 6.341-2.705 13.646.199 19.676-4.914-5.84-5.666-14.031-.199-19.676m11.212-1.542c.198.159.389.317.593.477-3.384 6.804-2.009 14.523 1.532 21.482-5.871-5.676-6.76-14.981-2.125-21.959m9.758 13.719c-.925-2.556-1.421-5.172-1.114-7.637q.61.384 1.209.75a21 21 0 0 0-.095 6.887m10.434-1.237c3.348 1.976 6.384 4.676 8.333 10.217.225.64.436 1.248.653 1.871-4.962-2.647-7.972-7.103-8.986-12.088" style="fill:#122a89"/></svg>