<svg xmlns="http://www.w3.org/2000/svg" xml:space="preserve" viewBox="0 0 215 220"><path d="M167.57 108.187c-2.868-1.961-7.635-11.581-9.427-14.442-2.557-4.082-4.41-5.997-7.347-8.145-1.446-1.397-3.007-2.551-4.699-3.302-2.724-1.208.202-1.087-3.466-4.854-5.7-5.853-19.745-8.399-27.244-6.905-14.67 2.923-16.327-1.169-29.548-.829l-.022.002c-.434-.019-.89-.031-1.377-.035-2.598-.022-10.811.743-13.277-.367-1.243-.559-1.388-.301.664 1.957.674.741 2.454 1.886 3.853 2.662-6.836.406-11.432 4.527-11.432 4.527-.988.842-3.363 3.526-3.932 4.795-1.245 2.773-1.026 2.975-.019 2.064 1.307-1.182 5.195-2.349 8.423-3.244-.505.376-1.039.744-1.621 1.095-4.066 2.455-5.737 9.185-9.753 12.875-1.82 1.671-2.883 5.132-3.379 9.46-.443 1.307-.758 2.762-1.014 4.706-.34 2.576-.584 10.82-1.986 13.133-.707 1.166-.468 1.341 2.023-.419.326-.23.74-.636 1.177-1.112.995 9.412 3.226 18.351 5.57 21.18.952 1.149-.078 9.595 2.506 6.605 0-3.807.565-8.34 1.619-11.622.343-1.07.737-2.01 1.182-2.745 3.733-6.169 1.114-14.3 6.844-20.325 2.373-2.495 4.899-4.871 7.63-7.004-.556 1.469-.66 3.395 1.097 1.943 3.213-2.657 5.19-4.422 12.34-5.311-1.684 3.574-5.158 6.558-9.995 8.506-1.52.612 4.207.252 5.895-.204 9.25-2.499 13.169-4.194 19.401-9.16-1.335 3.383-4.379 6.275-8.877 8.17-1.505.634 3.301.794 5.01.367 5.399-1.349 6.7-2.073 9.9-5.094l-.832 7.652c-.108.994 3.269-.607 4.123-1.539 3.126-3.416 10.187-4.418 13.38-7.569 0 0-.116 1.263-.393 3.222s-3.523 2.759-2.355 3.063c2.149.56 6.468-.655 9.87-2.575a17.6 17.6 0 0 1 3.577 5.291c4.186 9.573 2.316 12.918 7.665 22.015 2.329 3.961 2.348 8.387 2.967 11.326.246 1.168.585 2.108 1.205 2.68 2.009 1.85 2.584-6.507 5.232-12.235 3.811-8.242 3.376-22.052 3.376-25.831 0-1.421-.203-3.201-.593-5.184 1.334.658 2.683 1.227 3.51 1.38 3.816.704 3.994.364 2.549-.624" style="fill:#122a89"/></svg>