<svg xmlns="http://www.w3.org/2000/svg" xml:space="preserve" viewBox="0 0 215 220"><path d="M175.045 148.445c3.185-11.047-7.372-9.723-5.319-35.137.9-11.148 2.639-23.85-8.828-42.853-4.769-7.903-11.621-12.128-23.45-21.613-3.192-2.559-16.896-8.412-29.305-6.428-12.435-2.027-26.205 3.862-29.405 6.428-11.829 9.484-18.681 13.71-23.45 21.613-11.467 19.004-9.728 31.705-8.828 42.853 2.053 25.414-8.504 24.09-5.319 35.137 6.03 20.917-6.117 21.946 4.616 27.461 9.65 4.958 12.545-.596 18.955.629 15.624 2.985 8.908-6.153 6.533-16.799-2.537-4.313-4.359-9.398-5.503-16.604-1.632-10.283-1.932-17.332-1.983-24.55l.007.01c.055-.926.015-2.074-.018-3.38l.001-3.559c.064-1.941.264-4.098.811-6.435 5.376-3.185 10.282-7.317 14.634-11.487 8.226-7.88 15.489-17.12 20.713-27.292.429 2.717 1.168 5.413 1.905 7.994 1.431 5.015 3.208 10 5.538 14.673 4.01 8.042 11.097 12.781 19.895 14.357.69.124 2.324.079 2.174-1.001-.151-1.09-2.059-1.526-2.908-1.678-7-1.254-11.8-6.034-14.703-12.298-2.132-4.6-3.834-9.417-5.174-14.305-.533-1.942-1.091-3.98-1.486-6.038l.46.682c8.84 13.251 16.072 32.09 33.502 35.744.712.149 2.601.48 2.891-.603.277-1.032-1.445-1.809-2.202-1.967-10.204-2.139-16.499-12.122-21.563-20.397-3.094-5.055-5.982-10.846-9.74-15.756l.013.004c3.527 2.466 6.668 5.553 9.367 8.783 3.096 3.704 5.538 7.872 8.674 11.556 3.328 3.908 6.927 7.597 10.716 11.059 1.95 1.781 3.949 3.529 6.026 5.176 5.19 15.593-7.285 34.264-.836 42.168 3.616 4.432 3.631 9.613 2.624 14.521-2.238 10.909-9.533 20.464 6.395 17.42 6.41-1.225 9.305 4.329 18.955-.629 10.731-5.513-1.415-6.543 4.615-27.459M76.116 91.817c-3.042 2.951-6.378 5.923-9.968 8.555.028-.066.051-.131.08-.198 3.42-7.833 11.596-14.695 20.032-23.753 3.378-3.627 5.895-6.16 8.146-7.894-4.883 8.597-11.232 16.442-18.29 23.29m51.744-10.62c-3.097-4.125-5.857-8.279-9.474-11.938 2.539 1.116 4.802 2.393 6.255 3.817 7.043 6.9 8.23 12.373 10.81 17.051a100 100 0 0 1-7.591-8.93" style="fill:#122a89"/></svg>