<svg xmlns="http://www.w3.org/2000/svg" xml:space="preserve" viewBox="0 0 215 220"><path d="M171.303 113.237c4.944-12.566-1.679-15.315-2.768-28.511-.668-8.093-6.337-16.312-11.968-22.744-3.505-4.004-6.452-7.946-9.657-11.43-5.141-5.586-10.948-9.993-20.797-11.582-5.003-.808-12.007-1.018-18.123.234-6.117-1.253-13.12-1.042-18.124-.234-9.849 1.59-15.656 5.996-20.797 11.582-3.205 3.483-6.152 7.426-9.657 11.43-5.632 6.431-10.914 12.593-11.582 20.686-1.089 13.196-7.534 11.05-2.591 23.615 2.662 6.767-7.577 4.707-1.185 22.623 1.549 4.344-6.222 10.963-1.482 19.227 5.785 10.082-3.852 18.108 3.084 24.923 5.418 5.324 11.025 1.781 22.864 6.931 9.058 3.941 14.804.54 16.289-5.258a75 75 0 0 1-5.757-5.432c-6.875-7.211-11.215-13.313-13.306-26.487-1.14-7.187-1.627-12.788-1.837-17.977 1.328 1.632 2.387 2.479 2.467 2.609.991 1.609-2.026-31.005 6.147-31.912 2.844-.315.102-7.383.47-12.904.471-7.056 14.289-15.046 17.564-15.912 5.871-1.553 12.164.401 15.664 1.091.566.165 1.131.266 1.684.229 3.751-.254 9.856-6.996 20.366.933 9.513 7.176 5.849 29.685 5.493 32.752-1.637 14.107 13.692 16.675 11.594 25.723-2.767 11.934-11.343 19.038-5.598 25.465 3.815 4.268 2.409 8.289.901 12.229-1.551 4.05-3.21 8.013.581 12.068 6.587 7.048 10.032.241 17.248 1.001 12.58 1.324 17.195-5.959 13.363-17.546-2.812-8.505-.043-10.956 1.507-15.3 6.393-17.916-4.719-25.355-2.057-32.122" style="fill:#122a89"/></svg>