<svg xmlns="http://www.w3.org/2000/svg" xml:space="preserve" viewBox="0 0 215 220"><path d="M174.26 136.052c-7.728-18.027-2.854-22.771-6.474-44.053-2.427-14.266-4.66-22.199-9.671-30.425-5.707-9.37-14.213-16.848-20.668-21.273-3.377-2.315-16.975-8.367-29.355-6.422-12.38-1.946-25.978 4.107-29.355 6.422-6.455 4.425-14.96 11.903-20.668 21.273-5.01 8.226-7.244 16.158-9.671 30.425-3.62 21.282 1.253 26.026-6.474 44.053-5.268 12.288 8.099 25.886 2.127 35.336-3.988 6.31-1.48 12.144 5.457 14.107 10.205 2.888 25.902-.31 30.682-11.411 2.543-5.906 1.621-8.91.134-11.71-.428-.429-.856-.857-1.277-1.298-6.875-7.211-11.215-13.313-13.306-26.487-1.632-10.283-1.932-17.332-1.983-24.55l.007.01c.053-.898.015-1.989-.018-3.244l.001-3.948c.124-3.223.656-7.047 2.48-11.225.253-.578.539-1.15.841-1.719-.278 4.437-.128 8.927.394 13.351.158 1.341 5.341.266 5.147-1.379-.78-6.622-.731-13.549.437-20.214a121 121 0 0 1 3.317-3.577c-1.158 7.427-.926 15.113-.394 22.544.149 2.08 5.311.911 5.147-1.379-.65-9.073-.688-19.216 1.973-28.052a226 226 0 0 0 3.169-3.327c.772-.829 1.486-1.583 2.176-2.303a65 65 0 0 0-.392 1.33c-3.06 10.914-4.362 22.087-2.471 33.332.161.959 5.352-.16 5.147-1.379-1.774-10.548-.774-21.044 1.967-31.337.779-2.927 1.534-5.729 2.849-8.353.478-.322.951-.615 1.418-.865-1.17 4.262-1.87 8.664-2.274 13.061-.78 8.486-.992 18.297 2.596 26.236.533 1.179 5.517-.561 5.147-1.379-3.514-7.775-3.358-17.344-2.647-25.665.393-4.598 1.105-9.196 2.367-13.64l.03-.098q.635-.048 1.313-.051-.028.745-.051 1.486c-.129 3.984-.172 7.97-.314 11.954-.322 9.004-.421 18.33 2.869 26.877.81 2.104 5.92.629 5.147-1.379-3.296-8.561-3.105-17.771-2.802-26.78.091-2.712.023-5.533.043-8.353q.852.673 1.766 1.35c.931 3.708 1.762 7.44 2.37 11.217 1.253 7.787 1.441 15.653.993 23.518-.031.542 5.067.02 5.147-1.379.449-7.865.26-15.73-.993-23.518a113 113 0 0 0-1.016-5.414c1.309.824 2.582 1.589 3.773 2.271a79 79 0 0 1 1.513 4.452c2.554 8.436 3.912 17.85 1.043 26.384-.697 2.072 4.52 1.455 5.182-.514 2.884-8.576 1.589-18.22-.93-26.743 1.097.6 2.166 1.261 3.188 2.042 2.676 8.234 3.655 17.075 2.949 25.118-.052.59 5.017.105 5.147-1.379.241-2.75.266-5.592.117-8.465 9.823 33.38-4.436 39.333-.049 58.684 1.654 7.295-.664 10.459-2.452 13.686-1.634 2.949-2.825 5.949-.132 12.202 4.78 11.101 20.477 14.299 30.682 11.411 6.937-1.964 9.445-7.797 5.457-14.107-5.971-9.452 7.396-23.05 2.128-35.338" style="fill:#122a89"/></svg>