<svg xmlns="http://www.w3.org/2000/svg" xml:space="preserve" viewBox="0 0 215 220"><path d="M173.321 147.825c11.485-21.884-10.172-82.61-15.59-92.68-6.04-11.225-18.005-18.213-29.462-21.846-5.672-2.207-13.132-4.069-20.277-3.034h-.014c-13.205-.825-39.697 6.189-49.754 24.879-5.418 10.069-27.074 70.796-15.59 92.68 19.818 37.761-7.346 40.137-2.105 40.953 33.722 5.251 53.781-6.81 49.766-21.759-3.874-2.613-7.698-5.884-11.253-9.613-6.028-6.322-10.106-11.794-12.429-21.925-.046-9.624.331-22.278.585-32.409.486 5.506 1.126 11.226 1.618 17.17.156 1.888 2.235 1.767 3.079-7.32.914-9.84 2.155-19.499 4.378-28.662-.18 4.956.022 9.937.356 14.794.055.796 3.898.109 3.82-1.023-.897-13.034-.783-28.365 6.155-39.461.111-.179.228-.355.34-.533a29.4 29.4 0 0 1 5.3-6.112 30 30 0 0 1 2.53-.918c-.196.247-.395.493-.586.742-2.849 3.708-4.262 7.391-5.475 11.877-3.104 11.479-4.387 23.214-2.481 35.012.219 1.356 4.057.449 3.82-1.023-1.744-10.797-.772-21.546 1.879-32.11 1.04-4.146 2.018-8.116 4.428-11.689.793-1.176 1.688-2.435 2.68-3.639a49 49 0 0 0-1.283 3.966c-1.299 4.693-2.034 9.548-2.446 14.394-.753 8.85-.981 19.035 2.626 27.349.596 1.374 4.357.216 3.82-1.023-3.541-8.161-3.358-18.095-2.619-26.779.399-4.686 1.102-9.374 2.318-13.922.443-1.656.943-3.351 1.601-4.973l1.494-.256c-.311 2.032-.373 4.109-.437 6.156-.129 4.19-.173 8.383-.318 12.573-.321 9.276-.414 18.85 2.855 27.688.493 1.333 4.279.22 3.82-1.024-3.305-8.935-3.135-18.558-2.828-27.928.186-5.696-.283-11.813.64-17.514 1.897 7.1 3.77 14.223 4.892 21.493 1.254 8.126 1.442 16.326.993 24.527-.022.404 3.763.013 3.82-1.023.449-8.2.261-16.401-.993-24.527-.931-6.032-2.381-11.963-3.93-17.864.646.3 1.235.546 1.773.749 3.298 5.558 5.845 11.584 7.662 17.75 2.576 8.737 4.094 18.681 1.234 27.544-.68 2.108 3.127 2.096 3.657.455 2.964-9.183 1.717-19.271-.888-28.391a82.2 82.2 0 0 0-6.159-15.473c.117.065.233.128.352.203.787.497 1.791 1.105 2.918 1.804 3.006 4.414 5.285 9.36 6.947 14.384 2.842 8.589 4.2 17.804 3.438 26.84-.166 1.962 3.724 1.43 3.869-.293.798-9.462-.629-19.194-3.686-28.163a68 68 0 0 0-2.571-6.446c7.998 14.891 10.773 32.378 12.453 50.471.844 9.087 2.923 9.208 3.079 7.32.492-5.944 1.132-11.664 1.618-17.17.254 10.131.632 22.784.585 32.408-2.323 10.131-6.401 15.603-12.429 21.925-3.555 3.729-7.38 6.999-11.253 9.613-4.015 14.949 16.044 27.01 49.766 21.759 5.238-.816-21.926-3.192-2.108-40.953" style="fill:#122a89"/></svg>