<svg xmlns="http://www.w3.org/2000/svg" xml:space="preserve" viewBox="0 0 215 220"><path d="M160.584 156.433c.174-10.424 10.82-43.203 7.201-64.485-2.427-14.266-4.66-22.199-9.671-30.425-5.707-9.37-14.213-16.848-20.668-21.273-3.38-2.317-16.996-8.377-29.383-6.418-12.387-1.959-26.003 4.101-29.383 6.418-6.455 4.425-14.96 11.903-20.668 21.273-5.01 8.226-7.244 16.158-9.671 30.425-3.62 21.282 7.027 54.061 7.201 64.485.407 24.376-18.714 22.409-15.963 24.756 3.574 3.05 14.102 6.723 21.776 4.856 10.163-2.473 12.614-6.831 14.349-13.622 1.129-4.418 1.612-8.811 1.689-13.173-5.921-6.495-9.736-12.63-11.653-24.711a163 163 0 0 1-1.378-10.927c-.531 6.72.01 13.527 1.64 19.982 1.727 6.836 4.217 13.455 4.379 20.588.134 5.878-1.159 12.623-6.041 16.454-.654.513-1.866.961-2.701.724-.689-.196-.992-.702-.328-1.223 5.39-4.23 5.715-12.673 4.956-18.875-.829-6.776-3.479-13.126-4.802-19.796-2.063-10.402-1.349-21.714 2.022-31.867.092.136.185.26.276.4.053-.898.015-1.989-.018-3.244l.001-3.948c.124-3.223.656-7.047 2.48-11.225 3.42-7.833 11.596-14.695 20.032-23.753 9.556-10.261 12.266-11.9 21.369-10.845l.008-.065c4.183 1.018 9.337 2.574 12.638 5.809 9.101 8.916 11.624 14.166 16.232 20.174 17.698 23.075 1.819 49.012 2.223 76.171.066 4.42.547 8.871 1.691 13.349 1.735 6.791 4.186 11.149 14.349 13.622 7.674 1.867 18.202-1.806 21.776-4.856 2.754-2.346-16.367-.379-15.96-24.755m-99.438.745c-.157-.585 1.542-1.035 1.698-.455 2.277 8.477.132 18.366-8.029 22.851-.261.143-.918.396-1.202.161-.275-.227-.15-.488.151-.653 7.783-4.277 9.527-13.921 7.382-21.904m86.201 20.677c-5.594-7.281-4.643-17.056-4.423-25.687.628-11.665 2.601-23.3 6.196-34.416-2.266 11.387-3.88 22.91-4.442 34.506-.434 10.583-1.957 25.544 9.939 30.402-2.878-.619-5.402-2.498-7.27-4.805m1.114-21.378c.094 8.99 3.661 17.137 10.181 23.324-8.147-4.014-12.767-14.622-10.181-23.324" style="fill:#122a89"/></svg>