<svg xmlns="http://www.w3.org/2000/svg" xml:space="preserve" viewBox="0 0 215 220"><path d="M160.584 156.434c.174-10.424 10.82-43.203 7.201-64.485-2.427-14.266-4.66-22.199-9.671-30.425-5.707-9.37-14.213-16.848-20.668-21.273-3.375-2.313-16.953-8.347-29.325-6.411-12.403-1.987-26.056 4.091-29.441 6.411-6.455 4.425-14.96 11.903-20.668 21.273-5.01 8.226-7.244 16.158-9.671 30.425-3.62 21.282 7.027 54.061 7.201 64.485.407 24.376-18.714 22.409-15.963 24.756 3.574 3.05 14.102 6.723 21.776 4.856 10.163-2.473 12.614-6.831 14.349-13.622 1.129-4.418 1.612-8.811 1.689-13.173-5.921-6.495-9.736-12.63-11.653-24.711-1.632-10.283-1.932-17.332-1.983-24.55l.007.01c.053-.898.015-1.989-.018-3.244l.001-3.948c.124-3.223.656-7.047 2.48-11.225 2.448-5.605 7.335-10.717 13.005-16.488-3.001 8.286-2.552 14.082-1.676 13.505 1.082-1.156 2.322-2.071 4.24-3.685 1.445-1.216 7.08-5.526 5.854-3.558-.726 1.165-1.295 6.12.544 3.572 2.493-3.453 4.018-5.725 9.895-7.638-1.163 4.315-3.852 8.175-7.738 11.015-1.221.893 3.509-.235 4.88-.969 7.514-4.023 10.656-6.458 15.503-12.94-.886 4.052-3.223 7.753-6.832 10.489-1.207.915 2.792.5 4.183-.203 4.393-2.223 5.425-3.216 7.883-7.084l-.188 8.892c-.024 1.155 2.674-1.104 3.321-2.282 2.371-4.312 8.166-6.344 10.61-10.361 0 0-.014 1.465-.115 3.749-.101 2.285-2.744 3.607-1.754 3.811 1.361.28 3.665-.732 5.87-2.357a105 105 0 0 0 2.795 3.852c17.698 23.075 1.819 49.012 2.223 76.171.066 4.42.547 8.871 1.691 13.349 1.735 6.791 4.186 11.149 14.349 13.622 7.674 1.867 18.202-1.806 21.776-4.856 2.752-2.346-16.369-.379-15.962-24.755" style="fill:#122a89"/></svg>