<svg xmlns="http://www.w3.org/2000/svg" xml:space="preserve" viewBox="0 0 215 220"><path d="M145.322 96.79c-3.23-1.096-11.626-2.212-11.289 3.62.332 5.744 10.8.176 10.8 10.446 0 12.353-13.878 9.768-13.395 16.694-.828-.626-1.924-1.052-3.255-1.169-3.212-.299-5.919 2.902-9.47 5.059-3.197 1.944-7.18 2.893-10.399 2.893-3.313 0-7.871-.989-11.529-2.963-3.917-2.11-6.964-5.221-10.017-4.989-1.328.116-2.423.538-3.252 1.159.467-6.912-13.395-4.337-13.395-16.683 0-10.27 10.469-4.703 10.8-10.446.337-5.832-8.059-4.716-11.289-3.62-9.253 3.14-9.804 12.065-8.608 19.259.845 5.081 4.603 9.676 10.869 12.881 3.991 2.041 8.037 2.363 10.17 1.16-.397 4.041 6.45 7.905 6.763 8.075l.706.386c4.076 2.25 9.657 5.33 18.681 5.537h.202c8.13-.186 12.357-2.735 15.757-4.781a58 58 0 0 1 1.945-1.142c2.605-1.423 7.064-4.827 6.78-8.073 2.134 1.2 6.177.878 10.165-1.162 6.265-3.205 10.024-7.8 10.869-12.881 1.195-7.195.643-16.119-8.609-19.26" style="fill:#122a89"/></svg>