<svg xmlns="http://www.w3.org/2000/svg" xml:space="preserve" viewBox="0 0 215 220"><path d="M90.025 77.313c1.694 17.897 1.983 35.912 1.862 53.877-.03 4.526 10.43 2.428 10.455-1.219.12-17.995-.138-36.042-1.749-53.975-1.268-14.115-2.677-29.96-9.624-42.621-2.017-3.675-12.135-.308-10.432 2.795 6.721 12.248 8.195 27.481 9.488 41.143m63.301 79.172c-1.267-6.136-3.78-12.414-8.024-16.527-2.57-2.49-12.456 2.315-10.1 4.597 4.32 4.186 6.577 10.629 7.625 16.913.566 3.391 1.829 12.535-2.414 13.545-2.617.622-5.594-3.148-7.303-4.96-1.971-2.089-3.492-2.948-6.292-2.505-4.107.649-5.806 2.826-7.6 6.602-1.473 3.101-3.629 6.369-6.646 7.512-4.859 1.841-10.318-.748-13.963-4.438-2.339-2.369-3.794-6.124-6.204-8.262-3.366-2.986-8.811.151-11.318 3.119-1.306 1.546-1.713 2.344-2.856 2.166-2.89-.451-4.665-3.702-5.597-6.663-2.579-8.19-.132-18.63 2.838-26.262.94-2.415-3.645-2.117-4.501-1.982-2.069.327-5.274 1.399-6.229 3.853-3.77 9.686-7.747 28.681 2.187 35.47 4.598 3.143 11.366 1.9 16.06-.298.653-.306 1.266-.715 1.892-1.093 1.35 1.973 2.805 3.849 4.518 5.412 5.46 4.986 12.299 6.167 19.065 5.273 6.329-.837 12.681-3.623 17.262-8.879.29-.332.521-.708.789-1.056.062.053.142.149.2.194 2.488 1.9 5.241 2.802 8.211 2.904 6.177.214 14.531-2.41 17.865-9.018 2.259-4.483 1.526-10.816.535-15.617" style="fill:#122a89"/></svg>