<svg xmlns="http://www.w3.org/2000/svg" xml:space="preserve" viewBox="0 0 215 220"><path d="M151.153 105.55c-1.822-3.151-4.626-5.344-7.894-6.173-1.364-.342-2.696.009-3.639.974-1.019 1.048-1.44 2.677-1.051 4.054.358 1.256 1.297 2.136 2.652 2.48 2.11.532 3.563 2.307 4.091 4.996.206 1.025.098 2.215-.298 3.354-.399 1.133-1.19 2.288-2.291 3.338-3.85 3.665-9.61 4.183-16.956 1.912.164-.257.403-.454.557-.719.715-1.231.737-2.547.07-3.712-.722-1.253-2.174-2.098-3.617-2.101h-.009c-1.329 0-2.449.671-3.158 1.892-2.515 4.335-7.274 7.135-12.128 7.135h-.016c-4.857-.003-9.615-2.816-12.128-7.164-1.234-2.133-3.56-2.291-5.233-1.323-1.68.969-2.727 3.082-1.481 5.24.158.274.406.479.576.745-7.351 2.277-13.113 1.761-16.972-1.907-1.098-1.047-1.892-2.199-2.291-3.338-.396-1.132-.503-2.323-.301-3.354.532-2.689 1.984-4.464 4.094-4.996 2.36-.598 3.126-2.769 2.664-4.607-.487-1.911-2.268-3.521-4.705-2.901-3.269.829-6.072 3.019-7.891 6.17-1.974 3.414-2.54 7.625-1.516 11.264 2.389 8.467 11.22 12.631 18.412 12.919q.497.02 1 .019c4.138 0 8.588-1.033 13.54-3.088 3.611 2.512 7.844 4.088 12.232 4.097h.041c4.38 0 8.612-1.575 12.226-4.092 4.944 2.051 9.39 3.083 13.52 3.083q.507 0 1.003-.019c7.192-.288 16.023-4.452 18.412-12.919 1.026-3.634.46-7.842-1.515-11.259" style="fill:#122a89"/></svg>