<svg xmlns="http://www.w3.org/2000/svg" xml:space="preserve" viewBox="0 0 215 220"><path d="M92.332 132.698c-1.44-5.386-1.68-12.669-1.395-18.201.606-11.795 2.707-21.253 4.105-32.84 1.476-12.233-2.304-11.996-5.619-6.572-7.548 12.353-11.09 37.054-11.562 51.446-.328 9.987 5.328 17.301 17.127 20.926 3.126.96 11.459 2.074 12.95-1.002 1.654-3.413-12.896-3.621-15.606-13.757m48.074-.609c-1.427-1.524-3.365-1.423-4.852-.799-1.448.609-3.317 1.945-6.086 4.781-1.138 1.166-3.087 3.44-9.165 6.166-1.982.889-4.563 1.472-5.125 3.166s.553 2.353 2.331 2.545c2.618.282 4.137.124 6.698-.273 3.044-.472 5.531-1.27 8.283-2.668 2.985-1.517 4.162-2.527 6.757-5.53 2.164-2.503 2.781-5.656 1.159-7.388" style="fill:#122a89"/></svg>