<svg xmlns="http://www.w3.org/2000/svg" xml:space="preserve" viewBox="0 0 215 220"><path d="M153.632 132.231c-1.832-4.704-7.042-10.446-11.138-7.393-2.924 2.18 5.341 9.3 1.908 17.946-.874 2.2-2.432 2.778-4.082 2.956 1.72-2.871 1.632-5.86-.039-7.531-2.318-2.319-11.297-1.466-14.448 5.896-1.427 3.335-8.255 7.6-18.356 7.6s-16.929-4.265-18.356-7.6c-3.151-7.362-11.77-8.575-14.448-5.896-1.671 1.671-1.759 4.66-.039 7.531-1.65-.178-3.208-.756-4.081-2.956-3.433-8.646 4.831-15.767 1.907-17.946-4.096-3.053-9.306 2.689-11.138 7.393s-2.712 9.608-.56 14.368c2.126 4.702 6.841 7.439 12.715 7.502 2.099.023 6.137-1.261 7.334-3.174 1.521.723 3.2 1.359 5.231 1.749.669.128 10.524 5.738 21.436 6.189 10.912-.451 20.766-6.061 21.436-6.189 2.031-.389 3.709-1.026 5.231-1.749 1.197 1.913 5.236 3.197 7.334 3.174 5.874-.063 10.589-2.8 12.715-7.502 2.151-4.759 1.27-9.663-.562-14.368m-60.177-14.367c2.784-1.628 3.076-4.69 1.938-7.388-5.623-13.322-3.888-29.182 3.664-41.345 3.677-5.922-5.662-11.35-9.325-5.451-9.771 15.734-10.811 35.315-3.665 52.247 1.134 2.687 5.103 3.273 7.388 1.937" style="fill:#122a89"/></svg>