<svg xmlns="http://www.w3.org/2000/svg" xml:space="preserve" viewBox="0 0 215 220"><path d="M69.791 126.179c-2.503-2.706-1.807-7.157.233-11.663 2.72-6.005 13.947-23.313 7.047-24.647-4.406-.852-10.667 13.954-13.547 18.753-4.84 8.064-7.702 16.892-2.215 22.888 2.662 2.909 6.708 3.93 13.542 4.446 5.83.439 9.226-.815 9.118-3.873-.146-4.139-9.37-.706-14.178-5.904m81.637-17.557c-2.88-4.798-9.14-19.604-13.547-18.753-6.9 1.335 4.327 18.642 7.047 24.647 2.041 4.506 2.736 8.957.233 11.663-4.808 5.198-14.031 1.765-14.178 5.903-.108 3.058 3.288 4.312 9.118 3.873 6.834-.515 10.88-1.536 13.543-4.446 5.487-5.995 2.624-14.823-2.216-22.887m-60.964 19.683c-2.229.486-4.458 2.074-4.356 4.356.111 2.445 1.914 4.25 4.356 4.356.561.024 1.118.088 1.675.144 2.255.334 4.452.93 6.563 1.789.446.205.896.403 1.332.631 1.031.539 2.213.754 3.356.439 1.01-.278 2.106-1.06 2.604-2.002 1.059-2.005-.118-4.002-1.564-5.96-2.979-4.036-7.87-5.082-13.966-3.753m34.025 0c-6.096-1.329-10.987-.283-13.965 3.753-1.445 1.958-2.623 3.955-1.563 5.96.497.943 1.593 1.724 2.603 2.002 1.143.315 2.325.1 3.356-.439.436-.228.885-.425 1.332-.631a28.4 28.4 0 0 1 6.563-1.789c.557-.056 1.114-.12 1.675-.144 2.442-.106 4.246-1.912 4.356-4.356.101-2.283-2.128-3.87-4.357-4.356" style="fill:#122a89"/></svg>