<svg xmlns="http://www.w3.org/2000/svg" xml:space="preserve" viewBox="0 0 215 220"><path d="M125.892 114.465c-11.391-6.044-25.202-6.008-36.525.195-3.307 1.811-4.65 6.645-2.583 9.851 2.161 3.352 6.314 4.521 9.851 2.583.558-.305 1.12-.6 1.694-.874l.355-.161c.065-.025.022-.007.116-.044 1.057-.355 2.094-.725 3.176-1.002a32 32 0 0 1 1.859-.415q.267-.05.535-.093c.32.101 2.91-.202 3.235-.205 1.115-.008 2.221.064 3.332.154.047.005.015 0 .055.005q.196.03.39.063.938.166 1.864.389 1.621.392 3.19.959c.185.068.369.141.553.211.547.271 1.096.53 1.635.816 3.325 1.765 7.984.951 9.851-2.582 1.761-3.332.97-7.966-2.583-9.85" style="fill:#122a89"/></svg>