<svg xmlns="http://www.w3.org/2000/svg" xml:space="preserve" viewBox="0 0 215 220"><path d="M149.527 119.59c-3.589-1.218-12.918-2.457-12.544 4.022.369 6.382 12.001.195 12.001 11.607 0 13.71-15.48 10.799-14.981 18.462-.909-.651-2.098-1.088-3.521-1.212-3.569-.332-6.577 3.225-10.522 5.621-3.553 2.16-7.978 3.214-11.555 3.214-3.681 0-8.746-1.099-12.811-3.292-4.353-2.344-7.737-5.801-11.13-5.543-1.417.123-2.605.555-3.515 1.199.482-7.646-14.981-4.746-14.981-18.449 0-11.412 11.632-5.225 12.001-11.607.374-6.479-8.954-5.24-12.544-4.022-10.281 3.489-10.893 13.405-9.564 21.399.939 5.645 5.115 10.751 12.077 14.312 4.434 2.268 8.93 2.625 11.301 1.289-.441 4.49 7.166 8.783 7.515 8.973l.784.429c4.529 2.5 10.73 5.923 20.756 6.151h.224c9.034-.207 13.731-3.038 17.507-5.312.72-.436 1.432-.866 2.16-1.269 2.894-1.581 7.849-5.363 7.533-8.97 2.372 1.333 6.864.975 11.295-1.292 6.961-3.561 11.138-8.667 12.076-14.312 1.331-7.993.718-17.908-9.562-21.398" style="fill:#122a89"/><path d="M99.039 142.08c3.14 0 5.713-4.631 5.331-10.071-1.676-23.898-.944-47.98 2.434-71.43.764-5.298-.005-10.903-3.415-12.389-3.202-1.395-7.046 1.709-7.813 7.034-3.622 25.156-4.688 51.131-2.887 76.785.379 5.406 2.648 10.071 6.35 10.071" style="fill:#122a89"/></svg>