<svg xmlns="http://www.w3.org/2000/svg" xml:space="preserve" viewBox="0 0 215 220"><path d="M137.315 138.206c-1.579-2.056-3.755-3.085-6.329-3.02-1.904.048-3.656.79-5.344 1.627-3.108 1.542-10.216 6.073-10.578 6.725-.171.082-2.361 2.02-2.566 3.185-.418 2.377.922 5.264 3.484 5.628 3.224.459 6.51.581 9.753.145 3.068-.414 6.769-.993 9.295-3.022 1.687-1.355 3.034-3.113 3.447-5.32.381-2.032.105-4.299-1.162-5.948m-35.072 4.869c-4.438-.514-9.17-.424-12.166-4.223-3.665-4.647-2.17-12.714-.585-17.592 4.819-14.828 11.109-29.251 14.517-44.466 2.52-11.254-7.435-14.834-10.021-2.763-2.01 9.382-5.955 18.243-8.934 27.364-2.683 8.218-6.168 18.721-7.787 27.229-1.4 7.356-2.049 15.167 3.882 20.385 5.406 4.756 14.204 3.661 21.093 4.458 2.811.325 5.169-2.622 5.197-5.197.033-3.074-2.419-4.874-5.196-5.195" style="fill:#122a89"/></svg>