<svg xmlns="http://www.w3.org/2000/svg" xml:space="preserve" viewBox="0 0 215 220"><path d="M87.376 92.714c-.272 2.321 2.18 4.32 4.32 4.32 2.561 0 4.047-1.992 4.32-4.32 1.981-16.921 3.971-35.469-1.539-51.96-1.753-5.248-10.1-2.998-8.332 2.297 5.261 15.744 3.121 33.518 1.231 49.663m74.678 57.216c-.887-4.804-2.789-9.262-4.71-11.59-7.169-8.685-18.497-13.242-18.497-6.979 0 2.396 6.052 6.563 8.977 9.968 4.678 5.446 5.761 10.224 2.372 14.389-2.58 3.171-7.498 2.861-11.47 3.243-.263-1.11-.997-1.868-2.323-2.078-5.52-.875-7.169 6.513-13.953 12.034-3.095 2.518-9.849 5.439-14.973 5.439s-11.879-2.92-14.973-5.439c-6.784-5.522-8.433-12.909-13.953-12.034-1.325.21-2.059.969-2.323 2.078-3.972-.382-8.89-.072-11.47-3.243-3.388-4.165-2.305-8.943 2.372-14.389 2.925-3.405 8.977-7.572 8.977-9.968 0-6.263-11.329-1.706-18.497 6.979-1.921 2.328-3.823 6.786-4.71 11.59-.745 4.035-.668 6.151 1.089 9.983 2.365 5.16 8.177 8.998 14.639 9.003 3.346.003 7.68-.009 10.543-1.18a33.2 33.2 0 0 0 4.7 5.671c5.604 5.383 14.74 8.822 23.606 8.822s18.002-3.44 23.606-8.822a33.2 33.2 0 0 0 4.7-5.671c2.863 1.171 7.196 1.183 10.543 1.18 6.462-.004 12.274-3.843 14.639-9.003 1.756-3.833 1.834-5.949 1.089-9.983" style="fill:#122a89"/></svg>