<svg xmlns="http://www.w3.org/2000/svg" xml:space="preserve" viewBox="0 0 215 220"><path d="M103.659 32.443c.949-5.476-7.51-7.247-8.46-1.763-2.855 16.48-4.23 33.32-5.045 50.012-.438 8.963-.659 17.972-.149 26.937.358 6.286.761 13.375 3.551 19.136 2.391 4.938 10.595 2.188 8.169-2.822-2.557-5.28-2.816-11.612-3.124-17.363-.472-8.8-.254-17.639.175-26.437.778-15.923 2.16-31.98 4.883-47.7M89.067 171.394c-3.7-1.279-7.753-2.421-11.693-2.473-4.013-.054-8.297 1.593-10.091 5.422-.203.432-.271.904-.411 1.358-3.679-1.416-6.779-3.902-7.464-7.762-2.251-12.687 23.788-29.107 20.27-36.196-3.197-6.44-10.779 3.288-16.274 10.031-4.242 5.205-12.933 15.501-12.862 24.442.076 9.62 4.944 16.392 14.654 19.042 3.661.999 6.979 1.461 9.694 1.387 7.736.152 20.403-1.967 24.688-3.352 2.931-.947 3.576-4.935.86-6.58a59.5 59.5 0 0 0-11.371-5.319m62.482-29.619c-5.495-6.743-13.077-16.472-16.274-10.031-3.519 7.089 22.521 23.509 20.27 36.196-.685 3.86-3.785 6.346-7.464 7.762-.141-.454-.209-.926-.411-1.358-1.793-3.83-6.078-5.476-10.091-5.422-3.941.052-7.994 1.194-11.693 2.473a59.5 59.5 0 0 0-11.371 5.32c-2.716 1.645-2.071 5.633.86 6.58 4.285 1.385 16.953 3.504 24.688 3.352 2.715.074 6.033-.388 9.694-1.387 9.71-2.65 14.578-9.422 14.654-19.042.07-8.943-8.62-19.239-12.862-24.443" style="fill:#122a89"/></svg>