<svg xmlns="http://www.w3.org/2000/svg" xml:space="preserve" viewBox="0 0 215 220"><path d="M97.248 53.162c-15.816 35.951-38.182 87.188-6.139 110.755 7.366 5.417 14.795 1.43 10.557-3.983-23.45-29.951-8.573-70.678 4.908-101.321 2.772-6.302-6.53-11.806-9.326-5.451m40.602 98.571c-1.383-1.537-3.361-2.331-5.4-2.434-3.995-.202-6.676 2.754-9.091 5.455l-6.955 7.784c-.956 1.07-1.582 2.353-1.582 3.819 0 1.324.809 3.465 4.285 3.292 3.422-.171 13.689-1.989 16.388-3.662 1.453-.901 2.835-2.156 3.572-3.726.721-1.536 1.22-3.226 1.054-4.945-.205-2.117-.824-3.975-2.271-5.583" style="fill:#122a89"/></svg>