<svg xmlns="http://www.w3.org/2000/svg" xml:space="preserve" viewBox="0 0 215 220"><path d="M152.204 107.85c-6.525-4.539-18.822-3.914-29.452 4.632-1.628 1.309-8.129 5.376-15.276 5.376s-13.648-4.067-15.276-5.376c-10.63-8.546-22.927-9.171-29.452-4.632-4.409 3.067-6.151 6.166-5.235 9.095 2.23 7.131 14.886 10.336 27.479-2.649.396-.408 3.397 1.909 7.208 5.272 3.543 3.126 9.796 5.372 15.276 5.372s11.733-2.246 15.276-5.372c3.812-3.364 6.813-5.68 7.208-5.272 12.593 12.984 25.249 9.779 27.479 2.649.917-2.929-.826-6.028-5.235-9.095" style="fill:#122a89"/></svg>