<svg xmlns="http://www.w3.org/2000/svg" xml:space="preserve" viewBox="0 0 215 220"><path d="M94.464 129.394c-2-4.903-1.87-10.62-1.818-15.818.08-7.953.783-15.902 1.674-23.801 1.614-14.297 3.78-28.68 7.134-42.682 1.169-4.877-6.349-6.959-7.519-2.073-3.516 14.68-5.721 29.768-7.413 44.755-.908 8.048-1.625 16.149-1.679 24.253-.038 5.682-.082 12.09 2.101 17.439 1.872 4.585 9.418 2.579 7.52-2.073m-22.262 26.352c-5.88-.335-13.04-2.604-14.123-7.828-2.233-10.779 23.607-24.729 20.116-30.752-3.172-5.471-10.696 2.794-16.15 8.522-4.21 4.423-12.834 13.17-12.764 20.766.075 8.173 4.906 13.926 14.542 16.178 9.483 2.216 16.729 1.38 16.729-2.787.001-1.938-4.05-3.854-8.35-4.099m80.706-30.057c-5.454-5.729-12.977-13.993-16.15-8.522-3.492 6.023 22.349 19.973 20.116 30.752-1.082 5.223-8.242 7.492-14.123 7.828-4.3.245-8.35 1.752-8.35 4.1 0 4.167 7.246 5.004 16.73 2.787 9.636-2.251 14.467-8.005 14.542-16.178.069-7.597-8.555-16.344-12.765-20.767m-21.699 26.999c-4.529-.717-13.632 16.977-22.749 16.977s-20.187-17.694-24.716-16.977c-4.279.678-.062 9.131 4.365 13.558 4.75 4.75 10.503 11.112 20.351 11.519 9.848-.407 13.634-6.769 18.384-11.519 4.312-4.312 8.644-12.88 4.365-13.558" style="fill:#122a89"/></svg>