<svg xmlns="http://www.w3.org/2000/svg" xml:space="preserve" viewBox="0 0 215 220"><path d="M138.735 148.562c-9.797-4.153-13.074 2.556-21.791 9.109-1.705 1.282-6.816 4.649-9.443 4.649s-7.738-3.368-9.443-4.649c-8.717-6.553-11.995-13.261-21.791-9.109-7.911 3.353-8.607 10.037-3.528 10.98 2.924.543 11.643.967 15.69-.401.587-.199 6.159 5.061 11.046 7.41 2.358 1.134 4.172 1.91 8.027 2.091 3.855-.18 5.668-.957 8.027-2.091 4.888-2.349 10.459-7.609 11.046-7.41 4.046 1.368 12.765.943 15.69.401 5.076-.943 4.38-7.627-3.53-10.98M96.789 71.114c.493 5.707.68 11.488.768 17.215.226 14.827-.203 24.226-.261 39.053-.018 4.507 8.457 3.391 8.472-.559.061-15.441.563-25.461.228-40.901-.127-5.84-.319-11.753-.907-17.564-.633-6.262-3.291-11.239-7.473-15.887-2.644-2.939-10.534.51-7.617 3.752 4.026 4.475 6.27 8.876 6.79 14.891" style="fill:#122a89"/></svg>