<svg xmlns="http://www.w3.org/2000/svg" xml:space="preserve" viewBox="0 0 215 220"><path d="M146.554 143.411c-1.605-4.61-4.144-8.438-6.845-11.238-1.676-1.738-4.989-2.461-6.382 0-.931 1.645.838 3.806 3.557 8.237 1.056 1.719 3.249 6.333 3.898 10.241 1.057 6.369-.395 11.194-2.806 13.852-5.701 6.285-10.838 3.715-15.286 1.772-.363-.158-.743-.205-1.119-.276-.023-.393-.094-.784-.304-1.15-.526-.913-1.585-1.529-2.637-1.531h-.007c-.969 0-1.785.489-2.302 1.379-1.833 3.16-5.303 5.201-8.841 5.201h-.011c-3.541-.002-7.01-2.053-8.841-5.222-.9-1.555-2.595-1.67-3.815-.964a2.83 2.83 0 0 0-1.423 2.284c-.38.07-.763.118-1.129.278-4.448 1.943-9.585 4.512-15.286-1.772-2.411-2.658-3.862-7.484-2.806-13.852.649-3.909 2.843-8.522 3.898-10.241 2.719-4.431 4.489-6.592 3.557-8.237-1.393-2.461-4.706-1.738-6.382 0-2.7 2.8-5.24 6.628-6.845 11.238-1.742 4.994-2.301 11.914-1.362 17.231 1.632 9.244 8.207 14.659 14.862 15.297 5.94.57 9.822-.131 14.279-3.241a6.6 6.6 0 0 0 1.168-1.044c2.846 2.399 6.419 3.908 10.126 3.916h.03c3.697 0 7.269-1.506 10.117-3.908a6.7 6.7 0 0 0 1.159 1.036c4.457 3.11 8.339 3.811 14.279 3.241 6.655-.638 13.23-6.053 14.862-15.297.938-5.316.379-12.236-1.363-17.23m-54.05-42.773c-.285 1.938.484 3.845 2.515 4.429 1.691.486 4.145-.594 4.428-2.515 2.754-18.701 2.235-37.579-1.666-56.084-.955-4.531-7.897-2.614-6.943 1.914 3.614 17.147 4.221 34.911 1.666 52.256" style="fill:#122a89"/></svg>