<svg xmlns="http://www.w3.org/2000/svg" xml:space="preserve" viewBox="0 0 215 220"><path d="M99.904 137.944c-5.894-6.295-11.992-12.807-13.536-20.543-.826-4.138-.187-8.031 1.898-11.569 1.047-1.784 2.344-3.541 3.6-5.241 1.133-1.539 2.269-3.076 3.269-4.675 8.632-13.78-.386-26.615-2.281-18.709-1.978 8.246-6.426 15.197-10.938 21.48-5.338 7.426-6.79 14.89-4.439 22.814 2.576 8.67 9.29 15.841 15.209 22.169.94 1.009 2.231 1.546 3.642 1.546q.538.001 1.095-.105c1.841-.349 3.37-1.518 3.892-2.983.439-1.229.123-2.539-.867-3.601zm37.767-5.693c-5.945-8.065-17.51-11.017-26.332-6.708-2.145 1.044-3.819 3.591-2.699 6.249.544 1.291 1.664 2.36 2.993 2.86 1.129.427 2.338.386 3.376-.12.737-.36 1.494-.661 2.37-.921l.478-.104q.603-.104 1.215-.162.551-.052 1.098-.06l.367-.029.668.085c.68.086 1.357.171 2.025.329.304.073.601.158 1.107.319l.573.225c.737.31 1.443.684 2.221 1.161l.487.361q.483.37.937.791l1.215 1.383a5.06 5.06 0 0 0 4.047 2.028 4.47 4.47 0 0 0 2.762-.93c2.136-1.647 2.623-4.678 1.092-6.757" style="fill:#122a89"/></svg>