<svg xmlns="http://www.w3.org/2000/svg" xml:space="preserve" viewBox="0 0 215 220"><path d="M136.377 107.399c-3.347-1.202-7.052.566-8.269 3.916-.809 2.232-3.593 7.355-6.602 8.026-1.962.457-4.83-1.111-8.079-4.359a6.44 6.44 0 0 0-4.581-1.898 6.44 6.44 0 0 0-4.581 1.898c-2.623 2.623-6.409 5.59-9.573 4.954-3.649-.759-6.908-6.258-7.914-8.8-1.294-3.322-5.052-4.992-8.36-3.695a6.475 6.475 0 0 0-3.723 8.371c.559 1.463 5.822 14.361 17.283 16.794 1.234.26 2.471.394 3.709.394 4.392 0 8.814-1.657 13.217-4.928 3.952 2.837 7.91 4.316 11.835 4.316a16.2 16.2 0 0 0 3.663-.415c10.765-2.454 15.427-14.927 15.926-16.341 1.182-3.364-.59-7.038-3.951-8.233" style="fill:#122a89"/></svg>