<svg xmlns="http://www.w3.org/2000/svg" xml:space="preserve" viewBox="0 0 215 220"><path d="M133.061 116.757c-3.193 10.891-9.51 13.378-15.269 11.075-7.318-2.928-13.905-2.013-22.321 0-9.773 2.337-12.03-7.684-8.965-18.296 2.018-6.986 4.667-15.2 6.977-25.062 1.37-5.848-8.246-6.983-11.354 2.523-2.517 7.699-5.855 17.382-9.206 28.303-2.474 8.063-1.42 15.855 5.899 21.131 7.171 5.17 18.479 3.223 26.529 1.098 6.997-1.847 17.564 5.672 27.939.885 3.929-1.813 7.611-8.356 8.47-12.594 2.744-13.54-6.851-15.369-8.699-9.063" style="fill:#122a89"/></svg>