<svg xmlns="http://www.w3.org/2000/svg" xml:space="preserve" viewBox="0 0 215 220"><path d="M159.419 96.803c-1.507-2.214-4.58-3.413-7.019-1.84-2.204 1.421-3.455 4.646-1.84 7.019.771 1.133 1.543 2.267 2.258 3.437q.507.826.967 1.679c.191.357.369.719.551 1.081.058.116.083.174.115.243.206.526.396 1.06.552 1.603q.13.448.234.904c-.002-.008.087.476.137.719.015.177.037.406.04.454q.025.466.015.932l-.011.392c-.036.176-.104.667-.109.689-.113.478-.275.936-.436 1.397-.024.046-.004.015-.047.091-.134.242-.258.487-.398.725-.17.289-.374.557-.544.843-.367.382-.705.787-1.095 1.15-.211.197-.433.385-.657.568-.049.03-.084.053-.218.134-.506.309-1.003.623-1.531.893-.167.086-.337.163-.507.243-.087.034-.296.118-.501.189-.195.068-.396.112-.593.172-.285-3.682-3.093-9.344-20.826-1.217-3.698 1.695-14.785 4.21-20.482 4.21-5.698 0-16.785-2.515-20.482-4.21-17.847-8.179-20.577-2.818-20.832 1.225-.126-.039-.254-.065-.379-.107.006.002-.385-.142-.617-.225l-.4-.181a16 16 0 0 1-1.542-.871c-.1-.064-.404-.276-.501-.334-.138-.116-.279-.229-.412-.35a18 18 0 0 1-1.144-1.168c-.054-.059-.029-.036-.062-.074-.159-.238-.325-.47-.475-.715q-.216-.352-.409-.719l-.149-.296c-.056-.145-.129-.328-.146-.379q-.165-.492-.284-.996c-.044-.186-.076-.374-.111-.563-.002-.058-.005-.113-.004-.285.002-.549.016-1.09.054-1.636.018-.123.046-.302.083-.475q.098-.457.221-.907c.165-.601.384-1.178.584-1.767.019-.057.003-.024.012-.055.043-.08.05-.084.133-.25.145-.29.286-.581.436-.868.3-.572.621-1.133.955-1.686.749-1.243 1.568-2.443 2.384-3.643 1.514-2.224.494-5.785-1.84-7.019-2.6-1.374-5.403-.533-7.019 1.84-4.097 6.017-7.719 12.949-5.68 20.442 1.903 6.992 8.042 11.863 14.893 13.548 2.602.64 5.683-.831 6.311-3.583.089-.389.047-.785.051-1.18 4.855 2.567 12.423 5.042 18.961 6.958 5.115 1.499 9.049 2.526 17.41 2.765 8.36-.239 12.294-1.266 17.409-2.765 6.514-1.909 14.045-4.557 18.902-7.142-.003.458-.034.92.11 1.365.875 2.705 3.517 4.27 6.311 3.583 6.866-1.689 12.968-6.556 14.893-13.548 2.058-7.476-1.593-14.435-5.68-20.439" style="fill:#122a89"/></svg>