<svg xmlns="http://www.w3.org/2000/svg" xml:space="preserve" viewBox="0 0 215 220"><path d="M149.953 143.901c-11.036-5.02-26.647-1.281-37.078 14.24a3.46 3.46 0 0 0-.593 1.691c-.293.08-.588.083-.876.228-9.744 4.872-19.122-3.845-26.826-8.562-10.368-6.349-11.866-6.924-11.618-9.032.718-6.098 3.972-19.106 10.316-34.947 8.032-20.057 18.794-45.863 19.842-52.299 1.824-11.199-8.326-10.142-10.081-4.032-2.37 8.251-7.296 23.763-17.079 46.726-9.224 21.65-16.272 41.411-15.397 47.225 1.627 10.817 15.721 12.013 30.676 23.378 10.901 8.285 18.704 4.022 23.83.958 2.971-1.776 3.713-4.021 3.283-5.936l31.602-5.748c2.528-.461 4.618-4.065 4.508-6.945-.131-3.408-1.869-5.744-4.509-6.945" style="fill:#122a89"/></svg>