<svg xmlns="http://www.w3.org/2000/svg" xml:space="preserve" viewBox="0 0 215 220"><path d="M60.471 100.713c-1.195 2.241 5.047 2.617 7.664 8.412 1.049 2.322.374 5.048 2.617 9.367 3.025 5.824 12.705 9.492 26.249 12.287 2.487.513 5.388.638 6.645-1.743 1.19-2.253-.301-4.347-1.742-6.645-5.852-9.326-37.207-29.599-41.433-21.678m94.011 0c-4.226-7.921-35.582 12.352-41.433 21.678-1.442 2.298-2.933 4.392-1.742 6.645 1.257 2.381 4.158 2.256 6.645 1.743 13.543-2.795 23.223-6.463 26.248-12.287 2.243-4.319 1.568-7.044 2.617-9.367 2.618-5.795 8.86-6.171 7.665-8.412" style="fill:#122a89"/></svg>