<svg xmlns="http://www.w3.org/2000/svg" xml:space="preserve" viewBox="0 0 215 220"><path d="M91.759 58.06c8.829 28.045 4.51 55.925-8.957 81.588-6.15 11.72 3.034 21.715 13.902 25.865 11.508 4.395 25.394 2.305 35.947-3.645 2.111-1.19 4.593-3.085 1.729-4.773-2.633-1.552-8.649.496-10.987 1.814-7.741 4.365-18.196-.511-23.591-6.674-4.175-4.77-4.362-9.599-1.492-15.067 2.726-5.194 5.419-10.278 7.467-15.795 8.004-21.56 8.528-45.596 1.631-67.505-1.337-4.244-16.917.163-15.649 4.192" style="fill:#122a89"/></svg>