<svg xmlns="http://www.w3.org/2000/svg" xml:space="preserve" viewBox="0 0 215 220"><path d="M69.402 158.414c-.969 1.815 4.088 2.12 6.208 6.814.849 1.881.303 4.088 2.12 7.587 2.45 4.718 10.292 7.688 21.261 9.952 2.014.416 4.364.517 5.383-1.412.964-1.825-.243-3.521-1.412-5.382-4.739-7.554-30.137-23.975-33.56-17.559m76.149 0c-3.423-6.416-28.821 10.005-33.561 17.559-1.168 1.862-2.375 3.558-1.412 5.382 1.019 1.928 3.368 1.827 5.383 1.412 10.97-2.264 18.811-5.235 21.261-9.952 1.817-3.498 1.27-5.706 2.12-7.587 2.121-4.694 7.177-4.999 6.209-6.814m-58.175-21.189c-.272 4.234 2.18 7.881 4.32 7.881 2.561 0 4.047-3.635 4.32-7.881 1.981-30.87 3.97-64.71-1.539-94.796-1.753-9.573-10.1-5.469-8.332 4.191 5.261 28.723 3.121 61.148 1.231 90.605" style="fill:#122a89"/></svg>