<svg xmlns="http://www.w3.org/2000/svg" xml:space="preserve" viewBox="0 0 215 220"><path d="M143.08 123.519c-11.297-4.094-15.202 14.344-24.995 21.706-1.915 1.44-7.657 5.224-10.608 5.224s-8.693-3.784-10.608-5.224c-9.793-7.362-13.698-25.8-24.995-21.706-2.613.947-12.005 12.569-12.005 15.69 0 11.113 21.636 9.205 26.183 7.668.66-.223 6.919 7.333 12.409 9.972 2.649 1.274 4.687 2.146 9.017 2.349 4.33-.203 6.368-1.075 9.017-2.349 5.491-2.639 11.749-10.195 12.409-9.972 4.546 1.537 26.183 3.444 26.183-7.668-.002-3.121-9.394-14.743-12.007-15.69m-8.779-17.768c-4.32-13.982-5.149-23.685-5.149-38.019 0-5.759-8.469-7.323-9.268-.043-.798 7.28-1.095 25.843 3.985 40.103 4.097 11.499 12.988 6.232 10.432-2.041" style="fill:#122a89"/></svg>