<svg xmlns="http://www.w3.org/2000/svg" xml:space="preserve" viewBox="0 0 215 220"><path d="M80.484 116.32q-.182-.064-.363-.134c-.26-.16-.516-.323-.765-.503.378.306.1.137-.136-.089l-.011-.007c-.141-.108-.274-.231-.416-.337.174.13.243.186.351.27a11 11 0 0 1-.752-.885c.054.102.082.144.152.283-.059-.116-.129-.225-.197-.336-.022-.029-.049-.054-.071-.083-.2-.269-.307-.576-.139-.321a17 17 0 0 1-.385-.8c-.042-.142-.085-.283-.121-.427-.035-.141-.05-.286-.079-.427a13 13 0 0 1-.006-1.557c.011-.052.015-.106.026-.158.032-.141.068-.372.112-.595.008-.017.003-.004.012-.022.101-.215.191-.438.295-.652.089-.183.384-.606.514-.899q.046-.061.094-.121c.205-.251.428-.475.648-.705a8 8 0 0 1 .255-.191c.4-.28 1.765-.939.113-.167 1.317-.616 2.39-1.315 3.136-2.787.658-1.3.937-3.216.529-4.674-.411-1.468-1.198-2.884-2.411-3.625-1.165-.711-2.763-1.21-4.043-.611-1.823.852-3.201 1.73-4.718 3.183-1.09 1.044-1.995 2.367-2.778 3.722-1.569 2.714-2.482 6.316-2.341 9.585.317 7.299 4.627 13.694 10.703 15.766 2.632.897 5.833-1.082 6.454-4.236.644-3.253-.844-6.5-3.662-7.46m65.137-13.655c-.783-1.355-1.688-2.678-2.778-3.722-1.517-1.452-2.894-2.33-4.718-3.183-1.28-.599-2.878-.1-4.043.611-1.214.741-2 2.157-2.411 3.625-.408 1.458-.129 3.374.529 4.674.745 1.473 1.818 2.172 3.135 2.787-1.652-.772-.287-.114.113.167q.13.093.255.191c.221.229.443.454.648.705l.094.121c.131.292.425.716.514.899.104.214.194.436.295.652.009.019.004.006.012.022.045.222.081.454.112.595.011.052.015.105.026.158.032.519.025 1.038-.006 1.557-.029.142-.044.287-.079.427-.036.144-.079.285-.12.427q-.183.406-.385.8c.168-.255.061.052-.139.321-.022.029-.048.054-.071.083-.069.111-.139.22-.198.336.071-.138.098-.181.153-.283-.239.309-.486.607-.752.885.108-.084.177-.141.351-.27-.142.106-.275.229-.416.337l-.01.007c-.236.226-.515.396-.136.089-.25.18-.506.343-.765.503q-.18.07-.363.134c-2.818.961-4.306 4.207-3.665 7.461.622 3.154 3.822 5.133 6.454 4.236 6.077-2.072 10.386-8.466 10.704-15.766.143-3.27-.771-6.872-2.34-9.586m-19.747 14.765c-2.492-1.317-5.727-.665-7.179 1.883a26 26 0 0 1-1.129 1.773c-.025.037-.01.022-.023.043-.041.038-.066.057-.176.171-.215.225-.417.462-.635.686q-.409.417-.843.808c-.069.062-.299.258-.43.374-.488.363-.998.706-1.52 1.013q-.907.535-1.868.967c.908-.408-.827.258-1.158.353-.551.16-1.107.266-1.666.378-.147.022-.477.078-.61.087a17 17 0 0 1-2.103.013c-.084-.004-.541-.058-.763-.078l-.385-.074a18 18 0 0 1-2.027-.549c.011.004-.43-.163-.671-.249-.225-.11-.669-.315-.659-.309a19 19 0 0 1-1.814-1.064c-.079-.052-.328-.231-.472-.329a17 17 0 0 1-1.997-1.894c-.114-.127-.248-.288-.333-.387a19 19 0 0 1-1.142-1.78c-1.352-2.391-4.82-3.404-7.178-1.883-2.416 1.558-3.329 4.623-1.883 7.182 4.061 7.181 11.985 11.919 20.258 11.94 8.27.022 16.212-4.74 20.286-11.894 1.361-2.386.644-5.846-1.88-7.181" style="fill:#122a89"/></svg>