<svg xmlns="http://www.w3.org/2000/svg" xml:space="preserve" viewBox="0 0 215 220"><path d="M122.385 121.083c-2.691 1.784-10.761 4.431-14.909 4.431-4.147 0-12.217-2.647-14.909-4.431-13.763-9.122-15.203-2.226-15.203 2.047s9.723 9.086 17.439 12.356c3.723 1.578 6.587 2.659 12.673 2.91 6.086-.252 8.949-1.333 12.673-2.91 7.716-3.27 17.44-8.601 17.44-12.356 0-3.756-1.44-11.169-15.204-2.047m-55.695-6.165c.003-.017.009-.018.012-.037-.005.017-.007.019-.012.033zm2.852 5.532c.02.013.042.021.062.034a1 1 0 0 0-.18-.145c.053.042.069.069.111.107z" style="fill:#122a89"/><path d="M72.228 121.91c-.921-.407-1.772-.896-2.624-1.426.043.043.091.087.101.126-.008-.033-.107-.106-.171-.165-.371-.234-.272-.208-.111-.107-.179-.143-.375-.288-.45-.357-.364-.335-.679-.71-1.024-1.061-.118-.183-.244-.361-.357-.548a12 12 0 0 1-.388-.69l-.056-.113c-.052-.14-.139-.359-.161-.428a11 11 0 0 1-.214-.766c-.018-.078-.054-.313-.08-.457-.009-.139-.017-.258-.017-.275-.006-.243.007-.484.012-.726-.012.069-.025.138-.051.143.01-.002.032-.084.051-.147l.001-.079c.01-.684.045-.237.011.045.104-.368.287-1.27.327-1.394.014-.043.081-.267.15-.471.025-.047.026-.042.067-.119.252-.478.5-.954.784-1.414.243-.391.566-1.114.944-1.38l-.328.425q.197-.247.402-.488.271-.323.55-.639c.789-.894 1.622-1.749 2.454-2.603 1.973-2.025 2.168-5.646 0-7.637-2.133-1.957-5.531-2.162-7.637 0-4.438 4.556-8.956 10.089-8.518 16.88.433 6.709 4.772 12.495 10.881 15.192 2.577 1.138 5.921.839 7.388-1.937 1.24-2.34.823-6.166-1.936-7.384m75.995-5.813a1 1 0 0 0-.02.162l.02-.069c.002-.038-.005-.052 0-.093" style="fill:#122a89"/><path d="M150.539 99.163c-1.974-2.027-5.681-2.13-7.636 0-2 2.179-2.107 5.474 0 7.637.783.804 1.567 1.607 2.314 2.445q.28.314.554.635c.007.007.233.288.384.472l.196.268q.24.343.465.696.435.682.801 1.403c.022.044.081.172.138.294.045.12.091.24.105.284.163.483.257.979.39 1.468.005.293.033.585.025.88-.002.07-.032.265-.053.453.052-.245.145-.439.002.086l-.002.007c-.007.101-.022.222 0 .25-.027-.034-.025-.108-.021-.181-.058.203-.268.925-.373 1.264.115-.247.32-.592.008-.015l-.009.016c-.03.098-.057.184-.059.183-.016-.009.015-.086.057-.178-.122.225-.236.454-.365.676-.121.208-.255.407-.384.61.044-.054.086-.104.103-.096-.003-.001-.098.104-.126.131l-.014.022c-.33.527-.168.225-.015.007-.223.225-.821.89-.907.971-.182.173-.375.333-.565.497-.944.547-1.826 1.119-2.831 1.562-2.593 1.145-3.394 5.128-1.937 7.388 1.731 2.686 4.614 3.162 7.388 1.937 6.109-2.697 10.448-8.483 10.881-15.192.442-6.791-4.076-12.325-8.514-16.88" style="fill:#122a89"/><path d="M147.078 118.815c-.018.023-.031.037-.051.065l.028-.029z" style="fill:#122a89"/></svg>