<svg xmlns="http://www.w3.org/2000/svg" xml:space="preserve" viewBox="0 0 215 220"><path d="M148.338 106.624c-2.515-4.225-5.036-7.639-5.742-12.368-.421-2.821-3.98-4.346-6.456-3.666-2.965.815-4.084 3.656-3.666 6.457.632 4.239 2.705 8.129 4.899 11.756 1.993 3.296 4.095 6.349 4.978 9.976.402 1.649.393 2.635-.097 4.358a2 2 0 0 1-.095.262c-.222.447-.473.873-.744 1.293-.05.077-.111.143-.17.212a17 17 0 0 1-.887.892c-.096.083-.111.099-.136.123l-.249.169c-.376.22-.739.458-1.139.638-.136.061-.146.079-.147.093-.092.014-.192.029-.469.085-.378.077-.748.203-1.133.249.693-.083-1.987-.153-1.253-.04a9 9 0 0 1-1.404-.359 2 2 0 0 0-.229-.065 20 20 0 0 0-.383-.199c-.331-.168-.688-.215-1.034-.319.026-.219.121-.429.131-.648.073-1.614-.773-3.458-1.898-4.582-1.033-1.034-3.056-2.092-4.582-1.898-1.648.21-3.284.418-4.888.857-1.522.417-2.965 1.025-4.412 1.648-2.52 1.084-4.7 2.614-6.822 4.344-1.308 1.067-1.826 2.967-1.898 4.582-.077 1.726.765 3.347 1.898 4.583 1.095 1.192 2.993 1.898 4.582 1.898a4.9 4.9 0 0 0 2.497-.558c.766-.249 1.42-.692 1.989-1.277l-.756.584c1.403-1.082 2.949-1.937 4.557-2.674.951-.346 1.948-.526 2.931-.757.312 1.377 1.117 2.627 2.408 3.283 5.135 2.612 11.241 2.807 16.309-.129 4.764-2.759 7.695-7.719 8.213-13.133.53-5.555-1.933-11.014-4.703-15.67m-50.515 14.925c-1.448-.623-2.89-1.231-4.412-1.648-1.604-.439-3.24-.648-4.888-.857-1.525-.194-3.549.864-4.582 1.898-1.125 1.124-1.971 2.968-1.898 4.582.01.219.104.428.131.648-.347.104-.704.151-1.034.319-.171.087-.288.148-.383.199a2 2 0 0 0-.229.065c-.456.15-.929.286-1.404.359.733-.113-1.946-.043-1.253.04-.385-.046-.755-.171-1.133-.249a7 7 0 0 0-.469-.085c-.001-.014-.011-.032-.147-.093-.399-.179-.762-.418-1.139-.638l-.249-.169c-.025-.024-.04-.041-.136-.123-.308-.289-.6-.581-.887-.892-.059-.069-.12-.135-.17-.212a14 14 0 0 1-.744-1.293 2 2 0 0 1-.095-.262c-.49-1.723-.498-2.708-.097-4.358.883-3.627 2.984-6.68 4.978-9.976 2.194-3.627 4.267-7.517 4.899-11.756.418-2.801-.7-5.642-3.665-6.457-2.477-.68-6.036.845-6.457 3.666-.706 4.729-3.226 8.143-5.742 12.368-2.771 4.656-5.233 10.115-4.702 15.669.519 5.414 3.45 10.374 8.213 13.133 5.069 2.936 11.175 2.741 16.309.129 1.29-.656 2.097-1.906 2.408-3.282.983.231 1.98.41 2.931.757 1.608.737 3.155 1.591 4.557 2.674l-.756-.584c.57.586 1.223 1.029 1.989 1.277a4.9 4.9 0 0 0 2.497.558c1.589 0 3.488-.706 4.582-1.898 1.133-1.235 1.974-2.856 1.898-4.583-.072-1.615-.589-3.515-1.898-4.582-2.123-1.73-4.303-3.26-6.823-4.344" style="fill:#122a89"/></svg>