<svg xmlns="http://www.w3.org/2000/svg" xml:space="preserve" viewBox="0 0 215 220"><path d="M150.686 140.145c-2.505-4.299-7.359-10.831-11.138-7.393-3.594 3.269 10.197 22.307 6.764 30.953-1.275 3.212-4.139 3.144-6.657 3.277.146-.494.32-.975.345-1.524.136-3.038-2.831-5.151-5.798-5.798-8.114-1.768-14.623-.376-18.588 4.996-1.924 2.606-3.491 5.264-2.081 7.933.662 1.255 2.12 2.294 3.465 2.664 1.521.419 3.094.133 4.467-.584.581-.303 1.178-.566 1.772-.839a38 38 0 0 1 8.735-2.382c.742-.074 1.482-.159 2.229-.192.325-.014.596-.145.903-.203 0 .04-.016.055-.016.095 0 2.505 5.227 4.583 7.705 4.556 5.874-.063 11.158-3.493 13.308-8.184 3.499-7.633-2.873-23.013-5.415-27.375m-59.873-5.273c-2.216-5.432-2.072-11.767-2.014-17.527.088-8.812.867-17.62 1.855-26.372 1.788-15.841 4.188-31.778 7.905-47.293 1.295-5.404-7.034-7.71-8.331-2.297-3.896 16.265-6.339 32.984-8.214 49.59-1.006 8.917-1.8 17.894-1.86 26.873-.042 6.296-.091 13.396 2.328 19.324 2.073 5.078 10.435 2.856 8.331-2.298M80.751 159.66c-2.967.647-5.934 2.76-5.798 5.798.025.549.199 1.03.345 1.524-2.518-.133-5.382-.065-6.657-3.277-3.433-8.646 10.357-27.685 6.764-30.953-3.779-3.437-8.633 3.094-11.138 7.393-2.542 4.362-8.914 19.742-5.416 27.374 2.15 4.691 7.434 8.121 13.308 8.184 2.478.027 7.705-2.05 7.705-4.556 0-.04-.016-.056-.016-.095.307.058.577.189.903.203.748.033 1.488.117 2.229.192a38 38 0 0 1 8.735 2.382c.595.273 1.192.537 1.772.839 1.373.718 2.946 1.004 4.467.584 1.345-.37 2.803-1.41 3.465-2.664 1.41-2.668-.157-5.327-2.081-7.933-3.964-5.372-10.474-6.764-18.587-4.995" style="fill:#122a89"/></svg>