<svg xmlns="http://www.w3.org/2000/svg" xml:space="preserve" viewBox="0 0 215 220"><path d="M68.641 121.969c-3.433-8.646 10.357-27.684 6.764-30.953-3.779-3.437-8.633 3.094-11.138 7.393-2.542 4.362-8.914 19.742-5.416 27.374 2.15 4.691 7.434 8.121 13.308 8.184 2.478.027 7.705-2.05 7.705-4.556 0-7.546-8.708-1.108-11.223-7.442m82.045-23.56c-2.505-4.299-7.359-10.83-11.138-7.393-3.594 3.269 10.197 22.307 6.764 30.953-2.515 6.334-11.223-.104-11.223 7.443 0 2.506 5.227 4.583 7.705 4.556 5.874-.063 11.158-3.493 13.308-8.184 3.498-7.633-2.874-23.013-5.416-27.375" style="fill:#122a89"/><path d="M133.773 118.946c-5.018-.795-3.482 5.112-10.153 9.248-3.083 1.912-6.042 4.595-16.143 4.595s-13.061-2.684-16.143-4.595c-6.671-4.137-5.135-10.043-10.153-9.248-4.741.751-.858 10.466 4.837 15.023 5.812 4.651 10.548 5.529 21.46 5.98 10.912-.451 15.648-1.329 21.46-5.98 5.693-4.557 9.576-14.272 4.835-15.023" style="fill:#122a89"/></svg>