<svg xmlns="http://www.w3.org/2000/svg" xml:space="preserve" viewBox="0 0 215 220"><path d="M101.383 105.499c-2.621-.254-4.139-.08-6.695.345-3.039.505-5.517 1.329-8.254 2.757-2.969 1.55-4.134 2.572-6.697 5.602-2.137 2.526-2.72 5.685-1.079 7.4 1.443 1.509 3.379 1.386 4.859.746 1.441-.624 3.296-1.98 6.035-4.846 1.126-1.178 3.05-3.473 9.098-6.264 1.972-.91 4.547-1.521 5.09-3.221s-.578-2.346-2.357-2.519m33.728 8.109c-2.628-2.975-3.815-3.972-6.816-5.457-2.767-1.369-5.262-2.139-8.311-2.579-2.565-.37-4.085-.512-6.7-.201-1.775.21-2.883.882-2.303 2.569s3.167 2.243 5.158 3.11c6.107 2.66 8.08 4.913 9.231 6.067 2.799 2.806 4.683 4.122 6.138 4.715 1.493.608 3.431.689 4.842-.851 1.603-1.748.952-4.894-1.239-7.373" style="fill:#122a89"/></svg>