<svg xmlns="http://www.w3.org/2000/svg" xml:space="preserve" viewBox="0 0 215 220"><path d="M90.869 119.832c-2.319-2.919-3.692-8.258-3.408-13.791.606-11.795-7.258-11.468-9.581-6.387 0 0-2.149 3.919-2.135 12.097.016 9.993 5.328 17.301 17.127 20.926 3.126.96 11.459 2.074 12.95-1.001 1.655-3.413-8.424-3.63-14.953-11.844m47.422-2.522c-1.427-1.524-3.365-1.423-4.852-.799-1.448.608-3.317 1.945-6.086 4.781-1.138 1.166-3.087 3.44-9.165 6.166-1.982.889-4.563 1.472-5.125 3.166s.553 2.353 2.331 2.544c2.618.283 4.137.124 6.698-.273 3.044-.472 5.531-1.27 8.283-2.668 2.985-1.517 4.162-2.527 6.757-5.53 2.164-2.502 2.781-5.655 1.159-7.387" style="fill:#122a89"/></svg>