<svg xmlns="http://www.w3.org/2000/svg" xml:space="preserve" viewBox="0 0 215 220"><path d="M94.651 105.856c-.804 2.354-1.872 8.922 1.985 8.922 6.175 0 7.683-7.695 8.492-10.062 5.574-16.315 8.108-35.564-.366-50.577-9.772-17.314-14.712-5.642-10.432 2.795 5.657 15.843 5.759 33.004.321 48.922m45.062 50.559c-1.888-3.235-8.907-.457-13.475 1.37-2.129.852-9.855 4.688-19.351 5.537-4.435.396-10.183-1.85-13.95-3.098-9.939-3.293-6.554-6.322-3.983-11.355 2.599-5.089 3.814-7.102 6.252-12.269 2.456-5.205 3.308-11.792-.829-11.704-6.077.129-6.245 4.219-16.668 19.556-1.671 2.459-5.134 9.447-4.787 12.619.388 3.54.58 7.397 8.966 11.203 2.577 1.169 10.734 4.599 20.666 6.271 6.912 1.163 14.091-1.473 30.406-8.557 5.459-2.369 9.417-5.011 6.753-9.573" style="fill:#122a89"/></svg>