<svg xmlns="http://www.w3.org/2000/svg" xml:space="preserve" viewBox="0 0 215 220"><path d="M143.762 143.451c-4.423-2.559-10.027-1.181-12.586 3.27-.218.309-5.498 7.636-23.713 7.636-17.743 0-23.214-6.954-23.681-7.601-2.63-4.247-8.163-5.646-12.523-3.15a9.29 9.29 0 0 0-3.417 12.684c.981 1.702 10.42 16.643 39.621 16.643 29.204 0 38.647-14.941 39.625-16.643 2.559-4.451 1.117-10.279-3.326-12.839m-18.844-41.878c.977 0 1.976-.158 2.96-.489 4.859-1.635 7.481-6.901 5.843-11.763-2.046-6.086-1.617-14.544-1.202-22.725.183-3.523.352-6.975.352-10.241 0-5.129-4.155-9.288-9.288-9.288s-9.288 4.159-9.288 9.288c0 2.967-.162 6.1-.327 9.299-.478 9.45-1.023 20.159 2.148 29.588 1.3 3.881 4.921 6.331 8.802 6.331" style="fill:#122a89"/></svg>