<svg xmlns="http://www.w3.org/2000/svg" xml:space="preserve" viewBox="0 0 215 220"><path d="M131.188 153.874c-5.695 2.848-18.45 7.964-24.642 7.612-18.391-1.048-19.226-17.149-18.959-22.338.605-11.793 10.946-72.233 12.822-83.753 1.824-11.2-8.326-10.142-10.082-4.032-4.579 15.941-14.02 86.286-14.395 92.357-.688 11.145 2.054 18.661 12.595 24.972 7.585 4.541 15.65 4.979 21.557 4.101a57 57 0 0 0 18.848-6.268c3.809-2.053 7.654-3.758 9.613-7.614 2.022-3.982-1.48-7.976-7.357-5.037" style="fill:#122a89"/></svg>