<svg xmlns="http://www.w3.org/2000/svg" xml:space="preserve" viewBox="0 0 215 220"><path d="M58.967 87.954c-13.015 0-23.604 9.89-23.604 22.045s10.589 22.047 23.604 22.047c13.012 0 23.601-9.89 23.601-22.047-.001-12.154-10.59-22.045-23.601-22.045" style="fill:#122a89"/><path d="M156.035 82.104c-14.646 0-26.755 10.524-28.678 24.122-3.944-.653-12.301-1.87-19.856-1.87-7.285 0-15.298 1.129-19.397 1.795-1.99-13.562-14.281-24.047-29.137-24.047-16.242 0-29.455 12.514-29.455 27.895 0 15.383 13.213 27.897 29.455 27.897 15.132 0 27.626-10.872 29.259-24.801 3.459-.579 12.009-1.875 19.275-1.875 7.62 0 16.675 1.428 19.761 1.957 1.645 13.89 13.912 24.719 28.773 24.719 15.975 0 28.971-12.514 28.971-27.897.001-15.381-12.996-27.895-28.971-27.895m-97.068 51.892c-14.09 0-25.555-10.764-25.555-23.997 0-13.231 11.465-23.995 25.555-23.995s25.551 10.764 25.551 23.995c-.001 13.233-11.462 23.997-25.551 23.997m97.068 0c-13.827 0-25.075-10.764-25.075-23.997 0-13.231 11.248-23.995 25.075-23.995 13.823 0 25.071 10.764 25.071 23.995 0 13.233-11.248 23.997-25.071 23.997" style="fill:#122a89"/><path d="M156.035 87.954c-12.753 0-23.124 9.89-23.124 22.045s10.372 22.047 23.124 22.047c12.749 0 23.121-9.89 23.121-22.047 0-12.154-10.372-22.045-23.121-22.045" style="fill:#122a89"/></svg>