<svg xmlns="http://www.w3.org/2000/svg" xml:space="preserve" viewBox="0 0 215 220"><path d="M156.033 92.607c-7.92 0-30.847.024-34.047 16.209-3.407-.689-9.183-1.675-14.487-1.675-5.302 0-11.076.985-14.487 1.675-3.2-16.184-26.128-16.209-34.047-16.209-17.655 0-36.658 4.923-36.658 15.735 0 7.349 16.272 19.051 35.553 19.051 14.658 0 32.597-.025 35.201-11.614 2.671-.578 9.005-1.813 14.438-1.813 5.426 0 11.748 1.231 14.439 1.814 2.604 11.588 20.546 11.613 35.204 11.613 17.636 0 35.553-11.084 35.553-19.051 0-10.812-19.003-15.735-36.662-15.735M57.86 123.276c-18.287 0-31.653-10.631-31.653-15.15 0-7.409 16.657-11.835 32.757-11.835 21.129 0 30.548 5.015 30.548 16.257.001 9.921-14.333 10.728-31.652 10.728m99.281 0c-17.32 0-31.657-.808-31.657-10.728 0-11.242 9.42-16.257 30.548-16.257 16.104 0 32.761 4.426 32.761 11.835.001 4.15-14.374 15.15-31.652 15.15" style="fill:#122a89"/><path d="M58.964 98.242c-18.154 0-30.807 5.209-30.807 9.884 0 2.642 11.503 13.2 29.703 13.2 16.249 0 29.703-.661 29.703-8.778-.001-9.894-8.822-14.306-28.599-14.306m97.069 0c-19.776 0-28.598 4.413-28.598 14.307 0 8.117 13.453 8.778 29.706 8.778 16.714 0 29.703-10.528 29.703-13.2 0-4.677-12.653-9.885-30.811-9.885" style="fill:#122a89"/></svg>