<svg xmlns="http://www.w3.org/2000/svg" xml:space="preserve" viewBox="0 0 215 220"><path d="M80.15 156.447a1.013 1.013 0 0 1-.326-1.971c.803-.273 1.774-1.296 2.599-2.736.716-1.251 1.068-2.535 1.074-3.924a1.013 1.013 0 0 1 1.013-1.009c.593.013 1.015.455 1.013 1.017-.008 1.725-.459 3.382-1.343 4.923-.633 1.107-1.958 3.052-3.703 3.646a1 1 0 0 1-.327.054m54.951 0q-.164 0-.326-.053c-1.747-.594-3.072-2.54-3.705-3.647-.884-1.545-1.335-3.201-1.343-4.923-.002-.561.435-.924 1.013-1.017.558 0 1.011.45 1.013 1.009.006 1.386.358 2.67 1.074 3.925.825 1.439 1.798 2.462 2.601 2.734.528.18.813.756.633 1.285a1.02 1.02 0 0 1-.96.687" style="fill:#122a89"/><path d="M162.753 98.699c.198-25.298-3.827-43.159-11.959-53.09C140.131 32.597 125.533 26 107.404 26s-32.728 6.597-43.389 19.61c-8.133 9.927-12.156 27.79-11.959 53.088.018 2.46.017 4.781.015 7.029-.009 10.938-.016 20.388 2.405 35.649 2.511 15.823 7.542 23.512 16.546 32.957 11.981 12.562 25.582 20.063 36.382 20.063 10.801 0 24.402-7.501 36.382-20.063 9.004-9.445 14.034-17.134 16.546-32.957 2.42-15.253 2.414-24.697 2.404-35.631 0-2.253-.002-4.58.017-7.046m-5.412 7.051c.008 10.705.016 19.948-2.338 34.781-2.302 14.504-6.709 21.255-15.121 30.078-10.983 11.516-23.124 18.392-32.477 18.392-9.354 0-21.495-6.876-32.477-18.392-8.411-8.822-12.82-15.574-15.121-30.078-2.356-14.841-2.348-24.09-2.339-34.799a812 812 0 0 0-.015-7.075C57.267 74.991 60.981 57.83 68.19 49.03c9.586-11.702 22.78-17.635 39.215-17.635 16.434 0 29.629 5.933 39.215 17.634 7.209 8.802 10.922 25.963 10.738 49.627a746 746 0 0 0-.017 7.094" style="fill:#122a89"/></svg>