<svg xmlns="http://www.w3.org/2000/svg" xml:space="preserve" viewBox="0 0 215 220"><path d="M152.832 66.504c-4.906-10.559-14.643-20.32-23.678-23.737-7.668-2.902-13.522-3.452-21.64-3.452s-13.973.55-21.641 3.452c-9.035 3.417-18.772 13.179-23.678 23.737-6.507 14.001-8.376 26.291-6.065 39.847.883 5.179 1.883 7.648 3.873 12.571a324 324 0 0 1 5.469 14.363c1.036 2.918 1.932 6.321 2.881 9.922 3.051 11.584 6.847 26 18.443 34.119 4.409 3.087 14.806 4.207 20.719 4.207s16.309-1.12 20.719-4.208c11.165-7.817 15.191-22.51 18.426-34.314.969-3.535 1.883-6.873 2.897-9.726a323 323 0 0 1 5.469-14.363c1.99-4.922 2.989-7.392 3.873-12.571 2.31-13.556.44-25.846-6.067-39.847m1.359 39.045c-.796 4.669-1.672 6.836-3.592 11.583a327 327 0 0 0-5.542 14.555c-1.072 3.018-2.009 6.439-3.002 10.061-3.191 11.641-6.807 24.836-16.561 31.666-2.59 1.813-10.824 3.345-17.981 3.345s-15.392-1.532-17.981-3.344c-10.162-7.116-13.563-20.03-16.563-31.425-.976-3.701-1.896-7.198-2.999-10.303a326 326 0 0 0-5.542-14.555c-1.92-4.747-2.796-6.914-3.592-11.583-2.139-12.544-.386-23.965 5.687-37.034 4.353-9.368 13.201-18.319 21.038-21.284 7.022-2.658 12.228-3.144 19.952-3.144s12.929.486 19.951 3.144c7.837 2.965 16.685 11.916 21.038 21.284 6.075 13.069 7.828 24.49 5.689 37.034" style="fill:#122a89"/></svg>