<svg xmlns="http://www.w3.org/2000/svg" xml:space="preserve" viewBox="0 0 215 220"><path d="M162.684 107.968c-.902-4.007-1.754-7.79-2.323-11.174-.446-2.647-.855-5.145-1.239-7.505-2.854-17.463-4.576-28.003-11.411-36.344-14.787-18.05-33.994-18.05-40.306-18.05s-25.519 0-40.306 18.05c-6.835 8.341-8.556 18.881-11.411 36.344-.385 2.359-.793 4.858-1.239 7.505-.569 3.384-1.422 7.167-2.323 11.174-2.667 11.833-5.689 25.244-3.72 37.432 2.105 13.033 8.414 22.601 19.853 30.108 9.899 6.495 25.264 10.692 39.146 10.692s29.248-4.197 39.146-10.692c11.44-7.507 17.748-17.075 19.853-30.108 1.969-12.188-1.054-25.599-3.72-37.432m-.992 36.669c-1.902 11.777-7.38 20.066-17.761 26.877-9.172 6.022-23.51 9.911-36.527 9.911s-27.354-3.89-36.527-9.911c-10.381-6.811-15.859-15.1-17.761-26.877-1.821-11.275 1.093-24.209 3.664-35.62.918-4.072 1.785-7.919 2.376-11.432.446-2.654.856-5.158 1.243-7.526 2.818-17.241 4.37-26.738 10.392-34.09 13.355-16.301 30.861-16.301 36.613-16.301s23.259 0 36.613 16.301c6.022 7.351 7.573 16.849 10.392 34.09.387 2.369.797 4.873 1.243 7.526.591 3.514 1.458 7.36 2.376 11.432 2.571 11.411 5.485 24.345 3.664 35.62" style="fill:#122a89"/></svg>