<svg xmlns="http://www.w3.org/2000/svg" xml:space="preserve" viewBox="0 0 215 220"><path d="M146.137 56.615c-10.097-12.323-23.129-18.573-38.733-18.573s-28.635 6.249-38.733 18.573c-7.958 9.715-11.281 23.266-11.109 45.313.087 11.237 2.551 28.003 13.794 44.057 3.192 4.559 4.97 9.689 6.69 14.651 2.051 5.912 4.172 12.025 8.663 17.064 7.443 8.347 14.585 9.046 20.695 9.046s13.252-.699 20.695-9.047c4.491-5.038 6.612-11.151 8.663-17.063 1.72-4.962 3.498-10.092 6.69-14.65 11.245-16.058 13.707-32.823 13.794-44.058.171-22.047-3.151-35.598-11.109-45.313m-13.886 102.456c-1.984 5.722-3.857 11.124-7.714 15.45-6.135 6.881-11.606 7.451-17.132 7.451s-10.997-.57-17.132-7.45c-3.857-4.327-5.731-9.73-7.714-15.451-1.828-5.27-3.718-10.72-7.292-15.824-10.538-15.048-12.847-30.796-12.93-41.357-.163-20.836 2.836-33.472 10.029-42.25 9.275-11.321 20.737-16.825 35.04-16.825s25.765 5.504 35.04 16.825v.001c7.192 8.778 10.191 21.413 10.029 42.25-.081 10.558-2.39 26.304-12.93 41.357-3.576 5.104-5.466 10.553-7.294 15.823" style="fill:#122a89"/></svg>