<svg xmlns="http://www.w3.org/2000/svg" xml:space="preserve" viewBox="0 0 215 220"><path d="M146.137 56.616c-10.097-12.325-23.129-18.574-38.733-18.574s-28.635 6.249-38.733 18.574c-7.958 9.715-11.281 23.267-11.109 45.312.058 7.321 1.919 14.072 3.888 21.218 1.76 6.385 3.581 12.987 4.238 20.506 1.003 11.465 9.617 20.706 17.215 28.858 1.321 1.417 2.607 2.796 3.805 4.139 8.068 9.049 15.674 10.095 20.695 10.095s12.627-1.046 20.695-10.095c1.198-1.343 2.484-2.722 3.805-4.139 7.599-8.152 16.213-17.393 17.215-28.858.69-7.879 2.531-14.51 4.311-20.922 1.933-6.965 3.76-13.543 3.816-20.803.172-22.044-3.15-35.596-11.108-45.311m-17.725 112.64a260 260 0 0 0-3.875 4.218c-6.715 7.532-12.684 8.498-17.132 8.498s-10.417-.966-17.132-8.498a265 265 0 0 0-3.875-4.218c-7.075-7.59-15.093-16.192-15.953-26.019-.696-7.953-2.574-14.768-4.392-21.36-1.884-6.835-3.664-13.291-3.716-19.987-.163-20.835 2.836-33.471 10.029-42.25 9.275-11.321 20.737-16.825 35.04-16.825s25.765 5.504 35.04 16.825c7.192 8.779 10.191 21.415 10.029 42.251-.051 6.629-1.796 12.911-3.642 19.562-1.837 6.62-3.738 13.466-4.466 21.784-.863 9.827-8.88 18.429-15.955 26.019" style="fill:#122a89"/></svg>