<svg xmlns="http://www.w3.org/2000/svg" xml:space="preserve" viewBox="0 0 215 220"><path d="M152.832 66.503c-4.906-10.558-14.643-20.319-23.678-23.737-7.668-2.902-13.522-3.452-21.64-3.452s-13.973.55-21.641 3.452c-9.035 3.418-18.772 13.179-23.678 23.737-6.506 14.001-8.376 26.291-6.065 39.847l.189 1.107c1.304 7.695 2.167 12.779 8.104 29.498 4.354 12.26 9.65 22.455 22.578 35.382 2.644 2.644 8.146 8.146 20.514 8.146 12.366 0 17.869-5.502 20.513-8.146 11.027-11.027 17.568-21.278 22.578-35.382 5.937-16.719 6.799-21.803 8.104-29.498l.189-1.107c2.31-13.555.439-25.845-6.067-39.847m1.359 39.046-.189 1.111c-1.263 7.449-2.098 12.37-7.896 28.698-4.016 11.31-9.202 21.352-21.454 33.604-2.524 2.524-6.748 6.748-17.138 6.748s-14.615-4.224-17.139-6.748c-12.347-12.347-17.215-21.672-21.454-33.604-5.798-16.328-6.633-21.25-7.896-28.698l-.189-1.111c-2.139-12.543-.385-23.964 5.687-37.034 4.353-9.367 13.201-18.318 21.038-21.284 7.022-2.658 12.228-3.144 19.952-3.144s12.929.486 19.951 3.144c7.837 2.966 16.685 11.917 21.038 21.284 6.074 13.069 7.828 24.491 5.689 37.034" style="fill:#122a89"/></svg>