<svg xmlns="http://www.w3.org/2000/svg" xml:space="preserve" viewBox="0 0 215 220"><path d="M160.163 117.588c-.91-4.677-1.696-8.717-1.266-11.237 2.312-13.555.441-25.846-6.065-39.849-4.906-10.558-14.643-20.319-23.678-23.737-7.666-2.901-13.52-3.451-21.64-3.451h-.001c-8.119 0-13.973.549-21.64 3.451-9.035 3.418-18.772 13.179-23.678 23.737-6.506 14.003-8.376 26.294-6.065 39.849.43 2.52-.356 6.56-1.266 11.237-1.705 8.764-4.04 20.767.119 32.476 4.414 12.43 14.054 18.654 24.26 25.244l2.374 1.537c6.038 3.931 16.929 6.784 25.896 6.784 8.966 0 19.858-2.853 25.896-6.784l2.375-1.537c10.206-6.591 19.845-12.814 24.259-25.244 4.159-11.708 1.824-23.712.12-32.476m-4.617 30.88c-3.87 10.898-12.433 16.428-22.349 22.831l-2.39 1.548c-5.265 3.427-15.278 6.011-23.292 6.011s-18.028-2.583-23.291-6.011l-2.389-1.548c-9.917-6.403-18.481-11.933-22.351-22.831-3.723-10.48-1.621-21.286.068-29.969.999-5.136 1.862-9.572 1.286-12.95-2.139-12.544-.385-23.965 5.687-37.034 4.353-9.369 13.201-18.321 21.038-21.284 7.02-2.658 12.226-3.144 19.952-3.144 7.724 0 12.931.486 19.951 3.144 7.837 2.963 16.685 11.915 21.038 21.284 6.072 13.069 7.826 24.491 5.687 37.034-.575 3.378.287 7.814 1.286 12.95 1.688 8.683 3.791 19.488.069 29.969" style="fill:#122a89"/></svg>