<svg xmlns="http://www.w3.org/2000/svg" xml:space="preserve" viewBox="0 0 215 220"><path d="M152.832 66.504c-4.906-10.559-14.643-20.32-23.678-23.737-7.668-2.902-13.522-3.452-21.64-3.452s-13.973.55-21.641 3.452c-9.035 3.417-18.772 13.179-23.678 23.737-7.614 16.385-6.808 29.338-5.016 39.847 2.163 12.684 5.721 30.566 10.39 43.714.434 1.223.815 2.317 1.157 3.303 3.308 9.525 3.687 9.984 13.525 16.391l.414.269c1.007.656 2.135 1.449 3.359 2.307 5.844 4.103 13.849 9.722 21.49 9.722s15.646-5.62 21.491-9.722c1.221-.858 2.35-1.65 3.356-2.306l.414-.269c9.839-6.406 10.218-6.866 13.526-16.391.343-.986.723-2.08 1.157-3.303 4.669-13.149 8.227-31.03 10.39-43.714 1.793-10.51 2.598-23.463-5.016-39.848m.31 39.045c-2.131 12.499-5.627 30.091-10.182 42.919-.438 1.234-.822 2.339-1.168 3.334-2.867 8.257-2.867 8.257-11.621 13.956l-.415.27c-1.048.682-2.222 1.506-3.494 2.399-5.323 3.737-12.615 8.856-18.748 8.856s-13.424-5.118-18.748-8.855c-1.273-.893-2.448-1.718-3.496-2.4l-.414-.269c-8.754-5.7-8.754-5.7-11.621-13.957-.346-.995-.73-2.1-1.168-3.334-4.555-12.828-8.051-30.42-10.182-42.919-1.669-9.785-2.423-21.837 4.639-37.034 4.353-9.368 13.201-18.319 21.038-21.284 7.022-2.658 12.228-3.144 19.952-3.144s12.929.486 19.951 3.144c7.837 2.965 16.685 11.916 21.038 21.284 7.062 15.197 6.308 27.249 4.639 37.034" style="fill:#122a89"/></svg>