<svg xmlns="http://www.w3.org/2000/svg" xml:space="preserve" viewBox="0 0 215 220"><path d="M152.832 66.502c-4.906-10.558-14.643-20.319-23.678-23.737-7.666-2.901-13.52-3.451-21.64-3.451s-13.974.549-21.641 3.451c-9.035 3.418-18.772 13.179-23.678 23.737-6.772 14.574-8.804 26.863-6.59 39.847.85 4.983 1.132 9.629 1.405 14.124.453 7.494.883 14.571 3.742 22.621 4.56 12.84 14.053 22.426 24.209 31.922 4.561 4.264 8.99 6.318 14.104 6.318 2.602 0 5.385-.533 8.449-1.575 9.081 3.095 15.67 1.693 22.553-4.742 10.155-9.496 19.648-19.082 24.208-31.922 2.858-8.05 3.288-15.127 3.742-22.621.273-4.495.555-9.142 1.405-14.124 2.214-12.985.182-25.274-6.59-39.848m1.884 39.045c-.892 5.237-1.182 10.016-1.462 14.637-.434 7.147-.843 13.898-3.476 21.313-4.2 11.828-13.263 20.955-22.97 30.032-5.79 5.411-10.625 6.312-18.477 3.456a2.35 2.35 0 0 0-1.633 0c-7.855 2.856-12.691 1.955-18.477-3.456-9.708-9.077-18.77-18.204-22.971-30.032-2.633-7.414-3.042-14.166-3.476-21.313-.28-4.621-.57-9.4-1.462-14.637-2.042-11.971-.126-23.392 6.212-37.033 4.353-9.369 13.201-18.321 21.038-21.284 7.02-2.658 12.226-3.144 19.952-3.144 7.724 0 12.931.486 19.951 3.144 7.837 2.963 16.685 11.915 21.038 21.284 6.338 13.641 8.255 25.063 6.213 37.033" style="fill:#122a89"/></svg>