<svg xmlns="http://www.w3.org/2000/svg" xml:space="preserve" viewBox="0 0 215 220"><path d="M153.881 66.501c-5.323-11.454-16.468-20.612-24.727-23.737-7.668-2.9-13.521-3.449-21.64-3.449s-13.973.549-21.641 3.449c-8.258 3.125-19.403 12.283-24.727 23.737-6.241 13.434-7.95 25.723-5.541 39.849.871 5.107 1.141 11.422 1.425 18.108.444 10.419.904 21.192 3.721 29.125 3.685 10.376 9.956 13.862 17.217 17.898 2.329 1.295 4.736 2.632 7.319 4.314 7.294 4.751 14.356 6.965 22.226 6.965s14.931-2.213 22.225-6.965c2.583-1.682 4.99-3.019 7.319-4.314 7.261-4.036 13.533-7.523 17.217-17.898 2.817-7.933 3.276-18.706 3.721-29.125.285-6.686.554-13.001 1.425-18.108 2.411-14.126.702-26.415-5.539-39.849m.835 39.047c-.921 5.404-1.197 11.866-1.489 18.708-.429 10.065-.874 20.475-3.45 27.73-3.081 8.677-7.838 11.32-15.038 15.324-2.288 1.272-4.882 2.714-7.604 4.486-6.573 4.282-12.624 6.191-19.62 6.191s-13.048-1.91-19.621-6.191c-2.723-1.772-5.316-3.214-7.604-4.486-7.2-4.004-11.957-6.647-15.038-15.324-2.576-7.255-3.021-17.665-3.45-27.73-.292-6.842-.567-13.304-1.489-18.708-2.237-13.113-.644-24.534 5.163-37.034C70.21 58.326 80.39 49.943 87.563 47.23c7.021-2.656 12.227-3.142 19.952-3.142s12.93.486 19.951 3.142c7.173 2.714 17.353 11.096 22.087 21.284 5.806 12.498 7.399 23.921 5.163 37.034" style="fill:#122a89"/></svg>