<svg xmlns="http://www.w3.org/2000/svg" xml:space="preserve" viewBox="0 0 215 220"><path d="M157.739 106.35c1.791-10.51 2.597-23.464-5.017-39.847-4.905-10.557-14.641-20.318-23.677-23.737-7.67-2.901-13.524-3.452-21.641-3.452s-13.971.55-21.641 3.452c-9.036 3.419-18.772 13.18-23.677 23.737-7.614 16.384-6.808 29.337-5.017 39.847 1.067 6.251.505 9.56-.089 13.063-.631 3.716-1.283 7.558-.113 14.517 2.238 13.294 20.256 39.266 29.885 45.537 6.34 4.128 12.13 5.736 20.653 5.736s14.313-1.608 20.653-5.736c9.628-6.271 27.647-32.243 29.885-45.537 1.17-6.959.519-10.801-.113-14.517-.596-3.503-1.158-6.812-.091-13.063m-50.335 74.081c-7.6 0-12.491-1.345-18.047-4.963-8.608-5.606-25.805-30.581-27.782-42.329-1.037-6.164-.48-9.45.111-12.927.635-3.742 1.292-7.612.089-14.664-1.668-9.786-2.422-21.838 4.639-37.034 4.352-9.367 13.2-18.318 21.037-21.284 7.022-2.657 12.229-3.143 19.952-3.143s12.929.486 19.952 3.143c7.837 2.966 16.685 11.918 21.037 21.284 7.061 15.197 6.308 27.249 4.639 37.034-1.202 7.051-.546 10.921.089 14.664.591 3.478 1.148 6.763.111 12.927-1.976 11.748-19.174 36.723-27.782 42.329-5.554 3.618-10.445 4.963-18.045 4.963" style="fill:#122a89"/></svg>