<svg xmlns="http://www.w3.org/2000/svg" xml:space="preserve" viewBox="0 0 215 220"><path d="M147.886 53.061c-9.297-11.348-23.297-17.347-40.481-17.347-17.187 0-31.184 5.999-40.481 17.347-7.66 9.351-11.79 26.03-11.629 46.965l.013 1.648c.092 12.428.186 25.279 2.654 40.826 2.065 13.012 11.073 22.211 18.31 29.602.909.929 1.789 1.827 2.62 2.698 10.424 10.933 20.455 10.933 28.514 10.933s18.09 0 28.514-10.933c.831-.872 1.711-1.77 2.62-2.698 7.237-7.391 16.245-16.589 18.31-29.602 2.468-15.547 2.562-28.399 2.654-40.826l.013-1.649c.159-20.934-3.971-37.613-11.631-46.964m6.843 48.577c-.09 12.252-.184 24.921-2.596 40.114-1.827 11.508-10.242 20.103-17.006 27.01-.923.944-1.817 1.857-2.663 2.744-9.015 9.453-17.539 9.453-25.06 9.453s-16.045 0-25.06-9.453c-.846-.887-1.74-1.8-2.663-2.744-6.764-6.907-15.179-15.502-17.006-27.01-2.412-15.193-2.506-27.862-2.596-40.114l-.013-1.649c-.154-19.822 3.593-35.413 10.549-43.903 8.359-10.205 21.082-15.599 36.789-15.599s28.429 5.395 36.789 15.599v.001c6.956 8.489 10.703 24.081 10.549 43.901z" style="fill:#122a89"/></svg>