<svg xmlns="http://www.w3.org/2000/svg" xml:space="preserve" viewBox="0 0 215 220"><path d="M146.137 56.616c-10.097-12.326-23.129-18.575-38.733-18.575S78.769 44.29 68.672 56.615c-7.958 9.715-11.281 23.266-11.109 45.313.058 7.546 2.025 17.449 4.108 27.932 1.664 8.383 3.386 17.051 4.018 24.28.8 9.145 6.536 12.536 12.083 15.817 3.089 1.826 6.282 3.714 8.937 6.692 8.068 9.049 15.674 10.096 20.695 10.096s12.627-1.046 20.695-10.095c2.656-2.978 5.848-4.867 8.937-6.693 5.546-3.281 11.282-6.672 12.083-15.817.663-7.575 2.406-16.32 4.092-24.776 2.045-10.26 3.976-19.951 4.034-27.436.172-22.047-3.15-35.597-11.108-45.312m-11.53 109.232c-3.245 1.919-6.921 4.093-10.07 7.625-6.717 7.532-12.684 8.498-17.132 8.498s-10.415-.967-17.132-8.499c-3.149-3.531-6.825-5.705-10.07-7.624-5.324-3.148-9.171-5.424-9.758-12.123-.654-7.489-2.403-16.287-4.092-24.794-2.036-10.256-3.96-19.944-4.016-27.04-.163-20.836 2.836-33.472 10.029-42.25 9.275-11.322 20.737-16.826 35.04-16.826s25.765 5.504 35.04 16.826v.001c7.192 8.778 10.191 21.413 10.029 42.25-.054 7.032-1.942 16.507-3.942 26.539-1.711 8.583-3.481 17.458-4.166 25.295-.59 6.699-4.436 8.974-9.76 12.122" style="fill:#122a89"/></svg>