<svg xmlns="http://www.w3.org/2000/svg" xml:space="preserve" viewBox="0 0 215 220"><path d="M148.01 108.924c-6.135-6.769-10.978-11.84-20.718-17.223-9.422-5.208-17.989-6.268-28.42-3.392-7.402 2.041-15.568 7.236-20.894 12.831-6.091 6.4-8.346 9.905-11.431 15.783-3.718 7.083 2.95 9.731 6.805 4.431 3.879-5.333 11.501-12.352 16.449-16.766 4.131-3.686 9.223-5.888 14.927-6.935 10.566-1.939 17.801 2.691 18.679 3.075 5.708 2.682 13.127 9.674 16.585 12.584 4.288 3.608 8.701 4.973 10.625 3.199 2.093-1.93-.003-4.713-2.607-7.587" style="fill:#122a89"/><path d="M107.163 102.851c-9.14.923-14.31 3.401-20.795 10.521-5.669 6.225-5.948 13.44-1.917 19.757 5.231 8.197 13.031 10.338 21.351 10.338 11.556 0 17.409-3.38 21.042-7.554 3.133-3.599 4.691-7.185 4.643-12.919-.047-5.515-1.019-9.259-6.401-14.088-5.653-5.071-12.229-6.63-17.923-6.055m.573 21.728a6.157 6.157 0 1 1 0-12.314 6.157 6.157 0 0 1 0 12.314M76.369 94.764c3.489-2.732 10.38-6.302 14.855-8.545 3.736-1.873 8.366-2.964 13.568-3.447 9.636-.896 16.298 1.59 17.105 1.799 5.246 1.456 12.102 5.173 15.293 6.724 3.957 1.923 8.005 2.68 9.745 1.778 1.893-.981-.053-2.452-2.464-3.975-5.679-3.587-10.16-6.276-19.119-9.181-8.667-2.809-16.508-3.453-26.012-2.068-6.744.982-14.151 3.597-18.958 6.451-5.499 3.264-7.522 5.062-10.279 8.087-3.323 3.644 2.799 5.093 6.266 2.377" style="fill:#122a89"/></svg>