<svg xmlns="http://www.w3.org/2000/svg" xml:space="preserve" viewBox="0 0 215 220"><path d="M146.681 107.205c-6.135-6.769-10.978-11.84-20.718-17.223-9.422-5.208-17.988-6.268-28.42-3.392-7.402 2.041-15.568 7.236-20.893 12.831-6.091 6.4-8.518 9.817-11.432 15.783-1.435 2.938-1.129 5.286-.063 6.613.06.211.109.426.234.616 2.552 3.863 5.124 6.079 10.643 10.094 4.825 3.509 17.926 8.124 27.567 8.124 9.672 0 18.688-1.433 27.305-4.895 8.123-3.263 10.88-5.135 16.461-9.576 4.02-3.199 5.28-4.825 5.316-7.076.344-1.949-3.395-9.025-6-11.899m-47.076-7.996a6.157 6.157 0 1 1 0 12.314 6.157 6.157 0 0 1 0-12.314m27.761 31.202c-4.207 1.392-11.153 4.267-21.604 4.267-9.802 0-19.708-3.773-23.457-6.08a69.6 69.6 0 0 1-10.889-8.236c2.147-2.913 5.552-6.519 9.029-9.946-.208 3.287.713 6.579 2.678 9.657 5.231 8.196 13.031 10.338 21.351 10.338 11.556 0 17.409-3.381 21.042-7.555 3.133-3.599 4.691-7.185 4.643-12.919-.027-3.234-.503-5.859-1.87-8.451 4.826 3.087 9.942 7.139 12.126 9.553 2.693 2.977 4.361 5.11 6.001 8.424-5.13 4.486-14.155 9.329-19.05 10.948" style="fill:#122a89"/><path d="M75.041 93.046c3.489-2.732 10.379-6.302 14.854-8.545 3.736-1.873 8.366-2.964 13.568-3.447 9.636-.896 16.299 1.59 17.105 1.799 5.246 1.456 12.102 5.173 15.293 6.724 3.957 1.923 8.005 2.68 9.745 1.778 1.893-.981-.053-2.452-2.464-3.975-5.68-3.587-10.16-6.276-19.12-9.181-8.667-2.809-16.508-3.453-26.012-2.068-6.744.982-14.151 3.597-18.958 6.451-5.499 3.264-7.522 5.062-10.279 8.087-3.322 3.644 2.801 5.093 6.268 2.377" style="fill:#122a89"/></svg>