<svg xmlns="http://www.w3.org/2000/svg" xml:space="preserve" viewBox="0 0 215 220"><path d="M154.346 117.455c-5.859-8.808-11.889-19.544-18.942-21.334-10.813-2.745-21.085-3.266-39.917-2.47-8.391.355-15.608.882-21.411 4.396-5.291 3.203-10.736 17.264-12.716 23.022-2.037 5.923 3.954 8.003 6.103 4.58 3.712-5.913 6.224-15.72 11.738-18.241 2.56-1.17 8.063-1.994 14.029-2.48-1.256 1.489-2.09 3.229-2.494 5.703-.572 3.504-.323 5.983 2.792 9.623 3.271 3.822 7.643 3.789 11.558 4.034 6.287.392 9.964 1.098 15.131-2.725 4.518-3.343 5.496-7.891 3.458-12.33-.852-1.854-2.019-3.233-3.308-4.424 4.116.258 7.338.719 10.587 1.673 6.397 1.88 10.581 8.322 13.234 12 4.583 6.355 7.552 7.568 9.572 6.372 3.226-1.911 2.508-4.509.586-7.399" style="fill:#122a89"/></svg>