<svg xmlns="http://www.w3.org/2000/svg" xml:space="preserve" viewBox="0 0 215 220"><path d="M143.916 112.61c-9.749-12.338-20.035-22.248-39.565-26.299-15.272-3.167-28.785 9.23-41.902 21.208-5.413 4.943-2.679 10.413 3.715 6.758 3.991-2.282 7.544-4.346 10.866-6.179-.045 1.404-.011 2.808.197 4.135 1.213 7.75 7.223 13.873 10.965 16.324 5.967 3.909 15.978 7.069 22.698 6.057 13.732-2.067 19.4-11.256 18.984-18.884 7.916 6.165 16.18 11.776 26.521 11.337 4.017-.171-5.234-5.288-12.479-14.457M94.4 110.409a6.138 6.138 0 1 1 2.132-12.09 6.138 6.138 0 1 1-2.132 12.09" style="fill:#122a89"/></svg>