<svg xmlns="http://www.w3.org/2000/svg" xml:space="preserve" viewBox="0 0 215 220"><path d="M153.624 98.658c-9.451-6.104-23.89-10.107-37.304-10.845-11.768-.647-25.19 1.252-34.598 5.831-8.613 4.192-23.248 20.354-22.772 27.192.18 2.594 4.636-.191 12.279-7.479.407-.388.775-.745 1.172-1.127.246-.155.529-.34.797-.512-.079.723-.188 1.433-.166 2.203.198 6.879 6.147 12.166 15.219 15.925 6.134 2.541 17.214 4.687 28.583 1.413 11.398-3.282 17.341-13.145 16.964-20.399-.099-1.902-.882-3.991-2.125-6.014 1.282.594 2.464 1.176 3.405 1.705 7.15 4.021 10.723 5.92 14.553 7.447 5.051 2.012 6.588 2.558 7.588.858s-8.1-9.118-13.668-12.433c-3.103-1.847-6.595-3.49-10.24-4.966 11.912 2.42 20.053 5.658 22.592 5.761 2.978.121 3.22-1.008-2.279-4.56m-53.359 12.571a6.5 6.5 0 1 1 0-12.999 6.5 6.5 0 0 1 0 12.999" style="fill:#122a89"/></svg>