<svg xmlns="http://www.w3.org/2000/svg" xml:space="preserve" viewBox="0 0 215 220"><path d="M129.034 112c.318-1.604.274-3.29-.354-4.778-.063-.151-.199-.267-.273-.414.859-1.323 1.49-2.804 1.56-4.359.202-4.497-3.83-7.754-8-8l-20.082-1.184c-4.78-.282-9.319 5.201-7.767 9.881l-1.438-.358c-3.911-.973-7.879.939-9.438 4.632-1.454 3.445-.283 8.205 3.273 9.99 5.239 2.631 10.848 4.066 16.504 4.438l21.115 5.254c4.353 1.083 8.479-1.378 9.84-5.587 1.234-3.805-1.259-8.162-4.94-9.515" style="fill:#122a89"/></svg>