<svg xmlns="http://www.w3.org/2000/svg" xml:space="preserve" viewBox="0 0 215 220"><path d="M108.911 86.546c-20.02 0-35.551 18.039-35.551 33.555 0 15.207 14.953 26.242 35.551 26.242s35.551-11.035 35.551-26.242c0-15.516-15.531-33.555-35.551-33.555m-8.423 11.235a6.158 6.158 0 1 1-.001 12.315 6.158 6.158 0 0 1 .001-12.315m-21.128 22.32c0-2.238.554-4.552 1.344-6.855-.018 3.694 1.184 7.305 3.302 10.997 5.231 9.118 13.031 11.5 21.351 11.5 11.555 0 17.409-3.76 21.042-8.403 3.133-4.003 4.691-7.991 4.643-14.37-.045-5.974-1.041-10.096-6.059-15.267 8.109 5.489 13.479 14.451 13.479 22.398 0 26.578-59.102 26.578-59.102 0" style="fill:#122a89"/><path d="M152.084 88.732c-6.872-4.34-12.293-7.594-23.134-11.108-10.487-3.399-19.975-4.178-31.474-2.502-8.16 1.188-17.124 4.353-22.94 7.806-6.653 3.949-9.101 6.126-12.437 9.785-4.021 4.41 3.388 6.163 7.583 2.877 4.222-3.307 12.56-7.625 17.975-10.34 4.521-2.266 10.123-3.586 16.417-4.171 11.66-1.084 19.721 1.924 20.697 2.177 6.347 1.762 14.643 6.259 18.504 8.135 4.789 2.327 9.687 3.243 11.792 2.151 2.289-1.188-.065-2.967-2.983-4.81" style="fill:#122a89"/></svg>