<svg xmlns="http://www.w3.org/2000/svg" xml:space="preserve" viewBox="0 0 215 220"><path d="M108.465 77.466c-21.398 0-38.809 14.73-38.809 32.84s17.41 32.84 38.809 32.84 38.805-14.73 38.805-32.84-17.406-32.84-38.805-32.84M93.237 91.869a6.157 6.157 0 1 1 0 12.314 6.157 6.157 0 0 1 0-12.314m15.228 45.277c-18.09 0-32.809-12.039-32.809-26.84 0-1.615.247-3.179.583-4.717.445 2.057 1.375 4.101 2.701 6.178 4.708 7.377 11.728 9.305 19.215 9.305 10.4 0 15.668-3.042 18.938-6.799 2.819-3.239 4.177-6.466 4.179-11.627.001-4.268-1.144-7.879-5.988-12.225-5.088-4.564-12.344-5.702-17.468-5.185-.725.073-1.343.228-2.035.324 3.905-1.345 8.188-2.094 12.684-2.094 18.09 0 32.805 12.039 32.805 26.84s-14.715 26.84-32.805 26.84" style="fill:#122a89"/></svg>