<svg xmlns="http://www.w3.org/2000/svg" xml:space="preserve" viewBox="0 0 215 220"><path d="M142.969 106.148c-11.743-10.458-23.594-18.431-43.531-19.029-15.59-.467-28.32 5.155-39.158 19.229-4.473 5.808-.83 10.72 4.832 6.01 5.919-4.924 10.985-8.129 15.768-10.177-2.451 3.826-2.708 9.922-1.067 14.716.975 2.85 2.733 5.204 4.653 7.201-3.438-1.787-6.501-4.05-9.012-7.175-3.027-3.766-6.439.416-3.17 3.943 5.853 6.315 14.123 12.438 26.094 12.634 13.084.214 20.228-1.048 29.684-5.785 6.856-3.434 10.785-7.885 8.184-7.444-3.339.566-7.287 2.439-12.467 4.208 3.541-4.363 4.341-9.519 3.066-13.611-.28-.9-.613-1.674-.933-2.48 10.098 6.022 20.405 12.356 31.857 9.832 3.927-.868-6.072-4.3-14.8-12.072m-48.219 6.448a5.525 5.525 0 1 1 0-11.05 5.525 5.525 0 0 1 0 11.05" style="fill:#122a89"/></svg>