<svg xmlns="http://www.w3.org/2000/svg" xml:space="preserve" viewBox="0 0 215 220"><path d="M163.004 114.684c-6.052-2.365-12.469-6.099-17.268-10.043-6.191-5.088-15.662-13.615-24.164-16.391-8.678-2.833-18.226-3.778-28.798-1.44-9.016 1.993-23.481 10.544-29.123 15.985-1.878 1.812-2.981 4.433-.876 5.777 1.866 1.192 6.905-1.55 14.311-4.992a106 106 0 0 1 5.25-2.285c-3.239 4.297-4.941 9.614-4.406 14.926.223 2.212.967 6.175 3.111 10.011-1.846-.713-3.673-1.486-5.454-2.39-5.231-2.658-9.847 5.222-4.607 7.884 18.014 9.152 39.662 10.335 58.391 2.55 2.286-.95 3.91-2.988 3.188-5.615-.595-2.166-3.338-4.135-5.615-3.188-.863.359-1.757.615-2.633.935.644-1.13 1.159-2.263 1.467-3.347 1.269-4.475 2.065-10.852-.722-16.679-.917-1.918-2.115-3.688-3.476-5.287 5.22 2.55 9.158 5.985 15.135 9.642 8.278 5.064 14.274 7.583 21.919 8.366 5.662.577 7.153-3.331 4.37-4.419m-64.875 3.88a6.841 6.841 0 1 1 0-13.682 6.841 6.841 0 0 1 0 13.682" style="fill:#122a89"/></svg>