<svg xmlns="http://www.w3.org/2000/svg" xml:space="preserve" viewBox="0 0 215 220"><path d="M149.242 99.868c-6.135-6.769-10.978-11.839-20.718-17.223-9.421-5.207-17.988-6.268-28.42-3.392-7.402 2.041-15.568 7.236-20.893 12.831-6.091 6.4-8.346 9.905-11.431 15.783-3.719 7.083 2.949 9.731 6.805 4.431 2.068-2.843 5.198-6.146 8.421-9.297-.228 3.312.698 6.632 2.678 9.735 5.231 8.197 13.031 10.338 21.351 10.338 11.555 0 17.409-3.381 21.042-7.555 3.133-3.599 4.691-7.185 4.643-12.918-.02-2.324-.296-4.306-.905-6.215 3.743 2.894 7.314 6.106 9.41 7.87 4.288 3.609 8.701 4.973 10.625 3.2 2.093-1.931-.003-4.714-2.608-7.588m-47.076 4.317a6.157 6.157 0 1 1 0-12.314 6.157 6.157 0 0 1 0 12.314" style="fill:#122a89"/><path d="M119.12 128.793c-13.1 1.244-26.027-2.231-36.734-9.88-3.466-2.476-7.206 2.215-5.473 5.473 7.744 14.552 22.83 24.172 39.17 25.583 2.165.187 4-1.98 4-4 0-2.294-1.848-3.814-4-4-7.166-.618-13.958-3.325-19.739-7.463 7.367 2.174 15.127 3.014 22.776 2.288 2.16-.205 4-1.667 4-4 0-2.017-1.847-4.206-4-4.001" style="fill:#122a89"/></svg>