<svg xmlns="http://www.w3.org/2000/svg" xml:space="preserve" viewBox="0 0 215 220"><path d="M148.332 112.311c.31-1.951-3.056-9.031-5.4-11.906-5.521-6.773-6.961-8.71-15.727-14.097-8.48-5.21-18.73-6.709-28.119-3.831-6.662 2.042-14.988 6.953-19.78 12.551-5.482 6.404-7.658 9.374-9.69 13.38-1.616 3.188-1.158 5.791.125 7.007-.358 1.348-.415 2.934.029 4.181 2.297 6.459 4.611 10.165 9.578 16.877 4.342 5.869 16.134 13.585 24.81 13.585 8.705 0 16.819-2.396 24.575-8.185 7.311-5.457 9.792-8.585 14.815-16.012 3.618-5.349 4.752-8.068 4.785-11.832a14 14 0 0 0-.072-1.597c.009-.037.065-.083.071-.121M102.16 97.322a5.974 5.974 0 1 1 0 11.949 5.974 5.974 0 0 1 0-11.949m23.388 37.882c-3.786 2.327-10.038 7.134-19.444 7.134-8.822 0-17.738-6.309-21.111-10.167-4.041-4.621-7.467-11.737-10.623-17.347-.04-.071-.077-.09-.117-.157.272-.292.552-.532.809-.924 3.492-5.336 8.141-11.719 12.594-16.136.841-.834 1.918-1.665 3.072-2.472a25.3 25.3 0 0 0-2.71 12.521c.332 7.248 1.201 12.656 8.109 18.949 6.04 5.501 15.412 6.728 21.542 2.816 7.953-5.076 10.031-12.644 10.031-20.717 0-6.966-1.269-11.792-3.199-15.297 4.821 3.148 10.536 8.064 12.791 10.835 2.696 3.312 4.251 5.565 5.9 9.598-4.507 7.856-13.078 18.558-17.644 21.364" style="fill:#122a89"/><path d="M76.715 91.571c3.515-3.252 10.447-7.512 14.949-10.189 3.759-2.236 8.41-3.55 13.633-4.148 9.675-1.108 16.348 1.803 17.157 2.046 5.257 1.698 12.119 6.064 15.313 7.885 3.962 2.257 8.021 3.133 9.771 2.057 1.904-1.171-.041-2.902-2.453-4.693-5.682-4.219-10.165-7.381-19.142-10.775-8.684-3.284-16.549-4.007-26.093-2.321-6.772 1.196-14.219 4.329-19.057 7.73-5.534 3.891-7.573 6.031-10.355 9.625-3.352 4.331 2.784 6.016 6.277 2.783" style="fill:#122a89"/></svg>