<svg xmlns="http://www.w3.org/2000/svg" xml:space="preserve" viewBox="0 0 215 220"><path d="M142.969 105.601c-11.743-10.458-23.594-18.431-43.531-19.029-15.59-.467-28.32 5.155-39.158 19.229-2.079 2.699-2.354 5.159-1.539 6.595-.062 1.308.382 2.835 1.75 4.311 8.028 8.662 19.373 17.062 35.793 17.33 17.949.293 27.748-1.438 40.72-7.935 5.661-2.835 9.818-6.153 11.492-8.232 3.019.466 6.098.501 9.271-.198 3.929-.866-6.07-4.299-14.798-12.071m-77.743 6.122c7.683-6.374 13.941-9.894 20-11.677a21 21 0 0 0-1.706 1.855c-2.682 3.345-2.963 9.411-1.38 14.034 1.489 4.35 4.855 7.624 7.868 9.667-10.557-1.849-18.584-6.377-24.782-13.879m29.524.327a5.525 5.525 0 1 1 .001-11.051 5.525 5.525 0 0 1-.001 11.051m24.965 12.733c4.85-4.261 6.107-9.929 4.753-14.274a27 27 0 0 0-1.962-4.67c7.076 4.104 14.209 8.834 21.714 11.08-6.11 1.939-13.797 5.64-24.505 7.864" style="fill:#122a89"/></svg>