<svg xmlns="http://www.w3.org/2000/svg" xml:space="preserve" viewBox="0 0 215 220"><path d="M158.64 123.416c-6.423-2.651-12.881-7.874-18.656-12.237-8.545-6.456-20.802-13.882-29.771-16.833-9.153-3.011-16.024-2.61-26.447 2.313-7.374 3.483-18.883 17.241-24.104 25.604-1.739 2.785-2.504 5.864-1.419 6.379 2.161 1.027 5.954-4.692 13.181-10.427.263-.208.583-.471.863-.696-.39 5.128 1.46 11.415 8.554 16.053 3.579 2.34 9.747 4.557 19.119 4.212 14.832-.547 21.833-4.374 24.786-7.431 3.348-3.464 4.869-8.621 4.055-13.833 1.129.839 2.27 1.676 3.445 2.492 8.968 6.22 14.25 7.728 22.144 7.954 5.843.167 7.204-2.33 4.25-3.55m-60.323-4.397a6.5 6.5 0 1 1-1.131-12.951 6.5 6.5 0 0 1 1.131 12.951" style="fill:#122a89"/><path d="M93.473 90.912c13.386-1.866 22.027 1.654 30.637 5.754 9.374 4.464 15.685 9.788 23.08 13.277 4.579 2.161 7.326-.123 2.535-4.042-3.623-2.963-8.551-7.86-15.237-12.33-10.243-6.847-20.321-9.436-29.181-10.442-23.007-2.613-36.68 10.446-44.18 23.078-4.449 7.493-5.188 11.209-3.555 11.688 3.813 1.119 14.243-23.962 35.901-26.983" style="fill:#122a89"/></svg>