<svg xmlns="http://www.w3.org/2000/svg" xml:space="preserve" viewBox="0 0 215 220"><path d="M154.346 120.631c-5.859-8.808-11.889-19.544-18.942-21.334-10.813-2.745-21.085-3.266-39.917-2.47-8.391.355-15.608.882-21.411 4.396-5.291 3.204-10.736 17.264-12.716 23.022-2.037 5.923 3.954 8.003 6.103 4.58 3.712-5.913 6.224-15.721 11.738-18.242 1.84-.841 5.217-1.501 9.172-1.992-.723 1.366-1.275 2.899-1.589 4.828-.681 4.171-.344 7.193 3.123 11.43l-.855-.048c-2.16-.123-4 1.926-4 4 0 2.268 1.834 3.877 4 4l37.301 2.113c2.158.123 4-1.926 4-4 0-2.268-1.835-3.877-4-4l-3.001-.17c5.397-4.112 6.582-9.641 4.097-15.052-.577-1.258-1.35-2.222-2.1-3.22 1.96.278 3.784.647 5.607 1.183 6.397 1.88 10.581 8.322 13.234 12 4.583 6.355 7.552 7.567 9.572 6.371 3.224-1.908 2.506-4.506.584-7.395m-47.768-3.895a6.156 6.156 0 1 1-.43-12.306 6.157 6.157 0 0 1 .43 12.306" style="fill:#122a89"/></svg>