<svg xmlns="http://www.w3.org/2000/svg" xml:space="preserve" viewBox="0 0 215 220"><path d="M135.168 130.192c-19.473 6.656-35.016 7.602-57.301 3.449-4.094-.754-5.289.41-5.578 1.52-.547 2.141 2.469 4.871 7.008 6.355 8.645 2.828 16.383 3.945 23.316 3.945 12.699-.004 22.707-3.746 30.637-7.551 3.508-1.684 8.031-5.062 7.113-7.309-.797-1.921-4.109-.788-5.195-.409" style="fill:#122a89"/><path d="M156.709 93.852c2.766-1.676 1.952-5.536-.738-4.861-3.839.964-13.588 1.474-20.167 1.577-.622.01-4.376-.147-6.344.281-.396-.151-.784-.327-1.18-.472 1.684-.925 3.305-1.889 4.921-3.006 1.044-.722 4.414-3.739 5.209-4.659 1.904-2.202.138-5.281-1.978-3.958-3.021 1.889-11.228 5.024-16.834 6.934-.39.133-2.275.671-3.892 1.302-1.782-.316-3.568-.651-5.326-.817a51 51 0 0 0 2.076-2.237c.749-.863 3.008-4.249 3.496-5.229 1.167-2.346-1.064-4.634-2.611-3.006-2.209 2.324-8.66 6.897-13.118 9.819-.094.062-.389.238-.67.407-7.039.338-13.265 1.814-20.689 4.957-6.918 2.934-18.746 14.18-20.199 20.391-.352 1.504-.137 2.723.637 3.621.332.387.734.57 1.23.57 1.449 0 3.711-1.547 7.516-4.148 3.134-2.144 7.225-4.897 11.82-7.356-.866 2.156-1.321 4.538-1.258 7.213.17 7.249 5.297 12.82 13.115 16.781 5.286 2.678 14.833 4.938 24.63 1.489 9.822-3.458 14.944-13.852 14.618-21.496-.078-1.832-.661-3.827-1.57-5.785 5.743 1.616 9.439 3.164 12.391 4.442 1.031.449 1.996.863 2.957 1.246 1.859.738 3.457 1.566 4.871 2.297 2.391 1.238 3.973 2.062 5.277 1.625.383-.125.906-.422 1.258-1.133 1.545-3.143-7.66-9.618-11.805-12.332a62 62 0 0 0 5.257-1.312c1.351-.406 5.944-2.444 7.1-3.145m-55.131 15.091a6.174 6.174 0 1 1 0-12.348 6.174 6.174 0 0 1 0 12.348" style="fill:#122a89"/></svg>