<svg xmlns="http://www.w3.org/2000/svg" xml:space="preserve" viewBox="0 0 215 220"><path d="M106.728 91.549c-11.519 0-20.856 9.338-20.856 20.856s9.337 20.856 20.856 20.856 20.856-9.338 20.856-20.856-9.337-20.856-20.856-20.856m-3.149 23.916a8.162 8.162 0 1 1 0-16.323 8.162 8.162 0 0 1 0 16.323" style="fill:#122a89"/><path d="M150.536 85.305c-2.071-1.927-2.988 2.329-10.229 4.714-1.781.587-3.704.814-5.24.985a42 42 0 0 0-3.819-2.648c2.563-1.851 3.961-3.854 5.111-6.391 1.447-3.194 1.471-5.728.093-6.511-2.459-1.398-2.371 2.955-8.867 6.944-1.403.862-2.982 1.48-4.334 1.972-9.622-3.597-20.52-4.229-30.198-1.803-13.813 3.461-26.956 14.103-27.235 29.319-.002.138.093.253.114.387-.022.138-.122.225-.119.379.332 18.061 18.03 29.364 34.164 32.074 14.819 2.488 32.379-1.549 41.886-13.969 8.008-10.461 7.065-23.734-.555-33.619 3.688-1.239 5.708-3.022 7.639-5.52 2.142-2.774 2.749-5.234 1.589-6.313m-20.734 44.024c-8.525 8.743-22.134 12.04-33.826 8.83-10.987-3.017-19.252-12.346-19.646-23.849.462-13.696 11.75-23.573 24.61-26.293 11.52-2.437 24.603.83 31.709 10.733 6.929 9.653 5.308 22.217-2.847 30.579" style="fill:#122a89"/></svg>