<svg xmlns="http://www.w3.org/2000/svg" xml:space="preserve" viewBox="0 0 215 220"><path d="M148.01 108.656c-6.135-6.769-10.978-11.839-20.718-17.223-9.422-5.207-17.989-6.268-28.42-3.392-7.402 2.041-15.568 7.236-20.894 12.831-6.091 6.4-8.346 9.905-11.431 15.783-3.718 7.083 2.95 9.731 6.805 4.431 2.068-2.843 5.198-6.146 8.421-9.297-.228 3.312.698 6.632 2.678 9.735 5.231 8.197 13.031 10.338 21.351 10.338 11.556 0 17.409-3.381 21.042-7.555 3.133-3.599 4.691-7.185 4.643-12.918-.02-2.324-.296-4.307-.905-6.215 3.743 2.894 7.314 6.106 9.41 7.87 4.288 3.609 8.701 4.973 10.625 3.2 2.093-1.93-.003-4.714-2.607-7.588m-47.077 4.317a6.157 6.157 0 1 1 0-12.314 6.157 6.157 0 0 1 0 12.314" style="fill:#122a89"/><path d="M76.369 94.497c3.489-2.733 10.38-6.302 14.855-8.545 3.736-1.873 8.366-2.964 13.568-3.447 9.636-.896 16.298 1.59 17.105 1.799 5.246 1.456 12.102 5.172 15.293 6.723 3.957 1.923 8.005 2.68 9.745 1.778 1.893-.981-.053-2.452-2.464-3.975-5.679-3.586-10.16-6.276-19.119-9.18-8.667-2.81-16.508-3.453-26.012-2.068-6.744.982-14.151 3.597-18.958 6.451-5.499 3.264-7.522 5.063-10.279 8.087-3.323 3.644 2.799 5.093 6.266 2.377m56.768 32.284c-2.551 1.831-7.99 6.139-12.305 8.083-.666.284-6.075 3.373-14.397 3.457-4.493.045-8.563-.559-11.959-2.016-4.066-1.744-10.341-4.542-13.621-6.862-3.259-2.306-8.323-.283-5.084 2.943 2.687 2.678 4.612 4.232 9.666 6.871 4.417 2.306 11.027 4.122 16.89 4.41 8.263.406 14.883-1.001 21.967-4.606 7.324-3.725 10.85-6.795 15.299-10.861 1.889-1.726 3.386-3.354 1.663-4.124-1.585-.706-4.955.435-8.119 2.705" style="fill:#122a89"/></svg>