<svg xmlns="http://www.w3.org/2000/svg" xml:space="preserve" viewBox="0 0 215 220"><path d="M163.586 119.074c-6.347-2.246-11.143-3.286-20.535-10.518a115 115 0 0 0-4.854-3.508c6.065-1.871 13.754-3.955 17.226-4.236 2.764-.224 2.296-4.141-.862-4.84-1.32-.292-6.324-.747-7.734-.698-6 .21-11.114 1.157-18.821 3.285-.063.018-.196.061-.273.082-3.809-2.049-7.746-3.815-11.508-4.972 3.721-3.105 7.711-6.22 9.912-7.408 2.196-1.186.392-4.243-2.463-3.676-1.193.237-5.481 1.675-6.625 2.226-3.864 1.863-7.136 3.951-11.097 6.987-7.549-.548-15.2.623-21.975 3.755-9.295 4.297-23.03 14.601-27.26 23.5-1.372 2.887 2.845 2.025 5.082 1.228 2.909-1.037 4.935-2.699 9.499-6.353a68 68 0 0 1 5.61-4.033c-.414 1.188-.684 2.398-.605 3.646.402 6.403 1.173 13.832 12.154 17.85 7.541 2.759 15.081 2.468 24.611 1.421 11.313-1.243 16.047-6.781 17.822-13.041.206-.727.181-1.331.246-1.979 2.375 2.758 4.669 5.079 7.338 7.325 1.08.908 5.3 3.637 6.519 4.22 2.917 1.397 5.701-1.397 3.664-3.278-1.359-1.255-3.349-3.662-5.453-6.409 8.632 3.437 14.875 3.335 18.251 2.914 2.781-.347 5.199-2.381 2.131-3.49m-60.459-8.712a6.5 6.5 0 0 1-7.529-5.271c-.167-.944-.092-1.865.133-2.736a39.7 39.7 0 0 1 11.771-.178c.247.033.451.099.693.136.049.185.171.33.205.521a6.5 6.5 0 0 1-5.273 7.528" style="fill:#122a89"/></svg>