<svg xmlns="http://www.w3.org/2000/svg" xml:space="preserve" viewBox="0 0 215 220"><path d="M143.397 99.129c-10.031-6.07-21.5-9.941-32.301-10.906-12.148-1.078-20.32.164-31.184 4.762-6.918 2.934-18.746 14.18-20.199 20.391-.352 1.504-.137 2.723.637 3.621.332.387.734.57 1.23.57 1.449 0 3.711-1.547 7.516-4.148 3.134-2.144 7.224-4.898 11.82-7.357-.866 2.156-1.321 4.539-1.258 7.214.092 3.912 1.666 7.319 4.289 10.265-1.661-.262-3.292-.498-5.03-.822-4.094-.754-5.289.41-5.578 1.52-.547 2.141 2.469 4.871 7.008 6.355 8.645 2.828 16.383 3.945 23.316 3.945 12.699-.004 22.707-3.746 30.637-7.551 3.508-1.684 8.031-5.062 7.113-7.309-.797-1.922-4.109-.789-5.195-.41a134 134 0 0 1-7.259 2.259c2.137-3.775 3.215-7.918 3.063-11.479-.078-1.832-.66-3.827-1.57-5.785 5.743 1.616 9.439 3.163 12.391 4.442 1.031.449 1.996.863 2.957 1.246 1.859.738 3.457 1.566 4.871 2.297 2.391 1.238 3.973 2.062 5.277 1.625.383-.125.906-.422 1.258-1.133 1.968-4.003-13.653-13.519-13.809-13.612m-40.77 11.915a6.174 6.174 0 1 1 0-12.348 6.174 6.174 0 0 1 0 12.348" style="fill:#122a89"/><path d="M64.983 95.77c2.649-.73 7.683-5.109 16.145-9.024 7.475-3.459 14.187-5.032 26.592-4.661 9.245.276 18.009 1.55 22.917 3.401 6.019 2.27 10.599 5.075 14.467 7.434 4.203 2.563 9.153 7.312 11.246 6.716 1.901-.541-.108-3.832-2.486-5.906-5.697-4.97-8.744-7.112-18.431-11.549-8.335-3.817-17.779-5.14-28.709-5.177-10.041-.034-18.039 1.77-23.811 3.943-9.977 3.756-16.553 8.54-19.829 11.973-1.832 1.92-.819 3.599 1.899 2.85" style="fill:#122a89"/></svg>