<svg xmlns="http://www.w3.org/2000/svg" xml:space="preserve" viewBox="0 0 215 220"><path d="M144.397 108.278c-15.107-9.472-30.119-21.388-49.856-18.515-15.435 2.247-26.995 9.994-35.225 25.737-3.396 6.496 1.044 10.701 5.802 5.079 3.062-3.617 5.738-6.664 8.25-9.287.243 1.14.634 2.28 1.22 3.412 3.527 6.815 11.727 8.223 31.4 5.358 15.435-2.248 24.575 1.458 27.405-4.151.448-.887.644-1.764.736-2.626 8.068 4.321 16.129 7.499 23.695 5.942 3.938-.81-4.667-5.456-13.427-10.949m-13.473 27.382c-18.906 4.549-32.962 5.099-52.286.402-6.589-1.602-7.125 6.041-.924 8.274 11.437 4.121 31.035 4.375 52.092-3.632 5.929-2.255 7.518-6.584 1.118-5.044" style="fill:#122a89"/></svg>