<svg xmlns="http://www.w3.org/2000/svg" xml:space="preserve" viewBox="0 0 215 220"><path d="M160.933 107.307c-5.958-2.303-10.479-6.681-17.288-10.679-7.333-4.306-16.071-10.765-24.395-13.319-8.496-2.608-17.656-2.771-27.505 1.265-8.399 3.44-25.946 15.631-30.837 23.009-1.629 2.457-2.254 4.99-1.348 5.616 3.673 2.538 11.979-4.536 20.442-10.317 1.308-.894 2.741-1.886 4.282-2.884-2.88 4.192-4.417 9.204-3.909 14.237.265 2.633 1.235 7.718 4.452 12.152-2.317 1.31-3.294 4.892-.272 6.428 14.887 7.563 32.778 8.541 48.257 2.107 1.89-.785 3.231-2.47 2.635-4.641-.492-1.79-2.759-3.417-4.641-2.635-3.053 1.269-6.214 2.191-9.418 2.856 4.036-2.73 6.295-6.241 7.185-9.379 1.278-4.508 2.081-10.931-.727-16.801-1.792-3.748-4.655-6.906-7.726-9.342 4.897 2.007 8.851 5.237 15.472 9.026 8.615 4.93 14.392 7.365 21.373 6.441 5.387-.711 6.708-2.08 3.968-3.14m-62.448 4.721a6.841 6.841 0 1 1 0-13.682 6.841 6.841 0 0 1 0 13.682" style="fill:#122a89"/></svg>