<svg xmlns="http://www.w3.org/2000/svg" xml:space="preserve" viewBox="0 0 215 220"><path d="M141.04 97.918c-13.38-8.26-26.436-14.054-46.174-11.182-15.434 2.248-26.994 9.995-35.224 25.736-1.578 3.019-1.421 5.489-.37 6.762.166 1.299.869 2.726 2.472 3.942 9.41 7.137 22.041 13.439 38.259 10.852 17.728-2.828 27.077-6.234 38.723-14.885 5.083-3.775 8.601-7.766 9.888-10.103 3.054-.065 6.092-.565 9.097-1.805 3.717-1.534-6.726-3.178-16.671-9.317m-75.499 19.528c6.463-7.615 12.018-12.168 17.678-14.977a21 21 0 0 0-1.376 2.147c-2.061 3.759-1.283 9.782 1.078 14.061 2.212 4.009 6.074 6.64 9.387 8.132-10.694.004-19.371-3.06-26.767-9.363m29.132-4.804a5.525 5.525 0 1 1-1.918-10.882 5.525 5.525 0 0 1 1.918 10.882m26.805 8.201c4.019-5.033 4.27-10.822 2.186-14.86a27 27 0 0 0-2.769-4.291c7.692 2.815 15.551 6.244 23.344 7.153-5.68 2.971-12.605 7.949-22.761 11.998" style="fill:#122a89"/></svg>