<svg xmlns="http://www.w3.org/2000/svg" xml:space="preserve" viewBox="0 0 215 220"><path d="M163.936 116.455c-4.071-3.631-9.516-9.528-17.134-15.123-11.671-8.571-23.594-12.413-34.209-14.384-27.567-5.121-45.496 8.01-55.91 21.266-6.177 7.863-7.465 11.904-5.539 12.593 2.256 1.211 6.932-4.155 15.35-9.239.232-.14.541-.331.789-.482-1.389 5.705-.621 13.167 8.005 16.602 9.149 3.644 17.899 1.843 26.841 4.487 15.44 4.565 20.63 2.784 24.962-2.338 2.986-3.531 3.503-8.564 2.639-13.647 2.071 2.099 4.222 4.158 6.639 5.996 9.175 6.978 14.785 8.94 23.36 9.853 6.35.676 8.07-1.693 4.969-3.167-6.743-3.201-13.86-8.338-19.154-13.817-2.848-2.947-6.339-6.722-10.109-10.399 9.97 5.61 16.858 11.681 25.004 16.028 5.314 2.833 8.88.572 3.497-4.229m-58.462-1.742a6.5 6.5 0 1 1 0-12.999 6.5 6.5 0 0 1 0 12.999" style="fill:#122a89"/></svg>