<svg xmlns="http://www.w3.org/2000/svg" xml:space="preserve" viewBox="0 0 215 220"><path d="M163.586 118.456c-6.347-2.246-11.143-3.285-20.535-10.518a114 114 0 0 0-5.771-4.146 165 165 0 0 1 8.276-4.252c3.41 2.471 6.797 5.271 8.434 4.805 1.901-.541-.108-3.832-2.486-5.906-.392-.342-.748-.642-1.118-.959.318-.112.748-.304 1.012-.379 2.161-.614 1.17-3.652-1.449-3.709-.715-.016-2.658.165-4.252.362-3.128-2.223-6.585-4.098-12.624-6.863-.061-.028-.127-.042-.188-.07 1.075-.776 2.033-1.416 2.762-1.809 1.977-1.067.353-3.819-2.217-3.309-1.074.214-4.934 1.507-5.963 2.003-.445.214-.854.452-1.283.673-5.711-1.646-11.964-2.365-18.757-2.554 1.325-2.237 2.567-4.165 3.489-5.268 1.601-1.915-1.208-4.086-3.65-2.501-1.021.663-4.471 3.586-5.329 4.522a56 56 0 0 0-2.831 3.354c-7.576.483-13.844 1.951-18.554 3.725-9.976 3.756-16.553 8.54-19.829 11.973-1.833 1.92-.82 3.6 1.898 2.85 2.649-.73 7.683-5.109 16.145-9.024 5.224-2.417 10.118-3.892 16.801-4.447a111 111 0 0 0-3.071 5.153c-2.933.654-5.808 1.519-8.523 2.773-9.295 4.297-23.03 14.601-27.26 23.5-1.372 2.887 2.845 2.025 5.082 1.228 2.909-1.036 4.935-2.699 9.499-6.353a68 68 0 0 1 5.61-4.033c-.414 1.188-.685 2.399-.606 3.647.313 4.981.916 10.563 6.309 14.697a177 177 0 0 1-7.354-1.871c-4.013-1.104-5.309-.053-5.689 1.027-.727 2.085 2.035 5.068 6.427 6.942a79.5 79.5 0 0 0 14.012 4.521c.999 2.045 1.983 3.725 3.228 5.422.443.604 2.281 2.543 2.837 2.997 1.331 1.088 3.12-.006 2.304-1.233-.774-1.164-1.904-3.677-2.938-6.191 1.155.162 2.321.345 3.438.442 3.042.267 5.93.282 8.703.142 2.569 2.41 4.619 4.076 7.071 5.522.646.381 3.098 1.438 3.789 1.637 1.652.475 2.865-1.235 1.631-2.041-1.438-.939-4.15-3.507-6.422-5.803 3.61-.535 7.039-1.249 10.152-2.184.388.25.766.474.973.587 3.357 1.832 5.636 2.831 8.407 3.583.651.177 3.031.511 3.678.519 1.547.019 2.192-1.754.929-2.16-1.78-.572-5.778-2.778-8.475-4.395.238-.088.514-.165.749-.253 3.638-1.372 8.438-4.344 7.72-6.661-.623-1.98-4.025-1.141-5.14-.861-3.328.822-6.507 1.439-9.639 1.963 4.429-2.478 6.761-6.147 7.887-10.117.8-2.821.428-4.966-.829-7.205 2.221 1.463 4.572 2.95 7.251 4.377 11.751 6.261 20.038 6.132 24.143 5.62 2.786-.348 5.204-2.382 2.136-3.491m-60.459-3.466a6.498 6.498 0 1 1-2.257-12.8 6.499 6.499 0 1 1 2.257 12.8m11.456-22.713c-.061.05-.181.156-.26.221-3.918-.999-7.961-1.367-11.997-1.353a198 198 0 0 1 2.299-4.359c.254.006.476 0 .735.008 5.259.157 10.268.665 14.594 1.39a97 97 0 0 0-5.371 4.093m15.438 6.994c-2.462-1.409-5.024-2.744-7.584-3.89.09-.086.254-.244.298-.283a179 179 0 0 1 5.713-4.83c4.14 1.576 7.577 3.396 10.588 5.15-2.749.931-5.574 2.148-9.015 3.853" style="fill:#122a89"/></svg>