<svg xmlns="http://www.w3.org/2000/svg" xml:space="preserve" viewBox="0 0 215 220"><path d="M135.488 135.298c-8.074 1.302-14.618 2.494-17.359 2.729-12.645 1.082-23.429 1.243-37.515-.834-4.641-.684-5.284 4.691 3.338 6.587 4.505.99 22.132 1.15 26.819.845 13.031-.846 22.254-2.992 22.376-3.024 6.048-1.575 12.033-3.318 10.37-6.41-.691-1.283-6.822-.087-8.029.107m6.757-39.666c-7.193-3.752-9.664-4.083-17.593-4.422-8.953-.384-24.694-.538-34.14.237-17.55 1.439-21.581 5.542-25.516 12.762-3.196 5.864-3.542 9.999-.3 11.173 4.182 1.516 4.569-4.577 10.595-9.881 2.111-1.858 5.789-3.583 10.135-4.959-.507.991-.885 2.041-1.026 3.199-.838 6.895.302 12.186 7.492 16.132a119 119 0 0 1-8.67-.948c-3.643-.537-4.148 3.683 2.621 5.171 3.537.777 17.376.903 21.057.664 10.23-.665 17.472-2.349 17.568-2.374 4.748-1.236 9.447-2.605 8.142-5.033-.543-1.007-5.356-.068-6.304.084-.387.062-.721.119-1.099.181 5.264-4.202 6.472-11.824 3.458-17.383 5.252 1.471 10.632 3.41 15.103 6.393 3.157 2.106 10.124 10.191 10.693 5.656.585-4.674-5.277-13.033-12.216-16.652m-43.871 12.973a5.541 5.541 0 1 1-.966-11.04 5.541 5.541 0 0 1 .966 11.04" style="fill:#122a89"/></svg>