<svg xmlns="http://www.w3.org/2000/svg" xml:space="preserve" viewBox="0 0 215 220"><path d="M158.693 102.821c-6.235-1.828-12.953-4.989-18.078-8.5-6.611-4.529-16.789-12.199-25.5-14.223-8.892-2.065-18.486-2.175-28.814 1.076-8.808 2.771-22.473 12.55-27.618 18.462-1.714 1.969-2.481 4.138-1.428 4.495 2.097.709 5.832-3.334 12.909-7.409 1.53-.881 3.479-2.049 5.755-3.291-3.57 7.258-3.118 20.118-.263 27.221 1.087 2.706 2.247 4.941 3.452 6.841-2.65-1.115-4.647-1.965-5.617-2.102-2.343-.329-3.08 2.206 1.682 5.173 6.915 4.309 18.711 10.592 28.256 11.303 8.397.626 17.635-1.223 25.12-5.771 3.103-1.884 5.557-6.185 3.79-7.05-1.292-.633-4.524.213-10.203 2.596 3.499-4.229 5.801-10.492 6.272-19.146.136-2.497.084-5.16-.216-7.835 2.221 2.093 4.681 3.592 8.018 4.933 4.145 1.666 9.116 1.985 8.951-.433-.087-1.274-4.26-3.282-7.661-7.284 6.143 2.572 10.792 3.372 17.031 3.464 5.687.086 7.03-1.678 4.162-2.52m-69.486 18.154a4.644 4.644 0 1 1 0-9.289 4.644 4.644 0 0 1 0 9.289m14.311-8.853c-3.108 0-5.575-2.27-6.136-5.214-1.074.551-2.242.936-3.532.936a7.864 7.864 0 0 1 0-15.728c4.264 0 7.694 3.407 7.819 7.64.595-.184 1.193-.373 1.849-.373a6.37 6.37 0 0 1 0 12.739" style="fill:#122a89"/></svg>