<svg xmlns="http://www.w3.org/2000/svg" xml:space="preserve" viewBox="0 0 215 220"><path d="M146.379 108.319c-6.073-7.45-7.657-9.582-17.3-15.507-9.328-5.731-20.604-7.38-30.931-4.214-7.328 2.247-16.486 7.649-21.758 13.807-6.03 7.044-8.424 10.311-10.659 14.718-1.727 3.406-1.284 6.179.035 7.564.05.129.062.271.134.392 2.527 4.251 5.072 6.69 10.536 11.109 4.776 3.863 17.747 8.941 27.292 8.941 9.576 0 18.5-1.577 27.032-5.387 8.042-3.591 10.771-5.651 16.296-10.539 3.98-3.521 5.228-5.311 5.263-7.788.341-2.145-3.361-9.933-5.94-13.096m-19.122 25.541c-4.165 1.532-11.042 4.696-21.388 4.696-9.704 0-19.512-4.152-23.222-6.692a70 70 0 0 1-10.788-9.072c3.826-5.831 8.873-12.744 13.718-17.55 4.09-4.056 12.307-8.175 17.954-9.328 10.46-2.135 18.524 2.373 19.393 2.795 5.651 2.952 14.25 10.143 17.252 13.831 2.666 3.276 4.317 5.625 5.941 9.271-5.079 4.938-14.014 10.266-18.86 12.049" style="fill:#122a89"/><path d="M107.857 100.005c-5.991.274-10.46.992-15.66 6.702-4.546 4.991-5.561 12.737-2.328 17.803 4.195 6.573 10.449 8.291 17.121 8.291 9.266 0 13.96-2.711 16.874-6.058 2.512-2.886 3.762-5.761 3.723-10.359-.037-4.423-.817-7.425-5.133-11.297-4.534-4.069-10.013-5.292-14.597-5.082m-4.771 17.648a4.938 4.938 0 1 1 0-9.875 4.938 4.938 0 0 1 0 9.875M73.54 98.602c3.866-3.578 11.492-8.263 16.444-11.208 4.134-2.459 9.251-3.905 14.997-4.563 10.642-1.218 17.983 1.983 18.872 2.251 5.783 1.868 13.331 6.671 16.845 8.673 4.358 2.483 8.822 3.447 10.748 2.263 2.094-1.289-.045-3.193-2.699-5.163-6.25-4.641-11.181-8.119-21.056-11.853-9.552-3.612-18.205-4.408-28.703-2.554-7.449 1.316-15.641 4.762-20.962 8.503-6.087 4.28-8.331 6.634-11.391 10.587-3.688 4.766 3.063 6.62 6.905 3.064" style="fill:#122a89"/></svg>