<svg xmlns="http://www.w3.org/2000/svg" xml:space="preserve" viewBox="0 0 215 220"><path d="M140.762 100.309c-6.753-4.497-9.835-5.02-17.593-6.69-9.184-1.978-24.818-1.475-34.14.237-8.074 1.483-16.288 7.108-22.497 13.906-4.504 4.931-5.052 13.531-1.607 13.695 2.962.142 8.051-6.456 14.078-11.761.445-.392 1.07-.586 1.566-.919-.848 8.256 1.125 14.384 12.049 18.732 5.457 2.172 20.145 2.848 30.688-2.609 6.058-3.135 8.534-9.885 7.586-15.974 3.492 1.458 7.108 3.099 11.392 4.646 3.569 1.29 9.767 4.083 12.689 3.624 6.087-.956-7.118-12.164-14.211-16.887m-44.761 13.056a6.096 6.096 0 1 1-1.062-12.146A6.096 6.096 0 0 1 96 113.365" style="fill:#122a89"/></svg>