<svg xmlns="http://www.w3.org/2000/svg" xml:space="preserve" viewBox="0 0 215 220"><path d="M156.064 113.64c-6.668-2.013-12.033-7.665-17.455-11.782-6.679-5.072-13.984-9.106-22.454-9.987-10.161-1.057-22.552 1.989-31.188 7.268-8.529 5.213-17.14 12.868-24.54 19.474-2.443 2.181 2.153 2.524 3.389 2.453 3.169-.182 6.57-2.008 9.498-3.426a192 192 0 0 0 4.154-2.096c-.426 1.706-.65 3.519-.448 5.524.5 4.952 3.554 17.136 14.294 19.587 6.934 1.583 14.455 1.497 21.007 3.014 14.301 3.312 20.733-2.792 22.66-9.585 1.578-5.565 1.311-12.407-2.155-19.654-.414-.866-.875-1.679-1.332-2.496 3.962 3.072 8.08 5.844 12.921 7.306 3.019.912 7.234-.426 9.939-1.782 1.362-.681 4.777-2.892 1.71-3.818m-42.344 9.627a6.841 6.841 0 1 1 0-13.682 6.841 6.841 0 0 1 0 13.682" style="fill:#122a89"/><path d="M68.391 101.446c4.252-3.936 12.641-9.089 18.088-12.329 4.548-2.706 10.176-4.295 16.496-5.02 11.707-1.34 19.781 2.182 20.759 2.477 6.361 2.055 14.664 7.338 18.53 9.541 4.794 2.731 9.705 3.792 11.822 2.489 2.304-1.417-.05-3.512-2.968-5.679-6.875-5.104-12.3-8.931-23.162-13.038-10.507-3.973-20.024-4.848-31.573-2.809-8.195 1.447-17.205 5.237-23.059 9.354-6.696 4.708-9.164 7.297-12.529 11.646-4.056 5.241 3.37 7.28 7.596 3.368" style="fill:#122a89"/></svg>