<svg xmlns="http://www.w3.org/2000/svg" xml:space="preserve" viewBox="0 0 215 220"><path d="M146.681 104.674c-6.135-6.769-10.978-11.84-20.718-17.223-9.422-5.207-17.988-6.268-28.42-3.392C90.141 86.1 81.975 91.296 76.65 96.89c-6.091 6.4-8.518 9.818-11.432 15.783-1.435 2.938-1.129 5.285-.064 6.612.06.211.109.427.235.617 2.552 3.863 5.124 6.079 10.643 10.093 4.825 3.51 17.926 8.124 27.567 8.124 9.672 0 18.688-1.433 27.305-4.895 8.123-3.263 10.88-5.135 16.461-9.576 4.02-3.199 5.28-4.825 5.316-7.076.344-1.948-3.395-9.024-6-11.898m-47.076-7.997a6.157 6.157 0 1 1 0 12.314 6.157 6.157 0 0 1 0-12.314m27.761 31.203c-4.207 1.392-11.153 4.267-21.604 4.267-9.802 0-19.708-3.773-23.457-6.08a69.6 69.6 0 0 1-10.889-8.236c2.147-2.913 5.552-6.519 9.029-9.945-.208 3.287.713 6.578 2.678 9.657 5.231 8.197 13.031 10.338 21.351 10.338 11.556 0 17.409-3.381 21.042-7.555 3.133-3.599 4.691-7.185 4.643-12.919-.027-3.234-.502-5.858-1.869-8.45 4.826 3.087 9.941 7.138 12.125 9.552 2.693 2.977 4.361 5.11 6.001 8.424-5.13 4.485-14.155 9.327-19.05 10.947" style="fill:#122a89"/></svg>