<svg xmlns="http://www.w3.org/2000/svg" xml:space="preserve" viewBox="0 0 215 220"><path d="M136.277 84.496c-3.086-3.148-8.156-3.199-11.313-.086-1.396 1.375-4.519 4.266-7.831 7.04-.552-.302-1.038-.676-1.617-.946-13.483-6.287-29.142-1.243-34.975 11.266s.369 27.747 13.852 34.034 29.142 1.243 34.975-11.266c3.299-7.076 2.639-14.979-.902-21.687 4.177-3.567 7.5-6.814 7.732-7.042a8.005 8.005 0 0 0 .079-11.313m-34.687 28.657a6.571 6.571 0 1 1 0-13.142 6.571 6.571 0 0 1 0 13.142" style="fill:#122a89"/></svg>