<svg xmlns="http://www.w3.org/2000/svg" xml:space="preserve" viewBox="0 0 215 220"><path d="M156.709 95.829c2.766-1.677 1.952-5.536-.738-4.861-3.839.964-13.588 1.474-20.167 1.577-.622.01-4.376-.147-6.344.281-.396-.151-.783-.327-1.18-.472 1.684-.925 3.304-1.889 4.92-3.005 1.044-.722 4.414-3.739 5.209-4.66 1.904-2.202.138-5.281-1.978-3.958-3.021 1.889-11.228 5.024-16.834 6.934-.389.133-2.275.67-3.891 1.302-1.783-.316-3.569-.651-5.326-.817.703-.72 1.393-1.45 2.075-2.236.749-.864 3.008-4.249 3.496-5.229 1.167-2.346-1.064-4.634-2.611-3.006-2.209 2.323-8.66 6.897-13.118 9.819-.094.062-.389.237-.669.407-7.039.338-13.266 1.815-20.69 4.957-6.918 2.934-18.746 14.18-20.199 20.391-.352 1.504-.137 2.723.637 3.621.332.387.734.57 1.23.57 1.449 0 3.711-1.547 7.516-4.148 3.134-2.144 7.224-4.898 11.82-7.357-.866 2.156-1.321 4.539-1.258 7.214.092 3.912 1.666 7.319 4.289 10.265-1.661-.262-3.292-.498-5.03-.822-4.094-.754-5.289.41-5.578 1.52-.547 2.141 2.469 4.871 7.008 6.355 8.645 2.828 16.383 3.945 23.316 3.945 12.699-.004 22.707-3.746 30.637-7.551 3.508-1.684 8.031-5.062 7.113-7.309-.797-1.922-4.109-.789-5.195-.41a134 134 0 0 1-7.259 2.259c2.137-3.775 3.215-7.918 3.063-11.479-.078-1.832-.661-3.827-1.57-5.785 5.743 1.616 9.439 3.163 12.391 4.442 1.031.449 1.996.863 2.957 1.246 1.859.738 3.457 1.566 4.871 2.297 2.391 1.238 3.973 2.062 5.277 1.625.383-.125.906-.422 1.258-1.133 1.545-3.142-7.659-9.618-11.804-12.332a62 62 0 0 0 5.256-1.312c1.351-.406 5.944-2.445 7.1-3.145m-55.131 15.09a6.174 6.174 0 1 1 0-12.348 6.174 6.174 0 0 1 0 12.348" style="fill:#122a89"/></svg>