<svg xmlns="http://www.w3.org/2000/svg" xml:space="preserve" viewBox="0 0 215 220"><path d="M141.04 98.655c-13.38-8.259-26.436-14.054-46.174-11.181-15.434 2.247-26.994 9.995-35.224 25.736-3.396 6.496 1.044 10.701 5.802 5.08 4.974-5.877 9.407-9.914 13.761-12.761-1.749 4.193-.944 10.242 1.504 14.678 1.641 2.973 4.115 5.251 6.667 6.954-4.36-1.091-8.245-3.033-11.696-6.054-3.635-3.183-6.27 1.527-2.438 4.434 6.86 5.203 16.068 9.797 27.891 7.911 12.923-2.062 19.739-4.545 28.229-10.851 6.155-4.572 9.252-9.639 6.767-8.752-2.97 1.059-6.301 3.334-10.609 5.773 2.494-4.788 2.37-9.817.459-13.518-.432-.837-.895-1.542-1.349-2.281 10.99 4.178 22.241 8.625 33.08 4.15 3.718-1.535-6.725-3.179-16.67-9.318M94.673 113.38a5.525 5.525 0 1 1-1.918-10.882 5.525 5.525 0 0 1 1.918 10.882" style="fill:#122a89"/></svg>