<svg xmlns="http://www.w3.org/2000/svg" xml:space="preserve" viewBox="0 0 215 220"><path d="M162.88 130.906c-6.476-3.719-9.34-6.111-13.926-11.528-2.412-2.848-6.248-8.119-10.499-13.462 11.494 8.214 17.937 14.578 20.425 15.859 2.663 1.372 4.473-.776-.092-5.81-6.629-7.31-18.33-18.737-29.409-23.708-9.748-4.374-21.406-6.706-31.976-5.612-.288.03-.572.099-.859.15-3.538.267-6.987.725-10.115 1.552-10.42 2.755-26.936 13.16-32.947 21.611-1.95 2.742 2.579 2.619 5.043 2.202 3.205-.542 5.609-1.896 11.008-4.85 1.907-1.043 4.568-2.547 7.727-4.111-.538.729-1.195 1.315-1.652 2.146-3.257 5.915-1.244 22.102 9.588 24.875 7.876 2.017 14.856.076 22.227 2.475 11.219 3.652 17.662.33 20.647-5.835 1.698-3.508 2.809-8.632 1.92-13.616 3.676 4.942 7.234 10.025 11.48 13.779 6.557 5.797 15.339 7.696 18.562 7.11 1.621-.294 5.826-1.517 2.848-3.227m-51.129-15.524a6.5 6.5 0 1 1 .001-13 6.5 6.5 0 0 1-.001 13" style="fill:#122a89"/></svg>