<svg xmlns="http://www.w3.org/2000/svg" xml:space="preserve" viewBox="0 0 215 220"><path d="M149.483 108.18c-5.704-5.19-10.229-9.094-19.72-13.551-9.181-4.312-17.826-5.641-28.692-4.321-7.71.937-16.454 4.046-22.335 7.63-6.727 4.1-9.309 6.418-12.93 10.354-4.364 4.743 2.217 7.062 6.577 3.586 3.353-2.674 8.995-5.88 13.888-8.489-3.586 5.675-3.75 13.923.557 19.905 4.085 5.672 10.124 7.712 18.715 7.481 9.632-.259 15.823-3.261 19.276-7.454 3.684-4.474 4.898-9.33 3.337-15.148a20.8 20.8 0 0 0-4.061-7.871c.466.206.834.374.977.428 5.6 2.278 12.596 7.712 15.884 10 4.077 2.836 8.465 4.097 10.569 2.977 2.291-1.219.38-3.324-2.042-5.527" style="fill:#122a89"/></svg>