<svg xmlns="http://www.w3.org/2000/svg" xml:space="preserve" viewBox="0 0 215 220"><path d="M158.707 118.341c-7.794-7.108-13.947-12.432-26.321-18.084-11.971-5.468-22.854-6.582-36.108-3.562-9.405 2.143-19.779 7.598-26.545 13.473-7.739 6.72-10.603 10.4-14.523 16.571-4.724 7.437 3.748 10.218 8.646 4.652 3.452-3.922 9.219-8.677 14.535-12.788-.097 3.411 1.072 6.901 3.752 9.802.792.857 1.747 1.493 2.669 2.173a693 693 0 0 1-7.822-.686c-5.133-.473-5.084 7.531 0 8 20.965 1.934 43.122 3.352 62.076-7.551 4.467-2.57.433-9.48-4.038-6.908-1.196.688-2.443 1.19-3.669 1.771 2.062-3.169 2.51-6.601 1.161-10.515a18 18 0 0 0-1.534-3.314c6.544 3.388 13.829 8.993 17.537 11.572 5.447 3.789 11.054 5.222 13.499 3.359 2.657-2.025-.006-4.948-3.315-7.965m-46.435 3.527a5.541 5.541 0 1 1-.001-11.083 5.541 5.541 0 0 1 .001 11.083" style="fill:#122a89"/><path d="M61.036 101.107c34.957-10.377 60.396-10.642 94.616-4.001 11.583 2.248 8.7-5.559-2.034-9.163-38.122-12.799-66.462-4.391-87.15 4.214-11.216 4.665-17.353 12.489-5.432 8.95" style="fill:#122a89"/></svg>