<svg xmlns="http://www.w3.org/2000/svg" xml:space="preserve" viewBox="0 0 215 220"><path d="M153.311 105.95c-3.678 4.239-16.88 5.908-33.372 5.443-36.715-1.095-36.13-1.29-45.318-1.522-14.573-.369-13.909-5.523-12.463-8.229.966-1.809 5.214-7.617 21.933-12.593 8.603-2.56 27.802-3.799 45.47 1.353 17.669 5.151 25.299 13.068 23.75 15.548" style="fill:#122a89"/><path d="M129.52 117.674c-1.319 4.058-4.339 10.369-16.705 13.677-12.367 3.309-18.62 1.341-26.153-3.667-8.188-5.444-8.809-16.65-7.893-19.355.612-1.81 5.558-5.965 11.073-8.144s19.017-3.8 30.208 1.353c11.189 5.152 11.488 9.931 9.47 16.136" style="fill:#122a89"/><circle cx="104.928" cy="109.134" r="5.437" style="fill:#fff"/></svg>