<svg xmlns="http://www.w3.org/2000/svg" xml:space="preserve" viewBox="0 0 215 220"><path d="M166.204 122.312c-4.071-3.631-9.516-9.529-17.134-15.123-11.671-8.571-23.594-12.413-34.209-14.385-27.567-5.121-45.496 8.01-55.91 21.266-6.177 7.863-7.465 11.905-5.539 12.593 2.256 1.211 6.932-4.155 15.35-9.239.232-.14.541-.331.789-.482-1.389 5.706-.621 13.166 8.005 16.601 9.149 3.644 17.899 1.844 26.841 4.488 15.44 4.565 20.63 2.784 24.962-2.338 2.986-3.531 3.503-8.563 2.639-13.647 2.071 2.099 4.222 4.158 6.639 5.996 9.175 6.978 14.785 8.94 23.36 9.853 6.35.676 8.07-1.693 4.969-3.167-6.743-3.201-13.86-8.338-19.154-13.816-2.848-2.947-6.339-6.721-10.11-10.399 9.97 5.61 16.859 11.681 25.005 16.028 5.313 2.833 8.879.572 3.497-4.229m-58.463-1.743a6.5 6.5 0 1 1 .001-13 6.5 6.5 0 0 1-.001 13" style="fill:#122a89"/><path d="M60.027 100.6c2.915-.804 8.451-5.62 17.759-9.927 8.222-3.805 15.606-5.535 29.251-5.127 10.169.304 19.81 1.705 25.209 3.742 6.621 2.498 11.658 5.583 15.913 8.177 4.624 2.819 10.069 8.043 12.371 7.388 2.09-.596-.12-4.215-2.735-6.497-6.267-5.467-9.618-7.823-20.274-12.704-9.168-4.199-19.556-5.653-31.579-5.694-11.044-.038-19.842 1.945-26.191 4.336-10.974 4.132-18.208 9.395-21.812 13.171-2.015 2.112-.901 3.959 2.088 3.135" style="fill:#122a89"/></svg>