<svg xmlns="http://www.w3.org/2000/svg" xml:space="preserve" viewBox="0 0 215 220"><path d="M155.971 90.835c-1.244.312-3.142.572-5.317.791-3.604-3.01-6.574-4.993-11.975-7.659 1.194-2.116-.311-4.58-2.247-3.369-.583.365-1.403.785-2.317 1.225-5.799-2.613-12.164-4-19.16-4.627a1.24 1.24 0 0 0-.658-.078 110 110 0 0 0-8.622-.371c-10.041-.034-18.039 1.77-23.811 3.943-9.977 3.756-16.553 8.54-19.829 11.973-1.832 1.92-.82 3.6 1.898 2.85 2.649-.73 7.683-5.109 16.145-9.024 7.475-3.459 14.188-5.032 26.592-4.661.468.014.91.06 1.375.079a172 172 0 0 1-7.823 5.458c-.094.062-.389.237-.669.406-7.039.338-13.265 1.815-20.69 4.957-6.918 2.934-18.746 14.18-20.199 20.391-.352 1.504-.137 2.723.637 3.621.332.387.734.57 1.23.57 1.449 0 3.711-1.547 7.516-4.148 3.134-2.144 7.224-4.898 11.82-7.357-.866 2.156-1.321 4.539-1.258 7.214.092 3.912 1.666 7.319 4.289 10.265-1.661-.262-3.292-.498-5.03-.822-4.094-.754-5.289.41-5.578 1.52-.547 2.141 2.469 4.871 7.008 6.355 4.371 1.43 8.506 2.417 12.427 3.049 2.234 3.444 3.911 5.603 6.17 7.764.542.519 2.688 2.108 3.314 2.459 1.5.84 3.071-.548 2.054-1.615-1.302-1.366-3.649-4.99-5.403-7.907 1.62.117 3.215.194 4.754.194 2.483-.001 4.781-.247 7.063-.506.271.201.514.372.668.476 3.524 2.374 5.941 3.714 8.929 4.833.702.263 3.301.878 4.015.954 1.709.181 2.607-1.714 1.252-2.293-1.733-.741-5.31-3.142-8.07-5.129 3.854-.871 7.481-1.938 10.723-3.229.283.11.536.2.694.254 3.624 1.221 6.042 1.809 8.901 2.068.672.061 3.074-.023 3.712-.128 1.527-.25 1.854-2.108.541-2.289-1.644-.226-5.19-1.408-8.031-2.458.075-.036.164-.069.239-.104 3.508-1.684 8.031-5.062 7.113-7.309-.797-1.922-4.109-.789-5.195-.41a133 133 0 0 1-7.26 2.259c2.137-3.775 3.215-7.918 3.063-11.479-.078-1.832-.661-3.827-1.57-5.785 5.743 1.616 9.439 3.163 12.391 4.442 1.031.449 1.996.863 2.957 1.246 1.859.738 3.457 1.566 4.871 2.297 2.391 1.238 3.973 2.062 5.277 1.625.383-.125.906-.422 1.258-1.133 1.545-3.142-7.659-9.618-11.804-12.332a62 62 0 0 0 5.256-1.312c.429-.129 1.218-.444 2.088-.808 1.496.968 2.777 1.58 3.603 1.345 1.1-.313.82-1.56-.012-2.946.62-.298 1.13-.56 1.421-.736 2.768-1.675 1.954-5.534-.736-4.859m-54.393 19.951a6.174 6.174 0 1 1 0-12.348 6.174 6.174 0 0 1 0 12.348m18.02-23.254c-.389.133-2.275.67-3.891 1.302-1.783-.316-3.569-.651-5.326-.817.703-.72 1.393-1.45 2.075-2.236.475-.548 1.534-2.086 2.387-3.406 4.984.488 9.359 1.267 12.69 2.253a200 200 0 0 1-7.935 2.904m16.206 4.88c-.622.01-4.376-.147-6.344.281-.396-.151-.783-.327-1.18-.472 1.684-.925 3.304-1.889 4.92-3.005.389-.269 1.125-.888 1.906-1.567 3.076 1.507 5.743 3.068 8.118 4.513-2.601.13-5.193.215-7.42.25" style="fill:#122a89"/></svg>