<svg xmlns="http://www.w3.org/2000/svg" xml:space="preserve" viewBox="0 0 215 220"><path d="M147.939 94.027a2893 2893 0 0 0-25.748-7.06c-9.248-2.496-19.158-3.102-28.804-1.457-18.03 3.076-31.955 13.318-43.647 22.974-4.251 3.51-4.865 8.641 0 12.113 4.348 3.104 12.73 3.502 16.97 0 1.422-1.174 2.915-2.307 4.373-3.46.131.944.35 1.888.608 2.781a7.5 7.5 0 0 0 .757 1.705c.11.188.272.333.386.519.513 1.032 1.202 2.037 1.891 3.012a9.8 9.8 0 0 0 1.391 1.608c2.762 2.529 5.541 4.2 9.5 5.973.872.39 1.784.728 2.754 1.016 1.998.591 4.123 1.194 6.275 1.571 2.334.408 4.848.574 7.248.682.999.044 1.985.007 2.978-.068 4.943-.375 8.726-.926 13.204-2.427 2.024-.679 3.83-1.63 5.607-2.519a18 18 0 0 0 2.188-1.264c5.277-3.645 8.862-8.304 8.678-13.303-.088-2.374-.946-4.728-2.475-6.898-.049-.117-.037-.244-.091-.359-.445-.949-1.114-1.747-1.747-2.57 5.912.853 12.099 1.352 16.932 1.307 10.466-.097 21.495-.562 23.307-5.268 1.635-4.253-11.655-5.568-22.535-8.608m-49.562 21.155a5.808 5.808 0 1 1 0-11.616 5.808 5.808 0 0 1 0 11.616" style="fill:#122a89"/></svg>