<svg xmlns="http://www.w3.org/2000/svg" xml:space="preserve" viewBox="0 0 215 220"><path d="M149.306 100.457c-22.804-10.426-58.487-11.304-82.079-1.065-6.743 2.927-9.844 8.512-4.275 12.606 1.956 1.438 4.743 2.572 7.834 3.258-.532.26-1.065.521-1.521.839-4.728 3.301-4.706 8.356 1.447 11.184 19.848 9.121 50.902 9.898 71.428.952 5.867-2.557 8.564-7.44 3.716-11.021-.646-.477-1.419-.903-2.247-1.299 2.817-.459 5.414-1.315 7.353-2.663 5.437-3.777 5.413-9.558-1.656-12.791m-23.324 14.685c-1.73.754-3.548 1.402-5.449 2.011l-.646.142a66 66 0 0 1-3.18.659c-.964.175-1.945.307-2.917.46-.228.022-.454.046-.683.064-2.251.181-4.526.27-6.8.264-.062 0-.4-.011-.739-.019-.87-.053-1.74-.104-2.606-.183a77 77 0 0 1-3.338-.376c-.312-.042-1.312-.208-2.006-.32-.626-.134-1.364-.291-1.634-.357a59 59 0 0 1-3.047-.83c-.416-.126-.822-.259-1.231-.391-.76-.319-1.541-.626-2.276-.964-.981-.451-2.096-.793-3.254-1.085a68 68 0 0 1 5.877-2.16l.742-.163a75 75 0 0 1 3.655-.755c1.107-.2 2.234-.351 3.352-.527q.391-.04.785-.073a95 95 0 0 1 7.814-.304c.071 0 .46.012.849.021 1 .06 1.999.118 2.994.208a91 91 0 0 1 3.836.429c.359.048 1.507.238 2.304.366.719.153 1.567.332 1.878.408q1.787.434 3.501.948c.478.143.944.296 1.414.447.873.365 1.77.716 2.615 1.101.163.075.358.124.526.195-.809.208-1.596.461-2.336.784" style="fill:#122a89"/></svg>