<svg xmlns="http://www.w3.org/2000/svg" xml:space="preserve" viewBox="0 0 215 220"><path d="M116.313 141.953H99.969c-1.359 0-2.672.188-3.927.747-.896.4-2.166 1.165-2.639 2.096-.373.734-.566 1.63.079 2.308.681.716 1.782 1.069 2.748 1.069h16.344c1.359 0 2.672-.188 3.927-.747.896-.4 2.166-1.165 2.639-2.096.373-.733.566-1.63-.078-2.307-.683-.716-1.783-1.07-2.749-1.07m50.565-33.723c-1.312-.878-8.319-6.022-10.129-9.669-2.454-4.945-5.827-1.962-5.707-.359.141 1.843.687 3.556 1.405 5.198a16.4 16.4 0 0 0-2.842.848c-5.146 2.023-17.108.809-22.084-1.202-2.279-.92-4.573-2.662-7.892-3.138-4.764-.682-8.645.998-13.212 1.571-4.567-.573-8.448-2.253-13.212-1.571-3.32.475-5.613 2.218-7.892 3.138-4.976 2.011-16.938 3.225-22.084 1.202-8.143-3.201-9.892 1.719-5.097 4.242 1.167.614 2.56 1.177 4.064 1.702.221.872 1.764 2.837 3.9 5.858 9.109 12.889 28.495 17.191 40.322 17.156 11.828.035 31.212-4.268 40.322-17.156 2.135-3.021 3.679-4.986 3.9-5.858 1.504-.525 2.897-1.088 4.064-1.702.273-.144.449-.316.68-.473 1.475 1.745 3.158 3.348 5.12 4.631 5.483 3.589 15.026 1.373 6.374-4.418m-60.46 11.562c-8.78.277-24.788-1.825-38.295-7.978 8.842 1.937 19.78 2.342 27.003-.264 0 0 3.178.885 4.961 1.107 2.221.276 3.964.508 6.331.258 2.368.251 4.11.018 6.331-.258 1.783-.221 4.961-1.107 4.961-1.107 7.222 2.605 18.16 2.201 27.002.264-13.506 6.154-29.515 8.255-38.294 7.978" style="fill:#122a89"/></svg>