<svg xmlns="http://www.w3.org/2000/svg" xml:space="preserve" viewBox="0 0 215 220"><path d="M164.352 84.333c-3.445-.63-6.846.4-9.791 2.178-26.177 15.803-57.743 21.301-87.78 16.167l6.097-7.145c2.546-2.983 1.725-6.229-2.015-7.519-3.77-1.301-9.707.234-12.325 3.302l-11.385 13.342c-2.337 2.738-2.057 6.576 2.015 7.519 32.508 7.529 66.392 4.256 96.755-8.675-10.359 17.141-30.205 26.562-50.892 20.898-4.044-1.107-9.47.099-12.325 3.302-2.525 2.833-1.875 6.454 2.015 7.519 35.557 9.737 74.271-10.124 84.251-46.137.755-2.721-2.59-4.379-4.62-4.751" style="fill:#122a89"/></svg>