<svg xmlns="http://www.w3.org/2000/svg" xml:space="preserve" viewBox="0 0 215 220"><path d="M140.737 111.261c-.65-1.565-1.712-3.254-3.175-3.477 5.085-1.255 4.892-9.69-.829-9.29-6.612.463-11.252-5.907-17.553-6.985-4.287-.734-6.459 1.637-9.57 4.007-1.532 1.167-4.07 1.299-5.114.541-2.128-1.544-3.335-3.552-6.047-4.362-2.839-.848-6.091-.226-8.753.917-2.425 1.042-4.362 2.648-6.428 4.271-1.456 1.144-2.907 2.288-4.793 2.36-4.821.185-5.733 6.255-2.827 8.578-2.673 1.646-2.745 8.412.477 11.146 18.836 15.986 44.027 16.084 62.819-.205 1.973-1.71 2.979-4.649 1.793-7.501m-5.958-2.242c-7.381 7.381-47.792 6.737-53.944.586-.351-.351-.68-.618-1.007-.876 9.252-.203 50.602-.456 56.338-.691a4.7 4.7 0 0 0-1.387.981" style="fill:#122a89"/></svg>