<svg xmlns="http://www.w3.org/2000/svg" xml:space="preserve" viewBox="0 0 215 220"><path d="M106.899 122.604c8.089 0 14.646-5.045 14.646-11.269s-6.557-11.269-14.646-11.269-14.646 5.045-14.646 11.269c.001 6.224 6.558 11.269 14.646 11.269" style="fill:#122a89"/><path d="M132.365 104.401c-1.974-5.801-5.666-9.763-9.36-13.181-1.797-1.662-4.629-3.947-8.444-4.599-2.482-.429-5.331.035-7.442 1.369-1.645-1.013-3.683-1.366-5.466-1.439-2.532.047-5.105.881-7.868 2.546-5.495 3.307-9.827 9.281-11.311 15.587a3.01 3.01 0 0 0 2.241 3.616 3.023 3.023 0 0 0 3.616-2.241c1.107-4.711 4.464-9.346 8.556-11.81 1.839-1.104 3.433-1.657 4.876-1.683 1.219-.065 2.373.543 2.529.814a3.02 3.02 0 0 0 2.849 2.053h.003a3 3 0 0 0 2.849-2.047c.2-.394 1.806-1.113 3.554-.837 1.73.297 3.386 1.251 5.378 3.09 4.259 3.939 6.503 7.04 7.751 10.703a3.01 3.01 0 0 0 3.815 1.876 3.01 3.01 0 0 0 1.874-3.817m-3.478 15.857a3.003 3.003 0 0 0-4.132 1.002c-3.016 4.94-9.783 8.368-16.838 8.523-7.205.253-14.098-2.978-17.47-7.801a3.008 3.008 0 0 0-4.928 3.448c4.438 6.347 12.97 10.374 21.878 10.374q.325 0 .655-.006c9.161-.206 17.734-4.682 21.837-11.408a3.005 3.005 0 0 0-1.002-4.132" style="fill:#122a89"/></svg>