<svg xmlns="http://www.w3.org/2000/svg" xml:space="preserve" viewBox="0 0 215 220"><path d="M75.352 105.596c6.18-.169 9.598-2.713 14.419-5.028 1.181-.567 3.45-1.615 4.943-1.147.818.257 1.56 1.188 2.219 1.626 1.26.836 2.542 1.355 4.158 1.759 3.407.852 7.221.933 10.612.002a19 19 0 0 0 4.577-1.924c.669-.387 1.364-.982 2.072-1.317.177-.084.235-.135.254-.171.057.02.123.042.323.063 1.606.172 3.455 1.248 4.848 1.824 1.497.619 2.971 1.271 4.516 1.827 3.57 1.285 7.27 2.098 11.292 1.897 6.608-.33 6.658-7.821 0-7.488-7.29.364-12.406-4.646-19.353-5.494-4.727-.577-7.122 1.288-10.552 3.152-1.69.918-4.488 1.021-5.639.426-2.345-1.214-3.677-2.794-6.667-3.431-3.13-.666-6.716-.178-9.65.722-2.673.819-4.81 2.083-7.087 3.36-1.605.9-3.205 1.8-5.284 1.856-6.64.179-6.672 7.669-.001 7.486m67.221 2.059c-12.596 4.95-26.364 5.402-39.807 4.907-10.621-.391-21.049-1.578-31.097-4.857-3.256-1.063-4.802 3.715-1.563 4.772 10.891 3.555 22.349 4.746 33.855 5.108 14.038.442 28.088-.431 41.193-5.58 3.179-1.25.581-5.592-2.581-4.35" style="fill:#122a89"/><path d="M137.43 118.088c-18.033 7.959-41.296 8.184-59.475.328-5.185-2.241-10.358 3.024-5.193 5.256 20.768 8.974 48.541 9.029 69.26-.115 2.175-.96 3.284-2.61 1.977-4.211-1.113-1.363-4.415-2.209-6.569-1.258" style="fill:#122a89"/></svg>