<svg xmlns="http://www.w3.org/2000/svg" xml:space="preserve" viewBox="0 0 215 220"><path d="M167.246 94.282c-4.743-.783-6.114 4.033-10.96 4.955-20.998 3.997-29.828-.217-34.166-.779-6.231-.805-8.771 1.417-14.74 2.093-5.969-.676-8.509-2.899-14.74-2.093-4.338.562-13.168 4.776-34.166.779-4.846-.922-6.217-5.739-10.96-4.955-4.782.79-5.024 5.08-2.423 7.839 1.361 1.444 3.646 2.692 6.445 3.803.387.498.807 1.023 1.404 1.726 10.324 12.145 31.174 23.477 54.439 23.436 23.266.041 44.116-11.291 54.439-23.436a48 48 0 0 0 1.404-1.726c2.799-1.111 5.084-2.36 6.445-3.803 2.604-2.759 2.361-7.049-2.421-7.839m-59.865 24.249c-15.033.1-26.104-3.846-33.343-7.523 14.82 2.006 30.132 2.536 33.343 2.536s18.523-.53 33.343-2.536c-7.24 3.678-18.31 7.624-33.343 7.523m5.021 22.029c-3.914.731-6.888.395-11.291-.232-4.645-.66-6.456 5.412-2.777 7.066 5.275 2.371 10.575 2.271 16.159 1.09 6.965-1.473 5.301-9.305-2.091-7.924" style="fill:#122a89"/></svg>