<svg xmlns="http://www.w3.org/2000/svg" xml:space="preserve" viewBox="0 0 215 220"><path d="M161.896 98.095c-1.065.053-1.774.772-2.524 1.536-.879.893-1.873 1.903-3.674 2.32-21.402 4.94-35.861 2.607-43.648 2.257-2.743-.123-4.567-.202-5.78-.008-1.195-.17-2.891-.083-5.45.076-7.664.464-21.955 3.035-44.001-2.322-1.788-.438-2.782-1.442-3.661-2.329-.756-.764-1.469-1.483-2.538-1.536-.852-.088-1.496.267-2.338.949-1.364 1.104-1.954 2.3-1.751 3.548.324 1.985 2.513 3.324 3.859 3.986 9.45 9.974 31.142 19.838 55.863 19.838 24.72 0 46.411-9.863 55.859-19.836 1.343-.661 3.536-2.001 3.86-3.988.203-1.248-.387-2.444-1.751-3.548-.839-.681-1.595-1.01-2.325-.943m-54.9 19.09-.751.006c-.187.003-.366.003-.553.003-10.263 0-21.279-2.455-30.866-5.293 12.174 1.224 24.807 1.339 31.429 1.339 6.843 0 19.252-.092 31.242-1.283-9.488 2.797-20.354 5.201-30.501 5.228m79.293-16.393c-.79-.583-2.031-.829-2.988-.736-1.15.112-2.374.456-3.273 1.214-.771.649-1.214 1.351-1.47 2.321l.064-.229c-.475 1.694-1.197 3.292-2.096 4.8-.366.545-.736 1.087-1.154 1.594q-.363.442-.751.861-.172.186-.349.367c-.559.506-1.129.996-1.738 1.441-.246.18-.503.345-.754.516q-.271.156-.547.305c-.888.478-1.802 1.173-2.22 2.132-.336.77-.351 1.831.205 2.521 1.357 1.688 4.157 1.704 5.944.742 3.042-1.636 5.787-3.835 7.912-6.572 2.093-2.695 3.484-5.693 4.3-8.992.204-.832-.468-1.829-1.085-2.285" style="fill:#122a89"/></svg>