<svg xmlns="http://www.w3.org/2000/svg" xml:space="preserve" viewBox="0 0 215 220"><path d="M158.31 103.327c-4.492 0-7.249 3.601-11.741 3.601-7.675 0-12.217-6.887-15.849-9.198-3.908-2.488-8.539-3.718-13.055-2.287-3.455 1.094-6.499 4.868-10.166 4.906-3.667-.038-6.711-3.812-10.166-4.906-4.516-1.431-9.146-.201-13.055 2.287-3.631 2.311-8.173 9.198-15.849 9.198-4.492 0-7.249-3.601-11.741-3.601-4.486 0-5.957 3.421-3.524 6.383 3.562 4.338 11.343 6.431 19.879 4.501 4.961-1.121 8.63-3.388 12.18-5.168 2.34-1.173 4.725-2.557 7.262-3.284.683-.196 1.415-.214 2.743.209 4.071 1.299 7.967 3.636 12.271 3.681 4.304-.045 8.201-2.382 12.271-3.681 1.327-.423 2.06-.405 2.743-.209 2.537.728 4.922 2.111 7.262 3.284 3.55 1.78 7.219 4.047 12.18 5.168 8.536 1.93 16.317-.163 19.879-4.501 2.433-2.962.963-6.383-3.524-6.383" style="fill:#122a89"/><path d="M129.646 113.295c-3.773.242-12.904 3.477-22.146 3.372-9.242.105-18.373-3.13-22.146-3.372-5.838-.375-7.696 3.902-3.694 5.91 7.248 3.635 16.731 5.986 25.841 5.959 9.11.027 18.592-2.324 25.841-5.959 4.001-2.007 2.142-6.285-3.696-5.91" style="fill:#122a89"/></svg>