<svg xmlns="http://www.w3.org/2000/svg" xml:space="preserve" viewBox="0 0 215 220"><path d="M151.122 106.531c-11.138-4.433-17.434-6.296-20.669-6.911-5.928-1.126-8.759-1.044-13.147.316-3.346 1.038-6.298 1.859-9.846 1.9-3.548-.041-6.5-.862-9.846-1.9-4.388-1.361-7.219-1.442-13.147-.316-3.235.614-9.531 2.478-20.669 6.911-2.745 1.093-3.441 2.502-3.119 3.572-.065.9 1.243 2.127 4.06 3.596 11.954 6.233 22.694 12.01 42.721 11.948 20.027.062 30.767-5.715 42.721-11.948 2.818-1.469 4.127-2.697 4.06-3.597.322-1.071-.375-2.479-3.119-3.571m-43.662 7.922c-11.653.137-24.253-3.052-32.362-4.764 1.636-.272 3.233-.529 4.623-.734 3.831-.563 12.11.372 14.417.952 2.294.576 9.086 2.414 13.274 2.476.007 0 .012.004.019.004l.029-.001.029.001c.007 0 .012-.004.019-.004 4.188-.063 10.98-1.9 13.274-2.476 2.307-.58 10.587-1.515 14.417-.952 1.39.204 2.986.461 4.623.734-8.109 1.712-20.709 4.901-32.362 4.764" style="fill:#122a89"/></svg>