<svg xmlns="http://www.w3.org/2000/svg" xml:space="preserve" viewBox="0 0 215 220"><path d="M141.316 100.312c-4.322-5.992-11.692-8.788-18.934-8.638-5.564.115-10.778 1.876-15.689 4.315-5.773-2.516-11.877-4.744-18.223-4.239-6.027.48-11.937 2.969-15.548 7.987-3.853 5.356-3.755 12.263-1.132 18.115 2.705 6.034 7.929 10.076 13.99 12.407 6.429 2.472 13.669 2.765 20.478 2.461 7.519-.336 15.17-1.541 22.343-3.852 5.769-1.859 11.676-4.911 14.548-10.539 2.946-5.772 1.89-12.855-1.833-18.017m-6.343 12.234c-.855 3.644-4.886 5.527-8.104 6.639-9.664 3.339-20.753 4.782-30.933 3.553-7.23-.873-17.778-5.438-16.26-14.571.677-4.072 4.815-6.18 8.566-6.648 3.151-.393 6.308.246 9.364 1.272 5.822 2.301 9.148 4.252 10.294 3.593 8.79-4.983 16.687-6.7 22.706-3.008 2.999 1.841 5.207 5.592 4.367 9.17" style="fill:#122a89"/></svg>