<svg xmlns="http://www.w3.org/2000/svg" xml:space="preserve" viewBox="0 0 215 220"><path d="M166.447 94.505c-10.678 3.886-18.724 5.475-27.038 7.815s-29.596 3.445-31.949 3.131c-2.354.314-23.636-.791-31.949-3.131s-19.007-4.892-27.038-7.815c-3.096-1.127 1.816 5.121 4.156 7.46 14.942 14.942 25.724 20.747 44.209 23.742 2.133.345 7.23.416 10.623.416 2.948 0 8.49-.07 10.623-.416 18.485-2.995 29.538-9.07 44.209-23.742 2.339-2.339 7.25-8.587 4.154-7.46" style="fill:#122a89"/><path d="M83.403 95.839c16.128 2.139 32.396 2.237 48.563.455 3.836-.423 2.479-6.287-1.337-5.866-15.612 1.722-31.391 1.467-46.956-.597-3.836-.51-4.084 5.502-.27 6.008m39.908 37.548c-10.091 1.333-20.295 1.128-30.338-.517-3.094-.507-3.456 4.353-.379 4.857 10.469 1.715 21.128 1.833 31.642.444 3.107-.41 2.179-5.194-.925-4.784" style="fill:#122a89"/></svg>