<svg xmlns="http://www.w3.org/2000/svg" xml:space="preserve" viewBox="0 0 215 220"><path d="M159.345 110.542c-7.983 6.27-12.546 5.521-20.634 1.255-8.765-4.624-16.604-8.599-30.394-9.04-10.175-.326-16.971 3.737-25.497 7.365-6.749 2.872-12.196 4.66-16.833 4.832-3.193.118-6.566-.655-7.092-2.969-.233-1.022-.583-2.923-1.266-4.122-1.021-1.792-2.771-2.608-4.668-1.992-2.106.683-3.415 3.302-2.328 6.23 1.848 4.98 5.573 6.749 9.296 7.483 8.961 1.769 18.504.502 28.82-3.271 5.656-2.068 13.872-4.373 19.953-4.203 9.507.265 19.278 3.295 26.663 6.204 10.686 4.21 20.143 3.159 28.113-3.4 2.992-2.463-1.108-6.748-4.133-4.372" style="fill:#122a89"/><path d="M128.487 125.598c-15.959-7.847-26.155-8.704-42.288 1.028-3.312 1.997-.456 6.817 3.036 5.193 11.857-5.513 25.662-5.477 37.653-.421 1.508.635 3.294-.685 3.7-2.101.495-1.731-.65-2.986-2.101-3.699" style="fill:#122a89"/></svg>