<svg xmlns="http://www.w3.org/2000/svg" xml:space="preserve" viewBox="0 0 215 220"><path d="M144.833 95.078c-23.891 17.605-54.736 23.819-83.502 16.268-7.495-1.967-10.692 9.634-3.198 11.601 31.619 8.3 49.289 23.967 92.771-17.481 5.545-5.286.173-14.989-6.071-10.388m21.781-4.021c-1.868-4.265-5.753-7.458-10.15-8.844-1.773-.558-3.954.658-4.37 2.481-.441 1.934.583 3.771 2.481 4.369q.327.102.652.218c.041.015.187.079.283.119l.253.127q.244.124.484.261.538.306 1.044.662c.112.079.148.111.192.148q.139.115.275.234.462.412.884.866c.151.162.293.331.439.497.46.699.877 1.39 1.253 2.139.069.237.167.468.238.705q.197.655.321 1.328c.008.043.03.228.046.343l.024.371q.036.684.001 1.367c-.01.202-.038.405-.046.606-.001.026.002.009.003.025-.008.036-.009.025-.021.084-.093.447-.186.891-.314 1.33q-.085.292-.184.579c-.039.113-.077.214-.104.286q-.282.617-.623 1.203c-.936 1.607-.423 3.963 1.274 4.86 1.701.898 3.86.441 4.86-1.274 2.699-4.627 2.941-10.211.805-15.09" style="fill:#122a89"/></svg>