<svg xmlns="http://www.w3.org/2000/svg" xml:space="preserve" viewBox="0 0 215 220"><path d="M159.901 93.543c-2.136 1.157-2.612 3.482-.581 8.704 1.36 3.497-5.073 7.557-8.473 8.107-6.75 1.093-16.496 1.041-21.852-2.12-2.449-1.446-5.048-3.32-8.621-4.069-5.132-1.073-8.628 1.57-13.544 2.471-4.916-.901-8.412-3.544-13.544-2.471-3.573.748-6.172 2.622-8.621 4.069-5.357 3.161-9.241 4.162-15.991 3.069-5.861-.949-8.863-5.17-12.363-3.555-3.991 1.842-2.072 5.816.854 8.066 8.996 6.918 26.99 6.803 38.193.897.562-.298 2.14.85 3.725 1.344 3.385 1.055 5.515 2.211 7.747 2.211s4.362-1.155 7.747-2.211c1.585-.494 3.164-1.642 3.725-1.344 11.203 5.906 30.308 4.636 40.002-1.265 6.673-4.062 9.296-8.356 9.719-12.33.638-5.991-4.641-11.458-8.122-9.573m-35.031 31.648c-3.073.225-10.51 3.235-18.039 3.138-7.528.098-14.966-2.912-18.039-3.138-4.756-.349-6.269 3.63-3.009 5.498 5.904 3.382 13.628 5.57 21.048 5.544 7.42.025 15.144-2.162 21.048-5.544 3.26-1.868 1.746-5.847-3.009-5.498m52.679-21.679c1.773-7.545-2.095-16.127-9.256-19.372-1.371-.621-3.167-.439-3.946 1.035-.667 1.263-.432 3.281 1.035 3.946.678.308 1.332.663 1.95 1.079q.207.142.41.291a14 14 0 0 1 .98.88q.396.393.76.814c.121.141.236.287.357.429-.413-.485-.065-.079.02.04q.684.958 1.211 2.008c.083.167.156.339.241.505.01.019.003.001.01.013l.006.018c.132.349.261.697.371 1.054.203.654.485 1.452.494 2.147.001.056.002.114.004.143a13 13 0 0 1 .006 2.222l-.027.267-.047.292q-.063.33-.142.656c-.344 1.466.456 3.193 2.014 3.548 1.478.335 3.18-.445 3.549-2.015" style="fill:#122a89"/><path d="M184.08 86.164c-2.021-3.097-7.017-.209-4.981 2.911 4.814 7.377 4.21 17.764-1.759 24.346-2.489 2.744 1.579 6.835 4.079 4.079 7.644-8.429 8.922-21.741 2.661-31.336M47.801 106.098l-.003.003c-.255.308-.096.194.003-.003" style="fill:#122a89"/><path d="M48.479 98.425c-6.443 2.785-9.932 10.874-7.853 17.507.451 1.437 2.029 2.506 3.548 2.014 1.444-.467 2.497-2.006 2.014-3.548-.106-.337-.2-.677-.273-1.023q-.04-.197-.075-.395c-.04-.665-.074-1.316-.022-1.983l.017-.191.008-.084.017-.101a12.6 12.6 0 0 1 .513-1.953c.051-.147.109-.292.163-.438.011-.021.004-.004.019-.033.292-.576.586-1.141.946-1.678.085-.126.281-.331.333-.472-.009.025-.021.029-.033.051a11.6 11.6 0 0 1 1.408-1.43c.081-.069.534-.368.156-.134-.384.237.091-.057.172-.113.583-.4 1.203-.734 1.852-1.014 1.39-.601 1.808-2.746 1.035-3.946-.929-1.444-2.458-1.678-3.945-1.036" style="fill:#122a89"/></svg>