<svg xmlns="http://www.w3.org/2000/svg" xml:space="preserve" viewBox="0 0 215 220"><path d="M166.407 104.175c-4.743-.516-6.115 2.656-10.96 3.263-20.998 2.632-28.123.98-32.461.61-6.231-.531-10.476-.19-16.445.256-5.969-.445-10.214-.786-16.445-.256-4.338.37-11.462 2.022-32.461-.61-4.846-.607-6.218-3.779-10.96-3.263-4.782.52-5.024 3.345-2.423 5.162 1.323.924 3.518 1.675 6.207 2.311.412.359.944.789 1.643 1.33 10.324 7.998 31.174 15.46 54.439 15.433 23.266.027 44.116-7.435 54.439-15.433a38 38 0 0 0 1.643-1.33c2.689-.636 4.884-1.387 6.207-2.311 2.601-1.817 2.359-4.642-2.423-5.162m-59.866 17.091c-18.365.081-30.895-4.282-37.58-7.3 16.013 1.018 34.06.648 37.58.648s21.567.37 37.58-.648c-6.685 3.018-19.215 7.381-37.58 7.3m5.021 13.384c-3.913.482-6.888.26-11.291-.153-4.645-.435-6.457 3.564-2.777 4.653 5.275 1.561 10.575 1.496 16.159.718 6.966-.97 5.302-6.128-2.091-5.218" style="fill:#122a89"/><path d="M184.774 106.068c-1.263-4.557-4.517-8.231-7.633-11.645-3.949-4.326-7.905-8.647-11.858-12.97-2.618-2.863-6.862 1.4-4.254 4.253l9.652 10.557c2.751 3.009 5.948 5.999 7.688 9.754 3.874 8.361-5.629 13.304-11.801 16.205-3.501 1.645-.45 6.833 3.036 5.194 4.377-2.057 8.894-4.289 12.007-8.12 3.048-3.751 4.481-8.474 3.163-13.228m-145.085 8.681c-.146-.153-.283-.314-.426-.471-.029-.032-.104-.122-.151-.178-.535-.701-.973-1.476-1.358-2.267-.038-.078-.043-.083-.054-.102-.009-.024-.004-.014-.02-.054a13.6 13.6 0 0 1-.699-2.438c-.01-.055-.094-.618-.066-.384.028.235-.021-.336-.025-.39a13 13 0 0 1-.028-.793c-.001-.424.023-.846.06-1.268.005-.055.017-.125.027-.186q.051-.292.113-.58.136-.62.33-1.225c.065-.202.137-.401.207-.6.015-.043.052-.13.079-.195a13.2 13.2 0 0 1 1.329-2.3c.039-.054.036-.051.051-.074.018-.02.017-.017.061-.07q.204-.244.418-.478c.322-.352.665-.68 1.021-.998 1.211-1.084 1.104-3.149 0-4.253-1.203-1.203-3.039-1.086-4.253 0-3.42 3.062-5.469 7.634-5.458 12.229s2.07 9.161 5.506 12.207c1.215 1.077 3.056 1.197 4.253 0 1.097-1.097 1.22-3.171 0-4.253a16 16 0 0 1-.917-.879" style="fill:#122a89"/></svg>