<svg xmlns="http://www.w3.org/2000/svg" xml:space="preserve" viewBox="0 0 215 220"><path d="M126.074 133.254c-1.416-2.422-4.288-2.895-6.666-1.748-4.254 2.052-10.782 2.619-13.285-2.338-.785-1.553-.729-3.051.18-4.164.497-.609.987-.932 1.488-1.118 1.199.115 2.397.216 3.58.298 2.389.166 4.518-1.979 4.785-4.224.305-2.56-1.166-4.439-3.49-5.346-1.796-.7-3.693-.832-5.539-.55-3.669-.408-7.332-1.156-10.495-3.058-3.111-1.871-6.047-5.327-5.461-9.205.491-3.249 3.435-6.019 6.382-7.21 4.976-2.013 10.574-.662 15.366 1.184 2.456.946 5.346-1.044 5.994-3.403.755-2.75-.938-5.044-3.403-5.993-7.237-2.787-15.43-3.599-22.647-.322-6.004 2.726-10.592 8.497-11.355 15.091-.798 6.893 3.115 13.128 8.485 17.105 2.167 1.605 4.56 2.735 7.066 3.571-1.36 3.086-1.605 6.634-.41 9.873 1.81 4.903 5.808 8.654 10.781 10.244 5.664 1.811 11.69.491 16.898-2.02 2.368-1.144 3-4.525 1.746-6.667" style="fill:#122a89"/></svg>