<svg xmlns="http://www.w3.org/2000/svg" xml:space="preserve" viewBox="0 0 215 220"><path d="M159.258 99.9c-7.637 18.615-36.708 13.589-52.245 13.154l-31.131-.873c-4.889-.137-9.881.008-14.75-.463-2.259-.218-5.311-.469-6.081-3.16-.983-3.436 2.539-4.295 5.024-3.972 6.2.805 6.142-8.947 0-9.744-12.236-1.588-19.944 13.664-10.833 22.359 4.436 4.233 10.906 4.274 16.633 4.444 8.524.253 17.048.478 25.573.717 15.896.446 32.635 2.422 48.439.274 12.599-1.712 23.804-8.048 28.767-20.145 2.379-5.798-7.044-8.323-9.396-2.591" style="fill:#122a89"/><path d="M180.905 98.831c-3.118-10.592-15.595-17.449-26.17-13.696-2.396.85-4.254 3.364-3.403 5.993.765 2.363 3.422 4.315 5.994 3.403.497-.177.999-.333 1.513-.454.184-.044.37-.079.555-.117.901-.057 1.785-.109 2.691-.033.217.018.434.056.651.067-.192-.01-.251-.015-.373-.023.038.006.08.008.113.014q.774.149 1.531.373c.408.12.803.268 1.203.406.189.09.38.177.567.273.656.335 1.248.763 1.861 1.157.015-.012.243.103.436.267l.017.015c.05.029.097.064.147.091-.066-.036-.075-.044-.129-.075q.232.199.456.405.532.488 1.015 1.022.2.226.394.458c.234.36.478.708.694 1.079.19.327.348.682.52 1.024-.094-.227-.094-.299.049.097.048.091.086.192.141.277-.05-.078-.088-.159-.126-.238.008.025.01.023.019.051q.128.374.239.755c.719 2.443 3.459 4.223 5.994 3.403 2.474-.802 4.172-3.375 3.401-5.994" style="fill:#122a89"/><path d="M171.187 100.479c.019.045.039.084.064.136l-.015-.04zm-8.825-6.508c-.356-.049-.751-.047 0 0m5.275 2.222c-.01.009.126.102.471.297l-.018-.016c-.154-.088-.304-.185-.453-.281m-43.379 34.115-32.87-.214c-2.633-.017-4.872 2.252-4.872 4.872 0 2.656 2.23 4.855 4.872 4.872l32.87.214c2.633.017 4.872-2.251 4.872-4.872 0-2.656-2.23-4.855-4.872-4.872" style="fill:#122a89"/></svg>