<svg xmlns="http://www.w3.org/2000/svg" xml:space="preserve" viewBox="0 0 215 220"><path d="M174.647 105.023c-12.603 12.181-28.559 7.788-43.517 3.738-5.307-1.437-10.316-1.523-15.327 1.048-2.698 1.384-4.756 4.375-7.949 3.856-2.565-.416-5.122-3.774-7.639-4.729-4.807-1.825-10.204-.04-14.888 1.405-7.137 2.202-14.011 3.776-21.582 3.34-5.668-.326-11.806-1.664-16.566-4.935-1.561-1.073-5.981-4.523-4.477-6.937 2.94-4.718-8.995-3.68-11.102-.3-5.841 9.374 11.162 16.093 17.445 17.615 8.696 2.106 17.953 1.796 26.713.277 3.594-.624 6.936-1.661 10.396-2.757 5.395-1.708 4.606-2.181 8.794.631 6.812 4.573 14.367 5.295 21.605.909 1.194-.723 2.256-1.619 3.364-2.46.45-.398.932-.756 1.408-1.122-.022.189.325.302 1.139.317 3.179.734 6.268 1.865 9.42 2.699 17.973 4.754 38.453 2.841 52.33-10.572 4.982-4.814-6.688-4.805-9.567-2.023m-30.361 24.815c-23.413 5.49-47.952 4.519-70.88-2.717-1.869-.59-4.366-.12-5.614 1.504-1.088 1.417-.801 3.379 1.063 3.967 24.942 7.872 51.475 8.826 76.935 2.856 4.969-1.165 3.44-6.769-1.504-5.61" style="fill:#122a89"/><path d="M198.025 91.621c-1.926-3.227-5.103-4.525-8.766-4.12-1.601.177-4.19.574-5.324 1.854-1.105 1.246 1 1.231 1.831 1.139 1.014-.112 2.338.952 3.011 1.595 1.075 1.029 1.805 2.372 2.252 3.781 1.142 3.599.615 7.545-.388 11.108-1.794 6.372-5.272 12.286-10.226 16.703-1.317 1.175 1.182 1.2 1.832 1.139 1.7-.16 3.997-.671 5.324-1.854 5.793-5.166 9.884-12.18 11.456-19.791.779-3.777 1.054-8.109-1.002-11.554m-174.153 12.34c-.623-2.796-.632-5.164-.03-8.025.383-1.818-2.294-2.202-3.519-2.043-1.604.208-4.07 1.039-4.459 2.89-1.301 6.177.215 12.705 4.007 17.734.453.601 1.508.818 2.187.865.999.069 2.218-.158 3.12-.591 1.211-.582 3.172-2.01 2.026-3.529-1.67-2.213-2.698-4.457-3.332-7.301" style="fill:#122a89"/></svg>