<svg xmlns="http://www.w3.org/2000/svg" xml:space="preserve" viewBox="0 0 215 220"><path d="M179.474 93.835c-6.079.237-6.098 4.692-8.086 6.896-6.137 6.802-39.808-5.484-46.803-5.484-6.093 0-10.524 4.659-17.124 5.038-6.6-.379-11.031-5.038-17.124-5.038-6.995 0-40.665 12.286-46.803 5.484-1.989-2.204-2.007-6.659-8.086-6.896-3.272-.127-4.951 2.945-3.963 6.698.903 3.432 10.438 9.645 19.032 9.864 7.722.197 10.745-.54 19.488-1.89 12.402-1.915 26.273 5.397 37.457 5.397 11.362 0 25.055-7.312 37.457-5.397 8.743 1.35 11.766 2.086 19.488 1.89 8.594-.219 18.129-6.432 19.032-9.864.986-3.752-.694-6.825-3.965-6.698m-43.484 21.462c-19.286 7.878-41.741 7.826-61.245.602-2.452-.908-5.358.979-6.018 3.002-.805 2.473 1.056 4.266 3.417 5.286 25.958 11.213 42.544 12.437 68.785-1.469 5.386-2.854.741-9.74-4.939-7.421" style="fill:#122a89"/></svg>