<svg xmlns="http://www.w3.org/2000/svg" xml:space="preserve" viewBox="0 0 215 220"><path d="M151.113 111.751c-5.968-3.601-12.466-6.344-19.233-8.306-1.452-1.225-3.099-2.342-5.145-3.183-8.391-3.454-14.687-3.588-19.32-.377-.494-.004-.987.026-1.481.03-4.606-1.731-9.887-3.107-15.322-1.627-2.951.802-5.459 2.448-7.378 4.659-6.806 1.809-13.367 4.388-19.428 7.81-4.722 2.665.815 8.521 5.5 5.876 3.197-1.804 6.59-3.278 10.077-4.554-.723 7.034 2.66 13.321 5.317 17.469 3.069 4.787 6.931 10.095 12.33 13.167 3.002 1.712 6.062 2.47 9.078 2.467 8.914 0 17.452-6.623 22.982-14.885l.517-.77c3.119-4.635 6.935-10.369 7.047-16.317 3.209 1.324 6.314 2.841 9.246 4.61 4.624 2.789 9.84-3.278 5.213-6.069m-26.722 12.051-.875 1.319c-3.803 5.824-11.549 15.096-20.827 11.971-4.203-1.43-7.237-5.287-9.751-8.788-2.57-3.58-5.146-7.434-5.933-11.736-.784-4.262.443-9.275 4.952-10.867 1.19-.417 2.403-.587 3.61-.587 2.353 0 4.67.649 6.667 1.372-1.847 4.444-1.918 9.651-1.706 14.644.056 1.283.652 2.285 1.68 2.823 1.184.614 2.746.502 3.983-.279 1.204-.767 1.859-2.03 1.795-3.548-.167-3.912-.358-8.344 1.604-11.748.499-1.128 1.422-2.135 2.382-2.549 2.919-1.698 7.005-.32 9.983.681 3.698 1.242 7.445 3.031 7.234 6.87-.196 3.537-2.748 7.355-4.798 10.422" style="fill:#122a89"/></svg>