<svg xmlns="http://www.w3.org/2000/svg" xml:space="preserve" viewBox="0 0 215 220"><path d="M167.257 98.25c-.942-3.776-4.824-4.782-7.283-4.124-15.132 4.046-25.515 4.342-53.099 4.695-31.118.398-43.273-4.073-46.26-4.978-3.746-1.135-8.896.483-11.661 3.356-1.053 1.095-1.398 2.204-1.381 3.239-.4 1.035.739 2.354 1.368 2.871 12.323 10.143 16.996 17.857 30.343 25.211 9.313 5.132 17.202 7.285 27.292 7.306 18.782.039 30.982-5.021 47.495-22.252 4.014-4.189 6.622-8.367 11.542-11.468 1.376-.867 1.781-2.157 1.608-3.383.028-.157.075-.315.036-.473m-26.676 14.306c-4.958 3.285-7.174 4.345-12.846 6.525-4.764 1.832-11.398 3.433-20.28 3.328-9.225-.11-17-1.933-20.701-3.583-7.616-3.394-17.692-10.351-19.483-11.532-.376-.248-.763-.511-1.145-.768 5.928.536 11.884.721 17.832 1.204 21.151 1.717 38.633 2.086 60.656-1.386a117 117 0 0 0 3.887-.701c-2.715 2.63-5.936 5.599-7.92 6.913m-27.978 30.939c-3.663.732-6.448.395-10.569-.232-4.348-.661-6.043 5.412-2.599 7.066 4.937 2.371 9.898 2.271 15.125 1.09 6.52-1.474 4.962-9.306-1.957-7.924" style="fill:#122a89"/></svg>