<svg xmlns="http://www.w3.org/2000/svg" xml:space="preserve" viewBox="0 0 215 220"><path d="M166.346 101.262c-20.957 9.402-44.101 10.696-66.746 10.261-17.891-.343-35.496-2.134-52.561-7.73-5.53-1.814-7.9 6.896-2.398 8.7 18.498 6.065 37.836 7.829 57.215 8.089 23.644.317 47.243-1.749 69.044-11.53 5.288-2.372.705-10.149-4.554-7.79m-31.649 23.636c-9.746 4.372-20.596 4.891-31.116 4.689-8.428-.162-16.676-1.004-24.714-3.64-4.609-1.511-6.584 5.747-1.999 7.25 8.973 2.942 18.392 3.8 27.792 3.926 11.613.156 23.133-.933 33.832-5.734 4.407-1.976.588-8.457-3.795-6.491" style="fill:#122a89"/></svg>