<svg xmlns="http://www.w3.org/2000/svg" xml:space="preserve" viewBox="0 0 215 220"><path d="M147.29 106.243c-7.046-1.802-10.882-2.687-14.104-3.371-7.107-1.508-10.76-.903-15.851.143-3.442.707-6.313 1.867-9.875 1.903-3.562-.036-6.434-1.196-9.875-1.903-5.091-1.046-8.744-1.651-15.851-.143-3.222.684-7.058 1.569-14.104 3.371-2.066.528-6.351-4.742-8.604-2.168-2.368 2.705-.775 8.959 4.386 8.959 6.276 0 10.546-.156 16.28-.999 3.831-.563 12.068.574 14.417.951 3.856.619 9.169 2.438 13.351 2.481 4.181-.043 9.494-1.862 13.351-2.481 2.349-.377 10.586-1.514 14.417-.951 5.734.843 10.004.999 16.28.999 5.162 0 6.754-6.254 4.386-8.959-2.253-2.574-6.538 2.697-8.604 2.168m-8.434 11.514c-5.644.396-17.57 5.687-31.396 5.516-13.826.171-25.751-5.12-31.396-5.516-8.734-.613-8.104 5.12-2.117 8.404 10.865 5.958 23.528 7.796 33.513 7.764 9.985.033 22.648-1.806 33.513-7.764 5.987-3.283 6.616-9.017-2.117-8.404m29.417-17.47c-.622-1.541-1.429-3.001-2.697-4.117-1.224-1.078-2.695-1.983-4.326-2.261-1.073-.183-2.069-.171-3.041.398-.819.479-1.6 1.417-1.814 2.358-.23 1.01-.18 2.144.398 3.041.525.814 1.363 1.644 2.358 1.814.211.036.409.116.612.177q.163.09.319.19.178.168.345.35.2.31.369.638.115.346.194.702.016.282.006.564c-.028.116-.055.232-.091.346-.099.178-.179.366-.3.534-.565.786-.645 2.145-.398 3.041.252.915.96 1.907 1.814 2.358.916.484 2.026.727 3.041.398 1.029-.333 1.728-.937 2.359-1.814 1.744-2.422 1.951-5.994.852-8.717M58.524 96.665c-.214-.941-.995-1.879-1.814-2.358-.971-.569-1.967-.581-3.041-.398-1.631.278-3.102 1.183-4.326 2.261-1.268 1.117-2.075 2.576-2.697 4.117-1.098 2.723-.891 6.295.851 8.716.631.876 1.329 1.481 2.359 1.814 1.015.329 2.125.086 3.041-.398.854-.451 1.561-1.443 1.814-2.358.247-.896.167-2.256-.398-3.041-.12-.167-.2-.356-.3-.534q-.05-.171-.091-.346a6 6 0 0 1 .006-.564q.079-.356.194-.702a8 8 0 0 1 .369-.638q.166-.182.345-.35.156-.1.319-.19c.203-.061.401-.14.612-.177.995-.17 1.833-.999 2.358-1.814.579-.895.629-2.03.399-3.04" style="fill:#122a89"/></svg>