<svg xmlns="http://www.w3.org/2000/svg" xml:space="preserve" viewBox="0 0 215 220"><path d="M170.463 90.83c-6.496-3.086-7.712 3.372-4.877 5.325 2.787 1.92 4.757 4.048 6.134 6.297-2.108.511-4.037 1.501-4.921 2.917-1.437 2.3-6.116 2.636-8.484 3.01-5.449.862-11.062 1.032-16.57.99-5.141-.039-10.244-.466-15.375-.697-6.832-.309-13.396 2.855-20.02 1.609-6.3-1.185-11.769-1.405-18.129-.322-7.032 1.199-13.407 1.268-20.493.305-2.624-.356-20.851-3.104-17.541-8.704 3.542-5.991-9.702-5.703-12.402-1.135-5.41 9.151 6.952 14.505 13.82 16.453 7.81 2.215 16.292 3.272 24.399 3.22 4.455-.029 8.659-.953 13.036-1.637 4.696-.734 8.591.091 13.185.834 8.154 1.32 15.587-1.967 23.741-1.455 6.914.434 13.87.587 20.794.304 8.4-.343 19.549-1.113 27.077-6.261-.323 3.032-1.428 6.15-3.323 9.272-.668 1.101-1.123 3.164 1.81 4.118 4.096 1.333 6.132-.791 6.794-1.882 6.62-10.901 4.425-26.347-8.655-32.561" style="fill:#122a89"/><path d="M139.715 122.96c-19.766 7.256-41.289 7.12-61.194.529-2.912-.964-7.165.272-9.244 2.477-2.045 2.169-1.311 4.431 1.43 5.338 24.393 8.076 50.444 6.811 74.433-1.996 2.164-.794 5.068-3.47 3.321-5.867-1.838-2.522-6.473-1.316-8.746-.481" style="fill:#122a89"/></svg>