<svg xmlns="http://www.w3.org/2000/svg" xml:space="preserve" viewBox="0 0 215 220"><path d="M166.728 91.119c-4.695-.776-6.053 3.993-10.851 4.906-20.789 3.957-29.53-.214-33.824-.771-6.169-.797-8.683 1.403-14.593 2.072-5.909-.67-8.424-2.87-14.593-2.072-4.294.556-13.035 4.728-33.824.771-4.797-.913-6.155-5.681-10.851-4.906-4.734.782-4.974 5.029-2.398 7.76.693.735 1.672 1.408 2.774 2.053-.363.594.44 2.144 2.547 5.507 10.685 17.05 32.264 36.107 56.344 36.05 24.08.057 45.659-19 56.344-36.05 2.107-3.363 2.91-4.913 2.547-5.507 1.103-.645 2.082-1.319 2.775-2.053 2.576-2.731 2.336-6.978-2.397-7.76m-59.268 30.598c-20.565.186-34.173-9.562-40.561-15.213 16.584 2.97 36.828 3.685 40.561 3.685s23.977-.715 40.561-3.685c-6.388 5.65-19.997 15.398-40.561 15.213" style="fill:#122a89"/></svg>