<svg xmlns="http://www.w3.org/2000/svg" xml:space="preserve" viewBox="0 0 215 220"><path d="M142.734 102.591c-3.994 10.212-19.867-8.911-35.274-8.911-15.391 0-31.279 19.123-35.274 8.911-1.097-2.806-7.194-1.545-6.649 3.232.499 4.368 5.76 6.918 10.501 7.197 4.261.25 5.929-.687 10.753-2.405 6.843-2.437 14.497 1.755 20.668 1.755 6.269 0 13.825-4.192 20.668-1.755 4.824 1.719 6.492 2.656 10.753 2.405 4.742-.279 10.003-2.829 10.501-7.197.546-4.777-5.55-6.037-6.647-3.232" style="fill:#122a89"/><path d="M132.918 113.317c-4.704-1.227-12.89 5.836-25.458 6.169-12.568-.333-20.754-7.396-25.458-6.169-4.102 1.07-5.583 4.947-2.555 7.488 7.437 6.238 16.613 9.537 27.19 9.872-.003.033-.002.101-.006.13.286 0 .544-.06.829-.065.285.005.542.065.829.065-.004-.029-.002-.097-.006-.13 10.577-.335 19.753-3.634 27.19-9.872 3.028-2.541 1.547-6.418-2.555-7.488" style="fill:#122a89"/></svg>