<svg xmlns="http://www.w3.org/2000/svg" xml:space="preserve" viewBox="0 0 215 220"><path d="M175.35 93.586c-1.203-.488-2.492-.438-3.626.002l-.026.006c-.46.181-.858.473-1.247.783-.126.098-.28.138-.398.25-.144.136-14.983 13.622-64.841 13.622-49.043 0-64.182-13.03-64.801-13.584l-.007-.006-.03-.026c-.086-.084-.2-.113-.291-.189-.397-.336-.813-.646-1.29-.841-.314-.129-.647-.144-.977-.205-.289-.054-.563-.162-.861-.163a4.9 4.9 0 0 0-3.506 1.423l-.004.005a4.9 4.9 0 0 0-1.067 1.595c-.127.306-.138.633-.202.954-.061.302-.176.59-.179.902a4.9 4.9 0 0 0 .356 1.893v.002c.658 1.629 16.814 39.926 72.857 39.926 55.978 0 72.154-38.191 72.851-39.911l.003-.007.003-.008c.05-.123.031-.251.071-.375.149-.479.277-.964.274-1.461.007-1.956-1.139-3.809-3.062-4.587m-70.139 36.479c-26.935 0-43.266-9.728-52.664-18.751 11.156 3.589 27.98 6.801 52.664 6.801 24.488 0 41.25-3.161 52.408-6.714-9.475 8.993-25.788 18.664-52.408 18.664m92.196-43.567c-2.713-.249-5.073 1.865-5.255 4.583-.273 3.906-2.713 7.655-5.292 11.623l-.696 1.07a4.93 4.93 0 0 0 1.466 6.817 4.9 4.9 0 0 0 2.67.792 4.93 4.93 0 0 0 4.147-2.258l.674-1.038c3.013-4.626 6.421-9.868 6.866-16.332a4.93 4.93 0 0 0-4.58-5.257" style="fill:#122a89"/></svg>