<svg xmlns="http://www.w3.org/2000/svg" xml:space="preserve" viewBox="0 0 215 220"><path d="M155.884 114.584c-8.157-2.966-15.309-7.856-23.185-11.407-4.18-1.884-8.595-3.928-13.281-3.574-2.289.173-4.57.872-6.659 1.806-1.66.743-3.712 2.257-4.661 1.93-.867-.299-2.271-1.049-3.117-1.415-1.748-.757-3.514-1.436-5.398-1.75-4.811-.8-9.187.682-13.344 3.007-7.134 3.99-14.002 8.508-21.545 11.711-2.007.852-5.171 3.245-3.378 5.656 1.762 2.369 6.582 1.268 8.715.362 7.146-3.034 13.742-7.133 20.452-11q.773-.444 1.549-.881c.416-.235 1.565-.926 2.205-.627.83.388 1.668.769 2.506 1.139 3.443 1.518 6.912 2.551 10.72 2.108 1.904-.221 3.859-.785 5.62-1.53 1.545-.653 5.074-2.028 5.51-1.861.799.264 1.765.699 2.575 1.047 1.762.756 3.49 1.59 5.193 2.469 7.182 3.703 14.014 7.611 21.643 10.385 4.509 1.638 15.277-4.885 7.88-7.575" style="fill:#122a89"/><path d="M112.816 116.742c-7.341-.334-14.65.93-21.515 3.502-1.61.603-3.716 2.026-4.631 3.551-.687 1.145-.961 2.782.09 3.849 2.675 2.716 7.445 1.817 10.768.69a16 16 0 0 1 .426-.136q.705-.215 1.418-.396c.337-.086.678-.16 1.02-.234l.316-.051c.993-.148 1.992-.25 2.994-.323-1.324.086-.44-.019.091-.028l.181.001c.237-.015.475-.024.712-.042-.238.018-.411.03-.592.042.456-.004.912-.007 1.367.005.923.023 1.837.108 2.756.188q.074.011.147.024.632.113 1.256.26c.403.095.799.212 1.196.325.504.218.968.508 1.431.8.041.041.09.073.13.116 2.755 2.846 8.404 1.897 11.598.403 2.164-1.012 7.411-4.435 4.541-7.4-3.873-4.002-10.429-4.906-15.7-5.146" style="fill:#122a89"/><path d="M103.928 127.169c-.076.005-.151.019-.227.025l.391-.027h-.12z" style="fill:#122a89"/></svg>