<svg xmlns="http://www.w3.org/2000/svg" xml:space="preserve" viewBox="0 0 215 220"><path d="M149.584 98.995c-24.367 18.086-59.324 19.296-85.051 3.388-5.337-3.301-10.671 4.856-5.33 8.159 6.869 4.247 14.257 7.36 21.886 9.456-.004.089-.046.152-.043.245.211 7.913 1.69 11.824 13.7 12.948 6.706.627 10.461-.724 12.714-3.216 2.253 2.492 6.008 3.843 12.714 3.216 12.01-1.124 13.489-5.035 13.7-12.948a2.7 2.7 0 0 0-.708-1.945c8.145-2.817 15.909-6.847 22.957-12.078 5.04-3.741-1.539-10.937-6.539-7.225M101.2 127.021c-1.673 1.339-10.628.073-11.571-.905-1.256-1.302-1.959-2.951-2.279-4.646a88 88 0 0 0 16.827 1.63c-.579 1.518-1.51 2.747-2.977 3.921m26.657-6.816c-.057 2.144-.996 4.28-2.566 5.91-.942.978-9.897 2.244-11.571.905-1.544-1.235-2.509-2.521-3.078-4.154 5.836-.422 11.631-1.389 17.283-2.956-.013.106-.065.183-.068.295" style="fill:#122a89"/></svg>