<svg xmlns="http://www.w3.org/2000/svg" xml:space="preserve" viewBox="0 0 215 220"><path d="M133.005 116.18c-4.366.336-14.931.039-25.624-.106-10.694.145-21.258.442-25.624.106-6.755-.52-8.905 5.412-4.274 8.195 8.387 5.042 19.358 8.302 29.898 8.265 10.54.038 21.512-3.223 29.898-8.265 4.631-2.783 2.481-8.715-4.274-8.195m11.287-14.13c-10.354-6.224-23.899-10.25-36.912-10.203-13.012-.047-26.557 3.979-36.911 10.203-5.717 3.436-3.063 10.76 5.277 10.118 5.389-.415 18.432-.049 31.635.131 13.202-.18 26.245-.546 31.635-.131 8.339.642 10.993-6.682 5.276-10.118" style="fill:#122a89"/></svg>