<svg xmlns="http://www.w3.org/2000/svg" xml:space="preserve" viewBox="0 0 215 220"><path d="M144.943 104.514c-4.476 3.078-14.879 1.231-19.208-1.828-1.982-1.399-3.977-4.051-6.864-4.773-4.144-1.038-7.519 1.518-11.491 2.39-3.972-.872-7.347-3.428-11.491-2.39-2.887.723-4.882 3.374-6.864 4.773-4.328 3.059-14.731 4.906-19.208 1.828-7.082-4.87-8.603 2.614-4.433 6.453 1.81 1.666 4.154 3.144 6.792 4.338l.134.252c7.923 15.123 24.783 20.172 35.07 20.13 10.287.041 27.147-5.007 35.07-20.13l.134-.252c2.637-1.194 4.982-2.671 6.792-4.338 4.17-3.839 2.649-11.323-4.433-6.453m-37.563 15.433c-3.996.17-9.725-.44-15.953-2.074 2.218-.443 4.331-1.115 6.131-2.251 0 0 2.764 1.346 4.315 1.683 1.931.42 3.447.774 5.506.392 2.059.382 3.575.028 5.506-.392 1.551-.337 4.315-1.683 4.315-1.683 1.8 1.136 3.914 1.808 6.131 2.251-6.226 1.634-11.955 2.244-15.951 2.074" style="fill:#122a89"/></svg>