<svg xmlns="http://www.w3.org/2000/svg" xml:space="preserve" viewBox="0 0 215 220"><path d="m159.334 94.518-.875-.811c-3.325-3.09-6.473-6.003-7.783-9.604-1.022-2.808-4.141-4.265-6.937-3.237a5.415 5.415 0 0 0-3.237 6.937c.626 1.724 1.464 3.26 2.393 4.706-1.271.201-2.487.806-3.368 1.873-.423.517-10.703 12.647-35.885 12.647-25.082 0-35.38-12.042-35.876-12.641-1.859-2.32-5.246-2.696-7.581-.846a5.415 5.415 0 0 0-.875 7.607c.54.681 13.61 16.712 44.332 16.712 30.727 0 43.797-16.03 44.338-16.712.403-.508.654-1.079.847-1.659.764.736 1.533 1.468 2.278 2.159l.852.787a5.38 5.38 0 0 0 3.689 1.457 5.4 5.4 0 0 0 3.959-1.727 5.407 5.407 0 0 0-.271-7.648m-49.683 40.731c-11.877 0-16.383 2.314-17.769 3.307-2.426 1.745-3.149 5.24-1.404 7.666 1.075 1.504 2.72 2.332 4.388 2.332a5.12 5.12 0 0 0 2.996-.981c.029-.018 2.955-1.492 11.789-1.492 8.282 0 11.378 1.298 11.754 1.474a5.42 5.42 0 0 0 7.261-1.44 5.426 5.426 0 0 0-1.239-7.56c-1.387-.992-5.893-3.306-17.776-3.306" style="fill:#122a89"/></svg>