<svg xmlns="http://www.w3.org/2000/svg" xml:space="preserve" viewBox="0 0 215 220"><path d="M165.43 99.038c-.841-.681-1.598-1.01-2.328-.943-1.065.053-1.774.772-2.524 1.536-.879.893-1.873 1.903-3.675 2.32-21.401 4.94-35.861 2.607-43.648 2.257-2.744-.123-4.567-.202-5.78-.008-1.194-.17-2.89-.083-5.45.076-7.664.464-21.954 3.035-44.001-2.322-1.788-.438-2.782-1.442-3.661-2.329-.757-.764-1.469-1.483-2.538-1.536-.851-.088-1.496.267-2.338.949-1.364 1.104-1.954 2.3-1.75 3.548.324 1.985 2.512 3.325 3.859 3.986 9.45 9.975 31.142 19.839 55.864 19.839 24.72 0 46.411-9.863 55.859-19.836 1.343-.661 3.536-2.001 3.86-3.988.206-1.249-.385-2.445-1.749-3.549m-57.227 18.147-.751.006c-.187.003-.366.003-.553.003-10.263 0-21.28-2.455-30.866-5.293 12.174 1.224 24.808 1.339 31.429 1.339 6.843 0 19.252-.092 31.242-1.283-9.488 2.797-20.354 5.201-30.501 5.228" style="fill:#122a89"/></svg>