<svg xmlns="http://www.w3.org/2000/svg" xml:space="preserve" viewBox="0 0 215 220"><path d="M121.973 113.141c-4.627 1.734-8.91 3.899-14.513 3.899-5.604 0-9.886-2.165-14.513-3.899-4.215-1.58-5.081 5.836-2.373 9.198 6.34 7.872 11.647 10.639 16.886 10.639s10.546-2.767 16.886-10.639c2.709-3.362 1.842-10.778-2.373-9.198" style="fill:#122a89"/><path d="M141.037 103.159c-6.105 3.351-10.438-1.377-14.962-5.533-2.069-1.901-5.517-7.105-8.535-8.089-4.335-1.411-5.928 3.668-10.08 4.853-4.153-1.185-5.745-6.264-10.08-4.853-3.017.984-6.466 6.187-8.535 8.089-4.525 4.156-8.857 8.884-14.962 5.533-3.341-1.834-11.6-.878-8.267 3.715 5.537 7.633 12.214 7.419 19.895 3.987 2.623-1.172 5.321-4.763 10.074-2.637 3.741 1.673 6.096 3.01 11.875 3.01s8.135-1.337 11.875-3.01c4.753-2.126 7.451 1.465 10.074 2.637 7.681 3.432 14.358 3.646 19.895-3.987 3.333-4.593-4.926-5.549-8.267-3.715" style="fill:#122a89"/></svg>