<svg xmlns="http://www.w3.org/2000/svg" xml:space="preserve" viewBox="0 0 215 220"><path d="M179.277 98.753c-2.529-4.161-12.088-2.418-12.978 2.218-2.197.036-5.416.997-7.855 1.275-5.776.659-11.75-.004-18.524-1.496-6.276-1.382-14.421-3.088-20.616-1.485-3.653.945-7.658 2.877-10.541 2.988-7.096.273-11.343-3.377-17.451-3.377-6.372 0-18.426 3.414-24.813 3.868-3.954.28-10.527.56-16.118-5.636-1.811-2.008-3.614-4.844-9.073-3.885-3.111.546-4.668 4.106-4.668 4.106-1.214 3.969 1.049 6.574 4.583 8.255l-.008.006c.026.007.051.02.077.027 1.241.583 2.625 1.059 4.085 1.432 9.863 4.052 19.584 12.046 28.1 17.407 11.799 7.427 24.58 10.097 38.429 9.172 12.023-.803 23.495-4.194 33.245-11.399 9.204-6.802 17.486-12.19 28.114-16.963 4.79-1.351 7.903-3.402 6.012-6.513m-35.406 15.984c-10.05 6.379-23.531 10.558-34.309 11.159-12.733.71-24.962-2.429-35.231-9.555-4.881-3.388-8.728-5.855-12.927-7.904 5.94.08 12.645.014 18.442-.668 5.173-.609 13.017-2.341 18.082-.954 9.289 2.545 15.773 1.746 19.468.636 4.374-1.313 8.412-2.589 11.953-2.418 7.897.382 13.79 2.855 21.361 2.799.704-.005 2.81-.054 5.541-.21-3.864 1.96-7.582 4.069-12.38 7.115m-14.831 24.374c-6.967 4.253-12.285 4.867-21.921 4.867-7.893 0-15.93-1.448-21.53-4.23-2.212-1.099-7.674-4.02-9.339-1.646-1.751 2.496 1.511 4.591 5.023 6.417 9.545 4.963 19.113 6.768 27.289 6.83 9.654.073 14.919-1.717 24.887-7.048 2.613-1.397 4.673-4.166 2.865-6.07-1.671-1.76-5.392-.269-7.274.88" style="fill:#122a89"/><path d="M30.481 112.115c-3.826-4.902-5.188-6.4-6.072-11.923-.74-4.623.768-7.232 3.723-11.818 3.986-6.185 10.114-11.675 16.556-15.166 1.8-.975 1.156-2.067-.592-2.209-2.444-.199-5.136.799-7.243 1.94-7.065 3.828-13.434 9.654-18.097 16.192-3.136 4.398-4.693 9.869-2.602 15.049 2.067 5.118 6.439 9.149 10.165 13.069 4.652 4.894 6.504 7.006 8.664 9.747 1.508 1.914 4.713.71 3.706-3.33-.867-3.478-4.445-6.728-8.208-11.551m166.883-26.502c-2.72-3.466-7.261-4.226-11.352-3.225-1.911.468-4.898 2.263-4.254 4.61.487 1.775 2.548 2.004 5.989 1.865 0 0 9.264-.763 2.521 15.237-4.739 11.246-6.813 14.647-17.945 30.26-1.344 1.886-4.844 5.723-2.691 6.42 2.396.775 4.455-1.328 6.17-3.143 5.158-5.457 9.674-11.484 13.604-17.879 3.882-6.317 7.887-13.13 9.674-20.384 1.1-4.461 1.279-9.945-1.716-13.761" style="fill:#122a89"/></svg>