<svg xmlns="http://www.w3.org/2000/svg" xml:space="preserve" viewBox="0 0 215 220"><path d="M179.474 91.163c-6.079.236-6.098 4.692-8.086 6.896-6.137 6.802-39.808-2.074-46.803-2.074-6.093 0-10.524 2.954-17.124 3.332-6.6-.379-11.031-3.332-17.124-3.332-6.995 0-40.665 8.876-46.803 2.074-1.989-2.204-2.007-6.659-8.086-6.896-3.272-.127-4.951 2.945-3.963 6.698.728 2.768 7.084 7.296 14.021 9.078 8.096 3.983 17.273 9.437 25.111 12.425 11.38 4.338 23.735 7.308 36.844 7.287 13.108.021 25.464-2.95 36.844-7.287 7.839-2.988 17.015-8.441 25.111-12.425 6.938-1.781 13.293-6.31 14.021-9.078.988-3.752-.692-6.825-3.963-6.698m-39.661 21.507c-8.965 3.045-19.45 4.318-32.353 4.318-13.063 0-23.388-1.273-32.353-4.318-5.657-1.921-9.777-3.797-14.212-5.442 2.524-.329 5.254-.796 9.108-1.391 15.728-2.428 29.683 1.987 37.457 1.987 7.952 0 21.729-4.415 37.457-1.987 3.855.595 6.584 1.062 9.108 1.391-4.434 1.645-8.555 3.52-14.212 5.442m13.992 26.748c-27.318 19.703-64.348 19.093-91.395-.692-3.618-2.647-7.343 3.22-3.749 5.85 29.776 21.783 70.067 21.434 99.851-.048 3.623-2.613-1.119-7.697-4.707-5.11" style="fill:#122a89"/></svg>