<svg xmlns="http://www.w3.org/2000/svg" xml:space="preserve" viewBox="0 0 215 220"><path d="M117.735 94.829c-5.188-.719-10.482-.493-15.624.465-5.145.959-10.548 2.574-14.967 5.46-2.632 1.719-5.271 3.991-5.718 7.279-.381 2.804 1.308 5.168 3.394 6.873 6.56 5.363 16.996 5.68 24.954 4.595 5.978-.815 12.242-2.43 17.415-5.645 3.089-1.919 6.072-4.552 6.199-8.433-.23-7.033-10.145-9.831-15.653-10.594m-.167 18.725c-.108.076-.286.202-.309.216q-.396.247-.808.47l-.193.076c-.02.008-.022.005-.04.012.013.002.023-.003.037 0-.031-.007-.197.052-.341.108-.177.054-.353.109-.421.131l-.008.003c-.011.001-.002-.001-.014.001a20 20 0 0 0-.761.131c-5.468.71-12.095-.231-16.812-3.583-3.414-2.426-4.85-6.734-1.35-9.812.545-.479.523-.462.935-.723.209-.132.425-.25.638-.374.04-.023.019-.014.047-.03.037-.016.017-.003.077-.03.085-.038.394-.165.583-.245l.134-.042c.124-.035.173-.05.256-.075.1-.017.187-.032.359-.064.076-.015.424-.069.553-.093q.34-.041.681-.077a19 19 0 0 1 1.941-.11 29 29 0 0 1 5.132.384c4.746.796 12.242 3.226 12.434 9.101-.065 1.922-1.266 3.5-2.75 4.625m5.157 9.082c-9.899 4.447-21.274 4.795-31.515 1.347-3.677-1.238-5.254 4.569-1.599 5.8 11.851 3.991 24.785 3.153 36.15-1.954 1.482-.665 1.836-2.82 1.079-4.115-.892-1.524-2.628-1.746-4.115-1.078" style="fill:#122a89"/></svg>