<svg xmlns="http://www.w3.org/2000/svg" xml:space="preserve" viewBox="0 0 215 220"><path d="M190.885 80.788c-2.012-2.012-7.623-4.055-11.275-4.741-9.855-1.853-15.326-1.834-23.97-1.709-10.98.158-17.702 1.095-23.459 4.314-2.162 1.208-4.56 4.851-6.549 8.91-.85 1.068-2.21 2.626-3.843 3.927-3.062 2.438-10.807 1.645-10.807 1.645l-.001.02a34 34 0 0 0-3.483-.207 34 34 0 0 0-3.48.206l-.001-.019s-7.745.792-10.807-1.645c-1.634-1.301-2.993-2.86-3.843-3.928-1.989-4.058-4.387-7.701-6.548-8.909-5.757-3.219-12.479-4.156-23.459-4.314-8.644-.124-14.114-.144-23.97 1.709-3.652.687-9.263 2.729-11.275 4.741-2.293 2.293-8.969 13.265-8.969 20.232 0 20.154 9.965 37.751 13.511 40.052 6.077 3.943 13.278 4.097 23.577 4.576 10.224.476 22.942-1.839 26.504-5.635 7.395-7.877 10.944-18.233 14.678-34.814.664-1.045 1.597-2.148 2.905-2.955 1.894-1.167 5.245-1.817 7.005-2.095 1.404-.189 2.816-.329 4.172-.329 1.347 0 2.747.137 4.139.322 1.749.275 5.135.926 7.04 2.101 1.308.807 2.242 1.911 2.905 2.955 3.733 16.581 7.283 26.937 14.678 34.814 3.563 3.796 16.28 6.111 26.504 5.635 10.299-.479 17.5-.633 23.577-4.576 3.546-2.301 13.511-19.897 13.511-40.052.001-6.966-6.674-17.938-8.967-20.231M88.751 102.974c-3.531 19.154-7.808 25.979-13.034 32.912-3.184 4.232-10.97 5.068-23.338 5.068h-.141c-9.359 0-15.324-.621-20.054-3.895-4.742-3.283-8.966-17.752-10.711-25.783-1.166-5.346-.849-10.745-.061-13.501 2.632-9.246 6.94-14.329 13.968-16.48 4.396-1.345 20.047-2.598 23.719-2.274l1.516.131c9.355.809 15.533 1.345 20.093 5.11 2.642 2.181 9.015 13.446 8.043 18.712m94.064 34.085c-4.754 3.289-10.768 3.999-20.192 3.895-12.368 0-20.153-.836-23.342-5.068-5.226-6.932-9.503-13.758-13.034-32.912-.971-5.266 5.401-16.531 8.045-18.712 4.559-3.765 10.738-4.3 20.093-5.11l1.516-.131c3.691-.31 19.323.929 23.719 2.274 7.028 2.15 11.336 7.233 13.968 16.482.788 2.754 1.105 8.153-.061 13.499-1.746 8.031-5.97 22.499-10.712 25.783" style="fill:#122a89"/><path d="m60.447 81.095-1.516-.131a16 16 0 0 0-1.333-.042c-4.971 0-17.986 1.118-21.647 2.24-6.327 1.933-10.231 6.607-12.665 15.148-.602 2.11-1.074 7.193.091 12.551 1.825 8.391 5.973 21.864 9.919 24.595 4.308 2.982 9.98 3.548 18.942 3.548h.13c11.149 0 19.117-.735 21.791-4.291 5.07-6.725 9.218-13.358 12.673-32.093.788-4.257-4.799-14.733-7.367-16.853-4.091-3.379-9.709-3.866-19.018-4.672m118.601 2.066c-3.66-1.122-16.676-2.24-21.647-2.24-.552 0-1.002.013-1.333.042l-1.516.131c-9.309.806-14.927 1.293-19.018 4.672-2.567 2.12-8.155 12.596-7.367 16.853 3.455 18.735 7.603 25.368 12.669 32.093 2.682 3.556 10.65 4.291 21.799 4.291h.13c8.959 0 14.63-.566 18.938-3.548 3.946-2.731 8.094-16.204 9.919-24.595 1.166-5.357.693-10.44.091-12.549-2.434-8.543-6.339-13.217-12.665-15.15" style="fill:#122a89"/></svg>