<svg xmlns="http://www.w3.org/2000/svg" xml:space="preserve" viewBox="0 0 215 220"><path d="M150.268 120.414c-.147-.613-1.243-.738-1.678-.776-1.1-.096-2.389.115-3.439.414-1.091.31-2.263.681-3.185 1.361-.445.329-1.224.849-1.065 1.511.045.185.075.374.118.56-1.055-.057-2.246.126-3.234.407-1.091.31-2.264.681-3.185 1.361a9 9 0 0 0-.521.413c-1.207-.505-2.799-.436-3.905-.105-1.113.333-2.319.845-3.077 1.762-.396.479-.77 1.07-.856 1.7-.686.039-1.37.138-1.963.31-1.259.365-3.383 1.128-3.951 2.531-.895.066-1.816.222-2.638.453-.913.257-1.847.575-2.701 1.016-.399-.395-1.17-.607-1.53-.675-1.085-.203-2.436-.046-3.481.257-.349.101-.769.236-1.203.403-.76-.851-2.59-.822-3.636-.66-1.196.186-2.438.52-3.482 1.153v-1.478c0-.513-1.468-.529-1.613-.532-1.111-.02-2.352.217-3.412.515-.646.181-1.3.398-1.937.652.039-.708.067-1.416.123-2.122.156-1.974-2.599-1.985-3.98-1.77-.876.136-1.752.399-2.583.75.163-.566.324-1.134.502-1.695.259-.817-.48-1.772-1.089-2.175-.853-.564-2.18-.736-3.167-.623-1.25.143-2.449.565-3.42 1.264.121-.621.186-1.253.334-1.87.411-1.713-2.94-1.27-3.804-1.113-1.218.222-2.467.548-3.565 1.13-.206.109-.472.248-.741.402l.009-.143a36 36 0 0 1 .735-4.116c.411-1.713-2.941-1.27-3.804-1.113-1.217.222-2.467.548-3.565 1.13-.599.318-1.72.82-1.893 1.543-1.071 4.459-1.651 9.518.221 13.846.266.615 1.111.727 1.678.776 1.1.096 2.389-.115 3.439-.414.335-.095.677-.219 1.018-.333.153 1.821.533 3.609 1.262 5.296.266.614 1.111.727 1.678.776 1.1.096 2.389-.115 3.439-.414.146-.041.294-.1.442-.145.225 1.2.534 2.387.967 3.543.784 2.089 3.624 2.288 5.484 1.732.137-.041.274-.117.413-.164-.027.426-.04.852-.074 1.278-.156 1.974 2.599 1.985 3.98 1.77 1.221-.19 2.494-.526 3.551-1.184l.005-.003v4.15c0 .513 1.468.529 1.613.531 1.111.02 2.352-.217 3.412-.515a21 21 0 0 0 1.801-.587c.389 1.386 2.691 1.382 3.918 1.191 1.221-.19 2.494-.526 3.551-1.184l.009-.006.002.037c.056.712 1.294 1.063 1.779 1.154 1.085.203 2.436.046 3.481-.257.427-.124.955-.299 1.49-.522v.159c0 .513 1.468.529 1.613.531 1.111.02 2.351-.217 3.412-.515 1.093-.307 2.246-.651 3.212-1.26.463-.292 1.131-.639 1.131-1.267v-.45c1.079.193 2.41.041 3.444-.259 1.224-.355 3.261-1.089 3.896-2.418 1.144.034 2.333-.134 3.353-.65.896-.454 2.06-1.132 2.431-2.123q.42-1.12.737-2.234c.168-.023.364-.03.513-.058 1.218-.222 2.467-.548 3.565-1.13.68-.36 1.571-.796 1.893-1.543.354-.819.608-1.667.82-2.526.392-.031.794-.066 1.118-.126 1.218-.222 2.467-.548 3.565-1.13.68-.36 1.571-.796 1.894-1.543 1.871-4.322 1.398-9.377.326-13.842M73.384 81.733q.91.068 1.809-.082a10.4 10.4 0 0 0 2.087-.406c.799-.237 1.61-.547 2.384-.922.042.036.068.084.113.117q.564.621 1.389.827.93.32 1.895.252a5.8 5.8 0 0 0 2.122-.267 11 11 0 0 0 1.616-.666c.242.083.472.147.645.18 1.229.239 2.76.054 3.943-.303 1.157-.349 2.39-.836 3.339-1.644a15.6 15.6 0 0 0 2.657-.506c.377-.11.759-.245 1.14-.371.016.147.008.297.028.444q.174.608.709.849.57.45 1.307.51a6 6 0 0 0 1.843.048 8 8 0 0 0 2.101-.351 12.5 12.5 0 0 0 2.273-.946c.046.019.055.077.105.093a3.9 3.9 0 0 0 1.55.33q.96.125 1.921-.049c.782-.126 1.57-.335 2.335-.609v.032c0 .604 1.663.623 1.827.626 1.259.023 2.664-.256 3.865-.607.208-.061.42-.141.631-.205-.022.19-.019.382-.045.572q-.201.598.166 1.038.246.577.873.767c.978.473 2.449.447 3.471.281.81-.131 1.625-.355 2.415-.646.18.264.399.498.7.666q.749.502 1.621.607a4.9 4.9 0 0 0 1.967.127c.925-.11 1.849-.403 2.721-.805.07.446.546.723.97.864q.743.202 1.504.154a8 8 0 0 0 1.892-.162c1.379-.262 2.795-.646 4.039-1.332.768-.424 1.784-.939 2.145-1.819.573-1.396.582-3.065.335-4.542-.12-.718-.292-1.446-.554-2.125-.28-.725-1.282-.858-1.901-.914a7.5 7.5 0 0 0-1.809.082q-1.06.096-2.087.406c-.341.101-.688.235-1.036.353l.006-.109.048-.817q.151-.794-.267-1.43a2.04 2.04 0 0 0-.967-1.133 3.66 3.66 0 0 0-1.621-.607 4.9 4.9 0 0 0-1.967-.127c-.499.059-1.003.201-1.503.337-.032-.055-.036-.118-.08-.17q-.247-.577-.872-.767c-.978-.473-2.449-.447-3.471-.281-.864.14-1.729.391-2.564.716-.369-.371-1.527-.408-1.666-.41-1.258-.023-2.664.256-3.865.607-.439.128-.885.281-1.328.432-.007-.043-.007-.088-.014-.131q-.174-.608-.709-.849a2.4 2.4 0 0 0-1.307-.51 6 6 0 0 0-1.843-.048 8 8 0 0 0-2.101.351c-.702.212-1.422.492-2.107.837a3.9 3.9 0 0 0-1.473-.314 6.2 6.2 0 0 0-1.921.049c-.844.137-1.691.378-2.51.69v-.488c0-.605-1.663-.623-1.827-.626-1.258-.023-2.664.256-3.865.607-.415.121-.836.267-1.256.408-.153-.819-1.403-1.206-1.997-1.322-1.229-.239-2.76-.054-3.943.303-.743.224-1.5.532-2.218.909-.066-.021-.121-.06-.19-.077a4.8 4.8 0 0 0-1.895-.252 5.8 5.8 0 0 0-2.123.267c-1.26.392-2.628.996-3.486 2.077l-.646.944c-.033.062-.034.128-.062.19-.264.028-.529.013-.791.068-1.379.262-2.795.646-4.039 1.332-.757.417-1.806.94-2.145 1.819-.262.678-.434 1.407-.554 2.125-.25 1.494-.369 3.115.217 4.543.297.721 1.263.853 1.901.911" style="fill:#122a89"/></svg>