<svg xmlns="http://www.w3.org/2000/svg" xml:space="preserve" viewBox="0 0 215 220"><path d="M136.032 117.399c-.97-.223-1.833-.351 0 0" style="fill:#122a89"/><path d="M161.438 120.135c-7.24-4.467-15.345-7.635-23.576-9.916.573.05 1.146.082 1.719.138.395.048.614.074.751.089l.942.138c1.244.193 2.482.412 3.72.641 1.294.239 10.589 1.702 9.273-2.209-.517-1.538-3.578-2.99-4.76-3.556-2.749-1.316-5.853-2.202-8.84-2.753a142 142 0 0 0-15.46-1.992c1.756-.463 3.516-.906 5.289-1.184 2.662-.418-.576-2.586-1.427-2.993-2.43-1.16-5.416-1.909-8.105-1.487-6.997 1.097-13.897 3.809-20.551 6.589-.136.02-.274.029-.41.049 1.404-.813 2.777-1.685 4.217-2.427 1.794-.925-2.961-3.084-3.463-3.275-2.064-.785-5.361-1.753-7.466-.668-4.926 2.54-9.601 5.567-14.179 8.753.669-.624 1.302-1.285 1.972-1.909 1.334-1.241-1.16-2.82-2.03-3.223-1.457-.675-3.846-1.055-5.135.145-2.858 2.659-5.729 5.293-8.397 8.147-.279.298-.548.615-.824.918.704-1.409-.879-2.625-2.044-3.184-.878-.421-2.066-.642-3.038-.577-.625.043-1.722.251-2.128.836-1.771 2.557-2.985 5.59-4.085 8.482-.963 2.534-2.122 5.345-2.066 8.104.015.749.875 1.396 1.425 1.788.84.6 1.908.888 2.919 1.02 1.414.185 3.353-.214 3.398-1.891-.014.183-.021.422.017.148.016-.117.022-.236.037-.353.018-.138.046-.274.07-.411.403.176.768.305 1.003.374 1.348.395 3.74.568 4.41-.996.241-.563.567-1.096.856-1.643l.03.012a17 17 0 0 0 4.516 1.018c.754.058 2.249.167 2.95-.35.941-.695 1.886-1.408 2.827-2.111 1.965.603 4.318 1.048 6.036.196 1.674-.83 3.389-1.581 5.081-2.376 2.081.363 5.097.811 7.167.188a265 265 0 0 1 7.547-2.146c2.926.798 5.97 1.17 8.625.954 2.495-.203 4.994-.335 7.498-.358.254-.002 2.32.032 2.562.021.989.042 1.976.092 2.963.165q1.707.126 3.407.314c.263.029.526.063.788.094l.456.068c1.053.187 2.11.347 3.161.548.383.073 3.651.614 1.48.29-2.132-.319.956.258 1.362.365.919.243 1.853.614 2.785.788l-.679-.129c.34.078.686.166.917.248.788.277 1.567.578 2.349.871l.315.144q1.069.477 2.118.996c.18.089.267.13.384.186.527.308 1.053.612 1.573.932 4.681 2.888 10.918 4.54 16.401 4.394.946-.025 3.697-.213 4.071-1.607.372-1.395-1.918-2.93-2.724-3.427" style="fill:#122a89"/></svg>