<svg xmlns="http://www.w3.org/2000/svg" xml:space="preserve" viewBox="0 0 215 220"><path d="M171.141 109.475c-10.418-9.923-23.868-15.291-37.713-16.709-4.261-.709-8.516-.713-12.756-.165-.405.028-.814.013-1.219.047-.367.031-.638.158-.957.238-2.932.505-5.856 1.166-8.756 2.1-5.24 1.686-21.536 6.93-26.812 8.5-4.972 1.477-22.273 5.924-31.324 10.276-9.005 4.329-9.383 11.057-7.511 12.985 3.456 3.559 6.586-1.347 42.708-8.082 14.106-2.63 28.18-4.611 36.711-2.552.011.003.023 0 .034.003 2.962 3.303 6.346 5.839 9.616 6.502 4.087.829 7.457-.365 6.778-4.369 6.406.112 6.164.964 12.593 1.725 6.199.733 6.587-3.67 6.378-5.951 1.876-.04 8.206 2.088 10.082 2.048 3.466-.074 4.361-4.488 2.148-6.596" style="fill:#122a89"/></svg>