<svg xmlns="http://www.w3.org/2000/svg" xml:space="preserve" viewBox="0 0 215 220"><path d="M70.803 86.512c3.608-.171 7.482 1.219 10.078 4.74.184-.002.409-.051.581-.042 1.325.061 2.592.431 3.82.948.917-.846 1.893-1.545 2.865-1.919 4.18-1.602 8.598-.048 12.104 3.427 1.025-1.059 2.149-1.934 3.262-2.36 2.862-1.099 6.717-.834 9.74 1.102.085-.051.157-.137.243-.181 3.95-2.133 8.013-1.137 11.777 1.285 9.345 6.012 18.033 14.044 25.872 23.56 3.645 4.425 2.875 11.439-1.23 14.533-4.555 3.433-11.022 2.059-14.91-2.662-.873-1.059-1.842-1.853-2.734-2.855-.365.407-.679.884-1.1 1.201-3.282 2.474-7.405 2.245-10.914.452-3.833 2.191-8.225 1.222-11.873-1.183-1.044-.69-2.002-1.586-3.028-2.316-3.308 3.04-7.437 2.885-11.114 1.509-2.379-.891-4.642-2.143-6.822-3.613-2.43.582-5.011.307-7.145-.681C72 117.632 65.571 109.611 62.369 97.84c-1.864-6.854 4.871-11.159 8.434-11.328" style="fill:#122a89"/></svg>