<svg xmlns="http://www.w3.org/2000/svg" xml:space="preserve" viewBox="0 0 215 220"><path d="M123.894 98.792c-21.138-2.032-45.606 1.171-59.324 10.295-4.006 2.664-2.792 9.017 9.429 8.046 22.856-1.814 18.551-11.654 55.417-12.872 4.816-.159 7.354-4.231-5.522-5.469" style="fill:#122a89"/><path d="M137.204 112.597c6.647.74 9.559-.197 7.924-2.431-1.166-1.593-5.267-2.748-10.755-3.572s-15.391-.096-15.391-.096c-5.55.713-6.045 2.504-5.952 4.573.088 1.973 1.641 3.817 6.295 2.904-.001-.001 9.2-2.345 17.879-1.378m15.316 5.934c-.945-1.291-4.266-2.226-8.711-2.894-4.446-.667-12.467-.078-12.467-.078-4.495.578-4.897 2.029-4.822 3.704.072 1.598 1.33 3.092 5.099 2.352 0 0 7.453-1.899 14.482-1.116 5.384.601 7.743-.159 6.419-1.968" style="fill:#122a89"/></svg>