<svg xmlns="http://www.w3.org/2000/svg" xml:space="preserve" viewBox="0 0 215 220"><path d="M166.805 121.942c-6.813-14.924-18.446-26.993-33.345-33.937-13.925-6.489-31.319-8.778-46.561-8.119-15.197.657-31.896 5.062-38.164 20.492-4.729 11.642-2.794 31.314 11.157 35.26.456.234 1.064.403 1.865.47 8.251.698 15.588-1.564 22.917-5.172 7.428-3.656 12.966-5.463 21.316-4.09a51 51 0 0 1 11.906 3.513c3.738 1.616 6.635 4.382 10.209 6.15 3.814 1.887 7.399 1.038 9.852-1.303 3.406 2.664 6.874 5.416 11.155 4.987 2.581-.259 4.398-1.492 5.75-3.154 2.324 2.059 4.757 3.648 8.507 2.456 8.073-2.566 6.083-11.756 3.436-17.553m-10.178 5.398c-2.521-1.39-7.895-.483-8.302 3.019-.016.137-.152.809-.304 1.529-.234-.174-.484-.328-.714-.508-2.409-1.868-4.565-3.619-7.334-4.989-2.391-1.183-7.281-.613-8.142 2.483-.984-.688-1.972-1.357-3.018-1.958-2.855-1.639-5.926-2.992-9.034-4.067-5.989-2.072-12.393-3.287-18.736-3.286-5.778.001-10.998 1.467-16.196 3.936-6.504 3.09-12.345 6.626-19.832 5.993-5.669-.952-8.171-8.849-8.942-13.631-1.203-7.464.63-15.713 5.765-21.398 9.738-10.781 29.726-8.452 42.54-6.653 14.619 2.053 28.069 6.577 38.998 16.884 6.325 5.965 11.407 13.34 14.826 21.324.426.995.672 2.071.906 3.131-.815-.669-1.639-1.345-2.481-1.809" style="fill:#122a89"/></svg>