<svg xmlns="http://www.w3.org/2000/svg" xml:space="preserve" viewBox="0 0 215 220"><path d="M72.065 98.95c1.563-1.435 3.207-1.93 5.295-2.193 6.735-.849 13.575.336 19.795 2.991 1.275-2.348 3.542-4.174 6.377-3.957 14.779 1.13 28.35 6.572 39.947 15.757 3.085 2.444 2.745 8.07 0 10.59-3.263 2.995-7.27 2.604-10.556.02l.104.081-.132-.098q-.004-.001-.006-.004l-.017-.013a61 61 0 0 0-2.686-1.904 62 62 0 0 0-7.559-4.328c-.686-.333-1.382-.642-2.076-.958a63.4 63.4 0 0 0-9.254-2.943c-.041-.01-.083-.015-.124-.024.223 2.235-.377 4.562-2.022 6.073-3.086 2.833-7.514 2.844-10.59 0-.581-.537-1.216-1.287-1.919-1.656l.847.654a31 31 0 0 0-1.553-1.095 33 33 0 0 0-4.192-2.349c.086.023.095.028.197.055-.334-.086-.662-.262-.985-.382a33 33 0 0 0-2.207-.731c-1.319-.386-2.669-.63-4.022-.855-2.455-.237-4.913-.257-7.367.053-1.765.222-4.099-.997-5.295-2.193-1.298-1.299-2.276-3.43-2.193-5.295.086-1.938.723-3.947 2.193-5.296" style="fill:#122a89"/><path d="m91.702 113.569.043.024c-1.595-.422-.589-.28-.043-.024" style="fill:#122a89"/></svg>