<svg xmlns="http://www.w3.org/2000/svg" xml:space="preserve" viewBox="0 0 215 220"><path d="M150.553 112.685c-9.901-8.194-21.23-14.192-33.323-18.426-4.574-1.602-11.28-.045-12.952 4.941-.326.972-.241 2.047.036 3.086a84 84 0 0 0-7.661-1.35c-3.427-.436-9.238.411-9.532 4.651-.268-.064-.53-.146-.799-.208-3.738-.871-10.58-1.485-12.4 3.076a19.6 19.6 0 0 0-3.068-.596l-2.758-.073a10.6 10.6 0 0 0-4.485 1.168l-1.488 1.179q-1.007 1.047-.852 2.406-.214 1.415.674 2.636a7.8 7.8 0 0 0 2.331 2.478 11.3 11.3 0 0 0 3.394 2.091c3.738 1.41 7.543 2.623 11.339 3.864q2.802.768 5.701.626l2.454-.375a6.9 6.9 0 0 0 3.519-1.972l.826-1.535c.04-.145.014-.278.037-.42q4.172 1.209 8.286 2.646c2.508.877 5.573.859 8.155.25 1.925-.454 3.67-1.599 4.345-3.506.08-.226.042-.468.06-.704.383.195.799.317 1.178.521l-1.169-.631v-.004c4.441 2.443 10.357 4.142 15.165 1.662a4.55 4.55 0 0 0 1.767-1.656c2.247 1.55 4.53 3.051 6.636 4.793 4.139 3.426 11.078 4.199 15.598 1.162 1.818-1.221 2.914-3.589 2.714-5.754-.223-2.421-1.94-4.546-3.728-6.026" style="fill:#122a89"/></svg>