<svg xmlns="http://www.w3.org/2000/svg" xml:space="preserve" viewBox="0 0 215 220"><path d="M155.837 88.497c-9.826-6.55-43.125-2.921-50.833-1.275-17.817 3.807-35.997 8.312-51.093 17.178-8.217 4.826-6.892 12.102-7.987 22.334-1.472 13.747 6.92 7.372 12.167 4.991 11.424-5.185 32.947-9.545 44.069-9.371 11.33.173 24.708 1.589 31.017 1.091 3.276-.259 6.649-4.906 10.994-11.452 8.43-12.697 17.314-19.731 11.666-23.496m7.94 8.478c-1.463-1.765-3.854-1.993-5.295 0L141.3 120.736c-1.349 1.867-1.516 5.129 0 6.957 1.464 1.765 3.855 1.993 5.296 0l17.181-23.761c1.349-1.867 1.516-5.128 0-6.957m4.926 12.105c-1.484-1.788-3.83-1.963-5.295 0l-13.213 17.7c-1.373 1.84-1.5 5.148 0 6.957 1.484 1.788 3.83 1.963 5.295 0l13.213-17.7c1.372-1.839 1.5-5.148 0-6.957" style="fill:#122a89"/></svg>