<svg xmlns="http://www.w3.org/2000/svg" xml:space="preserve" viewBox="0 0 215 220"><path d="M67.829 104.499c21.864-6.999 56.101-8.096 78.991-4.037 6.895 1.222 5.56 8.467-.531 13.385-5.387 4.349-9.192 8.91-16.58 7.6-2.336-.414-5.191-1.219-7.608-1.141 3.307-.107-.517-.032-1.355-.099a127 127 0 0 0-3.857-.249 131 131 0 0 0-14.915.122c-1.287.084-2.568.195-3.851.307l-.265.021c-.164.026-.272.044-.533.082-2.543.368-5.075.735-7.591 1.216-5.026.962-14.02-1.674-18.783-5.519-6.224-5.025-10.157-9.435-3.122-11.688" style="fill:#122a89"/></svg>