<svg xmlns="http://www.w3.org/2000/svg" xml:space="preserve" viewBox="0 0 215 220"><path d="M129.47 97.279c-1.433-1.657-5.287-5.498-10.227-5.046-3.877.326-7.14 2.793-8.744 4.235-1.76 1.591-2.672 2.002-3.041 2.112-.378-.117-1.297-.54-3.039-2.11-1.601-1.442-4.861-3.912-8.744-4.238-4.923-.461-8.788 3.392-10.227 5.046-4.52 5.207-11.781 14.612-9.619 19.067.06.124.177.297.284.462.173.491.428.963.829 1.373 9.02 9.234 19.646 14.11 30.751 14.11h.203c11.129-.059 21.725-5.025 30.648-14.356.663-.692.879-1.666.753-2.596.896-4.735-5.608-13.199-9.827-18.059m-21.605 28.998c-8.074.12-16.198-3.122-23.314-9.202 9.839-.972 34.534-.496 45.545.54-6.797 5.642-14.392 8.621-22.231 8.662m-25.271-14.781c1.475-2.66 4.181-6.567 7.396-10.275 1.283-1.474 3.366-3.113 5.181-2.996 1.53.129 3.48 1.145 5.219 2.714 1.42 1.279 3.439 2.845 5.642 3.429.378.171.791.278 1.233.278.066 0 .129-.031.195-.033.066.002.129.033.195.033a2.85 2.85 0 0 0 1.195-.271c2.216-.576 4.249-2.15 5.675-3.435 1.745-1.568 3.695-2.585 5.222-2.714 1.771-.115 3.9 1.521 5.181 2.996 3.562 4.105 6.479 8.438 7.794 11.051-11.767-1.501-38.249-2.516-50.128-.777" style="fill:#122a89"/></svg>