<svg xmlns="http://www.w3.org/2000/svg" xml:space="preserve" viewBox="0 0 215 220"><path d="M140.075 106.512c-5.382-1.863-10.167-4.979-15.382-7.211-3.061-1.31-6.198-2.63-9.581-2.523-2.16.068-6.371 1.773-7.719 1.773-1.329 0-3.975-1.133-5.454-1.404-4.39-.805-8.339.669-12.158 2.685-3.75 1.981-9.056 5.072-13.7 6.909-1.983.785-5.177 3.194-3.406 5.551 3.006 4.574 13.701 17.641 33.97 17.641 13.834 0 26.116-7.94 34.743-18.431.005-.005.014-.009.019-.014.012-.012.012-.023.025-.036l.023-.026c.013-.016.014-.029.026-.044 2.037-2.068 1.136-3.99-1.406-4.87m-41.121-1.671c1.385 0 5.6 2.31 8.008 2.31 1.734 0 5.824-2.002 7.383-2.002.648 0 4.726 2.313 9.052 4.622-5.117.754-10.269 1.202-15.46 1.202-6.543 0-13.053-.624-19.539-1.478 4.865-2.237 9.969-4.654 10.556-4.654m7.193 17.877c-6.654-.282-12.19-3.001-16.887-7.18 5.175.516 10.366.83 15.568.789 6.901-.056 13.739-.825 20.52-2.017-5.114 3.968-13.343 8.655-19.201 8.408" style="fill:#122a89"/></svg>