<svg xmlns="http://www.w3.org/2000/svg" xml:space="preserve" viewBox="0 0 215 220"><path d="M166.496 118.246c-17.768.058-31.021-12.064-47.426-18.011-19.978-7.242-70.411-12.365-82.861-.642-7.198 6.778-4.413 12.773-.631 17.989 1.844 2.544 9.435 6.077 12.564 6.194 23.048.865 26.881-6.255 42.732-11.746 8.025-2.78 16.493-3.645 24.874-2.12 8.179 1.488 15.938 4.593 23.73 7.392 8.731 3.136 17.656 5.847 27.019 5.816 3.134-.01 3.14-4.882-.001-4.872" style="fill:#122a89"/><path d="M115.249 122.453c2.964 1.042 4.239-3.664 1.295-4.698-10.343-3.634-21.979-1.444-30.55 5.264-1.037.811-.851 2.594 0 3.445 1.024 1.024 2.406.814 3.446 0 7.223-5.654 17.229-7.026 25.809-4.011m6.443 6.553c-7.858-3.768-17.383-3.312-24.74 1.438-2.126 1.373-.151 4.791 1.992 3.408 6.121-3.952 14.148-4.606 20.756-1.438.96.46 2.131.264 2.7-.708.504-.862.257-2.237-.708-2.7m60.299-14.384c-3.45-8.694-12.359-12.295-20.551-15.185-2.963-1.045-4.237 3.661-1.295 4.698 6.426 2.267 13.813 4.884 16.989 11.464 2.982 6.178-1.14 12.589-6.071 16.284-1.061.794-1.578 2.096-.874 3.333.594 1.044 2.282 1.661 3.333.874 6.584-4.931 11.796-13.084 8.469-21.468" style="fill:#122a89"/></svg>