<svg xmlns="http://www.w3.org/2000/svg" xml:space="preserve" viewBox="0 0 215 220"><path d="m127.066 124.426-1.656-.664c-3.251-1.336-7.74-3.183-15.476-2.965-.013 0-.024-.007-.037-.007q-.054 0-.1.003c-7.871.223-12.242 2.323-15.431 3.856l-1.615.752a3.61 3.61 0 0 0-1.844 4.758 3.6 3.6 0 0 0 3.301 2.156c.488 0 .981-.097 1.457-.305a68 68 0 0 0 1.827-.855c2.896-1.392 6.174-2.966 12.506-3.149 6.479-.173 9.692 1.21 12.659 2.429.652.267 1.275.523 1.886.752a3.616 3.616 0 0 0 4.646-2.118 3.615 3.615 0 0 0-2.123-4.643m28.53-29.82a5.406 5.406 0 0 0-6.708 3.689c-2.044 7.04-13.093 6.391-25.212 5.008-4.952-.561-8.523-.966-11.196-.273-1.234.32-2.414.802-3.583 1.301-.969.414-1.968.843-2.508.843s-1.545-.429-2.52-.843c-1.163-.499-2.35-.981-3.577-1.301-4.036-1.043-8.194.737-13.475 2.996-7.149 3.063-15.261 6.541-22.093 2.608-2.59-1.483-5.903-.605-7.39 1.997a5.41 5.41 0 0 0 1.997 7.39c4.036 2.32 8.147 3.187 12.136 3.187 7.401 0 14.374-2.987 19.614-5.228 2.397-1.028 5.692-2.438 6.485-2.47.711.185 1.38.493 2.056.781 1.786.761 4.012 1.709 6.767 1.709s4.975-.949 6.761-1.709c.67-.288 1.345-.596 1.985-.767 1.057-.182 4.67.235 7.313.537 11.995 1.369 32.073 3.66 36.837-12.747a5.41 5.41 0 0 0-3.689-6.708" style="fill:#122a89"/></svg>