<svg xmlns="http://www.w3.org/2000/svg" xml:space="preserve" viewBox="0 0 215 220"><path d="M152.862 90.068c-14.346 6.123-30.047 5.011-45.481 5.011-15.486 0-31.135 1.112-45.481-5.011-4.171-1.781-7.786 1.831-5.999 6 4.769 11.123 11.775 29.667 16.242 33.832 7.583 7.071 22.322 8.32 32.556 9.293.881.084 1.755.126 2.682.126.92 0 1.801-.042 2.682-.126 10.235-.973 24.973-2.222 32.556-9.293 4.467-4.165 11.472-22.709 16.242-33.832 1.787-4.169-1.828-7.78-5.999-6m-27.689 14.015-.805 7.459c-4.555.278-9.071.388-13.584.429l-.24-8.261c4.868.094 9.755.327 14.629.373m-21.188-.369.24 8.239c-4.599-.075-9.204-.229-13.847-.551l-.79-7.32c4.794-.044 9.604-.271 14.397-.368m-33.424 5.636c-.916-2.714-1.825-5.436-2.894-7.928 5.033 1.625 10.157 2.311 15.322 2.559l.735 6.8c-4.353-.408-8.7-.809-13.163-1.431m67.229 13.773c-4.435 5.304-16.624 6.245-24.936 7.035-1.824.174-3.663.211-5.473.211-1.929 0-3.649-.037-5.473-.211-8.312-.79-20.501-1.73-24.936-7.035-1.645-1.967-2.922-4.469-4.037-7.203 23.497 2.966 45.286 3.049 68.767.283-1.088 2.62-2.325 5.023-3.912 6.92m6.305-13.461c-4.434.579-8.753.946-13.078 1.315l.756-6.996c5.166-.248 10.29-.934 15.322-2.559-1.11 2.588-2.049 5.423-3 8.24" style="fill:#122a89"/></svg>