<svg xmlns="http://www.w3.org/2000/svg" xml:space="preserve" viewBox="0 0 215 220"><path d="M161.235 91.759c-4.539.236-4.553 4.691-6.039 6.895-4.583 6.802-29.726-12.304-34.949-12.304-4.55 0-7.859 4.659-12.788 5.038-4.929-.379-8.237-5.038-12.788-5.038-5.223 0-30.366 19.106-34.949 12.304-1.485-2.204-1.499-6.659-6.039-6.895-2.443-.127-3.697 2.945-2.959 6.698.674 3.432 7.794 9.645 14.212 9.864.423.014.792.014 1.18.018-.383.782-.691 1.607-.857 2.425-.914 4.505 1.198 7.771 3.877 9.629 32.765 22.728 44.947 25.479 78.033-2.676 2.857-2.431 3.207-6.336 2.132-9.386.232-.005.437-.002.681-.01 6.417-.219 13.538-6.433 14.212-9.864.738-3.753-.516-6.825-2.959-6.698M76.328 107.1c.954-.203 1.97-.421 3.161-.668 9.261-1.915 19.619 5.397 27.971 5.397 8.484 0 18.71-7.312 27.971-5.397.91.188 1.724.362 2.489.525-19.62 11.154-41.735 10.397-61.592.143" style="fill:#122a89"/></svg>