<svg xmlns="http://www.w3.org/2000/svg" xml:space="preserve" viewBox="0 0 215 220"><path d="m124.615 121.053-1.639-.714c-3.231-1.439-7.654-3.41-15.519-3.41s-12.289 1.971-15.519 3.41l-1.639.714a3.6 3.6 0 0 0-1.985 4.699 3.61 3.61 0 0 0 3.342 2.253c.452 0 .91-.085 1.357-.267a48 48 0 0 0 1.862-.805c2.931-1.304 6.25-2.784 12.582-2.784s9.651 1.48 12.582 2.784c.64.288 1.251.561 1.862.805a3.607 3.607 0 0 0 4.699-1.986 3.6 3.6 0 0 0-1.985-4.699m20.947-15.169c-4.218-.699-8.735-2.185-13.111-3.621-7.319-2.405-13.64-4.5-18.897-3.128-1.228.32-2.414.802-3.583 1.301-.969.414-1.974.843-2.514.843s-1.545-.429-2.514-.843c-1.169-.499-2.356-.981-3.583-1.301-5.24-1.357-11.572.717-18.903 3.128-4.37 1.436-8.888 2.922-13.099 3.621a5.41 5.41 0 0 0-4.453 6.224 5.41 5.41 0 0 0 6.227 4.456c5.028-.831 10.174-2.523 14.709-4.015 4.729-1.554 10.644-3.486 12.794-2.934.711.185 1.386.493 2.062.781 1.786.761 4.012 1.709 6.761 1.709s4.975-.949 6.761-1.709c.676-.288 1.351-.596 2.062-.781 2.156-.558 8.059 1.38 12.794 2.934 4.541 1.492 9.681 3.184 14.715 4.015q.451.074.893.073a5.413 5.413 0 0 0 .879-10.753" style="fill:#122a89"/></svg>