<svg xmlns="http://www.w3.org/2000/svg" xml:space="preserve" viewBox="0 0 215 220"><path d="m146.696 115.472-20.114-16.365c-5.975-4.861-12.661-9.202-22.549-6.591-15.715 4.15-23.148 15.965-35.588 23.035-2.516 1.43-2.136 4.424 0 5.907 2.488 1.728 5.984 1.433 8.506 0 10.514-5.974 16.875-15.383 28.692-20.244 2.43-1 4.649-1.699 7.014-.366 2.914 1.641 5.228 4.013 7.651 5.984l17.879 14.546c5.036 4.097 13.511-1.836 8.509-5.906" style="fill:#122a89"/><path d="M97.268 116.082c-1.465-.334-3.407.444-3.7 2.101l-2.297 13.014c-.272 1.544.415 3.316 2.101 3.7 1.465.333 3.407-.444 3.7-2.101l2.296-13.014c.273-1.544-.414-3.316-2.1-3.7m7.045-9.303c-1.56.07-3.095 1.325-3.008 3.008l.716 13.782c.082 1.568 1.325 3.083 3.008 3.008 1.56-.07 3.095-1.325 3.008-3.008l-.716-13.782c-.082-1.569-1.326-3.084-3.008-3.008m16.671 16.513a19 19 0 0 1-.444-.903l-.055-.138.067.185c-.061-.172-.137-.34-.201-.511-.46-1.217-.756-2.486-.959-3.77-.079-.744-.145-1.488-.138-2.238.014-1.574-1.393-3.08-3.008-3.008-1.641.074-2.993 1.321-3.008 3.008-.037 4.297 1.226 8.647 3.636 12.212.88 1.301 2.688 1.999 4.115 1.079 1.296-.835 2.021-2.721 1.079-4.115a19 19 0 0 1-1.084-1.801" style="fill:#122a89"/></svg>