<svg xmlns="http://www.w3.org/2000/svg" xml:space="preserve" viewBox="0 0 215 220"><path d="M64.886 100.948c-.032.003-.079.057-.12.087l-.021.021z" style="fill:#122a89"/><path d="M156.721 112.163c-19.815-.381-29.338-5.023-45.362-5.72-7.352-.321-15.241 1.025-22.265 2.816-18.112 4.619-22.839-.138-23.47-.357-.277-.144-.564-.267-.827-.436l-.136-.092c-.157-.141-.32-.279-.467-.425-.169-.166-.323-.343-.482-.518-.198-.296-.342-.62-.505-.934a10 10 0 0 1-.256-.927q-.039-.666.006-1.331c.105-.468.219-.934.382-1.387.043-.082.076-.17.122-.251q.187-.33.396-.646c.04-.048.083-.099.105-.123q.217-.235.448-.457c.026-.025.081-.087.127-.139l.076-.053c.051-.034.083-.091.132-.127l-.142.108c.058-.062.106-.086.163-.129 2.225-1.629 3.406-4.751 1.789-7.259-1.5-2.328-4.902-3.645-7.407-1.942-5.438 3.696-8.33 10.431-6.632 16.908.741 2.827 2.451 5.581 4.686 7.468 1.97 1.663 6.747 3.728 6.975 3.801 9.229 2.921 15.393 2.068 22.428.346 7.358-1.801 12.46-4.335 20.152-4.663 8.244-.352 16.87 1.286 25.061 2.066 8.699.828 17.54 4.249 26.098 2.483 7.76-1.602 5.722-7.947-1.195-8.08m-27.642 12.416c-11.944-2.334-24.201-2.01-35.98 1.088-4.908 1.291-2.827 8.907 2.098 7.611 10.366-2.727 21.254-3.146 31.783-1.088 2.09.408 4.26-.592 4.855-2.756.532-1.937-.654-4.444-2.756-4.855" style="fill:#122a89"/></svg>