<svg xmlns="http://www.w3.org/2000/svg" xml:space="preserve" viewBox="0 0 215 220"><path d="M80.012 104.275c5.388-.203 8.368-3.269 12.571-6.058 1.029-.683 3.008-1.947 4.31-1.382.713.309 1.36 1.431 1.935 1.959 1.098 1.007 2.216 1.633 3.625 2.12 2.97 1.027 6.296 1.124 9.251.002 1.482-.563 2.756-1.33 3.99-2.318.583-.467 1.189-1.183 1.806-1.587.154-.101.204-.163.221-.206a.8.8 0 0 0 .282.076c1.4.207 3.012 1.504 4.226 2.197 1.305.745 2.59 1.531 3.937 2.201 3.112 1.549 6.338 2.528 9.844 2.285 5.761-.398 5.805-9.423 0-9.023-6.356.439-10.816-5.598-16.872-6.62-4.121-.695-6.209 1.552-9.199 3.798-1.473 1.107-3.913 1.231-4.916.513-2.045-1.463-3.206-3.367-5.813-4.134-2.729-.803-5.855-.214-8.413.869-2.331.988-4.193 2.51-6.178 4.048-1.399 1.084-2.794 2.168-4.607 2.237-5.788.218-5.817 9.242 0 9.023" style="fill:#122a89"/><path d="M166.346 98.67c-20.957 9.402-44.101 10.696-66.746 10.261-17.891-.343-35.496-2.134-52.561-7.73-5.53-1.814-7.9 6.896-2.398 8.7 18.498 6.066 37.836 7.829 57.215 8.089 23.644.317 47.243-1.749 69.044-11.53 5.288-2.372.705-10.15-4.554-7.79m-31.649 23.635c-9.746 4.372-20.596 4.891-31.116 4.689-8.428-.162-16.676-1.004-24.714-3.64-4.609-1.511-6.584 5.747-1.999 7.25 8.973 2.942 18.392 3.8 27.792 3.926 11.613.156 23.133-.933 33.832-5.734 4.407-1.976.588-8.457-3.795-6.491" style="fill:#122a89"/></svg>