<svg xmlns="http://www.w3.org/2000/svg" xml:space="preserve" viewBox="0 0 215 220"><path d="M171.036 95.33c-5.043-.527-57.309 3.765-63.656 4.221-6.347-.456-58.613-4.748-63.656-4.221-4.634.485-5.229 2.919-3.208 4.754.306.816.892 1.872 1.942 3.306 12.312 16.824 37.176 32.52 64.922 32.464 27.746.056 52.61-15.64 64.922-32.464 1.05-1.434 1.636-2.49 1.942-3.306 2.021-1.835 1.427-4.269-3.208-4.754m-63.655 26.543c-22.475.174-41.979-10.049-52.293-16.709 18.531 3.989 47.594 6.543 52.293 6.543 4.701 0 33.782-2.555 52.312-6.547-10.404 6.746-30.12 17.154-52.312 16.713" style="fill:#122a89"/></svg>