<svg xmlns="http://www.w3.org/2000/svg" xml:space="preserve" viewBox="0 0 215 220"><path d="M175.836 101.585c-3.633-.198-3.827 2.108-9.272 3.457-9.593 2.379-21.722 2.075-29.047-1.221-3.349-1.508-6.729-4.363-11.615-5.143-7.018-1.119-11.799 1.637-18.522 2.577-6.723-.939-11.504-3.696-18.522-2.577-4.885.781-8.265 3.635-11.615 5.143-7.325 3.297-19.454 3.601-29.047 1.221-5.445-1.349-5.639-3.655-9.272-3.457-5.492.298-5.7 6.042-1.699 8.388 1.97 1.155 4.421 2.039 7.122 2.739.213.099.365.235.612.312 7.149 2.24 13.769 6.359 20.724 9.156 11.267 4.53 20.413 10.544 41.917 10.544 12.497 0 23.456-2.995 34.857-8.108 7.932-3.558 13.734-7.346 20.627-10.542 5.638-.697 10.816-1.969 14.451-4.1 4.001-2.347 3.793-8.09-1.699-8.389m-33.182 13.155c-11.986 4.13-24.653 6.836-37.332 6.279-11.063-.486-25.753-2.384-36.428-6.369 7.664-.32 14.234-1.278 16.861-2.222 4.478-1.609 5.971 2.188 21.625 2.188s17.147-3.798 21.625-2.188c2.325.835 7.738 1.684 14.26 2.091-.211.075-.394.146-.611.221" style="fill:#122a89"/></svg>