<svg xmlns="http://www.w3.org/2000/svg" xml:space="preserve" viewBox="0 0 215 220"><path d="M145.42 100.745c-1.392-1.389-3.472-1.724-5.475-.881-5.081 2.179-10.738-1.422-16.724-5.222-4.636-2.939-9.425-5.841-14.339-6.378v-.213h-3.008v.213c-4.928.536-9.719 3.442-14.362 6.387-5.98 3.795-11.648 7.372-16.694 5.213h-.006c-1.991-.855-4.088-.511-5.469.881-1.386 1.389-1.727 3.483-.875 5.469.681 1.586 1.422 3.378 2.203 5.26 3.348 8.083 7.137 17.243 9.992 19.907 5.78 5.387 16.371 6.391 24.107 7.125l.511.05c.196.018.398.014.593.028v.069h3.008v-.069c.195-.013.401-.009.593-.028l.523-.05c7.73-.734 18.321-1.739 24.101-7.125 2.849-2.661 6.638-11.807 9.974-19.878.787-1.891 1.533-3.695 2.215-5.29.853-1.982.519-4.076-.868-5.468m-12.558 13.883c-1.222 3.633-2.491 7.387-4.464 9.751-2.708 3.234-10.955 4.009-16.412 4.523l-.752.07c-1.286.123-2.579.15-3.853.15-1.357 0-2.561-.026-3.848-.15l-.752-.07c-5.457-.514-13.71-1.289-16.418-4.523-1.968-2.361-3.237-6.112-4.458-9.742-.364-1.09-.734-2.176-1.122-3.237h.018c4.834 0 9.522-3.71 14.08-7.313 4.206-3.331 8.559-6.773 12.5-6.773 3.936 0 8.288 3.442 12.5 6.77 4.558 3.607 9.252 7.316 14.086 7.316h.018c-.389 1.058-.753 2.145-1.123 3.228" style="fill:#122a89"/></svg>