<svg xmlns="http://www.w3.org/2000/svg" xml:space="preserve" viewBox="0 0 215 220"><path d="M135.042 97.537c-15.03-12.449-38.55-13.499-54.1-1.272-4.444 3.495-6.488 10.163-2.817 15.053 2.266 3.017 6.205 4.91 9.994 4.67-3.72 1.685-6.586 5.298-6.489 9.557.131 5.803 4.517 11.013 10.586 11.064l30.012.25c5.661.047 11.198-4.678 11.064-10.585-.095-4.179-2.415-8.017-5.961-9.875 3.29.234 6.647-.873 8.805-3.589 3.581-4.511 3.565-11.413-1.094-15.273m-12.337 17.674-30.012-.25c-.35-.003-.694.066-1.042.098.523-.263 1.042-.543 1.526-.923 1.31-1.03 2.687-1.916 4.128-2.748.223-.089.429-.169.489-.195q1.186-.5 2.409-.901c.73-.239 1.473-.42 2.21-.629.172-.029.344-.062.517-.087a34.6 34.6 0 0 1 5.151-.362c.047 0 .303.014.56.025.659.072 1.318.141 1.973.248a34 34 0 0 1 2.528.512c.237.058.993.284 1.519.437.474.182 1.033.396 1.238.487q1.178.518 2.307 1.132c.315.171.623.354.932.534.576.436 1.167.854 1.723 1.315.651.539 1.378.969 2.135 1.341-.1-.005-.19-.034-.291-.034" style="fill:#122a89"/></svg>