<svg xmlns="http://www.w3.org/2000/svg" xml:space="preserve" viewBox="0 0 215 220"><path d="M144.014 108.202a6.01 6.01 0 0 0-5.118-6.79c-3.545-.499-7.548-2.138-11.416-3.724-5.682-2.332-10.618-4.338-15.172-3.325-1.056.229-2.066.576-3.07.937-.657.238-1.473.532-1.778.532s-1.121-.294-1.778-.532c-1.004-.361-2.013-.708-3.07-.94-4.566-1.01-9.497.996-15.172 3.328-3.868 1.586-7.871 3.225-11.416 3.724a6.01 6.01 0 0 0-5.118 6.79c.367 2.611 2.381 4.5 4.83 4.977-.531.47-1.011 1.01-1.356 1.675-1.526 2.928-.452 6.523 2.465 8.077 2.407 1.283 9.655 3.301 15.254 3.301 1.632 0 3.122-.17 4.32-.582l1.591-.582c2.313-.872 4.701-1.771 9.45-1.771s7.137.899 9.45 1.771l1.591.582c1.197.411 2.688.582 4.32.582 5.599 0 12.848-2.018 15.254-3.301 2.917-1.554 3.991-5.149 2.465-8.077-.346-.664-.828-1.205-1.359-1.674 2.45-.477 4.466-2.366 4.833-4.978m-11.58 4.106c-1.738.893-8.458 2.191-10.025 1.965l-1.268-.464c-2.847-1.072-6.75-2.541-13.682-2.541s-10.835 1.469-13.682 2.541l-.98.385c-1.96.338-8.575-.996-10.313-1.886-.026-.014-.055-.01-.082-.023 3.368-.944 6.622-2.245 9.59-3.466 2.723-1.113 6.668-2.684 8.047-2.708.54.12 1.057.323 1.567.508 1.456.526 3.451 1.242 5.852 1.242s4.396-.717 5.852-1.242c.511-.185 1.027-.388 1.473-.49 1.203-.112 5.412 1.577 8.141 2.69 2.969 1.22 6.222 2.521 9.59 3.466-.024.013-.054.009-.08.023m-8.26 23.426c-9.344-2.766-18.734-2.65-28.626-1.271-12.34 1.719-9.392 10.856 3.704 9.244 6.933-.853 12.203-.46 20.002.27 8.229.771 11.439-6.313 4.92-8.243" style="fill:#122a89"/></svg>