<svg xmlns="http://www.w3.org/2000/svg" xml:space="preserve" viewBox="0 0 215 220"><path d="M165.645 101.566c-2.892-1.851-4.558-3.911-6.947-7.055-2.521-3.316-7.279.026-5.957 3.481.141.369.347.663.504 1.013-1.207.669-2.521 1.458-4.273 1.88-16.144 3.89-26.853-2.129-30.356-2.69-5.031-.805-6.448 1.623-11.267 2.3-4.819-.676-6.236-3.105-11.267-2.3-3.502.562-14.212 6.58-30.356 2.69-1.729-.417-3.03-1.19-4.224-1.853.162-.359.373-.661.518-1.04 1.323-3.455-3.436-6.797-5.957-3.481-2.39 3.143-4.055 5.204-6.947 7.055-5.463 3.496-1.836 10.246 3.414 7.078a26.7 26.7 0 0 0 4.944-3.814l.006.008c.096.128.24.225.345.348a68 68 0 0 1 1.729 2.407c8.335 12.145 24.339 25.312 47.795 25.312s39.46-13.166 47.795-25.312a70 70 0 0 1 1.729-2.407c.104-.123.249-.221.345-.348l.03-.043a26.6 26.6 0 0 0 4.983 3.849c5.25 3.167 8.877-3.583 3.414-7.078m-90.565 9.202c3.482.231 7.144.278 10.779.239.095.489.145.995.262 1.471.379 1.539.952 2.991 1.806 4.223-4.946-1.748-9.306-3.913-12.847-5.933m27.345 4.802c-.2.086-1.138.368-1.629.474-2.149.464-4.747.37-7.007-.38-.674-.223-.551-.155-1.225-.558-.113-.068-.572-.395-.415-.267.116.094-.337-.338-.446-.464.274.315-.151-.24-.229-.374a8 8 0 0 1-.4-.777c.145.322-.174-.475-.197-.541q-.174-.518-.314-1.046c-.065-.243-.08-.468-.137-.707 5.537-.124 10.709-.298 14.538-.06-.058.471-.034.986-.142 1.431-.311 1.278-.644 1.99-1.527 2.785-.301.271.287-.177-.005-.003-.109.065-.214.137-.323.201-.106.063-.675.343-.542.286m4.924 4.61a50 50 0 0 1-4.129-.143c1.698-.567 3.172-1.55 4.257-2.965 1.071 1.371 2.513 2.356 4.264 2.939a50 50 0 0 1-4.392.169m16.737-7.725c-.251.779-.243.792-.619 1.452-.066.116-.434.659-.336.539.113-.14-.323.315-.401.389-.016.015.004-.002-.006.008q-.114.082-.229.156a9 9 0 0 1-.83.449c-.062.02-.385.154-.458.179q-.438.15-.884.264a15 15 0 0 1-1.294.272c-.125.021-.139.025-.178.032-.037.002-.062.003-.203.017a17.6 17.6 0 0 1-3.371.019c-.101-.008-.552-.061-.248-.019a12 12 0 0 1-1.818-.393 10 10 0 0 1-.723-.244c-.015-.006-.007-.002-.019-.006l-.018-.01a7 7 0 0 1-.444-.227c-.08-.045-.352-.23-.417-.262a4.7 4.7 0 0 1-.589-.574c.162.196-.287-.452-.327-.524-.21-.374-.198-.34-.32-.695-.269-.779-.423-1.588-.525-2.41 3.87-.233 9.084-.055 14.661.068a19 19 0 0 1-.404 1.52m2.907 4.17a12.3 12.3 0 0 0 1.443-2.971c.271-.84.401-1.754.579-2.645 3.578.036 7.178-.014 10.604-.242-3.488 1.991-7.77 4.123-12.626 5.858m-14.895 24.301c-3.297.658-5.803.355-9.512-.209-3.913-.595-5.439 4.871-2.339 6.359 4.443 2.134 8.908 2.044 13.613.981 5.868-1.325 4.465-8.374-1.762-7.131" style="fill:#122a89"/></svg>