<svg xmlns="http://www.w3.org/2000/svg" xml:space="preserve" viewBox="0 0 215 220"><path d="M156.082 146.898c-27.318 19.703-64.348 19.093-91.395-.692-3.618-2.647-7.343 3.22-3.75 5.85 29.777 21.783 70.068 21.433 99.851-.048 3.624-2.613-1.119-7.698-4.706-5.11m30.881-54.136a25 25 0 0 0-.684-2.517c-.07-.46-.215-.891-.462-1.254-2.272-5.956-6.63-10.606-11.796-12.643-3.409-1.344-4.869 5.163-1.477 6.5 3.351 1.321 6.165 4.264 7.833 7.991-.073.038-.119.076-.198.114-17.971 8.689-37.265.235-50.379.235-6.398 0-13.907 2.894-20.837 3.292-6.93-.398-14.439-3.292-20.837-3.292-12.358 0-30.204 7.494-47.259 1.088-.417-.202-3.299-1.503-3.87-2.028-2.181-2.003-3.158-3.19-3.278-5.545-.172-3.382.607-4.763.745-5.617.286-1.777-.4-2.602-1.11-3.029-.667-.401-1.967-.687-3.026-.497-1.352.242-1.942.898-2.425 1.509-.926 1.173-1.28 2.25-1.509 3.694-.243 1.529-.348 3.621.17 5.192.983 2.98 3.084 6.341 6.724 8.806.429.29.83.555 1.231.818a17 17 0 0 0 3.109 2.197c8.899 6.463 22.256 20.48 32.648 27.022 11.949 7.522 24.922 9.716 38.686 9.68 13.764.036 26.737-2.158 38.686-9.68 10.392-6.542 23.749-20.559 32.648-27.022a18 18 0 0 0 1.507-.939c.421 5.102-1.127 10.284-4.186 13.84-2.588 3.007 1.346 7.77 3.929 4.766 4.944-5.746 7.111-14.61 5.417-22.681m-43.202 24.503c-9.414 5.28-21.081 8.072-34.797 8.072s-25.384-2.792-34.797-8.072c-8.793-4.932-14.932-11.369-23.322-16.27 7.43.653 14.352.499 22.281-.542 22.521-2.956 27.675 2.957 35.838 2.957s13.317-5.912 35.837-2.957c7.929 1.04 14.852 1.195 22.281.542-8.389 4.901-14.528 11.338-23.321 16.27" style="fill:#122a89"/></svg>