<svg xmlns="http://www.w3.org/2000/svg" xml:space="preserve" viewBox="0 0 215 220"><path d="M161.339 96.647c-4.269-.705-5.503 3.629-9.864 4.46-18.899 3.597-26.845-.195-30.749-.701-5.608-.725-7.894 1.275-13.266 1.884-5.372-.609-7.658-2.609-13.266-1.884-3.904.506-11.851 4.298-30.749.701-4.361-.83-5.595-5.165-9.864-4.46-4.304.711-4.522 4.572-2.18 7.055.63.668 1.52 1.28 2.522 1.866.233.476.98 1.259 2.316 2.528 9.714 9.231 29.331 19.548 51.222 19.517 21.891.031 41.508-10.286 51.222-19.517 1.336-1.27 2.083-2.052 2.316-2.528 1.002-.586 1.893-1.199 2.522-1.866 2.34-2.484 2.122-6.345-2.182-7.055m-53.879 19.72c-11.819.064-20.981-2.042-27.695-4.362 12.58 1.558 24.972 1.977 27.695 1.977s15.116-.42 27.695-1.977c-6.714 2.32-15.876 4.425-27.695 4.362m4.519 21.93c-3.522.659-6.199.355-10.162-.209-4.181-.595-5.811 4.871-2.499 6.359 4.747 2.134 9.518 2.044 14.543.981 6.269-1.325 4.771-8.374-1.882-7.131" style="fill:#122a89"/></svg>