<svg xmlns="http://www.w3.org/2000/svg" xml:space="preserve" viewBox="0 0 215 220"><path d="M163.612 106.152c-36.258-12.977-75.129-13.149-112.197-.736-6.626 2.219-2.727 10.252 4.03 10.984 35.449 3.838 71.87 2.95 103.889.902 6.846-.438 10.778-8.824 4.278-11.15m-40.019 19.694c-10.912-3.239-23.046-3.071-33.249.541-2.421.857-4.271 3.006-3.158 5.473.942 2.089 3.968 4.043 6.565 3.124a46 46 0 0 1 7.324-1.94 49 49 0 0 1 1.662-.26c.119-.012.721-.089.852-.102a51 51 0 0 1 7.8-.137c.49.029.98.072 1.47.109.261.026.357.035.41.039q.328.04.656.083a52 52 0 0 1 7.702 1.677c2.605.773 5.651-.919 6.039-3.149.435-2.507-1.283-4.63-4.073-5.458" style="fill:#122a89"/></svg>