<svg xmlns="http://www.w3.org/2000/svg" xml:space="preserve" viewBox="0 0 215 220"><path d="M174.424 105.697c-3.453-.691-3.717 3.581-9.365 6.908-8.238 4.852-17.8 2.504-25.441 1.133-4.325-.776-9.186-3.217-13.914-3.966-6.793-1.073-11.42 1.57-17.927 2.471-6.507-.901-11.134-3.544-17.926-2.471-4.728.749-9.589 3.19-13.915 3.966-7.641 1.371-17.202 3.719-25.441-1.133-5.648-3.327-5.912-7.599-9.365-6.908-5.069 1.014-5.069 5.881-.676 9.909 10.151 9.307 32.814 7.201 46.392 4.082 4.483-1.03 9.824 2.099 20.93 2.099s16.447-3.129 20.93-2.099c13.578 3.119 36.241 5.225 46.392-4.082 4.395-4.028 4.395-8.896-.674-9.909m-44.861 19.436c-3.712.205-12.693 3.294-21.785 3.205-9.091.089-18.073-3.001-21.785-3.205-5.743-.317-7.571 3.301-3.634 4.998 7.13 3.075 16.458 5.063 25.419 5.04 8.961.023 18.289-1.966 25.419-5.04 3.937-1.698 2.109-5.316-3.634-4.998" style="fill:#122a89"/><path d="M179.594 92.356c-6.23-2.96-7.395 3.234-4.677 5.106 9.403 6.478 10.028 15.242 4.726 23.975-.641 1.055-1.077 3.034 1.736 3.949 3.928 1.278 5.88-.759 6.515-1.804 6.347-10.456 4.242-25.267-8.3-31.226M40.656 99.198c2.012-.802 2.169-4.934-2.248-3.948-8.892 1.984-12.397 11.153-9.86 18.766.254.761 1.206 2.349 3.905 2.104 1.933-.175 1.942-1.505 1.686-2.274-2.118-6.358-.442-11.874 6.517-14.648" style="fill:#122a89"/></svg>