<svg xmlns="http://www.w3.org/2000/svg" xml:space="preserve" viewBox="0 0 215 220"><path d="M171.905 107.396c-3.484-.189-3.67 2.022-8.891 3.315-9.199 2.282-20.83 1.99-27.855-1.171-3.211-1.446-6.452-4.183-11.138-4.932-6.73-1.073-11.314 1.57-17.761 2.471-6.447-.901-11.032-3.544-17.761-2.471-4.685.749-7.926 3.486-11.138 4.932-7.025 3.161-18.655 3.453-27.855 1.171-5.221-1.293-5.407-3.505-8.891-3.315-5.267.287-5.466 5.794-1.63 8.044 11.798 6.918 40.384 4.564 46.536 2.354 4.294-1.543 5.727 2.099 20.737 2.099 15.011 0 16.443-3.641 20.737-2.099 6.152 2.211 34.739 4.564 46.536-2.354 3.84-2.25 3.641-7.757-1.626-8.044m-44.06 15.844c-3.677.205-12.576.024-21.584-.064-9.008.089-17.907.27-21.584.064-5.69-.317-7.501 3.301-3.6 4.998 7.064 3.075 16.306 5.063 25.185 5.04 8.878.023 18.12-1.966 25.184-5.04 3.9-1.697 2.089-5.315-3.601-4.998m67.288-26.926c-1.881-2.4-5.058-3.318-8.585-2.484-1.087.27-2.484 1.028-3.143 2.118-.372.614-.479 1.284-.315 1.941.428 1.749 2.422 2.138 4.044 1.977l.338.324c.006.011.017.02.023.031.276.349.321.462.451.797.805 2.098.524 4.779-.851 8.196-2.969 7.376-7.869 14.891-13.795 21.157-.682.724-.946 1.625-.732 2.478.225.87.907 1.552 1.881 1.867.468.152.98.225 1.498.225 1.549-.003 3.199-.648 4.247-1.757 3.47-3.667 6.664-7.861 9.486-12.466 2.743-4.464 5.526-9.244 6.765-14.282.592-2.396 1.212-6.903-1.312-10.122" style="fill:#122a89"/><path d="M42.769 96.008c.696.081 1.403-.168 1.994-.699.701-.635 1.142-1.605 1.128-2.472-.031-1.641-1.253-2.839-3.108-3.054-6.871-.795-13.984 2.694-17.7 8.681-3.706 5.968-3.473 14.234.563 20.103.484.707 1.118 1.115 1.791 1.287.953.243 1.981.009 2.756-.528 1.154-.791 1.885-2.381.77-3.997-2.881-4.187-3.073-9.58-.488-13.739 2.465-3.972 7.288-6.162 12.294-5.582" style="fill:#122a89"/></svg>