<svg xmlns="http://www.w3.org/2000/svg" xml:space="preserve" viewBox="0 0 215 220"><path d="M125.001 100.178c-6.799-4.523-14.817-5.809-22.568-7.052l-3.09-.502c-9.134-1.533-18.953-4.241-22.527-12.709-.634-1.498-1.883-2.467-3.425-2.658-1.692-.229-3.401.526-4.411 1.865-.937 1.239-1.11 2.811-.476 4.309 2.626 6.218 7.751 11.011 15.237 14.251 6.89 11.554 11.363 24.351 13.314 38.061-2.934.981-5.334 2.103-7.478 3.489-1.304.843-2.012 2.15-1.941 3.583.082 1.607 1.125 3.151 2.658 3.939a4.56 4.56 0 0 0 2.094.517c.866 0 1.727-.256 2.514-.764 4.4-2.846 9.472-3.874 14.841-4.964 3.839-.778 7.807-1.583 11.519-3.113 8.761-3.61 14.239-9.86 15.032-17.147.837-7.704-3.595-15.989-11.293-21.105m-4.894 28.856c-4.294 2.235-8.917 3.243-13.81 4.309l-.493.112c-1.698-11.134-5.122-22.007-10.2-32.384 1.733.311 3.489.573 5.207.831 7.349 1.107 14.953 2.25 20.627 6.858 3.924 3.184 6.147 7.304 5.948 11.02-.265 4.89-4.676 7.897-7.279 9.254" style="fill:#122a89"/></svg>