<svg xmlns="http://www.w3.org/2000/svg" xml:space="preserve" viewBox="0 0 215 220"><path d="M151.086 88.571c-.991 5.647-11.504 5.941-15.875 5.733-2.398-.114-4.596-.622-6.817-1.487-2.107-.821-.495-.515-2.958-1.46-5.185-1.989-9.094 2.038-13.764 3.378-4.808 1.379-10.827-.99-14.381-4.319-1.947-1.824-5.646-1.105-7.775-.173-4.257 1.863-8.677 3.762-13.411 3.729-1.923-.014-13.716-1.223-12.451-4.589 2.636-7.013-10.167-7.254-12.267-1.669-2.8 7.451 2.661 11.442 8.861 13.612 1.291 7.775 7.981 24.697 17.436 32.628 9.797 8.218 18.011 12.138 30.926 11.52 12.188-.584 24.124-6.057 31.728-16.034 6.403-8.401 12.554-19.321 14.468-29.926 4.619-2.491 8.264-6.212 9.246-11.808 1.159-6.595-11.917-5.112-12.966.865M90.8 98.168c5.189 4.748 11.729 6.817 18.646 6.726 5.937-.078 12.447-4.26 13.126-3.928.644.315 3.587 1.231 6.947 1.969-.781.347-1.539.687-2.437 1.064-5.382 2.263-13.559 4.395-19.335 3.89-8.277-.724-17.964-1.857-25.319-6.291 4.643-1.313 8.177-2.923 8.372-3.43m20.347 37.543c-7.531 1.042-14.981-.602-21.323-4.302 4.155.475 8.336.74 12.419.921 7.339.326 14.732.041 22.076-.673-3.712 1.925-8.042 3.344-13.172 4.054m23.212-12.161c-10.493 1.744-21.184 2.493-31.807 2.021-7.552-.336-15.395-.899-22.748-2.946-4.408-5.509-7.119-11.938-8.68-18.999 9.218 7.691 22.13 9.874 33.992 10.529 8.23.455 16.988-.562 24.704-3.583a55.8 55.8 0 0 0 13.032-7.24c.085-.014.171-.035.256-.049-1.421 7.479-4.081 14.575-8.749 20.267" style="fill:#122a89"/></svg>