<svg xmlns="http://www.w3.org/2000/svg" xml:space="preserve" viewBox="0 0 215 220"><path d="M155.053 104.756c-.429-5.589-4.552-9.346-9.733-8.958-3.636.264-6.849-1.897-10.615-4.411-3.43-2.285-6.978-4.646-11.314-5.457-6.52-1.204-10.456 2.168-13.904 5.155l-1.533 1.307c-.687.573-1.95.705-2.115.714-.811-.643-1.498-1.354-2.179-2.047-1.703-1.739-3.642-3.71-6.82-4.743-5.598-1.833-11.22.135-14.057 1.463-3.348 1.571-5.986 3.839-8.535 6.033l-.664.573c-1.521 1.301-2.831 2.423-4.036 2.473-3.477.144-6.409 2.024-8.048 5.152-.103.197-.135.423-.226.626-.376.754-.69 1.59-.925 2.514-1.251 4.896-.335 11.875 3.842 15.737 12.999 12.027 28.166 18.036 43.298 18.034 15.279 0 30.522-6.121 43.468-18.351 3.243-3.068 4.538-7.67 3.769-12.066.296-1.231.422-2.5.327-3.748m-83.662 12.783c5.133-.127 18.739-.269 33.121-.421 20.867-.215 35.39-.379 40.048-.547-21.946 19.607-50.776 19.93-73.169.968m73.929-8.225c-2.444.188-22.868.399-40.884.587-16.183.167-31.462.329-34.886.47-.775.041-1.228-.194-1.604-.775-.693-1.098-.717-2.963-.047-4.241.576-1.104 1.392-1.263 1.956-1.286 3.695-.156 6.315-2.4 8.441-4.218l.664-.57c2.279-1.962 4.435-3.818 6.89-4.967 2.138-1.002 4.27-1.518 6.168-1.518.934 0 1.803.126 2.59.382 1.498.488 2.508 1.513 3.9 2.934.887.905 1.797 1.818 2.849 2.652 2.778 2.203 8.024 1.824 11.208-.819l1.645-1.401c3.289-2.84 4.876-4.071 7.86-3.519 2.884.537 5.674 2.4 8.635 4.367 4.27 2.846 9.099 6.071 15.167 5.601 1.192-.056 1.856.687 1.98 2.311.111 1.467-.476 3.852-2.532 4.01" style="fill:#122a89"/></svg>