<svg xmlns="http://www.w3.org/2000/svg" xml:space="preserve" viewBox="0 0 215 220"><path d="M170.066 95.517c-8.48 6.643-17.692 13.213-28.084 16.465-10.802 3.381-20.07 1.119-30.601-2.049-9.376-2.821-17.781-3.258-27.352-1.359-4.735.939-9.437 2.312-14.254 2.798-2.616.264-5.352.344-7.925-.291-2.016-.498-9.798-3.432-5.792-6.689 4.507-3.664-1.911-10.014-6.38-6.38-10.745 8.735 2.189 20.461 11.547 22.119 13.301 2.356 25.956-5.671 39.221-3.606 7.069 1.101 13.668 4.127 20.677 5.503 6.287 1.234 12.603 1.132 18.856-.203-7.13 5.137-15.121 8.911-24.085 10.115-14.214 1.909-28.086-2.959-40.176-10.098-5.011-2.959-9.556 4.837-4.554 7.791 13.901 8.208 29.774 13.363 46.036 11.155 18.948-2.572 34.446-14.655 46.348-29.012.19-.229.248-.479.387-.717 4.335-2.865 8.489-6.014 12.511-9.164 4.567-3.576-1.858-9.921-6.38-6.378" style="fill:#122a89"/><path d="M103.607 90.627a18 18 0 0 1-.01 3.576c-.126.685-.251 1.369-.457 2.037-.695 2.256.825 5.02 3.151 5.55 2.445.557 4.805-.736 5.55-3.151 1.349-4.378 1.27-9.375-.363-13.668-.428-1.127-.999-2.067-2.073-2.696-.967-.566-2.392-.806-3.476-.455-1.092.353-2.145 1.03-2.696 2.073-.536 1.015-.88 2.357-.455 3.476.401 1.054.636 2.152.829 3.258" style="fill:#122a89"/></svg>