<svg xmlns="http://www.w3.org/2000/svg" xml:space="preserve" viewBox="0 0 215 220"><path d="M179.218 82.032c-6.852-3.256-8.135 3.557-5.145 5.617 10.343 7.126 11.031 16.767 5.199 26.372-.705 1.161-1.185 3.338 1.909 4.344 4.321 1.406 6.469-.835 7.167-1.985 6.982-11.501 4.667-27.793-9.13-34.348M41.145 89.864c2.213-.882 2.386-5.427-2.472-4.343-9.781 2.183-13.636 12.268-10.846 20.642.279.838 1.327 2.584 4.295 2.314 2.126-.193 2.136-1.655 1.854-2.501-2.33-6.993-.486-13.061 7.169-16.112" style="fill:#122a89"/><path d="M173.848 96.416c-3.873-.623-4.07 3.108-6.499 4.539-8.238 4.852-37.005.873-41.734.125-6.793-1.073-11.42-.065-17.927.836-6.507-.901-11.134-1.909-17.927-.836-4.728.748-33.496 4.727-41.734-.125-2.429-1.431-2.626-5.162-6.499-4.539-4.522.728-4.158 7 .39 9.307.137.069.297.109.435.176.331.479.735 1.008 1.316 1.653 12.022 13.355 36.301 25.816 63.393 25.771 27.092.045 51.371-12.416 63.393-25.771.307-.341.536-.631.771-.925.741-.305 1.53-.549 2.231-.904 4.55-2.307 4.914-8.58.391-9.307m-66.784 29.882c-22.489.142-41.88-10.339-51.695-16.808 10.335 1.384 21.953.482 31.39-.13 5.115-.331 9.824.463 20.93.463s15.815-.795 20.93-.463c8.95.579 19.875 1.444 29.797.354-9.92 6.484-29.126 16.724-51.352 16.584m22.41 11.364c-3.711.205-12.693 3.294-21.785 3.205-9.092.088-18.073-3.001-21.785-3.205-5.743-.317-7.571 3.301-3.634 4.998 7.13 3.075 16.458 5.063 25.419 5.04 8.961.023 18.289-1.966 25.419-5.04 3.937-1.697 2.109-5.315-3.634-4.998" style="fill:#122a89"/></svg>