<svg xmlns="http://www.w3.org/2000/svg" xml:space="preserve" viewBox="0 0 215 220"><path d="M175.967 122.88c-.142-.072-.31-.114-.454-.184-.345-.5-.767-1.051-1.372-1.724-12.537-13.927-37.855-26.921-66.108-26.875-28.253-.047-53.571 12.948-66.108 26.875-.321.356-.559.658-.804.964-.773.318-1.596.573-2.326.943-4.743 2.405 3.838 6.464 6.371 4.972 8.591-5.06 55.078-1.002 62.216-1.002 6.93 0 53.625-4.058 62.216 1.002 2.531 1.492 11.112-2.566 6.369-4.971m-46.76-3.794c-5.334.345-10.245 1.222-21.827 1.222s-16.493-.876-21.827-1.222c-9.333-.604-20.726-1.506-31.073-.369 10.346-6.761 30.374-17.439 53.552-17.293 23.452-.148 43.674 10.782 53.909 17.528-10.777-1.445-22.893-.504-32.734.134" style="fill:#122a89"/></svg>