<svg xmlns="http://www.w3.org/2000/svg" xml:space="preserve" viewBox="0 0 215 220"><path d="M144.307 114.538c-.296-1.502-1.063-2.872-2.015-3.668-.574-.48-1.116-1.025-1.656-1.575a28.3 28.3 0 0 1-3.1-4.343 35 35 0 0 1-2.247-5.334c-.461-1.428-1.599-2.358-2.62-2.821-1.129-.511-2.361-.134-3.379.619-.949.702-1.735 2.244-2.015 3.668-.334 1.702-.058 3.182.442 4.73.229.709.545 1.355.811 2.04-13.502 4.935-28.691 4.979-41.95-.864.144-.401.336-.768.467-1.176.5-1.548.776-3.028.442-4.73-.28-1.424-1.067-2.966-2.015-3.668-1.018-.753-2.251-1.13-3.379-.619-1.021.462-2.159 1.393-2.62 2.821a35 35 0 0 1-2.247 5.334 28.4 28.4 0 0 1-3.1 4.343c-.54.55-1.082 1.094-1.657 1.575-.952.796-1.72 2.166-2.015 3.668-.289 1.469-.159 3.425.442 4.729.604 1.311 1.502 2.464 2.621 2.82 1.145.366 2.349.243 3.379-.618 1.364-1.14 2.628-2.519 3.834-4.001 16.503 7.237 35.396 8.169 52.291 1.548.558-.218 1.04-.548 1.522-.873 1.053 1.225 2.158 2.353 3.323 3.326 1.031.861 2.234.984 3.379.618 1.118-.356 2.017-1.51 2.621-2.82.6-1.303.73-3.26.441-4.729" style="fill:#122a89"/></svg>