<svg xmlns="http://www.w3.org/2000/svg" xml:space="preserve" viewBox="0 0 215 220"><path d="M144.304 101.731c-3.927-3.571-9.495-4.57-16.107-2.908-1.762.443-3.551 1.072-5.281 1.68-4.889 1.717-9.513 3.324-14.196 1.486a2.24 2.24 0 0 0-1.25-.321 2.2 2.2 0 0 0-1.279.323c-4.666 1.824-9.293.23-14.188-1.488-1.73-.608-3.519-1.237-5.281-1.68-6.614-1.668-12.18-.67-16.104 2.908-4.018 3.648-5.639 9.907-3.944 15.223 2.344 7.34 8.823 7.34 14.03 7.34 3.366 0 8.614-.872 13.69-1.712 4.845-.805 9.811-1.619 13.065-1.674 3.255.056 8.22.869 13.065 1.674 5.075.84 10.324 1.712 13.69 1.712 5.207 0 11.687 0 14.03-7.34 1.696-5.314.075-11.576-3.94-15.223m-1.663 13.187c-.881 2.411-3.154 2.611-6.039 2.62h-.393c-3.633 0-9.169-.863-14.53-1.701-4.952-.775-9.994-1.542-13.647-1.661-.071-.005-.121-.046-.195-.046-.113 0-.261.017-.377.018-.116-.001-.265-.018-.377-.018-.074 0-.124.041-.195.046-3.654.118-8.696.885-13.648 1.661-5.419.846-10.964 1.662-14.656 1.701h-.267c-2.881-.009-5.155-.209-6.036-2.62-.705-1.936-.402-4.649.725-6.453 3.375-5.389 10.388-3.821 15.358-2.17l1.695.57c5.659 1.926 11.5 3.867 17.401 1.737 5.893 2.125 11.739.191 17.4-1.734l1.695-.573c4.972-1.651 11.989-3.219 15.358 2.17 1.125 1.804 1.433 4.518.728 6.453m-33.757 11.431c-7.434.003-14.684 3.214-19.804 8.57-2.675 2.798 1.572 7.058 4.253 4.253a21.466 21.466 0 0 1 31.106-.012c2.682 2.802 6.931-1.456 4.253-4.253-5.123-5.353-12.375-8.561-19.808-8.558" style="fill:#122a89"/></svg>