<svg xmlns="http://www.w3.org/2000/svg" xml:space="preserve" viewBox="0 0 215 220"><path d="M155.288 104.168c-27.82 7.421-43.549 3.591-47.7 4.42-4.151-.829-19.362 3.581-47.85-4.42-4.439-1.247-4.444-6.208-7.413-3.432-2.896 2.707-.985 5.284 1.535 6.842 8.643 13.436 29.815 26.704 53.654 26.704s45.01-13.268 53.653-26.704c2.52-1.558 4.431-4.135 1.535-6.842-2.969-2.776-2.96 2.244-7.414 3.432m-47.775 19.719c-14.44.17-30.622-6.564-41.643-11.892 13.909 3.565 32.391 4.97 41.643 4.97 9.337 0 27.747-1.403 41.624-4.961-11.021 5.327-27.192 12.053-41.624 11.883m65.324-26.084c-.477-1.185-2.735-2.011-4.64-1.629-1.985.397-3.146 1.6-2.635 2.87.2.496.343 1 .475 1.506.268 1.405.273 2.82-.011 4.225l-.01.041c-.17.637-.166 1.22.38 1.797.457.484 1.355.946 2.254 1.072.966.136 2.05.107 2.907-.235.776-.31 1.576-.807 1.733-1.394.74-2.765.644-5.525-.453-8.253M47.121 95.599c-2.095-.42-4.58.489-5.104 1.792-1.207 3.001-1.312 6.037-.498 9.078.173.647 1.053 1.193 1.907 1.534.943.376 2.136.408 3.198.258.989-.139 1.976-.647 2.479-1.179.601-.635.606-1.277.419-1.977l-.011-.045a12 12 0 0 1-.012-4.648c.145-.556.303-1.11.522-1.657.561-1.396-.716-2.719-2.9-3.156" style="fill:#122a89"/></svg>