<svg xmlns="http://www.w3.org/2000/svg" xml:space="preserve" viewBox="0 0 215 220"><path d="M130.884 112.875c-1.022-1.765-2.483-3.161-4.106-4.007.28-.318.562-.636.804-1.026 2.501-4.037 2.51-10.231-.713-13.707-10.398-11.215-26.723-12.224-37.555-1.299-3.096 3.123-4.535 9.101-2.001 13.499a9.6 9.6 0 0 0 1.176 1.596c-1.484.557-2.853 1.602-3.878 3.249-2.874 4.619-2.887 11.703.817 15.677 11.946 12.819 30.705 13.962 43.154 1.458 3.558-3.573 5.213-10.411 2.302-15.44m-15.302-.124-.391.198q-.948.51-1.925.919c-.583.243-1.177.426-1.765.639-.138.03-.275.063-.413.088-1.361.25-2.736.37-4.11.358-.037 0-.242-.015-.446-.027-.525-.076-1.051-.149-1.573-.261a22 22 0 0 1-2.015-.533c-.189-.06-.792-.294-1.21-.452-.377-.189-.822-.41-.986-.503a23 23 0 0 1-1.837-1.169c-.25-.177-.495-.365-.741-.55-.458-.449-.928-.88-1.37-1.355-.086-.092-.187-.153-.275-.24a6 6 0 0 0 1.232-.956 24.6 24.6 0 0 1 2.874-2.454l.34-.173q.825-.445 1.675-.802c.508-.212 1.024-.372 1.536-.558.12-.026.239-.055.359-.077a18.7 18.7 0 0 1 3.577-.31c.033 0 .211.014.389.024.457.066.914.13 1.369.229q.884.19 1.754.467c.164.052.689.258 1.053.396.328.165.716.359.858.44q.816.468 1.598 1.023c.218.155.431.319.645.481.398.393.807.77 1.192 1.185.514.554 1.099.976 1.706 1.336a29 29 0 0 1-3.1 2.637" style="fill:#122a89"/></svg>