<svg xmlns="http://www.w3.org/2000/svg" xml:space="preserve" viewBox="0 0 215 220"><path d="M179.474 85.964c-6.079.236-6.098 4.692-8.086 6.896-6.137 6.802-39.808-2.074-46.803-2.074-6.093 0-10.524 2.954-17.124 3.333-6.6-.379-11.031-3.333-17.124-3.333-6.995 0-40.665 8.876-46.803 2.074-1.989-2.204-2.007-6.659-8.086-6.896-3.272-.127-4.951 2.945-3.963 6.698.416 1.58 2.705 3.738 5.846 5.64l-.04.006c9.515 5.398 22.667 19.676 33.327 26.388 11.38 7.163 23.735 9.253 36.844 9.219 13.108.034 25.464-2.055 36.844-9.219 10.661-6.711 23.812-20.99 33.327-26.388l-.04-.006c3.14-1.902 5.43-4.06 5.846-5.64.986-3.753-.694-6.825-3.965-6.698m-39.661 30.492c-8.965 5.028-19.45 7.131-32.353 7.131-13.063 0-23.388-2.103-32.353-7.131-7.632-4.28-12.463-9.929-19.062-13.98 4.286-.213 7.63-.862 13.958-1.839 15.728-2.429 29.683 1.987 37.457 1.987 7.952 0 21.729-4.415 37.457-1.987 6.328.977 9.672 1.626 13.958 1.839-6.599 4.051-11.43 9.7-19.062 13.98m13.992 27.994c-27.318 19.703-64.348 19.093-91.395-.692-3.618-2.647-7.343 3.22-3.749 5.85 29.776 21.783 70.067 21.434 99.851-.048 3.623-2.614-1.119-7.698-4.707-5.11" style="fill:#122a89"/></svg>