<svg xmlns="http://www.w3.org/2000/svg" xml:space="preserve" viewBox="0 0 215 220"><path d="M145.322 104.651c-4.029-4.996-10.384-5.45-16.331-5.34-7.14.133-14.281.281-21.421.422l-22.111.436c-5.392.106-11.435.014-15.551 4.082-4.651 4.598-3.426 11.808 1.007 16.058 3.68 3.528 13.901 3.962 14.464 4.012 14.209 1.252 28.448 1.136 42.643-.258 5.356-.526 11.582-.787 15.933-4.403 4.603-3.824 5.106-10.373 1.367-15.009m-7.29 7.263c-.582 1.278-4.026 1.644-5.199 1.836-2.979.488-6.033.743-9.038.999-9.716.828-40.314-.043-43.293-.327-1.12-.107-3.979-1.028-3.898-2.701.135-2.786 10.82-1.865 12.547-1.9l38.004-.749c1.581-.031 12.394-.491 10.877 2.842" style="fill:#122a89"/></svg>