<svg xmlns="http://www.w3.org/2000/svg" xml:space="preserve" viewBox="0 0 215 220"><path d="M151.026 107.436c-1.976.467-3.939.904-5.98.855-.072-.002-.59-.044-.807-.054-.21-.048-.676-.14-.667-.137q-.396-.112-.79-.234c-.179-.054-.183-.048-.245-.062-.061-.032-.049-.033-.195-.101-3.407-1.575-6.685-3.514-10.055-5.18-4.345-2.148-8.946-4.222-13.888-3.221-3.743.758-7.043 2.152-10.937 2.209-3.635-.037-6.652-.88-10.076-1.942-4.476-1.388-8.86.188-12.94 2.078-3.848 1.782-7.513 3.878-11.296 5.777-.818.41-2.09.818-2.785.846-2.225.092-4.308-.325-6.468-.835-5.646-1.336-8.056 7.362-2.399 8.7 4.279 1.012 8.958 1.855 13.235.362 3.709-1.295 7.13-3.557 10.649-5.284 2.32-1.138 4.642-2.509 7.198-3.045.434-.091.82-.119 1.26-.166.058-.006.111.005.168.008.429.121.863.222 1.29.361 4.019 1.312 7.897 2.119 12.164 2.162 4.418-.065 8.316-1.273 12.531-2.34.307-.078.627-.15.944-.208.043.005.019.007.147.017 1.057.086 2.035.339 3.041.691 2.474.866 4.799 2.22 7.155 3.359 3.097 1.496 5.996 3.539 9.299 4.576 4.183 1.313 8.692.491 12.847-.492 5.646-1.336 3.255-10.038-2.4-8.7" style="fill:#122a89"/><path d="M126.272 113.931c-3.205.235-10.961 3.374-18.811 3.272-7.851.102-15.607-3.037-18.811-3.272-4.959-.364-6.538 3.786-3.138 5.733 6.157 3.527 14.212 5.808 21.95 5.782 7.738.026 15.792-2.255 21.949-5.782 3.398-1.947 1.82-6.097-3.139-5.733" style="fill:#122a89"/></svg>