<svg xmlns="http://www.w3.org/2000/svg" xml:space="preserve" viewBox="0 0 215 220"><path d="M150.988 105.435c-2.16.779-4.243 1.415-6.468 1.275-.695-.044-1.967-.665-2.785-1.292-3.783-2.897-7.448-6.095-11.296-8.814-4.08-2.883-8.464-5.288-12.94-3.17-3.412 1.614-6.422 2.895-10.039 2.959-3.617-.064-6.627-1.345-10.039-2.959-4.476-2.118-8.86.287-12.94 3.17-3.848 2.719-7.513 5.917-11.296 8.814-.818.626-2.09 1.248-2.785 1.292-2.225.14-4.308-.495-6.468-1.275-5.646-2.038-11.514 2.512-6.922 6.92s12.96 4.174 17.758 3.496c4.162-.588 7.13-2.016 10.649-4.651 2.32-1.737 5.202-1.588 9.916 1.358 3.774 2.358 7.827 3.212 12.053 3.291.013 0 .024.008.037.007l.037-.003.037.003c.013 0 .024-.007.037-.007 4.226-.079 8.278-.933 12.053-3.291 4.714-2.946 7.597-3.095 9.916-1.358 3.519 2.635 6.487 4.063 10.649 4.651 4.798.678 13.167.912 17.759-3.496 4.591-4.409-1.277-8.958-6.923-6.92m-26.14 13.31c-2.956.235-10.11 3.222-17.351 3.121-7.241.102-14.395-2.886-17.351-3.121-14.193-1.129-4.798 8.88-2.894 10.062 5.679 3.527 13.108 7.513 20.245 7.487 7.137.026 14.566-3.96 20.245-7.487 1.904-1.182 11.299-11.19-2.894-10.062" style="fill:#122a89"/></svg>