<svg xmlns="http://www.w3.org/2000/svg" xml:space="preserve" viewBox="0 0 215 220"><path d="M168.129 100.13c-3.223-1.888-5.079-3.991-7.742-7.198-2.809-3.383-8.113.026-6.638 3.552.426 1.018.964 1.913 1.518 2.792-.189.026-.406 0-.582.043-13.757 3.424-23.196 3.674-48.271 3.973-28.289.337-39.34-3.447-42.055-4.212-11.224-3.651-5.161-13.101-12.962-13.194-3.075-.036-6.6 1.205-7.552 6.485-.776 4.302.396 7.504 2.661 10.191 1.444 1.713 4.255 3.551 7.266 4.549 11.181 8.573 15.435 15.095 27.559 21.314 8.467 4.342 15.638 6.165 24.811 6.183 17.074.033 28.166-4.249 43.177-18.83 3.649-3.545 6.02-7.08 10.492-9.704.458-.269.77-.594 1.014-.939a34 34 0 0 0 3.5 2.218c5.85 3.231 9.892-3.656 3.804-7.223m-31.074 14.785c-4.508 2.78-6.522 3.676-11.678 5.522-4.33 1.55-10.362 2.905-18.436 2.816-8.386-.093-15.455-1.636-18.82-3.031-6.923-2.872-16.084-8.759-17.712-9.759-.341-.21-.693-.432-1.04-.65 5.389.454 10.803.61 16.21 1.019 19.228 1.453 35.12 1.765 55.142-1.173.688-.101 1.961-.307 3.534-.593-2.468 2.225-5.396 4.737-7.2 5.849m-24.958 29.153c-3.663.732-6.448.395-10.569-.232-4.348-.661-6.043 5.412-2.599 7.066 4.937 2.371 9.899 2.271 15.125 1.09 6.52-1.474 4.962-9.306-1.957-7.924" style="fill:#122a89"/></svg>