<svg xmlns="http://www.w3.org/2000/svg" xml:space="preserve" viewBox="0 0 215 220"><path d="M150.068 97.611c-1.02-2.689-3.593-4.535-6.554-3.721-2.577.709-4.747 3.849-3.721 6.554.015.04.106.267.188.492a5 5 0 0 1-.347.574c-.079.073-.228.223-.319.281-.175.111-.405.256-.456.286-.086.051-.072.053-.107.078-.04.009-.025-.001-.097.02a7 7 0 0 1-.906.213c-3.21.372-6.897-1.588-10.05-2.604-3.931-1.268-8.177-1.859-12.206-.663-1.761.522-3.794 1.543-5.245 2.114-.352.138-1.324.458-1.927.621-.031.008-.038.012-.063.019-.198.018-.391-.014-.589.024l-.098-.011c.15-.038.078-.035-.111-.013-.189-.022-.261-.025-.111.013l-.098.011c-.198-.039-.391-.007-.589-.024-.025-.007-.032-.011-.063-.019a25 25 0 0 1-1.927-.621c-1.451-.571-3.484-1.592-5.245-2.114-4.029-1.196-8.274-.605-12.206.663-3.153 1.017-6.84 2.976-10.05 2.604a8 8 0 0 1-.906-.213c-.073-.022-.057-.011-.097-.02-.035-.025-.021-.027-.107-.078-.051-.03-.28-.175-.456-.286-.09-.058-.24-.208-.319-.281a5 5 0 0 1-.347-.574c.081-.225.172-.452.188-.492 1.026-2.705-1.144-5.845-3.721-6.554-2.961-.814-5.534 1.032-6.554 3.721-1.906 5.026.98 10.399 5.142 13.235 3.089 2.105 6.862 2.434 10.504 1.941-1.358 1.098-2.379 2.6-2.787 4.475-.989 4.538 1.458 10.041 6.405 11.039 15.542 3.133 31.138 3.262 46.752.644 4.67-.783 7.622-6.895 6.197-11.158-.845-2.53-2.383-4.287-4.333-5.309 4.145.861 8.618.805 12.194-1.633 4.162-2.835 7.048-8.208 5.142-13.234m-24.16 13.98c-.191.032-1.62.251-2.063.324-.502.062-1.3.164-1.452.182q-2.57.302-5.152.485a114 114 0 0 1-19.878-.327c-.24-.025-2.867-.375-.761-.075-.788-.112-1.578-.218-2.364-.339a121 121 0 0 1-5.486-.985c-.278-.056-.564-.062-.846-.094 2.992-1.121 6.054-2.21 8.982-1.272 1.912.612 3.803 1.691 6.025 2.398 1.501.478 3.023.603 4.549.566 1.526.037 3.048-.088 4.549-.566 2.222-.707 4.114-1.787 6.025-2.398 3.599-1.152 7.398.747 11.023 2.016-1.017-.086-2.062-.097-3.151.085" style="fill:#122a89"/></svg>