<svg xmlns="http://www.w3.org/2000/svg" xml:space="preserve" viewBox="0 0 215 220"><path d="M155.583 103.42c-7.692 1.779-15.779 1.278-23.424-.526-8.445-1.992-15.96-6.64-24.809-6.694-15.409-.094-28.081 12.755-43.725 9.307-7.545-1.663-10.768 9.932-3.198 11.601 7.98 1.759 15.675 1.335 23.347-1.491 7.414-2.73 15.525-7.436 23.576-7.387 4.572.028 8.31 1.889 12.495 3.47a73.3 73.3 0 0 0 13.999 3.769c8.319 1.365 16.694 1.458 24.937-.449 7.54-1.743 4.348-13.345-3.198-11.6" style="fill:#122a89"/><path d="M132.67 124.105c-13.925-7.926-30.814-8.354-45.293-1.7-2.952 1.357-3.683 5.622-2.158 8.23 1.773 3.031 5.267 3.52 8.23 2.158q1.006-.44.313-.164.59-.243 1.185-.467a41.7 41.7 0 0 1 6.734-1.896c2.344-.453 5.327-.669 8.547-.53 5.442.236 11.417 1.938 16.37 4.757 2.823 1.607 6.577.668 8.23-2.158 1.631-2.789.674-6.618-2.158-8.23" style="fill:#122a89"/></svg>