<svg xmlns="http://www.w3.org/2000/svg" xml:space="preserve" viewBox="0 0 215 220"><path d="M127.975 118.269c-6.566 1.376-12.643 3.093-20.595 3.093s-14.028-1.717-20.595-3.093c-5.982-1.253-7.211 4.629-3.368 7.297 8.997 6.245 16.528 8.439 23.962 8.439s14.965-2.194 23.962-8.439c3.845-2.668 2.616-8.55-3.366-7.297" style="fill:#122a89"/><path d="M164.83 103.43c-3.3-.629-5.061 4.114-9.802 5.569-8.663 2.658-14.812.26-21.232-3.037-2.936-1.508-7.829-5.636-12.111-6.416-6.152-1.119-8.412 2.91-14.305 3.85-5.893-.94-8.153-4.969-14.305-3.85-4.282.781-9.175 4.908-12.111 6.416-6.421 3.296-12.569 5.695-21.232 3.037-4.741-1.455-6.502-6.197-9.802-5.569-3.889.741-6.659 6.224-1.93 9.868 7.857 6.054 17.332 5.885 28.232 3.163 3.723-.93 7.551-3.778 14.296-2.092 5.308 1.327 8.651 2.388 16.852 2.388s11.544-1.061 16.852-2.388c6.745-1.686 10.573 1.162 14.296 2.092 10.9 2.722 20.374 2.892 28.232-3.163 4.729-3.643 1.959-9.127-1.93-9.868" style="fill:#122a89"/></svg>