<svg xmlns="http://www.w3.org/2000/svg" xml:space="preserve" viewBox="0 0 215 220"><path d="M189.194 81.541c-1.434-2.878-11.635.731-10.586 2.836 1.408 2.826 2.487 5.792 3.296 8.826-2.175.921-3.555 2.36-5.494 3.133-4.442 1.772-28.162 6.267-51.793 2.637-3.454-.53-7.002-1.795-9.787-.907-.787.251-4.674 2.77-6.756 2.77-2.083 0-5.969-2.518-6.756-2.77-2.785-.888-6.333.376-9.787.907-23.631 3.629-47.35-.866-51.793-2.637-2.163-.863-3.61-2.559-6.273-3.428 1.09-2.527 2.576-4.884 4.481-6.917 1.692-1.806-1.451-2.546-2.704-2.497-2.454.095-5.299.88-7.031 2.728-6.149 6.565-8.792 16.092-6.758 24.87.18.776 1.356 1.047 1.967 1.138 1.232.184 2.734-.019 3.915-.36 1.233-.355 2.576-.807 3.57-1.646.562-.475 1.328-1.13 1.134-1.969-.098-.425-.139-.855-.214-1.282 1.028.962 2.034 1.859 2.89 2.6 5.642 4.887 31.965 29.462 43.632 35.908 12.394 6.849 19.185 8.454 27.867 8.734.074.013.137.056.216.056.57 0 1.095-.019 1.645-.026.55.007 1.075.026 1.645.026.079 0 .142-.042.216-.056 8.682-.281 15.472-1.886 27.867-8.734 11.667-6.447 37.99-31.021 43.632-35.908.587-.508 1.264-1.1 1.951-1.716-.129 2.079-.366 4.155-.79 6.208-.411 1.992 3.256 1.561 4.329 1.369 1.387-.247 2.771-.636 4.026-1.286.678-.351 1.956-.98 2.125-1.798 2.15-10.414.868-21.278-3.882-30.809m-81.12 58.822c-9.577.005-22.653-6.294-33.711-12.945.308-.152.569-.28.688-.328 1.502-.613 3.041-1.114 4.597-1.575 3.265-.965 5.504-1.35 9.016-1.67 7.673-.7 15.407-.638 23.094-.227 6.196.332 12.751.595 18.777 2.202 2.719.725 5.386 1.749 8.001 2.776.242.095.476.21.718.306-10.481 6.072-22.322 11.466-31.18 11.461m53.022-26.127c-2.237 1.753-5.868 4.433-10.276 7.409-.901-.362-1.774-.698-2.504-1.003-3.088-1.289-6.271-2.527-9.502-3.412-7.89-2.161-16.397-2.648-24.53-2.991-9.153-.387-18.505-.486-27.604.72-7.027.931-15.003 2.865-21.315 6.71-4.423-2.986-8.069-5.676-10.312-7.434-3.566-2.794-12.829-9.167-13.03-9.287 14.496 3.392 35.937 5.659 43.992 4.338 3.921-.643 6.814-.579 10.328.672 4.824 1.717 8.633 1.529 11.733 1.529 3.099 0 6.908.188 11.733-1.529 3.514-1.251 6.406-1.315 10.328-.672 8.055 1.32 29.495-.946 43.992-4.338-.204.121-9.467 6.494-13.033 9.288" style="fill:#122a89"/></svg>