<svg xmlns="http://www.w3.org/2000/svg" xml:space="preserve" viewBox="0 0 215 220"><path d="M113.831 106.546c.72.198 1.679.109 2.317-.303.642-.414 1.207-1.031 1.382-1.797l.107-.8a3 3 0 0 0-.408-1.509l.238.563c-.399-.96-.644-1.966-.823-2.987-.104-.989-.12-1.98-.017-2.97.078-.448.151-.895.272-1.335.415-1.516-.515-3.339-2.101-3.7-1.587-.362-3.255.477-3.7 2.101-.48 1.754-.698 3.636-.561 5.452.159 2.101.666 3.978 1.495 5.903.279.643 1.157 1.205 1.799 1.382m-17.479-2.1c.175.767.74 1.383 1.382 1.797.639.412 1.597.501 2.317.303.642-.177 1.52-.739 1.797-1.382.829-1.925 1.336-3.802 1.495-5.903.137-1.816-.081-3.698-.561-5.452-.445-1.624-2.112-2.462-3.7-2.101-1.585.361-2.516 2.184-2.101 3.7.12.439.193.887.272 1.335.104.99.087 1.981-.017 2.97-.178 1.022-.423 2.027-.823 2.987l.238-.563a3 3 0 0 0-.408 1.509z" style="fill:#122a89"/><path d="M150.233 103.911c-9.12 11.488-25.164 9.925-38.269 9.64l-22.409-.488c-3.781-.083-7.571-.096-11.351-.251-3.197-.131-8.672-.512-9.037-4.75-.33-3.828-6.348-3.863-6.015 0 .689 7.992 8.041 10.496 15.052 10.765 9.798.377 19.619.431 29.422.645 15.768.343 35.788 2.637 46.859-11.307 2.384-3.001-1.845-7.285-4.252-4.254M126.905 127c-13.301-2.537-26.765-2.845-40.174-1.005-1.611.221-2.49 2.282-2.101 3.7.477 1.736 2.084 2.322 3.7 2.1 12.262-1.683 24.824-1.312 36.976 1.005 3.783.722 5.404-5.075 1.599-5.8" style="fill:#122a89"/></svg>