<svg xmlns="http://www.w3.org/2000/svg" xml:space="preserve" viewBox="0 0 215 220"><path d="M147.432 117.417c-10.892-14.668-18.753-20.368-32.228-23.307-1.555-.339-5.271-.408-7.744-.408-2.15 0-6.189.069-7.744.408-13.476 2.94-21.533 8.904-32.228 23.307-1.706 2.297-5.286 8.43-3.03 7.324 7.784-3.815 41.286-3.597 43.002-3.288 1.716-.308 37.147.419 43.002 3.288 2.256 1.106-1.324-5.028-3.03-7.324m-23.411 15.463c-10.469-1.714-21.127-1.833-31.642-.444-3.107.41-2.179 5.195.926 4.785 10.091-1.333 20.295-1.128 30.338.517 3.093.506 3.455-4.354.378-4.858" style="fill:#122a89"/></svg>