<svg xmlns="http://www.w3.org/2000/svg" xml:space="preserve" viewBox="0 0 215 220"><path d="M84.346 109.201a3 3 0 0 0 3.739-2.024c1.701-5.704 3.574-11.02 7.766-13.369 1.88-1.043 4.89-.72 6.843.749 1.14.858 1.595 1.824 1.348 2.875a3.01 3.01 0 0 0 2.229 3.61c1.612.399 3.228-.599 3.621-2.212.546-2.232 2.212-4.203 4.573-5.407 2.361-1.201 4.937-1.386 7.061-.517 2.129.869 3.83 2.811 4.67 5.322s.646 5.084-.532 7.061a3.01 3.01 0 0 0 5.17 3.078c2.074-3.48 2.461-7.871 1.066-12.045s-4.344-7.448-8.095-8.984c-3.751-1.53-8.153-1.266-12.071.725a15.8 15.8 0 0 0-4.036 2.931 10.7 10.7 0 0 0-1.389-1.245c-3.9-2.934-9.419-3.425-13.402-1.187-6.15 3.445-8.603 10.239-10.585 16.9a3.003 3.003 0 0 0 2.024 3.739m29.964 5.025c-4.038 4.479-11.825 5.246-16.659 1.633a3.008 3.008 0 0 0-3.595 4.823c3.122 2.329 6.984 3.46 10.855 3.46 5.178 0 10.374-2.018 13.863-5.886a3.007 3.007 0 0 0-.217-4.247 3.004 3.004 0 0 0-4.247.217" style="fill:#122a89"/><path d="M118.794 107.706c-7.302-5.445-18.618-4.338-24.721 2.426a3.007 3.007 0 1 0 4.464 4.029c4.044-4.476 11.825-5.246 16.656-1.633a3.009 3.009 0 1 0 3.601-4.822m11.593 9.795a3 3 0 0 0-3.974 1.518c-3.542 7.924-10.758 13.067-18.389 13.099h-.076c-7.557 0-15.399-5.246-19.528-13.076a3.01 3.01 0 0 0-5.322 2.808c5.225 9.901 14.967 16.283 24.847 16.283h.106c9.986-.044 19.349-6.582 23.855-16.659a3.01 3.01 0 0 0-1.519-3.973" style="fill:#122a89"/></svg>