<svg xmlns="http://www.w3.org/2000/svg" xml:space="preserve" viewBox="0 0 215 220"><path d="M175.915 103.659c-3.633-.198-3.827 2.108-9.272 3.457-9.593 2.38-21.722 2.075-29.047-1.221-3.349-1.508-6.729-4.363-11.615-5.144-7.018-1.119-11.799 1.637-18.522 2.577-6.723-.94-11.504-3.696-18.522-2.577-4.885.781-8.265 3.635-11.615 5.144-7.325 3.296-19.454 3.601-29.047 1.221-5.445-1.349-5.639-3.655-9.272-3.457-5.492.299-5.7 6.042-1.699 8.389 12.303 7.215 42.114 4.76 48.529 2.455 4.478-1.609 5.971 2.188 21.625 2.188s17.147-3.798 21.625-2.188c6.416 2.305 36.226 4.76 48.529-2.455 4.003-2.347 3.796-8.09-1.697-8.389m-45.947 16.522c-3.835.214-13.115.025-22.508-.067-9.393.093-18.673.281-22.508.067-5.934-.33-7.822 3.442-3.755 5.213 7.367 3.207 17.004 5.28 26.263 5.256 9.258.024 18.896-2.05 26.263-5.256 4.068-1.771 2.179-5.543-3.755-5.213" style="fill:#122a89"/></svg>