<svg xmlns="http://www.w3.org/2000/svg" xml:space="preserve" viewBox="0 0 215 220"><path d="M179.474 93.831c-6.079.236-6.098 4.692-8.086 6.896-6.137 6.802-39.808-8.895-46.803-8.895-6.093 0-10.524 4.659-17.124 5.038-6.6-.379-11.031-5.038-17.124-5.038-6.995 0-40.665 15.696-46.803 8.895-1.989-2.204-2.007-6.659-8.086-6.896-3.272-.127-4.951 2.945-3.963 6.698.903 3.432 10.438 9.645 19.032 9.864 3.131.08 5.488-.001 7.768-.206-.437.678-.792 1.389-.984 2.094-1.086 3.999 1.424 6.898 4.608 8.547 35.005 18.132 57.369 20.11 92.754-2.375 3.355-2.132 3.743-5.521 2.521-8.214 2.114.17 4.341.227 7.223.153 8.594-.219 18.129-6.432 19.032-9.864.986-3.752-.694-6.825-3.965-6.697M69.616 108.564l.386-.061c12.402-1.915 26.273 5.397 37.457 5.397 11.188 0 24.63-7.047 36.881-5.436-23.786 10.345-50.656 9.62-74.724.1" style="fill:#122a89"/></svg>