<svg xmlns="http://www.w3.org/2000/svg" xml:space="preserve" viewBox="0 0 215 220"><path d="M176.373 95.253c-4.038-.65-4.244 3.242-6.777 4.733-8.591 5.061-38.59.911-43.521.13-7.083-1.119-11.909-.068-18.694.872-6.786-.939-11.611-1.991-18.694-.872-4.931.781-34.931 4.93-43.521-.13-2.533-1.492-2.739-5.383-6.777-4.733-4.716.759-4.337 7.3.406 9.705.423.214.909.349 1.347.546.305.406.677.857 1.132 1.362 12.537 13.928 37.855 26.921 66.108 26.875 28.253.047 53.571-12.947 66.108-26.875.454-.505.826-.956 1.132-1.362.437-.197.924-.332 1.347-.546 4.741-2.405 5.121-8.946.404-9.705m-68.992 31.162c-23.309.147-43.442-10.656-53.736-17.411 10.568 1.286 22.321.369 31.91-.252 5.334-.345 10.245.484 21.827.484s16.493-.829 21.827-.484c9.588.621 21.341 1.538 31.91.252-10.296 6.755-30.43 17.558-53.738 17.411" style="fill:#122a89"/></svg>