<svg xmlns="http://www.w3.org/2000/svg" xml:space="preserve" viewBox="0 0 215 220"><path d="M161.339 98.192c-4.269-.705-5.503 3.63-9.864 4.46-18.899 3.597-26.845-.195-30.749-.701-5.608-.725-7.894 1.275-13.266 1.884-5.372-.609-7.658-2.609-13.266-1.884-3.904.506-11.851 4.298-30.749.701-4.361-.83-5.595-5.165-9.864-4.46-4.304.711-4.522 4.572-2.18 7.055.63.668 1.52 1.28 2.522 1.867.233.476.98 1.259 2.316 2.528 9.714 9.23 29.331 19.548 51.222 19.517 21.891.031 41.508-10.286 51.222-19.517 1.336-1.27 2.083-2.052 2.316-2.528 1.002-.586 1.893-1.199 2.522-1.867 2.34-2.484 2.122-6.344-2.182-7.055m-53.879 19.72c-11.818.064-20.98-2.042-27.694-4.361 12.579 1.557 24.971 1.977 27.694 1.977s15.115-.42 27.694-1.977c-6.714 2.319-15.876 4.424-27.694 4.361m4.519 21.93c-3.522.658-6.199.355-10.162-.209-4.181-.595-5.811 4.87-2.499 6.359 4.747 2.134 9.518 2.044 14.543.981 6.269-1.326 4.771-8.375-1.882-7.131m74.023-39.335c-3.465-2.217-5.46-4.685-8.322-8.451-3.02-3.973-8.72.031-7.136 4.17 2.271 5.932 6.327 9.717 11.368 12.759 6.29 3.796 10.634-4.29 4.09-8.478M37.24 92.057c-2.862 3.765-4.858 6.234-8.322 8.451-6.544 4.188-2.199 12.274 4.09 8.478 5.041-3.042 9.097-6.826 11.368-12.759 1.584-4.139-4.117-8.143-7.136-4.17" style="fill:#122a89"/></svg>