<svg xmlns="http://www.w3.org/2000/svg" xml:space="preserve" viewBox="0 0 215 220"><path d="M141.231 94.283c-18.977 12.52-40.921 19.428-63.566 20.118-.045-.727-.091-1.454-.079-2.182.016-.878.173-1.776.193-2.653q.044-.26.093-.52a28.4 28.4 0 0 1 1.053-3.924c.123-.354.359-.794.459-1.185q.103-.224.211-.447a27.3 27.3 0 0 1 2.26-3.807l.172-.235.012-.014.01-.015q.12-.167.243-.332c-.102.13-.105.135-.175.227.988-1.237 1.684-2.477 1.684-4.133 0-1.475-.655-3.237-1.762-4.253-2.198-2.018-6.386-2.607-8.506 0-3.277 4.03-5.764 8.573-6.987 13.656-1.231 5.113-1.257 10.334-.16 15.47.031.145.147.253.191.393-.011 3.016 1.921 6.065 5.805 6.115 1.709.022 3.411-.082 5.117-.126.237 2.558 2.011 4.303 4.324 5.271 23.144 9.679 52.165-.956 64.192-22.778.707-1.284 2.271-4.437 2.504-5.199 2.616-8.566-1.472-13.284-7.288-9.447" style="fill:#122a89"/></svg>