<svg xmlns="http://www.w3.org/2000/svg" xml:space="preserve" viewBox="0 0 215 220"><path d="M173.186 101.089c-2.603-1.666-4.102-3.52-6.253-6.349-2.269-2.985-6.551.023-5.361 3.133.348.91.788 1.712 1.243 2.497-.82.673-1.768 1.358-2.955 1.912-23.472 10.951-37.791.13-41.819-.554-4.76-.805-6.101 1.623-10.66 2.3-4.559-.676-5.9-3.105-10.66-2.3-4.028.683-18.347 11.504-41.819.554-1.188-.554-2.135-1.239-2.955-1.912.455-.785.895-1.587 1.243-2.497 1.191-3.11-3.092-6.118-5.361-3.133-2.151 2.829-3.65 4.684-6.253 6.349-4.917 3.146-1.652 9.221 3.073 6.37a27 27 0 0 0 2.764-1.901q.22.184.444.354c9.166 11.392 32.885 27.967 59.524 27.967s50.358-16.575 59.524-27.967q.225-.17.444-.354a27 27 0 0 0 2.764 1.901c4.725 2.852 7.99-3.224 3.073-6.37m-65.805 20.066c-11.471.1-22.987-2.858-32.221-6.27 11.766 1.743 21.959.657 32.221-.252 10.263.909 20.455 1.995 32.221.252-9.235 3.411-20.75 6.37-32.221 6.27m4.748 23.645c-3.297.659-5.803.355-9.512-.209-3.913-.595-5.439 4.871-2.339 6.359 4.443 2.134 8.908 2.044 13.613.981 5.868-1.326 4.466-8.375-1.762-7.131" style="fill:#122a89"/></svg>