<svg xmlns="http://www.w3.org/2000/svg" xml:space="preserve" viewBox="0 0 215 220"><path d="M164.114 112.918c-33.256-26.151-81.137-23.131-112.633 4.497-2.855 2.504-1.681 5.584 1.738 6.488 4.04 1.069 9.253-.608 12.325-3.302 23.693-20.783 57.954-19.976 82.416-.74 3.234 2.543 8.007 1.88 11.579.332 1.751-.759 7.804-4.735 4.575-7.275" style="fill:#122a89"/><path d="M85.259 124.84c-1.486.733-3.388 2.536-2.116 4.276 1.231 1.683 4.298 1.312 5.887.529 11.238-5.542 24.717-4.15 34.992 2.861 1.775 1.211 4.607.596 6.232-.588 1.445-1.053 2.306-3.057.532-4.268-13.263-9.05-31.211-9.869-45.527-2.81" style="fill:#122a89"/></svg>