<svg xmlns="http://www.w3.org/2000/svg" xml:space="preserve" viewBox="0 0 215 220"><path d="M55.922 125.822c15.275 1.061 24.875-5.035 35.832-6.49s30.781 1.116 41.645 6.406c3.749 1.825 7.31 1.514 7.656-2.533 6.174 1.713 5.726 2.477 11.76 4.823 5.818 2.262 7.296-1.904 7.665-4.164 1.826.431 7.422 4.076 9.249 4.507 3.375.797 5.347-3.253 3.733-5.847-10.152-16.315-31.359-24.973-49.614-28.082-11.553-1.967-32.323-3.614-43.816-2.963-15.661.886-23.956 2.506-30.436 6.796-14.731 9.751-7.388 26.594 6.326 27.547" style="fill:#122a89"/></svg>