<svg xmlns="http://www.w3.org/2000/svg" xml:space="preserve" viewBox="0 0 215 220"><path d="M146.115 96.731c-1.712-2.04-4.18-3.173-6.87-3.615l-18.408-3.027c-2.788-.458-5.664.585-7.904 2.116-2.248 1.534-3.492 4.036-3.978 6.516-.217 1.111-.101 2.33.202 3.512l-10.787-.747a11.3 11.3 0 0 0-5.549.78l-2.355 1.336c-2.245 1.534-3.491 4.036-3.975 6.515-.013.069.001.135-.01.204l-7.285-.436a11.3 11.3 0 0 0-5.549.78q-1.178.667-2.355 1.336-2.17 1.635-3.252 4.033l-.724 2.483a7 7 0 0 0 .362 3.924q.368 1.939 1.749 3.46a7.64 7.64 0 0 0 3.074 2.365q1.694 1.083 3.796 1.251l7.532.451a11.3 11.3 0 0 0 5.549-.78l2.355-1.336q2.17-1.634 3.252-4.033l.724-2.483c.013-.069-.001-.133.01-.201l13.359.925a11.3 11.3 0 0 0 5.551-.78l2.355-1.336c2.247-1.534 3.491-4.036 3.976-6.515.207-1.12.099-2.194-.198-3.243l15.583 2.562c2.788.458 5.664-.585 7.904-2.115 2.248-1.535 3.492-4.036 3.978-6.516.479-2.464-.509-5.474-2.112-7.386" style="fill:#122a89"/></svg>