<svg xmlns="http://www.w3.org/2000/svg" xml:space="preserve" viewBox="0 0 215 220"><path d="M52.91 98.94c8.238 5.734 26.034 4.039 35.592 5.589 10.212 1.655 20.476 3.171 30.459 5.938 13.104 3.628 25.89 9.586 35.664 19.513 1.443 2.925 8.37 11.268 8.725 11.407 3.304 1.293.849-7.897-2.96-18.021-3.432-6.871-7.882-11.617-12.752-17.264-7.754-8.995-26.537-18.05-37.567-20.627-11.739-2.742-21.206-5.384-33.212-6.547-8.306-.804-25.5-1.598-26.215 9.225-.119 1.844.794 9.762 2.266 10.787" style="fill:#122a89"/></svg>