<svg xmlns="http://www.w3.org/2000/svg" xml:space="preserve" viewBox="0 0 215 220"><path d="M152.551 106.104c-.084.325-.147.654-.336.959-2.948 4.749-6.555 8.982-10.28 13.121 5.774.497 11.597 1.174 18.405 2.087 2.036.27 8.542.882 7.767-3.675-.456-2.693-8.468-8.126-15.556-12.492m-10.164 2.046.24-.317c.354-.477.708-.953 1.053-1.437a59 59 0 0 0 2.069-3.113c.195-.314.473-.562.75-.807-2.052-1.2-3.67-2.125-4.398-2.558-8.991-5.348-18.129-6.03-28.004-5.049-18.972 1.886-30.217 6.764-48.535 12.872-9.714 3.239-16.632 8.623-18.057 13.642-1.915 6.743 16.116 3.436 20.272 2.513 10.514-2.33 26.22-3.784 39.569-4.366.123-.177.193-.377.353-.537 2.384-2.384 4.774-4.766 7.038-7.266a80 80 0 0 0 3.131-3.663l.325-.41.024-.03q.335-.441.665-.886a60 60 0 0 0 1.533-2.189c1.088-1.624 3.351-2.485 5.122-1.343 1.619 1.044 2.509 3.382 1.343 5.122-2.652 3.958-5.799 7.491-9.057 10.929.95-.007 1.968-.027 2.851-.022 4.255.025 8.099.146 11.817.322 1.577-1.734 3.122-3.496 4.685-5.242 1.61-1.798 3.192-3.622 4.696-5.51q.249-.31.495-.626.232-.297.02-.029" style="fill:#122a89"/></svg>