<svg xmlns="http://www.w3.org/2000/svg" xml:space="preserve" viewBox="0 0 215 220"><path d="M63.328 112.006c11.782-2.85 22.184-8.697 30.68-17.353 2.445-2.49 6.098-2.665 9.074-1.171l15.434 7.749c2.209-2.398 5.967-3.51 9.414-1.845l25.789 12.459c8.676 4.191 1.09 17.109-7.559 12.931l-10.775-5.205c-2.171 2.571-6.023 3.832-9.572 2.05l-5.637-2.83c-.591.859-1.318 1.612-2.253 2.107-1.745.922-3.834 1.367-5.77.755-.784-.248-1.531-.571-2.289-.891s-1.509-.632-2.23-1.027c-1.238-.679-2.356-1.579-3.451-2.47-5.189 4.667-11.494 8.151-18.17 9.981-3.359.921-7.179-.899-8.644-4.074-3.267 1.306-6.609 2.44-10.061 3.275-9.363 2.265-13.358-12.173-3.98-14.441" style="fill:#122a89"/></svg>