<svg xmlns="http://www.w3.org/2000/svg" xml:space="preserve" viewBox="0 0 215 220"><path d="M157.653 109.737c-.77-2.776-4.96-4.827-8.29-3.866l-29.479 8.506c-3.566 1.029-5.565 3.715-4.707 6.809.77 2.777 4.96 4.828 8.29 3.867l29.48-8.505c3.564-1.029 5.564-3.716 4.706-6.811m-26.222-12.088c-1.609-2.501-6.318-3.644-9.221-1.985l-24.209 13.832c-3.098 1.77-4.237 4.746-2.418 7.574 1.609 2.502 6.318 3.644 9.221 1.986l24.209-13.832c3.098-1.77 4.236-4.747 2.418-7.575" style="fill:#122a89"/><path d="M98.753 105.812c.231-.066.456-.144.689-.204 3.606-.92 5.54-3.805 4.707-6.81-.79-2.851-4.923-4.725-8.29-3.866-4.862 1.24-9.43 3.576-12.736 6.78-3.297 3.195-5.859 7.039-6.555 11.235a4.62 4.62 0 0 0 0 2.944l.68 1.322c.824 1.281 2.397 2.111 4.027 2.544 1.62.431 3.749.136 5.193-.558 1.275-.613 2.887-2.039 3.097-3.308.207-1.244.675-2.433 1.206-3.605a18 18 0 0 1 1.876-2.622 21 21 0 0 1 2.62-2.165 23 23 0 0 1 3.486-1.687m-30.707-7.557a6 6 0 0 0-2.597.477 5.3 5.3 0 0 0-2.169 1.145 8.8 8.8 0 0 0-1.423 1.14c-.707.703-1.429 1.435-1.972 2.237-.858 1.267-1.563 2.702-1.843 4.144-.184.948-.378 1.928-.358 2.895.02.964.197 1.944.417 2.887a7 7 0 0 0 .544 1.493c.432.885.857 1.777 1.501 2.574 1.01 1.248 2.302 2.085 4.027 2.544 1.734.461 3.629.121 5.193-.558 1.457-.633 2.666-2.024 3.097-3.308.437-1.306.255-3.109-.68-4.265-.13-.161-.218-.338-.332-.504-.078-.2-.14-.403-.198-.606a7 7 0 0 1 0-.789q.11-.4.263-.789.159-.243.337-.477c.309-.269.597-.557.955-.789 1.37-.885 1.899-2.549 1.974-3.914.08-1.475-.795-2.86-1.974-3.914-1.135-1.021-3.11-1.623-4.762-1.623" style="fill:#122a89"/></svg>