<svg xmlns="http://www.w3.org/2000/svg" xml:space="preserve" viewBox="0 0 215 220"><path d="M176.613 117.792c-10.008-13.324-26.575-20.663-42.422-24.312-15.575-3.585-32.32-4.744-48.268-4.411-13.869.29-30.469 1.325-41.991 10.041-13.358 10.105-7.492 27.297 8.522 29.091 9.255.44 18.025-1.156 26.866-3.757 8.689-2.556 16.171-3.555 25.23-2.631a95 95 0 0 1 13.591 2.381c4.321 1.093 8.207 3.179 12.428 4.422 3.313.976 8.016.733 11.478-1.047 4.211 1.899 8.397 3.932 13.093 3.319 2.343-.306 4.699-1.001 6.628-2.212 3.147 1.564 6.052 2.738 10.541 1.425 6.973-2.039 8.649-6.524 4.304-12.309m-11.682 3.928c-1.988-.684-9.244.433-9.797 3.098l-.035.125c-.644-.274-1.292-.544-1.913-.869-2.553-1.188-4.961-2.206-7.68-3.013-1.721-.511-6.983.115-9.003 1.935-.944-.451-1.952-.834-2.92-1.187-3.288-1.201-6.696-2.087-10.118-2.811-7.06-1.494-14.308-2.348-21.527-2.355-14.662-.015-27.91 7.582-42.513 6.888-14.697-1.647-15.948-19.915-3.589-26.105 5.538-2.774 12.468-2.937 18.513-3.358 7.114-.495 14.196-.333 21.31.106 13.787.852 27.699 2.259 40.79 6.914 7.137 2.537 14.011 5.983 20.044 10.592 2.57 1.963 4.976 4.134 7.144 6.534 1.263 1.397 2.727 2.937 3.634 4.619-.781-.447-1.561-.845-2.34-1.113" style="fill:#122a89"/></svg>