<svg xmlns="http://www.w3.org/2000/svg" xml:space="preserve" viewBox="0 0 215 220"><path d="M50.402 108.168c1.062-2.585 3.09-5.053 6.218-6.368 1.414-.595 2.916-.982 4.426-1.327a27 27 0 0 1 2.789-3.074c2.285-2.16 5.556-3.741 9.065-4.702 3.359-1.717 7.23-2.783 11.442-2.991 5.41-.268 11.433 1.41 15.673 4.291 3.816-1.579 8.052-2.474 12.441-2.265 2.391-.871 4.792-1.228 7.085-1.068.227-.202.471-.39.713-.583a21.7 21.7 0 0 1 8.09-4.262c4.224-1.195 8.554-.901 12.392.356 2.313.534 4.549 1.283 6.527 2.487 6.154 3.745 8.292 9.761 6.865 15.45 2.659 1.409 5.209 2.986 7.677 4.602 4.112 2.692 4.72 8.053 2.797 11.64-2.017 3.764-6.983 6.7-12.364 6.55l-4.287-.12c-4.312-.121-8.504-1.879-11.057-4.562-.401.765-.827 1.521-1.329 2.243-4.611 6.625-14.263 10.815-23.835 10.474-9.597-.342-18.922-4.087-23.876-10.734-.275-.369-.47-.765-.711-1.146-1.438 1.625-3.426 2.95-5.845 3.754-5.188 1.724-10.627.696-14.779-2.203-1.243-.868-2.366-1.908-3.413-3.01-1.091-.01-2.182-.088-3.255-.321-3.138-.681-6.54-2.592-8.086-4.897-1.658-2.476-2.49-5.472-1.363-8.214" style="fill:#122a89"/></svg>