<svg xmlns="http://www.w3.org/2000/svg" xml:space="preserve" viewBox="0 0 215 220"><path d="M133.734 101.08c-21.138-2.032-45.606 1.171-59.324 10.296-4.006 2.664-2.792 9.017 9.429 8.046 11.707-.93 16.305-3.964 22.943-6.867 2.611.403 5.776 1.084 8.739 2.285 5.02 2.035 7.497 1.942 6.712-.159-.428-1.145-2.263-2.468-4.929-3.851 3.506.373 8.926 1.234 13.853 3.23 6.198 2.512 9.256 2.398 8.286-.196-.692-1.85-4.326-4.071-9.387-6.35-.241-.109-.535-.212-.796-.319 2.982-.287 6.227-.521 9.996-.645 4.816-.159 7.354-4.232-5.522-5.47" style="fill:#122a89"/></svg>