<svg xmlns="http://www.w3.org/2000/svg" xml:space="preserve" viewBox="0 0 215 220"><path d="M173.092 112.034c-1.328-3.738-3.112-7.371-3.783-11.308-.706-3.667-3.507-6.556-6.253-8.89-3.158-2.685-7.072-4.498-10.043-7.354-2.63-2.529-4.759-5.523-7.281-8.153-1.808-1.886-3.834-3.147-6.158-4.3-6.065-3.01-12.736-4.867-19.511-5.167a44.6 44.6 0 0 0-12.686 1.276c-1.064.264-2.121.71-3.19.924-1.218.244-2.496.054-3.733.085-2.056.052-4.089.301-6.112.661-7.294 1.299-14.549 3.667-21.249 6.828-3.036 1.432-5.743 3.194-8.429 5.206-3.751 2.809-7.64 5.476-11.295 8.408-2.677 2.147-5.445 4.692-6.59 8.029-.482 1.405-.546 2.903-1.044 4.31-.447 1.263-1.094 2.444-1.752 3.607-1.223 2.159-2.546 4.296-3.153 6.729-.771 3.089-.219 6.296.936 9.216.696 1.759 1.518 2.968 1.107 4.899-.345 1.624-1.146 3.131-1.796 4.646-1.103 2.572-2.271 5.587-.752 8.24 1.909 3.333 6.574 6.064 10.205 6.982 2.787.704 5.533.383 7.945-.885.44 1.722 1.273 3.122 3.283 3.551a8.8 8.8 0 0 0 1.941.203c1.111-.018 2.211-.298 3.024-1.059 2.464-2.304 1.828-7.564 2.127-10.586.201-2.029.427-4.29 1.445-6.099.372-.66.837-1.301 1.556-1.605.823-.348 1.715-.217 2.392-.937 1.172-1.246.207-3.509-.145-4.9-.66-2.606-1.42-5.589.239-7.974 2.61-3.751 6.432-7.035 10.14-9.655 2.607-1.842 5.3-3.609 8.539-3.654.923 1.301 2.758 2.509 3.874 3.468a58 58 0 0 0 4.487 3.513c2.255 1.583 4.651 2.95 7.201 3.998 2.822 1.16 6.224 1.693 8.069 4.361 1.337 1.933 1.578 4.253 2.551 6.333.948 2.027 2.797 3.393 4.786 4.304 2.234 1.022 4.641 1.571 7.016 2.154 1.328.326 4.199.642 4.903 2.059.38.765-.161 1.594-.403 2.308-.555 1.642-.708 3.388-.576 5.112.255 3.313 1.649 6.689 3.93 9.127 3.32 3.55 9.342 4.222 13.31 1.326.376-.275.741-.57 1.077-.91 1.404-1.423 2.02-3.582 3.61-4.809 2.256-1.742 5.881-.646 8.532-1.603 4.479-1.617 4.18-5.692 3.427-9.642-.415-2.176-1.201-4.871-.291-7.023.542-1.281 1.676-1.64 2.763-2.357 1.242-.819 2.262-1.936 2.813-3.328 1.226-3.098.052-6.694-1.003-9.665m-6.365-.999c-2.525-1.274-5.769-1.328-8.061-2.63-1.483-.788-2.462-2.253-3.074-3.938-1.605-4.753-1.641-13.609-8.741-13.29 6.736.901 5.566 8.907 7.177 13.845.611 1.899 1.856 3.854 3.773 4.912 2.766 1.5 5.584 1.363 8.275 2.496 2.439 1.103 4.199 3.403 4.777 6.055.358 1.322.368 2.728.063 4.098a4.6 4.6 0 0 1-.863 1.054c-.924.812-2.142 1.163-3.033 2.03-1.318 1.281-1.723 2.972-1.684 4.76.044 2.021.567 3.988.902 5.971.275 1.625.698 3.883-.4 5.315-.506.66-1.242.988-2.067 1.17-5.516-.362-10.144-2.611-13.85-6.811.934 3.64 4.256 6.411 7.947 7.357-.248.067-.502.125-.739.211-4.136-.175-7.945-1.01-8.81-6.127-.564-2.802-.067-5.887-.561-9.077-.377-3.049-2.608-6.587-5.957-6.65 6.799 2.525 3.638 10.418 4.818 16.07.845 4.751 4.543 6.718 8.719 6.693a8 8 0 0 0-1.732 1.585c-2.478.737-5.201 1.101-7.41-.107-2.407-2.185-1.559-5.875-1.498-8.962.302-9.251-2.759-13.108-11.947-14.118-4.697-.687-6.441-5.402-8.854-8.883 1.495 2.991 2.423 6.586 5.297 8.691 2.732 2.062 6.713 1.918 9.478 3.328 3.874 1.937 4.432 6.959 4.386 10.928-.032 2.685-.39 5.989 1.227 8.536 1.978 2.926 5.83 2.318 8.919 1.067-1.09 1.533-1.815 3.436-3.638 4.251-3.284 1.468-6.511.04-8.645-2.56-2.175-2.65-3.379-6.239-3.207-9.665.076-1.523.65-2.778 1.009-4.218.163-.656.202-1.228-.111-1.848-.653-1.292-2.395-1.796-3.669-2.184-2.091-.638-4.252-1.018-6.342-1.661-2.222-.683-4.581-1.65-6.017-3.571-1.332-1.781-1.529-4.24-2.521-6.226-1.606-3.213-4.258-4.251-7.463-5.401-2.295-.824-4.497-1.836-6.586-3.097a45 45 0 0 1-4.938-3.475 65 65 0 0 1-2.709-2.306c-.734-.658-2.436-1.755-2.86-2.604-.175-.35-.491-.473-.875-.492-5.448-.27-10.059 2.85-14.173 6.108a54 54 0 0 0-3.731 3.263c.209-.229.408-.463.624-.687-4.513 3.242-7.819 8.028-10.382 12.875-2.583 4.444-5.612 9.936-11.572 9.198 5.903 2.82 10.914-3.732 13.004-8.429.7-1.44 1.429-2.853 2.197-4.236-.102.83-.079 1.705.052 2.651.163 1.176.468 2.325.76 3.475.231.911.234 2.103.514 2.964-.071.01-.146.022-.251.042-.374.072-.768.238-1.112.394a6.1 6.1 0 0 0-2.105 1.574c-2.554 2.945-2.427 7.662-2.698 11.314a29 29 0 0 1-.976 5.613c-.042.154-.184.296-.241.369-.505.053-1.333-.127-1.665-.27-1.48-.641-1.678-2.557-1.89-3.96-.043-.284-.227-.426-.472-.485 2.066-1.662 3.468-4.181 3.334-6.785-2.389 4.023-5.235 6.651-9.449 8.685.52.07 1.042.068 1.56.021-2.856.795-6.012-.539-8.55-2.247-2.73-1.837-5.532-4.123-4.859-7.718.466-2.488 1.831-4.7 2.681-7.06.359-.995.655-2.025.622-3.093-.045-1.47-.9-2.722-1.409-4.069-1.054-2.79-1.523-5.738-.744-8.658.584-2.192 1.808-4.112 2.914-6.067 1.111-1.963 2.083-3.978 2.499-6.212.704-3.781 2.936-6.319 5.838-8.734 3.265-2.716 6.85-5.064 10.235-7.629 2.595-1.966 5.172-3.902 8.097-5.351 6.045-2.995 12.609-5.205 19.206-6.593a48 48 0 0 1 5.133-.815c2.027-.199 4.196.225 6.178-.098 2.054-.335 4.078-1.277 6.152-1.669a39 39 0 0 1 6.935-.683c6.568-.049 13.095 1.502 19.053 4.232 2.278 1.043 4.613 2.152 6.433 3.904 2.616 2.517 4.729 5.506 7.244 8.119 5.256 5.459 15.285 8.322 16.891 16.666.44 2.579 1.369 5.029 2.319 7.46-3.327-3.453-10.129-2.899-11.342-8.194-.413 4.245 4.476 6.053 7.519 7.603 2.495 1.396 4.491 3.52 5.865 6.023.488 1.493.835 3.024.875 4.546a9 9 0 0 0-.043-.582c-.377-2.975-2.206-5.925-4.975-7.297m5.024 8.919c-.007.091-.031.178-.041.269.01-.119.037-.235.043-.355-.003.029 0 .058-.002.086" style="fill:#122a89"/><path d="M99.833 84.03c-2.002 4.324-3.866 8.809-4.476 13.574 1.66-3.798 4.264-9.029 6.058-12.811 1.869-3.711 4.26-9.093 6.519-12.535-3.647 3.155-5.947 7.54-8.101 11.772m-47.965 46.175c5.751 1.229 12.306-3.295 13.215-9.101-3.383 4.673-7.647 7.599-13.215 9.101" style="fill:#122a89"/><path d="M61.024 122.081c-4.783 3.514-10.345 3.839-15.518.933 3.421 5.31 12.754 4.741 15.518-.933m4.841-22.808c7.559-6.735 16.438-10.99 26.429-12.633-10.083-.938-20.832 4.189-26.429 12.633" style="fill:#122a89"/><path d="M71.541 91.17c7.009-4.554 14.389-7.333 22.667-8.502-8.231-1.385-17.381 2.037-22.667 8.502m11.027-9.876c5.712-3.102 11.686-3.908 18.021-2.458-5.281-3.97-13.993-2.773-18.021 2.458m-21.112 54.062c-2.673 3.918-5.985 6.011-10.678 6.713 4.49 2.146 10.672-1.731 10.678-6.713" style="fill:#122a89"/></svg>