<svg xmlns="http://www.w3.org/2000/svg" xml:space="preserve" viewBox="0 0 215 220"><path d="M171.353 106.56c-2.427-14.266-6.155-23.195-11.165-31.421-5.707-9.37-12.752-16.908-21.664-21.274-3.582-1.754-16.72-7.176-28.874-5.576-15.895-4.612-28.269 4.132-31.829 6.573C71.365 59.287 62.86 68.26 57.153 77.63c-5.01 8.226-9.735 20.642-12.162 34.908-3.62 21.282.846 36.285 6.246 45.959 6.433 11.525 9.836 12.254 9.836 7.121 0 0 8.464 14.417 6.549 3.042-3.452-20.5-9.307-28.726-3.87-45.072 1.14-3.429 2.766-7.206 5.027-11.538 1.994-.591 3.778-1.803 3.594-3.303a38 38 0 0 1-.237-2.808 245 245 0 0 1 1.882-3.218q.055 1.776.198 3.582c.24 3.04 8.933 1.165 8.658-2.32-.437-5.53-.271-11.06.817-16.185.415-.576.826-1.124 1.236-1.674a49.6 49.6 0 0 0-.112 18.067c.567 3.132 9.264 1.027 8.658-2.32-.809-4.465-.935-9.862-.163-15.202-.295 6.253.339 12.407 1.715 17.276.9 3.184 9.555.854 8.658-2.32-1.45-5.13-2.12-12.664-1.435-19.947.252 7.373 1.506 14.842 2.984 21.374.741 3.276 9.423 1.062 8.658-2.32-1.577-6.969-2.883-14.772-2.96-22.411 2.045 7.806 3.396 15.699 3.746 23.986.196 4.634 8.954 3.389 8.785-.607-.296-6.994-1.223-13.75-2.66-20.411 2.912 6.878 4.274 14.357 3.365 21.79-.541 4.427 8.292 3.285 8.774-.65.693-5.67.178-11.418-1.276-16.958 2.937 6.386 4.449 13.357 3.908 20.026-.313 3.855 8.432 2.332 8.698-.934.204-2.507.125-5.034-.154-7.553q.204.21.403.42c1.085 4.28 1.578 8.603 1.279 12.737-.056.777 3.497.654 6.069-.225.145.512.246 1.003.359 1.5.003.724.011 1.44.005 2.179-.094 12.136.414 20.273-2.007 35.53-.794 5.004-1.914 8.984-3.373 12.395 1.433 3.868 2.296 7.078 2.96 8.637 1.403 3.297 6.186-7.426 6.186-7.426 4.236 5.679 3.926 3.465 7.88-5.171 5.475-11.953 11.096-29.744 7.476-51.026" style="fill:#122a89"/></svg>