<svg xmlns="http://www.w3.org/2000/svg" xml:space="preserve" viewBox="0 0 215 220"><path d="M171.98 80.336c-1.275 1.54-5.276 3.46-8.829 5.039.379-3.791-.515-7.772-3.34-10.13-5.496-4.587-13.781-5.301-17.757-3.194-3.038 1.61-5.646 3.525-7.643 5.677-2.757-2.057-5.686-3.707-8.518-4.648-6.272-2.084-9.56-2.517-17.501-2.517-7.862 0-10.561.211-17.501 2.517-7.446 2.474-15.567 9.83-19.446 16.671a13.6 13.6 0 0 0-.848 1.82c-2.343 1.363-4.704 3.363-7.234 6.072-4.087 4.377-6.95 9.53-7.085 13.471-.044 1.281.38 2.705 1.059 3.271a34 34 0 0 0-1.596 1.827c-1.17 1.454-1.209 4.347-.017 5.878.493.633 1.079 1.023 1.684 1.178-.355.549-.701 1.11-1.026 1.693-.724 1.298-.489 3.457.467 4.755-.253.398-.522.778-.756 1.197-.663 1.188-.337 3.272.708 4.227.088.08.179.14.269.206l-.034.043c-.761 1.075-1.008 3.22-.469 4.359.363.768.911 1.068 1.471.883-.283.393-.57.774-.841 1.199-.634.994-.809 2.928-.326 3.93.189.391.427.64.688.745-.27.748-.326 1.743-.059 2.33.351.773.983.814 1.494.052.142-.212 1.314-1.684 1.606-1.973.3-.298.946-1.233 2.085-1.741.413-.184.88-.273 1.342-.328.811-.096 1.6-.049 2.011.042.541.12 1.183-1.001 1.26-2.01.091-1.191-.279-1.904-.858-2.033-.776-.172-1.577-.139-2.382.054a7 7 0 0 0-1.547.593c.383-.336.814-.666 1.358-.924.063-.03.133-.051.199-.079 1.527-.642 3.538-.591 4.391-.423.745.147 1.591-1.411 1.665-2.798.087-1.636-.441-2.602-1.24-2.76-1.509-.297-3.072-.067-4.616.616-.88.389-1.751.945-2.605 1.621.461-.481 1.305-1.448 2.634-2.148.179-.094.331-.204.528-.285 1.815-.741 4.32-.572 5.35-.332.864.2 1.882-1.493 2-3.033.139-1.817-.454-2.919-1.379-3.134-1.587-.368-3.237-.229-4.883.307 2.133-1.099 5.412-1.504 6.816-1.511 1.182-.006 1.994-1.837 1.681-3.319-.368-1.749-1.471-2.656-2.738-2.65-.426.002-.843.067-1.264.104 2.4-.779 5.158-1.09 6.511-1.096 1.459-.007 2.461-2.267 2.076-4.098a5.5 5.5 0 0 0-.5-1.424c.269.031.523.063.733.098 1.6.264 3.119-2.024 3.038-4.102a6.4 6.4 0 0 0-.131-1.041c.084-.029.163-.049.248-.08 4.303-1.577 7.368-3.909 15.903-.627 6.748 2.595 7.234 5.921 9.989 5.962.041.001.08-.045.118-.111.038.067.077.112.118.111 2.755-.041 3.24-3.367 9.989-5.962 8.535-3.282 11.6-.95 15.903.627.085.031.164.051.248.08a6.3 6.3 0 0 0-.131 1.041c-.08 2.077 1.439 4.366 3.038 4.102.21-.035.464-.067.733-.098a5.4 5.4 0 0 0-.5 1.424c-.385 1.831.617 4.091 2.076 4.098 1.352.007 4.11.318 6.511 1.096-.421-.038-.838-.102-1.264-.104-1.267-.006-2.369.901-2.738 2.65-.312 1.483.499 3.313 1.681 3.319 1.404.007 4.683.412 6.816 1.511-1.646-.535-3.296-.675-4.883-.307-.925.215-1.518 1.317-1.379 3.134.118 1.54 1.137 3.234 2 3.033 1.03-.239 3.535-.408 5.35.332.105.043.182.105.282.152 1.48.698 2.39 1.769 2.881 2.281-.932-.737-1.884-1.319-2.846-1.714-1.466-.602-2.945-.805-4.375-.523-.799.158-1.328 1.124-1.24 2.76.074 1.387.919 2.945 1.665 2.798.809-.16 2.66-.214 4.152.329.148.054.298.107.438.173.544.258.975.588 1.358.924-.594-.303-1.19-.537-1.785-.654a5.2 5.2 0 0 0-2.144.007c-.579.129-.949.842-.858 2.033.077 1.009.719 2.13 1.26 2.01.371-.082 1.05-.128 1.774-.069.536.044 1.095.139 1.579.355 1.139.508 1.784 1.443 2.085 1.741.292.289 1.464 1.761 1.606 1.973.511.762 1.142.721 1.494-.052.267-.587.211-1.582-.059-2.33.26-.105.499-.354.688-.745.483-1.002.308-2.936-.326-3.93-.271-.425-.558-.807-.841-1.199.56.185 1.107-.116 1.471-.883.539-1.139.292-3.284-.469-4.359l-.034-.043c.09-.065.182-.126.269-.206 1.044-.955 1.371-3.038.708-4.227-.234-.419-.503-.799-.756-1.197.956-1.297 1.191-3.457.467-4.755a31 31 0 0 0-1.026-1.693c.605-.156 1.19-.545 1.684-1.178 1.192-1.531 1.154-4.424-.017-5.878a34 34 0 0 0-1.596-1.827c.679-.565 1.103-1.989 1.059-3.271-.114-3.352-2.213-7.577-5.349-11.459 3.969-.735 8.759-1.513 10.798-.929 1.586.454 1.714.12-1.134-2.229-.679-.56-2.098-1.274-3.519-1.888 4.559-2.304 7.138-5.376 7.138-5.376 1.037-1.18 3.415-4.806 3.877-6.424 1.005-3.536.708-3.739-.34-2.473" style="fill:#122a89"/></svg>