<svg xmlns="http://www.w3.org/2000/svg" xml:space="preserve" viewBox="0 0 215 220"><path d="M182.292 109.484c-.041-.051-.111-.075-.169-.11-.009-.006-.008-.014-.017-.02L166.095 98.54c4.534-.761 8.783-3.086 11.466-6.924 2.297-3.284-1.681-3.001-4.1-3.167l-10.861-.746a22.5 22.5 0 0 0 4.131-3.742 20.3 20.3 0 0 0 2.44-3.534c.398-.736 1.363-2.214 1.234-3.078-.29-1.938-3.122-.901-4.221-.59l-7.201 2.037q.657-.7 1.294-1.415c1.05-1.177 2.494-2.522 3.172-3.967 1.615-3.445-4.849-1.545-6.221-1.212-3.993.97-7.871 1.778-12.01 1.361-2.475-.249-4.852-.987-7.318-1.283-.762-.092-1.529-.14-2.294-.195.497-.105.995-.203 1.491-.316 1.273-.29 3.899-.725 4.79-1.885 1.514-1.973-3.682-2.059-4.649-2.136-7.726-.616-16.508-.906-23.88 1.821-1.352.5-2.653 1.163-3.928 1.83-.323.169-.994.676-1.509.932-.069-.244-1.318-.696-1.401-.735a47 47 0 0 0-4.95-1.955 57.6 57.6 0 0 0-12.507-2.656c-3.401-.34-6.723-.043-10.084.606-1.703.329-3.382.763-5.081 1.106-2.218.448-4.565.669-6.684 1.513-.581.232-1.94.752-1.738 1.608.155.66 1.371.821 1.879.927 1.878.392 3.796.507 5.715.611-9.442 2.216-18.214 6.481-27.176 10.229-1.723.72-3.577 1.143-5.28 1.861-1.417.597-2.097 2.183-.215 2.684 2.865.762 6.701.267 9.603-.115a39 39 0 0 0 5.198-1.063 38.6 38.6 0 0 1-7.952 5.099 43 43 0 0 1-5.991 2.351c-1.969.609-4.203.774-6.105 1.518-.762.298-1.745.94-1.345 1.893.502 1.194 2.867 1.068 3.897 1.173 3.777.385 7.555.146 11.258-.594a25.5 25.5 0 0 1-7.027 6.185 30 30 0 0 1-5.169 2.441c-1.864.676-3.955.842-5.772 1.569-.707.283-1.688.92-1.403 1.837.349 1.125 2.294.945 3.135.982 3.49.156 6.957-.104 10.394-.647-1.768 2.217-3.109 4.562-4.26 7.233-.727 1.688-1.296 3.344-1.552 5.168-.105.749-.651 2.714.026 3.392 1.744 1.744 3.934-2.14 4.763-2.947 2.17-2.113 4.773-3.817 7.4-5.427a39 39 0 0 0-2.568 6.365c-.793 2.599-1.839 5.907-1.219 8.646.48 2.12 2.894 1.37 3.967.087.777-.929 1.279-2.135 1.887-3.175a42 42 0 0 1 1.62-2.53c.142.811.264 1.622.281 2.404.036 1.604-1.361 2.806-2.36 3.972-.76.888-3.277 2.942-3.29 4.283-.025 2.439 4.568.662 7.332-.636.716 2.475 1.596 4.763 2.863 7.041.746 1.342.619 2.933.745 4.452.093 1.121.07 2.826 1.322 3.284 1.113.407 2.94-.435 3.393-1.525.208-.501.023-1.454.05-2.03.025-.532.081-1.062.125-1.593.033-.404.051-.808.095-1.211.174-1.6.423-3.198.792-4.765.689-2.923 2.366-5.329 3.196-8.177.489-1.676.731-3.409.977-5.132.276-1.928.723-3.296 1.755-4.949.587-.939 1.133-1.903 1.689-2.86-.481 2.101-1.073 4.187-1.508 6.216-.469 2.186-2.523 8.376 1.909 7.232 2.224-.574 2.488-3.063 3.378-4.883a39.4 39.4 0 0 1 4.608-7.25c2.927-3.667 6.482-6.79 10.442-9.285-3.3 4.528-5.736 9.654-6.932 15.158-.365 1.679-1.93 6.177.229 7.028 2.601 1.026 3.945-1.782 4.993-3.523 5.642-9.374 12.369-17.353 22.166-22.437 2.545 1.796 5.347 3.174 7.792 5.141a34.5 34.5 0 0 1 5.67 5.783c1.284 1.663 2.386 3.438 3.418 5.266.548.971 1.121 2.507 2.267 2.877 4.299 1.39 3.124-5.346 2.438-8.213 1.678 3.577 3.143 7.344 5.496 10.538.992 1.347 1.978 2.704 3.797 2.036 1.208-.443 1.537-1.303 1.596-2.341.264.94.545 1.876.876 2.801 1.193 3.334 3.386 6.228 4.44 9.595.925 2.957.738 6.236 1.81 9.125.254.683.62 1.254 1.084 1.643.638.535 1.466.717 2.494.277 1.639-.702 2.047-2.713 2.487-4.256 1.724-6.05 4.148-11.787 5.288-17.949.7.534 1.419 1.042 2.099 1.602 1.154.952 2.228 2.371 3.455 3.182 1.408.931 3.557-.025 3.69-1.713.16-2.031-1.446-4.771-2.411-6.489-.861-1.533-1.794-3.025-2.729-4.515 1.896.724 3.89 1.13 6.078 1.138 1.369.005 8.399.646 8.192-1.978-.048-.614-.809-.935-1.245-1.226a37 37 0 0 1-3.507-2.635c-1.627-1.392-3.105-2.941-4.46-4.597-1.332-1.628-2.558-3.332-3.82-5.008 2.597 1.14 5.27 2.103 8.026 2.823 1.634.427 3.764 1.296 5.449.678 1.108-.41 1.929-1.433 1.088-2.486M68.227 71.011c.023-.002.009.018.016.025-.03-.013-.041-.023-.016-.025m17.397 61.49c.081-.047.116-.119.177-.178a.8.8 0 0 1-.177.178m91.093-22.942a50 50 0 0 1-4.551-1.504c-2.787-1.071-5.457-2.388-8.033-3.894-.596-.348-3.193.391-2.414 1.228 4.294 4.618 7.307 10.197 12.242 14.24a38 38 0 0 0 2.458 1.843q.43.304.871.592 1.588.184.243.15c-1.28.093-2.591.105-3.873.101-3.672-.013-6.655-1.358-9.637-3.429-.497-.345-2.976.25-2.515 1.055 1.44 2.512 3.032 4.926 4.512 7.413.32.537 1.882 3.365 2.57 5.353-.537-.559-1.05-1.125-1.502-1.497a80 80 0 0 0-4.413-3.367c-.617-.441-2.583-.254-2.701.724-.391 3.233-.94 6.474-2.037 9.552-.964 2.707-2.104 5.271-2.87 8.057-.327 1.189-.621 2.39-.985 3.569-.054.176-.137.371-.219.568-.179-.467-.286-.963-.388-1.449-.259-1.237-.378-2.503-.575-3.751-.511-3.246-1.584-5.907-3.137-8.777-1.279-2.362-2.293-4.836-2.99-7.43-.693-2.579-1.241-5.181-1.954-7.727 2.35 4.341 4.45 8.832 6.289 13.511-2.144-12.242-8.898-23.854-18.46-31.789a121 121 0 0 1 7.702 10.697c-.684.153-1.295.556-1.197 1.103a188 188 0 0 1 1.403 9.101c.053.409.538 3.417.698 5.31-1.01-1.299-1.815-3.06-2.382-4.166-1.156-2.257-2.148-4.594-3.242-6.88-2.471-5.164-5.5-9.906-9.843-13.702-.65-.568-3.322.133-2.601 1.098 2.798 3.744 4.925 7.509 6.324 11.992.543 1.74 1.061 3.536 1.282 5.351.023.19.033.388.051.583-1.441-2.464-2.946-4.848-4.86-7.003a34.7 34.7 0 0 0-5.497-4.981c-2.343-1.711-4.993-2.933-7.291-4.701-.498-.383-1.32-.29-1.855-.03-7.962 3.876-14.837 9.627-19.985 16.833-1.599 2.238-3.071 4.564-4.493 6.917-.14.231-.472.943-.782 1.476.15-.434.122-.955.175-1.401q.278-2.313.837-4.576c1.533-6.204 4.637-11.82 8.806-16.636.793-.916-1.503-.784-1.859-.61-8.886 4.342-16.54 11.259-20.862 20.251-.063.132-.241.456-.442.836.259-1.805.663-3.592 1.061-5.371.777-3.478 1.982-7.161 1.991-10.753.003-1.168-2.345-.511-2.705.143-1.476 2.684-2.944 5.374-4.527 7.997-.643 1.065-1.61 2.169-2.105 3.305-.506 1.161-.467 2.694-.651 3.949-.456 3.111-1.317 5.626-2.687 8.442-.946 1.944-1.44 4.102-1.797 6.232-.023-.191-.054-.382-.076-.573a93.6 93.6 0 0 1 6.21-30.258c-3.321 5.297-5.574 11.314-6.696 17.538a88 88 0 0 1 1.817-15.062c-3.746 8.012-4.633 17.49-2.594 26.154q.019.397.043.794c-1.018-2.078-1.762-4.186-2.372-6.494-.222-.839-1.831-.292-2.27-.043-1.005.568-2.028 1.117-3.11 1.528-.364.138-.872.4-1.272.41-.196.005-.29.033-.331.054a.3.3 0 0 0 .069-.163c.18-.951 1.964-2.403 2.557-3.089.907-1.05 2.886-2.7 3.173-4.048.143-.673-.24-1.78-.397-2.543.301-8.521 2.87-16.466 7.683-23.624-5.529 4.653-8.703 12.112-8.676 19.408-.709-.122-1.996.503-2.24.798-1.679 2.029-3.076 4.196-4.388 6.462-.005-.071-.017-.154-.015-.214.018-.63.069-1.263.16-1.886.681-4.674 2.531-9.346 5.039-13.32.725-1.148-1.773-.697-2.174-.45-2.997 1.848-6.01 3.686-8.839 5.786a30 30 0 0 0-2.504 2.069c.063-.483.107-.969.205-1.439.318-1.521.953-2.99 1.585-4.403 1.25-2.797 2.726-5.137 4.764-7.429.744-.836-1.19-.795-1.493-.735-4.087.809-8.04.815-12.175.834-1.96.009-.388-.064.141-.183a37.6 37.6 0 0 0 6.645-2.175c5.085-2.224 9.63-5.629 12.773-10.239.601-.882-1.079-.845-1.493-.735-4.217 1.121-8.451 1.347-12.78.891a12.6 12.6 0 0 0-2.035-.189q.555-.108 1.108-.223a51 51 0 0 0 2.16-.507 52 52 0 0 0 4.55-1.413c5.833-2.098 11.266-5.32 15.697-9.673 1.105-1.085-1.111-1.024-1.678-.811a35.1 35.1 0 0 1-13.019 2.251c-.682-.011-1.362-.065-2.043-.09-.444-.017-1.786.315-.99-.116 1.189-.644 2.76-.913 4.028-1.426 1.713-.692 3.402-1.445 5.091-2.194 8.844-3.923 17.834-7.921 27.521-9.146.57-.072 2.572-1.31 1.047-1.542-2.959-.451-5.936-.429-8.9-.776-.526-.062-1.163-.26-1.732-.32 3.269-.911 6.804-1.506 10.143-2.126 2.673-.496 5.341-.749 8.049-.513 3.582.312 7.15 1.021 10.597 2.034A45 45 0 0 1 105 73.293c1.85.904 2.414 1.03 4.195.028 3.015-1.697 5.785-2.943 9.2-3.533 3.873-.669 7.835-.799 11.758-.732 2.684.046 5.501.055 8.156.518.46.08.735.236.972.153-.695.408-2.277.571-2.908.706-2.326.497-4.648.928-6.947 1.554-.633.173-1.934 1.151-.668 1.467 1.792.448 4.067.071 5.92.213 2.319.177 4.483.744 6.761 1.14 3.634.631 7.322.63 10.951-.021 1.062-.19 8.232-2.217 8.443-1.645.263.713-2.17 3.04-2.596 3.53-1.055 1.213-2.15 2.415-3.348 3.49-.977.876.713 1.106 1.312.936l6.374-1.803 3.187-.902c1.363-.386 2.121-.852 1.33.883-1.669 3.661-4.451 6.611-7.887 8.671-.819.491-.56 1.155.326 1.216l8.131.559 3.852.265c.794.055 3.882-.244 3.789 1.038-.055.763-1.53 2.006-2.026 2.486a13.5 13.5 0 0 1-2.489 1.906c-2.139 1.271-4.531 1.848-7.01 1.829-.539-.004-2.776.721-1.658 1.477l17.222 11.632c-.919-.23-1.871-.586-2.625-.795" style="fill:#122a89"/><path d="M73.993 112.148c5.885-6.633 12.799-11.575 20.9-15.028-5.314 2.74-9.753 7.31-11.97 12.76 5.75-7.319 13.087-12.5 21.898-15.496-3.019.139-6.009.919-8.797 2.191-9.221 1.036-17.982 7.229-22.031 15.573" style="fill:#122a89"/><path d="M66.893 106.703c8.309-6.697 18.287-10.176 28.957-10.125-10.364-2.677-22.514 1.581-28.957 10.125m87.954 32.842c.968-8.859-2.433-18.327-8.796-24.562 4.386 7.785 7.234 15.765 8.796 24.562m-3.927-24.797c2.734 5.523 4.3 10.801 5.051 16.917 1.817-5.882-.315-12.99-5.051-16.917m-8.529-24.388c4.093.369 8.242-.128 12.004-1.613-10.09 1.184-19.85-.785-28.679-5.815 4.135 4.052 9.78 6.579 15.622 7.323 4.1 4.632 7.229 9.445 9.848 15.137-.286-5.951-3.78-11.776-8.795-15.032M90.419 75.497c5.096 2.622 9.326 6.082 12.773 10.381-8.845-7.159-22.031-9.228-32.449-4.691 11.707-2.381 23.658-.123 33.652 6.277a42 42 0 0 1 2.59 4.01c-1.472-7.929-8.593-14.784-16.566-15.977m18.403 6.756c4.077-6.018 10.562-8.957 17.776-8.082-6.579-3.705-16.237.696-17.776 8.082" style="fill:#122a89"/><path d="M110.215 86.678c2.681-4.11 6.232-6.487 11.047-7.428-4.809-1.892-10.981 2.303-11.047 7.428" style="fill:#122a89"/></svg>