<svg xmlns="http://www.w3.org/2000/svg" xml:space="preserve" viewBox="0 0 215 220"><path d="M65.063 134.175c-2.489 2.842-2.071 7.037-1.335 10.544.554 2.636 1.246 5.393.636 8.082a8.13 8.13 0 0 1-3.994 5.296c-.571.316-.329.576.175.653.697.105 1.61-.261 2.207-.591 1.826-1.011 3.356-2.54 4.203-4.465.612-1.39.787-2.868.74-4.354-.607-2.148-1.124-4.505-1.546-7.161a172 172 0 0 1-1.086-8.004m111.366 18.05c-1.692-4.052-5.133-6.827-9.132-8.108 2.266-4.082 2.446-9.274-.406-13.312-2.479-3.51-6.692-5.194-10.989-5.285a19 19 0 0 0-3.504.264c-.243 4.752-.74 9.932-1.765 16.394-1.945 12.256-5.84 18.391-11.908 24.993 2.145 3.924 4.992 7.54 8.961 9.623 5.106 2.679 11.573 2.927 16.461-.966 2.68-2.134 4.057-5.415 3.851-8.479 2.31-.276 4.55-.995 6.383-2.56 3.785-3.229 3.755-8.476 2.048-12.564M135.31 79.964a66 66 0 0 0-2.578-6.454c1.305 1.096 2.528 2.259 3.592 3.476 4.84 10.412 6.51 22.729 5.621 33.566-.147 1.795 5.1.739 5.225-.776a74.4 74.4 0 0 0-.953-19.264c.131.241.283.497.37.707 6.45 15.527 3.532 35.703 5.841 33.991.109-.081.226-.194.36-.376 6.074-8.232 9.727-19.714 8.992-32.707-.58-10.252-2.614-18.492-7.624-26.717-5.707-9.37-10.345-12.098-16.8-16.523-3.901-2.674-20.947-11.353-34.492-5.905l-.009.003c-5.909-.545-13.668 1.556-16.909 3.148-16.45 8.078-25.638 20.613-29.191 33.508-1.603 5.818-3.323 18.291.489 28.913 1.676 4.67 4.401 11.924 6.929 15.792.197-3.329-1.314-13.524-.013-21.793.113-.721.241-1.433.4-2.119.878-3.778 2.225-7.112 4.011-10.452-1.511 7.618-1.621 15.606-.754 23.266.154 1.364 5.447.277 5.256-1.408-1.413-12.494-.182-25.879 5.668-36.978a51 51 0 0 1 3.286-3.972 37 37 0 0 0-3.162 6.889c-3.538 10.441-3.288 21.875-2.541 32.731.146 2.122 5.417.931 5.256-1.408-1.094-15.911-.743-35.764 12.659-46.106-.084.107-.172.211-.255.318-2.968 3.809-4.398 7.58-5.637 12.216-3.028 11.337-4.302 22.916-2.42 34.563.157.972 5.459-.154 5.256-1.408-1.769-10.948-.788-21.851 1.934-32.558 1.051-4.132 2.057-8.031 4.458-11.592.135-.2.282-.409.423-.615a64 64 0 0 0-.632 2.21c-1.21 4.527-1.922 9.198-2.333 13.862-.779 8.851-1.013 19.028 2.597 27.35.519 1.196 5.63-.547 5.256-1.408-3.538-8.156-3.359-18.094-2.646-26.777.393-4.789 1.102-9.578 2.365-14.219.415-1.525.897-3.083 1.49-4.593l.107-.018c-.296 1.995-.354 4.033-.416 6.04-.129 4.19-.173 8.383-.318 12.573-.323 9.323-.41 18.985 2.875 27.867.797 2.155 6.022.662 5.256-1.408-3.288-8.89-3.113-18.428-2.808-27.75.143-4.373-.096-8.993.197-13.484 1.53 5.837 2.958 11.703 3.878 17.669 1.254 8.126 1.442 16.327.993 24.527-.03.557 5.178.018 5.256-1.408.449-8.2.261-16.401-.993-24.527-.877-5.686-2.214-11.282-3.662-16.847 3.388 5.683 5.986 11.861 7.823 18.182 2.562 8.817 3.917 18.615 1.041 27.526-.69 2.138 4.64 1.495 5.292-.524 2.949-9.135 1.543-19.371-1.077-28.41-1.407-4.855-3.265-9.658-5.574-14.226l.679.418c3.335 4.676 5.811 10 7.606 15.426 2.877 8.696 4.234 18.057 3.462 27.205-.051.608 5.129.105 5.256-1.408.793-9.358-.637-18.942-3.658-27.804" style="fill:#122a89"/></svg>