<svg xmlns="http://www.w3.org/2000/svg" xml:space="preserve" viewBox="0 0 215 220"><path d="M167.588 124.514c1.462-2.969 2.622-6.239 3.556-9.411 2.021-6.87.382-13.182-2.269-19.612-1.248-3.027-2.914-6.484-2.416-9.849.357-2.411.942-4.659.852-7.125-.164-4.494-2.196-8.411-5.215-11.666-1.831-1.974-3.921-3.696-6.061-5.322-2.128-1.616-4.529-2.975-6.37-4.927-3.833-4.063-7.202-7.915-12.456-10.162-4.936-2.111-10.382-3.156-15.741-3.275-5.459-.122-10.562 1.616-15.968 1.959-4.092.26-8.054-.686-12.101-1.082-4.783-.468-10.298-.762-14.763 1.334-3.77 1.77-6.512 5.2-10.092 7.314-5.25 3.101-11.007 4.587-15.278 9.219-2.763 2.996-4.467 6.637-5.476 10.557-1.284 4.99-1.745 9.92-1.323 15.059.208 2.53.524 5.101.055 7.621-.525 2.824-2.304 5.102-3.321 7.745-2.005 5.214-1.368 10.617 1.323 15.457 2.479 4.459 8.225 8.226 7.428 13.923-.445 3.181-3.148 4.752-5.697 6.197-1.618.917-1.815 2.084.323 2.279 2.286.208 4.802-.368 7.16-1.391-.026 6.263-1.633 12.274-7.379 15.092-.054.027-.084.062-.129.092-.04.026-.095.052-.13.077s-.053.051-.086.077c-1.321 1.027-.242 2.024 1.038 2.581 1.901.827 4.267.834 6.173.049a13 13 0 0 0 2.081-1.115c-.386 2.021-.24 4.112.552 6.122 1.092 2.773 3.258 5.679 5.948 7.38-1.107 1.697-2.815 3.023-5.236 3.74-.066.02-.109.047-.169.069-.066.019-.134.028-.198.054-1.248.505-1.999 1.322-.544 2.129 1.9 1.054 4.467 1.182 6.581 1.128 2.954-.076 6.052-.909 8.417-2.721a10 10 0 0 0 2.008-2.029c.078-.106.132-.217.205-.324a38 38 0 0 1-.675-1.077q-.393-.645-.76-1.312c-2.134-3.858-3.623-8.278-4.659-14.241-.067-.383-.137-.754-.2-1.15l-.022-.144c-.062-.393-.118-.772-.176-1.155a181 181 0 0 1-.51-3.597 154 154 0 0 1-.549-4.782l-.053-.532q-.057-.6-.106-1.185a142 142 0 0 1-.372-5.879c.155.175.313.336.471.501.775.809 1.586 1.474 2.408 1.883 1.369.681 2.761.651 4.036-.726.131-.141.362-.416.267-.643a58 58 0 0 1-1.585-4.264c-.931-2.853-1.61-5.804-1.799-8.769-.115-1.798-.001-3.488.762-5.128.44-.945.764-1.98 1.538-2.679.633-.571 1.333-1.082 2.013-1.614 7.546.159 14.132-3.314 18.505-9.179 1.754 4.278 4.916 7.618 9.466 9.278 2.635.961 5.283.882 7.925-.066 1.147-.411 4.448-1.994 2.384-3.28-1.185-.738-2.728-.929-3.963-1.678a12.2 12.2 0 0 1-3.118-2.728c-1.659-2.028-2.612-4.505-3.125-7.053-.562-2.788-.538-5.558-.27-8.319 1.2 4.897 3.371 9.532 6.874 13.25 2.418 2.566 6.091 6.01 9.703 6.689 3.672.69 7.411.586 10.775-.978 4.308 4.004 10.17 5.888 15.994 4.708.987.665 2.071 1.192 3.016 1.883 1.113.813 1.063 2.32 1.152 3.628a25.4 25.4 0 0 1-.483 6.917c-.408 1.943-1.11 3.728-1.862 5.511-.358.848-.723 1.696-1.082 2.559-.614 1.476-.352 2.405 1.459 2.279.691-.048 1.321-.221 1.926-.444a8.5 8.5 0 0 0 2.337-1.319c.201-.159.388-.339.579-.512-.075 1.752-.17 3.538-.324 5.437a155 155 0 0 1-.347 3.694q-.125 1.155-.274 2.366a187 187 0 0 1-.834 5.93l-.022.143a80 80 0 0 1-.301 1.734c-1.008 5.546-2.427 9.738-4.42 13.411a37 37 0 0 1-1.732 2.866 9.7 9.7 0 0 0 2.207 2.361c1.816 1.388 4.091 2.196 6.522 2.358 2.38.159 4.924-.05 7.176-.879.979-.361 3.542-1.511 1.52-2.329-2.593-.768-4.715-2.12-6.086-4.049 1.871-1.389 3.46-3.28 4.569-5.059 1.425-2.286 2.189-4.892 2.018-7.512.258.153.503.322.774.458 2.095 1.051 4.597.963 6.733.019 1.29-.57 2.944-1.839 1.801-3.029-.045-.109-.135-.212-.315-.3-4.12-2.021-6.157-5.771-7.041-10.003 1.597.507 3.258.821 4.899.755 1.441-.058 4.579-1.108 2.055-2.46-2.516-1.165-5.215-2.77-6.093-5.582-.602-1.929-.147-3.975.596-5.797.918-2.255 2.345-4.253 3.416-6.429m-110.887 27.9c-.021.037-.036.077-.057.114-.515.716-1.078 1.397-1.733 1.992-.715.65-1.61 1.403-2.527 1.746-.932.349-1.89.198-2.782-.136-.122-.046-1.737-.749-1.326-1.161 4.048-2.081 6.273-5.721 7.361-9.828q.379.852.778 1.669a88 88 0 0 0 1.683 3.231q-.198.427-.42.842a18 18 0 0 0-.977 1.531m-.202-14.51c1.629-1.025 3.082-2.237 4.162-3.535q.462-.559.831-1.161a146 146 0 0 0 .586 10.49 150 150 0 0 0 .196 1.98l-.012.013a117 117 0 0 0-1.922 1.992q-.145.155-.288.312a68 68 0 0 1-.725-1.387c-1.406-2.764-2.537-5.606-2.827-8.694zm3.54 26.296c-1.317-2.011-2.197-4.312-2.173-6.74.017-1.811.533-3.425 1.305-4.921.046-.088.082-.181.129-.269.255-.47.542-.924.845-1.37.154-.227.304-.456.468-.678.124-.167.259-.329.388-.493q.728-.929 1.529-1.808.178 1.478.398 3.05.219 1.572.483 3.248l.02.128.019.128c.085.539.18 1.049.273 1.566q-.307.471-.582.961a13 13 0 0 0-.869 1.871c-.224.61-.408 1.236-.516 1.888a9.1 9.1 0 0 0 .468 4.728c.203.538.462 1.051.745 1.551.206.362.42.72.659 1.061.023.033.065.082.098.122l-.338-.262c-.181-.141-.348-.299-.52-.45-1.097-.96-2.032-2.094-2.829-3.311m6.05 1.001a40 40 0 0 0 1.257 3.065c-.497-.573-1.065-1.114-1.31-1.508-.054-.087-.089-.177-.141-.264q.134-.64.194-1.293m1.823 5.318a.87.87 0 0 0 .269-.535 39 39 0 0 0 1.057 1.921c.131.221.271.434.406.652-1.272 1.462-2.989 2.375-4.925 2.68-1.385.218-2.896.163-4.273-.061-.963-.156-2.231-.902-3.124-.582 2.46-.774 4.848-1.954 6.521-3.892.152.054.298.129.452.175.982.287 2.781.434 3.617-.358m80.412-1.821a41 41 0 0 0 1.396-3.361 11 11 0 0 0 .203 1.577c-.121.193-.223.396-.353.583-.416.599-1.085 1.168-1.542 1.793.097-.198.201-.39.296-.592m9.661 5.984c.627.254-2.089.682-2.398.709-1.106.096-2.249.091-3.348-.081-1.995-.311-3.912-1.137-5.382-2.538-.167-.159-.308-.337-.46-.507.074-.121.153-.239.225-.361q.516-.874.989-1.784c-.326 1.201 1.007 1.436 2.043 1.308.714-.089 1.404-.31 2.078-.586 1.544 1.892 3.81 3.116 6.253 3.84m-1.893-10.516c-.802 1.285-1.777 2.48-2.931 3.464a12 12 0 0 1-1.083.828c-.047.031-.107.054-.158.082a4 4 0 0 1-.257.134q.099-.142.194-.288c.28-.433.531-.877.696-1.14.122-.194.219-.389.325-.583 1.552-2.829 1.564-5.645.647-8.295-.192-.554-.427-1.1-.693-1.638a17 17 0 0 0-.615-1.135c.03-.172.061-.341.09-.516.034-.205.072-.396.105-.604.334-2.105.608-4.068.841-5.937a33 33 0 0 1 1.603 1.848q.304.385.591.783l.073.099q.373.52.705 1.068.21.35.399.712c.314.593.596 1.205.812 1.856 1.058 3.201.417 6.438-1.344 9.262m-2.444-19.102c.047-.458.094-.919.136-1.366.12-1.296.218-2.545.298-3.761.036-.548.057-1.068.086-1.603 1.117 1.567 2.703 2.877 4.513 3.925-.494 1.539-1.155 3.074-1.92 4.588a65 65 0 0 1-.506.98 53 53 0 0 0-1.022-1.109q-.792-.832-1.585-1.654m13.915 10.453c.341.243-1.162.603-1.052.574-1.032.272-1.785.21-2.782-.245-.81-.37-1.578-.921-2.261-1.483a13 13 0 0 1-2.114-2.23 17 17 0 0 0-1.316-2.114c-.052-.101-.115-.197-.165-.3-.039-.079-.069-.162-.107-.241.788-1.437 1.575-2.908 2.274-4.414 1.001 4.385 3.204 8.335 7.523 10.453m-5.818-16.057c1.016 1.496 2.497 2.579 4.076 3.447a25 25 0 0 1-2.307-.776c-2.016-.777-4.053-1.953-5.612-3.458-2.036-1.967-2.887-4.419-2.492-7.152 4.743-3.585 7.161-10.526 4.875-16.027.103 5.666-1.852 10.819-5.487 14.844-.732.01-1.803.469-2.029.767-.831 1.092-1.62 2.224-2.495 3.282-.449.543-.93 1.108-1.476 1.562q-.582.528-1.296.854c-.082.01-.127.019-.199.029.009-.025.009-.055.025-.076.24-.327.389-.918.559-1.287 1.502-3.269 2.725-6.591 3.077-10.201.236-2.415.214-5.006-.289-7.388-.283-1.343-1.2-1.353-2.346-1.997-.915-.514-1.958-1.605-3.003-1.748-1.305-.179-2.897.476-4.263.445a15.4 15.4 0 0 1-4.152-.661c-2.726-.835-5.035-2.492-7.004-4.517a.9.9 0 0 0-.289-.186c2.613 1.391 5.499 2.229 8.456 2.316-9.163-1.939-16.847-8.971-19.574-17.934.775 6.561 5.224 12.458 11.052 15.585-.37-.13-.837-.069-1.242.064-8.977-3.026-16.539-9.583-20.706-18.112 2.724 9.137 10.99 16.479 20.35 18.261-.075.036-.163.068-.225.106-7.134 4.4-15.181-1.58-19.356-7.296-4.332-5.931-6.055-13.15-6.055-20.382 0-1.23-2.654-.662-2.808.323-1.355 8.635-4.211 19.297 2.152 26.782 1.305 1.536 2.983 2.767 4.819 3.594.406.183 1.306.316 1.631.627.634.605.337.443-.293.819-1.532.916-3.857.34-5.352-.247-4.851-1.905-7.836-5.985-9.128-10.917-.211-.805-1.565-.515-2.292-.057 1.329-3.791 1.255-8.117-.542-11.637 1.162 5.525.239 11.11-2.539 15.907-2.215 2.684-4.989 4.817-8.461 5.843-1.458.43-2.969.646-4.484.717-1.146.054-2.352-.242-3.391.361-.494.286-.894.774-1.339 1.136-.605.491-1.655.978-2.175 1.562-.784.88-1.26 2.386-1.725 3.487-1.026 2.432-.904 5.344-.37 8.18-3.042-4.417-7.623-8.501-7.291-13.956-2.816 8.694 7.781 13.749 9.122 21.502a20 20 0 0 1-.581-.547c-1.76-2.068-3.216-4.399-4.559-6.751-.154-.27-.552-.352-.995-.313-7.366-5.98-8.934-17.14-3.165-24.886-8.109 6.513-6.32 20.282 2.536 25.022-.565.184-1.061.52-1.077.901-.246 5.804-6.211 8.711-11.199 9.751-.103.022-.155.039-.223.058.087-.036.179-.074.312-.143.618-.322 1.21-.703 1.774-1.11.871-.628 1.681-1.327 2.365-2.159 1.175-1.428 1.828-3.136 1.789-4.99-.111-5.278-4.533-8.215-7.075-12.373-2.97-4.858-3.832-10.358-1.745-15.74.928-2.395 2.519-4.453 3.149-6.968a13.4 13.4 0 0 0 .321-1.981A38.48 38.48 0 0 1 73.59 74.07c-10.184.526-19.739 7.628-24.035 16.907a46 46 0 0 0-.099-1.93c-.386-5.268-.391-10.12.762-15.306.827-3.718 2.084-7.322 4.488-10.334 3.801-4.764 9.294-6.361 14.447-9.145 3.664-1.979 6.36-5.115 9.877-7.223 4.038-2.421 9.811-1.734 14.289-1.21 3.701.433 7.291 1.158 11.039.992 5.138-.229 10.045-1.984 15.193-1.984 5.33-.001 10.828.982 15.721 3.132 5.059 2.223 8.226 6.058 11.961 9.929 1.638 1.697 3.703 2.895 5.588 4.293 2.22 1.646 4.391 3.398 6.309 5.394 2.986 3.106 5.099 6.816 5.357 11.187.04.679.016 1.34-.037 1.994-1.529-4.455-4.577-8.443-8.559-10.821 3.506 4.385 6.131 8.931 8.102 13.988a66 66 0 0 0-.343 2.034c-.411 2.786.552 5.57 1.55 8.129 2.515 6.45 5.125 12.439 3.596 19.518-.65 3.012-1.82 6.096-2.994 8.946-1.039 2.522-2.579 4.751-3.769 7.192-1.508 3.093-2.366 6.649-.288 9.708" style="fill:#122a89"/><path d="M128.756 91.111c2.703 7.404 7.637 14.05 13.845 19.068-9.832-2.152-18.234-9.287-21.908-18.667 2.157 10.063 11.706 18.178 21.979 18.724 4.305 3.466 9.213 6.157 14.435 7.749-11.82-6.277-21.459-15.401-28.351-26.874M87.162 94.49c-3.783 7.019-10.239 12.023-17.903 14.526 8.3-.505 15.957-6.318 19.144-13.954 1.025-2.485 1.53-5.797-.254-8.038 1.079 2.521.179 5.176-.987 7.466m49.171-29.359c3.959 4.113 4.705 9.941 7.424 14.815 1.085 1.587 2.609 3.026 4.48 3.452-1.717-.804-2.949-2.26-3.737-3.887-2.193-5.225-2.637-11.106-6.821-15.507-4.915-5.885-12.65-9.53-20.337-8.877 7.39.721 14.286 4.342 18.991 10.004m6.485-1.47c-.613 8.826 7.444 17.576 16.346 17.619-8.199-2.754-14.221-9.232-16.346-17.619M56.365 78.047c6.646-3.977 13.395-6.523 21.006-7.956-7.645-1.119-16.015 2.061-21.006 7.956m25.723-11.513c-6.169-2.89-14.516-.88-18.709 4.482 5.89-3.345 11.944-4.786 18.709-4.482m79.21 38.364c3.643 7.911 3.182 16.745-1.24 24.245 6.682-5.858 7.281-17.733 1.24-24.245m-51.272-21.501c-1.431 6.808 2.28 14.604 8.475 17.774-5.169-4.588-8.17-10.868-8.475-17.774" style="fill:#122a89"/></svg>