<svg xmlns="http://www.w3.org/2000/svg" xml:space="preserve" viewBox="0 0 215 220"><path d="M175.692 168.02c-4.873-.827-8.118-3.309-10.22-6.6 8.073-5.274 7.477-11.912 4.622-17.555-1.838-3.632-4.108-7.124-5.347-10.899a31 31 0 0 1-.794-2.932c.804-7.94.405-15.65-5.69-21.437-.324-.308-.97-.396-1.764-.343.68-1.33 1.317-2.664 1.861-4.021.991.269 1.989.51 3.003.69.825.146 2.098-.099 2.701-.724.519-.537.518-1.084-.331-1.235a33 33 0 0 1-4.482-1.146c1.765-5.296 2.504-11.004 2.115-17.887-.426-7.536-1.651-13.982-4.253-20.137 2.969 1.943 5.303 4.584 5.835 8.366.143 1.015.71.951 1.259.279.664-.814.89-2.451.747-3.469-.746-5.301-4.312-8.805-8.641-11.16 3.264.128 6.402-.951 8.796-4.104.739-.973 1.025-2.759.967-4.051-.029-.642-.32-2.408-1.08-1.407-1.003 1.322-2.169 2.206-3.427 2.778-.04-.147-.072-.299-.138-.431-1.531-3.056-4.425-4.742-7.627-5.6.312-1.135.568-2.298.713-3.503.713-5.919-.075-13.485-5.493-17.001-5.733-3.72-12.894-2.236-18.362 1.216-3.535 2.231-6.384 5.267-8.913 8.585-6.095-1.516-13.062-2.015-19.298.494l-.009.003c-5.909-.545-13.668 1.556-16.909 3.148-16.45 8.078-25.638 20.613-29.191 33.508-1.603 5.818-3.323 18.291.489 28.913.131.366.272.785.416 1.225-1.044.328-2.105.534-3.176.555-2.832.054-3.976 3.614-.5 3.549 1.602-.03 3.174-.353 4.702-.855.345 1.109.71 2.272 1.088 3.414-.751-.04-1.357.055-1.669.352-6.095 5.787-6.494 13.496-5.69 21.436a31 31 0 0 1-.794 2.932c-1.239 3.775-3.509 7.267-5.347 10.899-2.855 5.643-3.451 12.281 4.622 17.555-2.102 3.291-5.348 5.773-10.22 6.6-2.026.344.319 1.94 1.228 2.417 1.83.96 4.637 1.79 6.607 1.456 5.907-1.003 9.701-4.091 12.038-8.111 1.705 5.861.204 11.932-11.842 12.141-2.315.04.781 1.326 1.952 1.73 2.357.813 5.811 1.455 8.088 1.591 3.319.198 5.952-.199 7.999-1.006 2.136 3.468 5.826 6.555 11.771 8.711 2.258.819 5.741.871 8.096.548 1.17-.16 4.262-.887 1.939-1.729-14.604-5.297-13.874-17.203-10.642-25.292.152-.38.317-.762.478-1.143-2.989-3.219-5.463-6.304-7.447-10.003-.986 2.535-2.213 5.054-3.337 7.539-3.301-5.978-5.978-11.944.125-15.614a52 52 0 0 1-.299-1.094c-1.03-.526-2.902-1.147-4.817-1.635-1.158-7.87-2.298-15.948 1.308-22.403.084.017.169.035.253.025.055-.018.093-.056.142-.082 1.405-.724.361-4.506-.156-7.964-.202-1.351-.324-2.652-.181-3.694.028-.202.112-.448.177-.68.153-.543.37-1.137.708-1.829.271-.16.545-.318.811-.479 4.565-2.768 8.696-6.226 12.628-9.819 3.789-3.462 7.388-7.151 10.716-11.059 3.136-3.683 5.578-7.852 8.674-11.556 2.704-3.236 5.853-6.329 9.388-8.797-3.761 4.912-6.652 10.708-9.748 15.767-5.064 8.274-11.359 18.257-21.563 20.396-.757.159-2.479.936-2.202 1.968.29 1.083 2.178.752 2.891.603 17.43-3.654 24.663-22.493 33.502-35.744q.25-.374.506-.751c-.383 2.119-.943 4.217-1.497 6.238-1.34 4.888-3.042 9.705-5.174 14.305-2.897 6.251-7.56 11.38-14.611 12.643-.513.092-3.003.607-3 1.333.003.81 1.498.485 2.012.393 8.677-1.554 15.973-6.042 19.988-14.012 2.347-4.659 4.108-9.664 5.538-14.673.368-1.288.739-2.616 1.078-3.963 4.997 8.637 11.424 16.532 18.585 23.392 4.728 4.529 10.11 9.01 16.039 12.284 2.667 8.642-1.092 21.18 2.368 16.268.244-.346.458-.685.693-1.029l.031-.047c4.005 6.544 2.845 14.862 1.653 22.963-1.916.488-3.787 1.11-4.817 1.636q-.146.557-.299 1.094c6.103 3.67 3.426 9.636.125 15.614-1.124-2.485-2.351-5.004-3.337-7.539-1.984 3.7-4.459 6.784-7.447 10.003.161.381.326.764.478 1.143 3.231 8.089 3.962 19.995-10.642 25.292-2.323.842.769 1.569 1.939 1.729 2.355.323 5.839.271 8.096-.548 5.945-2.156 9.635-5.243 11.771-8.711 2.047.808 4.68 1.205 7.999 1.006 2.278-.136 5.731-.779 8.088-1.591 1.171-.404 4.267-1.69 1.952-1.73-12.045-.209-13.547-6.28-11.842-12.141 2.337 4.02 6.13 7.107 12.038 8.111 1.969.334 4.777-.496 6.607-1.456.908-.475 3.252-2.071 1.226-2.415M52.317 157.595c-1.602-3.164-.967-6.558.334-9.687.285.918.664 1.857 1.093 2.806-.204 2.362-.656 4.704-1.427 6.881m45.74-95.24c-4.278 3.946-7.306 8.591-10.762 13.195-4.995 6.654-11.032 12.842-17.571 18.107 2.506-3.492 5.535-7.481 8.651-11.682C86.6 70.881 92.137 63.77 101.023 59.819a56 56 0 0 0-2.966 2.536m41.761-27.136c1.064.195 2.138.496 3.119.963.578.275 1.213.631 1.642 1.119.038.044.097.144.156.241a4 4 0 0 1-.309.344c-.777.721-1.783 1.174-2.782 1.468-2.569.756-5.112.461-7.559-.34a54 54 0 0 0-4.059-1.937c2.908-1.777 6.447-2.471 9.792-1.858m-3.769 50.951c-5.717-5.547-10.963-11.755-15.354-18.478 3.425 3.226 7.653 7.525 13.799 13.954 5.574 5.831 9.134 9.962 11.33 12.938-3.517-2.596-6.788-5.515-9.775-8.414m13.889-41.827a28 28 0 0 0-3.044-.09 35 35 0 0 0-1.698.103c.955-.831 1.782-1.816 2.398-2.971 1.224-2.293 1.885-5.33 1.179-7.942.531.704.985 1.477 1.267 2.376.806 2.568.982 5.895-.102 8.524m1.468 6.108c.382-.578.72-1.187 1.033-1.814 2.418.503 4.69 1.473 6.324 3.14-2.392.244-4.947-.344-7.357-1.326m12.232 107.144c-.771-2.177-1.223-4.519-1.427-6.88.43-.949.809-1.888 1.094-2.806 1.3 3.128 1.935 6.522.333 9.686" style="fill:#122a89"/></svg>