<svg xmlns="http://www.w3.org/2000/svg" xml:space="preserve" viewBox="0 0 215 220"><path d="M170.426 113.746c-.305-7.272-2.262-15.678-7.436-23.178-6.847-9.924-18.455-23.385-42.449-19.762-1.165-.054-2.348-.191-3.559-.496-13.123-8.448-26.703-4.376-36.855-2.833-7.672 1.166-14.923 5.53-18.265 8.578-1.988 1.813 1.964.365 5.126.05 2.275-.227 4.286-.298 6.262-.337-3.051.661-5.999 1.621-9.041 2.625-7.369 2.432-12.073 6.141-14.859 9.704-1.657 2.12 1.998.031 5.062-.808a72 72 0 0 1 5.377-1.237c-8.602 6.161-15.273 16.874-14.845 31.331.078 2.64 1.136 6.979 2.789 9.249 1.366 1.875 2.548 2.159 2.47-.474-.128-4.318.572-7.954 1.814-11.09.169.869.369 1.832.6 2.932-.047-.223-.113 14.38 1.191 18.991 1.497 5.291 5.692 7.464 5.652 8.949-.036 1.345 1.073 10.898 3.675 8.562.07-.063.317-14.634.65-21.374.069-1.407.142-2.481.218-3.001.757-5.18.914-12.868 3.713-18.175 3.228 6.953 9.683 11.599 10.399 11.108-1.205-2.419-5.028-4.281-3.244-13.107.713-3.526 5.049-7.132 4.624-4.996-.252 1.265 5.547 19.184 6.452 16.439 1.227-3.72 1.684-15.612 8.692-17.304 3.444 6.801 3.657 11.72-1.485 17.533-.917 1.037 3.944-.306 6.497-1.461 8.229-3.724 11.975-9.229 14.512-16.198 3.848 6.263 1.763 11.86-2.008 14.359-1.591 1.055 2.213.898 5.329-.159 5.216-1.768 10.328-3.935 12.134-9.741.659-1.53 2.404-3.986 2.404-3.986.868-.341 2.058 1.567 3.875 3.664 0 0 1.784 2.355 2.786 5.441 1.222 3.762.362 4.837 1.705 4.797 1.783-.053 5.714-3.022 6.614-6.894 3.996 5.79 4.196 14.232 4.196 14.232 1.098 9.179-.111 22.816.955 27.41.248 1.068.618 1.649 1.17 1.569 2.176-.314.524-3.304 3.632-8.865.294-.527 3.619-4.964 4.512-8.801.826-3.552.984-8.82 1.044-13.104.945 2.804 1.438 6.139 1.246 10.202-.113 2.396.795 2.044 1.876.233 1.309-2.193 2.205-6.215 2.319-8.617.409-8.641-1.577-14.74-4.812-19.067l-.054-.279a52 52 0 0 1 3.247 3.68c2.259 2.832 4.274 8.032 4.093 3.706" style="fill:#122a89"/></svg>