<svg xmlns="http://www.w3.org/2000/svg" xml:space="preserve" viewBox="0 0 215 220"><path d="M182.474 154.077c.75-2.42.661-4.596-.067-7.017-.408-1.357-.469-2.156-.567-3.515-.051-.711-.262-1.365-.359-2.062-.135-.968.003-1.072.229-2.071.3-1.326.143-2.626.578-3.924.428-1.275.825-2.46.894-3.824.115-2.258-1.151-3.893-1.347-5.995-.12-1.29-.114-2.488-.38-3.775-.343-1.657-.206-2.959-.107-4.632.059-.997.093-1.955-.074-2.947-.244-1.453-1.141-2.526-1.499-3.873-1.028-3.867 2.961-7.852-.287-11.466-.283-.315-1.765-.981-1.904-1.279-.264-.567.653-2.278.763-2.975.416-2.63-.183-4.897-1.096-7.33-.474-1.263-.254-1.478.013-2.696a9 9 0 0 0 .185-2.164c-.054-1.854-.657-3.849-1.966-5.215-.462-.482-1.263-.685-1.671-1.132-.731-.801-.457-2.357-.8-3.396-.758-2.295-2.269-3.651-4.327-4.721-.2-.104-.586-.058-.758-.188-.711-.541-.55-1.195-.693-1.914-.237-1.194-.397-2.238-.973-3.34-.478-.915-.827-1.36-.767-2.424.064-1.133.253-2.188.146-3.336-.212-2.272-1.147-4.459-2.793-6.064a8.5 8.5 0 0 0-.94-.803c-.948-.683-.966-.719-1.295-1.857a10.7 10.7 0 0 0-1.496-3.152c-2.32-3.331-6.217-4.615-10.111-4.731-1.388-6.448-7.233-10.19-13.586-9.273-1.859-2.459-4.499-3.994-7.53-4.574-1.341-.257-2.699-.393-4.058-.495-1.581-.119-2.707-.925-4.216-1.41-4.681-1.503-10.152-.542-13.942 2.567-4.016-2.383-8.223-2.583-12.933-1.821-3.913.634-7.418 2.636-9.804 5.765a12.9 12.9 0 0 0-4.201.616c-1.881.613-3.152 1.949-4.84 2.746-1.747.824-3.508 1.193-5.143 2.33-1.524 1.06-2.745 2.399-3.763 3.926-2.342.501-4.607 1.416-6.419 3.014a10.7 10.7 0 0 0-2.456 3.157c-.424.831-.616 1.675-.92 2.542-.288.82-.24.497-1.173 1.234-2.36 1.865-3.64 4.621-3.747 7.608-.059 1.635.5 3.031-.267 4.492-.926 1.765-1.001 3.745-1.77 5.501-3.555 1.171-5.725 4.484-5.632 8.338-2.899 1.444-4.381 4.319-4.075 7.783.093 1.055.692 2.087.482 3.114-.253 1.241-1.087 2.396-1.329 3.706-.443 2.396-.192 4.805.818 7.014-2.201 1.199-3.467 3.014-3.354 5.809.069 1.708 1.236 3.248 1.173 4.879-.093 2.399-1.474 4.395-1.723 6.772-.195 1.864.356 3.712.211 5.548-.096 1.218-.6 2.36-.692 3.599-.069.925.096 1.859-.208 2.734-.578 1.664-1.222 2.942-1.149 4.777.091 2.292 1.103 4.339 1.304 6.61.103 1.162.517 2.113.421 3.209-.065.74-.323 1.462-.37 2.218-.151 2.411-1.206 4.605-1.213 7.041-.003.967.289 1.839.38 2.78.112 1.152-.446 2.171-.644 3.285-.333 1.876-.239 3.834.348 5.653.575 1.783 1.689 2.972 1.814 4.851.139 2.1.513 3.986 1.541 5.853.992 1.802 2.336 3.275 3.286 5.108.817 1.576 2.011 2.969 3.513 3.924 1.67 1.062 2.228 2.855 3.539 4.318 1.138 1.269 2.593 2.322 4.248 2.794 2.681.765 5.389-.068 7.529-1.686 3.266 1.432 6.837 1.184 10.01-.753 1.462-.893 2.15-2.302 3.389-3.369.745-.642 1.598-1.052 2.292-1.783.848-.891 1.343-2.022 2.195-2.893 2.903-2.966 5.326-6.895 4.967-11.234-.128-1.55-.609-3.034-1.299-4.418a15 15 0 0 0-1.044-1.81c-.826-1.21-1.557-1.593-1.16-3.086.328-1.234.909-2.364 1.145-3.642.794-4.29-.511-8.622-3.792-11.573-.443-.398-1.484-.856-1.803-1.315-.287-.414-.303-1.243-.443-1.736-.481-1.693-.208-2.853.47-4.419.99-2.284 1.319-4.626.446-7.022a10.4 10.4 0 0 0-1.434-2.618c-.461-.619-1.843-1.373-2.111-1.987-.333-.761.725-1.856.948-2.662.323-1.166.299-2.401.129-3.591-.071-.498-.315-1.036-.345-1.524-.048-.804.147-1.043.468-1.817.428-1.032.734-2.069.708-3.2-.032-1.416.02-2.651.074-4.06.047-1.211-.789-2.352-.766-3.442.017-.796.753-1.206 1.229-1.975.574-.926.876-1.963.949-3.045a7.1 7.1 0 0 0-.36-2.81c-.371-1.06-1.079-1.691-1.117-2.804-.016-.467.274-1.152.312-1.641.072-.92-.064-1.817.094-2.735.119-.695.364-1.302.402-2.023.025-.469-.151-1.084-.073-1.541.207-1.223 1.287-2.343 1.807-3.508.471-1.055 1.045-2.014 1.401-3.091 1.801-.274 3.487-.871 5.1-1.743.701.252 1.293.947 1.927 1.362.793.519 1.647.963 2.523 1.323 1.798.738 3.759 1.114 5.7 1.145 3.595.056 7.199-.712 10.195-2.693 2.803.268 5.716-.569 7.784-2.433 5.162 5.701 14.349 4.971 20.16.286 3.002 2.108 6.85 2.822 10.505 2.616.239 2.228 1.336 4.097 2.405 6.021.574 1.032.434 1.702.494 2.85.073 1.419.489 2.717.479 4.156-.009 1.253.544 2.317.051 3.45-.322.74-.76 1.301-.972 2.111-.468 1.781-.263 3.769.722 5.341.438.699 1.202 1.126 1.253 1.975.053.885-.723 2.059-.764 3.051-.058 1.39.228 2.676.101 4.087-.125 1.394.238 2.619.805 3.883.84 1.871-.467 4.17.013 6.294.198.877 1.018 1.727 1.161 2.521.022.122.057.17.091.185-.048.042-.11.103-.209.222-.322.388-.911.692-1.277 1.065-1.498 1.526-2.513 3.609-2.739 5.735a8.7 8.7 0 0 0 .186 2.957c.343 1.416 1.283 2.604 1.5 4.051.153 1.022-.202 3.294-.826 4.017-.754.874-1.944 1.457-2.733 2.372-1.482 1.717-2.523 3.795-2.874 6.044-.298 1.904-.13 3.856.376 5.71.254.93 1.025 2.066 1.131 3.004.115 1.019-1.025 2.016-1.657 2.892-.058.081-.119.162-.167.241-1.13 1.848-1.851 3.9-1.956 6.072-.128 2.652.88 4.674 2.004 6.993 1.052 2.172 2.945 3.636 4.303 5.576.784 1.12 1.734 1.715 2.772 2.541.848.675 1.335 1.643 2.123 2.392 3.034 2.885 7.288 2.92 10.895 1.372 2.696 2.358 6.204 2.591 9.449.858 1.761-.941 3.2-2.381 4.283-4.046.61-.938.858-1.688 1.765-2.312.858-.591 1.652-1.14 2.369-1.905a11 11 0 0 0 1.725-2.457c.713-1.384 1.56-2.504 2.452-3.772 1.365-1.939 2.236-4.217 2.364-6.594.067-1.246.131-1.896.708-3.042.613-1.215 1.179-2.328 1.444-3.679.473-2.418.153-4.85-.813-7.106m-1.813 6.325a10.8 10.8 0 0 1-.592 2.806c-.383 1.077-1.367 2.008-1.69 3.026-.17.535-.028 1.087-.024 1.67.008 1.19-.21 2.375-.578 3.503a12.4 12.4 0 0 1-1.261 2.697c-.6.969-1.504 1.676-2.121 2.597-.967 1.444-1.257 3.046-2.573 4.355-1.254 1.248-2.564 1.402-3.36 2.973-.845 1.67-2.211 3.56-3.949 4.413-2.203 1.08-4.263-.283-5.771-1.862-.427-.447-1.747-.003-2.143.23-1.896 1.113-4.043 1.255-6.061.36a7.3 7.3 0 0 1-2.082-1.419c-.605-.575-.939-1.465-1.515-1.998-1.037-.957-2.294-1.446-3.19-2.659-.387-.524-.595-1.262-1.012-1.74-.449-.513-1.13-.885-1.61-1.393-1.979-2.095-3.598-5.578-3.71-8.478-.136-3.535 1.609-6.76 3.964-9.273a.36.36 0 0 0 .119-.323c-1.473-2.958-2.404-6.29-1.71-9.596a11.35 11.35 0 0 1 2.549-5.1c.866-.996 2.474-1.624 3.128-2.712.225-.374.413-1.245.549-1.957 1.808 2.3 4.763 3.898 7.589 4.021 1.749.18 3.496.036 5.157-.422-4.813-.51-10.109-2.089-12.619-5.942l-.008-.022c-.395-1.209-.955-2.375-1.333-3.593-.047-.308-.096-.614-.115-.941-.031.084-.043.167-.07.25a7 7 0 0 1-.197-1.147c-.141-2.039.53-4.089 1.733-5.73.74-1.009 2.163-1.49 2.737-2.513a.24.24 0 0 0-.077-.286c-1.41-1.786-1.796-3.832-1.385-6.067.084-.456.502-1.296.507-1.737.005-.521-.478-1.107-.676-1.586-.486-1.178-.818-2.316-.65-3.615.068-.528.376-1.055.386-1.572a4.6 4.6 0 0 1-.45-1.335 4.8 4.8 0 0 1 .09-2.026c.175-.848.507-1.631.882-2.406a.24.24 0 0 0-.077-.286c-2.875-2.187-3.125-6.403-.744-9.066a.37.37 0 0 0 .119-.323c-.276-.715-.506-1.424-.573-2.192-.066-.759.244-1.529.157-2.257-.077-.643-.501-1.295-.598-1.97-.109-.765.4-2.075.171-2.678-.376-.987-1.469-1.819-1.908-2.893-.593-1.451-1.177-2.711-1.283-4.307-.026-.39-.982-.263-1.167-.243-3.5.377-7.404-.615-10.156-2.843 3.655.77 7.683-.099 10.168-2.929-6.106 2.733-12.514 1.799-17.569-2.586 1.129 2.465 3.319 4.19 5.845 5.085-.572.127-1.156.424-1.414.696-5.091 5.358-13.34 4.757-17.524-1.32-.461-.67-2.407.211-2.701.724-1.039 1.808-2.708 2.911-4.848 2.772-.889-.058-1.629-.302-2.494.052-1.439.588-2.461 1.704-4.051 2.12-1.671.437-3.6.584-5.32.372a13.9 13.9 0 0 1-4.193-1.207 13 13 0 0 1-2.376-1.455c-.432-.331-.927-1.021-1.434-1.184-.665-.213-1.691-.086-2.37.104-.352.099-.63.261-.948.423-1.593.809-2.846 1.44-4.69 1.507-.448.016-1.841.26-1.971.872-.28 1.317-1.007 2.248-1.483 3.46-.302.769-.628 1.506-1.128 2.171-.298.396-.813.743-.975 1.204-.139.394.228 1.566.207 2.066-.034.826-.339 1.481-.492 2.265-.308 1.586.095 3.102-.547 4.766a.24.24 0 0 0 .077.286c2.251 2.518 2.324 6.756-.494 8.899-.091.069-.392.316-.308.49.374.773.712 1.559.882 2.406q.24.997.114 2.026a4.6 4.6 0 0 1-.45 1.335c.003.508.289 1.062.362 1.572.184 1.282-.146 2.449-.627 3.615-.2.484-.671 1.058-.699 1.586-.026.477.419 1.252.507 1.737.358 1.971.076 3.8-.972 5.433-3.306 1.909-7.111 2.318-11.121 1.115 2.933 2.973 7.938 2.827 11.319.556.666.557 1.547 1.064 2.03 1.724 1.094 1.495 1.772 3.357 1.784 5.215.015 2.177-1.094 3.978-1.724 5.982-.294.934-.234.616-.047 1.592.115.6.373 2.254.692 2.73.683 1.019 2.25 1.682 3.11 2.675a11.5 11.5 0 0 1 2.568 5.136c.391 1.857.267 3.71-.167 5.505-6.535 3.527-12.622-3.618-16.444-8.565 1.35 3.663 3.387 7.242 6.814 9.393 2.667 1.816 6.83 2.036 9.403.032a20.5 20.5 0 0 1-1.292 3.232.24.24 0 0 0 .077.286c1.949 2.081 3.464 4.632 3.881 7.462-1.494 4.191-6.469 5.966-10.413 3.298a10.7 10.7 0 0 0 1.181-3.201c.337-1.627.385-3.248.261-4.871-.598 1.521-1.026 3.055-1.578 4.488-.279.855-.68 1.707-1.172 2.506-.029-.03-.061-.051-.09-.081.017.046.042.083.06.128-1.87 3.005-5.104 5.18-8.679 3.378.97 1.365 2.893 1.952 4.627 1.704 2.158-.279 3.859-1.662 5.017-3.426 2.688 3.235 8.34 2.922 10.722-.639-.45 2.468-1.732 5.056-3.292 6.781-.954 1.055-1.764 1.669-2.528 2.873-.542.854-1.187 1.605-2.037 2.176-.37.248-1.022.468-1.37.837-1.354 1.434-1.732 2.844-3.912 3.457-1.922.541-3.716-.08-5.384-1.06-.714-.419-2.049-.013-2.594.558-1.607 1.683-3.333 2.119-5.403 1.011-1.317-.705-2.417-1.784-3.292-2.985-.543-.746-.872-1.904-1.448-2.595-.329-.394-.896-.514-1.336-.789-1.418-.885-2.564-2.19-3.336-3.665-.32-.612-.461-1.406-.836-1.972-.479-.724-1.244-1.312-1.751-2.04-1.096-1.572-1.838-3.368-2.116-5.268-.132-.905.176-2.042-.041-2.873-.145-.555-.639-1.028-.948-1.543-.905-1.505-1.382-3.268-1.47-5.015-.093-1.854.57-3.192.892-4.917.124-.666-.097-1.113-.241-1.802a9.8 9.8 0 0 1-.057-3.715c.153-.858.437-1.639.763-2.441.39-.959.259-1.195.266-2.274.008-1.048.353-1.935.48-2.944.085-.672-.049-.975-.237-1.683-.297-1.119-.027-2.194-.243-3.271-.129-.646-.589-1.308-.803-1.961-.576-1.757-.745-3.732-.211-5.517.232-.776.771-1.398 1.014-2.135.191-.581 0-1.193-.005-1.83a10.1 10.1 0 0 1 .524-3.231c.418-1.273.312-1.256.142-2.538-.263-1.982-.36-4.096.239-6.026.285-.917.9-1.715 1.183-2.597.076-.238-.057-.541-.024-.786.025-.081.407-1.984.361-2.186-.321-1.402-1.239-2.515-1.348-4.078-.148-2.106.506-4.111 2.575-4.975.177-.074 1.063-.444.889-.794a11 11 0 0 1-1.069-6.345c.141-1.099.432-2.195.864-3.215.295-.697.877-1.357.807-2.053-.065-.638-.535-1.356-.637-2.032a8.4 8.4 0 0 1 .035-2.656c.27-1.582 1.028-3.773 2.718-4.31.38-.121 1.292-.373 1.257-.913-.122-1.849.208-3.452 1.226-5.014.539-.827 1.082-1.448 1.996-1.857.513-.23 1.167-.277 1.642-.583.649-.419 1.082-1.258 1.281-1.981.262-.95.08-1.762.414-2.713.277-.789.604-1.382 1.054-2.096.612-.971.299-1.258.148-2.463-.174-1.384-.12-2.79.233-4.143.35-1.342.96-2.597 1.891-3.637.716-.8 2.026-1.214 2.555-2.109.474-.803.496-2.059.921-2.955a9.05 9.05 0 0 1 2.4-3.092c1.075-.885 2.341-1.466 3.698-1.757.851-.182 1.732-.208 2.407-.826.893-.817 1.429-2.11 2.36-2.969 1.308-1.206 2.85-2.044 4.558-2.527 1.004-.284 1.556-.499 2.408-1.136 2.003-1.499 3.603-2.218 6.143-1.904.582.072 1.81-.151 2.17-.698 4.257-6.46 13.266-7.205 19.342-2.877.65.463 2.102-.012 2.594-.558 2.004-2.221 4.459-3.159 7.43-3.112 1.288.02 2.542.313 3.745.766.956.36 1.849 1.13 2.842 1.325 1.058.208 2.25.007 3.347.159 1.12.155 2.235.305 3.311.673 2.268.776 4.117 2.213 5.499 4.155.173.244.853.161 1.079.113 5.99-1.257 11.062 3.188 12.173 8.903.058.301.617.28.818.278 3.938-.035 7.837 1.609 9.826 5.151.507.903.677 1.866 1.058 2.809.387.96.356.791 1.314 1.505 1.634 1.219 2.752 2.947 3.264 4.913.217.835.329 1.697.342 2.56.015.995-.547 2.351-.421 3.299.085.637.835 1.275 1.13 1.894.566 1.186.593 2.182.822 3.431.458 2.495 2.073 1.724 3.718 3.203 1.886 1.696 2.575 4.169 2.414 6.619q.075.175.264.22c3.895 1.238 4.185 5.789 3.314 9.121-.245.938-.146.934.319 1.876.488.988.829 2.057 1.029 3.139.446 2.413.146 4.815-.94 7.013-.094.191.116.32.252.376 2.189.913 3.25 2.631 3.224 5.008a8.2 8.2 0 0 1-.741 3.255c-.601 1.327-.471 1.316-.312 2.803.102.95.022 1.194.371 2.055.218.538.511 1.037.703 1.591a10.2 10.2 0 0 1 .572 3.772c-.051 1.244-.58 2.761-.49 3.949.094 1.241.843 2.481.928 3.8.042.643-.237 1.694-.097 2.188.096.338.409.702.583 1.038.552 1.07.833 2.264.866 3.466a10.1 10.1 0 0 1-.752 4.03c-.182.44-.487.868-.596 1.324-.21.88.084 1.955-.12 2.899-.226 1.048-.472 1.39-.253 2.383.305 1.384.051 2.807.306 4.136.228 1.189.981 2.279 1.161 3.548.224 1.575.02 3.095-.448 4.6-.018.029-.013.056-.023.084l-.007.026c-.002.006.004.009.003.015-.008.048-.034.096-.015.141.776 1.795 1.159 3.668 1.005 5.622" style="fill:#122a89"/><path d="M163.874 152.989c2.411-2.736 3.432-6.684 1.539-10.316 1.001 7.269-5.119 13.628-12.42 12.926 3.715 1.755 7.631.566 10.269-1.969.513 5.372 7.349 9.422 12.189 6.341-5.131.435-9.631-2.272-11.577-6.982m-17.358 18.469c5.075 4.388 12.261-.803 13.961-6.182.717-1.788 1.156-3.63 1.426-5.51-.961 1.643-1.757 3.335-2.661 4.915-2.421 4.585-7.247 8.896-12.726 6.777m-96.308-9.195c4.898 5.24 15.02 2.144 16.131-4.949-3.529 5.378-10.064 7.484-16.131 4.949M80.38 70.589c3.589 5.644 13.351 5.467 16.72-.318-5.268 3.522-11.324 3.645-16.72.318m9.648-34.308c-8.669-3.62-19.986 2.425-21.779 11.651 4.404-7.995 12.682-12.434 21.779-11.651" style="fill:#122a89"/><path d="M75.966 45.072c4.254-2.02 7.926-3.433 12.445-4.758-4.533-1.215-9.884.821-12.445 4.758m.495 7.562c3.599-3.547 7.029-6.115 11.462-8.542-5.05-.07-10.092 3.676-11.462 8.542m33.415-14.829c9.221-.452 17.521 3.888 22.432 11.703-2.396-9.13-13.575-14.952-22.432-11.703m14.673-.484c7.562 4.042 13.257 9.988 16.996 17.703-1.217-8.52-8.537-16.132-16.996-17.703m10.578 2.624c8.561 6.703 14.595 15.53 17.761 25.93-.595-10.868-7.849-21.441-17.761-25.93" style="fill:#122a89"/></svg>