<svg xmlns="http://www.w3.org/2000/svg" xml:space="preserve" viewBox="0 0 215 220"><path d="M168.562 159.05c-9.893-4.381-6.659-10.995-3.775-15.829 1.63-2.733 2.848-5.474 3.597-8.257 2.838-6.448 3.173-12.365.571-19.378-1.949-5.255-4.789-10.187-3.781-14.357 2.858-11.828-2.555-17.813-14.754-26.215-2.513-1.731-3.832-4.452-8.12-8.118-7.285-6.229-21.032-7.959-28.532-6.259-14.67 3.326-14.833-.334-28.053.053-10.588.31-8.82 5.865-21.267 10.924-13.314 5.411-14.808 14.168-16.19 21.009-2.053 10.162 2.098 15.773-1.914 22.583-5.152 8.744-3.719 16.938 5.269 26.111 2.425 4.426 3.69 9.745-4.633 13.722-1.32.631-.689.937.797.906 1.799-.038 4.361-.781 5.684-1.413 5.833-2.787 7.903-6.098 7.954-9.392a55 55 0 0 0 2.337 3.782c2.538 3.748 5.484 6.951 6.816 5.197-2.703-6.357-4.512-14.855-2.703-18.257.468-.88.881-1.831 1.257-2.834a23.4 23.4 0 0 0 3.384-2.601c.273.027.533.044.771.046 9.489.08 15.18-4.903 18.662-11.267 1.318 5.305 4.611 10.033 11.338 11.886 1.618.446 3.955.021 5.49-.594.762-.306 2.737-1.391 1.073-1.85-10.462-2.882-11.52-13.908-10.409-21.77.409-2.894 1.031-5.883 1.485-8.868-.022 3.85-.303 7.748-.024 11.331.631 8.092 4.342 17.247 14.987 18.476.911.105 1.987-.092 3.015-.418 1.926.55 4.247.587 7.062-.128.81-.206 1.751-.69 2.656-1.282 3.551 3.756 8.318 6.081 14.787 5.317a8.5 8.5 0 0 0 1.397-.306c1.373 1.048 2.824 1.92 4.346 2.552 2.69 13.465-5.618 20.631-2.714 20.329 2.421-.252 4.015-1.921 5.661-4.056.639-.829 1.286-1.721 1.993-2.638-.906 4.069.649 8.292 7.988 11.542 1.341.594 3.923 1.262 5.722 1.248 1.485-.01 2.107-.334.77-.927m-81.427-52.629c-1.609 5.447-3.82 11.951-8.31 16.105a46 46 0 0 0 1.201-2.096c2.986-5.58 5.2-12.335 8.408-18.119l.017-.008a97 97 0 0 0-1.316 4.118m21.23-1.939c-.035-2.566.08-5.229.103-7.884.219.004.44.019.66.027 2.113 5.302 1.023 12.961 1.769 18.922q.078.605.184 1.207c-1.967-3.794-2.663-8.369-2.716-12.272m9.524 3.975c-.08-1.465-.104-2.986-.129-4.518 1.806 4.023 3.24 8.254 4.922 12.369.823 2.015 1.798 3.979 2.943 5.798-5.562-1.534-7.432-8.068-7.736-13.649m10.833.276a96 96 0 0 0-3.626-8.538c4.206 5.923 6.867 13.474 10.389 19.611a48 48 0 0 0 3.242 4.923c-5.081-3.531-7.916-10.332-10.005-15.996" style="fill:#122a89"/></svg>