<svg xmlns="http://www.w3.org/2000/svg" xml:space="preserve" viewBox="0 0 215 220"><path d="M177.265 169.724c.011-3.986-1.294-6.792-3.079-8.27 1.771-1.866 2.924-5.084 2.886-8.737-.026-2.476-.596-4.742-1.523-6.517 2.235-1.654 3.767-5.279 3.723-9.479-.031-2.936-.827-5.573-2.076-7.448 1.664-1.892 2.735-5.01 2.698-8.532-.04-3.854-1.397-7.196-3.373-8.965 1.034-1.854 1.655-4.302 1.627-6.992-.04-3.854-1.397-7.196-3.373-8.965 1.034-1.854 1.655-4.302 1.627-6.992-.045-4.342-1.76-8.039-4.151-9.562.473-2.171.266-4.879-.744-7.602-1.511-4.073-4.372-7-7.138-7.666-.898-1.825-2.407-3.666-4.471-5.191-2.767-2.045-5.824-3.035-8.313-2.927-4.81-6.889-9.073-9.466-14.732-13.345-3.377-2.315-16.598-9.111-28.876-7.369-12.278-1.742-25.499 5.054-28.876 7.369-5.659 3.879-9.921 6.456-14.732 13.345-2.489-.108-5.546.883-8.313 2.927-2.064 1.525-3.573 3.366-4.471 5.191-2.766.666-5.627 3.593-7.138 7.666-1.01 2.723-1.217 5.431-.744 7.602-2.391 1.522-4.106 5.22-4.151 9.562-.028 2.689.594 5.138 1.627 6.992-1.976 1.769-3.332 5.111-3.373 8.965-.028 2.689.594 5.138 1.627 6.992-1.976 1.769-3.332 5.111-3.373 8.965-.037 3.522 1.034 6.64 2.698 8.532-1.25 1.875-2.045 4.512-2.076 7.448-.044 4.201 1.487 7.825 3.723 9.479-.927 1.775-1.497 4.041-1.523 6.517-.038 3.653 1.115 6.87 2.886 8.737-1.785 1.478-3.09 4.283-3.079 8.27.03 11.025-4.541 12.924-4.047 14.541.858 2.811 13.294-1.329 15.198-12.47.775-4.535-.042-7.876-1.564-9.766 2.111-1.704 3.581-5.164 3.623-9.179.044-4.2-1.487-7.825-3.723-9.479.927-1.774 1.497-4.041 1.523-6.517.037-3.522-1.034-6.64-2.698-8.532 1.249-1.875 2.046-4.513 2.076-7.448.028-2.689-.594-5.138-1.627-6.991 1.976-1.769 3.332-5.111 3.373-8.965.028-2.689-.594-5.138-1.627-6.992 1.976-1.769 3.332-5.111 3.373-8.965.024-2.258-.412-4.345-1.162-6.056 1.463-.871 2.853-2.322 3.964-4.168a81 81 0 0 0-.694 7.04c-.684 12.102 2.441 22.889 7.78 30.964l-.08 1.617c-.575 11.51-1.157 23.046.565 34.054 1.391 8.897 4.116 15.99 7.459 20.702 1.092 1.539 2.779 3.254 4.108 2.788.962-.337 1.448-1.529.402-3.004-3.689-5.201-6.252-14.108-6.973-24.524a99 99 0 0 1-.176-3.773c-.219-7.263.059-17.324.38-26.799.236 2.412.468 4.86.674 7.35.156 1.888 2.235 1.767 3.079-7.32 1.856-19.986 5.061-39.226 15.154-55.05.274-.185.537-.371.83-.557 2.688-1.709 12.011-1.102 20.098-6.172 7.953 5.012 17.361 4.442 20.1 6.172.292.184.554.368.826.552 10.096 15.825 13.302 35.067 15.158 55.055.844 9.087 2.923 9.208 3.079 7.32.206-2.49.438-4.938.674-7.35.322 9.475.6 19.535.38 26.799a99 99 0 0 1-.176 3.773c-.721 10.416-3.284 19.323-6.973 24.524-1.046 1.475-.56 2.666.402 3.004 1.329.466 3.016-1.249 4.108-2.788 3.342-4.712 6.067-11.805 7.459-20.702 1.721-11.008 1.139-22.544.565-34.054l-.08-1.617c5.339-8.075 8.464-18.863 7.78-30.964a81 81 0 0 0-.694-7.04c1.11 1.847 2.501 3.298 3.964 4.168-.75 1.711-1.186 3.798-1.162 6.056.04 3.854 1.397 7.196 3.373 8.965-1.034 1.854-1.655 4.302-1.627 6.992.04 3.854 1.397 7.196 3.373 8.965-1.034 1.854-1.655 4.302-1.627 6.991.031 2.936.827 5.574 2.076 7.448-1.664 1.892-2.735 5.01-2.698 8.532.026 2.476.596 4.742 1.523 6.517-2.235 1.654-3.767 5.279-3.723 9.479.042 4.015 1.512 7.475 3.623 9.179-1.522 1.89-2.339 5.231-1.564 9.766 1.904 11.142 14.34 15.282 15.198 12.47.492-1.617-4.079-3.516-4.049-14.541" style="fill:#122a89"/></svg>