<svg xmlns="http://www.w3.org/2000/svg" xml:space="preserve" viewBox="0 0 215 220"><path d="M163.31 113.617c-.721-7.659-3.166-15.002-7.451-21.406-.015-.023-.049-.029-.067-.05-.014-.042-.024-.084-.053-.125-3.394-4.938-7.634-8.691-12.505-11.734-.601-1.43-1.687-2.635-3.286-3.231-.73-4.841-5.323-8.88-10.836-7.56-1.593-2.408-4.38-3.756-7.184-3.969a9.8 9.8 0 0 0-3.005-.185c-2.181-1.324-4.716-2.039-7.161-1.578-2.345.061-4.454 1.213-5.951 2.97-2.537-1.887-5.565-2.853-8.718-2.126a10.6 10.6 0 0 0-1.855.131c-3.262.555-5.684 2.373-7.195 4.776-2.262-.35-4.665.197-6.678 2.047-.021.019-.035.042-.056.061q-.249.153-.488.319c-4.652.932-7.985 4.802-8.364 9.167-6.68 4.4-12.252 10.324-15.759 17.923-4.422 9.58-5.375 20.896-3.298 31.191 1.018 5.045 2.556 9.954 3.337 15.048.362 2.356.617 4.73 1.026 7.078.181 1.042.295 2.847 1.218 3.572 1.354 1.063 3.884-.077 4.844-1.359.06-.08.134-.158.181-.239.963-1.657 1.026-3.981 1.212-5.831.705-7.028.921-14.087 2.09-21.066.978-5.838 2.591-11.841 5.731-16.828 3.04 1.597 7.396.663 7.983-3.132 1.816.001 3.628-.614 5.155-1.657q.436.007.883-.037c2.564 2.55 6.39 3.658 9.857 3.094 2.179-.122 4.059-.897 5.551-2.139 2.464.585 5.424-.4 6.658-2.804 4.029 6.16 12.367 4.928 16.296.618a9.2 9.2 0 0 0 2.183 1.506c1.179.591 2.285.845 3.317.875a9.6 9.6 0 0 0 3.904.25c.036 2.462 1.632 4.895 4.806 4.895 1.243 0 2.221-.395 2.981-.998 4.453 6.732 5.942 15.103 6.834 23.125.497 4.467.744 8.953 1.121 13.43.193 2.287.09 5.646 1.443 7.641.028.041.067.058.096.097 1.601 2.115 4.979.324 5.635-1.797.827-2.674.945-5.635 1.353-8.392.469-3.163 1.163-6.245 1.944-9.341 1.861-7.383 2.99-14.591 2.271-22.23M67.109 88.302a7.3 7.3 0 0 0-.144 2.326c-.241.179-.42.41-.625.62l-.523-1.396c.42-.525.844-1.046 1.292-1.55m-5.728 61.883c-.197-1.16-.38-2.322-.54-3.488.006-.006.014-.008.02-.015l1.007-1.149a62 62 0 0 1-.487 4.652m9.238-41.014-1.489-1.61a.88.88 0 0 0-1.291 1.193l1.743 1.885a30 30 0 0 0-2.495 4.542 43 43 0 0 0-1.566 4.219.85.85 0 0 0-.123-.498l-2.068-3.235a.877.877 0 1 0-1.479.947l2.068 3.235a.876.876 0 0 0 1.214.267.9.9 0 0 0 .224-.217c-.91 2.97-1.54 6.032-2.01 9.117l-1.745-1.871a.878.878 0 1 0-1.284 1.2l2.71 2.905a152 152 0 0 0-.561 5.035 101 101 0 0 0-.283 3.898l-.873-.778a.88.88 0 0 0-1.171 1.313l1.92 1.711-.061 1.073a.87.87 0 0 0-.913.259l-.576.656c-.269-1.89-.561-3.776-1.006-5.639-.682-2.856-1.449-5.702-2.073-8.576l.014.005q.058.006.115.007a.88.88 0 0 0 .87-.766l.53-4.099a.88.88 0 0 0-1.744-.225l-.307 2.375c-.135-.784-.277-1.567-.371-2.359-.19-1.606-.278-3.232-.317-4.862.044.007.083.037.128.037a.88.88 0 0 0 .798-1.246l-.928-2.018c.088-2.399.357-4.785.763-7.132l.059.117a.88.88 0 0 0 1.572-.786l-1.061-2.123c.586-2.497 1.353-4.957 2.349-7.325l2.941 2.371a.88.88 0 0 0 1.236-.132.88.88 0 0 0-.134-1.236l-3.156-2.544c-.042-.034-.091-.047-.137-.072q.639-1.361 1.37-2.675l.819 2.186a.879.879 0 1 0 1.644-.616l-.978-2.612a.86.86 0 0 0-.601-.525 41 41 0 0 1 1.644-2.463L65.118 93c-1.246 2.824-.491 6.552 2.219 8.276l.174 1.628q.014.41.087.813l.033.304a.85.85 0 0 0 .13.358c.389 1.248 1.214 2.34 2.511 2.896.151.545.392 1.024.678 1.463q-.167.215-.331.433m1.546-25.587c.114-.089.234-.17.349-.258.009.063.011.126.022.19-.132.01-.243.051-.371.068m75.442 4.351.1.108c-.028-.037-.069-.063-.103-.095zm.267.769a.87.87 0 0 0-.157-.651 42 42 0 0 1 2.182 2.394l-.882 2.355a4.76 4.76 0 0 0-1.423-2.308zm-.741 9.774-.005.043-.004-.035zm7.786 50.07c-.07.511-.157 1.02-.229 1.531-.197-1.422-.302-2.865-.388-4.282l.776.885c.039.044.091.066.136.1-.096.589-.213 1.171-.295 1.766m4.178-20.519-.376-2.905a.877.877 0 0 0-.985-.759.88.88 0 0 0-.759.984l.53 4.099a.88.88 0 0 0 .985.759c.082-.011.153-.046.225-.077-.039.198-.07.399-.112.597-.984 4.659-2.156 9.21-3.027 13.863l-.727-.829a.86.86 0 0 0-.711-.283l-.092-1.201 1.749-1.558a.88.88 0 0 0-1.171-1.313l-.747.665c-.223-2.9-.466-5.797-.829-8.684l-.033-.253 2.601-2.789a.88.88 0 0 0-1.284-1.2l-1.627 1.744c-.433-2.942-.999-5.888-1.81-8.746.123.06.249.111.38.111a.88.88 0 0 0 .74-.405l2.068-3.235a.877.877 0 1 0-1.479-.947l-2.068 3.235-.006.014c-.946-3.025-2.195-5.928-3.889-8.59l1.454-1.572a.88.88 0 0 0-1.291-1.193l-1.178 1.273a28 28 0 0 0-1.222-1.567 5.8 5.8 0 0 0-.099-1.327c1.426-.728 2.202-2.139 2.414-3.645l-.165 1.539a.878.878 0 1 0 1.747.187l.63-5.879a.865.865 0 0 0-.605-.912 5.2 5.2 0 0 0 .849-2.472c.013.006.022.017.036.022a.88.88 0 0 0 1.131-.515l.812-2.166c.312.416.646.806.944 1.238.181.273.347.554.522.831a.9.9 0 0 0-.193.303l-.978 2.612a.877.877 0 1 0 1.644.616l.632-1.687a44 44 0 0 1 1.249 2.385l-2.987 2.408a.88.88 0 0 0 .551 1.563c.194 0 .39-.063.551-.195l2.649-2.136a47 47 0 0 1 2.501 7.371l-.921 1.842a.88.88 0 0 0 .786 1.272.87.87 0 0 0 .727-.422c.444 2.321.723 4.673.84 7.038l-.888 1.932a.878.878 0 0 0 .798 1.245c.054 0 .1-.034.153-.044a52.6 52.6 0 0 1-.639 7.758" style="fill:#122a89"/><path d="M61.836 103.527a.88.88 0 0 0-1.572.788l.98 1.957a.876.876 0 0 0 1.179.394.88.88 0 0 0 .393-1.178zm4.368 5.646a.877.877 0 1 0-1.668.55l.968 2.942a.878.878 0 1 0 1.668-.55zm-5.611 7.06.978-3.591a.88.88 0 0 0-1.696-.462l-.978 3.591a.88.88 0 0 0 1.696.462m.51 4.429a.88.88 0 0 0-1.023.706l-.39 2.143a.88.88 0 0 0 1.73.316l.39-2.143a.88.88 0 0 0-.707-1.022m-1.425 11.816.194 4.09c.021.47.41.838.877.838l.041-.001a.877.877 0 0 0 .836-.919l-.194-4.092c-.022-.484-.417-.876-.918-.836a.88.88 0 0 0-.836.92m95.017-26.206.978-1.959a.879.879 0 0 0-1.572-.784l-.978 1.959a.879.879 0 1 0 1.572.784m-3.852 2.34a.877.877 0 0 0-1.109.56l-.968 2.942a.878.878 0 1 0 1.669.55l.968-2.942a.88.88 0 0 0-.56-1.11m5.22 3.568a.88.88 0 0 0-1.696.462l.978 3.591a.878.878 0 1 0 1.696-.462zm.185 11.331-.39-2.143a.88.88 0 0 0-1.73.316l.39 2.143a.88.88 0 0 0 1.73-.316m-.824 8.047c-.453-.035-.894.352-.918.836l-.194 4.092a.877.877 0 1 0 1.754.082l.194-4.09a.88.88 0 0 0-.836-.92" style="fill:#122a89"/></svg>