<svg xmlns="http://www.w3.org/2000/svg" xml:space="preserve" viewBox="0 0 215 220"><path d="M153.951 88.96c-4.577-6.72-9.893-11.562-22.747-16.875-6.758-2.794-15.364-3.699-23.226-3.699s-16.468.906-23.227 3.699C71.897 77.399 66.582 82.24 62.004 88.96c-6.006 8.817-8.443 19.64-7.501 31.655.389 4.962 2.316 11.587 3.21 15.402 1.626 6.937 1.776 15.53 3.356 15.595 1.779.074 2.173-5.548 2.673-13.271.794-12.255 1.855-29.815 9.149-38.409 6.418-7.562 12.824 15.707 17.621 18.7 6.134 3.826 14.593 3.927 17.348 3.968.041.001.08-.055.118-.138.038.083.077.139.118.138 2.755-.041 11.214-.141 17.348-3.968 4.798-2.993 11.203-26.262 17.621-18.7 7.293 8.594 8.355 26.154 9.149 38.409.5 7.723.894 13.345 2.673 13.271 1.58-.065 1.73-8.658 3.356-15.595.894-3.815 2.821-10.44 3.21-15.402.941-12.015-1.496-22.837-7.502-31.655" style="fill:#122a89"/></svg>