<svg xmlns="http://www.w3.org/2000/svg" xml:space="preserve" viewBox="0 0 215 220"><path d="M169.676 89.369c-1.605-4.147-4.074-8.762-6.837-13.266a71 71 0 0 0-3.897-6.533c-9.147-13.579-15.508-22.012-34.262-24.69-10.848-1.549-21.231-.353-27.917 3.64-3.809-1.066-9.439-1.772-14.024-.643-11.319 2.789-19.002 10.757-26.701 23.23a128 128 0 0 0-3.222 5.493c-.374.528-.925 1.587-1.582 3.003a60 60 0 0 0-2.751 6.454c-2.367 5.913-4.94 13.136-6.061 17.623-2.153 8.62-7.454 34.103-4.777 43.06 2.857 9.557 8.826 12.829 14.794 13.715 1.264.188.292-1.421-2.989-3.783-5.085-3.662-6.624-6.685-7.771-12.048-.642-3.002-.447-7.793-.153-11.056.011-.126.029-.288.047-.458.142 7.833 1.696 12.779 4.895 17.684 3.305 5.069 7.467 4.839 6.763 3.514-2.238-4.213-3.846-6.567-3.148-12.031 2.314 6.451 4.669 12.481 5.654 18.244 2.372 13.871 2.377 6.785 4.67 3.297 0 0 1.436 4.208 3.954 7.285 2.887 3.528 6.883 5.882 6.461 4.015-.745-3.298-.808-6.423-.272-9.547-2.174-4.049-3.763-8.836-4.798-15.361-1.091-6.875-1.585-12.3-1.809-17.301.499-.779 1.003-1.56 1.509-2.329 6.356-9.664 11.947-21.071 12.358-33.27.272-8.088 2.074-13.499 5.559-17.703 2.442-2.062 5.057-3.067 8.025-3.283 8.175-.594 10.404 1.5 11.896 1.288 3.162-.484 8.1-3.429 13.39-2.094 9.363 2.364 15.91 12.384 18.34 19.7 7.186 21.628 10.495 30.079 17.07 36.576-.2 5.312-.682 11.027-1.855 18.417-1.035 6.524-2.624 11.311-4.798 15.36.535 3.124.472 6.249-.272 9.547-.422 1.867 3.574-.488 6.461-4.015 2.518-3.077 3.954-7.285 3.954-7.285 2.138 3.253 2.288 9.626 4.222-.776 1.807-.635 5.262-2.8 8.08-7.416 5.629-1.484 9.816-7.121 11.216-14.85 2.612-14.433-5.809-42.073-9.422-51.407m-99.257 22.889c-.957 2.868-4.866 10.418-6.654 13.226-.012-1.742-.01-3.502-.009-5.315a27 27 0 0 0 2.267-2.837c2.423-3.511 4.47-8.9 6.274-14.323-.226 3.039-.81 6.044-1.878 9.249m89.736 48.792c.031-.178.061-.345.092-.53.28-1.639.686-3.303 1.155-4.988q.855.23 1.685.346c-.908 1.972-1.942 3.77-2.932 5.172m4.011-7.752c-.842.332-1.668.615-2.367.856 1.009-3.363 2.28-6.829 3.581-10.425.652 2.751.005 6.245-1.214 9.569m10.367-14.034c-.694 4.191-2.031 6.965-3.558 8.954 2.207-7.857 2.902-14.99 2.818-21.767.812 3.907 1.431 8.643.74 12.813" style="fill:#122a89"/></svg>