<svg xmlns="http://www.w3.org/2000/svg" xml:space="preserve" viewBox="0 0 215 220"><path d="M179.003 154.731c-.312-4.006-2.199-7.231-4.518-8.21.958-3.016.642-7.164-1.133-11.249-2.9-6.674-8.578-10.638-12.682-8.855-.968.421-1.755 1.131-2.365 2.047-1.337-1.064-2.782-1.664-4.215-1.681-.073-4.212-.227-8.447-.383-12.679l-.043-1.192c5.513-8.12 8.764-19.073 8.067-31.389a88 88 0 0 0-.251-3.261c3.849-1.593 6.154-4.49 5.153-5.498-.673-.678-2.373.293-5.97-.467-1.131-6.254-3.141-11.884-6.557-17.491-5.707-9.37-10.345-12.098-16.8-16.523-3.377-2.315-16.598-9.111-28.876-7.369-12.278-1.742-25.499 5.054-28.876 7.369-6.455 4.425-11.092 7.153-16.8 16.523-5.01 8.226-7.044 16.465-7.624 26.717-.697 12.316 2.554 23.269 8.067 31.389l-.043 1.192c-.423 11.51-.852 23.046.416 34.054 1.025 8.897 3.032 15.99 5.494 20.702.804 1.539 2.047 3.254 3.026 2.788.709-.337 1.067-1.529.296-3.004-2.717-5.201-4.605-14.108-5.136-24.524-.115-2.245-.169-4.97-.184-7.982-.066-13.64.721-33.378.799-43.362.012-1.578.023-3.065.031-4.481.611-2.607 1.399-5.204 2.429-7.681 1.175-2.829 6.581-8.674 8.146-11.357 3.139-5.381 5.15-7.892 8.117-10.084.444 1.541 1.318 3.168 2.635 4.643 1.684 1.887 3.696 3.103 5.537 3.55.347 2.116 1.996 4.515 4.591 6.281 2.184 1.486 4.537 2.172 6.481 2.091.772 1.939 2.741 3.908 5.445 5.172 2.368 1.107 4.773 1.416 6.671 1.045.875 1.8 2.733 3.581 5.242 4.755 3.083 1.442 6.248 1.557 8.235.526.762 1.83 2.862 3.739 6.459 4.981 4.264 1.472 8.283.527 11.1-1.024l.012 1.585c.078 9.984.865 29.722.799 43.362a49 49 0 0 1-1.742 5.94 20.4 20.4 0 0 0 1.429 3.93c-.653 9.592-2.457 17.756-5.007 22.637-.77 1.475-.412 2.666.296 3.004.979.466 2.222-1.249 3.026-2.788 2.219-4.248 4.062-10.445 5.156-18.14.947.826 1.957 1.412 2.984 1.726a13.4 13.4 0 0 0-1.291 4.469c-.344 3.133.349 5.99 1.674 7.752-1.273.932-2.4 2.605-2.978 4.699-.801 2.905-.295 5.661 1.087 6.949-1.296.375-2.69 1.481-3.707 3.094-1.646 2.61-1.679 5.547-.074 6.559s4.241-.283 5.887-2.894c1.458-2.312 1.644-4.873.554-6.133 1.126-.328 2.228-1.286 3.085-2.661-.202 2.181.328 4.085 1.41 5.092-1.296.375-2.69 1.481-3.707 3.093-1.646 2.61-1.679 5.547-.074 6.559s4.241-.283 5.887-2.894c1.458-2.312 1.644-4.873.554-6.133 1.77-.515 3.501-2.577 4.269-5.363.573-2.076.469-4.072-.133-5.522.209-.102.408-.239.609-.377-.057 2.719.897 5.026 2.374 5.958-1.204.609-2.368 1.956-3.067 3.729-1.132 2.871-.618 5.762 1.148 6.458s4.114-1.067 5.246-3.938c1.002-2.543.709-5.094-.596-6.129 1.643-.835 2.96-3.183 3.197-6.064.176-2.147-.297-4.088-1.158-5.401 1.956-1.467 3.167-4.814 2.87-8.62M99.954 62.938c-.131-1.342-.66-2.818-1.562-4.259 1.182.889 2.412 1.495 3.583 1.78.193 1.178.794 2.432 1.741 3.629-1.28-.648-2.566-1.017-3.762-1.15m42.197 11.363c.23.29.453.576.682.868-.953.004-1.787.197-2.478.543a6.9 6.9 0 0 0-.977-1.803c.962.252 1.896.387 2.773.392m-18.644-17.642-.02.004-.003-.008zm-16.337-.628c-.094-.962-.384-1.989-.879-3.029l.204-.105a9 9 0 0 0 2.177.866c.158.965.572 1.981 1.245 2.979a10.5 10.5 0 0 0-2.747-.711m2.406 14.235c-.301-.876-.8-1.767-1.483-2.63 1.723.871 3.457 1.256 4.956 1.193.274.69.715 1.378 1.273 2.042-1.681-.572-3.332-.773-4.746-.605m7.215-6.907a8.4 8.4 0 0 0-.987-1.979c1.385.554 2.736.804 3.94.753.211.53.529 1.058.91 1.578-1.369-.361-2.698-.49-3.863-.352m4.166 12.816a8 8 0 0 0-1.071-1.624c1.904.649 3.752.794 5.278.496q.402.827 1.071 1.624c-1.904-.649-3.752-.794-5.278-.496m7.216-6.907a7.5 7.5 0 0 0-.708-1.16c1.591.419 3.107.494 4.396.242q.285.586.708 1.16c-1.592-.419-3.108-.493-4.396-.242m12.507 14.254c-3.091-1.692-5.788-1.781-7.541-.904-.267-.764-.72-1.53-1.34-2.267 2.62.893 5.153.852 6.841-.023.762 1.83 2.863 3.739 6.459 4.981 1.113.384 2.209.601 3.273.689l.042.153c-1.841-.168-4.346-.774-7.734-2.629m21.002 86.199c.128-1.386-.037-2.657-.455-3.666a5.2 5.2 0 0 0 1.07-.702c.296.911.689 1.72 1.179 2.371-.658.482-1.272 1.159-1.794 1.997" style="fill:#122a89"/></svg>