<svg xmlns="http://www.w3.org/2000/svg" xml:space="preserve" viewBox="0 0 215 220"><path d="M162.4 93.585c-.003-.004-.006-.002-.009-.006a61 61 0 0 0-3.452-5.359c-4.587-6.351-9.95-11.286-15.42-14.837-2.173-1.411-10.939-6.084-23.883-6.945-6.081 0-9.634.923-11.711 2.332-2.096-1.409-5.636-2.332-11.608-2.332-12.944.861-21.709 5.534-23.883 6.945-5.47 3.551-10.833 8.487-15.42 14.837a61 61 0 0 0-3.448 5.352c-.006.007-.014.004-.02.014-6.701 10.606-13.46 29.569-12.688 39.569.433 5.611.755 7.469 3.781 11.4 3.887 5.048 4.024 3.019 3.393.32a37.8 37.8 0 0 1-.96-9.707c.732 3.143 1.816 6.008 3.309 8.663 1.771 3.149 4.532 7.819 5.368 6.871.931-1.055.622-2.855 1.862-6.333 1.234 2.773 4.125 5.636 6.172 7.543l.165.155c2.048 1.901 1.529.35 1.637-1.252.135-1.998-.024-2.535-.024-2.535s.874 1.048 3.24 3.255c1.176 1.097 4.542 3.709 3.203.44-8.417-20.549 6.426-46.914 16.23-51.079 7.982-3.391 15.684-5.24 19.741-8.901 4.058 3.661 11.759 5.51 19.741 8.901 9.804 4.165 24.647 30.529 16.23 51.079-1.339 3.268 2.028.656 3.204-.44 2.367-2.207 3.24-3.255 3.24-3.255s-.158.537-.024 2.535c.108 1.601-.411 3.153 1.638 1.252l.165-.155c2.047-1.908 4.938-4.77 6.172-7.543 1.24 3.477.931 5.277 1.862 6.333.836.948 3.597-3.722 5.368-6.871 1.489-2.648 2.57-5.504 3.302-8.637a37.8 37.8 0 0 1-.961 9.681c-.631 2.699-.494 4.728 3.393-.32 3.026-3.93 3.348-5.788 3.781-11.4.774-10.001-5.985-28.964-12.686-39.57" style="fill:#122a89"/></svg>