<svg xmlns="http://www.w3.org/2000/svg" xml:space="preserve" viewBox="0 0 215 220"><path d="M173.075 110.357c-3.279-2.098-8.562-12.11-10.568-15.098-2.377-3.542-4.233-5.533-6.713-7.42-6.658-6.2-10.568-12.086-15.032-14.399-7.026-3.641-20.785-9.013-28.285-7.611-14.67 2.741-10.826 3.632-24.047 3.951-8.926.215-16.227 4.299-22.392 9.726-6.767 3.601-10.873 9.807-10.873 9.807-1.315 1.898-4.412 7.761-5.096 10.396-1.495 5.761-1.168 6.104.167 4.065.841-1.284 2.545-2.712 4.584-4.133-.886 2.924-2.053 6.23-4.002 10.153-4.21 8.472 3.06 28.013 9.018 37.805.747 1.228-.078 8.999 2.506 6.194 0-3.517.548-12.711 1.572-18.358.105-10.571 1.162-19.551 3.193-26.741-.689 6.007-.262 6.268.869 3.922 2.389-4.955 14.011-11.18 17.47-13.758.167-.124.307-.243.468-.366-.398 1.282-.697 2.458-.809 3.343-.891 7.043-.43 7.494.88 5.064 2.6-4.822 15.502-10.754 19.333-13.231a53 53 0 0 0 1.694-1.149c-1.811 4.94-4.253 11.019-7.267 13.262-2.287 1.702-1.694 1.962 5.632-.594 3.351-1.169 10.209-5.329 12.311-6.985 0 0 3.518-2.638 6.404-6.807 1.854 3.54 3.966 6.034 7.947 8.986 3.336 2.474 14.824 8.467 16.763 13.196.756 1.844 1.212 1.989 1.332-1.205 1.6 7.279 2.349 16.1 2.27 26.289-.03 3.906.001 7.398-.022 10.847.247 2.049.586 3.61 1.214 4.152 2.009 1.735.369-7.318 4.236-11.902 6.665-7.902 9.007-24.201 7.479-27.405-.813-1.706-1.295-3.846-1.671-6.164 2.056 1.108 4.969 2.448 6.455 2.73 4.416.839 4.633.496 2.98-.562M95.708 81.952a4 4 0 0 0-.231-.605c.439-.112.88-.227 1.311-.323q-.562.46-1.08.928" style="fill:#122a89"/></svg>