<svg xmlns="http://www.w3.org/2000/svg" xml:space="preserve" viewBox="0 0 215 220"><path d="m180.993 67.098-17.754-11.992c5.506.156 10.933-2.703 13.705-7.537.236-.412-.154-.993-.602-1.024l-16.263-1.117c4.054-2.343 7.251-6.017 8.89-10.384.25-.665-.38-1.144-1.002-.968l-11.95 3.381c1.471-1.278 5.336-5.557 6.294-7.289.287-.519-.282-1.09-.805-1.022-5.973.778-11.341 3.999-21.611 1.451-2.606-.647-6.46-.847-10.294-.837 3.583-1.008 6.498-1.422 7.594-1.697 5.897-1.481 3.627-2.099.184-2.396-1.731-.149-15.013-1.303-23.43 1.533 0 0-2.688.991-6.389 3.221-10.091-5.45-21.407-5.749-21.407-5.749-4.757-.169-10.731 1.578-12.445 1.869-12.219 2.071-4.835 2.635-2.371 2.908 1.308.145 4.001.051 7.53.628-15.24 1.805-30.844 11.449-37.698 13.013-.801.183-.802 1.251.087 1.342 5.99.61 12.045-.2 17.385-2.276-5.697 5.706-13.869 9.775-22.934 11.408-.88.158-.726 1.196.087 1.342 5.152.919 10.529.678 15.459-.699-3.977 6.01-11.225 10.476-19.703 12.026-.821.15-.785 1.273.087 1.342a49 49 0 0 0 13.725-.87c-1.767 1.936-2.69 3.415-2.69 3.415-1.081 1.661-3.445 6.656-3.79 8.803-.756 4.695-.38 4.917.704 3.144.71-1.163 2.351-2.575 4.334-4.024-2.193 6.892-3.518 13.61-3.153 18.33.433 5.611.755 7.469 3.781 11.4 1.262 1.639 2.124 2.523 2.698 2.89a30 30 0 0 1-.431.923c-2.897 5.883-1.38 7.456-9.979 15.483-.524.489-.078 1.634.587 1.457 6.433-1.709 8.664-4.088 12.93-9.969-2.3 9.053-7.581 16.846-14.543 21.293-.676.432-.346 1.707.438 1.572 2.729-.47 10.618-4.926 13.346-5.396-6.397 5.667-8.624 7.922-11.449 13.694-2.812 5.747-1.444 6.19.025 4.667 1.368-1.418 2.223-2.771 8.407-6.62.73-.454 1.402-.874 2.05-1.281-3.441 6.525-9.106 13.264-10.448 17.796-.121.407.96 1.402 5.184-2.547 1.261-1.179 4.867-2.986 7.897-3.486-3.967 6.142-9.854 11.26-11.535 12.322-.435.275-.209.99.398 1.046 3.983.371 7.978-.6 11.241-2.643l-4.899 11.875c-.135.327.179.806.584.783 4.748-.265 6.138-2.229 7.97-6.173l3.04 16.736c.105.579 1.083.645 1.241.073a38 38 0 0 0 1.092-14.584c2.511 5.774 6.298 8.961 7.532 17.323.092.622.968.278 1.215-.223 2.021-4.092 1.227-11.125-.064-17.253 4.058 5.278 7.344 4.035 10.357 5.046.513.172 1.458.021 1.122-.352-.801-.89-2.587-2.311-6.406-8.607-1.951-3.216-3.262-5.448-4.733-9.092 1 1.179 10.558 6.73 8.799 4.054-.818-1.244-5.963-6.555-10.301-14.098-.164-.284 2.571 2.283 3.318 2.717 1.956 1.138 2.845 1.442 3.148 1.265-4.282-5.415-7.155-11.333-8.737-21.302-1.442-9.087-1.842-15.647-1.952-22.032l.165.155c2.048 1.901 1.529.35 1.637-1.252.135-1.998-.024-2.535-.024-2.535s.874 1.048 3.24 3.255c1.176 1.097 4.542 3.709 3.203.44-3.387-8.268-3.004-17.476-.703-25.802.279.762 1.559.809 1.872-.048 3.596-9.842 11.479-18.217 21.515-23.025-5.885 6.679-9.411 14.958-9.932 23.561-.054.889 1.384 1.227 1.835.454 7.396-12.678 10.839-15.984 17.04-20.908 2.773-2.202 5.826-3.895 8.359-5.11a23 23 0 0 0 3.28 2.155c10.652 5.851 13.976 14.131 15.503 16.455 1.362 2.072 1.894.348 1.515-3.432-.174-1.729-1.675-7.774-3.985-11.937 0 0-.974-1.794-2.814-4.355.26.103.522.214.783.319 8.491 8.385 9.641 19.02 15.186 24.591.523.525 1.116-.155 1.157-.895.048-.859-.075-2.518-.3-4.542 4.131 9.837 5.965 21.945 1.634 32.519-1.339 3.268 2.028.656 3.204-.44 2.367-2.207 3.24-3.255 3.24-3.255s-.158.537-.024 2.535c.108 1.601-.411 3.153 1.638 1.252l.165-.155c-.11 6.385-.51 12.945-1.952 22.032-1.582 9.969-4.455 15.887-8.737 21.302.303.178 1.192-.127 3.148-1.265.747-.435 3.481-3.002 3.318-2.717-4.339 7.543-9.483 12.854-10.301 14.098-1.759 2.676 7.799-2.875 8.799-4.054-1.471 3.644-2.782 5.876-4.733 9.092-3.819 6.296-5.605 7.717-6.406 8.607-.336.373.608.524 1.122.352 3.014-1.012 6.299.232 10.357-5.046-1.291 6.128-2.085 13.161-.064 17.253.247.5 1.124.845 1.215.223 1.235-8.362 5.021-11.549 7.532-17.323a38 38 0 0 0 1.092 14.584c.158.572 1.136.505 1.241-.073l3.04-16.736c1.832 3.943 3.221 5.907 7.97 6.173.405.023.719-.456.584-.783l-4.899-11.875c3.263 2.043 7.258 3.014 11.242 2.643.607-.056.833-.771.398-1.046-1.681-1.062-7.568-6.18-11.535-12.322 3.03.5 6.636 2.307 7.898 3.486 4.224 3.949 5.305 2.954 5.184 2.547-1.342-4.532-7.007-11.271-10.448-17.796.648.407 1.32.827 2.05 1.281 6.184 3.849 7.039 5.202 8.407 6.62 1.469 1.523 2.837 1.08.025-4.667-2.825-5.773-5.051-8.027-11.449-13.694 2.729.47 10.618 4.926 13.346 5.396.784.135 1.114-1.139.438-1.572-6.961-4.448-12.243-12.241-14.542-21.293 4.266 5.881 6.497 8.26 12.93 9.969.665.177 1.112-.968.587-1.457-8.599-8.026-7.082-9.599-9.979-15.483a31 31 0 0 1-.433-.926c.574-.368 1.434-1.253 2.692-2.886 3.026-3.93 3.348-5.788 3.781-11.4.327-4.232-.705-10.073-2.5-16.202 1.748.043 3.554-.116 5.736-.102.706.005 1.559-.732.888-1.156-5.446-3.438-8.227-6.858-10.759-10.276a102 102 0 0 0-2.319-5.079 52.6 52.6 0 0 0 14.392 4.881c.742.133 1.172-.927.558-1.342M48.066 108.674q-.055-.284-.124-.583a37.8 37.8 0 0 1-.96-9.707c.551 2.366 1.302 4.574 2.276 6.653a44 44 0 0 1-1.192 3.637M168.782 98.41a37.8 37.8 0 0 1-.961 9.681q-.068.292-.122.57a44 44 0 0 1-1.187-3.624c.972-2.071 1.72-4.271 2.27-6.627" style="fill:#122a89"/></svg>