<svg xmlns="http://www.w3.org/2000/svg" xml:space="preserve" viewBox="0 0 215 220"><path d="M160.584 156.434c.174-10.424 10.82-43.203 7.201-64.485-2.427-14.266-4.66-22.199-9.671-30.425-5.707-9.37-14.213-16.848-20.668-21.273-3.375-2.313-16.953-8.347-29.325-6.411-12.403-1.987-26.056 4.091-29.441 6.411-6.455 4.425-14.96 11.903-20.668 21.273-5.01 8.226-7.244 16.158-9.671 30.425-3.62 21.282 7.027 54.061 7.201 64.485.407 24.376-18.714 22.409-15.963 24.756 3.574 3.05 14.102 6.723 21.776 4.856 10.163-2.473 12.614-6.831 14.349-13.622 1.129-4.418 1.612-8.811 1.689-13.173-5.921-6.495-9.736-12.63-11.653-24.711-1.632-10.283-1.932-17.332-1.983-24.55l.007.01c.053-.898.015-1.989-.018-3.244l.001-3.948c.124-3.223.656-7.047 2.48-11.225 1.414-3.238 3.649-6.312 6.371-9.442 1.852 5.021 6.299 8.774 12.2 9.18 2.252.155 4.528-1.219 5.78-2.842.538.428 1.07.86 1.667 1.259 2.002 1.339 7.672-.704 9.355-2.368 1.634 1.594 3.517 3.007 5.706 4.122 2.426 1.235 5.88-.256 7.313-2.308.167.217.329.444.498.656 2.395 3.01 10.244.329 9.934-3.016a22.5 22.5 0 0 0 4.921 3.092c2.181 1 8.448-1.367 9.056-3.295 13.498 22.131-.694 46.746-.303 72.459.067 4.418.553 8.868 1.696 13.344 1.735 6.791 4.186 11.149 14.349 13.622 7.674 1.867 18.202-1.806 21.776-4.856 2.752-2.347-16.369-.38-15.962-24.756m-77.715-85.05.21-.215c-.54 4.038.289 8.163 2.591 11.869-3.894-1.918-4.133-7.454-2.801-11.654m14.876 11.039c-5.818-6.7-7.449-16.987.176-23.139-4.284 7.333-4.168 16.156-.176 23.139m12.671.279c-7.329-6.142-6.958-18.318-.317-25.108l.013-.016c.167.047.335.099.502.148-6.246 7.404-4.517 16.903-.198 24.976m7.422-8.653c-1.52-4.345-1.753-8.857.708-12.742.311.221.585.479.875.72-1.651 3.98-2.152 8.118-1.583 12.022m20.309 11.198c-5.99-2.747-9.608-8.268-10.345-14.284 3.595 4.463 5.716 8.046 8.704 11.941a43 43 0 0 1 1.689 2.373c-.019-.01-.028-.021-.048-.03" style="fill:#122a89"/></svg>