<svg xmlns="http://www.w3.org/2000/svg" xml:space="preserve" viewBox="0 0 215 220"><path d="M162.164 96.75c1.426-3.894-4.471-10.886-11.782-12.647-4.402-1.06-8.351-2.774-11.168-5.754-7.087-7.496-18.139-11.95-31.111-6.51-12.972-5.44-24.024-.987-31.111 6.51-2.817 2.98-6.767 4.694-11.168 5.754-7.311 1.76-13.208 8.753-11.782 12.647 2.854 7.796-9.055 4.783-7.405 17.155.428 3.209 6.696 7.295 5.113 9.303-3.568 4.529-.633 10.502 4.266 10.449 1.217 2.637 3.045 4.135 3.317 8.804.389 6.656 1.165 7.956 4.416 8.095q.334.014.704.014c4.378 0 1.279-13.459 5.335-17.991 2.054 1.258 3.023 3 6.523 1.65 3.851-1.485 3.743-6.654 2.82-13.398-.813-5.938 10.722 2.375 11.66-7.917.726-7.967 6.391-.232 17.312-3.747 10.921 3.515 16.586-4.22 17.312 3.747.939 10.293 12.473 1.979 11.66 7.917-.923 6.743-1.031 11.912 2.82 13.398 3.416 1.318 4.415-.313 6.37-1.562 3.933 4.619.902 17.902 5.251 17.902q.37 0 .704-.014c3.251-.139 4.027-1.439 4.416-8.095.273-4.675 2.105-6.171 3.322-8.814 5.037.248 8.123-5.84 4.498-10.44-1.582-2.008 4.686-6.094 5.113-9.303 1.649-12.369-10.26-9.357-7.405-17.153" style="fill:#122a89"/></svg>