<svg xmlns="http://www.w3.org/2000/svg" xml:space="preserve" viewBox="0 0 215 220"><path d="M178.873 84.911c-1.59.476-3.053.502-4.405.222.055-.143.118-.284.143-.43.968-5.761-3.573-10.68-8-13.696-1.349-.919-2.824-1.755-4.316-2.602q-.261-.749-.531-1.493c3.593-2.864 5.532-7.199 5.532-12.621 0-8.314-4.228-18.06-18.263-17.816-5.34.093-9.274 1.743-12.085 4.211l-.095-.065c-3.377-2.315-16.598-9.111-28.876-7.369-12.278-1.742-25.499 5.054-28.876 7.369l-.095.065c-2.811-2.468-6.745-4.118-12.085-4.211-14.035-.244-18.262 9.502-18.262 17.816 0 5.421 1.939 9.757 5.532 12.621q-.27.743-.531 1.493c-1.491.847-2.966 1.682-4.316 2.602-4.426 3.016-8.968 7.935-8 13.696.025.146.088.287.143.43-1.352.28-2.816.254-4.405-.222-1.204-.36-.397 1.237-.042 1.772.714 1.078 1.999 2.351 3.17 2.701 3.793 1.134 6.964.154 9.524-1.874-2.106 4.455-2.919 9.389-.395 14.109.485.907 1.633 2.095 2.649 2.361.839.219 1.335-.064.852-.968-2.564-4.794-.816-9.872 1.778-14.286.267 9.661 2.993 18.272 7.251 25.104-2.761-.624-5.935 2.397-7.146 6.863-.662 2.441-.583 4.79.048 6.577-1.584 1.446-2.694 4.136-2.757 7.275-.053 2.641.656 4.987 1.786 6.572-1.204 1.705-1.779 4.429-1.362 7.386.364 2.588 1.419 4.772 2.766 6.16-1.031 1.716-1.509 4.244-1.123 6.988.475 3.371 2.106 6.084 4.053 7.187-1.118 1.638-1.571 4.439-.648 8.13 2.249 8.997 12.493 11.595 12.999 9.24.291-1.354-3.498-2.618-4.189-11.642-.269-3.513-1.667-5.822-3.358-6.812 1.302-1.687 1.948-4.492 1.515-7.564-.364-2.588-1.419-4.772-2.766-6.16.929-1.547 1.372-3.767 1.175-6.197.081.89.155 1.782.256 2.666 1.025 8.897 3.032 15.99 5.494 20.702.804 1.539 2.047 3.254 3.026 2.788.709-.337 1.067-1.529.296-3.004-2.717-5.201-4.605-14.108-5.136-24.524-.115-2.246-.169-4.971-.184-7.984-.046-9.624.331-22.278.585-32.409.486 5.506 1.126 11.226 1.618 17.17.156 1.888 2.235 1.767 3.079-7.32 1.856-19.986 5.061-39.226 15.154-55.05.274-.185.537-.371.83-.557 2.688-1.709 12.011-1.102 20.098-6.172 7.953 5.012 17.361 4.442 20.1 6.172.292.184.554.368.826.552C139 76.688 142.206 95.93 144.062 115.918c.844 9.087 2.923 9.208 3.079 7.32.492-5.944 1.132-11.664 1.618-17.17.254 10.131.632 22.784.585 32.408-.014 3.013-.069 5.738-.184 7.984-.531 10.416-2.419 19.323-5.137 24.524-.77 1.475-.412 2.666.296 3.004.979.466 2.222-1.249 3.026-2.788 2.462-4.712 4.469-11.805 5.494-20.702.102-.883.176-1.776.256-2.666-.198 2.43.246 4.65 1.175 6.197-1.347 1.388-2.401 3.572-2.766 6.16-.433 3.072.213 5.877 1.515 7.564-1.691.99-3.09 3.298-3.358 6.811-.69 9.024-4.48 10.288-4.189 11.642.506 2.355 10.749-.243 12.999-9.24.923-3.691.469-6.493-.648-8.13 1.948-1.103 3.579-3.816 4.054-7.187.386-2.743-.092-5.272-1.123-6.988 1.347-1.388 2.401-3.572 2.766-6.16.416-2.956-.158-5.68-1.362-7.386 1.13-1.585 1.838-3.931 1.786-6.572-.063-3.139-1.173-5.829-2.757-7.275.631-1.787.71-4.137.048-6.577-1.211-4.466-4.385-7.487-7.146-6.863 4.257-6.832 6.984-15.443 7.251-25.104 2.593 4.414 4.341 9.492 1.778 14.286-.483.904.012 1.187.852.968 1.017-.266 2.164-1.454 2.649-2.361 2.524-4.721 1.712-9.654-.395-14.109 2.56 2.028 5.731 3.009 9.524 1.874 1.171-.35 2.455-1.623 3.17-2.701.352-.533 1.16-2.131-.045-1.77m-134.676-.829c.589-4.042 4.038-7.508 7.385-9.861-1.509 3.754-3.958 7.859-7.385 9.861m18.142 44.132a295 295 0 0 0-.052 4.093c-.195-1.146-.521-2.204-.972-3.101a8.3 8.3 0 0 0 1.024-.992m-1.914 13.054c.896-1.149 1.572-2.737 1.879-4.572.048 3.408.185 6.789.459 10.127-.353-2.249-1.21-4.205-2.338-5.555m92.767 5.555c.274-3.339.411-6.72.459-10.127.308 1.835.983 3.423 1.88 4.572-1.128 1.35-1.985 3.306-2.339 5.555m1.449-17.617c-.451.897-.777 1.954-.972 3.101a295 295 0 0 0-.052-4.093c.328.371.669.709 1.024.992m9.733-54.985c3.347 2.354 6.796 5.82 7.385 9.861-3.428-2.003-5.876-6.107-7.385-9.861" style="fill:#122a89"/></svg>