<svg xmlns="http://www.w3.org/2000/svg" xml:space="preserve" viewBox="0 0 215 220"><path d="M162.4 62.028c-.003-.005-.006-.003-.009-.007a75 75 0 0 0-3.452-6.344c-4.587-7.518-9.95-13.36-15.42-17.564-2.173-1.67-10.939-7.202-23.883-8.221-6.081 0-9.634 1.093-11.711 2.761-2.096-1.668-5.636-2.761-11.608-2.761-12.944 1.019-21.709 6.551-23.883 8.221-5.47 4.204-10.833 10.046-15.42 17.564a75 75 0 0 0-3.448 6.335c-.006.008-.014.005-.02.016-6.701 12.555-13.46 35.002-12.688 46.839.433 6.642.755 8.842 3.781 13.494 3.887 5.976 4.024 3.574 3.393.379a52.7 52.7 0 0 1-.96-11.49c.732 3.721 1.816 7.112 3.309 10.255.13.274.267.561.407.851 1.355 18.525 4.434 37.763 4.539 44.247.388 23.89-10.46 20.625-7.486 22.422 3.865 2.335 20.11.826 26.089-3.887 6.78-5.344 9.637-10.116 10.752-15.918a75 75 0 0 1-5.642-5.336c-6.875-7.211-11.215-13.313-13.306-26.487a178 178 0 0 1-.75-5.206c.793.442.517-.961.6-2.418.135-2.365-.024-3.001-.024-3.001s.874 1.241 3.24 3.853c1.176 1.298 4.542 4.39 3.203.521-8.417-24.325 6.426-55.534 16.23-60.464 7.982-4.014 15.684-6.203 19.741-10.536 4.058 4.334 11.759 6.522 19.741 10.536 9.804 4.93 24.647 36.139 16.23 60.464-1.339 3.869 2.028.777 3.204-.521 2.367-2.612 3.24-3.853 3.24-3.853s-.158.635-.024 3.001c.083 1.457-.193 2.86.6 2.418a182 182 0 0 1-.75 5.206c-2.091 13.174-6.431 19.276-13.306 26.487a75 75 0 0 1-5.504 5.221c1.099 5.855 3.951 10.653 10.776 16.033 5.979 4.713 22.224 6.222 26.089 3.887 2.975-1.797-7.874 1.468-7.486-22.422.106-6.53 3.228-25.997 4.568-44.644l.217-.454c1.489-3.135 2.57-6.516 3.302-10.225a52.7 52.7 0 0 1-.961 11.46c-.631 3.195-.494 5.597 3.393-.379 3.026-4.653 3.348-6.852 3.781-13.494.776-11.837-5.983-34.284-12.684-46.839" style="fill:#122a89"/></svg>