<svg xmlns="http://www.w3.org/2000/svg" xml:space="preserve" viewBox="0 0 215 220"><path d="M180.43 140.807c.801-1.913 1.113-5.176.684-8.664-.268-2.174-.783-4.035-1.412-5.425.908-1.849 1.276-5.311.821-9.002-.317-2.572-.971-4.736-1.763-6.154.604-1.96.799-4.887.419-7.973-.416-3.381-1.416-6.042-2.547-7.231.309-1.818.364-4.08.072-6.447-.416-3.381-1.416-6.042-2.547-7.232.309-1.818.364-4.08.072-6.447-.468-3.8-1.668-6.727-2.97-7.63.004-1.991-.373-4.33-1.137-6.538-1.141-3.298-2.81-5.343-4.203-5.428-.617-1.439-1.53-2.783-2.675-3.748-2.024-1.705-4.105-1.719-5.279-.287-.532-.48-1.121-.883-1.762-1.154-1.982-.84-3.848-.284-4.912 1.206-4.655-6.485-8.841-9.04-14.349-12.815-3.901-2.674-20.947-11.353-34.492-5.905l-.009.003c-5.909-.545-13.668 1.556-16.909 3.148-8.845 4.344-15.573 9.982-20.472 16.267-.933-2.004-3.045-2.863-5.311-1.903-.641.272-1.229.674-1.762 1.154-1.174-1.432-3.255-1.418-5.279.287-1.146.965-2.058 2.309-2.675 3.748-1.392.085-3.061 2.13-4.203 5.428-.764 2.208-1.141 4.547-1.137 6.538-1.301.903-2.502 3.83-2.97 7.63-.291 2.367-.237 4.629.072 6.447-1.131 1.189-2.131 3.85-2.547 7.232-.291 2.367-.237 4.629.072 6.447-1.131 1.189-2.131 3.85-2.547 7.232-.38 3.085-.185 6.013.419 7.973-.792 1.418-1.446 3.582-1.763 6.154-.454 3.69-.087 7.152.821 9.002-.629 1.39-1.144 3.25-1.412 5.425-.429 3.488-.117 6.751.684 8.664-1.306.841-2.041 4.466-1.086 10.078 1.671 9.819 8.087 13.235 8.326 10.731.138-1.44-2.245-3.03-2.953-12.783-.219-3.017-.856-5.259-1.648-6.644 1.272-.963 2.435-3.851 2.894-7.576.454-3.69.087-7.152-.821-9.002.38-.839.711-1.852.977-3.008.025 2.481.348 5.743 1.243 8.129-.655 2.267-.931 5.062-.943 7.376-.015 2.918.395 7.197 1.742 9.711-.455 2.034-.655 4.331-.665 6.285-.013 2.549.3 6.134 1.276 8.677-.884 1.878-1.375 4.739-1.37 8.338.009 7.329-1.007 10.523-1.552 12.239-.299.939-.535 1.68-.413 2.494.178 1.191 1.042 1.977 2.163 1.977l.079-.002c2.772-.089 7.028-5.19 7.809-14.53.288-3.451.186-7.225-.641-9.808 1.169-2.41 1.637-6.226 1.653-9.239.015-2.918-.395-7.199-1.742-9.712.414-1.853.61-3.911.65-5.742.418 1.872 1.025 3.364 1.732 4.195-.371 1.626-.555 3.656-.45 5.879.206 4.367 1.415 7.939 2.854 8.842-.518 1.732-.781 4.288-.543 7.592.721 10.038 6.728 14.224 7.201 11.743.272-1.426-1.929-3.303-1.705-13.161.106-4.66-.919-7.619-2.19-8.449.571-1.74.874-4.211.744-6.962-.178-3.773-1.105-6.957-2.281-8.34.371-1.626.555-3.656.45-5.879-.149-3.155-.822-5.899-1.726-7.525.522-1.726.789-4.112.665-6.742-.114-2.42-.542-4.583-1.14-6.203.885-1.657 1.399-4.678 1.236-8.135-.114-2.42-.542-4.584-1.14-6.204.622-1.165 1.051-3.003 1.198-5.205.351 1.778.81 3.545 1.426 5.263 1.46 4.067 3.716 10.093 5.944 14.136l-.074 2.02c-.423 11.51-.852 23.046.416 34.054 1.025 8.897 3.032 15.99 5.494 20.702.804 1.539 2.047 3.254 3.026 2.788.709-.337 1.067-1.529.296-3.004-2.717-5.201-4.605-14.108-5.136-24.524-.115-2.246-.169-4.971-.184-7.984-.046-9.624.331-22.278.585-32.409.486 5.506 1.126 11.226 1.618 17.17.156 1.888 2.235 1.767 3.079-7.32.311-3.353.668-6.682 1.08-9.982.198-.3.397-.611.601-.951 6.988-11.678 11.247-29.221 17.759-48.113a41 41 0 0 1 2.235-.8c-5.488 16.82-9.907 39.103-16.587 45.327-1.342 1.251 1.184 1.77 4.208-3.005 6.514-10.285 9.632-26.474 16.069-43.385q.901-.228 1.761-.433c-3.817 14.282-6.782 31.137-12.505 36.518-1.257 1.182 1.296 1.442 4.001-2.913 5.269-8.482 7.449-20.927 11.751-34.398 2.332-.608 4.22-1.269 5.356-2.405 2.727 1.803 4.776 2.855 6.416 3.538 4.068 13.033 6.278 25.022 11.398 33.264 2.706 4.355 5.258 4.095 4.001 2.913-5.53-5.199-8.485-21.111-12.121-35.063.736.204 1.38.378 1.997.612 6.029 16.315 9.144 31.797 15.448 41.751 3.024 4.775 5.551 4.256 4.208 3.005-6.309-5.878-10.602-26.077-15.682-42.473.801.495 1.67 1.039 2.581 1.629 5.831 17.475 9.977 33.515 16.508 44.43.204.34.403.651.601.951.412 3.299.769 6.628 1.08 9.982.844 9.087 2.923 9.208 3.079 7.32.492-5.944 1.132-11.664 1.618-17.17.254 10.131.632 22.784.585 32.408-.014 3.013-.069 5.738-.184 7.984-.531 10.416-2.419 19.323-5.137 24.524-.77 1.475-.412 2.666.296 3.004.979.466 2.222-1.249 3.026-2.788 2.462-4.712 4.469-11.805 5.494-20.702 1.268-11.008.839-22.544.416-34.054l-.039-1.071c3.606-5.271 6.232-11.759 7.46-19.034.207 1.621.579 2.966 1.072 3.89-.598 1.62-1.026 3.784-1.14 6.203-.163 3.457.351 6.478 1.236 8.135-.598 1.62-1.026 3.784-1.14 6.203-.124 2.63.142 5.015.665 6.742-.903 1.626-1.577 4.37-1.726 7.525-.105 2.223.079 4.253.45 5.879-1.176 1.383-2.103 4.567-2.282 8.34-.13 2.751.173 5.222.744 6.962-1.271.83-2.296 3.789-2.19 8.449.224 9.858-1.977 11.734-1.705 13.161.473 2.481 6.481-1.705 7.201-11.743.237-3.305-.025-5.86-.543-7.592 1.439-.903 2.647-4.476 2.854-8.842.105-2.223-.079-4.253-.45-5.879.706-.83 1.314-2.322 1.731-4.193.04 1.831.236 3.889.65 5.741-1.346 2.513-1.757 6.793-1.742 9.712.016 3.013.484 6.83 1.653 9.24-.827 2.584-.93 6.357-.641 9.808.781 9.34 5.037 14.441 7.809 14.53l.079.002c1.121 0 1.986-.786 2.163-1.975.122-.815-.114-1.558-.413-2.497-.546-1.716-1.562-4.91-1.552-12.237.005-3.599-.485-6.46-1.369-8.338.975-2.543 1.288-6.128 1.275-8.677-.01-1.954-.21-4.25-.665-6.284 1.346-2.513 1.756-6.794 1.741-9.712-.012-2.313-.289-5.108-.943-7.375.896-2.385 1.219-5.646 1.244-8.127.265 1.156.597 2.167.976 3.006-.908 1.849-1.276 5.311-.821 9.002.459 3.726 1.622 6.614 2.894 7.576-.792 1.385-1.429 3.627-1.648 6.644-.708 9.754-3.09 11.343-2.953 12.783.24 2.504 6.655-.912 8.326-10.731.958-5.614.223-9.239-1.083-10.08M41.814 116.111c-.061-1.495-.258-2.84-.584-3.898.376-.672.716-1.517 1.008-2.492.114 1.117.293 2.252.548 3.314-.408.888-.733 1.937-.972 3.076m3.813-27.9a25 25 0 0 1 .386-3.096c.572-.927 1.074-2.235 1.451-3.815.631.59 1.849 3.602 1.821 9.044-.011 2.209-.229 3.99-.522 5.389-.57-.718-1.266-1.165-2.118-1.182a3.3 3.3 0 0 0-.785.145 28 28 0 0 1-.285-3.544c.078-1.024.094-2.009.052-2.941m.971 9.029c.627.563 1.862 3.584 1.834 9.06-.011 2.209-.229 3.99-.522 5.389-.57-.718-1.266-1.165-2.118-1.182a2.6 2.6 0 0 0-.786.136 29 29 0 0 1-.305-4.459c.027-5.412 1.273-8.39 1.897-8.944m-2.752 24.9c.027-5.412 1.273-8.389 1.897-8.944.627.563 1.862 3.584 1.834 9.06a28.5 28.5 0 0 1-.366 4.539c-.34-.185-.708-.3-1.116-.308-.416.002-1.152.126-1.846.78-.246-1.363-.413-3.072-.403-5.127m4.035 16.097a29 29 0 0 1-.33 4.304c-.125-.023-.247-.055-.38-.058-.425.038-1.179.124-1.885.81-.206.201-.39.454-.569.72-.331-1.472-.581-3.418-.568-5.893.027-5.412 1.273-8.389 1.897-8.944.629.564 1.864 3.584 1.835 9.061m.073 34.84c-.59 7.066-3.342 10.904-4.739 11.872.06-.227.147-.499.24-.793.59-1.852 1.686-5.302 1.676-13.04-.007-5.631 1.292-7.957 1.607-8.171.525.326 1.785 3.337 1.216 10.132m.213-12.334c-.11-.071-.219-.146-.338-.199a2.38 2.38 0 0 0-1.923-.025c-.388-1.512-.694-3.645-.68-6.403.027-5.412 1.273-8.389 1.897-8.944.627.563 1.862 3.585 1.834 9.062-.014 2.852-.368 5.008-.79 6.509m1.798-28.585a16 16 0 0 0-.694-2.512c.3-1.038.514-2.182.665-3.345.208.605.432 1.158.681 1.606-.35 1.158-.574 2.622-.652 4.251m1.353-54.978c-.282 1.554-.636 2.774-.995 3.753-.584-1.205-1.36-2.057-2.377-2.27.239-1.971.24-3.867.054-5.497q.493-.311.986-.877c.743 1.692 1.911 2.196 2.673 2.331a29 29 0 0 1-.341 2.56m3.725-7.52c-1.147 1.733-2.255 2.473-2.89 2.37-.425-.048-.701-.62-.827-.956-.242-.643-.344-1.45-.337-2.336.083-.215.173-.41.252-.637a21 21 0 0 0 .884-3.559c.652.038 1.36-.122 2.092-.506-.006.752.041 1.488.2 2.169.236 1.006.65 1.834 1.2 2.472-.183.338-.369.673-.574.983m2.509-2.8c-.304-.396-.485-.901-.569-1.255-.239-1.019-.199-2.227.06-3.451a3.66 3.66 0 0 0 2.115.813 49 49 0 0 0-1.606 3.893m16.129 33.13c2.089-14.005 5.614-27.268 12.655-38.787-4.197 14.154-8.222 29.149-12.655 38.787m56.373-37.317q.376.279.75.565c6.252 11.036 9.503 23.563 11.471 36.752-4.281-9.305-8.18-23.603-12.221-37.317m28.916 2.932a3.7 3.7 0 0 1-.456 1.111 48 48 0 0 0-1.41-3.799 3.63 3.63 0 0 0 1.806-.762c.26 1.223.299 2.431.06 3.45m10.972 19.51c.17.882.307 1.915.386 3.096-.042.933-.026 1.92.052 2.944a28 28 0 0 1-.283 3.524 2.2 2.2 0 0 0-.788-.128c-.852.017-1.548.464-2.118 1.182-.292-1.399-.51-3.18-.521-5.389-.028-5.443 1.19-8.455 1.821-9.044.377 1.579.879 2.887 1.451 3.815m1.314 21.068a29 29 0 0 1-.305 4.459 2.7 2.7 0 0 0-.787-.136c-.852.017-1.548.464-2.118 1.182-.292-1.399-.51-3.18-.521-5.389-.028-5.477 1.207-8.497 1.834-9.06.622.555 1.868 3.533 1.897 8.944m-7.453-34.152c-.626.096-1.743-.637-2.89-2.37-.205-.31-.391-.645-.574-.983.55-.638.964-1.466 1.199-2.472.16-.68.206-1.417.201-2.169.733.384 1.441.544 2.093.506.189 1.177.478 2.386.884 3.559.079.227.169.422.252.637.007.886-.095 1.692-.338 2.336-.126.336-.403.908-.827.956m.492 2.588c.763-.134 1.931-.638 2.674-2.33.329.376.659.671.986.877-.185 1.63-.185 3.526.055 5.497-1.016.213-1.791 1.063-2.374 2.265-.362-.978-.717-2.196-.998-3.747a29 29 0 0 1-.343-2.562m1.696 57.54c-.078-1.63-.302-3.094-.652-4.252.249-.448.473-1.001.681-1.606.151 1.163.366 2.308.665 3.345-.288.767-.516 1.62-.694 2.513m1.007 22.076c-.028-5.477 1.207-8.499 1.834-9.062.624.554 1.87 3.532 1.897 8.944.014 2.758-.292 4.89-.68 6.402a2.4 2.4 0 0 0-1.922.025c-.119.053-.229.128-.34.2-.421-1.502-.775-3.658-.789-6.509m1.076-15.998c-.028-5.477 1.207-8.497 1.834-9.06.624.554 1.87 3.532 1.897 8.944.013 2.475-.237 4.421-.568 5.893a4.6 4.6 0 0 0-.569-.72c-.705-.688-1.456-.822-1.885-.81-.133.003-.255.035-.38.058a29 29 0 0 1-.329-4.305m4.425 45.918c.093.29.179.561.238.791-1.397-.97-4.147-4.807-4.736-11.87-.569-6.797.692-9.805 1.058-10.128.474.209 1.772 2.535 1.764 8.166-.01 7.74 1.087 11.188 1.676 13.041m-.793-56.887c-.694-.656-1.427-.777-1.847-.781a2.4 2.4 0 0 0-1.116.308 28.4 28.4 0 0 1-.366-4.539c-.028-5.477 1.207-8.497 1.834-9.06.624.554 1.87 3.532 1.898 8.944.011 2.055-.156 3.764-.403 5.128m2.435-11.156c-.239-1.139-.564-2.188-.973-3.075.255-1.062.434-2.198.548-3.314.292.974.633 1.818 1.008 2.491-.324 1.056-.522 2.403-.583 3.898" style="fill:#122a89"/></svg>