<svg xmlns="http://www.w3.org/2000/svg" xml:space="preserve" viewBox="0 0 215 220"><path d="M160.737 116.591c-.04-2.965-.706-6.174-1.779-8.833-1.536-5.461-5.148-15.213-8.498-20.425-1.803-2.805-3.153 2.192-5.127 1.912.041-.584.169-1.625.255-2.184.467-3.062 1.956-4.047-.174-4.513-1.16-.254-2.633 1.761-3.831 1.623-.657-.836-.585-2.493-1.862-4.697-1.172-2.443.22-5.536-1.595-3.599-1.014 1.082-1.787 3.229-1.933 4.788-2.433-2.474-3.405-8.102-4.626-5.483-.375.833-1.729 4.876-1.729 4.876-.903-.093-2.437-7.939-3.131-7.001-1.06 1.433-1.916 3.262-2.613 5.274-.804-2.902-1.518-5.672-1.874-7.855-.216-1.323-4.177 3.636-4.98 3.384 0 0-1.192-4.705-1.523-5.712-1.078-3.182-2.844 1.881-5.014 3.5-.126-1.669-.807-4.189-1.705-5.7-1.609-2.704-1.822.406-2.871 2.481-1.141 1.787-1.525 3.337-2.111 3.948-1.065-.32-4.217-3.776-5.249-3.961-1.895-.34-.574 1.254-.167 4.602.074.611.184 2.2.219 2.82-1.756-.473-5.126-7.529-5.337-5.497-.205 1.984-.982 4.53-1.882 7.24-.647-1.716-1.423-3.269-2.351-4.523-.694-.938-2.228 6.908-3.131 7.001 0 0-1.354-4.043-1.729-4.876-1.221-2.62-2.193 3.009-4.626 5.483-.147-1.559-.919-3.706-1.933-4.788-1.815-1.936-.423 1.156-1.595 3.599-1.276 2.204-1.204 3.861-1.862 4.697-1.198.138-2.671-1.877-3.831-1.623-2.13.466-.641 1.452-.174 4.513.085.559.214 1.599.255 2.184-1.975.28-3.894-4.955-5.127-1.912-2.234 5.512-6.546 14.581-8.34 20.028-1.169 2.73-1.896 6.117-1.937 9.229-.15 11.236-1.328 20.916 1.502 24.861.335.467 2.715 1.688 3.494 7.959.044 2.469 2.114 5.977 3.576 5.681 1.155-.234 1.931-2.844 1.024-10.232-.472-3.843 4.838-13.862 4.985-18.475.088-2.174-.45-6.267-1.188-10.408.786.952 1.656 1.589 3.084.409 1.481-1.223 3.01-6.532 2.934-7.916 1.444 1.416 2.71 8.529 9.475-3.973.555 1.61 3.151 6.63 5.144 4.011 1.441-1.894 2.514-3.056 3.745-6.427 1.595 1.887 3.433 3.298 5.291 3.473 1.859.429.486-4.819 1.477-3.642 1.429 1.697 3.804 4.993 6.025 3.827 1.32-.693 3.041-2.897 2.977-4.358 2.123.521 4.076 8.541 8.957.303.489 1.88 2.446 4.141 4.225 2.201.362-.394.79-.782 1.246-1.2 1.138 2.914 2.166 4.046 3.517 5.823 1.993 2.619 4.589-2.401 5.144-4.011 6.765 12.502 8.031 5.389 9.475 3.973-.076 1.384 1.454 6.693 2.934 7.916 1.428 1.179 2.298.543 3.084-.409-.738 4.141-1.276 8.235-1.188 10.408.147 4.613 5.457 14.632 4.985 18.475-.907 7.388-.131 9.998 1.024 10.232 1.462.297 3.533-3.211 3.576-5.681.779-6.271 3.159-7.492 3.494-7.959 2.828-3.946 1.65-13.626 1.5-24.861" style="fill:#122a89"/></svg>