<svg xmlns="http://www.w3.org/2000/svg" xml:space="preserve" viewBox="0 0 215 220"><path d="M171.353 106.56c-2.427-14.266-6.155-23.195-11.165-31.421-5.707-9.37-12.752-16.908-21.664-21.274-3.582-1.754-16.72-7.176-28.874-5.576-15.895-4.612-28.269 4.132-31.829 6.573C71.365 59.287 62.86 68.26 57.153 77.63c-5.01 8.226-9.735 20.642-12.162 34.908-3.62 21.282.846 36.285 6.246 45.959 6.433 11.525 9.836 12.254 9.836 7.121 0 0 8.464 14.417 6.549 3.042-3.347-19.877-7.962-38.177-5.619-49.166.589-.218 1.17-.462 1.745-.722 1.568-.71 3.077-1.553 4.501-2.416 4.565-2.768 8.696-6.226 12.628-9.819 3.789-3.462 7.388-7.151 10.716-11.059 3.136-3.683 5.578-7.852 8.674-11.556 2.704-3.236 5.853-6.329 9.388-8.797-3.761 4.912-6.652 10.708-9.748 15.767-5.064 8.274-11.359 18.257-21.563 20.397-.757.159-2.479.936-2.202 1.968.29 1.083 2.178.752 2.891.603 17.43-3.654 24.663-22.493 33.502-35.744q.228-.34.46-.682c-.394 2.058-.953 4.096-1.486 6.038-1.34 4.888-3.042 9.705-5.174 14.305-2.903 6.264-7.703 11.044-14.703 12.298-.848.152-2.756.588-2.908 1.678-.15 1.079 1.484 1.124 2.174 1.001 8.798-1.576 15.885-6.315 19.895-14.357 2.33-4.672 4.107-9.658 5.538-14.673.375-1.315.747-2.662 1.083-4.025 4.992 8.61 11.403 16.481 18.545 23.323 4.787 4.586 10.246 9.121 16.262 12.405-.04 11.166.301 19.24-1.998 33.726-.794 5.004-1.914 8.984-3.373 12.395 1.433 3.868 2.296 7.078 2.96 8.637 1.403 3.297 6.186-7.426 6.186-7.426 4.236 5.679 3.926 3.465 7.88-5.171 5.476-11.955 11.097-29.746 7.477-51.028m-70.308-29.27c-4.278 3.946-7.306 8.591-10.762 13.195-5.886 7.841-13.213 15.051-21.113 20.845-1.639 1.202-3.477 2.544-5.428 3.632-.058.032-.113.069-.171.101.052-.098.117-.184.171-.28.516-.923 1.093-1.785 1.821-2.5 10.199-10.013 13.835-14.749 23.987-27.15 6.263-7.65 12.511-10.881 17.296-12.499-2.046 1.401-3.98 2.976-5.801 4.656m37.992 23.815c-6.025-5.846-11.531-12.423-16.058-19.568 3.386 3.184 7.29 6.93 11.808 11.364 7.497 7.357 12.757 13.967 15.526 17.698-4.091-2.85-7.867-6.187-11.276-9.494" style="fill:#122a89"/></svg>