<svg xmlns="http://www.w3.org/2000/svg" xml:space="preserve" viewBox="0 0 215 220"><path d="M174.323 133.57c3.146-4.157 5.278-9.439 3.838-15.337-2.922-11.969 4.401-17.602-.627-24.643-10.625-14.878-5.18-26.09-27.555-47.587-.15-.143-.297-.295-.448-.436l-.041-.04c-.001-.001 0 .003-.001.002a56 56 0 0 0-5.969-4.873c-2.173-1.53-10.939-6.596-23.883-7.529-6.025 0-9.57 1.021-11.659 2.572-2.089-1.551-5.634-2.572-11.659-2.572-12.944.933-21.709 5.999-23.883 7.529a55.5 55.5 0 0 0-5.969 4.873c-.001.001 0-.003-.001-.002l-.041.04c-.15.141-.298.292-.448.436C43.602 67.5 49.047 78.712 38.422 93.59c-5.028 7.041 2.295 12.674-.627 24.643-1.44 5.898.692 11.179 3.838 15.337 4.041 5.34 2.358.713 2.553-2.285.284-4.388.931-6.649 1.749-8.536.382 1.879.695 3.875.823 5.994.595 9.831-3.616 14.609-1.708 14.349 3.175-.433 3.903-1.147 5.51-3.003-.911 7.238-3.577 13.826-9.455 16.891-1.658.865.42 2.262 1.215 2.633 1.599.747 4.002 1.121 5.613.28a16.3 16.3 0 0 0 3.161-2.176c-1.138 4.994-.138 10.656 4.936 16.811 1.022 1.24 3.003 2.912 4.809 3.833-1.544 2.476-4.039 4.496-7.886 5.696-2.088.651.935 1.862 2.064 2.192 2.272.663 5.508.784 7.593.416 9.697-1.711 14.246-9.812 13.786-22.43-5.356-6.105-8.85-12.209-10.658-23.6q-.229-1.448-.425-2.815c.443-1.801 1.04-3.261 1.537-3.977 0 0 .564 2.242.359 7.035-.075 1.741-1.097 5.617 1.379 2.886 3.684-4.063 5.781-7.494 6.467-18.369.78-12.37-7.854-24.787 6.662-41.783 6.103-7.145-.323-14.188 11.109-21.106 6.823-4.129 12.098-2.777 15.154-3.431 3.055.654 8.331-.698 15.153 3.431 11.432 6.918 5.006 13.961 11.109 21.106 14.516 16.997 5.882 29.414 6.662 41.783.686 10.875 2.783 14.306 6.467 18.369 2.476 2.731 1.454-1.145 1.379-2.886-.205-4.794.359-7.035.359-7.035.497.716 1.094 2.176 1.537 3.976q-.196 1.367-.425 2.815c-1.808 11.391-5.302 17.495-10.658 23.6-.46 12.618 4.089 20.719 13.786 22.43 2.084.368 5.32.247 7.593-.416 1.129-.329 4.152-1.541 2.064-2.192-3.846-1.2-6.342-3.22-7.886-5.696 1.806-.921 3.787-2.593 4.809-3.833 5.074-6.155 6.074-11.816 4.936-16.811a16.3 16.3 0 0 0 3.161 2.176c1.612.841 4.014.467 5.613-.28.795-.371 2.873-1.769 1.215-2.633-5.878-3.066-8.544-9.654-9.455-16.891 1.606 1.855 2.335 2.57 5.51 3.003 1.909.26-2.302-4.518-1.708-14.349.128-2.119.442-4.114.823-5.994.818 1.887 1.464 4.147 1.749 8.536.192 2.999-1.491 7.626 2.55 2.286M61.966 176.105c-4.349-6.219-3.711-11.855-1.289-16.63 1.995 5.417 3.125 11.644 1.289 16.63m92.024 0c-1.837-4.986-.707-11.213 1.289-16.63 2.422 4.775 3.059 10.411-1.289 16.63" style="fill:#122a89"/></svg>