<svg xmlns="http://www.w3.org/2000/svg" xml:space="preserve" viewBox="0 0 215 220"><path d="M169.009 106.878c-2.328-12.458-4.978-19.546-18.407-32.922-6.755-6.729-22.278-17.254-32.763-18.138-12.463-1.05-31.136 8.535-31.136 8.535-16.243 0-16.833 3.556-23.115 10.426-5.306 5.803-13.404 20.026-15.028 32.099-1.338 9.942-.359 12.183 6.094 18.707 2.243 2.268 4.986 21.43 4.851 27.676-.036 1.657 1.073 13.429 3.675 10.551.035-.039.452-4.51.96-10.014.727-7.864 1.642-17.838 1.901-20.022 1.024-8.629 6.018-12.528 11.772-19.359.798-.947 1.637-1.944 2.508-2.963-1.565 3.79-2.216 7.959-1.124 12.24.359 1.406 1.571 2.661 2.585 3.239.504.287 1.999.818 1.63-.628-2.321-9.094 4.41-17.824 9.956-22.8 3.208-2.878 6.775-5.578 9.864-8.805 3.033 1.891 5.938 4.018 8.661 6.459 4.37 3.918 7.998 8.715 11.965 13.158 5.877 6.582 13.662 11.67 22.792 8.002 1.858 3.41 2.604 5.979 2.604 5.979 1.943 8.805 1.892 21.142 2.364 28.772.266 4.311.699 7.125 1.754 6.937 2.176-.387.524-4.072 3.631-10.923.79-1.742 2.879-26.335 4.822-28.546 4.857-5.528 7.855-14.074 7.184-17.66m-42.155-2.041c-3.625-4.351-7.446-8.273-11.581-11.687 2.785.531 5.356 1.798 7.505 4.165 10.22 11.253 11.61 10.606 17.72 16.699a34 34 0 0 1 2.667 3.017c-6.585-1.074-12.08-7.114-16.311-12.194" style="fill:#122a89"/></svg>