<svg xmlns="http://www.w3.org/2000/svg" xml:space="preserve" viewBox="0 0 215 220"><path d="M160.528 123.358c1.192-1.531 1.154-4.424-.017-5.878a34 34 0 0 0-1.596-1.827c.679-.565 1.103-1.989 1.059-3.271-.101-2.96-1.742-6.603-4.284-10.088 1.304-2.168 2.068-4.669 2.005-7.498-.251-11.24-11.427-19.4-21.025-22.853-9.975-3.589-21.254-3.387-31.322-.254a47 47 0 0 0-6.193 2.398c-.837.397-1.636.947-2.485 1.302-1.454.608-3.074.127-4.532-.285-2.61-.736-5.152-1.706-7.854-2.069-2.719-.365-5.44.055-8.088.697-4.241 1.029-8.578 2.995-11.192 6.635-1.11 1.546-1.866 3.3-2.281 5.154-.43 1.923-.204 4.072-1.129 5.856-1.558 3.003-5.868 3.912-8.291 6.122-1.742 1.589-3.121 3.731-3.811 5.993-.675 2.212.113 4.23.994 6.258.938 2.162 1.906 4.315-.059 6.218-3.57 3.242-6.8 8.83-4.474 13.695 1.644 3.437 5.687 4.922 9.394 5.011.16.679.469 1.314.925 1.731.088.08.179.141.269.206l-.034.043c-.761 1.075-1.008 3.22-.469 4.359.363.768.911 1.068 1.471.883-.283.392-.57.774-.841 1.199-.634.994-.809 2.928-.326 3.93.189.391.427.64.688.745-.27.748-.326 1.743-.059 2.33.351.773.983.814 1.494.052.142-.212 1.314-1.684 1.606-1.973.3-.298.946-1.233 2.085-1.741.413-.184.88-.273 1.342-.328.811-.096 1.6-.049 2.011.042.541.12 1.183-1.001 1.26-2.01.091-1.191-.279-1.904-.858-2.033-.776-.172-1.577-.139-2.382.054a7 7 0 0 0-1.547.593c.383-.336.814-.666 1.358-.924.063-.03.133-.051.199-.079 1.527-.642 3.538-.591 4.391-.423.745.147 1.591-1.411 1.665-2.798.087-1.636-.441-2.602-1.24-2.76-1.509-.297-3.072-.067-4.616.616-.88.389-1.751.945-2.605 1.621.461-.481 1.305-1.448 2.634-2.148.179-.094.331-.204.528-.285 1.815-.741 4.32-.572 5.35-.332.864.2 1.882-1.493 2-3.033.139-1.817-.454-2.919-1.379-3.134a8.4 8.4 0 0 0-1.853-.206c.208-.214.419-.424.617-.646 1.275-.244 2.461-.349 3.169-.352 1.182-.006 1.994-1.837 1.681-3.319-.225-1.069-.743-1.783-1.386-2.207.117-.348.216-.701.306-1.056 1.447-.258 2.776-.375 3.589-.38.822-.004 1.487-.731 1.853-1.685 1.942.271 3.903.334 5.801.142 3.585-.364 7.094-1.653 9.862-3.997 1.676-1.418 3.026-3.167 4.087-5.084.339-.613.709-1.259.943-1.918.002-.007.129-.237.196-.392.033.013.057.019.096.035.327.139.684.228 1.016.357 3.445 1.335 6.612 3.211 10.428 3.196a12.9 12.9 0 0 0 5.816-1.403 13.3 13.3 0 0 0 2.689-1.847c.545-.478 1.107-1.352 1.75-1.803.391.035.783.067 1.181.069.619.19 1.217.478 1.794.764 1.306.649 2.568 1.383 3.881 2.018 1.999.966 4.073 1.664 6.208 2.037-.072 2.073 1.442 4.349 3.038 4.085.21-.035.464-.067.733-.098a5.4 5.4 0 0 0-.5 1.424c-.385 1.831.617 4.091 2.076 4.098 1.352.007 4.11.318 6.511 1.096-.421-.038-.838-.102-1.264-.104-1.267-.006-2.369.901-2.738 2.65-.312 1.483.499 3.313 1.681 3.319 1.404.007 4.683.412 6.816 1.511-1.646-.535-3.296-.675-4.883-.307-.925.215-1.518 1.317-1.379 3.134.118 1.541 1.137 3.234 2 3.033 1.03-.239 3.535-.408 5.35.332.105.043.182.105.282.152 1.48.698 2.39 1.769 2.881 2.281-.932-.737-1.884-1.319-2.846-1.714-1.466-.602-2.945-.805-4.375-.523-.799.158-1.328 1.124-1.24 2.76.074 1.387.919 2.945 1.665 2.798.809-.16 2.66-.214 4.152.329.148.054.298.107.438.173.544.258.975.588 1.358.924-.594-.303-1.19-.537-1.785-.654a5.2 5.2 0 0 0-2.144.007c-.579.129-.949.842-.858 2.033.077 1.009.719 2.13 1.26 2.01.371-.082 1.05-.128 1.774-.069.536.044 1.095.139 1.579.355 1.139.508 1.784 1.443 2.085 1.741.292.289 1.464 1.761 1.606 1.973.511.762 1.142.721 1.494-.052.267-.587.211-1.582-.059-2.33.26-.105.499-.354.688-.745.483-1.002.308-2.936-.326-3.93-.271-.425-.558-.807-.841-1.199.56.185 1.107-.116 1.471-.883.539-1.139.292-3.284-.469-4.359l-.034-.043c.09-.065.182-.126.269-.206 1.044-.955 1.371-3.038.708-4.227-.234-.419-.503-.799-.756-1.197.956-1.297 1.191-3.457.467-4.755a31 31 0 0 0-1.026-1.693c.599-.149 1.185-.539 1.678-1.172m-61.664-15.462c-.107.097-.23-.041 0 0m54.945-6.705c-2.107 4.909-7.126 8.004-12.239 8.974-3.868.734-7.659-.148-11.165-1.807a28 28 0 0 1-1.734-.916c-1.308-.954-2.627-1.892-3.935-2.845-8.737-5.794-21.199-17.031-31.473-7.964-3.412 2.88-6.595 6.858-11.474 6.431 7.337 1.758 11.45-7.266 18.158-7.994 6.866-.928 12.611 3.437 18.389 6.774l5.936 3.481.145.081a8 8 0 0 0-1.085-.254c-1.215-.184-2.167-.007-3.001.38-6.554-2.446-12.756-7.495-19.925-5.226 6.773-.123 12.371 4.668 18.742 5.961-.89.666-1.718 1.513-2.713 2.318-3.676 2.974-7.922 1.283-11.739-.432-.27-.121-.551-.25-.839-.379 1.122.13 2.163.267 3.044.382-5.247-3.303-19.902-4.456-20.83 3.883 1.615-3.715 6.375-4.679 11.227-4.692-.063.045-.131.068-.193.118-.562.452-.776 1-1.075 1.643-.62 1.333-1.325 2.617-2.218 3.79-1.407 1.849-3.202 3.424-5.355 4.339-3.333 1.417-7.214 1.112-10.651.255a28.5 28.5 0 0 1-3.527-1.123c-.291-.114-1.51-.655-1.303-.551-.509-.254-2.863-.037-2.714.876 1.175 7.208-5.203 16.282-12.737 16.715-3.866.222-8.282-1.919-9.271-5.89-.774-3.106.332-6.179 2.14-8.732 5.569-3.36 9.548-9.548 10.177-16.02a91 91 0 0 1-6.234 10.39c.198-2.488-1.905-5.108-2.269-7.742-.631-4.579 3.584-8.232 7.162-10.238 7.065-1.741 13.465-6.786 16.619-13.314-3.75 3.895-7.745 7.165-12.153 9.958.69-.895 1.178-1.959 1.354-3.316.509-3.925 1.207-7.495 4.31-10.279 4.131-3.706 10.519-4.763 15.751-3.378 4.048 1.072 8.285 3.196 12.458 1.429 1.774-.751 3.402-1.801 5.203-2.521a43 43 0 0 1 7.061-2.133 46.8 46.8 0 0 1 15.679-.645c10.715 1.385 22.633 7.222 27.543 17.348 1.943 4.006 2.545 8.692.754 12.865" style="fill:#122a89"/><path d="M104.939 88.019c10.874 3.853 18.423 20.441 31.625 14.938-13.183 2.853-19.558-13.375-31.625-14.938" style="fill:#122a89"/><path d="M122.271 94.087c2.482 6.957 12.734 9.543 18.21 4.577-6.679 2.287-13.411.604-18.21-4.577M135.17 83.31c-6.11-8.312-18.405-11.89-28.026-8.178 10.187-1.102 20.025 1.779 28.026 8.178m-2.422-6.872c5.349 2.848 9.222 6.668 12.168 11.963-.393-6.107-6.061-11.666-12.168-11.963" style="fill:#122a89"/></svg>