<svg xmlns="http://www.w3.org/2000/svg" xml:space="preserve" viewBox="0 0 215 220"><path d="M154.069 158.432c-1.912 4.217-3.333 9.37-1.355 13.826.029.065.082.1.122.152.033.051.065.101.116.144.042.034.09.055.138.081.051.028.087.066.148.086.024.008.053.005.078.012.057.015.115.019.175.026.095.013.186.026.287.021l.025-.003c.137-.009.273-.03.398-.064a2 2 0 0 0 .156-.052l.021-.008q.225-.082.411-.212c.191-.122.365-.276.453-.45 1.729-2.08 3.114-4.556 3.214-7.315.088-2.413-.747-4.652-2.008-6.676-.456-.732-2.079-.229-2.379.432m.511 10.846c-.478-2.536-.075-5.181.744-7.673.377 1.062.603 2.171.562 3.305-.057 1.575-.552 3.034-1.306 4.368m-92.505-11.114c-.024-.054-.087-.081-.142-.113-.309-.181-1.025-.061-1.652.162a3.5 3.5 0 0 0-.749.354.7.7 0 0 0-.221.214l-.016.015c-1.192 1.913-1.999 4.091-1.916 6.373.1 2.758 1.506 5.169 3.261 7.217.223.261 1.185-.004 1.429-.069.36-.096 1.103-.273 1.272-.654 1.936-4.361.613-9.348-1.263-13.487zm-.633 10.617c-.723-1.346-1.204-2.81-1.261-4.364-.031-.84.098-1.654.294-2.451.731 2.208 1.172 4.544.967 6.815" style="fill:#122a89"/><path d="M179.526 112.948c.954-4.759 2.243-9.122-.716-13.469-4.771-6.761-6.673-14.513-9.651-22.099-4.027-10.261-10.774-18.527-18.599-26.168l-.008-.004c-5.491-5.069-11.464-8.45-18.658-10.517-7.127-2.048-16.856-3.847-23.741.136-2.813-1.626-6.215-2.067-9.41-2.206-4.945-.215-10.047.803-14.773 2.216-7.099 2.122-12.999 5.495-18.439 10.515l-.011.007c-6.765 6.605-12.962 13.71-17.014 22.332-2.814 5.99-4.314 12.473-7.017 18.503-1.445 3.223-3.62 5.928-5.221 9.033-1.603 3.108-1.07 6.465-.353 9.733.972 4.435 1.543 8.63.623 13.145-1.098 5.394-.349 10.25 2.64 14.936.877 1.374 2.457 4.239 4.294 4.553.486.083.908-.029 1.274-.228a27 27 0 0 1-.503 2.06c-.36 1.249-2.144 4.41-.251 5.171.754.303 1.825.133 2.792-.153a15 15 0 0 1-1.163 1.801 13.5 13.5 0 0 1-2.435 2.461c-1.045.808-2.305 1.189-3.361 1.934-1.486 1.048-.054 1.966 1.169 2.479.034.014.084.011.124.02.02.011.015.028.043.038 2.959.993 5.713.639 8.321-.535-.628 4.242 1.17 8.091 4.082 11.295.902.992 1.862 1.879 2.972 2.633.557.378 1.233.65 1.76 1.058.815.631.717.794.032 1.558-1.038 1.157-2.79 1.882-4.219 2.36-.815.273-2.216.397-2.87 1.046-1.143 1.135 1.407 1.691 2.27 1.923 2.259.606 4.722.697 7.046.563 3.83-.22 7.869-1.376 11.018-3.617a13.6 13.6 0 0 0 3.915-4.318 15.5 15.5 0 0 0 1.398-3.186 53 53 0 0 1-2.077-2.516c-3.348-4.325-5.606-8.812-7.143-15.192 1.217-.285 2.151-1.535 2.904-2.415 2.18-2.55 3.624-5.554 4.564-8.739 1.019-3.457 1.417-7.126 1.382-10.72-.005-.563-.001-1.129-.026-1.686-.354-7.767-2.828-15.294-1.339-23.103.693-3.634 2.185-6.982 4.13-10.073a43 43 0 0 1 3.063-4.265c2.523-3.1 3.552-6.12 4.09-10.045.62-4.531 2.087-7.902 5.967-10.602 4.334-3.015 8.759-3.422 13.822-3.733 7.793-.478 19.199 1.285 22.34 10.089 1.144 3.206.876 6.725 2.098 9.912.776 2.023 2.051 3.534 3.385 5.212a42 42 0 0 1 2.699 3.786 31 31 0 0 1 2.182 4.086c3.508 8.004 2.128 15.977.992 24.296a54 54 0 0 0-.498 6.307c-.075 4.007.35 8.134 1.595 11.887.721 2.174 1.71 4.226 3.053 6.049.869 1.18 2.144 3.147 3.555 3.677.216.081.435.115.651.127-1.532 6.334-3.777 10.801-7.099 15.102a52 52 0 0 1-2.086 2.532 17 17 0 0 0 1.329 3.264c2.015 3.763 5.434 6.557 10.31 7.679 3.952.909 9.522 1.171 13.156-.996 1.404-.837 1.378-1.771-.132-2.365-2.598-1.023-4.941-1.7-6.883-3.688 5.362-2.837 9.895-8.443 9.623-14.574 2.216.931 4.502 1.136 7.076.293 1.432-.469 4.71-2.281 2.274-3.704-.043-.025-.103-.029-.152-.046-.036-.019-.048-.044-.09-.062-2.64-1.166-4.59-2.951-6.005-5.104.815.157 1.652.179 2.295-.166 1.99-1.067.166-4.146-.251-5.65-.102-.368-.177-.736-.263-1.104 3.115.887 7.658-9.4 8.064-10.917.998-3.732.256-6.881-.313-10.581-.479-3.103-.215-6.201.398-9.261M69.283 164.942a42 42 0 0 0 1.963 3.004q.525.733 1.085 1.456c.5.646 1.029 1.287 1.572 1.929-.81 2.236-2.134 4.266-4.225 5.904-3.789 2.967-9.316 3.459-13.858 2.228-.441-.119-.944-.218-1.335-.457-.752-.46-.889-.249.039-.714 1.018-.511 2.185-.762 3.218-1.28 1.748-.876 3.236-2.023 4.473-3.536q.072-.132-.057-.212c-6.122-2.705-11.504-9.421-9.688-16.395.18-.69-2.207.08-2.445.24-2.166 1.452-3.994 1.847-6.464 1.042-.466-.192-1.646-.664-1.658-1.202-.01-.453 2.157-1.352 2.51-1.575a15.1 15.1 0 0 0 3.647-3.237 16.2 16.2 0 0 0 2.149-3.509c.692-.609 1.311-1.306 1.927-2.02a32 32 0 0 0 3.552-5.036c.349 5.552 1.744 11.114 5.712 15.02 1.219 1.2 3.296 2.983 5.134 3.022.061.001.108-.011.165-.012.289.718.564 1.456.884 2.134a38 38 0 0 0 1.7 3.206m104.547-7.74c.013.009.014.019.028.027.624.365-3.252 1.179-3.562 1.164-1.637-.083-3.12-1.076-4.444-1.963-.634-.425-2.528.029-2.265 1.037 1.715 6.586-3.172 13.008-9.015 15.589-.407.18-1.019.737-.627 1.217a12.7 12.7 0 0 0 4.072 3.282c.888.455 1.819.833 2.768 1.143l.716.219c.067.051.12.072.18.108-.209.062-.422.118-.607.168-4.028 1.086-8.828.637-12.578-1.206-3.12-1.534-5.102-3.991-6.272-6.862a55 55 0 0 0 1.396-1.724 49 49 0 0 0 1.085-1.456c.7-.978 1.354-1.974 1.963-3.004a39 39 0 0 0 1.701-3.206c.321-.682.598-1.424.889-2.147 1.874-.186 3.949-1.949 5.182-3.159 3.896-3.825 5.361-9.203 5.777-14.625a33.5 33.5 0 0 0 3.869 5.403c.56.639 1.122 1.238 1.75 1.752 1.567 3.502 4.113 6.446 7.994 8.243m3.346-29.339c.157 2.989-.623 5.921-1.993 8.563-.547 1.056-1.213 2.042-1.92 2.997.078-1.422-.146-2.97-.291-4.249-.246-2.166-.703-4.268-1.552-6.28a1.1 1.1 0 0 0-.418-.484c2.991-7.715-3.509-16.11-6.148-23.214.475 7.359 5.812 14.087 5.629 21.372-.825-5.396-3.396-10.563-7.395-14.135 3.15 5.066 5.133 10.49 5.974 16.176a1.3 1.3 0 0 0-.465.751c-.816 4.15-1.167 8.353-.539 12.555.227 1.52.58 3.015 1.025 4.485.114.377.228 1.066.394 1.673-.278-.056-.514-.112-.631-.169-1.311-.646-2.252-1.984-3.169-3.082-2.565-3.072-4.631-6.945-5.448-10.879-.259-1.248-2.887-.725-2.824.466.343 6.492.209 14.112-3.909 19.511a12 12 0 0 1-2.189 2.233c-.095.073-.203.127-.3.198.255-.642.483-1.258.537-1.381.458-1.043.791-2.112.975-3.238.622-3.802-.022-8.707-2.136-12.002-.669-1.043-2.465-.262-2.701.724-.596 2.491-.501 5.189-.272 7.755-.066-.073-.135-.146-.194-.219-.969-1.208-1.832-2.505-2.473-3.918-3.234-7.125-2.68-15.45-1.542-22.968 1.222-8.069 1.557-15.841-2.155-23.366-1.095-2.22-2.433-4.307-3.936-6.273-1.505-1.969-3.105-3.619-3.884-6.029-1.021-3.154-.789-6.581-2.03-9.678-1.667-4.162-5.451-7.014-9.408-8.866-3.87-1.811-7.74-1.894-11.897-2.188-7.74-.546-16.035.913-21.82 6.522-2.71 2.627-3.877 5.816-4.393 9.483-.221 1.568-.371 3.163-.825 4.686-.749 2.514-2.355 4.21-3.916 6.248-5.397 7.048-7.744 15.029-6.956 23.844.369 4.125 1.278 8.185 1.595 12.315.361 4.704-.087 9.871-1.525 14.376-.518 1.624-1.228 3.183-2.182 4.597a22 22 0 0 1-1.286 1.683c.004-.315.006-.611.021-.801.103-1.3.092-2.621.039-3.924-.05-1.238-.107-2.533-.397-3.744-.253-1.057-2.109-.82-2.584-.08-2.096 3.266-2.748 7.874-2.293 11.663.15 1.25.471 2.436.985 3.584.064.142.152.4.256.704a12.4 12.4 0 0 1-2.059-2.116c-4.142-5.431-4.35-12.977-4.004-19.516.083-1.571-2.585-1.074-2.846.182-.79 3.804-2.857 7.628-5.331 10.59-.852 1.02-1.741 2.323-2.949 2.944-.285.147-.594.236-.901.321a2.5 2.5 0 0 1-.362.054c1.025-1.929 1.445-4.776 1.757-6.869.218-1.462.277-2.927.272-4.391.188.236.347.495.552.716-.215-.392-.378-.795-.558-1.195-.046-2.576-.351-5.148-.85-7.685-.083-.421-.387-.622-.76-.688.024-2.294.324-4.604.781-6.853 1.206-5.169 3.32-12.682-1.838-16.52 3.918 4.862 1.277 10.747.118 16.166-.49 2.461-.719 5.001-.523 7.53-.243.153-.437.342-.525.55-1.309 3.101-1.959 6.705-1.808 10.07-.264-.292-.507-.569-.665-.802-.785-1.162-1.48-2.383-2.022-3.678-.924-2.208-1.432-4.589-1.315-6.989.129-2.661 1.028-5.199 1.136-7.875.145-3.602-.67-7.035-1.396-10.532-.708-3.412-.621-6.182 1.385-9.129 1.721-2.528 3.233-5.165 4.46-7.968 2.304-5.263 3.705-10.865 5.963-16.147 3.865-9.041 10.096-16.468 17.077-23.285l.008-.005c4.764-4.399 9.751-7.494 15.925-9.498 4.114-1.335 8.54-2.357 12.875-2.512 3.489-.125 7.759.247 10.697 2.327.605.428 1.45.252 2.014-.148 2.857-2.023 7.054-2.273 10.425-2.151 4.492.163 9.075 1.208 13.323 2.639 6.098 2.054 11.02 5.124 15.749 9.49l.006.003c7.882 7.697 14.533 16.095 18.416 26.491 2.761 7.392 4.803 14.824 9.417 21.361 2.475 3.636 1.499 7.386.637 11.381-.492 2.28-.869 4.576-.867 6.916.001 3.02.996 5.846 1.152 8.824" style="fill:#122a89"/><path d="M65.477 68.455a77 77 0 0 0-1.217 2.671c.936-1.41 2.3-3.421 3.342-4.77 8.166-10.757 20.006-18.462 33.104-21.762-14.748 1.202-28.495 10.741-35.229 23.861" style="fill:#122a89"/><path d="M72.984 55.186c5.646-5.804 12.437-9.435 20.392-10.936-8.049-1.146-16.887 3.604-20.392 10.936m41.756 5.959c8.005 2.715 16.95 6.615 19.781 15.168 1.199 3.265 2.062 6.948 4.155 9.858a29 29 0 0 0 3.492 4.079c-3.375-4.384-4.678-9.307-6.093-14.503-2.779-9.23-12.551-13.505-21.335-14.602m.843-3.697c7.935 2.779 14.901 6.537 21.596 11.621-4.863-6.828-13.221-11.315-21.596-11.621m2.976-2.144c5.807 1.554 10.661 3.781 15.644 7.141-3.111-5.136-9.727-8.146-15.644-7.141m-14.141-8.191c-5.8.291-11.319 1.772-16.497 4.397 5.798-.299 11.322-1.762 16.497-4.397m-55.206 74.029c3.795-4.39 4.288-11.564 1.149-16.44.704 5.752.339 10.839-1.149 16.44" style="fill:#122a89"/><path d="M53.308 120.781c3.947-7.185 3.24-16.976-1.676-23.531 2.628 7.758 3.168 15.477 1.676 23.531m111.851 4.074c-4.685-7.049-7.41-14.588-8.288-23.007-1.69 8.288 1.692 17.705 8.288 23.007m-57.903-66.952c-.36-4.622.107-8.381 1.553-12.785-3.657 2.922-4.395 9.071-1.553 12.785" style="fill:#122a89"/></svg>