<svg xmlns="http://www.w3.org/2000/svg" xml:space="preserve" viewBox="0 0 215 220"><path d="M165.95 95.604c-1.298-1.995-3.1-3.504-5.123-4.505l-.02-.019c.073-.479.113-.97.112-1.472-.011-5.261-4.108-8.895-8.697-9.552-1.391-4.365-4.835-7.54-10.227-9.149-3.685-1.1-11.123-.831-14.428 1.078-2.124-2.658-5.037-4.524-8.619-4.91-3.261-.352-6.293.54-8.857 2.249-1.921-4.032-5.387-7.006-10.467-7.537-5.633-.588-9.578 1.542-12.294 5.061-3.535-2.492-9.29-2.677-11.404 2.407a31 31 0 0 0-.44 1.136c-5.529-2.661-16.485.741-14.491 9.09-4.687-2.927-13.467-2.114-18.02 1.849-6.209 5.405-6.253 14.638-.532 18.66-8.649 4.195-10.816 13.607-8.02 20.004 3.505 8.018 12.869 14.381 27.735 11.503.438-.085.862-.209 1.29-.321 5.218-1.36 9.693-4.712 12.417-10.82 1.752 2.399 6.253 4.652 12.535 4.083 8.115-.735 13.435-4.15 16.206-11.027 2.907.456 5.929.125 8.784-1.201 3.015-1.401 5.445-3.663 7.243-6.404 3.238 1.398 6.923 1.519 10.463-.262 1.825-.918 3.371-2.305 4.65-3.953q.372.085.748.116c1.976.159 4.882-.305 7.703-1.721-.267 3.158-3.368 16.266-2.927 21.268.169 4.299 9.367 7.07 9.592 11.366.257 4.901.603 9.404.995 13.232 1.105 10.784 2.584 16.16 3.513 9.594 2.337-16.515 4.807-15.227 4.039-20.08-.358-7.012 1.104-14.43 1.051-15.77.548-.306 1.08-.643 1.574-1.048 6.476-5.319 8.512-15.883 3.916-22.945" style="fill:#122a89"/></svg>