<svg xmlns="http://www.w3.org/2000/svg" xml:space="preserve" viewBox="0 0 215 220"><path d="M160.584 156.434c.174-10.424 10.82-43.203 7.201-64.485-2.427-14.266-4.66-22.199-9.671-30.425-5.707-9.37-14.213-16.848-20.668-21.273-3.375-2.313-16.953-8.347-29.325-6.411-12.403-1.987-26.056 4.091-29.441 6.411-6.455 4.425-14.96 11.903-20.668 21.273-5.01 8.226-7.244 16.158-9.671 30.425-3.62 21.282 7.027 54.061 7.201 64.485.407 24.376-18.714 22.409-15.963 24.756 3.574 3.05 14.102 6.723 21.776 4.856 10.163-2.473 12.614-6.831 14.349-13.622 1.129-4.418 1.612-8.811 1.689-13.173-5.921-6.495-9.736-12.63-11.653-24.711a163 163 0 0 1-1.378-10.927c-.531 6.72.01 13.527 1.64 19.982 1.727 6.836 4.217 13.455 4.379 20.588.134 5.878-1.159 12.623-6.041 16.454-.654.513-1.866.961-2.701.724-.689-.196-.992-.702-.328-1.223 5.39-4.23 5.715-12.673 4.956-18.875-.829-6.776-3.479-13.126-4.802-19.796-2.063-10.402-1.349-21.714 2.022-31.867.092.136.185.26.276.4.053-.898.015-1.989-.018-3.244l.001-3.948c.124-3.223.656-7.047 2.48-11.225.26-.595.555-1.182.868-1.767-.279 4.454-.128 8.959.394 13.392.173 1.467 5.298.378 5.093-1.365-.781-6.628-.727-13.547.446-20.199a121 121 0 0 1 3.371-3.636c-1.176 7.436-.933 15.166-.402 22.574.125 1.74 5.238.656 5.093-1.365-.642-8.958-.722-19.06 1.844-27.9a234 234 0 0 0 3.325-3.487c.765-.821 1.472-1.567 2.155-2.281-.123.406-.245.813-.362 1.233-3.065 10.932-4.346 22.14-2.452 33.399.224 1.331 5.352.175 5.093-1.365-1.772-10.534-.75-20.994 1.987-31.27.794-2.981 1.559-5.818 2.917-8.468.457-.305.91-.584 1.358-.824-1.167 4.26-1.863 8.656-2.253 13.05-.754 8.499-.991 18.289 2.602 26.239.659 1.458 5.623-.192 5.093-1.365-3.508-7.761-3.379-17.356-2.643-25.662.399-4.494 1.103-8.99 2.315-13.34.038-.135.084-.273.122-.409q.632-.047 1.307-.05-.027.718-.049 1.432c-.129 3.984-.172 7.971-.314 11.954-.322 9.015-.411 18.367 2.883 26.924.882 2.291 5.949.859 5.093-1.365-3.292-8.551-3.091-17.736-2.789-26.733.128-3.821-.063-7.855.133-11.804.171.043.337.084.51.129 1.413 5.225 2.716 10.481 3.576 15.827 1.253 7.787 1.441 15.652.993 23.517-.058 1.024 4.996.329 5.093-1.365.449-7.865.26-15.73-.993-23.518-.673-4.183-1.627-8.309-2.682-12.41.631.281 1.246.583 1.844.915a76 76 0 0 1 5.162 12.789c2.558 8.451 3.938 17.917 1.064 26.466-.558 1.661 4.523 1.01 5.086-.663 2.935-8.73 1.556-18.537-1.057-27.167a78 78 0 0 0-.862-2.63 85 85 0 0 1 4.016 5.066c2.625 7.928 3.89 16.426 3.158 24.758-.218 2.486 4.953 1.703 5.143-.451.37-4.21.28-8.611-.243-13.021a39 39 0 0 1 3.494 6.6 64 64 0 0 1-.137 8.661c-.077.904 1.366 1.019 2.731.712 2.718 18.129-5.935 37.598-5.63 57.741.067 4.416.557 8.865 1.701 13.339 1.735 6.791 4.186 11.149 14.349 13.622 7.674 1.867 18.202-1.806 21.776-4.856 2.752-2.343-16.369-.376-15.962-24.752m-99.438.745c-.157-.585 1.542-1.035 1.698-.455 2.277 8.477.132 18.366-8.029 22.851-.261.143-.918.396-1.202.161-.275-.227-.15-.488.151-.653 7.783-4.277 9.527-13.921 7.382-21.904m86.201 20.677c-5.594-7.281-4.643-17.056-4.423-25.687.628-11.665 2.601-23.3 6.196-34.416-2.266 11.387-3.88 22.91-4.442 34.506-.434 10.583-1.957 25.544 9.939 30.402-2.878-.619-5.402-2.498-7.27-4.805m1.114-21.378c.094 8.99 3.661 17.137 10.181 23.324-8.147-4.014-12.767-14.622-10.181-23.324" style="fill:#122a89"/></svg>