<svg xmlns="http://www.w3.org/2000/svg" xml:space="preserve" viewBox="0 0 215 220"><path d="M174.119 140.794c1.336-2.371 3.005-4.483 4.157-6.974 1.651-3.574 2.506-7.453 2.114-11.389-.327-3.285-1.507-6.344-2.668-9.405-1.12-2.953-2.232-6.009-2.14-9.215.093-3.197 1.581-6.029 1.495-9.264-.14-5.263-1.735-10.501-3.737-15.512-1.931-6.679-5.091-12.972-8.442-19.036-1.763-3.19-3.619-6.327-5.509-9.442-1.697-2.798-3.324-5.649-5.597-8.032-1.121-1.175-2.365-2.209-3.663-3.175-3.744-3.177-8.028-5.739-12.601-7.735-4.22-1.891-8.725-3.289-13.194-4.272-3.454-.759-6.987-1.273-10.527-1.34a41 41 0 0 0-2.228.018 47 47 0 0 0-3.887.095c-.079.008-.158.023-.238.032-6.717-.368-13.694.824-20.102 2.629-8.253 2.325-16.259 6.101-22.676 11.865a37.5 37.5 0 0 0-5.734 6.526 49 49 0 0 0-4.671 7.458c-3.072 6.084-6.21 12.169-9.028 18.375-2.49 5.484-5.032 11.39-5.889 17.45-.219 1.304-.393 2.61-.453 3.917-.149 3.228 1.198 5.94 1.446 9.09.258 3.272-.765 6.428-1.903 9.449-1.078 2.86-2.246 5.718-2.73 8.754-.607 3.815-.036 7.668 1.42 11.23.983 2.405 2.302 4.653 3.755 6.801 1.154 1.706 1.793 3.276 1.76 5.376-.062 3.958-1.683 7.817-2.835 11.547-1.092 3.535-2.208 7.486-1.241 11.183.958 3.661 4.753 6.112 4.392 10.191-.209 2.359-1.879 3.95-3.551 5.43-.953.844-2.237 2.078-.577 2.924 1.628.829 4.1.723 5.874.923 2.921.329 5.856.538 8.795.601 4.929.105 9.864-.168 14.721-1.037 10.004-1.79 23.782-7.943 24.003-19.048a15 15 0 0 0-.468-3.965 59 59 0 0 1-4.053-2.87 72 72 0 0 1-8.019-7.257c-7.11-7.455-10.905-13.218-12.932-25.212.709-.567.947-1.674.984-2.643.158-4.179-.705-8.438-1.104-12.587a64.4 64.4 0 0 1-.221-9.77c.418-7.757 1.961-15.597 6.037-22.317 1.331-2.195 2.819-4.203 3.767-6.613.727-1.849 1.173-3.773 1.465-5.734.539-3.617.903-6.788 2.426-9.893 6.828 9.191 13.402 20.618 24.786 24.346 1.499.491 3.765 1.207 5.326.492.228-.104.394-.213.531-.323.362.201.71.431 1.078.617 1.585.801 3.244 1.168 4.868 1.814 1.986.789 3.91 3.026 5.662 4.31 3.406 2.497 7.181 4.851 11.371 5.737.595.126 2.673.432 3.861.006 2.102 1.385 4.129 2.866 5.89 4.74a24.4 24.4 0 0 1 3.257 4.312c1.21 2.056 1.636 4.501 2.268 6.786a555 555 0 0 1 1.612 5.933 163 163 0 0 1-1.287 9.993c-1.743 10.982-4.878 16.822-10.503 23.216-.272.309-.558.622-.842.935-.555.611-1.124 1.226-1.725 1.857a71.4 71.4 0 0 1-8.268 7.449 56 56 0 0 1-3.668 2.59c-.388 1.416-.579 2.764-.59 4.045-.101 11.523 14.04 17.625 24.324 19.323 5.005.826 10.118 1.029 15.183.841a100 100 0 0 0 8.152-.649c1.635-.195 3.961-.085 5.441-.967 1.821-1.086.348-2.237-.863-2.896-1.951-1.06-4.026-2.042-5.605-3.646-2.085-2.117-2.256-4.75-.759-7.298 1.01-1.718 2.297-3.106 2.977-5.03.787-2.224 1.013-4.585.985-6.93-.054-4.591-1.066-9.141-.892-13.737.076-2.076.404-4.16 1.437-5.993m1.405 43.809c.017-.001.036-.013.048 0 .001.001-.015.012-.019.018q-.021.026-.117.029.05-.045.088-.047m-3.58-44.882c.003-.287-.036-.574-.045-.861 1.872-4.192 1.618-9.353-.596-13.372-2.804-4.755-4.189-9.78-3.25-15.285-2.385 5.163-1.128 11.319 1.678 16.07 1.701 3.112 2.315 6.591 1.948 10.028-.508-3.449-1.804-6.777-3.894-9.49 1.743 5.532 2.571 10.901 2.575 16.522a12 12 0 0 0-.376 1.759c-.581 4.402.343 8.88.643 13.268.32 4.684-.161 8.592-2.888 12.489-1.526 2.181-2.63 4.836-1.67 7.484.32.883.826 1.666 1.433 2.369-3.833-2.978-7.079-6.614-9.723-10.942 1.169 4.88 4.384 9.263 8.558 12.213-4.85-2.193-9.245-4.917-12.619-9.392 2.101 6.809 9.373 10.862 16.233 11.473.851.384 1.722.716 2.612.978-.57.073-1.139.147-1.71.211-2.805.315-5.622.52-8.443.592-8.678.22-17.986-.695-25.818-4.731-5.052-2.603-9.779-7.082-10.014-13.11a12.4 12.4 0 0 1 .111-2.043 65 65 0 0 0 5.892-4.444c-.292 1.693-.127 3.495.363 5.109 2.328 8.389 11.535 13.048 19.556 13.935a49 49 0 0 1-7.42-3.35c-6.051-3.209-12.294-9.195-11.719-16.37a74 74 0 0 0 2.123-1.923c-.41 3.575.456 7.164 3.393 9.508-2.024-3.722-2.025-7.576-1.376-11.475.351-.355.705-.703 1.053-1.068a96 96 0 0 0 2.684-2.923 61 61 0 0 0 2.385-2.882 49 49 0 0 0 1.085-1.456c.7-.978 1.354-1.974 1.963-3.004a39 39 0 0 0 1.701-3.206 40 40 0 0 0 1.452-3.506q.333-.922.637-1.896c.406-1.3.774-2.674 1.106-4.139q.25-1.098.472-2.267.223-1.17.421-2.415c.091-.572.173-1.124.256-1.677 1.012 5.044 1.648 10.144 1.518 15.366-.119 4.787-.543 9.684-2.08 14.248-1.397 4.148-3.895 6.881-6.755 10.037-.5.551-1.877 1.804-1.58 2.715.361 1.108 2.313.715 3.082.52 3.916-.993 6.765-4.732 8.892-7.925 11.792-17.702 6.427-39.54 2.284-58.77-.137-.638-.231-1.441-.346-2.261-.017.002-.048.017-.063.018-.363.014-.684.074-1.004.132 1.052-3.53 1.184-7.364.487-11.048-.834-4.411-2.853-8.602-5.936-11.774 2.21 4.434 3.715 8.984 4.488 13.698.477 2.905.672 5.873.574 8.916l-.156-.149a54 54 0 0 0-1.26-7.611c-1.964-8.184-5.816-15.962-11.269-22.282 3.862 6.849 6.964 13.959 9.284 21.354-3.068-7.152-8.264-13.451-14.795-17.499 6.415 6.177 11.353 13.404 14.721 21.452a64 64 0 0 1 2 5.438l-.035.011.45 2.093c.646 2.996 1.294 5.992 1.918 8.993 2.097 10.073 3.97 20.412 2.64 30.72-1.038 8.041-4.083 16.736-9.941 22.581-.756.754-1.619 1.545-2.597 2.003l-.243.114q.11-.159.23-.312c.964-1.2 2.148-2.215 3.177-3.357 2.18-2.42 3.667-5.32 4.663-8.406 2.353-7.288 2.61-15.859 1.61-23.416-1.141-8.619-3.505-17.394-6.137-25.67-2.205-6.932-9.108-10.853-14.788-14.568-5.334-3.488-9.467-7.785-13.251-12.871-4.675-6.283-9.18-12.834-15.119-18.019-1.864-1.627-3.855-3.096-6.03-4.28-.666-.363-3.21.254-2.393 1.308 5.302 6.842 10.333 13.905 15.909 20.531 3.316 3.941 6.894 7.84 10.951 11.089a70 70 0 0 1-2.218-1.629c-1.407-1.076-2.933-2.964-4.554-3.662-.839-.362-1.711-.608-2.583-.868.512-.236.849-.587.722-.931a.4.4 0 0 0-.074-.143c-.017-.021-.012-.043-.033-.063-4.577-4.466-8.686-9.369-12.748-14.299-2.13-2.585-4.249-5.178-6.406-7.74a278 278 0 0 0-3.613-4.212 206 206 0 0 0-1.702-1.919c-.718-.8-1.049-.893-2.071-1.271-.631-.233-2.883.45-2.13 1.412 4.304 5.506 8.241 11.293 12.63 16.733 2.244 2.782 4.645 5.501 7.308 7.911a57 57 0 0 1-4.623-4.015c-6.712-6.459-12.064-14.199-18.216-21.166-.688-.779-3.331.085-2.586 1.153 4.641 6.651 8.75 14.879 14.554 21.036a45 45 0 0 1-3.317-3.224c-4.759-5.151-8.486-11.168-12.776-16.695-.602-.776-2.163-.147-2.611.493-1.941 2.772-2.975 5.588-3.432 8.92-.481 3.504-.794 6.987-2.31 10.242-1.748 3.753-4.383 6.926-5.936 10.813-1.301 3.257-2.194 6.651-2.753 10.111-.823 5.087-.986 10.191-.64 15.304-.514-2.737-1.023-5.474-1.538-8.21-.895-11.574 1.253-22.87 6.392-33.336-6.188 7.841-8.959 18.489-7.717 28.465a1.5 1.5 0 0 0-.459-.068c-1.221-10.359-.917-20.701.815-31.07-3.752 9.848-4.313 21.008-1.855 31.297-.094.042-.173.092-.256.144-2.298-6.715-2.948-13.603-2.125-20.765-3.066 6.802-2.314 15.297 1.567 21.677l-.001.006c1.343 6.851 2.538 13.731 3.94 20.571.11.962.228 1.941.363 2.961.194 1.462.417 2.988.671 4.591a78 78 0 0 0 .421 2.415q.223 1.17.472 2.267c.332 1.465.7 2.839 1.106 4.139q.304.974.637 1.896c.444 1.23.927 2.393 1.452 3.506a38 38 0 0 0 1.701 3.206 42 42 0 0 0 1.963 3.004q.524.733 1.085 1.456a61 61 0 0 0 2.385 2.882 96 96 0 0 0 2.684 2.923 79 79 0 0 0 3.244 3.2c-.758 5.449-2.459 10.414-5.255 15.352 4.196-3.326 6.553-8.952 6.348-14.35 2.454 2.203 4.952 4.159 7.451 5.827.21 1.292.258 2.608.035 3.977-.996 6.123-6.398 10.137-11.76 12.423-8.467 3.61-18.188 4.076-27.254 3.46-2.806-.19-5.605-.498-8.386-.916-.209-.031-.472-.102-.69-.149.122-.05.246-.118.371-.193 3.362-.206 6.735-.999 9.774-2.697 5.717-2.974 9.414-10.483 6.569-16.642-2.015-3.722-5.381-6.147-4.74-10.681.121-1.968.884-3.908 2.177-5.506-1.59 1.328-2.607 3.307-3.031 5.39-.376 2.098-.096 4.358.907 6.328.985 1.956 2.487 3.425 3.171 5.157 2.296 5.463-.907 11.771-5.751 14.804-1.574 1.04-3.296 1.811-5.087 2.413.499-.227.994-.47 1.475-.756 3.304-1.803 5.924-5.895 4.884-9.825-.753-3.504-5.992-5.407-4.053-9.278-1.015.781-1.113 2.312-.817 3.524.587 2.346 2.818 3.909 3.259 6.153.632 3.267-1.388 6.357-4.031 8.284-.982.725-2.057 1.361-3.166 1.973.786-.886 1.487-1.921 1.865-2.613 1.337-2.446 1.042-5.143-.176-7.574-.891-1.778-2.397-3.188-3.093-5.06-.671-1.807-.682-3.741-.427-5.629.526-3.907 2.055-7.602 3.144-11.368.881-3.047 1.718-6.557.633-9.668-.67-1.921-2.111-3.512-3.132-5.25-1.291-2.197-2.356-4.543-2.979-7.02-.873-3.467-.669-6.964.3-10.385 1.618-5.71 4.865-10.974 3.806-17.131-.249-1.449-.854-2.794-1.106-4.238-.183-1.051-.2-2.122-.142-3.188l-.146-.045c.151-.148.266-.311.271-.501.21-7.171 3.216-14.173 6.151-20.6 2.787-6.102 5.87-12.092 8.894-18.08 3.725-7.377 9.325-13.796 16.363-18.171 5.46-3.394 11.897-5.565 18.108-7.085 4.253-1.041 8.661-1.713 13.05-1.565 3.896.131 7.745-.372 11.658-.006 7.111.666 14.325 2.747 20.778 5.807 2.32 1.1 4.374 2.575 6.529 3.963 2.928 1.886 5.858 3.778 8.217 6.375 2.477 2.727 4.258 6.037 6.147 9.179 2.131 3.545 4.208 7.126 6.133 10.788 1.914 3.64 3.699 7.361 5.159 11.208.156.411.291.829.438 1.242.113.013.207.055.259.159 1.414 2.789 3.783 12.574 3.783 12.574l-.071.057c.475 2.043.809 4.121.779 6.196-.046 3.064-1.501 5.81-1.507 8.891-.011 6.129 3.653 11.373 4.658 17.298.65 3.828-.012 7.646-1.551 11.187-1.057 2.436-2.628 4.568-3.894 6.833m-15.743-39.056-.043.012-.009-.109zM120.88 81.271c-4.978-5.403-9.417-11.277-13.831-17.158 5.214 5.068 9.279 11.357 13.831 17.158" style="fill:#122a89"/><path d="M85.333 163.428c-2.348 13.068-16.353 18.318-28.14 19.513 12.138 1.536 28.411-5.521 28.14-19.513M64.736 53.203C72.444 42.1 84.234 34.742 97.602 32.725c-13.558-.634-27.467 8.022-32.866 20.478m42.622-15.294c9.4 3.007 17.499 7.993 24.437 15.011-4.884-8.565-14.593-14.518-24.437-15.011m12.85-.843c7.577 4.509 13.868 10.001 19.381 16.881-3.312-8.148-10.861-14.711-19.381-16.881m13.441 1.581c7.19 5.547 12.965 11.96 17.755 19.674-2.461-8.718-9.34-16.327-17.755-19.674m-38.868 7.969c2.499-7.242 6.864-13.014 13.134-17.413-7.439 2.007-13.239 9.713-13.134 17.413" style="fill:#122a89"/></svg>