<svg xmlns="http://www.w3.org/2000/svg" xml:space="preserve" viewBox="0 0 215 220"><path d="M163.31 112.637c-.721-7.659-3.166-15.002-7.451-21.406-.015-.023-.049-.029-.067-.05-.014-.042-.024-.084-.053-.125-.834-1.214-1.736-2.333-2.668-3.413a31 31 0 0 0-8.291-10.362c-9.875-7.997-15.997-9.971-22.266-11.139-8.724-1.626-25.038-2.809-35.216 1.144-3.333 1.295-6.716 4.282-9.563 7.714-4.305-.335-8.761.8-14.138 6.743-4.536 5.014-6.87 10.876-6.88 16.286l-.021.04c-4.422 9.58-5.375 20.896-3.298 31.191 1.018 5.045 2.556 9.954 3.337 15.048.362 2.356.617 4.73 1.026 7.078.181 1.042.295 2.847 1.218 3.572 1.354 1.063 3.884-.077 4.844-1.359.06-.08.134-.158.181-.239.963-1.657 1.026-3.981 1.212-5.831.686-6.836.924-13.701 2.011-20.495a207 207 0 0 0 7.207 6.888c5.805 5.274-1.384-10.595 4.076-19.588 1.529-2.519 3.116-4.786 5.585-6.677 8.078 4.69 19.838 10.203 32.684 13.005 17.015 3.711 12.711 15.708 14.23 15.542 1.783-.194 3.348-2.364 4.218-3.65 1.727-2.554 4.068-13.424 4.068-13.424s1.269 11.349 3.732 14.201c1.971 2.282.927-3.497 4.938-9.635.682 3.152 1.127 6.37 1.479 9.534.497 4.467.744 8.953 1.121 13.43.193 2.287.09 5.646 1.443 7.641.028.041.067.058.096.097 1.601 2.115 4.979.324 5.635-1.797.827-2.674.945-5.635 1.353-8.392.469-3.163 1.163-6.245 1.944-9.341 1.864-7.385 2.993-14.592 2.274-22.231M61.381 149.204c-.197-1.16-.38-2.322-.54-3.488.006-.006.014-.008.02-.015l1.007-1.149a62 62 0 0 1-.487 4.652m1.966-21.169-1.745-1.871a.878.878 0 1 0-1.284 1.2l2.71 2.905a152 152 0 0 0-.561 5.035 101 101 0 0 0-.283 3.898l-.873-.778a.88.88 0 0 0-1.171 1.313l1.92 1.711-.061 1.073a.87.87 0 0 0-.913.259l-.576.656c-.269-1.89-.561-3.776-1.006-5.639-.682-2.856-1.449-5.702-2.073-8.576l.014.005q.058.006.115.007a.88.88 0 0 0 .87-.766l.53-4.099a.88.88 0 0 0-1.744-.225l-.307 2.375c-.135-.784-.277-1.567-.371-2.359-.19-1.606-.278-3.232-.317-4.862.044.007.083.037.128.037a.88.88 0 0 0 .798-1.246l-.928-2.018c.088-2.399.357-4.785.763-7.132l.059.117c.134.267.391.411.664.452.349 1.721.79 3.307 1.325 4.792l-.134.492a.88.88 0 0 0 .616 1.079c.047.013.094.014.141.019 1.161 2.736 2.66 5.186 4.514 7.656a76 76 0 0 0-.82 4.49m91.572 19.532c-.07.511-.157 1.02-.229 1.531-.197-1.422-.302-2.865-.388-4.282l.776.885c.039.044.091.066.136.1-.096.59-.213 1.172-.295 1.766m4.178-20.519-.376-2.905a.877.877 0 0 0-.985-.759.88.88 0 0 0-.759.984l.53 4.099a.88.88 0 0 0 .985.759c.082-.011.153-.046.225-.077-.039.198-.07.399-.112.597-.984 4.659-2.156 9.21-3.027 13.863l-.727-.829a.86.86 0 0 0-.711-.283l-.092-1.201 1.749-1.558a.88.88 0 0 0-1.171-1.313l-.747.665c-.223-2.9-.466-5.797-.829-8.684l-.033-.253 2.601-2.789a.88.88 0 0 0-1.284-1.2l-1.627 1.744c-.403-2.739-.92-5.482-1.644-8.154.139-.177.259-.35.392-.526.221-.047.431-.155.561-.36l2.068-3.235a.87.87 0 0 0 .104-.695q.372-.724.679-1.429l.475 1.743a.878.878 0 1 0 1.696-.462l-.978-3.591a.86.86 0 0 0-.215-.364c1.069-3.623 1.01-6.851.739-9.73a47 47 0 0 1 1.659 5.322l-.921 1.842a.88.88 0 0 0 .786 1.272.87.87 0 0 0 .727-.422c.444 2.321.723 4.673.84 7.038l-.888 1.932a.878.878 0 0 0 .798 1.245c.054 0 .1-.034.153-.044a53 53 0 0 1-.641 7.758" style="fill:#122a89"/><path d="M60.397 123.552q.08.015.16.015a.88.88 0 0 0 .863-.721l.39-2.143a.88.88 0 0 0-1.73-.316l-.39 2.143a.88.88 0 0 0 .707 1.022m.352 12.872.041-.001a.877.877 0 0 0 .836-.919l-.194-4.092c-.022-.484-.417-.876-.918-.836a.88.88 0 0 0-.836.92l.194 4.09c.021.471.41.838.877.838m95.499-13.894-.39-2.143a.88.88 0 0 0-1.73.316l.39 2.143a.88.88 0 0 0 1.73-.316m-.824 8.047c-.453-.035-.894.352-.918.836l-.194 4.092a.877.877 0 1 0 1.754.082l.194-4.09a.88.88 0 0 0-.836-.92" style="fill:#122a89"/></svg>