<svg xmlns="http://www.w3.org/2000/svg" xml:space="preserve" viewBox="0 0 215 220"><path d="M160.793 166.14c.159-9.807 7.123-48.789 4.625-70.348.433-2.698.253-5.399-.41-7.236 2.571-5.285 2.364-10.563.254-14.419-.586-1.071-1.167-1.901-1.716-2.535.234-2.126.246-4.173.009-5.951-.753-5.658-3.374-9.704-7.978-11.652-.533-.226-1-.396-1.437-.542-.667-3.277-2.068-5.929-4.801-8.283-1.241-1.07-4.421-2.083-6.163-1.538-4.279-8.321-8.669-9.43-15.611-7.49-2.024-2.006-4.786-3.259-7.698-3.21a8.8 8.8 0 0 0-3.449.763c-1.441-2.005-3.673-3.342-6.352-3.342-3.005 0-5.938 1.949-7.308 4.689-.27.057-.533.154-.797.241a8.77 8.77 0 0 0-5.865-2.351c-2.912-.048-5.674 1.205-7.698 3.21-6.941-1.941-11.331-.832-15.611 7.49-1.742-.545-4.922.469-6.163 1.538-2.732 2.355-4.133 5.006-4.801 8.283-.437.146-.904.316-1.437.542-4.604 1.948-7.225 5.994-7.978 11.652-.237 1.778-.224 3.826.009 5.951-.549.634-1.131 1.465-1.716 2.535-2.11 3.857-2.317 9.135.253 14.419-.711 1.97-.873 4.937-.311 7.823-2.308 21.672 4.531 60.042 4.689 69.761.388 23.89-10.46 20.625-7.486 22.422 3.865 2.335 20.11.826 26.089-3.887 6.78-5.344 9.637-10.116 10.752-15.918a75 75 0 0 1-5.642-5.336c-6.875-7.211-11.215-13.313-13.306-26.487-2.239-14.107-1.973-22.132-1.995-32.855l.015-.094c.951-4.766 2.074-9.135 2.698-11.489.656-2.394 1.516-5.33 2.865-9.223 3.915-1.324 9.69-4.547 5.799-8.194a11 11 0 0 1-2.99-4.733c.16.261.311.526.482.781 3.915 5.846 12.34 2.214 11.265-4.531 2.57.223 4.988-1.394 6.094-3.649 1.776.327 3.638-.122 5.032-1.662a7 7 0 0 0 1.575-.852c2.654 1.584 5.991 1.943 8.611.255 1.434 1.545 3.419 2.526 5.72 2.526 2.725 0 5.397-1.601 6.896-3.942.062-.032.116-.072.177-.105a7.2 7.2 0 0 0 2.976 2.118c1.394 1.539 3.256 1.989 5.032 1.662 1.106 2.255 3.523 3.872 6.094 3.649-1.076 6.744 7.349 10.377 11.265 4.531.171-.256.322-.52.482-.781a11 11 0 0 1-2.99 4.733c-3.891 3.647 1.884 6.87 5.799 8.194a140 140 0 0 1 2.866 9.228c.624 2.354 1.746 6.721 2.697 11.483.006.028.01.065.015.094-.022 10.723.244 18.748-1.995 32.855-2.091 13.174-6.431 19.276-13.306 26.487a75 75 0 0 1-5.504 5.221c1.099 5.855 3.951 10.653 10.776 16.033 5.979 4.713 22.224 6.222 26.089 3.887 2.974-1.796-7.874 1.469-7.486-22.421m2.018-90.375c.257 1.537.034 2.938-.388 4.119-.124-.498-.253-.982-.381-1.463.293-.869.55-1.758.769-2.656M53.637 80.161c-.484-1.234-.76-2.74-.483-4.396.241.991.527 1.973.86 2.929q-.192.721-.377 1.467m7.649-20.034c-.635.695-1.332 1.888-2.027 3.393-.268-1.676.019-3.815 2.09-5.969a52 52 0 0 0-.063 2.576m95.419 3.393c-.694-1.505-1.392-2.698-2.027-3.393a52 52 0 0 0-.063-2.576c2.07 2.154 2.358 4.293 2.09 5.969" style="fill:#122a89"/></svg>