<svg xmlns="http://www.w3.org/2000/svg" xml:space="preserve" viewBox="0 0 215 220"><path d="M153.951 88.96c-4.577-6.72-9.893-11.562-22.747-16.875-6.758-2.794-15.364-3.699-23.226-3.699s-16.468.906-23.227 3.699C71.897 77.399 66.582 82.24 62.004 88.96c-6.006 8.817-8.443 19.64-7.501 31.655.389 4.962 2.316 11.587 3.21 15.402 1.626 6.937 1.776 15.53 3.356 15.595 1.781.074 2.174-4.849 2.675-11.714.793-10.873 1.859-26.632 9.147-35.22 6.418-7.562 12.089-8.895 17.621-7.724 7.073 1.498 14.593 1.934 17.348 1.975.041.001.08-.031.118-.077.038.046.077.078.118.077 2.755-.041 10.275-.477 17.348-1.975 4.069-.862 8.215-.357 12.677 2.974l2.195-4.36-6.66-.777a.37.37 0 0 1-.295-.197.31.31 0 0 1 .034-.328l9.421-12.223a.406.406 0 0 1 .497-.101c.169.087.237.276.154.434l-4.968 9.6c.938.118 2.028.236 3.118.354 1.298.141 2.594.282 3.641.422a.39.39 0 0 1 .298.208c.09.19.182.411-5.995 8.124 1.146.999 2.313 2.188 3.506 3.595.231.273.445.565.664.851l8.187-10.622a.406.406 0 0 1 .497-.101c.169.087.237.276.154.434l-6.568 13.849-.001-.001c4.675 8.895 5.542 21.602 6.214 30.81.501 6.864.894 11.787 2.675 11.714 1.58-.065 1.73-8.658 3.356-15.595.894-3.815 2.821-10.44 3.21-15.402.939-12.016-1.498-22.838-7.504-31.656" style="fill:#122a89"/></svg>