<svg xmlns="http://www.w3.org/2000/svg" xml:space="preserve" viewBox="0 0 215 220"><path d="M174.123 83.485c.116-9.655 3.544-19.179-.314-29.372-7.231-19.103-28.646-23.635-37.955-22.638-5.147.551-10.899 1.659-13.712 4.468-6.187-1.593-13.32-2.169-19.69.393l-.009.003c-2.466-.228-5.252.009-7.9.474-2.418-3.458-8.792-4.734-14.44-5.339-9.309-.997-30.724 3.535-37.955 22.638-3.859 10.193-.431 19.717-.314 29.372.181 15.017-16.913 26.899-2.305 49.329 4.742 7.281-3.283 15.029 5.041 28.908 3.391 5.655-5.18 13.964 2.106 22.558 2.843 3.353 9.056 5.326 10.793 3.908 3.645-2.976-2.91-1.08-1.316-11.357 1.242-8.003 3.814-12.73 8.281-16.59 1.084 5.145 2.524 9.41 4.179 12.578.804 1.539 2.047 3.254 3.026 2.788.709-.337 1.067-1.529.296-3.004-1.933-3.7-3.434-9.296-4.338-15.955 1.21-2.19 1.796-4.969 1.825-8.031-1.121-2.482-2.058-5.255-2.808-8.522-.046-9.624.331-22.278.585-32.409.486 5.506 1.126 11.226 1.618 17.17.156 1.888 2.235 1.767 3.079-7.32.311-3.353.668-6.682 1.08-9.982.198-.3.397-.611.601-.951 6.988-11.678 11.247-29.221 17.759-48.113a41 41 0 0 1 2.235-.8c-5.488 16.82-9.907 39.103-16.587 45.327-1.342 1.251 1.184 1.77 4.208-3.005 6.514-10.285 9.632-26.474 16.069-43.385q.901-.228 1.761-.433C95.205 70.475 92.24 87.33 86.517 92.711c-1.257 1.182 1.296 1.442 4.001-2.913 5.269-8.482 7.449-20.927 11.751-34.398 2.332-.608 4.22-1.269 5.356-2.405 2.727 1.803 4.776 2.855 6.416 3.538 4.068 13.033 6.278 25.022 11.398 33.264 2.706 4.355 5.258 4.095 4.001 2.913-5.53-5.199-8.485-21.111-12.121-35.063.736.204 1.38.378 1.997.612 6.029 16.315 9.144 31.797 15.448 41.751 3.024 4.775 5.551 4.256 4.208 3.005-6.309-5.878-10.602-26.077-15.682-42.473.801.495 1.67 1.039 2.581 1.629 5.831 17.475 9.977 33.515 16.508 44.43.204.34.403.651.601.951.412 3.299.769 6.628 1.08 9.982.844 9.087 2.923 9.208 3.079 7.32.492-5.944 1.132-11.664 1.618-17.17.254 10.131.632 22.784.585 32.408-.749 3.267-1.687 6.04-2.808 8.522.029 3.062.615 5.841 1.825 8.031-.904 6.659-2.405 12.255-4.338 15.955-.77 1.475-.412 2.666.296 3.004.979.466 2.222-1.249 3.026-2.788 1.655-3.168 3.096-7.434 4.179-12.578 4.466 3.86 7.039 8.586 8.281 16.59 1.594 10.277-4.961 8.381-1.316 11.357 1.738 1.419 7.951-.555 10.793-3.908 7.286-8.595-1.285-16.903 2.106-22.558 8.324-13.879.298-21.627 5.041-28.908 14.61-22.427-2.485-34.309-2.304-49.326M41.457 124.75c-11.696-24.975 11.644-24.094 5.855-48.121 8.488 23.599-15.015 23.246-5.069 47.767.848 2.235 1.985 4.356 3.258 6.414-1.597-1.825-2.908-3.895-4.044-6.06m8.097 50.2c1.687-2.666 2.382-5.771 2.166-8.731-.247-4.615-3.787-8.383-5.094-12.842-1.387-4.633-.734-9.968 1.924-13.956-2.24 5.867-1.643 12.224 1.551 17.582 1.491 2.778 3.085 5.879 2.99 9.167.008 3.299-1.302 6.542-3.537 8.78m10.299-32.479c-.577 4.868-2.233 9.498-4.359 13.821 1.763-4.478 3.228-9.13 3.501-13.897.385-4.76-.623-9.468-3.078-13.581-4.858-8.137-10.335-18.035-6.636-27.824.948-2.409 2.521-4.334 3.432-6.401.951-2.026.997-4.352.891-6.73-.188-4.723-1.449-9.378-2.302-14.153-2.221-9.367-.565-20.514 7.317-26.822-7.243 6.837-8.443 17.305-5.997 26.559.722 3.234 1.526 6.503 2.058 9.845-.221 3.146-.211 6.594.205 10.085a10.3 10.3 0 0 1-.636 1.889c-1.032 2.356-2.549 4.256-3.335 6.373-3.572 9.202 1.786 18.509 6.196 26.543 2.385 4.295 3.337 9.416 2.743 14.293m2.848-24.407a813 813 0 0 0-.327 10.195c-.214-.28-.414-.572-.637-.844-8.07-9.84-7.664-18.145-5.425-27.112.163.538.33 1.076.52 1.605 1.46 4.067 3.716 10.093 5.944 14.136zm-5.705-47.221c-1.037-4.891-1.25-10.049 2.46-17.357 3.419-6.734 8.303-10.029 19.053-9.982-11.289 7.395-18.2 17.178-21.513 27.339m16.685 31.549c2.089-14.005 5.614-27.268 12.655-38.787-4.197 14.154-8.222 29.15-12.655 38.787m56.373-37.317q.376.279.75.565c6.252 11.036 9.503 23.563 11.471 36.752-4.281-9.304-8.18-23.602-12.221-37.317m8.742-21.571c9.828.226 14.429 3.531 17.703 9.981 3.664 7.218 3.501 12.337 2.498 17.174a49 49 0 0 0-5.253-11.895c-5.146-8.447-9.426-11.498-14.948-15.26m14.785 84.755a812 812 0 0 0-.327-10.195l-.039-1.071c3.007-4.394 5.316-9.647 6.723-15.481 1.966 8.51 1.987 16.506-5.72 25.903-.222.272-.423.564-.637.844m2.988 14.136c.273 4.767 1.738 9.418 3.501 13.896-2.127-4.323-3.782-8.952-4.36-13.821-.594-4.878.357-9.996 2.744-14.294 4.408-8.029 9.768-17.345 6.195-26.543-.785-2.117-2.303-4.017-3.335-6.373-.071-.156-.124-.316-.186-.473.324-2.994.42-6.1.239-9.304a91 91 0 0 0-.265-3.452c.523-2.905 1.208-5.762 1.839-8.589 2.446-9.249 1.246-19.73-5.997-26.559 7.882 6.318 9.537 17.45 7.316 26.822-.853 4.775-2.114 9.431-2.301 14.153-.107 2.378-.06 4.704.891 6.73.911 2.067 2.484 3.992 3.433 6.401 3.698 9.791-1.778 19.685-6.636 27.824-2.455 4.112-3.464 8.823-3.078 13.582m12.368 10.982c-1.307 4.458-4.848 8.228-5.094 12.842-.216 2.961.479 6.066 2.166 8.731-2.235-2.238-3.545-5.481-3.537-8.78-.095-3.287 1.498-6.389 2.99-9.167 3.194-5.358 3.791-11.716 1.551-17.582 2.658 3.989 3.311 9.322 1.924 13.956m5.169-28.627c-1.137 2.165-2.448 4.235-4.044 6.06 1.273-2.058 2.41-4.179 3.258-6.414 9.945-24.525-13.557-24.164-5.069-47.767-5.79 24.02 17.551 23.153 5.855 48.121" style="fill:#122a89"/></svg>