<svg xmlns="http://www.w3.org/2000/svg" xml:space="preserve" viewBox="0 0 215 220"><path d="M160.584 156.434c.174-10.424 10.82-43.203 7.201-64.485-2.427-14.266-4.66-22.199-9.671-30.425-5.707-9.37-14.213-16.848-20.668-21.273-3.375-2.313-16.953-8.347-29.325-6.411-12.403-1.987-26.056 4.091-29.441 6.411-6.455 4.425-14.96 11.903-20.668 21.273-5.01 8.226-7.244 16.158-9.671 30.425-3.62 21.282 7.027 54.061 7.201 64.485.407 24.376-18.714 22.409-15.963 24.756 3.574 3.05 14.102 6.723 21.776 4.856 10.163-2.473 12.614-6.831 14.349-13.622 1.129-4.418 1.612-8.811 1.689-13.173-5.921-6.495-9.736-12.63-11.653-24.711-1.632-10.283-1.932-17.332-1.983-24.55l.007.01c.055-.926.015-2.074-.018-3.38l.001-3.558c.064-1.941.264-4.098.811-6.435 5.376-3.185 10.282-7.317 14.634-11.487 7.142-6.842 13.554-14.713 18.545-23.323.336 1.362.708 2.71 1.083 4.025 1.431 5.015 3.208 10 5.538 14.673 4.01 8.042 11.097 12.781 19.895 14.357.69.124 2.324.079 2.174-1.001-.151-1.09-2.059-1.526-2.908-1.678-7-1.254-11.8-6.034-14.703-12.298-2.132-4.6-3.834-9.417-5.174-14.305-.533-1.942-1.091-3.98-1.486-6.038l.46.682c8.84 13.251 16.072 32.09 33.502 35.744.712.149 2.601.48 2.891-.603.277-1.032-1.445-1.809-2.202-1.967-10.204-2.139-16.499-12.122-21.563-20.397-3.096-5.059-5.987-10.855-9.748-15.767 3.535 2.468 6.684 5.561 9.388 8.797 3.096 3.704 5.538 7.872 8.674 11.556 3.328 3.908 6.927 7.597 10.716 11.059 2.837 2.592 5.784 5.105 8.916 7.348 5.679 19.622-4.801 40.943-4.467 63.077.067 4.417.554 8.867 1.698 13.342 1.735 6.791 4.186 11.149 14.349 13.622 7.674 1.867 18.202-1.806 21.776-4.856 2.752-2.346-16.369-.379-15.962-24.755M76.115 83.226c-3.042 2.951-6.378 5.923-9.968 8.555.028-.066.051-.131.08-.198 3.42-7.833 11.596-14.695 20.032-23.753 3.378-3.627 5.895-6.16 8.146-7.894-4.884 8.598-11.233 16.443-18.29 23.29m48.754-10.62c-3.456-4.604-6.484-9.249-10.762-13.195-.309-.285-.631-.557-.946-.836 2.628.973 5.189 2.27 7.114 4.155 9.101 8.916 11.624 14.166 16.232 20.174a41 41 0 0 1 3.875 6.115c-5.748-4.88-11.046-10.463-15.513-16.413" style="fill:#122a89"/></svg>