<svg xmlns="http://www.w3.org/2000/svg" xml:space="preserve" viewBox="0 0 215 220"><path d="M167.179 91.778c-1.587-1.081-3.918-5.156-5.635-8.221-1.92-5.66-5.124-10.403-11.129-13.433-2.724-1.375-4.245-1.237-7.913-5.523-5.7-6.66-19.744-9.557-27.244-7.857-14.67 3.325-16.327-1.33-29.548-.944h-.003c-.44-.019-.902-.032-1.397-.036-2.598-.022-10.811.743-13.277-.367-1.243-.559-1.388-.301.664 1.957.581.64 1.99 1.584 3.265 2.329-6.303.707-10.479 4.438-10.479 4.438-.988.842-3.363 3.526-3.932 4.795-1.244 2.773-1.026 2.975-.019 2.064.859-.777 2.836-1.547 5.006-2.239-1.976 1.885-3.961 3.667-6.025 5.086-4.066 2.794-2.69 8.473-6.706 12.671a11 11 0 0 0-1.319 1.707 1.5 1.5 0 0 0-.36.391c-1.493 2.595-2.212 4.538-2.714 8.346-.34 2.576-.584 10.821-1.986 13.133-.707 1.166-.468 1.341 2.024-.42.268-.19.598-.499.949-.867.082 2.946-.032 5.632-.833 7.698-1.627 4.198.017 11.92 3.685 16.55 1.992 2.515 7.471-.14 7.356 6.143-.031 1.697 3.247 28.782 5.831 25.38 0-.299-.008-.661-.019-1.058-.213-7.244-2.22-29.929-.505-33.155 1.133-2.131 2.222-4.639 3.343-7.267.932-.735 1.999-1.531 3.325-2.572 1.897-1.489 9.236-6.712 7.498-4.181-1.029 1.498-2.39 8.142.162 4.893 3.459-4.403 5.597-7.314 12.897-9.267a28.12 28.12 0 0 1-10.777 14.07c-1.585 1.076 4.234.061 5.977-.784 9.55-4.631 13.646-7.587 20.339-15.834-1.617 5.388-4.923 10.144-9.62 13.456-1.571 1.108 3.275.979 5.037.177 5.565-2.533 6.938-3.765 10.412-8.735l-1.445 12.014c-.188 1.56 3.353-1.205 4.29-2.729 3.43-5.58 10.649-7.702 14.126-12.874 0 0-.217 1.981-.652 5.061s-3.78 4.585-2.623 4.968c2.874.951 10.01-3.449 13.499-8.522l.03.076c4.186 10.893 3.114 9.345 8.463 19.696 3.173 6.139-.949 30.129 1.106 32.386a.6.6 0 0 0 .171.142c2.532 1.163 3.064-26.229 8.128-30.514 1.464-1.239 4.862 2.575 5.815.792 3.416-6.394-.786-9.383.488-11.383 2.016-3.165 4.08-8.468 1.558-12.723-2.858-4.821-1.739-10.102-2.287-14.357a125 125 0 0 0-.684-4.675c.664.288 1.278.517 1.706.596 2.967.55 3.106.287 1.981-.478" style="fill:#122a89"/></svg>