<svg xmlns="http://www.w3.org/2000/svg" xml:space="preserve" viewBox="0 0 215 220"><path d="M179.094 134.889c0-2.803-1.007-5.369-2.676-7.362l.03-.107c.807-3.491.41-7.185-1.056-10.221 1.704-1.532 2.796-3.73 2.796-6.202 0-3.334-1.964-6.189-4.785-7.534.886-3.749.479-7.841-1.641-11.506-2.46-4.253-7.483-7.106-12.226-6.839 2.047-5.043.574-10.829-3.219-13.931-2.373-1.941-5.015-2.516-7.536-2.15-3.063-5.846-9.129-9.588-16.308-7.901-.722.17-1.442.392-2.152.662-1.716-1.712-3.636-3.126-5.703-4.024-5.338-2.32-11.974-1.569-16.356 3.335-.1.112-.188.234-.284.35-.096-.115-.184-.237-.285-.35-4.382-4.904-11.018-5.655-16.356-3.335-2.067.899-3.987 2.312-5.703 4.024-.71-.27-1.43-.492-2.152-.662-7.179-1.687-13.245 2.055-16.308 7.901-2.521-.366-5.163.209-7.536 2.15-3.794 3.103-5.267 8.889-3.219 13.931-4.742-.268-9.766 2.585-12.226 6.839-2.119 3.665-2.527 7.758-1.641 11.506-2.821 1.345-4.785 4.2-4.785 7.534 0 2.472 1.092 4.67 2.796 6.202-1.466 3.036-1.863 6.73-1.056 10.221.008.037.021.07.03.107a11.476 11.476 0 0 0 3.402 17.49c-.11.53-.201 1.07-.251 1.624-1.042 11.566 10.769 20.723 19.985 15.194a6 6 0 0 0 1.883-1.82c-.784-7.495-.818-13.36-.815-19.837a11.9 11.9 0 0 0-4.02-3.857c.005-.04.014-.078.018-.118.353-.253.704-.512 1.035-.813 2.991-2.716 1.804-7.398-.902-9.575.14-.309.231-.634.334-.955 1.154.566 2.37.972 3.615 1.238 3.37.719 6.978.289 10.317-1.724 2.531-1.526 4.337-3.626 5.465-6.009 3.154.85 6.58.697 9.804-.783a14.6 14.6 0 0 0 6.648-6.087c.243.035.494.047.742.067 2.774 3.644 7.96 5.785 15.594 4.12 3.722-.812 6.215-2.183 7.744-3.835 1.467 2.408 3.593 4.441 6.411 5.735 3.224 1.48 6.649 1.633 9.804.783 1.128 2.383 2.934 4.483 5.465 6.009 3.339 2.013 6.947 2.443 10.317 1.724a15.6 15.6 0 0 0 3.616-1.238c.103.321.194.646.334.955-2.707 2.177-3.893 6.859-.902 9.575.332.301.682.56 1.035.813l.018.118a11.94 11.94 0 0 0-4.02 3.857c.004 6.477-.031 12.341-.815 19.837.492.728 1.12 1.362 1.883 1.82 9.216 5.53 21.027-3.627 19.985-15.194-.05-.555-.14-1.094-.251-1.624 3.617-1.933 6.079-5.742 6.079-10.128" style="fill:#122a89"/></svg>