<svg xmlns="http://www.w3.org/2000/svg" xml:space="preserve" viewBox="0 0 215 220"><path d="M165.288 105.685c-1.911-1.301-4.903-6.948-6.599-9.936-2.297-5.695-6.136-10.564-12.656-13.456-2.724-1.208.202-1.087-3.466-4.854-5.7-5.853-19.745-8.399-27.244-6.905-14.67 2.923-16.327-1.169-29.548-.829l-.022.002c-.434-.019-.89-.031-1.377-.035-2.598-.022-10.811.743-13.277-.367-1.243-.559-1.388-.301.664 1.957.674.741 2.454 1.886 3.853 2.662-6.836.406-11.432 4.527-11.432 4.527-.988.842-3.363 3.526-3.932 4.795-1.245 2.773-1.026 2.975-.019 2.064 1.307-1.182 5.195-2.349 8.423-3.244-.505.376-1.039.744-1.621 1.095-4.066 2.455-5.737 9.185-9.754 12.875-1.82 1.671-2.883 5.132-3.379 9.46-.443 1.307-.758 2.763-1.014 4.706-.34 2.576-.584 10.82-1.986 13.133-.707 1.166-.468 1.341 2.023-.419.326-.23.74-.636 1.177-1.112.995 9.412 3.226 18.351 5.57 21.18.952 1.149-.078 9.595 2.506 6.605 0-3.807.565-8.34 1.619-11.622.343-1.07.737-2.01 1.182-2.745 1.821-3.01 3.518-6.837 5.441-10.665.801-.619 1.685-1.287 2.758-2.129 1.897-1.489 9.236-6.712 7.498-4.181-1.029 1.498-2.391 8.142.162 4.893 3.459-4.403 5.597-7.314 12.897-9.267a28.12 28.12 0 0 1-10.777 14.07c-1.585 1.076 4.234.061 5.977-.784 9.55-4.631 13.646-7.587 20.339-15.834-1.617 5.388-4.923 10.144-9.62 13.456-1.571 1.108 3.275.979 5.037.177 5.565-2.533 6.938-3.765 10.412-8.735l-1.445 12.014c-.188 1.56 3.353-1.205 4.29-2.729 3.43-5.58 10.649-7.702 14.126-12.874 0 0-.217 1.981-.652 5.062s-3.78 4.585-2.623 4.968c2.29.758 7.284-1.886 10.985-5.556q.516 1.113 1.013 2.253c4.186 9.573 3.114 8.213 8.463 17.31 2.329 3.961 2.348 8.387 2.967 11.326.246 1.168.585 2.108 1.205 2.68 2.009 1.85 1.449-6.075 4.236-11.737 8.756-17.789 4.165-29.368 3.618-33.107-.021-.142-.047-.282-.069-.424.812.372 1.577.667 2.087.761 2.97.544 3.108.281 1.984-.485" style="fill:#122a89"/></svg>