<svg xmlns="http://www.w3.org/2000/svg" xml:space="preserve" viewBox="0 0 215 220"><path d="M167.801 108.144c-2.427-14.266-4.66-22.199-9.671-30.425-5.707-9.37-14.213-16.848-20.668-21.273-3.373-2.312-16.937-8.341-29.304-6.415-12.394-1.97-26.025 4.097-29.407 6.415-6.455 4.425-14.96 11.903-20.668 21.273-5.01 8.226-7.244 16.158-9.671 30.425-3.62 21.282-9.191 27.467-6.474 44.053 1.723 10.517 21.347 20.84 30.848 17.531-3.348-4.84-5.67-10.415-7.031-18.993-1.632-10.283-1.932-17.332-1.983-24.55l.007.01c.053-.898.015-1.989-.018-3.244l.001-3.948c.124-3.223.656-7.047 2.48-11.225 2.448-5.605 7.335-10.717 13.005-16.488-3.001 8.286-2.552 14.082-1.676 13.505 1.082-1.156 2.322-2.071 4.24-3.685 1.445-1.216 7.08-5.526 5.854-3.558-.726 1.165-1.295 6.12.544 3.572 2.493-3.453 4.018-5.725 9.895-7.638-1.163 4.315-3.852 8.175-7.738 11.015-1.221.893 3.509-.235 4.88-.969 7.514-4.023 10.656-6.458 15.503-12.94-.886 4.052-3.223 7.753-6.832 10.489-1.207.915 2.792.5 4.183-.203 4.393-2.223 5.425-3.216 7.883-7.084l-.188 8.892c-.024 1.155 2.674-1.104 3.321-2.282 2.371-4.312 8.166-6.344 10.61-10.361 0 0-.014 1.465-.115 3.749-.101 2.285-2.744 3.607-1.754 3.811 1.504.31 4.158-.959 6.557-2.889.79 1.235 1.503 2.666 2.107 4.384 13.802 39.261 12.97 45.771 9.184 64.965-.078.396.026.729.256 1.012 2.691 3.325 24.875-1.05 28.312-12.88 4.215-14.495-2.852-22.769-6.472-44.051" style="fill:#122a89"/></svg>