<svg xmlns="http://www.w3.org/2000/svg" xml:space="preserve" viewBox="0 0 215 220"><path d="M155.769 83.909c-4.587-4.909-9.95-8.724-15.42-11.468-2.173-1.091-10.939-4.703-23.883-5.368-3.686 0-6.422.279-8.489.743-2.066-.464-4.803-.743-8.489-.743-12.944.666-21.709 4.278-23.883 5.368-5.47 2.745-10.833 6.56-15.42 11.468-9.28 9.931-11.299 19.908-11.136 28.053.119 5.956 1.476 10.771 4.502 14.931.303.417.76.869 1.3 1.328-.032 4.956.309 8.876 1.868 11.049.335.467 2.715 1.688 3.494 7.959.044 2.469 2.114 5.977 3.576 5.681 1.155-.234 1.931-2.844 1.024-10.232-.417-3.394 3.67-11.598 4.734-16.648 2.387 1.917 5.569 3.966 6.918 4.934 2.048 1.47 1.53.27 1.638-.967.135-1.545-.614-6.688-.614-6.688s4.878 3.871 7.245 5.577c1.176.848 4.542 2.867 3.203.34-6.313-11.913 4.191-4.1 6.389-.103.974 1.771 3.48-1.22 4.243-3.505 1.524-4.563 5.115 4.815 6.798 1.856.873-1.535 1.73-4.03 2.546-7.075.869 2.047 1.856 3.73 2.982 4.856 5.382 5.381 4.965-4.2 6.489.363.763 2.285 3.269 5.275 4.243 3.505 2.198-3.996 12.702-11.809 6.389.103-1.339 2.526 2.028.507 3.204-.34 2.367-1.706 7.245-5.577 7.245-5.577s-.748 5.143-.613 6.688c.108 1.238-.411 2.437 1.638.967 1.348-.967 4.53-3.017 6.918-4.934 1.064 5.05 5.15 13.255 4.734 16.648-.907 7.388-.131 9.998 1.024 10.232 1.462.297 3.533-3.211 3.576-5.681.779-6.271 3.159-7.492 3.494-7.959 1.559-2.173 1.9-6.094 1.868-11.049.54-.458.997-.91 1.3-1.328 3.026-4.16 4.384-8.975 4.502-14.931.162-8.145-1.857-18.122-11.137-28.053" style="fill:#122a89"/></svg>