<svg xmlns="http://www.w3.org/2000/svg" xml:space="preserve" viewBox="0 0 215 220"><path d="M181.058 146.568c.947-1.962.791-4.206-.677-6.19.207-1.257.038-2.495-.513-3.616l-.004-.073c.579-1.068.804-2.224.589-3.362.322-.413.61-.851.815-1.34 1.031-2.475.495-4.456-.921-5.921.312-1.479.038-3.026-.831-4.446a4.24 4.24 0 0 0 .346-1.95c.454-1.899-.091-3.867-1.485-5.467a4.2 4.2 0 0 0-.336-2.207c1.897-2.054 2.093-5.696-1.062-6.904a14 14 0 0 0-1.048-.349c1.883-2.576 1.357-6.139-.707-8.475 1.724-2.195.717-6.356-2.545-7.337-.238-.072-.481-.119-.722-.17.143-1.01-.031-2.07-.59-2.982-1.155-1.881-2.925-2.902-4.844-3.036l-.712-.988c.069-.576.018-1.155-.228-1.695l-.197-.435c-.384-.844-.894-1.502-1.525-1.995 1.146-3.209.132-6.88-4.355-8.733l-.004-.026c-1.132-4.755-6.604-6.782-12.182-6.576-1.597-5.204-6.82-9.168-12.99-7.691-1.967-2.972-5.408-4.637-8.87-4.9a12.2 12.2 0 0 0-3.71-.228c-2.693-1.635-5.822-2.517-8.841-1.948-2.895.075-5.499 1.497-7.347 3.666-3.132-2.33-6.87-3.523-10.763-2.624a13 13 0 0 0-2.29.162c-4.027.685-7.017 2.93-8.883 5.897-2.792-.433-5.759.243-8.245 2.527-.026.024-.043.051-.069.075a12 12 0 0 0-.602.394 13.02 13.02 0 0 0-7.637 4.666c-5.002.198-9.591 2.271-10.616 6.579l-.004.026c-4.488 1.852-5.501 5.524-4.355 8.733-.632.492-1.141 1.151-1.525 1.995l-.197.435c-.246.54-.297 1.12-.228 1.695l-.712.988c-1.918.135-3.689 1.155-4.844 3.036-.56.911-.734 1.972-.59 2.982-.242.051-.484.099-.722.17-3.263.981-4.269 5.142-2.545 7.337-2.064 2.336-2.59 5.899-.707 8.475-.344.1-.691.212-1.048.349-3.155 1.208-2.959 4.85-1.062 6.904a4.2 4.2 0 0 0-.336 2.207c-1.394 1.6-1.939 3.568-1.485 5.467a4.24 4.24 0 0 0 .346 1.95c-.869 1.42-1.143 2.967-.831 4.446-1.416 1.466-1.952 3.447-.922 5.921.204.49.492.927.815 1.34-.215 1.138.011 2.294.589 3.362l-.004.073c-.551 1.121-.72 2.359-.513 3.616-1.469 1.984-1.624 4.228-.677 6.19-1.735 2.749-1.359 6.262 1.398 8.741-.514 2.827 1.109 5.77 3.985 7.772.925 2.26 3.025 3.929 5.42 4.675 2.419 4.242 8.317 6.832 12.826 3.074.68.318 1.411.575 2.189.748q.414.127.851.222c1.073.228 2.158.177 3.168-.057a9.05 9.05 0 0 0 3.877-1.433c-1.216-3.133-2.175-6.741-2.875-11.154-2.269-14.298-1.965-22.343-1.995-33.287 1.043-1.05 1.593-2.569 1.109-4.064-.218-.675-.625-1.265-1.112-1.771.003-.237.01-.466.014-.701l1.756-2.297c.494-.647.646-1.47.577-2.295a4.04 4.04 0 0 0 1.018-2.216 4.2 4.2 0 0 0-.133-1.735 7.2 7.2 0 0 0 1.334-1.704 4.13 4.13 0 0 0 .456-2.813c2.91.032 5.693-1.515 6.199-4.789 2.242.002 4.479-.759 6.364-2.046q.538.01 1.09-.046c3.165 3.148 7.888 4.516 12.169 3.819 2.69-.15 5.011-1.107 6.853-2.641 3.042.723 6.696-.493 8.219-3.462 4.974 7.605 15.267 6.084 20.118.763a11.3 11.3 0 0 0 2.696 1.859c1.456.73 2.82 1.044 4.095 1.081 1.589.438 3.238.533 4.82.308.044 2.987 1.959 5.924 5.744 6.025.022.642.17 1.299.527 1.942a7.2 7.2 0 0 0 1.335 1.704 4.2 4.2 0 0 0-.133 1.735 4.04 4.04 0 0 0 1.017 2.216c-.069.825.083 1.648.577 2.295l1.756 2.297c.004.235.011.464.014.701-.487.506-.893 1.096-1.112 1.771-.484 1.495.066 3.014 1.109 4.064-.03 10.944.274 18.989-1.996 33.287-.7 4.413-1.659 8.021-2.875 11.154a9.06 9.06 0 0 0 3.877 1.433c1.009.234 2.095.284 3.168.057q.438-.095.851-.222a10.6 10.6 0 0 0 2.189-.748c4.509 3.758 10.407 1.167 12.826-3.074 2.395-.746 4.495-2.415 5.42-4.675 2.876-2.002 4.499-4.945 3.985-7.772 2.752-2.479 3.128-5.991 1.393-8.74" style="fill:#122a89"/></svg>