<svg xmlns="http://www.w3.org/2000/svg" xml:space="preserve" viewBox="0 0 215 220"><path d="M175.045 148.445c3.185-11.047-7.372-9.723-5.319-35.137.9-11.148 2.639-23.85-8.828-42.853-4.769-7.903-11.621-12.128-23.45-21.613-3.192-2.559-16.896-8.412-29.305-6.428-12.435-2.027-26.205 3.862-29.405 6.428-11.829 9.484-18.681 13.71-23.45 21.613-11.467 19.004-9.728 31.705-8.828 42.853 2.053 25.414-8.504 24.09-5.319 35.137 6.03 20.917-6.117 21.946 4.616 27.461 9.65 4.958 12.545-.596 18.955.629 15.624 2.985 8.908-6.153 6.533-16.799-2.537-4.313-4.359-9.398-5.503-16.604-1.632-10.283-1.932-17.332-1.983-24.55l.007.01c.053-.898.015-1.989-.018-3.244l.001-3.948c.124-3.223.656-7.047 2.48-11.225.262-.599.56-1.191.875-1.78a74.7 74.7 0 0 0 .387 13.405c.132 1.121 5.265.096 5.093-1.365-.786-6.667-.726-13.566.442-20.194a123 123 0 0 1 3.366-3.631c-1.17 7.434-.924 15.158-.393 22.564.132 1.849 5.244.741 5.093-1.365-.644-8.989-.717-19.096 1.871-27.928 1.088-1.121 2.19-2.27 3.298-3.459.74-.795 1.427-1.521 2.092-2.215-.069.234-.141.462-.209.701-3.142 11.082-4.463 22.44-2.541 33.865.292 1.734 5.411.526 5.093-1.365-1.746-10.373-.757-20.678 1.904-30.805.84-3.196 1.654-6.228 3.172-9.052a16 16 0 0 1 1.138-.677c-1.15 4.228-1.84 8.588-2.227 12.946-.755 8.508-.972 18.361 2.623 26.315.798 1.767 5.796.19 5.093-1.365-3.505-7.756-3.358-17.289-2.622-25.585.399-4.494 1.103-8.99 2.315-13.34.045-.162.1-.326.147-.488a19 19 0 0 1 1.18-.048c-.312 4.357-.079 8.846-.222 13.09-.307 9.142-.523 18.532 2.822 27.221.495 1.285 5.507-.289 5.093-1.365-3.242-8.421-3.166-17.563-2.849-26.436.136-3.812.186-7.627.299-11.44l.015-.51.427.12c1.37 5.075 2.635 10.179 3.487 15.368 1.274 7.763 1.482 15.59 1.035 23.435-.128 2.246 5.005 1.307 5.112-.566.45-7.885.279-15.788-.952-23.599-.677-4.293-1.653-8.525-2.735-12.732q.872.314 1.729.653c2.171 4.186 3.929 8.592 5.281 13.057 2.56 8.457 3.968 18.007 1.09 26.565-.36 1.072 4.576.498 5.033-.861 2.933-8.722 1.581-18.444-1.03-27.068a78 78 0 0 0-2.654-7.377c.077.071.17.14.243.211a41 41 0 0 1 3.194 3.502 63 63 0 0 1 1.994 4.944c2.898 8.275 4.343 17.293 3.574 26.054-.157 1.79 4.934.781 5.067-.732.362-4.124.283-8.448-.217-12.792a23 23 0 0 1 3.351 4.564c.295 3.706.3 7.383-.001 10.904-.025.292 1.547.275 2.951-.048.664 13.813-7.598 28.383-2.1 35.122 3.616 4.432 3.631 9.613 2.624 14.521-2.238 10.909-9.533 20.464 6.395 17.42 6.41-1.225 9.305 4.329 18.955-.629 10.731-5.514-1.415-6.544 4.615-27.46" style="fill:#122a89"/></svg>