<svg xmlns="http://www.w3.org/2000/svg" xml:space="preserve" viewBox="0 0 215 220"><path d="M175.045 148.445c3.185-11.047-7.372-9.723-5.319-35.137.9-11.148 2.639-23.85-8.828-42.853-4.769-7.903-11.621-12.128-23.45-21.613-3.192-2.559-16.896-8.412-29.305-6.428-12.435-2.027-26.205 3.862-29.405 6.428-11.829 9.484-18.681 13.71-23.45 21.613-11.467 19.004-9.728 31.705-8.828 42.853 2.053 25.414-8.504 24.09-5.319 35.137 6.03 20.917-6.117 21.946 4.616 27.461 9.65 4.958 12.545-.596 18.955.629 15.624 2.985 8.908-6.153 6.533-16.799-2.537-4.313-4.359-9.398-5.503-16.604-1.632-10.283-1.932-17.332-1.983-24.55l.007.01c.053-.898.015-1.989-.018-3.244l.001-3.948c.124-3.223.656-7.047 2.48-11.225 3.42-7.833 11.596-14.695 20.032-23.753 9.491-10.191 12.235-11.874 21.19-10.863 5.491 1.492 13.684 4.081 17.191 7.517 9.101 8.916 8.413 15.456 13.605 20.968 15.605 16.567-3.453 41.16 4.208 50.55 3.616 4.432 3.631 9.613 2.624 14.521-2.238 10.909-9.533 20.464 6.395 17.42 6.41-1.225 9.305 4.329 18.955-.629 10.732-5.515-1.414-6.545 4.616-27.461" style="fill:#122a89"/></svg>