<svg xmlns="http://www.w3.org/2000/svg" xml:space="preserve" viewBox="0 0 215 220"><path d="M173.321 147.823c11.485-21.884-10.172-82.61-15.59-92.68-6.141-11.414-18.408-18.453-30.039-22.032-5.586-2.109-12.8-3.837-19.715-2.856-6.915-.981-14.128.746-19.714 2.855-11.63 3.58-23.898 10.62-30.039 22.033-5.418 10.069-27.074 70.796-15.59 92.68 19.818 37.761-7.346 40.137-2.105 40.953 33.722 5.251 53.781-6.81 49.766-21.759-3.874-2.613-7.698-5.884-11.253-9.613-6.028-6.322-10.106-11.794-12.429-21.925-.046-9.624.331-22.278.585-32.409.486 5.506 1.126 11.226 1.618 17.17.156 1.888 2.235 1.767 3.079-7.32.925-9.962 2.189-19.737 4.465-29.001 2.607-.109 6.639-1.344 6.509-2.966-.488-6.062-.248-12.29 1.196-17.989a73 73 0 0 1 1.901-3.387c-2.132 6.866-2.479 14.451-1.155 21.623.438 2.374 9.15.345 8.658-2.32-.838-4.538-.951-10.169-.076-15.72-.405 6.482.223 12.921 1.628 17.798.716 2.485 9.365.134 8.658-2.32-1.505-5.223-2.138-12.54-1.431-19.642.242 7.278 1.498 14.658 2.98 21.085.735 3.189 9.417.971 8.658-2.32-1.563-6.778-2.86-14.393-2.955-21.851 2.087 7.902 3.444 15.898 3.806 24.28.134 3.101 8.813 1.277 8.658-2.32-.283-6.554-1.173-12.872-2.542-19.095 2.918 6.83 4.298 14.263 3.385 21.593-.386 3.094 8.29 1.488 8.625-1.204.687-5.511.185-11.049-1.232-16.373 2.944 6.237 4.473 13.066 3.929 19.643-.169 2.038 2.023 2.654 4.252 2.322 2.147 9.013 3.353 18.5 4.25 28.16.844 9.087 2.923 9.208 3.079 7.32.492-5.944 1.132-11.664 1.618-17.17.254 10.131.632 22.784.585 32.408-2.323 10.131-6.401 15.603-12.429 21.925-3.555 3.729-7.38 6.999-11.253 9.613-4.015 14.949 16.044 27.01 49.766 21.759 5.239-.811-21.925-3.187-2.107-40.948" style="fill:#122a89"/></svg>