<svg xmlns="http://www.w3.org/2000/svg" xml:space="preserve" viewBox="0 0 215 220"><path d="M141.11 171.19c.012.02.038.042.048.061.148.313 0-.206-.048-.061m-85.906-57.485c-1.346 8.488-4.541 15.992-9.701 22.863 6.972-5.021 10.926-14.363 9.701-22.863m-.747 57.892c1.815-.012 3.545-1.077 4.742-2.492 7.929-11.295-9.97-20.819-.367-35.538-12.216 13.967 5.838 24.12-.328 35.026-.878 1.447-2.301 2.587-4.047 3.004" style="fill:#122a89"/><path d="M59.336 146.689c2.824 6.482 6.158 25.227-1.505 29.027 2.821-.362 4.611-3.231 5.38-5.756 2.221-7.805.853-16.67-3.875-23.271" style="fill:#122a89"/><path d="M65.585 157.529c1.783 7.273.159 14.29-4.614 20.057 6.699-3.717 9.007-13.786 4.614-20.057m84.371-.151c-5.165 6.361-.787 17.333 7.348 18.372-6.719-3.68-9.685-11.072-7.348-18.372" style="fill:#122a89"/><path d="M153.315 164.005c-2.89 3.526 1.101 9.527 5.472 8.206-3.452-1.515-5.41-4.279-5.472-8.206m9.297-10.275c4.894-6.06 4.286-16.178-1.281-21.621 3.311 6.94 3.74 14.336 1.281 21.621m5.313-2.163c4.033-5.088 3.451-13.529-1.224-18.029 2.421 5.946 2.81 11.809 1.224 18.029M52.371 112.706c-.925 5.16-2.529 9.345-5.264 13.817 4.572-2.601 6.936-8.834 5.264-13.817m-6.282 34.83c-6.305 5.219-4.424 16.973 3.208 19.948-5.685-5.267-6.965-13.166-3.208-19.948" style="fill:#122a89"/><path d="M53.016 171.401c-3.15-5.822-4.613-11.673-4.542-18.293-2.633 6.097-.645 14.141 4.542 18.293m108.367 3.329c7.136-.317 11.511-10.059 7.021-15.609 1.603 6.457-1.133 12.519-7.021 15.609" style="fill:#122a89"/><path d="M180.052 126.573c-1.595-1.389-2.955-2.879-3.873-4.813-2.985-6.922-2.931-14.691-3.122-22.097-.288-11.181-1.188-22.079-5.068-32.672-3.438-9.384-9.008-18.234-15.578-25.758-5.06-5.795-11.307-9.734-18.756-11.702-4.861-1.285-9.916-1.88-14.941-1.865a57 57 0 0 0-7.219.458c-1.132.149-1.362.257-2.325-.002a17 17 0 0 0-2.312-.471c-6.856-.845-14.23.217-20.55 3.018-1.548.582-3.074 1.22-4.545 1.97-3.739 1.906-7.236 4.307-10.463 7.058a60 60 0 0 0-4.626 4.053c-2.874 2.8-5.203 5.973-7.256 9.336a72 72 0 0 0-3.801 6.285c-1.968 3.669-3.544 7.511-4.811 11.445a118 118 0 0 0-4.01 12.91c-1.315 5.258-2.114 10.692-3.77 15.855-1.329 4.143-3.306 7.995-5.027 11.977-1.357 3.141-2.395 6.436-1.904 9.893.372 2.624 1.537 5.582 3.618 7.389-1.573 4.184-2.923 8.458-3.913 12.802-.909 3.988-1.263 8.206-.301 12.219.543 2.265 1.812 3.955 2.653 6.044.73 1.814-.449 4.393-.45 6.357-.002 4.072 1.857 7.838 5.371 9.985 2.189 1.337 5.029 2.376 7.669 2.105-.139 2.475-1.573 4.267-3.603 5.65-.439.299-2.546 1.23-2.349 1.982.124.474 1.399.597 1.634.647 1.813.391 3.684.637 5.54.669 1.76.03 3.491-.151 5.195-.493-1.063.647-2.164 1.191-3.42 1.595-1.811.583-4.7.702-6.213 1.916-1.086.871.098 1.113 1.019 1.398 1.651.511 3.403.72 5.122.831 7.306.471 16.12-.923 20.736-7.2 2.822-3.838 3.079-7.986 3.273-12.543.077-1.806.878-2.196 2.236-3.237a43 43 0 0 0 2.765-2.285c.231-.21.454-.432.68-.649A28 28 0 0 0 84.941 165c.197-.223.38-.457.569-.687a78 78 0 0 1-.717-.613c-.246-.213-.491-.434-.736-.653a75 75 0 0 1-4.352-4.205c-7.268-7.621-11.078-13.457-13.07-26.008-1.997-12.586-1.989-20.4-1.981-29.45v-.52c0-1.74 0-3.534-.014-5.427-.002-.301.003-.587.002-.885.83-.72 1.638-1.445 2.403-2.186 3.295-3.187 5.763-6.851 7.585-11.063 1.892-4.373 2.782-9.303 5.19-13.436 2.544-4.366 7.831-8.005 12.629-9.395 1.893-.548 3.936-.696 6-.624 2.89.101 5.824.644 8.465 1.237 4.387.985 8.91-.61 13.254.347.586.129 1.149.309 1.693.53 2.301.936 4.224 2.643 5.813 4.619a28 28 0 0 1 2.773 4.227c2.43 4.52 3.845 9.523 5.397 14.389 1.055 3.307 2.081 6.623 3.11 9.938.44 1.415.877 2.831 1.323 4.244 1.814 5.753 3.591 11.773 6.895 16.884 1.051 1.626 2.297 3.045 3.665 4.324-.292 3.636-.754 7.617-1.488 12.246-1.992 12.551-5.802 18.387-13.071 26.008a76 76 0 0 1-5.087 4.858c-.342.297-.685.584-1.028.871.185.234.383.454.577.681.423.495.847.991 1.303 1.453.074.075.155.143.23.217.928.92 1.911 1.784 2.934 2.597 1.133.9 2.972 1.739 3.154 3.316.258 2.231-.126 4.454.364 6.716.498 2.303 1.438 4.514 2.834 6.417 2.302 3.137 5.557 4.92 9.29 5.808 3.809.906 7.865 1.071 11.746.593 1.544-.19 3.095-.481 4.566-1.001.921-.325 2.279-.674 1.366-1.554-.549-.53-2.095-.616-2.795-.805-1.143-.308-2.289-.629-3.405-1.021-.62-.218-1.201-.48-1.767-.762 1.241.073 2.488.078 3.74-.036 1.719-.156 3.495-.398 5.156-.88.403-.117 1.58-.39 1.703-.909.2-.839-1.828-1.655-2.358-2.028-1.801-1.268-3.095-2.848-3.468-4.917 3.289-.179 7.061-2.142 9.145-3.977 4.312-3.798 4.234-9.452 2.907-14.59 3.902-5.663 4.311-12.292 2.814-18.868-.781-3.428-1.958-6.783-2.974-10.147-.081-.269-.181-.54-.265-.81.522-.061 1.046-.102 1.563-.196.786-.143 2.755-.328 2.984-1.387.176-.822-.945-1.463-1.455-1.907m-114.544 15.58q.304.974.637 1.896c.444 1.23.927 2.393 1.452 3.506a38 38 0 0 0 1.701 3.206 42 42 0 0 0 1.963 3.004q.525.733 1.085 1.456a61 61 0 0 0 2.385 2.882 96 96 0 0 0 2.684 2.923 78 78 0 0 0 4.687 4.511 30 30 0 0 1-2.22 2.184c-.95.848-1.954 1.605-2.958 2.388-.667.52-1.864 1.185-2.182 1.996-.275.7.194 2.737.173 3.547a20.6 20.6 0 0 1-.441 3.768c-.452 2.114-1.288 4.173-2.511 5.96-2.838 4.145-7.278 5.633-12.106 5.993-2.08.155-4.2.126-6.268-.164-.783-.11-1.57-.256-2.333-.467-.39-.108-.759-.247-1.137-.383q.338-.092.678-.179c3.844-1.021 7.262-2.193 10.459-4.602 1.11-.837-1.193-.499-1.559-.368-3.023 1.077-6.222 1.125-9.37.628-.161-.025-2.719-.336-2.751-.594-.023-.188.933-.65 1.041-.719 2.708-1.745 4.955-3.867 4.955-7.311 0-.494-1.774.007-1.886.052-1.13.453-4.135-.996-5.089-1.478-1.563-.791-2.989-1.908-4.019-3.336-2.007-2.781-2.377-6.332-1.829-9.638.134-.809.532-1.698.555-2.51.024-.832-.299-1.031-.796-1.845a18.6 18.6 0 0 1-2.028-4.66c-.956-3.406-.916-7.034-.34-10.502.738-4.44 2.116-8.888 3.645-13.212.052.02.096.052.149.07 1.278.447 5.061.68 5.08-1.47.006-.683-.642-1.5-.862-2.173a13.8 13.8 0 0 1-.656-4.416q.011-.885.113-1.769c1.422-3.171 2.885-6.292 3.885-9.622 3.153-4.422 7.68-7.983 11.99-11.506.005 1.434.006 2.835.006 4.186l-.001 1.71c0 1.698.005 3.366.027 5.043a191 191 0 0 0 .135 5.102 146 146 0 0 0 .488 7.315q.09.972.197 1.98c.143 1.345.309 2.743.504 4.205.194 1.462.417 2.988.671 4.591a78 78 0 0 0 .421 2.415q.223 1.17.472 2.267a53 53 0 0 0 1.104 4.14m112.693 8.204c-.239 3.644-1.479 6.936-3.524 9.931-.031.034-.045.068-.062.102l-.029.048c-.006.008.012.013.01.021-.008.036-.039.073-.029.109.871 3.341 1.409 6.835.121 10.152-.63 1.623-1.646 3.078-2.998 4.183-1.477 1.207-4.596 2.993-6.56 2.206-.534-.214-2.72.021-2.72.854-.001 3.432 2.296 5.413 4.953 7.148.14.092.464.379.716.547-.083.025-.131.036-.224.065-.897.165-1.804.294-2.713.363a19.7 19.7 0 0 1-8.193-1.098c-.465-.166-2.987.634-2.469 1.024 3.3 2.486 7.332 4.02 11.396 4.786-.362.09-.724.202-1.089.273-.914.179-1.845.273-2.774.332a31 31 0 0 1-7.12-.367c-4.158-.705-7.963-2.351-10.532-5.819-1.279-1.727-2.166-3.731-2.692-5.809a20 20 0 0 1-.527-3.161c-.118-1.367.191-2.832.02-4.163-.077-.598-.076-.822-.052-.894-.261-.439-1.107-.965-1.477-1.26-.978-.779-1.993-1.505-2.944-2.32a32 32 0 0 1-2.485-2.36 78 78 0 0 0 4.363-4.224 96 96 0 0 0 2.684-2.923 61 61 0 0 0 2.385-2.882 49 49 0 0 0 1.085-1.456q.58-.815 1.12-1.65c-3.259 10.441-2.994 23.601 7.564 29.104-9.611-7.765-8.331-20.468-6.11-31.544.379-.69.747-1.391 1.091-2.12a40 40 0 0 0 1.452-3.506q.333-.922.637-1.896c.406-1.3.774-2.674 1.106-4.139q.25-1.098.472-2.267.223-1.17.421-2.415c.254-1.602.477-3.129.671-4.591s.361-2.86.504-4.205c.055-.522.104-1.03.153-1.537 2.056 1.457 4.288 2.695 6.609 3.776 4.009 1.868 8.315 3.277 12.764 3.466.272.011.544-.014.817-.011l.047.135c2.044 6.405 4.609 13.16 4.162 19.992m-.311-22.021c-5.159-3.057-9.589-6.51-13.881-10.85 2.225 5.201 6.984 9.351 12.404 11.091-.093.011-.191.03-.28.035-.601.031-1.203-.006-1.804-.03-8.681-4.948-16.433-10.628-23.751-17.453 5.378 8.279 13.942 14.64 23.417 17.448-.181-.01-.362.005-.543-.009-2.421-.191-4.812-.801-7.092-1.62-5.771-2.072-11.673-5.218-15.464-10.182-3.373-4.416-5.153-9.905-6.856-15.124-2.859-8.76-5.181-17.749-8.451-26.368-2.051-5.408-5.292-11.326-10.409-14.096 14.122 2.071 19.07 17.262 21.643 29.624.058-12.953-6.67-30.415-21.934-29.763a13 13 0 0 0-5.502-1.446c-2.129-.083-4.258.174-6.383.252-2.06.076-3.873-.336-5.874-.617-4.375-.616-8.822-1.431-13.234-.623-8.001 1.464-15.537 7.39-18.428 14.979-1.833 4.811-3.105 9.778-5.78 14.233-2.243 3.736-5.385 6.646-8.679 9.444-6.393 5.431-14.528 11.221-17.326 19.516a18.7 18.7 0 0 0-.992 6.327c.019.961.104 1.919.308 2.86.111.513.347 1.778.697 2.606a2 2 0 0 1-.262-.083c-.798-.379-1.475-.996-2.036-1.668-1.35-1.616-2.138-3.816-2.471-5.884-.544-3.381.545-6.65 1.873-9.717 1.633-3.771 3.502-7.421 4.813-11.327 1.659-4.944 2.437-10.158 3.667-15.218.945-3.886 1.994-7.752 3.287-11.539 2.081-6.096 4.973-11.792 8.028-17.447 4.071-7.537 9.587-13.411 16.709-18.187 4.798-3.217 10.316-6.565 16.088-7.609a50.5 50.5 0 0 1 7.739-.8c1.882-.045 4.197-.182 6.002.476 1.73.631 2.839.276 4.748.054 2.892-.335 5.81-.4 8.717-.266 8.321.383 17.021 2.443 23.688 7.665 6.377 4.994 11.356 12.278 15.448 19.179 5.498 9.273 8.611 19.779 9.818 30.455 1.037 9.178.242 18.493 1.559 27.644.408 2.836 1.131 5.581 2.266 8.214a14.5 14.5 0 0 0 3.265 4.45c.465.435.955.936 1.484 1.293.012.008.028.027.041.038a6 6 0 0 0-.277.043" style="fill:#122a89"/><path d="M63.12 55.468c8.174-12.019 20.908-20.024 35.288-22.153-14.58-.521-29.427 8.789-35.288 22.153" style="fill:#122a89"/><path d="M73.781 49.654c6.235-5.546 13.229-9.198 21.335-11.174-8.322-.608-17.09 3.995-21.335 11.174m7.489-1.664c5.382-2.304 10.395-3.571 16.221-4.134-5.497-1.991-12.343-.237-16.221 4.134m38.226 4.22c1.883.016 3.849-.003 5.72-.505-1.91-.231-3.729-.589-5.615-.862-5.325-1.192-14.144.469-13.546 7.5 1.484-6.007 8.307-6.351 13.441-6.133m-2.87 3.757c-1.85.248-4.487 1.557-4.204 3.784 1.066-4.836 17.436-1.657 21.275-.849-4.972-3.157-11.309-4.046-17.071-2.935m24.234 9.683c8.652 9.591 6.483 23.94 13.44 34.397-4.608-11.266-2.803-26.317-13.44-34.397m12.035 16.845c-.329 10.502 6.28 21.249 15.814 25.674-8.107-6.644-13.538-15.442-15.814-25.674M54.423 96.02c8.599-3.078 15.281-11.666 16.175-20.753-3.409 8.463-8.807 15.374-16.175 20.753m-2.194-3.783a293 293 0 0 0 8.097-14.921 50.7 50.7 0 0 0-11.403 19.288c-1.731 2.918-2.615 6.145-1.769 9.889.236-10.08 10.406-15.159 14.323-23.57-2.615 3.033-6.25 6.011-9.248 9.314m108.266-13.416c.411 1.959.822 4.8 1.068 6.756.1-1.982-.053-4.892-.217-6.891-1.868-16.035-11.459-31.302-25.654-39.175 12.662 9.597 21.632 23.75 24.803 39.31m-51.671-47.883c-6.605 5.67-8.251 16.016-5.127 23.915-.57-8.509.583-16.57 5.127-23.915" style="fill:#122a89"/></svg>