<svg xmlns="http://www.w3.org/2000/svg" xml:space="preserve" viewBox="0 0 215 220"><path d="M182.176 121.833c-.336-3.578-2.136-6.416-4.257-7.049.981-1.912.431-5.059-1.582-7.843-1.771-2.449-4.167-3.91-6.165-4.006.576-2.22-1.236-5.256-4.465-7.191a11.3 11.3 0 0 0-3.826-1.454c.015-1.3.007-2.611-.069-3.945a88 88 0 0 0-.251-3.261c3.849-1.593 6.154-4.49 5.153-5.498-.673-.678-2.373.293-5.97-.467-1.131-6.254-3.141-11.884-6.557-17.491-5.707-9.37-10.345-12.098-16.8-16.523-3.377-2.315-16.598-9.111-28.876-7.369-12.278-1.742-25.499 5.054-28.876 7.369-6.455 4.425-11.092 7.153-16.8 16.523-5.01 8.226-7.044 16.465-7.624 26.717-.697 12.316 2.554 23.269 8.067 31.389l-.043 1.192c-.423 11.51-.852 23.046.416 34.054 1.025 8.897 3.032 15.99 5.494 20.702.804 1.539 2.047 3.254 3.026 2.788.709-.337 1.067-1.529.296-3.004-2.717-5.201-4.605-14.108-5.136-24.524-.115-2.245-.169-4.97-.184-7.982-.066-13.64.721-33.378.799-43.362.012-1.578.023-3.065.031-4.481.611-2.607 1.399-5.204 2.429-7.681 1.175-2.829 6.581-8.674 8.146-11.357 3.139-5.381 5.15-7.892 8.117-10.084.444 1.541 1.318 3.168 2.635 4.643 1.684 1.887 3.696 3.103 5.537 3.55.347 2.116 1.996 4.515 4.591 6.281 2.184 1.486 4.537 2.172 6.481 2.091.772 1.939 2.741 3.908 5.445 5.172 2.368 1.107 4.773 1.416 6.671 1.045.875 1.8 2.733 3.581 5.242 4.755 3.083 1.442 6.248 1.557 8.235.526.762 1.83 2.862 3.739 6.459 4.981 4.265 1.472 8.283.527 11.1-1.024l.012 1.585c.078 9.984.865 29.722.799 43.362a48 48 0 0 1-1.867 6.259c.52.284 1.097.528 1.723.722-.014.33-.024.69-.04 1.002-.531 10.416-2.419 19.323-5.137 24.524-.77 1.475-.412 2.666.296 3.004.979.466 2.222-1.249 3.026-2.788 2.462-4.712 4.469-11.805 5.494-20.702.173-1.506.309-3.023.424-4.548 3.566-.165 6.391-1.855 6.698-4.089 1.839.883 4.753.608 7.503-.9 2.292-1.258 3.922-3.074 4.543-4.817 2.324.3 5.082-2.041 6.437-5.653 1.045-2.785.955-5.542-.024-7.266 2.171-.811 3.579-4.09 3.224-7.877m-82.14-50.074c-.131-1.342-.66-2.818-1.562-4.259 1.182.889 2.412 1.495 3.583 1.78.193 1.178.794 2.432 1.741 3.629-1.281-.648-2.566-1.017-3.762-1.15m42.197 11.363c.23.29.453.576.682.868-.953.004-1.787.197-2.478.543a6.9 6.9 0 0 0-.977-1.803c.962.253 1.895.387 2.773.392m-18.644-17.641-.02.004-.003-.008zm-16.337-.629c-.094-.962-.384-1.989-.879-3.029l.204-.105a9 9 0 0 0 2.177.866c.158.965.572 1.981 1.245 2.979a10.6 10.6 0 0 0-2.747-.711m2.405 14.236c-.301-.876-.8-1.767-1.483-2.63 1.723.871 3.457 1.256 4.956 1.193.274.69.715 1.378 1.273 2.042-1.681-.573-3.331-.774-4.746-.605m7.216-6.907a8.4 8.4 0 0 0-.987-1.979c1.385.554 2.736.804 3.94.753.211.53.529 1.058.91 1.578-1.37-.361-2.698-.491-3.863-.352m4.166 12.815a8 8 0 0 0-1.071-1.624c1.904.649 3.752.794 5.278.496q.402.827 1.071 1.624c-1.904-.649-3.752-.794-5.278-.496m7.215-6.906a7.5 7.5 0 0 0-.708-1.16c1.591.419 3.107.494 4.396.242q.285.586.708 1.16c-1.591-.419-3.107-.494-4.396-.242m12.508 14.253c-3.091-1.692-5.788-1.781-7.541-.904-.267-.764-.72-1.53-1.34-2.267 2.62.893 5.153.852 6.841-.023.762 1.83 2.863 3.739 6.459 4.981 1.113.384 2.209.601 3.273.689l.042.153c-1.841-.167-4.346-.774-7.734-2.629m27.545 19.504c.131.206.245.415.391.618.255.353.53.672.808.983-.661-.425-1.37-.654-2.099-.586-.057.005-.108.034-.165.043a3.5 3.5 0 0 0 1.065-1.058m-1.486-6.476a5 5 0 0 0-.168 1.055c-.453-.391-.986-.743-1.553-1.073.608.078 1.18.074 1.721.018m-12.453 20.562a12 12 0 0 0 .203-1.707c.052-1.182-.069-2.3-.323-3.306.476-.737.952-1.475 1.39-2.255a11.3 11.3 0 0 0-.235 3.515c.119 1.27.439 2.43.875 3.452a9.3 9.3 0 0 0-1.91.301m4.342 18.925a7.6 7.6 0 0 0-1.306-.801c.707-.27 1.345-.602 1.93-.97a5.5 5.5 0 0 0-.624 1.771m4.752-5.68q-.689.38-1.295.819c.172-.45.229-.903.211-1.353.57.195 1.21.25 1.893.154-.269.123-.54.233-.809.38m-.808-9.959c-1.771 2.154-2.592 4.609-2.386 6.515-.964-.48-2.181-.751-3.533-.758 2.464-1.552 4.056-3.734 4.244-5.649 1.707-.263 3.023-1.997 3.571-4.388a7.6 7.6 0 0 0 1.136 1.677 11.4 11.4 0 0 0-3.032 2.603m1.015-11.925c-1.032-2.054-2.621-3.342-4.289-3.186-.02.002-.037.013-.057.015a4.3 4.3 0 0 0-.444-1.257c.329.142.654.287 1.006.404 2.129.706 4.215.762 5.843.307-.969.765-1.687 2.093-2.059 3.717m5.735 20.56c-.856-.112-1.809-.066-2.814.153 1.058-.562 2.104-1.412 3.042-2.473a10.5 10.5 0 0 0-.228 2.32m4.734-21.454c-.687.998-1.146 2.351-1.314 3.892-.006-.081 0-.157-.008-.239-.197-2.094-.895-3.94-1.864-5.24 1.048.822 2.15 1.377 3.186 1.587m-1.822 13.648c.178-1.441-.137-2.694-.946-3.52.744-1.01 1.236-2.434 1.412-4.054.006.081 0 .157.008.239.212 2.257 1.014 4.206 2.103 5.513-.891.325-1.777.941-2.577 1.822" style="fill:#122a89"/></svg>