<svg xmlns="http://www.w3.org/2000/svg" xml:space="preserve" viewBox="0 0 215 220"><path d="M61.318 126.162c-.835.055-1.876.348-2.53.911-4.029 3.472-3.463 9.24-2.49 13.97.67 3.257 1.508 6.664.77 9.987a10.02 10.02 0 0 1-4.833 6.544c-.691.391-.399.712.212.806.843.13 1.949-.323 2.67-.731 2.209-1.249 4.06-3.139 5.085-5.518 1.268-2.943 1.013-6.206.445-9.286-.941-5.105-3.069-12.109 1.553-16.09.661-.567-.588-.612-.882-.593m102.402 31.413a10.02 10.02 0 0 1-4.833-6.544c-.738-3.323.1-6.73.77-9.987.973-4.73 1.539-10.499-2.49-13.97-.654-.564-1.695-.857-2.53-.911-.294-.019-1.543.026-.882.595 4.622 3.982 2.494 10.985 1.553 16.09-.568 3.08-.823 6.343.445 9.286 1.025 2.379 2.876 4.268 5.085 5.518.722.408 1.827.861 2.67.731.611-.096.904-.417.212-.808" style="fill:#122a89"/><path d="M178.873 91.392c-1.59.476-3.053.502-4.405.222.055-.143.118-.284.143-.43.968-5.761-3.573-10.68-8-13.696-1.349-.919-2.824-1.755-4.316-2.602q-.261-.749-.531-1.493c3.593-2.864 5.532-7.199 5.532-12.621 0-8.314-4.228-18.06-18.263-17.816-5.34.093-9.274 1.743-12.085 4.211l-.095-.065c-3.377-2.315-16.598-9.111-28.876-7.369-12.278-1.742-25.499 5.054-28.876 7.369l-.095.065c-2.811-2.468-6.745-4.118-12.085-4.211-14.035-.244-18.262 9.502-18.262 17.816 0 5.421 1.939 9.757 5.532 12.621q-.27.743-.531 1.493c-1.491.847-2.966 1.682-4.316 2.602-4.426 3.016-8.968 7.935-8 13.696.025.146.088.287.143.43-1.352.28-2.816.254-4.405-.222-1.204-.36-.397 1.237-.042 1.772.714 1.078 1.999 2.351 3.17 2.701 3.793 1.134 6.964.154 9.524-1.874-2.106 4.455-2.919 9.389-.395 14.109.485.907 1.633 2.095 2.649 2.361.839.219 1.335-.064.852-.968-2.564-4.794-.816-9.872 1.778-14.286.286 10.329 3.352 19.492 8.127 26.525l-.043 1.192c-.423 11.51-.852 23.046.416 34.054 1.025 8.897 3.032 15.99 5.494 20.702.804 1.539 2.047 3.254 3.026 2.788.709-.337 1.067-1.529.296-3.004-2.717-5.201-4.605-14.108-5.136-24.524-.115-2.246-.169-4.971-.184-7.984-.046-9.624.331-22.278.585-32.409.486 5.506 1.126 11.226 1.618 17.17.156 1.888 2.235 1.767 3.079-7.32 1.856-19.986 5.061-39.226 15.154-55.05.274-.185.537-.371.83-.557 2.688-1.709 12.011-1.102 20.098-6.172 7.953 5.012 17.361 4.442 20.1 6.172.292.184.554.368.826.552 10.096 15.825 13.302 35.067 15.158 55.055.844 9.087 2.923 9.208 3.079 7.32.492-5.944 1.132-11.664 1.618-17.17.254 10.131.632 22.784.585 32.408-.014 3.013-.069 5.738-.184 7.984-.531 10.416-2.419 19.323-5.137 24.524-.77 1.475-.412 2.666.296 3.004.979.466 2.222-1.249 3.026-2.788 2.462-4.712 4.469-11.805 5.494-20.702 1.268-11.008.839-22.544.416-34.054l-.043-1.192c4.775-7.033 7.842-16.197 8.127-26.525 2.593 4.414 4.341 9.492 1.778 14.286-.483.904.012 1.187.852.968 1.017-.266 2.164-1.454 2.649-2.361 2.524-4.721 1.712-9.654-.395-14.109 2.56 2.028 5.731 3.009 9.524 1.874 1.171-.35 2.455-1.623 3.17-2.701.353-.534 1.161-2.131-.044-1.771m-134.676-.828c.589-4.042 4.038-7.508 7.385-9.861-1.509 3.753-3.958 7.858-7.385 9.861m120.177-9.861c3.347 2.354 6.796 5.82 7.385 9.861-3.428-2.003-5.876-6.108-7.385-9.861" style="fill:#122a89"/></svg>