<svg xmlns="http://www.w3.org/2000/svg" xml:space="preserve" viewBox="0 0 215 220"><path d="M162.295 136.522c-3.21-1.912-6.854-2.742-10.535-3.248-.295 3.167-.722 6.61-1.343 10.527-.706 4.449-1.675 8.08-2.906 11.231.053.047.1.103.153.149.483.42.987.777 1.505 1.093-.57 2.194-1.188 4.373-1.532 6.443-.938 5.652-.135 12.358 6.288 14.317 1.006.307 2.531.004 3.554-.429.509-.215 1.846-.979.811-1.294-6.504-1.984-6.441-9.679-5.202-15.17.175-.775.372-1.561.575-2.352.35.037.705.034 1.059.041 2.321 4.234 4.161 9.762 2.062 14.026-.4.812.589.822.935.758.697-.129 1.596-.632 1.985-1.422 2.084-4.233.798-9.471-1.298-13.787.61-.152 1.218-.333 1.821-.556 3.955-1.467 8.45-4.425 8.876-9.019.451-4.862-2.839-8.943-6.808-11.308m-2.964 8.922c.228.741.392 1.524.421 2.301.017.458.003.978-.163 1.41-.015.039-.059.109-.1.178a3 3 0 0 1-.318-.086c-.709-.261-1.324-.755-1.838-1.296-2.102-2.215-2.511-5.253-2.51-8.22 2.133 1.27 3.778 3.338 4.508 5.713m2.988 6.71c-1.328 1.327-3.32 2.509-5.299 2.7a58 58 0 0 0-1.947-2.971l.026-.141c.908.407 1.892.64 2.916.66 1.844.036 3.97-.529 5.379-1.827-.267.567-.603 1.107-1.075 1.579m-97.638.038c.513-1.978 1.137-3.98 1.669-6.017a75 75 0 0 1-.416-2.374c-.698-4.401-1.148-8.199-1.443-11.682-.74.01-1.35.255-1.176.789 2.344 7.161-1.04 13.733-2.392 20.088-1.122 5.275-1.215 12.146 2.757 16.124.622.623 1.635.811 2.336.709.348-.051 1.282-.377.642-1.018-4.023-4.029-3.28-11.598-1.977-16.619m84.021-43.42c3.622 8.594-.779 22.87 2.875 17.684.234-.332.463-.677.693-1.018 5.57-8.257 10.001-19.212 9.296-31.689-.58-10.252-2.614-18.492-7.624-26.717-5.707-9.37-10.345-12.098-16.8-16.523-3.901-2.674-20.947-11.353-34.492-5.905l-.009.003c-5.909-.545-13.668 1.556-16.909 3.148-16.45 8.078-25.638 20.613-29.191 33.507-1.603 5.818-3.323 18.291.489 28.913 1.676 4.67 4.462 16.077 6.929 15.792.055-.018.093-.056.142-.082 1.405-.724.361-4.506-.156-7.964-.202-1.351-.324-2.652-.181-3.694.035-.255.097-.484.177-.698 1.085-2.89 6.516-2.411 22.472-9.929 15.671-7.384 18.733-25.272 21.628-36.218 8.042 5.318 7.512 13.232 22.427 28.834 9.068 9.486 17.044 9.733 18.234 12.556" style="fill:#122a89"/></svg>