<svg xmlns="http://www.w3.org/2000/svg" xml:space="preserve" viewBox="0 0 215 220"><path d="M176.879 148.077c-.727-2.635-2.397-5.242-3.972-7.026 1.013-2.628 2.455-4.616 3.885-8.175 3.415-8.5 2.194-15.641-1.241-19.793-.678-.819-1.665-1.729-2.76-2.565 1.017-2.784 2.515-4.786 4-8.482 3.415-8.5 1.243-16.741-1.169-21.56-2.502-4.999-7.352-11.178-15.523-11.61-1.167-5.811-3.145-11.097-6.357-16.371-5.707-9.37-10.345-12.098-16.8-16.523-3.901-2.674-20.947-11.353-34.492-5.905l-.009.003c-5.909-.545-13.668 1.556-16.909 3.148-16.45 8.078-25.638 20.613-29.191 33.508a42 42 0 0 0-.521 2.144c-8.15.448-12.991 6.614-15.49 11.607-2.412 4.819-4.584 13.06-1.169 21.56 1.485 3.696 2.983 5.698 4 8.482-1.095.836-2.082 1.746-2.76 2.565-3.434 4.153-4.656 11.293-1.241 19.793 1.43 3.559 2.872 5.547 3.885 8.175-1.575 1.784-3.245 4.391-3.972 7.026-3.993 14.474 4.012 17.428 4.885 22.043.712 3.762.009 8.214-5.221 10.146-1.483.548-.254 1.293 1.272 1.406 2.108.156 6.288-.442 8.625-1.373 4.68-1.865 7.57-4.361 8.876-7.616 1.616-4.028 1.536-8.973-1.468-13.2-1.196-1.683-3.468-3.639-5.45-5.785 3.656-1.345 6.461-2.309 10.035-6.905 3.566-4.585 2.467-11.886-.855-16.788-2.647-3.906-7.014-6.462-9.55-9.118 4.203-1.647 7.234-2.743 9.899-6.811.942-1.438 1.602-3.37 2.02-5.513.539 1.062 1.081 2.051 1.614 2.867.197-3.329-1.314-13.524-.013-21.793.113-.721.241-1.433.4-2.119.878-3.778 2.225-7.112 4.011-10.452-1.511 7.618-1.621 15.606-.754 23.266.154 1.364 5.447.277 5.256-1.408-1.413-12.494-.182-25.879 5.668-36.978a51 51 0 0 1 3.286-3.972 37 37 0 0 0-3.162 6.889c-3.538 10.441-3.288 21.875-2.541 32.731.146 2.122 5.417.931 5.256-1.408-1.094-15.911-.743-35.764 12.659-46.106-.084.107-.172.211-.255.318-2.968 3.809-4.398 7.58-5.637 12.216-3.028 11.337-4.302 22.916-2.42 34.563.157.972 5.459-.154 5.256-1.408-1.769-10.948-.788-21.851 1.934-32.558 1.051-4.132 2.057-8.031 4.458-11.592.135-.2.282-.409.423-.615a64 64 0 0 0-.632 2.21c-1.21 4.527-1.922 9.198-2.333 13.862-.779 8.851-1.013 19.028 2.597 27.35.519 1.196 5.63-.547 5.256-1.408-3.538-8.156-3.359-18.094-2.646-26.777.393-4.789 1.102-9.578 2.365-14.219.415-1.525.897-3.083 1.49-4.593l.107-.018c-.296 1.995-.354 4.033-.416 6.04-.129 4.19-.173 8.383-.318 12.573-.323 9.323-.41 18.985 2.875 27.867.797 2.155 6.022.662 5.256-1.408-3.288-8.89-3.113-18.428-2.808-27.75.143-4.373-.096-8.993.197-13.484 1.53 5.837 2.958 11.703 3.878 17.669 1.254 8.126 1.442 16.327.993 24.527-.03.557 5.178.018 5.256-1.408.449-8.2.261-16.401-.993-24.527-.877-5.686-2.214-11.282-3.662-16.847 3.388 5.683 5.986 11.861 7.823 18.182 2.562 8.817 3.917 18.615 1.041 27.526-.69 2.138 4.64 1.495 5.292-.524 2.949-9.135 1.543-19.371-1.077-28.41-1.407-4.855-3.265-9.658-5.574-14.226l.679.418c3.335 4.676 5.811 10 7.606 15.426 2.877 8.696 4.234 18.057 3.462 27.205-.051.608 5.129.105 5.256-1.408.789-9.351-.641-18.935-3.662-27.798a66 66 0 0 0-2.578-6.454c1.305 1.096 2.528 2.259 3.592 3.476 4.84 10.412 6.51 22.729 5.621 33.566-.147 1.795 5.1.739 5.225-.776a74.4 74.4 0 0 0-.953-19.264c.131.241.283.497.37.707 6.45 15.527 3.532 35.703 5.841 33.991.109-.081.226-.194.36-.376a41 41 0 0 0 1.642-2.42c.422 1.762 1.011 3.353 1.812 4.577 2.665 4.068 5.696 5.164 9.899 6.811-2.535 2.656-6.903 5.213-9.55 9.118-3.322 4.901-4.42 12.203-.855 16.788 3.574 4.596 6.379 5.561 10.035 6.905-1.982 2.146-4.254 4.103-5.45 5.785-3.004 4.228-3.083 9.173-1.468 13.2 1.306 3.255 4.196 5.751 8.876 7.616 2.337.931 6.517 1.529 8.625 1.373 1.526-.113 2.755-.859 1.272-1.406-5.23-1.932-5.932-6.383-5.221-10.146.884-4.621 8.889-7.575 4.896-22.049" style="fill:#122a89"/></svg>