<svg xmlns="http://www.w3.org/2000/svg" xml:space="preserve" viewBox="0 0 215 220"><path d="M67.727 171.532c1.161-1.687 1.736-4.492 1.351-7.564-.325-2.588-1.265-4.772-2.466-6.16.919-1.716 1.345-4.244 1.001-6.988-.294-2.345-1.086-4.379-2.125-5.774.455-.655.829-1.476 1.133-2.381a67 67 0 0 1-.977-4.972c-1.23-7.748-1.702-13.658-1.883-19.189-1.44 1.174-2.713 3.303-3.357 5.967-.59 2.441-.52 4.79.043 6.577-1.412 1.446-2.402 4.136-2.458 7.275-.047 2.641.585 4.987 1.592 6.572-1.073 1.705-1.586 4.429-1.214 7.386.325 2.588 1.265 4.772 2.466 6.16-.919 1.716-1.345 4.244-1.001 6.988.423 3.371 1.877 6.084 3.614 7.187-.996 1.638-1.401 4.439-.578 8.13 2.005 8.997 11.138 11.595 11.59 9.24.259-1.354-3.119-2.618-3.735-11.642-.241-3.514-1.488-5.822-2.996-6.812m87.597-40.484c.562-1.787.633-4.137.043-6.577-.644-2.664-1.917-4.793-3.357-5.967-.181 5.532-.654 11.442-1.883 19.189a67 67 0 0 1-.977 4.972c.304.905.677 1.726 1.133 2.381-1.039 1.395-1.831 3.43-2.125 5.774-.344 2.743.082 5.272 1.001 6.988-1.201 1.388-2.141 3.572-2.466 6.16-.386 3.072.19 5.877 1.351 7.564-1.508.99-2.755 3.298-2.994 6.812-.615 9.024-3.994 10.288-3.735 11.642.451 2.355 9.584-.243 11.59-9.24.823-3.691.419-6.493-.578-8.13 1.737-1.102 3.191-3.816 3.614-7.187.344-2.743-.082-5.272-1.001-6.988 1.201-1.388 2.141-3.572 2.466-6.16.371-2.957-.141-5.68-1.215-7.386 1.007-1.585 1.639-3.931 1.592-6.572-.057-3.138-1.047-5.829-2.459-7.275m25.669-63.418-17.754-11.992c5.506.156 10.933-2.703 13.705-7.537.236-.412-.154-.993-.602-1.024l-16.263-1.117c4.054-2.343 7.251-6.017 8.89-10.384.25-.665-.38-1.144-1.002-.968l-11.95 3.381c1.471-1.278 5.336-5.557 6.294-7.289.287-.519-.282-1.09-.805-1.022-5.973.778-11.341 3.999-21.611 1.451-2.606-.647-6.46-.847-10.294-.837 3.583-1.008 6.498-1.422 7.594-1.697 5.897-1.481 3.627-2.099.184-2.396-1.731-.149-15.013-1.303-23.43 1.533 0 0-2.688.991-6.389 3.221-10.091-5.45-21.407-5.749-21.407-5.749-4.757-.169-10.731 1.578-12.445 1.869-12.219 2.071-4.835 2.635-2.371 2.908 1.308.145 4.001.051 7.53.628-15.241 1.805-30.845 11.449-37.699 13.013-.801.183-.802 1.251.087 1.342 5.99.61 12.045-.2 17.385-2.276-5.697 5.706-13.869 9.775-22.934 11.408-.88.158-.726 1.196.087 1.342 5.152.919 10.529.678 15.459-.699-3.977 6.01-11.225 10.476-19.703 12.026-.821.15-.785 1.273.087 1.342a49 49 0 0 0 13.725-.87c-1.767 1.936-2.69 3.415-2.69 3.415-1.081 1.661-3.445 6.656-3.79 8.803-.756 4.695-.38 4.917.704 3.144.71-1.163 2.351-2.575 4.334-4.024-2.193 6.892-3.518 13.61-3.153 18.33.433 5.611.755 7.469 3.781 11.4 3.887 5.049 4.024 3.019 3.393.32a37.8 37.8 0 0 1-.96-9.707c.732 3.143 1.816 6.008 3.309 8.663 1.771 3.149 4.532 7.819 5.368 6.871.931-1.055.622-2.855 1.862-6.333 1.234 2.773 4.125 5.636 6.172 7.543l.165.155c2.048 1.901 1.529.35 1.637-1.252.135-1.998-.024-2.535-.024-2.535s.874 1.048 3.24 3.255c1.176 1.097 4.542 3.709 3.203.44-3.387-8.268-3.004-17.476-.703-25.802.279.762 1.559.809 1.872-.048 3.596-9.842 11.479-18.217 21.515-23.025-5.885 6.679-9.411 14.958-9.932 23.561-.054.889 1.384 1.227 1.835.454 7.396-12.678 10.839-15.984 17.04-20.908 2.773-2.202 5.826-3.895 8.359-5.11a23 23 0 0 0 3.28 2.155c10.652 5.851 13.976 14.131 15.503 16.455 1.362 2.072 1.894.348 1.515-3.432-.174-1.729-1.675-7.774-3.985-11.937 0 0-.974-1.794-2.814-4.355.26.103.522.214.783.319 8.491 8.385 9.641 19.02 15.186 24.591.523.525 1.116-.155 1.157-.895.048-.859-.075-2.518-.3-4.542 4.131 9.837 5.965 21.945 1.634 32.519-1.339 3.268 2.028.656 3.204-.44 2.367-2.207 3.24-3.255 3.24-3.255s-.158.537-.024 2.535c.108 1.601-.411 3.153 1.638 1.252l.165-.155c2.047-1.908 4.938-4.77 6.172-7.543 1.24 3.477.931 5.277 1.862 6.333.836.948 3.597-3.722 5.368-6.871 1.489-2.648 2.57-5.504 3.302-8.637a37.8 37.8 0 0 1-.961 9.681c-.631 2.699-.494 4.728 3.393-.32 3.026-3.93 3.348-5.788 3.781-11.4.327-4.232-.705-10.073-2.5-16.202 1.748.043 3.554-.116 5.736-.102.706.005 1.559-.732.888-1.156-5.446-3.438-8.227-6.858-10.759-10.276a102 102 0 0 0-2.319-5.079 52.6 52.6 0 0 0 14.392 4.881c.742.134 1.172-.926.558-1.341" style="fill:#122a89"/></svg>