<svg xmlns="http://www.w3.org/2000/svg" xml:space="preserve" viewBox="0 0 215 220"><path d="M181.235 131.451c.954-8.033-2.704-15.068-7.331-19.305-2.395-2.193-5.048-3.647-7.806-4.722-1.093-3.009-1.045-6.646 1.801-10.487.755-1.019-.671-.6-1.185-.384-1.034.436-2.442 1.348-3.176 2.338a15.6 15.6 0 0 0-1.918 3.351c-.152-.16-.325-.31-.485-.466.584-3.748.815-7.69.583-11.797-.58-10.252-2.614-18.492-7.624-26.717-5.707-9.37-10.345-12.098-16.8-16.523-3.377-2.315-16.598-9.111-28.876-7.369-12.278-1.742-25.499 5.054-28.876 7.369-6.455 4.425-11.092 7.153-16.8 16.523-5.01 8.226-7.044 16.465-7.624 26.717-.566 10.005 1.478 19.106 5.217 26.525.598 3.037 1.333 6.159 2.114 9.346a3 3 0 0 0-.69-.053c-.835.055-1.876.348-2.53.911-4.029 3.472-3.463 9.24-2.49 13.97.67 3.257 1.508 6.664.77 9.987a10.02 10.02 0 0 1-4.833 6.544c-.691.391-.399.712.212.806.843.13 1.949-.323 2.67-.731 2.209-1.249 4.06-3.139 5.085-5.518 1.268-2.943 1.013-6.206.445-9.286-.938-5.085-3.048-12.052 1.503-16.041 1.03 4.182 2.146 8.492 3.231 12.992.091.376.229.639.373.709.436.211.92-1.354.268-6.958a330 330 0 0 1-1.212-12.202c.251-5.207-.143-18.565 7.554-29.588 5.589-8.003 3.029-14.159 6.087-19.94.764-1.444 1.556-2.614 2.376-3.583 7.73 9.676 12.085 18.555 21.963 24.692 5.308 3.298 10.317 3.101 7.85 2.206-11.427-4.146-17.25-17.291-24.933-28.222 9.783 11.017 15.863 21.241 27.033 28.048 2.756 1.68 5.29 2.487 6.962 2.783 2.566 2.298 5.281 4.425 8.251 6.341 6.02 3.883 10.862 4.19 10.535 3.481 6.041 3.817 8.914 7.924 10.44 11.067.907 3.26 1.855 6.626 2.745 9.956-.196 2.33-.465 4.813-.828 7.514.871 2.345 1.977 4.493 3.277 6.224.293.39.6.732.907 1.073.294 1.844.495 3.574.579 5.157-1.282 3.889-3.347 7.238-6.606 8.385-.937.33-.042 1.313.319 1.597.726.571 1.901 1.009 2.812.688 1.291-.454 2.414-1.208 3.392-2.174-.437 7.551-1.979 14.187-6.009 18.855-1.5 1.737-5.546 5.284-3.953 5.367 2.201.116 4.705-2.026 6.27-3.838 4.591-5.317 7.968-12.672 9.224-21.366 2.057-2.658 3.048-5.652 3.333-8.743l.137-.013c1.707 1.445 3.879 2.379 6.621 2.528 1.389.075 3.28-.832 4.483-1.748.598-.455 2.115-1.913.686-1.991-1.756-.095-3.24-.573-4.505-1.323 4.177-2.463 8.235-6.665 8.982-12.962M90.822 64.903l.842.296c10.087 10.976 17.337 21.449 26.058 29.913-10.351-5.841-18.031-19.12-26.9-30.209m12.586 6.315c3.759 2.809 8.011 6.961 12.95 13.442 8.246 10.821 9.89 14.94 21.721 22.007-12.861-5.051-23.451-20.841-34.671-35.449m54.904 46.061c-.096-.68-.186-1.36-.26-2.044.013-.01.022-.026.035-.036.129-.096.254-.139.38-.203q-.089 1.134-.155 2.283m7.44 10.967c-.005-.328-.013-.657-.01-.977.021-2.858.21-5.855.257-8.809 1.74 2.2 3.012 5.087 3.559 8.261.215 1.248.349 2.56.32 3.851-.017.762-.078 1.624-.316 2.327-.021.063-.08.176-.136.287a2.6 2.6 0 0 1-.379-.167c-.84-.49-1.547-1.358-2.125-2.297-.48-.775-.851-1.612-1.17-2.476m6.876 9.846c-1.008 1.226-2.294 2.33-3.667 3.086a15.5 15.5 0 0 1-1.526-3.012c2.226.186 4.827-.584 6.633-2.61-.373.92-.827 1.79-1.44 2.536" style="fill:#122a89"/></svg>