<svg xmlns="http://www.w3.org/2000/svg" xml:space="preserve" viewBox="0 0 215 220"><path d="M69.797 89.033c-.226-.079-.445-.138-.664-.199-4.663-1.293-7.874 1.399-9.696 4.362-3.15 5.123-3.852 7.482-4.642 10.807-1.17 4.922-.632 12.124 1.226 18.749.382 1.363 1.32 2.925 1.991 3.838.333.454 1.271 1.523.83.133-2.772-8.743-.321-13.45 2.052-15.43q.406-.334.832-.644c-.099.168-.199.335-.291.509-1.675 3.14-2.767 8.41-.2 14.937.402 1.022 1.18 2.043 1.752 2.569.204.187.662.515.756.302.022-.05.026-.124 0-.243a2 2 0 0 0-.094-.298c-2.313-5.879-1.212-10.68.312-13.632.189-.367.384-.71.581-1.018q.195-.304.398-.602a15 15 0 0 0-.257.622c-.347.905-.632 1.987-.824 3.189a19 19 0 0 0-.121 4.985c.202 1.91.685 3.983 1.589 6.173.388.941 1.087 1.845 1.59 2.295.249.223.934.676.535-.292-2.511-6.089-1.377-11.294-.055-14.138.403-.866.854-1.691 1.287-2.553-.22.601-.426 1.209-.587 1.855-.772 3.104-.78 8.097 2.153 13.778.459.89 1.2 1.73 1.711 2.142.254.204.932.611.46-.304-2.97-5.754-2.494-10.81-1.589-13.602 1.089-3.358 2.431-8.165 2.786-15.207.113-2.279-.11-9.885-3.821-13.083m91.364 14.97c-.79-3.325-1.493-5.683-4.643-10.807-1.822-2.964-5.033-5.656-9.696-4.362-.219.061-.438.12-.664.199-3.711 3.197-3.934 10.804-3.819 13.083.355 7.042 1.697 11.85 2.786 15.207.906 2.793 1.381 7.848-1.589 13.602-.472.915.206.508.46.304.511-.411 1.251-1.252 1.711-2.142 2.933-5.682 2.925-10.674 2.153-13.778a18 18 0 0 0-.587-1.855c.433.862.884 1.687 1.287 2.553 1.323 2.844 2.456 8.049-.055 14.138-.399.969.285.516.535.292.503-.449 1.202-1.353 1.59-2.295.903-2.191 1.387-4.264 1.589-6.173a19 19 0 0 0-.121-4.985c-.192-1.202-.477-2.284-.824-3.189a15 15 0 0 0-.257-.622q.203.298.398.602c.197.308.392.651.581 1.018 1.524 2.951 2.625 7.753.312 13.632a2 2 0 0 0-.094.298c-.027.118-.022.193 0 .243.094.212.552-.115.756-.302.572-.526 1.35-1.547 1.752-2.569 2.567-6.527 1.475-11.797-.2-14.937-.093-.174-.192-.341-.291-.509.283.208.563.419.832.644 2.373 1.98 4.825 6.687 2.052 15.43-.441 1.391.497.321.83-.133.671-.913 1.609-2.474 1.991-3.838 1.857-6.625 2.395-13.827 1.225-18.749" style="fill:#122a89"/></svg>