<svg xmlns="http://www.w3.org/2000/svg" xml:space="preserve" viewBox="0 0 215 220"><path d="M171.353 106.56c-2.427-14.266-6.155-23.195-11.165-31.421-5.707-9.37-12.752-16.908-21.664-21.274-3.582-1.754-16.72-7.176-28.874-5.576-15.895-4.612-28.269 4.132-31.829 6.573C71.365 59.287 62.86 68.26 57.153 77.63c-5.01 8.226-9.735 20.642-12.162 34.908-3.62 21.282.846 36.285 6.246 45.959 6.433 11.525 9.836 12.254 9.836 7.121 0 0 8.464 14.417 6.549 3.042-3.454-20.513-9.322-28.729-3.87-45.094.861-2.585 1.995-5.366 3.476-8.439.076.899.158 1.798.263 2.69.267 2.265 5.375 1.03 5.093-1.365a73 73 0 0 1-.478-10.462 248 248 0 0 1 3.549-5.987c-.239 5.084-.013 10.21.343 15.188.123 1.722 5.237.643 5.093-1.365-.536-7.478-.682-15.759.776-23.437 2.031-2.95 4.052-5.664 5.948-7.934-2.863 10.598-4.048 21.432-2.214 32.335.159.943 5.295-.164 5.093-1.365-1.775-10.549-.774-21.046 1.968-31.341.512-1.922 1.014-3.789 1.671-5.589.615-.277 1.279-.586 1.973-.914-.77 3.401-1.278 6.869-1.596 10.334-.78 8.487-.992 18.297 2.596 26.236.525 1.161 5.456-.562 5.093-1.365-3.514-7.775-3.358-17.344-2.647-25.665.35-4.09.975-8.173 1.992-12.154q.86-.414 1.72-.824l-.02.587c-.129 3.984-.172 7.97-.314 11.954-.322 9.022-.407 18.387 2.89 26.951.924 2.4 5.996.982 5.093-1.365-3.289-8.544-3.084-17.716-2.782-26.706.144-4.276-.11-8.818.226-13.208 1.541 5.618 2.99 11.265 3.934 17.017 1.276 7.771 1.49 15.608 1.042 23.461-.121 2.117 4.998 1.13 5.097-.62.449-7.878.286-15.769-.945-23.573-.904-5.735-2.321-11.367-3.848-16.966 3.518 5.568 6.225 11.677 8.122 17.944 2.559 8.453 3.944 17.932 1.068 26.483-.526 1.565 4.534.916 5.076-.698 2.935-8.728 1.56-18.522-1.052-27.15a77.5 77.5 0 0 0-4.534-11.526c.957.899 1.93 1.887 2.932 2.948 6.347 10.605 8.923 24.045 7.898 35.711-.241 2.74 4.96 2.121 5.175-.329.676-7.7-.142-16.057-2.47-23.962a210 210 0 0 0 3.45 3.38c2.045 7.467 2.678 15.368 2.063 22.558-.228 2.662 4.964 1.986 5.165-.368.423-4.942.278-10.125-.454-15.269 1.683 2.011 3.098 4.14 4.256 6.79a29 29 0 0 1 1.692 5.143c.004.759.011 1.51.005 2.285-.094 12.136.414 20.273-2.007 35.53-.794 5.004-1.914 8.984-3.373 12.395 1.433 3.868 2.296 7.078 2.96 8.637 1.403 3.297 6.186-7.426 6.186-7.426 4.236 5.679 3.926 3.465 7.88-5.171 5.477-11.947 11.098-29.738 7.478-51.02" style="fill:#122a89"/></svg>