<svg xmlns="http://www.w3.org/2000/svg" xml:space="preserve" viewBox="0 0 215 220"><path d="M165.897 130.981c-.077-.626-.581-1.267-1.161-1.609-.338-.2-.826-.348-1.312-.4.457-.542.583-1.228.505-1.859-.077-.626-.581-1.267-1.161-1.61a2.3 2.3 0 0 0-1.025-.35c-.064-.016-.13-.015-.194-.026.036-.116.074-.233.089-.344a2.3 2.3 0 0 0-.451-1.644c.062-.162.101-.327.108-.495.051-1.292-.156-2.533-.774-3.691a7.2 7.2 0 0 0-1.135-1.562c.398-.982.679-1.984.785-2.967.194-1.81.006-3.56-.636-5.154-.628-1.561-1.662-2.798-2.942-3.837.01-.743-.027-1.479-.165-2.189-.189-.977-.59-1.718-1.383-2.279a4.3 4.3 0 0 0 .533-1.361c.205-.979-.126-1.903-.661-2.613-.515-.684-1.543-1.095-2.458-1.105-.533-.005-1.208.152-1.815.42.169-.948-.148-1.84-.668-2.529-.515-.684-1.544-1.095-2.458-1.105a3.1 3.1 0 0 0-1.443.285c-.086.024-.163.071-.246.102-.036-.161-.072-.324-.129-.465-.277-.679-.913-1.327-1.647-1.627a2.1 2.1 0 0 0-.209-.655c-.817-1.554-1.903-2.872-3.417-3.815-1.225-.763-2.619-1.214-4.108-1.417-.64-1.147-1.384-2.2-2.237-3.087-1.713-1.782-3.699-3.114-5.917-3.838-2.302-.751-4.621-.731-6.951-.224-.302.066-.591.19-.864.354-.952-.502-2.182-.598-3.13-.293-.198.063-.398.169-.597.272-.041-.113-.059-.234-.109-.344a4.2 4.2 0 0 0-.964-1.75c-.808-.943-2.134-1.654-3.295-1.593-1.17.061-2.376.51-3.214 1.513-.251-.866-.676-1.705-1.147-2.255-.808-.943-2.134-1.654-3.295-1.593-1.205.063-2.455.525-3.295 1.593a5.9 5.9 0 0 0-.951 1.743c-1.276-.336-2.397-.105-3.579.55-.864.48-1.678 1.07-2.447 1.735-2.189-.421-4.37-.414-6.534.292-2.218.724-4.204 2.056-5.917 3.838-.852.887-1.597 1.94-2.237 3.087-1.489.203-2.884.654-4.108 1.417-1.513.943-2.6 2.261-3.417 3.815a2.1 2.1 0 0 0-.209.655c-.734.299-1.37.948-1.647 1.627-.058.142-.093.304-.129.465-.083-.031-.16-.077-.246-.102a3.1 3.1 0 0 0-1.443-.285c-.915.009-1.943.421-2.458 1.105-.52.689-.837 1.582-.668 2.529-.607-.269-1.282-.426-1.815-.42-.915.009-1.943.421-2.458 1.105-.535.71-.866 1.633-.661 2.613.106.505.286.947.533 1.361-.793.561-1.194 1.302-1.383 2.279-.138.71-.175 1.446-.165 2.189-1.281 1.038-2.314 2.276-2.942 3.837-.641 1.594-.83 3.344-.636 5.154.106.982.387 1.984.785 2.967a7.2 7.2 0 0 0-1.136 1.562c-.618 1.158-.826 2.399-.774 3.691.007.168.046.333.108.495a2.3 2.3 0 0 0-.451 1.644c.015.111.053.228.089.344-.064.011-.131.01-.194.026q-.567.055-1.025.35c-.58.343-1.084.984-1.161 1.61-.078.631.049 1.317.505 1.859-.486.052-.974.201-1.312.4-.58.343-1.084.984-1.161 1.609-.08.65.049 1.361.54 1.91a3.2 3.2 0 0 0 .841.672c-.299.65-.282 1.27-.043 1.963.174.504.42.986.701 1.457-.434 1.134-.638 2.303-.464 3.53.178 1.253.702 2.438 1.492 3.521 1.437 1.968 4.111 3.441 6.736 3.699.795.078 1.522.024 2.182-.367.58-.343 1.084-.984 1.161-1.609.08-.65-.049-1.361-.54-1.91-.464-.519-1.157-1.015-1.925-1.091a7 7 0 0 1-.94-.161 8 8 0 0 1-.86-.368 7 7 0 0 1-.571-.417c-.024-.025-.042-.054-.066-.08.611.199 1.232.367 1.866.462.763.114 1.557.003 2.182-.367.58-.343 1.084-.984 1.161-1.61.163-1.325-.831-2.757-2.466-3-.298-.044-.586-.121-.876-.194a9 9 0 0 1-1.106-.481 9 9 0 0 1-1.01-.749c-.133-.139-.241-.294-.362-.44l3.543.938c.687.182 1.633-.042 2.182-.367.186-.11.357-.258.515-.419.336-.341.593-.766.646-1.191.075-.606-.046-1.261-.46-1.793-.029-.038-.048-.08-.08-.116-.516-.576-1.13-.88-1.925-1.091l-3.47-.919 2.535.171q.597.125 1.157-.017.567-.055 1.025-.35c.488-.288.905-.788 1.077-1.312.032-.099.072-.198.084-.298.024-.194.021-.393.004-.592-.041-.467-.2-.932-.544-1.318-.453-.507-1.167-1.04-1.925-1.091l-1.045-.071c.231-.072.468-.13.708-.183a9 9 0 0 1 1.164-.069c.309.032.618.061.923.125a3 3 0 0 0 1.047.019c1.151-.175 2.171-.979 2.296-1.995a2.44 2.44 0 0 0-.14-1.145c.17-.493.24-1.027.123-1.585a5.3 5.3 0 0 0-.34-1.022c.049-.024.104-.043.15-.068.615-.329.967-.907 1.128-1.508.022 0 .043.006.065.006.915-.009 1.943-.421 2.458-1.105 1.092-1.448.895-3.807-.862-5.203-.32-.254-.607-.541-.899-.824-.123-.145-.221-.306-.337-.456-.218-.283-.445-.562-.637-.861a12 12 0 0 1-.679-1.567c-.062-.254-.084-.509-.127-.763l1.943 1.932 1.586 1.577c.685.68 1.949 1.059 2.815 1.05.915-.009 1.943-.421 2.458-1.105.535-.71.866-1.633.661-2.613-.215-1.028-.731-1.803-1.523-2.59l-2.522-2.507-.935-.93 1.087.729 1.779 1.194q.616.552 1.372.765a3.1 3.1 0 0 0 1.443.285c.915-.009 1.943-.421 2.458-1.105.535-.71.866-1.633.661-2.613a5.5 5.5 0 0 0-.369-1.095c.641.365 1.346.597 2.006.563.33-.017.661-.072.988-.153 1.28.252 2.616-.075 3.316-1.004.784-1.04.861-2.37.319-3.588.022-.231.055-.462.037-.695-.022-.283-.003-.563-.004-.845.294.148.602.256.918.333.148 1.171.568 2.292 1.293 3.139.808.944 2.134 1.654 3.295 1.593 2.459-.129 4.741-2.393 4.66-5.439-.015-.554.033-1.104.073-1.654q.19-1.104.519-2.163.45-1.083 1.038-2.074c.21-.287.456-.531.683-.798l-.569 6.734c-.11 1.306.599 2.953 1.365 3.846.808.943 2.134 1.654 3.295 1.593 1.205-.063 2.455-.525 3.295-1.593.882-1.121 1.237-2.335 1.365-3.846l.557-6.596.502 4.659q-.036 1.123.401 2.096.282 1.011.964 1.75c.808.943 2.134 1.654 3.295 1.593 1.205-.063 2.455-.525 3.295-1.593.775-.986 1.515-2.452 1.365-3.846l-.207-1.921c.205.396.386.809.56 1.227q.316 1.024.499 2.092c.041.571.087 1.142.068 1.717-.094 2.846 2.21 5.567 4.66 5.439 2.605-.136 4.559-2.39 4.66-5.439.006-.178-.016-.352-.015-.53q.448-.112.865-.32c-.001.281.018.562-.004.845-.018.233.015.463.037.695-.543 1.218-.466 2.547.318 3.588.7.928 2.036 1.256 3.316 1.004.327.081.659.136.989.153.66.034 1.365-.197 2.006-.563a5.5 5.5 0 0 0-.369 1.095c-.205.979.126 1.903.661 2.613.515.684 1.544 1.095 2.458 1.105q.74.035 1.443-.285a3.4 3.4 0 0 0 1.372-.765l1.779-1.194 1.087-.729-.935.93-2.522 2.507c-.792.787-1.308 1.562-1.523 2.59-.205.979.126 1.903.661 2.613.515.684 1.544 1.095 2.458 1.105.866.009 2.131-.37 2.816-1.05l1.586-1.577 1.943-1.932c-.043.254-.065.509-.127.763a12 12 0 0 1-.679 1.567c-.192.3-.419.578-.637.861-.116.15-.214.31-.337.455-.291.283-.579.57-.899.824-1.757 1.396-1.954 3.755-.862 5.203.515.684 1.544 1.095 2.458 1.105.022 0 .043-.006.065-.006.161.601.514 1.179 1.128 1.508.046.025.101.044.15.068-.148.341-.27.688-.34 1.022-.117.558-.047 1.092.123 1.585a2.45 2.45 0 0 0-.14 1.145c.125 1.016 1.144 1.82 2.296 1.995.344.052.7.054 1.048-.019.305-.064.614-.094.923-.125q.587-.003 1.164.069c.239.053.477.111.708.183l-1.045.071c-.758.051-1.472.584-1.925 1.091-.345.385-.503.85-.544 1.318-.017.199-.02.398.004.592.012.1.052.198.084.298.172.523.589 1.024 1.077 1.312q.46.294 1.025.35.56.142 1.157.017l2.535-.171-3.47.919c-.795.21-1.41.515-1.925 1.091-.033.036-.051.079-.08.116-.414.532-.534 1.187-.46 1.793.052.425.309.85.646 1.191.159.161.329.309.515.419.549.325 1.495.549 2.182.367l3.543-.938c-.121.146-.229.301-.362.44a9 9 0 0 1-1.01.749 9 9 0 0 1-1.106.481c-.29.073-.579.15-.876.194-1.634.243-2.629 1.675-2.466 3 .077.626.581 1.267 1.161 1.61.625.369 1.419.48 2.182.367a11.4 11.4 0 0 0 1.866-.462c-.024.026-.042.055-.066.08a7 7 0 0 1-.571.417q-.416.21-.86.368c-.31.071-.622.13-.94.161-.768.076-1.461.572-1.925 1.091-.491.549-.62 1.26-.54 1.91.077.625.581 1.267 1.161 1.609.661.39 1.387.445 2.182.367 2.625-.258 5.299-1.731 6.736-3.699.79-1.083 1.314-2.268 1.492-3.521.174-1.227-.029-2.396-.464-3.53.28-.47.527-.953.701-1.457.239-.693.256-1.313-.043-1.963a3.2 3.2 0 0 0 .841-.672c.489-.548.618-1.259.538-1.908M77.631 98c.109.024.216.061.324.09.027.059.048.121.077.179zm60.292.269c.03-.058.05-.12.077-.179.108-.029.215-.065.324-.09z" style="fill:#122a89"/></svg>