<svg xmlns="http://www.w3.org/2000/svg" xml:space="preserve" viewBox="0 0 215 220"><path d="M174.852 157.798c-10.425-5.438-10.752-21.955-9.09-33.527.995-6.931 2.583-14.174 3.057-21.272a8.1 8.1 0 0 0 1.212-2.106c6.096-15.171-3.904-42.079-11.707-49.36-11.585-10.811-25.721-15.585-33.075-17.165-10.235-2.199-29.375-3.798-41.316 1.547-3.908 1.749-7.873 5.782-11.211 10.417-5.053-.388-10.283.918-16.595 7.771-5.339 5.798-12.303 23.39-12.299 29.643.007 8.689.588 16.301 3.367 19.945.526 6.877 2.036 13.874 2.998 20.58 1.662 11.572 1.335 28.089-9.09 33.527-1.658.865.42 2.262 1.215 2.633 1.599.747 4.002 1.121 5.613.28a16.3 16.3 0 0 0 3.161-2.176c-1.138 4.994-.138 10.656 4.936 16.811 1.022 1.24 3.003 2.912 4.809 3.833-1.544 2.476-4.039 4.496-7.886 5.696-2.088.651.935 1.862 2.064 2.192 2.272.663 5.508.784 7.593.416 9.697-1.711 14.246-9.812 13.786-22.43-5.356-6.105-8.85-12.209-10.658-23.6-1.272-8.013-1.732-14.059-1.899-19.755.063-.109.126-.228.189-.377 1.288-3.053 2.064-7.215 3.092-11.805.479.971 1.104 1.971 1.989 3.165 3.794 5.118 3.968 3.092 3.387.382-1.481-6.903-.913-14.077.997-17.843 1.752-3.454 4.477-6.155 6.523-9.222 4.14 6.297 8.933 11.538 13.428 13.701 5.203 2.504 7.079 3.136 13.048 1.894 7.667-1.596 6.037-2.825 3.173-3.565-5.128-1.324-9.489-3.848-12.239-6.632 5.061 1.896 10.11 2.962 13.059 3.872 4.173 1.289 9.102 6.572 11.849 13.524 1.079 2.73 2.484 4.209 3.1-3.429.324-4.027.016-6.15-1.164-8.601.734.183 1.472.367 2.194.549 19.962 5.017 12.646 16.731 14.428 16.507 2.091-.262 3.813-2.331 4.948-4.934 1.115-2.556 1.537-3.951 1.537-3.951s.635 15.554 3.12 19.351c.685 1.048 1.12 1.083 1.511.384-.235 4.858-.733 10.147-1.787 16.785-1.808 11.391-5.302 17.495-10.658 23.6-.46 12.618 4.089 20.719 13.786 22.43 2.084.368 5.32.247 7.593-.416 1.129-.329 4.152-1.541 2.064-2.192-3.846-1.2-6.342-3.22-7.886-5.696 1.806-.921 3.787-2.593 4.809-3.833 5.074-6.155 6.074-11.816 4.936-16.811a16.3 16.3 0 0 0 3.161 2.176c1.612.841 4.014.467 5.613-.28.795-.371 2.873-1.768 1.215-2.633M61.966 176.922c-4.349-6.219-3.711-11.855-1.289-16.63 1.995 5.417 3.125 11.644 1.289 16.63m92.024 0c-1.837-4.986-.707-11.213 1.289-16.63 2.422 4.775 3.059 10.411-1.289 16.63" style="fill:#122a89"/></svg>