<svg xmlns="http://www.w3.org/2000/svg" xml:space="preserve" viewBox="0 0 215 220"><path d="M169.923 111.473c-1.319-10.386-3.228-25.747-10.794-34.722-5.868-6.959-9.137-11.703-18.044-15.167-4.494-1.748-14.515-2.804-18.231 1.284-4.506-5.555-18.717-7.058-38.454-3.166-5.24 1.033-12 5.118-16.811 9.087-5.267 4.345-14.212 13.557-17.645 25.722-4.37 15.487-4.279 39.862-4.298 40.166-.443 6.843 1.273 8.406 2.082 8.495 1.347.149 2.555-3.904 2.808-3.099.748 2.379-.405 12.91 2.493 15.564 2.688 2.461 6.372-16.115 6.825-10.228.521 6.781 1.479 16.693 5.457 16.693.729 0-.891-9.538.242-23.072.343-4.103 1.501-11.633 2.532-15.62 22.76-1.074 31.933-5.516 38.282-8.059 10.463-4.192 25.558-15.49 27.4-16.766 5.085 1.957 8.664 13.101 15.739 30.902 5.738 17.375-.289 33.107 2.032 32.981 1.281-.069 4.716-2.814 5.99-12.994.96-7.664 3.546 10.27 6.004 6.248 2.393-3.915 2.948-12.4 2.948-17.198 0-1.29.908 3.934 3.037 2.541 1.463-.956 1.463-21.272.406-29.592" style="fill:#122a89"/></svg>