<svg xmlns="http://www.w3.org/2000/svg" xml:space="preserve" viewBox="0 0 215 220"><path d="M180.43 141.467c.801-1.913 1.113-5.176.684-8.664-.268-2.174-.783-4.035-1.412-5.425.908-1.849 1.276-5.311.821-9.002-.317-2.572-.971-4.736-1.763-6.154.604-1.96.799-4.887.419-7.973-.416-3.381-1.416-6.042-2.547-7.231.309-1.818.364-4.08.072-6.447-.416-3.381-1.416-6.042-2.547-7.232.309-1.818.364-4.08.072-6.447-.468-3.8-1.668-6.727-2.97-7.63.004-1.991-.373-4.33-1.137-6.538-1.141-3.298-2.81-5.343-4.203-5.428-.617-1.439-1.53-2.783-2.675-3.748-2.024-1.705-4.105-1.719-5.279-.287-.532-.48-1.121-.883-1.762-1.154-1.982-.84-3.848-.284-4.912 1.206-4.655-6.485-8.841-9.04-14.349-12.815-3.901-2.674-20.947-11.353-34.492-5.905l-.009.003c-5.909-.545-13.668 1.556-16.909 3.148-8.845 4.344-15.573 9.982-20.472 16.267-.933-2.003-3.045-2.863-5.311-1.903-.641.272-1.229.674-1.762 1.154-1.174-1.432-3.255-1.418-5.279.287-1.146.965-2.058 2.309-2.675 3.748-1.392.085-3.061 2.13-4.203 5.428-.764 2.208-1.141 4.547-1.137 6.538-1.301.903-2.502 3.83-2.97 7.63-.291 2.367-.237 4.629.072 6.447-1.131 1.189-2.131 3.85-2.547 7.232-.291 2.367-.237 4.629.072 6.447-1.131 1.189-2.131 3.85-2.547 7.232-.38 3.085-.185 6.013.419 7.973-.792 1.418-1.446 3.582-1.763 6.154-.454 3.69-.087 7.152.821 9.002-.629 1.39-1.144 3.25-1.412 5.425-.429 3.488-.117 6.751.684 8.664-1.306.841-2.041 4.466-1.086 10.078 1.671 9.819 8.087 13.235 8.326 10.731.138-1.44-2.245-3.03-2.953-12.783-.219-3.017-.856-5.259-1.648-6.644 1.272-.963 2.435-3.851 2.894-7.576.454-3.69.087-7.152-.821-9.002.629-1.39 1.144-3.25 1.412-5.425.38-3.085.185-6.013-.419-7.973.792-1.418 1.446-3.582 1.763-6.154.291-2.367.237-4.629-.072-6.446.69-.725 1.329-1.984 1.817-3.644.087.441.187.852.293 1.243-.966 1.769-1.63 5.111-1.65 8.965-.014 2.689.29 5.138.796 6.992-.966 1.769-1.63 5.111-1.65 8.965-.018 3.522.506 6.64 1.32 8.532-.611 1.875-1.001 4.513-1.016 7.448-.022 4.2.728 7.825 1.821 9.479-.454 1.775-.732 4.04-.745 6.517-.019 3.653.546 6.87 1.412 8.737-.873 1.478-1.511 4.283-1.506 8.27.015 11.025-2.221 12.924-1.98 14.541.42 2.811 6.503-1.329 7.435-12.47.379-4.535-.021-7.876-.765-9.766 1.033-1.704 1.752-5.164 1.772-9.179.022-4.2-.728-7.825-1.821-9.479.453-1.774.732-4.04.745-6.517.018-3.522-.506-6.64-1.32-8.532.611-1.875 1.001-4.513 1.016-7.448.014-2.689-.29-5.138-.796-6.991.632-1.158 1.133-2.989 1.41-5.198.174.8.38 1.531.618 2.174-.885 1.657-1.399 4.678-1.236 8.135.149 3.155.822 5.899 1.726 7.525-.522 1.726-.789 4.112-.665 6.742.178 3.773 1.106 6.957 2.282 8.34-.371 1.626-.555 3.656-.45 5.879.206 4.367 1.415 7.939 2.854 8.842-.518 1.732-.781 4.288-.543 7.592.721 10.038 6.728 14.224 7.201 11.743.272-1.426-1.929-3.303-1.705-13.161.106-4.66-.919-7.619-2.19-8.449.571-1.74.874-4.211.744-6.962-.178-3.773-1.105-6.957-2.281-8.34.371-1.626.555-3.656.45-5.879-.149-3.155-.822-5.899-1.726-7.525.522-1.726.789-4.112.665-6.742-.114-2.42-.542-4.583-1.14-6.203.885-1.657 1.399-4.678 1.236-8.135-.114-2.42-.542-4.584-1.14-6.204.62-1.161 1.052-3.001 1.202-5.182.35 1.771.808 3.53 1.421 5.241 1.46 4.067 3.716 10.093 5.944 14.136l-.074 2.02c-.423 11.51-.852 23.046.416 34.054 1.025 8.897 3.032 15.99 5.494 20.702.804 1.539 2.047 3.254 3.026 2.788.709-.337 1.067-1.529.296-3.004-2.717-5.201-4.605-14.108-5.136-24.524-.115-2.246-.169-4.971-.184-7.983-.046-9.624.331-22.278.585-32.409.486 5.506 1.126 11.226 1.618 17.17.156 1.888 2.235 1.767 3.079-7.32.311-3.353.668-6.682 1.08-9.982.198-.3.397-.611.601-.951 6.988-11.678 11.247-29.221 17.759-48.113a41 41 0 0 1 2.235-.8c-5.488 16.82-9.907 39.103-16.587 45.327-1.342 1.251 1.184 1.77 4.208-3.005 6.514-10.285 9.632-26.474 16.069-43.385q.901-.228 1.761-.433c-3.817 14.282-6.782 31.137-12.505 36.518-1.257 1.182 1.296 1.442 4.001-2.913 5.269-8.482 7.449-20.927 11.751-34.398 2.332-.608 4.22-1.269 5.356-2.405 2.727 1.803 4.776 2.855 6.416 3.538 4.068 13.033 6.278 25.022 11.398 33.264 2.706 4.355 5.258 4.095 4.001 2.913-5.53-5.199-8.485-21.111-12.121-35.063.736.204 1.38.378 1.997.612 6.029 16.315 9.144 31.797 15.448 41.751 3.024 4.775 5.551 4.256 4.208 3.005-6.309-5.878-10.602-26.077-15.682-42.473.801.495 1.67 1.039 2.581 1.629 5.831 17.475 9.977 33.515 16.508 44.43.204.34.403.651.601.951.412 3.299.769 6.628 1.08 9.982.844 9.087 2.923 9.208 3.079 7.32.492-5.944 1.132-11.664 1.618-17.17.254 10.131.632 22.784.585 32.408-.014 3.013-.069 5.738-.184 7.984-.531 10.416-2.419 19.323-5.137 24.524-.77 1.475-.412 2.666.296 3.004.979.466 2.222-1.249 3.026-2.788 2.462-4.712 4.469-11.805 5.494-20.702 1.268-11.008.839-22.544.416-34.054l-.039-1.071c3.605-5.269 6.23-11.754 7.459-19.024.21 1.606.582 2.96 1.074 3.881-.598 1.62-1.026 3.784-1.14 6.203-.163 3.457.351 6.478 1.236 8.135-.598 1.62-1.026 3.784-1.14 6.203-.124 2.63.142 5.015.665 6.742-.903 1.626-1.577 4.37-1.726 7.525-.105 2.223.079 4.253.45 5.879-1.176 1.383-2.103 4.567-2.282 8.34-.13 2.751.173 5.222.744 6.962-1.271.83-2.296 3.789-2.19 8.449.224 9.858-1.977 11.735-1.705 13.161.473 2.481 6.481-1.705 7.201-11.743.237-3.305-.025-5.86-.543-7.592 1.439-.903 2.647-4.476 2.854-8.842.105-2.223-.079-4.253-.45-5.879 1.176-1.383 2.103-4.567 2.282-8.34.124-2.63-.142-5.016-.665-6.742.903-1.626 1.577-4.37 1.726-7.525.163-3.457-.351-6.478-1.236-8.135.237-.643.444-1.374.618-2.174.277 2.209.778 4.041 1.41 5.198-.506 1.854-.81 4.302-.796 6.991.015 2.936.404 5.574 1.016 7.448-.814 1.892-1.338 5.01-1.32 8.532.013 2.476.292 4.742.745 6.517-1.094 1.654-1.843 5.279-1.821 9.479.021 4.015.74 7.475 1.772 9.179-.744 1.89-1.144 5.232-.765 9.766.932 11.142 7.015 15.282 7.435 12.47.241-1.617-1.995-3.516-1.98-14.541.005-3.986-.633-6.792-1.506-8.27.866-1.866 1.431-5.084 1.412-8.737-.013-2.477-.291-4.742-.745-6.517 1.093-1.654 1.843-5.279 1.821-9.479-.015-2.936-.404-5.573-1.016-7.448.814-1.892 1.338-5.01 1.32-8.532-.02-3.854-.683-7.196-1.65-8.965.506-1.854.81-4.302.796-6.992-.02-3.854-.683-7.196-1.65-8.965.107-.391.206-.802.293-1.243.489 1.66 1.128 2.919 1.817 3.644-.309 1.818-.364 4.08-.072 6.446.317 2.572.971 4.736 1.763 6.154-.604 1.96-.799 4.887-.419 7.973.268 2.174.783 4.035 1.412 5.425-.908 1.849-1.276 5.311-.821 9.002.459 3.726 1.622 6.614 2.894 7.576-.792 1.385-1.429 3.627-1.648 6.644-.708 9.754-3.09 11.343-2.953 12.783.24 2.504 6.655-.912 8.326-10.731.958-5.614.223-9.239-1.083-10.079M49.291 101.459a18 18 0 0 0-.337-1.483c.349-.639.658-1.479.912-2.478.109.387.232.733.358 1.072-.391.73-.716 1.7-.933 2.889m24.39-.81c2.089-14.005 5.614-27.268 12.655-38.787-4.197 14.154-8.222 29.15-12.655 38.787m56.373-37.317q.376.279.75.565c6.252 11.036 9.503 23.563 11.471 36.752-4.281-9.304-8.18-23.602-12.221-37.317m36.611 38.127c-.218-1.189-.543-2.159-.933-2.889.125-.34.249-.686.358-1.072.254 1 .563 1.84.912 2.478q-.19.69-.337 1.483" style="fill:#122a89"/></svg>