<svg xmlns="http://www.w3.org/2000/svg" xml:space="preserve" viewBox="0 0 215 220"><path d="M61.318 126.17c-.835.055-1.876.348-2.53.911-4.029 3.472-3.463 9.24-2.49 13.97.67 3.257 1.508 6.664.77 9.987a10.02 10.02 0 0 1-4.833 6.544c-.691.391-.399.712.212.806.843.13 1.949-.323 2.67-.731 2.209-1.249 4.06-3.139 5.085-5.518 1.268-2.943 1.013-6.206.445-9.286-.941-5.105-3.069-12.109 1.553-16.09.661-.567-.588-.612-.882-.593m102.402 31.413a10.02 10.02 0 0 1-4.833-6.544c-.738-3.323.1-6.73.77-9.987.973-4.73 1.539-10.499-2.49-13.97-.654-.564-1.695-.857-2.53-.911-.294-.019-1.543.026-.882.595 4.622 3.982 2.494 10.985 1.553 16.09-.568 3.08-.823 6.343.445 9.286 1.025 2.379 2.876 4.268 5.085 5.518.722.408 1.827.861 2.67.731.611-.096.904-.417.212-.808" style="fill:#122a89"/><path d="M153.215 121.863c5.564-8.132 8.853-19.132 8.152-31.511-.58-10.252-2.614-18.492-7.624-26.717-5.707-9.37-10.345-12.098-16.8-16.523-3.901-2.674-20.947-11.353-34.492-5.905l-.009.003c-5.909-.545-13.668 1.556-16.909 3.148-16.45 8.078-25.638 20.613-29.191 33.508-1.603 5.818-3.323 18.291.489 28.913 1.46 4.067 3.716 10.093 5.944 14.136l-.074 2.02c-.423 11.51-.852 23.046.416 34.054 1.025 8.897 3.032 15.99 5.494 20.702.804 1.539 2.047 3.254 3.026 2.788.709-.337 1.067-1.529.296-3.004-2.717-5.201-4.605-14.108-5.136-24.524-.115-2.246-.169-4.971-.184-7.984-.046-9.624.331-22.278.585-32.409.486 5.506 1.126 11.226 1.618 17.17.156 1.888 2.235 1.767 3.079-7.32.311-3.353.668-6.682 1.08-9.982.198-.3.397-.611.601-.951 6.988-11.678 11.247-29.221 17.759-48.113a41 41 0 0 1 2.235-.8c-5.488 16.82-9.907 39.103-16.587 45.327-1.342 1.251 1.184 1.77 4.208-3.005 6.514-10.286 9.632-26.474 16.069-43.385q.902-.228 1.761-.433c-3.817 14.282-6.782 31.137-12.505 36.518-1.257 1.182 1.296 1.442 4.001-2.913 5.269-8.482 7.449-20.927 11.751-34.398 2.332-.608 4.22-1.269 5.356-2.405 2.727 1.803 4.776 2.855 6.416 3.538 4.068 13.033 6.278 25.022 11.398 33.264 2.706 4.355 5.258 4.095 4.001 2.913-5.53-5.199-8.485-21.111-12.121-35.063.736.204 1.38.378 1.997.612 6.029 16.315 9.144 31.797 15.448 41.751 3.024 4.775 5.551 4.256 4.208 3.005-6.309-5.878-10.602-26.077-15.682-42.473.801.495 1.67 1.039 2.581 1.629 5.831 17.475 9.977 33.515 16.508 44.43.204.34.403.651.601.951.412 3.299.769 6.628 1.08 9.982.844 9.087 2.923 9.208 3.079 7.32.492-5.944 1.132-11.664 1.618-17.17.254 10.131.632 22.784.585 32.408-.014 3.013-.069 5.738-.184 7.984-.531 10.416-2.419 19.323-5.137 24.524-.77 1.475-.412 2.666.296 3.004.979.466 2.222-1.249 3.026-2.788 2.462-4.712 4.469-11.805 5.494-20.702 1.268-11.008.839-22.544.416-34.054-.011-.365-.024-.713-.037-1.07m-79.534-14.601c2.089-14.005 5.614-27.268 12.655-38.787-4.197 14.154-8.222 29.15-12.655 38.787m56.373-37.317q.376.279.75.565c6.252 11.036 9.503 23.563 11.471 36.752-4.281-9.304-8.18-23.602-12.221-37.317" style="fill:#122a89"/></svg>