<svg xmlns="http://www.w3.org/2000/svg" xml:space="preserve" viewBox="0 0 215 220"><path d="M167.784 89.097c-2.427-14.266-4.66-22.199-9.671-30.425-5.707-9.37-14.213-16.848-20.668-21.273-3.377-2.315-16.975-8.367-29.355-6.422-12.38-1.946-25.978 4.107-29.355 6.422-6.455 4.425-14.96 11.903-20.668 21.273-5.01 8.226-6.916 16.218-9.671 30.425-4.66 24.033-4.565 65.256-4.347 79.389.115 7.464 7.232 19.371 19.367 18.701 10.59-.584 14.496-.833 19.276-11.934 1.293-3.002 1.1-7.582.215-13.311a76 76 0 0 1-3.862-3.768c-6.875-7.211-11.215-13.313-13.306-26.487-1.632-10.283-1.932-17.332-1.983-24.55l.007.01c.053-.898.015-1.989-.018-3.244l.001-3.948c.124-3.223.656-7.047 2.48-11.225.253-.578.539-1.15.841-1.719-.278 4.437-.128 8.927.394 13.351.158 1.341 5.341.266 5.147-1.379-.78-6.622-.731-13.549.437-20.214a121 121 0 0 1 3.317-3.577c-1.158 7.427-.926 15.113-.394 22.544.149 2.08 5.311.911 5.147-1.379-.65-9.073-.688-19.216 1.973-28.052a226 226 0 0 0 3.169-3.327c.772-.829 1.486-1.583 2.176-2.303a65 65 0 0 0-.392 1.33c-3.06 10.914-4.362 22.087-2.471 33.332.161.959 5.352-.16 5.147-1.379-1.774-10.548-.774-21.044 1.967-31.337.779-2.927 1.534-5.729 2.849-8.353.478-.322.951-.615 1.418-.865-1.17 4.262-1.87 8.664-2.274 13.061-.777 8.486-.988 18.297 2.599 26.236.533 1.179 5.517-.561 5.147-1.379-3.514-7.775-3.358-17.344-2.647-25.665.393-4.598 1.105-9.196 2.367-13.64l.03-.098c.259-.019.518-.038.787-.046.167.157.338.294.511.427l-.036 1.055c-.129 3.984-.172 7.97-.314 11.954-.322 9.004-.421 18.33 2.869 26.877.81 2.104 5.92.629 5.147-1.379-3.296-8.561-3.105-17.771-2.802-26.78.109-3.245-.009-6.643.071-10.012q.476.07.987.14c1.23 4.652 2.356 9.332 3.12 14.085 1.253 7.787 1.441 15.653.993 23.518-.031.542 5.067.02 5.147-1.379.449-7.865.26-15.73-.993-23.518-.631-3.924-1.507-7.798-2.483-11.648q.833.212 1.736.488a75.4 75.4 0 0 1 5.017 12.47c2.554 8.436 3.912 17.85 1.043 26.384-.697 2.072 4.52 1.455 5.182-.514 2.941-8.746 1.539-18.604-1.077-27.249a80 80 0 0 0-2.553-7.163c1.596 1.636 3.244 3.996 4.879 6.851 3.439 9.015 4.746 18.994 3.957 27.978-.052.59 5.017.105 5.147-1.379.135-1.535.187-3.105.2-4.686 3.254 9.953 5.513 20.078 5.664 26.675.405 17.665-1.758 29.048-4.059 37.355-3.118 11.258-6.491 16.857-4.076 24.697 3.208 10.413 15.81 11.868 26.014 8.98 6.937-1.964 9.879-12.147 9.879-19.611.001-16.041-.726-58.109-4.346-79.391" style="fill:#122a89"/></svg>