<svg xmlns="http://www.w3.org/2000/svg" xml:space="preserve" viewBox="0 0 215 220"><path d="M48.244 131.34a10 10 0 0 0 1.282 4.008c.22-.694.409-1.388.532-2.08-.691-1.406-1.235-3.014-1.601-4.752-.173 1.156-.273 2.228-.213 2.824m5.227 6.83c-.226.433-.461.85-.713 1.23a21.3 21.3 0 0 0 2.805 2.194c-.353-.873-1.021-1.994-2.092-3.424m1.798 7.052a15.6 15.6 0 0 1-4.108-1.907c-.17 1.389-.048 2.788.764 3.974 1.023 1.495 2.893 2.232 4.843 2.589a14 14 0 0 0-.685-1.003c-1.475-1.967-1.242-2.826-.814-3.653m109.659-31.925.022-.493c-.026.113-.05.238-.076.354q.029.071.054.139m-3.373 25.081c-.189-.543-.384-1.089-.576-1.636-1.473 1.855-2.302 3.221-2.723 4.264 1.283-.852 2.302-1.634 3.299-2.628m4.267-10.991a22 22 0 0 1-.858 2.954c.2.7.418 1.364.652 1.982.206-.653.35-1.334.423-2.058.061-.608-.041-1.7-.217-2.878m-7.268 17.293c.434.838.669 1.707-.824 3.698-.263.351-.487.687-.694 1.016 1.975-.361 3.868-1.108 4.905-2.622.822-1.201.945-2.617.773-4.024a15.8 15.8 0 0 1-4.16 1.932" style="fill:none"/><path d="M173.123 104.049c.206-7.983-3.47-16.041-6.844-28.851-2.159-8.196-8.013-21.851-20.912-32.554-.008-.007-.008 0-.014-.003-1.404-1.369-2.826-2.593-4.257-3.596-2.145-1.502-10.793-6.476-23.565-7.392-5.453 0-8.831.849-10.947 2.164-2.116-1.314-5.494-2.164-10.946-2.164-12.771.916-21.42 5.89-23.565 7.392-1.439 1.008-2.869 2.241-4.281 3.62-.007.004-.007-.004-.016.005C45.122 64.084 47.91 70.288 44.489 80.066c-4.501 12.862-6.534 19.833-4.063 28.409 1.906 6.614 2.476 8.699 1.084 16.011-.203 1.068 1.428.481 3.187-1.386-1.604 5.131-1.99 10.573 1.235 15.242.255.37.54.68.812 1.017-.343 1.126-.632 2.262-.756 3.436-.283 2.674.433 5.339 2.534 7.332 1.879 1.783 4.658 2.756 7.455 3.108.57.072 1.044-.05 1.455-.245.245 4.948-7.242 6.019-4.775 6.539 4.938 1.042 8.738.74 11.857-.304-2.373 1.608-3.378 2.062-7.101 3.005-1.994.505-3.948.792-3.127 1.112 3.879 1.511 13.596 1.483 18.4-1.394.239-.143.451-.32.678-.478-4.725-5.726-7.863-11.807-9.549-22.434a171 171 0 0 1-1.18-8.876c.974-1.364 1.814-2.798 2.151-3.921 1.452-4.843.371-7.749 1.452-10.235 0 0 .263-.426.853-1.35 4.462-.879 12.038-3.928 14.862-7.984 3.83-5.5 5.769-18.53 5.483-28.565-.336-11.798 4.458-19.084 18.634-16.616l.038.008a.56.56 0 0 0 .473.069c.04.007.049.003.042-.007 19.485-3.936 13.299 15.84 13.869 25.595.497 8.511 3.041 15.117 10.438 20.621 1.158.862 3.235 1.861 4.508 2.186.444.113 2.62.565 1.428-.322-7.49-5.574-10.653-15.376-10.747-23.087-.015-1.253.168-2.667.466-4.185 1.457 8.942 3.584 17.54 7.333 22.119 1.774 2.166 4.959 3.912 8.262 5.158.276 4.053-.152 7.283-.046 9.609.189 4.138 1.208 7.975 3.752 12.535 1.771 3.177 1.045.015 1.045-2.678 0-6.231-.003-6.493-.004-6.5.959 1.373 1.491 6.187 3.351 9.779-.25 2.078-.55 4.27-.927 6.648-1.687 10.628-4.825 16.708-9.549 22.434.227.158.439.335.678.478 4.803 2.877 14.521 2.906 18.4 1.394.822-.32-1.133-.607-3.127-1.112-3.723-.943-4.727-1.398-7.101-3.005 3.119 1.044 6.919 1.346 11.857.304 2.467-.521-5.02-1.591-4.774-6.539.411.196.885.317 1.455.245 2.797-.352 5.576-1.325 7.455-3.108 2.101-1.992 2.818-4.658 2.534-7.332-.125-1.174-.414-2.31-.757-3.436.265-.328.541-.634.791-.991.405.168.806.346 1.235.469.668.191.284-.405-.477-1.703 2.702-4.925 1.818-10.567-.081-15.752a84 84 0 0 1-.65-1.854c2.606 3.067 6.378 4.782 5.792 3.343-3.344-8.231-.05-13.362.091-18.823m-8.195 9.248-.053-.138c.025-.117.05-.241.076-.354zm-3.373 25.081c-.997.993-2.016 1.776-3.299 2.628.421-1.043 1.251-2.408 2.723-4.264.192.547.387 1.093.576 1.636m-108.76-.838c1.085 1.448 1.761 2.583 2.118 3.466a21.7 21.7 0 0 1-2.84-2.221c.255-.385.493-.807.722-1.245m-4.358-3.191a10.2 10.2 0 0 1-1.307-4.085c-.061-.608.04-1.7.217-2.877.374 1.771.927 3.41 1.632 4.842a17 17 0 0 1-.542 2.12m2.792 12.424c-.822-1.201-.945-2.617-.773-4.024a15.8 15.8 0 0 0 4.16 1.931c-.434.838-.669 1.707.824 3.698.263.351.487.687.693 1.016-1.974-.36-3.868-1.107-4.904-2.621M79.5 98.666c-.557 2.563-2.997 8.082-4.662 9.549a26 26 0 0 1-6.233 4.096c.641-.985 1.419-2.171 2.383-3.63 2.779-4.203 5.25-9.676 6.018-18.185.473-5.247-1.256-9.879 1.751-15.785.247 3.937 1.193 7.883 1.419 11.756.192 3.295.234 8.015-.676 12.199m61.897 6.951c-1.799-1.406-3.225-4.051-4.56-6.556-1.825-3.425-2.629-9.42-2.739-12.949-.008-.248-.009-.515-.013-.774.378 2.452.969 4.787 2.298 6.949 3.14 5.11 4.636 9.637 5.333 13.565-.107-.081-.212-.151-.319-.235m20.544 41.156c-1.037 1.514-2.93 2.261-4.905 2.622.206-.329.431-.665.694-1.016 1.493-1.991 1.257-2.861.824-3.698a15.8 15.8 0 0 0 4.16-1.932c.172 1.407.049 2.824-.773 4.024m3.023-16.432c.339-.935.638-1.912.858-2.954.176 1.177.278 2.27.217 2.877a10.3 10.3 0 0 1-.423 2.058 25 25 0 0 1-.652-1.981" style="fill:#122a89"/></svg>