<svg xmlns="http://www.w3.org/2000/svg" xml:space="preserve" viewBox="0 0 215 220"><path d="M158.318 51.226c-11.585-10.811-25.721-15.585-33.075-17.165-10.235-2.199-29.375-3.798-41.316 1.547-3.908 1.749-7.873 5.782-11.212 10.417-5.053-.388-10.283.918-16.595 7.771-5.339 5.798-12.303 23.39-12.299 29.643.01 12.58 1.224 22.903 8.571 22.186-4.977 24.498 4.477 45.094 5.499 62.829.965 16.755 1.652 8.308 4.211 4.361 0 0 .987 5.149 3.133 9.05 2.46 4.471 6.108 7.645 5.879 5.381-.812-8.028.965-14.972 4.835-22.552.051-.1.091-.193.141-.292-5.187-5.992-8.588-12.079-10.362-23.256-1.272-8.013-1.732-14.059-1.899-19.755.063-.109.126-.228.189-.377 1.288-3.053 2.064-7.215 3.092-11.805.479.971 1.104 1.971 1.989 3.165 3.794 5.118 3.968 3.092 3.387.382-1.481-6.903-.913-14.077.997-17.843 1.752-3.454 4.477-6.155 6.523-9.222 4.14 6.297 8.933 11.538 13.428 13.701 5.203 2.504 7.079 3.136 13.048 1.894 7.667-1.596 6.037-2.825 3.173-3.565-5.128-1.324-9.489-3.848-12.239-6.632 5.061 1.896 10.11 2.962 13.059 3.872 4.173 1.289 9.102 6.572 11.849 13.524 1.079 2.73 2.484 4.209 3.1-3.429.324-4.027.016-6.15-1.164-8.601.734.183 1.472.367 2.194.549 19.962 5.017 12.646 16.731 14.428 16.507 2.091-.262 3.813-2.331 4.948-4.934 1.115-2.556 1.537-3.951 1.537-3.951s.635 15.554 3.12 19.351c.685 1.048 1.12 1.083 1.511.384-.235 4.858-.733 10.147-1.787 16.785-1.774 11.178-5.174 17.264-10.361 23.256.05.099.09.192.141.292 3.871 7.58 5.648 14.523 4.835 22.552-.229 2.265 3.419-.91 5.879-5.381 2.146-3.9 3.133-9.05 3.133-9.05 2.56 3.948 3.247 12.395 4.211-4.361 1.027-17.833 10.589-38.557 5.423-63.233 2.522-.392 5.071-.957 6.549-4.636 6.1-15.171-3.9-42.079-11.703-49.359" style="fill:#122a89"/></svg>