<svg xmlns="http://www.w3.org/2000/svg" xml:space="preserve" viewBox="0 0 215 220"><path d="M174.26 136.052c-7.728-18.027-2.854-22.771-6.474-44.053-2.427-14.266-4.66-22.199-9.671-30.425-5.707-9.37-14.213-16.848-20.668-21.273-3.377-2.315-16.975-8.367-29.355-6.422-12.38-1.946-25.978 4.107-29.355 6.422-6.455 4.425-14.96 11.903-20.668 21.273-5.01 8.226-7.244 16.158-9.671 30.425-3.62 21.282 1.253 26.026-6.474 44.053-5.268 12.288 8.099 25.886 2.127 35.336-3.988 6.31-1.48 12.144 5.457 14.107 10.205 2.888 25.902-.31 30.682-11.411 2.543-5.906 1.621-8.91.134-11.71-.428-.429-.856-.857-1.277-1.298-6.875-7.211-11.215-13.313-13.306-26.487-1.632-10.283-1.932-17.332-1.983-24.55l.007.01c.053-.898.015-1.989-.018-3.244l.001-3.948c.124-3.223.656-7.047 2.48-11.225 3.42-7.833 11.596-14.695 20.032-23.753 8.214-8.82 11.379-11.262 17.885-11.106 4.192 4.542 14.039 10.837 19.406 13.547 5.03 2.54 10.134 4.605 12.956 12.632 13.802 39.261-2.591 44.687 2.07 65.243 1.654 7.295-.664 10.459-2.452 13.686-1.634 2.949-2.825 5.949-.132 12.202 4.78 11.101 20.477 14.299 30.682 11.411 6.937-1.964 9.445-7.797 5.457-14.107-5.971-9.449 7.396-23.047 2.128-35.335" style="fill:#122a89"/></svg>