<svg xmlns="http://www.w3.org/2000/svg" xml:space="preserve" viewBox="0 0 215 220"><path d="M177.034 166.489c-.067-.024-.117-.051-.194-.073-3.924-.73-6.786-2.606-8.843-5.144.479-.383.939-.772 1.353-1.162 2.586-2.438 4.212-5.686 4.085-9.282-.127-3.599-1.803-6.721-3.487-9.812-2.045-3.753-3.78-7.424-4.674-11.479.313-2.773.501-5.553.346-8.348-.175-3.162-.82-6.317-2.282-9.147-.476-.921-1.169-2.204-2.019-3.295 1.291-5.002 1.742-10.19 1.473-15.488-.314-5.182-1.109-10.192-2.511-15.004.165.283.329.567.464.865.499 1.104.449 3.391 1.594 4.006 1.002.539 2.373-.154 3.026-.924 1.09-1.286 1.176-3.166.902-4.752-.584-3.378-2.564-6.295-5.148-8.478a22 22 0 0 0-2.16-1.591c4.681-.943 9.154-3.832 8.495-8.974-.152-1.188-.496-1.696-1.704-1.531-1.591.218-2.175 1.262-3.218 2.225-1.34-2.377-3.685-3.979-6.208-4.894-.342-.124-.684-.193-1.027-.294.433-1.668.71-3.386.807-5.114.313-5.545-.768-11.888-5.556-15.355-6.26-4.534-14.69-2.615-20.789 1.13-3.226 2.092-5.979 4.767-8.377 7.762l-.025.032c-3.149-.696-6.354-1.071-9.542-1.022a29.4 29.4 0 0 0-6.509.816c-.996.243-2.034.791-3.036.91-1.199.143-2.497-.066-3.713.017-4.433.303-9.026 1.303-13.099 3.104C68.789 53.567 56.069 69.3 53.638 87.45c-.652 4.865-.731 9.83-.091 14.7.299 2.278.847 4.487 1.489 6.673-1.557 1.829-2.741 4.025-3.501 6.262-1.643 4.834-1.44 10.047-.856 15.11a30.6 30.6 0 0 1-2.599 7.628c-1.857 3.742-4.448 7.295-5.284 11.456-.96 4.775 1.444 9.609 5.289 12.492-1.853 2.141-4.445 3.709-8.041 4.378-.267.05-.466.136-.632.236-1.648.73-1.572 2.021.123 3.213 2.145 1.507 5.232 2.417 7.849 2.208 4.51-.359 8.871-2.65 11.91-6.003.003.085.022.167.022.252.055 6.076-5.886 7.289-10.864 7.424-1.428.098-3.423 1.156-1.578 2.373 2.06 1.36 4.909 1.86 7.277 2.281 3.268.581 6.912.798 10.266.048 2.129 3.997 5.827 6.915 9.943 8.816 2.976 1.374 5.907 2.012 9.192 1.911 1.822-.056 4.923-.103 6.331-1.519 1.772-1.783-3.182-2.876-4.289-3.474-2.451-1.325-4.664-3.15-6.208-5.489-1.616-2.448-2.327-4.948-2.444-7.467-.049-1.052.024-2.108.163-3.164.05-.383.102-.766.173-1.149q-.585-.661-1.135-1.317a53 53 0 0 1-.987-1.213c-2.301-2.905-4.112-5.847-5.532-9.362a38 38 0 0 1-1.093-3.063c-.772-2.469-1.4-5.229-1.909-8.431-.082-.515-.155-1.01-.23-1.51q-.098-.651-.19-1.286-.075-.523-.144-1.035l-.014-.102-.16-1.203a142 142 0 0 1-1.051-11.94c.513-.333.932-.875 1.121-1.711.383-1.692-.185-3.674-.477-5.345-.175-1-.506-2.418-.61-3.798-.096-1.272.001-2.512.613-3.357.417-.576 1.692-1.208 2.634-1.715.311-.168.587-.322.783-.456 1.023-.702 2.001-1.466 2.983-2.223-.053 1.037.761 1.96 2.456 2.019 3.062.107 6.522-1.414 9.192-2.778.257-.131.498-.286.75-.424-.023.418.123.856.516 1.294 1.52 1.695 4.814.521 6.563.03 5.476-1.54 10.494-4.546 14.175-8.914 4.541-5.389 7.017-12.625 8.934-19.481 8.176 12.512 19.225 24.156 32.258 31.445.296.165.796.344 1.114.57.06.043.127.085.17.132.097.105.149.156.185.188-.038-.022-.084-.025-.112.031-.023.047-.034.132-.006.305.068.422.158.841.221 1.265.314 2.106.356 4.242.314 6.368-.044 2.225-.774 5.254-.111 7.429.395 1.296 1.546 1.372 2.531.896a143 143 0 0 1-.881 9.586l-.074.586c-.026.199-.048.391-.075.593-.024.183-.053.376-.078.561a176 176 0 0 1-.397 2.749c-.062.41-.121.813-.188 1.233-.48 3.026-1.069 5.654-1.784 8.018q-.307 1.023-.648 1.984c-.233.655-.48 1.286-.738 1.903-1.376 3.295-3.108 6.09-5.282 8.849q-.517.657-1.07 1.315a68 68 0 0 1-1.164 1.349q.109.564.188 1.133c.143 1.045.203 2.1.16 3.167a16 16 0 0 1-.835 4.555c-.852 2.496-2.418 4.681-4.458 6.344-1.218.993-2.562 1.805-3.979 2.481-1.128.538-2.884.816-3.73 1.793-1.555 1.794 1.688 2.533 2.911 2.745 2.777.482 5.945.407 8.657-.376 5.542-1.6 11.048-5.302 13.839-10.474 2.366.404 4.852.368 7.052.113 3.025-.351 6.121-.975 8.937-2.162 1.068-.45 3.815-1.913 1.412-2.184a1.2 1.2 0 0 0-.239-.027c-4.403-.12-10.308-.991-11.658-5.998a8.5 8.5 0 0 1-.259-1.746 17.15 17.15 0 0 0 8.818 5.114c2.981.691 5.94.148 8.73-1.05 1.018-.441 5.328-2.722 2.837-3.619m-13.662-32.745a30 30 0 0 0 .988 2.558c1.101 2.481 2.465 4.844 3.74 7.245 1.394 2.625 2.633 5.481 2.513 8.52-.119 3.011-1.618 5.574-3.79 7.543q-.4.366-.83.706c-.125.098-.26.184-.387.279q-.471.351-.966.668c-1.139.721-2.369 1.289-3.709 1.538-.041.008-.152.024-.284.045.043-.031.088-.057.131-.088a17 17 0 0 0 2.061-1.714c.359-.355.671-.723.961-1.096q.438-.56.778-1.145a9.6 9.6 0 0 0 .852-1.905c.973-3.054.375-6.421-1.021-9.595-.087-.197-.172-.395-.265-.591-.196-.412-.408-.814-.613-1.22l-.037-.073c-.331-.656-.66-1.313-1.002-1.962l-.281-.536c-.39-.739-.766-1.484-1.142-2.23a45 45 0 0 1-1.333-2.91c-.186-.447-.39-.883-.555-1.342-.03-.083-.048-.169-.077-.253-.069-.197-.116-.398-.182-.596-1.409-4.236-2.028-8.622-1.696-13.094.033-.117 4.647-1.897 5.019-1.281-.241-.399-.433 1.281-.422 1.223-.089.476-.029 1.155-.026 1.616q.01 1.328.12 2.65c.107 1.287.319 2.562.585 3.827.175.833.357 1.666.602 2.481.077.251.185.486.268.732m-2.693-20.678c.997 2.015 1.595 4.098 1.934 6.222-.583.026-1.172.137-1.618.212-1.185.201-3.18.588-4.689 1.371.472-.876.921-1.743 1.35-2.56a44 44 0 0 0 2.617-6.049c.152.294.29.57.406.804m1.829-37.938c.443.97.777 2.01.955 3.063a12 12 0 0 0-.567-1.08c-.798-1.355-1.878-2.499-3.09-3.494-.5-.411-1.036-.772-1.574-1.128a52 52 0 0 0-1.752-3.759 19 19 0 0 1 2.26 1.603c1.557 1.302 2.922 2.941 3.768 4.795m-1.998-13.86q.598-.183 1.148-.422c.449-.197.882-.416 1.296-.666.588-.355 1.149-.76 1.704-1.212.052.458.026.939.011 1.25-.076 1.587-.549 2.824-1.635 3.984-1.52 1.624-3.305 2.351-5.295 2.433a33 33 0 0 0-3.419-1.688c-.343-.545-.657-1.099-1.024-1.637a41 41 0 0 0-1.521-2.065c.063-.079.137-.151.198-.232 1.801.555 3.668.857 5.557.763.293-.015.585-.028.879-.062.256-.03.491-.08.733-.123q.61-.108 1.168-.267.101-.027.2-.056m-5.752-5.556c1.398.594 2.698 1.404 3.752 2.512.483.509 1.128 1.364 1.525 2.273-.047.013-.097.018-.145.03-.156-.166-.306-.334-.49-.486-1.003-.829-2.187-1.446-3.4-1.903a17 17 0 0 0-1.97-.6c.272-.595.511-1.205.728-1.826m1.221 4.773c-1.024-.216-2.044-.558-3.015-.956.07-.114.153-.22.221-.336.25.083.51.137.756.234.715.281 1.399.636 2.038 1.058m-24.411-24.817c4.965-3.049 11.476-4.415 16.579-.861 4.03 2.806 5.207 8.101 5.184 12.738a28 28 0 0 1-.615 5.797q-.086.386-.185.768c-.068.268-.133.535-.211.8a19 19 0 0 1-.808 2.2c-.105.243-.206.488-.322.726s-.246.468-.373.701l-.032.056c-.15.27-.299.54-.464.802l-.037.053a46 46 0 0 0-1.875-2.032q.074-.068.153-.13c.14-.111.273-.233.41-.35.235-.203.486-.382.708-.605a8.8 8.8 0 0 0 1.182-1.71c.13-.238.229-.493.338-.743.105-.239.236-.462.323-.71 1.253-3.559.678-7.959-1.457-10.896-.589-.81-2.96-.147-2.69.964.874 3.603-.481 7.672-3.261 10.107-.035.031-.075.057-.111.088a56 56 0 0 0-4.639-3.347c2.421-.187 4.994-.978 6.526-2.787.251-.296.35-.578.138-.925-.678-1.109-2.228-1.7-3.397-2.097a14.9 14.9 0 0 0-4.692-.781c-2.651-.01-5.205.631-7.554 1.797a53 53 0 0 0-6.635-2.322c2.243-2.792 4.771-5.325 7.817-7.301m15.741 17.443a12.9 12.9 0 0 0 2.031-3.084c-.025 1.051-.183 2.083-.506 3.039a39 39 0 0 0-1.525.045m.975 1.257a6.8 6.8 0 0 1-.909 1.287c-.127.128-.268.233-.407.343-.46-.432-.921-.862-1.398-1.276.153-.118.312-.229.459-.355a30 30 0 0 1 2.255.001m-10.62-6.17c-.779-.091-1.538-.276-2.288-.501a59 59 0 0 0-2.837-1.442c1.467-.603 3.043-.938 4.632-.912 1.204.02 2.392.218 3.541.579.768.241 1.725.595 2.353 1.195-1.439 1.151-3.673 1.283-5.401 1.081m-84.021 69.244a19 19 0 0 1 2.246-5.874c.422 1.315.85 2.629 1.265 3.949.485 1.547.944 3.252 1.522 4.907-1.143-.329-2.328-.512-2.959-.599a7.5 7.5 0 0 0-2.447.055c.092-.812.207-1.626.373-2.438m-8.149 35.579c-1.129-6.212 3.34-11.607 5.943-17.043a24 24 0 0 0 .906-2.119c.071-.193.111-.397.177-.592.386-1.139.69-2.302.933-3.483.153-.744.314-1.487.414-2.236q.238-1.79.273-3.598c.006-.289.108-1.968.043-2.944.057.007.118.014.16.022q.968.203 1.905.52c.697.235 2.26.636 2.495 1.457.332 4.461-.346 8.525-1.607 12.445-.079.246-.17.49-.254.735-.13.381-.254.763-.395 1.141a56 56 0 0 1-1.525 3.683c-.374.824-.76 1.647-1.168 2.47-.093.188-.193.377-.288.565-.317.63-.633 1.26-.964 1.894l-.044.085-.205.406a29 29 0 0 0-.661 1.384c-1.405 3.179-2.16 6.613-1.038 9.74.178.497.394.988.673 1.467.19.326.411.647.652.963.177.233.359.464.565.691a13.6 13.6 0 0 0 1.71 1.569c.16.124.323.261.49.392-1.192-.411-2.313-.861-3.451-1.627-.09-.061-.18-.101-.271-.166-.177-.127-.346-.266-.519-.4a17 17 0 0 1-.886-.733c-2.003-1.77-3.574-3.999-4.063-6.688m11.713 11.956c-1.895 2.22-4.383 3.778-7.192 4.565-1.874.525-3.535.539-5.392-.055-.807-.258-1.612-.579-2.343-1.012-.767-.455-.916-.929-1.795-.677 3.879-.722 6.933-2.499 9.245-4.96 1.702.935 3.595 1.512 5.561 1.577.585.019 1.704-.012 2.547-.28-.208.282-.401.574-.631.842m1.571-2.247c-.481-.807-2.151-1.543-2.716-2.059-1.222-1.114-2.076-2.39-2.61-3.767.413-1.03.751-2.106 1.022-3.217 1.619 2.856 3.46 5.834 4.328 9.001zm15.541 5.328c-.216 1.756-.222 3.556.087 5.423.674 4.076 2.971 7.625 6.275 10.077.586.435 7.041 3.896 7.066 3.289-.017.419-3.507.488-3.755.49-1.604.012-3.239-.117-4.772-.615-4.883-1.585-9.613-4.825-12.051-9.433.755-.328 1.491-.7 2.179-1.173 2.979-2.049 4.408-5.352 4.263-8.888.23.276.469.553.708.83m-9.134-13.467c.349.656.723 1.313 1.104 1.972l.699 1.211q.38.652.751 1.312c1.368 2.432 2.6 4.947 2.979 7.674.516 3.713-.981 7.261-4.307 8.913-.3.149-.591.306-.921.423-.135.048-.275.081-.412.124q-.687.215-1.396.351c-2.359.454-4.868.314-7.202-.036a32 32 0 0 1-4.837-1.094c-.166-.052-.619-.175-1.111-.335 6.315-.725 12.582-3.769 11.46-11.254a15 15 0 0 0-.286-1.418 18 18 0 0 0-.538-1.722 24 24 0 0 0-.694-1.704c-.859-1.905-1.926-3.732-2.921-5.538-.696-1.263-1.583-2.768-2.359-4.371a25 25 0 0 1-.817-1.865c.279-.622.582-1.235.895-1.844 1.215-2.362 2.611-4.654 3.611-7.088.126-.306.234-.616.351-.924.49.089.982.161 1.468.278.535.129 1.061.286 1.588.437.138.04.279.074.416.114q.242 1.913.554 3.986a7 7 0 0 0-.325.628c-.072.151-.17.288-.23.444-.934 2.437-.376 5.029.605 7.45a33 33 0 0 0 1.218 2.623c.22.429.442.848.657 1.253m-5.287-19.101c.108-.335.223-.669.322-1.007l.16 1.086c-.16-.026-.324-.058-.482-.079m90.768-25.179c-.063-.267-.347-.543-.606-.62-2.346-.696-4.824-2.747-6.803-4.129-3.466-2.42-6.709-5.149-9.792-8.038-7.014-6.575-13.167-14.044-18.199-22.237-.51-.83-2.379-.487-2.626.439-2.047 7.692-4.499 16.522-9.882 22.612-2.268 2.566-5.102 4.567-8.219 5.968-1.597.718-3.265 1.258-4.967 1.666-.218.052-2.682.782-2.064-.169.214-.33 1.66-.433 2.006-.509 6.151-1.353 10.966-5.433 14.069-10.819 3.896-6.762 6.235-14.866 7.756-22.483.272-1.364-2.103-1.09-2.61-.377-7.211 10.144-11.804 22.509-21.84 30.415-2.474 1.949-5.246 3.524-8.244 4.51q-1.127.371-2.284.636c-.381.087-1.393.471-1.269-.002.165-.631 3.711-1.303 4.484-1.63 6.123-2.592 10.682-7.841 14.372-13.199 4.971-7.22 8.652-15.286 13.935-22.287 1.066-1.413-1.24-1.8-2.132-1.167-4.263 3.026-7.986 6.782-11.153 10.934-3.271 4.288-6.208 8.713-9.857 12.709a123 123 0 0 1-12.314 11.737c-1.953 1.62-3.97 3.166-6.082 4.573-1.627 1.084-2.767 1.564-3.497 2.885a66.9 66.9 0 0 1 5.049-26.282c-4.821 7.187-7.11 16.157-6.647 24.897-1.657-8.899-2.466-17.852 1.288-26.494-7.006 9.988-4.554 23.245-.224 33.944.315 1.81.799 3.618.858 5.421a3 3 0 0 1-.159-.227c-.839-1.521-1.403-3.211-1.963-4.849-2.81-8.214-5.369-16.258-5.056-25.056.625-17.576 9.96-32.848 24.965-41.983 3.701-2.254 7.422-3.977 11.652-4.946 2.326-.533 4.711-.89 7.101-.935.983-.018 2.046.194 3.009.018.942-.172 1.884-.681 2.824-.925 8.244-2.139 17.256.245 24.819 3.67 6.823 3.09 13.623 7.884 18.289 13.756 7.311 9.201 10.591 20.096 11.293 31.697.401 7.895-.876 15.323-4.016 22.332 1.528-6.415.447-13.523-1.314-19.734-.039 8.158.961 16.069-.855 24.004-.133.231-.245.468-.382.698a70 70 0 0 1-1.997 3.133 3 3 0 0 1-.112.147l.037-.734c.198-4.342.362-8.707-.641-12.97m-61.377-7.32c3.434-2.819 6.373-6.253 8.943-9.871 3.161-4.449 5.781-9.246 8.585-13.922-1.379 4.984-3.199 9.919-5.628 14.344-1.483 2.701-3.469 5.161-5.981 6.967-1.891 1.359-3.862 1.892-5.919 2.482m-13.655 1.542a131 131 0 0 0 4.983-4.47c4.786-4.538 9.239-9.376 13.065-14.755 2.145-3.015 4.348-5.915 6.794-8.588-3.007 4.995-5.753 10.164-9.081 14.956-2.268 3.266-4.791 6.422-7.903 8.925-1.426 1.147-2.963 2.144-4.631 2.903-1.02.464-2.14.715-3.227 1.029m80.388 31.472q-.327.06-.653.125.113-.776.221-1.553c.131.479.279.954.432 1.428m-15.851 49.359c-2.932 1.397-5.814 1.971-9.065 1.672a12 12 0 0 1-1.498-.211 4 4 0 0 1-.396-.113c.366-.128.74-.283.837-.325a25 25 0 0 0 2.316-1.137c3.721-2.08 6.908-5.134 8.396-9.202 1.003-2.743 1.211-5.42.924-8.044q.247-.287.489-.573l.084-.098c-.219 2.209.202 4.394 1.683 6.511 1.238 1.77 2.996 2.887 4.964 3.576-1.861 3.553-5.076 6.202-8.734 7.944m14.852-14.789c2.458 3.719 7.688 4.288 11.738 4.398.582.04-.17.235-.45.362a13 13 0 0 1-1.092.425c-1.603.553-3.299.884-4.973 1.132-2.675.396-5.5.401-8.125-.322-.089-.024-.181-.033-.27-.059-.328-.097-.64-.223-.951-.347a10 10 0 0 1-1.195-.57c-2.403-1.345-4.097-3.587-4.489-6.479-.413-3.046.444-5.794 1.744-8.441q.485-.85.933-1.735l.189-.377q.345-.606.701-1.209.433-.73.869-1.46a68 68 0 0 0 1.726-3.032c.471-.889.897-1.791 1.256-2.709.501-1.28.877-2.592 1.017-3.962.136-1.326-.044-2.59-.585-3.74-.09-.192-.209-.374-.32-.559a173 173 0 0 0 .593-4.359c.143-.03.286-.065.426-.094.394-.08.775-.154 1.115-.23l.341-.079c.362-.084.719-.166 1.071-.23.034.097.054.196.089.293 1.128 3.131 2.832 5.954 4.305 8.898.308.615.586 1.244.865 1.874q-.326.886-.728 1.776c-1.501 3.33-3.673 6.672-5.082 9.473-.316.628-.59 1.228-.812 1.795-.05.127-.102.256-.146.379-.171.48-.32.981-.455 1.488-.688 2.576-.816 5.413.695 7.7m2.415-7.856c-.107-.175-.216-.349-.318-.528.532-1.862 1.409-3.66 2.272-5.288.592-1.117 1.283-2.281 1.98-3.481a24.6 24.6 0 0 0 1.182 3.967c-.19.475-.416.944-.714 1.397-.679 1.034-1.596 1.912-2.581 2.65-.52.39-1.328.765-1.821 1.283m14.416 7.201c-1.815.568-3.491.337-5.276-.191-2.472-.732-4.757-2.019-6.613-3.812a15 15 0 0 1-1.023-1.105c2.351.164 4.784-.726 6.918-2.028 2.114 2.334 4.946 4.05 8.689 4.747 1.675.481-2.384 2.291-2.695 2.389" style="fill:#122a89"/><path d="M100.428 68.318c-7.062 3.193-12.41 8.675-17.184 14.649-6.039 7.558-11.972 15.397-17.344 23.446-.952 1.426 1.204 1.884 2.132 1.167 8.069-6.238 14.356-14.038 20.449-22.15 4.173-5.586 8.046-11.106 13.531-15.514 1.384-1.111-.435-2.117-1.584-1.598M86.11 84.501c-3.762 5.008-7.589 9.896-11.884 14.357 3.45-4.741 7.023-9.406 10.623-13.993 2.196-2.797 4.499-5.502 7.04-7.926-1.983 2.444-3.859 4.992-5.779 7.562m57.404 14.401c-3.61-4.218-7.47-8.215-11.324-12.207-4.456-4.615-8.945-9.266-13.819-13.458-.028-.02-.048-.05-.079-.067-.77-.661-1.525-1.342-2.318-1.976-.834-.667-2.275-.048-2.494.933l-.081.363c-.059.264.146.615.354.758.806.553 1.616 1.099 2.42 1.653 4.637 7.652 10.29 14.617 16.659 20.893 4.361 4.298 8.71 8.626 13.865 11.972.919.596 3.114-.163 2.347-1.481-1.544-2.659-3.537-5.055-5.53-7.383m-8.106-4.374a110 110 0 0 1-8.823-9.718q1.744 1.797 3.474 3.595c3.047 3.16 6.063 6.353 8.981 9.634a400 400 0 0 1-3.632-3.511M90.903 55.419c-11.877 2.756-22.265 12.376-25.947 23.996 6.046-10.582 14.931-18.785 25.947-23.996m56.543 15.164c-6.943-11.926-17.658-17.823-31.246-18.928 5.945 2.06 12.019 3.656 17.255 6.819 5.289 3.083 9.589 7.615 13.991 12.109m-20.014-10.371c11.673 7.471 20.645 18.006 26.19 30.705-3.09-13.505-13.347-25.516-26.19-30.705m-23.362 1.599c-.36-4.622.107-8.381 1.553-12.785-3.657 2.922-4.395 9.072-1.553 12.785" style="fill:#122a89"/></svg>