<svg xmlns="http://www.w3.org/2000/svg" xml:space="preserve" viewBox="0 0 215 220"><path d="M164.65 146.157c-4.014-8.928 6.995-16.999 5.158-36.746-.596-6.403-5.86-14.656-10.498-20.014-9.542-11.023-17.378-17.248-31.383-19.291-5.919-.863-15.377.87-21.613 4.223-3.704-1.137-8.597-2.317-11.833-2.911-5.721-1.05-13.533-.305-19.217 2.362-6.286 2.95-15.728 11.157-20.734 17.584-4.53 5.817-11.81 14.295-11.224 24.479.491 8.534 5.467 16.301 6.285 21.585 1.231 10.082-5.327 9.728-4.581 10.748 1.681 2.3 9.575 2.194 13.089 1.494 3.102-.618 3.87-6.567 5.571-8.318.14-.144.284-.27.439-.351 6.16-3.26 11.684-6.846 12.309-14.736.798-10.083.293-14.372 3.863-18.167 3.818-4.06 6.326-4.845 9.109-5.72 5.443-1.711 10.952-5.152 12.893-7.406.988.623 2.031 1.143 3.027 1.479 3.086 1.039 7.646 2.255 10.634 3.544 7.192 3.103 3.399 13.407 3.286 15.848-.704 15.222 16.491 12.264 23.546 23.357 2.097 3.298 5.606 5.878 9.373 7.694 6.166 2.973 13.023 3.892 15.521 2.512 1.502-.829-1.79-.513-3.02-3.249" style="fill:#122a89"/></svg>