<svg xmlns="http://www.w3.org/2000/svg" xml:space="preserve" viewBox="0 0 215 220"><path d="M177.265 169.732c.011-3.986-1.294-6.792-3.079-8.27 1.771-1.866 2.924-5.084 2.886-8.737-.026-2.476-.596-4.742-1.523-6.517 2.235-1.654 3.767-5.279 3.723-9.479-.031-2.936-.827-5.573-2.076-7.448 1.664-1.892 2.735-5.01 2.698-8.532-.04-3.854-1.397-7.196-3.373-8.965 1.034-1.854 1.655-4.302 1.627-6.992-.04-3.854-1.397-7.196-3.373-8.965 1.034-1.854 1.655-4.302 1.627-6.992-.045-4.342-1.76-8.039-4.151-9.562.473-2.171.266-4.879-.744-7.602-1.511-4.073-4.372-7-7.138-7.666-.898-1.825-2.407-3.666-4.471-5.191-2.735-2.021-5.757-3.018-8.229-2.937-4.808-6.883-9.069-9.459-14.725-13.336-3.901-2.674-20.947-11.353-34.492-5.905l-.009.003c-5.909-.545-13.668 1.556-16.909 3.148-8.806 4.324-15.512 9.932-20.406 16.182-2.607-.377-6.012.585-9.071 2.844-2.064 1.525-3.573 3.366-4.471 5.191-2.766.666-5.627 3.593-7.138 7.666-1.01 2.723-1.217 5.431-.744 7.602-2.391 1.522-4.106 5.22-4.151 9.562-.028 2.689.594 5.138 1.627 6.992-1.976 1.769-3.332 5.111-3.373 8.965-.028 2.689.594 5.138 1.627 6.992-1.976 1.769-3.332 5.111-3.373 8.965-.037 3.522 1.034 6.64 2.698 8.532-1.25 1.875-2.045 4.512-2.076 7.448-.044 4.201 1.487 7.825 3.723 9.479-.927 1.775-1.497 4.041-1.523 6.517-.038 3.653 1.115 6.87 2.886 8.737-1.785 1.478-3.09 4.283-3.079 8.27.03 11.025-4.541 12.924-4.047 14.541.858 2.811 13.294-1.329 15.198-12.47.775-4.535-.042-7.876-1.564-9.766 2.111-1.704 3.581-5.164 3.623-9.179.044-4.2-1.487-7.825-3.723-9.479.927-1.774 1.497-4.041 1.523-6.517.037-3.522-1.034-6.64-2.698-8.532 1.249-1.875 2.046-4.513 2.076-7.448.028-2.689-.594-5.138-1.627-6.991 1.976-1.769 3.332-5.111 3.373-8.965.028-2.689-.594-5.138-1.627-6.992 1.976-1.769 3.332-5.111 3.373-8.965.024-2.258-.412-4.345-1.162-6.056 1.371-.816 2.681-2.14 3.755-3.823-.943 6.437-1.146 15.279 1.668 23.12 1.4 3.902 3.533 9.585 5.672 13.613l-.125 2.543c-.575 11.51-1.157 23.046.565 34.054 1.391 8.897 4.116 15.99 7.459 20.702 1.092 1.539 2.779 3.254 4.108 2.788.962-.337 1.448-1.529.402-3.004-3.689-5.201-6.252-14.108-6.973-24.524a99 99 0 0 1-.176-3.773c-.219-7.263.059-17.324.38-26.799.236 2.412.468 4.86.674 7.35.156 1.888 2.235 1.767 3.079-7.32.914-9.84 2.155-19.499 4.378-28.662-.18 4.956.022 9.937.356 14.794.055.796 3.898.109 3.82-1.023-.897-13.034-.783-28.365 6.155-39.461.111-.179.228-.355.34-.533a29.4 29.4 0 0 1 5.3-6.112 30 30 0 0 1 2.53-.918c-.196.247-.395.493-.586.742-2.849 3.708-4.262 7.391-5.475 11.877-3.104 11.479-4.387 23.214-2.481 35.012.219 1.356 4.057.449 3.82-1.023-1.744-10.797-.772-21.546 1.879-32.11 1.04-4.146 2.018-8.116 4.428-11.689.793-1.176 1.688-2.435 2.68-3.639a49 49 0 0 0-1.283 3.966c-1.299 4.693-2.034 9.548-2.446 14.394-.753 8.85-.981 19.035 2.626 27.349.596 1.374 4.357.216 3.82-1.023-3.541-8.162-3.358-18.096-2.62-26.78.399-4.686 1.102-9.374 2.318-13.922.443-1.656.943-3.351 1.601-4.973l1.494-.256c-.311 2.032-.373 4.109-.437 6.156-.129 4.19-.173 8.383-.318 12.573-.321 9.276-.414 18.85 2.855 27.688.493 1.333 4.279.22 3.82-1.024-3.305-8.935-3.135-18.558-2.828-27.928.186-5.696-.283-11.813.64-17.514 1.897 7.1 3.77 14.223 4.892 21.493 1.254 8.126 1.442 16.326.993 24.527-.022.404 3.763.013 3.82-1.023.449-8.2.261-16.401-.993-24.527-.931-6.032-2.381-11.963-3.93-17.864.646.3 1.235.546 1.773.749 3.298 5.558 5.845 11.584 7.662 17.75 2.576 8.737 4.094 18.681 1.234 27.544-.68 2.108 3.127 2.096 3.657.455 2.964-9.183 1.717-19.271-.888-28.391a82.2 82.2 0 0 0-6.159-15.473c.117.065.233.128.352.203.787.497 1.791 1.105 2.918 1.804 3.006 4.414 5.285 9.36 6.947 14.384 2.842 8.589 4.2 17.804 3.438 26.84-.166 1.962 3.724 1.43 3.869-.293.798-9.462-.629-19.194-3.686-28.163a68 68 0 0 0-2.571-6.446c7.998 14.891 10.773 32.378 12.453 50.471.844 9.087 2.923 9.208 3.079 7.32.206-2.49.438-4.938.674-7.35.322 9.475.6 19.535.38 26.799a99 99 0 0 1-.176 3.773c-.721 10.416-3.284 19.323-6.973 24.524-1.046 1.475-.56 2.666.402 3.004 1.329.466 3.016-1.249 4.108-2.788 3.342-4.712 6.067-11.805 7.459-20.702 1.721-11.008 1.139-22.544.565-34.054l-.073-1.486c5.391-8.089 8.551-18.929 7.863-31.096a81 81 0 0 0-.671-6.853c1.091 1.757 2.438 3.14 3.851 3.981-.75 1.711-1.186 3.798-1.162 6.056.04 3.854 1.397 7.196 3.373 8.965-1.034 1.854-1.655 4.302-1.627 6.992.04 3.854 1.397 7.196 3.373 8.965-1.034 1.854-1.655 4.302-1.627 6.991.031 2.936.827 5.574 2.076 7.448-1.664 1.892-2.735 5.01-2.698 8.532.026 2.476.596 4.742 1.523 6.517-2.235 1.654-3.767 5.279-3.723 9.479.042 4.015 1.512 7.475 3.623 9.179-1.522 1.89-2.339 5.231-1.564 9.766 1.904 11.142 14.34 15.282 15.198 12.47.49-1.616-4.081-3.515-4.051-14.54" style="fill:#122a89"/></svg>