<svg xmlns="http://www.w3.org/2000/svg" xml:space="preserve" viewBox="0 0 215 220"><path d="M155.769 81.319a55.7 55.7 0 0 0-15.42-12.863c-2.173-1.223-10.939-5.275-23.883-6.021-3.686 0-6.422.312-8.489.833-2.066-.521-4.803-.833-8.489-.833-12.944.746-21.709 4.798-23.883 6.021a55.7 55.7 0 0 0-15.42 12.863c-9.28 11.139-13.547 29.64-13.384 38.775.119 6.68 6.71 9.685 8.744 18.268l.006.013c.279 1.249.656 2.313 1.168 3.151.335.548 2.715 1.983 3.494 9.35.048 3.194 2.552 7.861 3.996 6.419.905-.903 1.395-4.196.604-11.766-.212-2.029.745-5.526 1.875-9.251.931-.918 2.741-8.991 2.741-8.991s32.572 2.404 34.255-.915c1.378-2.718 2.875-7.75 4.293-13.555 1.418 5.805 2.914 10.836 4.292 13.555 1.683 3.319 34.255.915 34.255.915s1.809 8.073 2.741 8.991c1.13 3.725 2.087 7.222 1.875 9.251-.791 7.57-.301 10.863.604 11.766 1.445 1.442 3.949-3.225 3.996-6.419.779-7.367 3.159-8.801 3.494-9.35.512-.838.889-1.902 1.168-3.151l.006-.013c2.033-8.583 8.625-11.588 8.744-18.268.164-9.135-4.103-27.636-13.383-38.775" style="fill:#122a89"/></svg>