<svg xmlns="http://www.w3.org/2000/svg" xml:space="preserve" viewBox="0 0 215 220"><path d="M165.581 114.478c-2.897-13.158-8.907-33.007-19.588-36.282-2.849-.873.202-1.087-3.466-4.854-5.7-5.853-19.745-8.399-27.244-6.905-14.67 2.923-16.327-1.169-29.548-.829-10.588.272-10.275 8.344-18.74 13.456-4.066 2.455-11.288 22.605-14.295 27.156-9.301 14.077 2.335 20.119 6.933 38.537.361 1.448-.078 9.595 2.506 6.605 0-3.78.556-11.57 1.595-16.5.349-1.654.751-2.986 1.205-3.737 3.733-6.169 16.466-.497 22.196-6.522 5.616-5.906 10.701-9.744 18.921-12.411 8.206-2.662 10.139-14.408 18.928-12.613 9.271 1.893 12.635 8.51 15.771 15.685 4.186 9.573 3.114 8.213 8.463 17.31 2.323 3.951 2.348 12.211 2.962 17.359.247 2.066.585 3.645 1.21 4.221 2.009 1.85 2.513-6.54 5.232-12.235 5.303-11.105 7.772-23.75 6.959-27.441" style="fill:#122a89"/></svg>