<svg xmlns="http://www.w3.org/2000/svg" xml:space="preserve" viewBox="0 0 215 220"><path d="M146.968 109.153c1.439-2.724.358-6.827-3.249-7.443-.157-2.349-1.427-4.607-3.828-5.501-.73-4.841-5.323-8.88-10.836-7.56-1.593-2.408-4.38-3.756-7.184-3.969a9.8 9.8 0 0 0-3.005-.185c-2.181-1.324-4.716-2.039-7.161-1.578-2.345.061-4.454 1.213-5.951 2.97-2.537-1.887-5.565-2.853-8.718-2.126a10.6 10.6 0 0 0-1.855.131c-3.262.555-5.684 2.373-7.195 4.777-2.262-.35-4.665.197-6.678 2.047-.021.019-.035.042-.056.061q-.249.153-.488.319c-5.489 1.1-9.159 6.288-8.283 11.556-4.045.31-5.902 3.844-5.572 7.113-3.475 2.581-3.242 8.726.659 10.863-.281 1.304-.088 2.712.555 3.86.462.825 1.15 1.519 2.094 1.924 1.451 5.241 9.913 5.604 10.748.209 1.816.001 3.628-.614 5.155-1.657q.436.007.883-.037c2.564 2.55 6.39 3.658 9.857 3.094 2.179-.122 4.059-.897 5.551-2.139 2.464.585 5.424-.4 6.658-2.804 4.029 6.16 12.367 4.928 16.296.618a9.2 9.2 0 0 0 2.183 1.506c1.179.591 2.285.845 3.317.875a9.6 9.6 0 0 0 3.904.25c.036 2.462 1.632 4.895 4.806 4.895 3.711 0 5.263-3.333 4.68-6.145 1.304-.666 2.074-1.902 2.363-3.261.075-.353.137-.71.145-1.072.404-.977.494-2.078.308-3.121 2.844-1.874 2.808-6.671-.103-8.47" style="fill:#122a89"/></svg>