<svg xmlns="http://www.w3.org/2000/svg" xml:space="preserve" viewBox="0 0 215 220"><path d="M61.318 129.699c-.835.055-1.876.348-2.53.911-4.029 3.472-3.463 9.24-2.49 13.97.67 3.257 1.508 6.664.77 9.987a10.02 10.02 0 0 1-4.833 6.544c-.691.391-.399.712.212.806.843.13 1.949-.323 2.67-.731 2.209-1.249 4.06-3.139 5.085-5.518 1.268-2.943 1.013-6.206.445-9.286-.941-5.105-3.069-12.109 1.553-16.09.661-.567-.588-.612-.882-.593m102.402 31.413a10.02 10.02 0 0 1-4.833-6.544c-.738-3.323.1-6.73.77-9.987.973-4.73 1.539-10.499-2.49-13.97-.654-.564-1.695-.857-2.53-.911-.294-.019-1.543.026-.882.595 4.622 3.982 2.494 10.985 1.553 16.09-.568 3.08-.823 6.343.445 9.286 1.025 2.379 2.876 4.268 5.085 5.518.722.408 1.827.861 2.67.731.611-.096.904-.417.212-.808" style="fill:#122a89"/><path d="M178.524 75.151c-5.39-1.566-6.808-5.446-11.772-7.062 0 0 2.02 0 5.152.054s4.326 1.82 4.845 1.155c1.468-1.885-3.64-6.422-9.436-7.53-.337-.064-.699-.097-1.047-.147 3.321-4.571 4.94-7.833 4.417-7.701-1.18.703-2.276 1.07-4.095 1.85-1.37.587-6.446 2.417-4.696.915 1.036-.889 4.38-5.918 2.008-4.098-3.214 2.466-5.28 4.147-8.955 3.288 3.193-4.049 6.744-6.855 10.162-7.975 1.074-.352-1.626-1.485-2.664-1.377-5.687.591-8.537 1.646-14.64 6.193 2.912-3.905 6.215-6.714 9.45-7.86 1.082-.383-.863-1.919-1.89-1.853-3.244.207-4.301.761-7.76 3.69l5.649-9.438c.734-1.226-1.819-.14-2.829.801-3.701 3.448-7.416 2.757-10.962 5.852 0 0 .923-1.563 2.397-3.962s3.416-2.508 3.127-3.216c-.819-2.005-6.741-.146-10.265 3.829-1.628 1.836-3.065 4.187-4.224 6.719-5.826-2.559-14.37-5.161-22.516-4.005-8.146-1.156-16.69 1.447-22.516 4.005-1.159-2.532-2.595-4.883-4.224-6.719-3.524-3.974-9.445-5.834-10.265-3.829-.289.708 1.653.818 3.127 3.216a293 293 0 0 1 2.397 3.962c-3.546-3.095-7.262-2.404-10.962-5.852-1.011-.942-3.563-2.027-2.829-.801l5.649 9.438c-3.459-2.929-4.517-3.483-7.761-3.69-1.027-.066-2.973 1.47-1.89 1.853 3.235 1.146 6.539 3.955 9.45 7.86-6.103-4.547-8.953-5.602-14.64-6.193-1.038-.108-3.738 1.025-2.664 1.377 3.418 1.12 6.969 3.926 10.162 7.975-3.675.859-5.742-.821-8.955-3.288-2.372-1.82.972 3.209 2.008 4.098 1.75 1.502-3.325-.327-4.696-.915-1.819-.78-2.916-1.147-4.095-1.85-.522-.132 1.097 3.13 4.417 7.701-.348.05-.711.083-1.047.147-5.796 1.107-10.904 5.645-9.436 7.53.519.666 1.713-1.101 4.845-1.155s5.152-.054 5.152-.054c-4.964 1.617-6.382 5.496-11.772 7.062-1.472.427-3.946 2.226-2.357 2.217l12.239-.072c-4.756 1.627-5.881 2.314-7.899 5.251-.639.93-.254 3.613.721 2.808 2.915-2.407 7.468-3.954 12.854-4.524-7.792 3.215-10.404 5.311-14.162 10.333-.686.917-1.111 4.086-.17 3.272 2.994-2.593 7.682-4.375 13.364-5.13-1.235 3.935-4.009 4.945-8.182 6.599-3.08 1.22 3.629.868 5.065.388 2.425-.812-2.179 2.947-3.512 3.91-1.77 1.278-2.737 2.106-4.075 2.825-.497.495 5.255.811 13.544-.296.866 8.701 3.73 16.424 7.882 22.54l-.043 1.192c-.423 11.51-.852 23.046.416 34.054 1.025 8.897 3.032 15.99 5.494 20.702.804 1.539 2.047 3.254 3.026 2.788.709-.337 1.067-1.529.296-3.004-2.717-5.201-4.605-14.108-5.136-24.524-.115-2.246-.169-4.971-.184-7.984-.046-9.624.331-22.278.585-32.409.486 5.506 1.126 11.226 1.618 17.17.156 1.888 2.235 1.767 3.079-7.32 1.856-19.986 5.061-39.226 15.154-55.05.274-.185.537-.371.83-.557 2.688-1.709 12.011-1.102 20.098-6.172 7.953 5.012 17.361 4.442 20.1 6.172.292.184.554.368.826.552 10.096 15.825 13.302 35.067 15.158 55.055.844 9.087 2.923 9.208 3.079 7.32.492-5.944 1.132-11.664 1.618-17.17.254 10.131.632 22.784.585 32.408-.014 3.013-.069 5.738-.184 7.984-.531 10.416-2.419 19.323-5.137 24.524-.77 1.475-.412 2.666.296 3.004.979.466 2.222-1.249 3.026-2.788 2.462-4.712 4.469-11.805 5.494-20.702 1.268-11.008.839-22.544.416-34.054l-.043-1.192c4.152-6.115 7.017-13.839 7.882-22.54 8.288 1.107 14.041.791 13.544.296-1.337-.719-2.305-1.547-4.075-2.825-1.333-.963-5.937-4.721-3.512-3.91 1.436.481 8.145.832 5.065-.388-4.173-1.653-6.947-2.664-8.182-6.599 5.682.755 10.37 2.536 13.364 5.13.941.815.516-2.355-.17-3.272-3.757-5.022-6.369-7.117-14.162-10.333 5.386.57 9.939 2.117 12.854 4.524.975.805 1.36-1.878.721-2.808-2.018-2.937-3.143-3.624-7.898-5.251l12.239.072c1.586.01-.888-1.788-2.36-2.216" style="fill:#122a89"/></svg>