<svg xmlns="http://www.w3.org/2000/svg" xml:space="preserve" viewBox="0 0 215 220"><path d="M163.256 122.682a5.14 5.14 0 0 0-3.168-4.747c.759-.896 1.235-2.041 1.235-3.307a5.12 5.12 0 0 0-2.106-4.131 5.1 5.1 0 0 0 1.335-3.429c0-2.343-1.576-4.297-3.719-4.918a5.1 5.1 0 0 0 .831-2.788 5.14 5.14 0 0 0-5.085-5.137 5.142 5.142 0 0 0-4.749-7.107c-.549 0-1.068.109-1.564.268a5.1 5.1 0 0 0 .319-1.727 5.14 5.14 0 0 0-5.142-5.142c-.9 0-1.732.251-2.468.657a5.1 5.1 0 0 0-3.55-1.943c-.34-2.51-2.469-4.452-5.073-4.452-1.916 0-3.569 1.061-4.453 2.615-.225-2.632-2.408-4.705-5.098-4.705-1.617 0-3.042.762-3.985 1.929-.836-1.709-2.575-2.896-4.605-2.896a5.13 5.13 0 0 0-4.23 2.227 5.14 5.14 0 0 0-4.231-2.227c-2.03 0-3.769 1.187-4.605 2.896-.943-1.167-2.368-1.929-3.985-1.929-2.69 0-4.873 2.074-5.098 4.705-.885-1.555-2.537-2.615-4.453-2.615-2.604 0-4.733 1.942-5.073 4.452a5.1 5.1 0 0 0-3.55 1.943 5.1 5.1 0 0 0-2.468-.657 5.14 5.14 0 0 0-5.142 5.142c0 .609.125 1.185.319 1.727a5.1 5.1 0 0 0-1.564-.268 5.142 5.142 0 0 0-4.749 7.107 5.14 5.14 0 0 0-5.085 5.137c0 1.03.31 1.984.831 2.788-2.143.62-3.719 2.575-3.719 4.918 0 1.323.514 2.517 1.335 3.429a5.12 5.12 0 0 0-2.106 4.131c0 1.267.475 2.411 1.235 3.307a5.14 5.14 0 0 0-3.168 4.747c0 1.702.837 3.199 2.111 4.135a5.1 5.1 0 0 0-.85 2.824c0 1.753.881 3.297 2.22 4.225a5.1 5.1 0 0 0-.777 2.688c0 1.258.47 2.396 1.22 3.29-.75.894-1.22 2.031-1.22 3.29a5.14 5.14 0 0 0 5.142 5.142c1.215 0 2.316-.439 3.196-1.143 1.177-.942 1.946-2.374 1.946-3.999 0-1.258-.47-2.396-1.22-3.29.75-.894 1.22-2.031 1.22-3.29 0-.607-.124-1.18-.317-1.72 1.631-.862 2.755-2.556 2.755-4.529 0-1.18-.413-2.253-1.081-3.121a5.12 5.12 0 0 0 1.531-3.657c0-.322-.038-.635-.095-.94a5.14 5.14 0 0 0 4.206-5.048c0-1.149-.39-2.199-1.027-3.055a5.137 5.137 0 0 0 3.876-6.029 5.14 5.14 0 0 0 4.12-5.039c0-.028-.008-.054-.008-.082.267.043.536.082.815.082 1.886 0 3.518-1.027 4.413-2.541.895 1.514 2.526 2.541 4.413 2.541 2.35 0 4.31-1.586 4.924-3.739.837.59 1.852.943 2.953.943 1.115 0 2.14-.364 2.982-.967a5.1 5.1 0 0 0 3.367 1.284c1.923 0 3.58-1.068 4.462-2.631.882 1.563 2.539 2.631 4.462 2.631 1.295 0 2.463-.495 3.367-1.284a5.1 5.1 0 0 0 2.982.967 5.1 5.1 0 0 0 2.954-.943c.614 2.153 2.574 3.739 4.924 3.739 1.886 0 3.518-1.027 4.413-2.541.895 1.514 2.526 2.541 4.413 2.541.279 0 .548-.039.815-.082 0 .028-.008.054-.008.082 0 2.49 1.77 4.565 4.12 5.039a5 5 0 0 0-.104 1.03c0 2.438 1.702 4.47 3.98 4.999a5.1 5.1 0 0 0-1.027 3.055 5.14 5.14 0 0 0 4.206 5.048 5 5 0 0 0-.095.94c0 1.432.587 2.724 1.531 3.657a5.1 5.1 0 0 0-1.081 3.121c0 1.973 1.124 3.667 2.755 4.529a5.1 5.1 0 0 0-.317 1.72c0 1.258.47 2.396 1.22 3.29-.75.894-1.22 2.031-1.22 3.29 0 1.625.769 3.057 1.946 3.999.88.704 1.981 1.143 3.196 1.143a5.14 5.14 0 0 0 5.142-5.142c0-1.258-.47-2.396-1.22-3.29.75-.894 1.22-2.031 1.22-3.29 0-.989-.293-1.904-.777-2.688a5.13 5.13 0 0 0 2.22-4.225 5.1 5.1 0 0 0-.85-2.824 5.13 5.13 0 0 0 2.107-4.135M94.351 82.916l-.013-.024.015.002zm27.254 0-.002-.022.015-.002z" style="fill:#122a89"/></svg>