<svg xmlns="http://www.w3.org/2000/svg" xml:space="preserve" viewBox="0 0 215 220"><path d="M174.123 83.485c.116-9.655 3.544-19.179-.314-29.372-7.231-19.103-28.646-23.635-37.955-22.638-5.147.551-10.899 1.659-13.712 4.468-6.187-1.593-13.32-2.169-19.69.393l-.009.003c-2.466-.228-5.252.009-7.9.474-2.418-3.458-8.792-4.734-14.44-5.339-9.309-.997-30.724 3.535-37.955 22.638-3.859 10.193-.431 19.717-.314 29.372.181 15.017-16.913 26.899-2.305 49.329 4.742 7.281-3.283 15.029 5.041 28.908 3.391 5.655-5.18 13.964 2.106 22.558 2.843 3.353 9.056 5.326 10.793 3.908 3.645-2.976-2.91-1.08-1.316-11.357 1.242-8.003 3.814-12.73 8.281-16.59 1.084 5.145 2.524 9.41 4.179 12.578.804 1.539 2.047 3.254 3.026 2.788.709-.337 1.067-1.529.296-3.004-1.933-3.7-3.434-9.296-4.338-15.955 1.21-2.19 1.796-4.969 1.825-8.031-1.121-2.482-2.058-5.255-2.808-8.522-.046-9.624.331-22.278.585-32.409.486 5.506 1.126 11.226 1.618 17.17.156 1.888 2.235 1.767 3.079-7.32.914-9.84 2.155-19.499 4.378-28.662-.18 4.956.022 9.937.356 14.794.055.796 3.898.109 3.82-1.023-.897-13.034-.783-28.365 6.155-39.461.111-.179.228-.355.34-.533a29.4 29.4 0 0 1 5.3-6.112 30 30 0 0 1 2.53-.918c-.196.247-.395.493-.586.742-2.849 3.708-4.262 7.391-5.475 11.877-3.104 11.479-4.387 23.214-2.481 35.012.219 1.356 4.057.449 3.82-1.023-1.744-10.797-.772-21.546 1.879-32.11 1.04-4.146 2.018-8.116 4.428-11.689.793-1.176 1.688-2.435 2.68-3.639a49 49 0 0 0-1.283 3.966c-1.299 4.693-2.034 9.548-2.446 14.394-.753 8.85-.981 19.035 2.626 27.349.596 1.374 4.357.216 3.82-1.023-3.541-8.161-3.358-18.095-2.619-26.779.399-4.686 1.102-9.374 2.318-13.922.443-1.656.943-3.351 1.601-4.973l1.494-.256c-.311 2.032-.373 4.109-.436 6.156-.129 4.19-.173 8.383-.318 12.573-.321 9.276-.414 18.85 2.855 27.688.493 1.333 4.279.22 3.82-1.024-3.305-8.935-3.135-18.558-2.828-27.928.186-5.696-.283-11.813.64-17.514 1.897 7.1 3.77 14.223 4.892 21.493 1.254 8.126 1.442 16.326.993 24.527-.022.404 3.763.013 3.82-1.023.449-8.2.261-16.401-.993-24.527-.931-6.032-2.381-11.963-3.93-17.864.646.3 1.235.546 1.773.749 3.298 5.558 5.845 11.584 7.662 17.75 2.576 8.737 4.094 18.681 1.234 27.544-.68 2.108 3.127 2.096 3.657.455 2.964-9.183 1.717-19.271-.888-28.391a82.2 82.2 0 0 0-6.159-15.473c.117.065.233.128.352.203.787.497 1.791 1.105 2.918 1.804 3.006 4.414 5.285 9.36 6.947 14.384 2.842 8.589 4.2 17.804 3.438 26.84-.166 1.962 3.724 1.43 3.869-.293.798-9.462-.629-19.194-3.686-28.163a68 68 0 0 0-2.571-6.446c7.998 14.891 10.773 32.378 12.453 50.471.844 9.087 2.923 9.208 3.079 7.32.492-5.944 1.132-11.664 1.618-17.17.254 10.131.632 22.784.585 32.408-.749 3.267-1.687 6.04-2.808 8.522.029 3.062.615 5.841 1.825 8.031-.904 6.659-2.405 12.255-4.338 15.955-.77 1.475-.412 2.666.296 3.004.979.466 2.222-1.249 3.026-2.788 1.655-3.168 3.096-7.434 4.179-12.578 4.466 3.86 7.039 8.586 8.281 16.59 1.594 10.277-4.961 8.381-1.316 11.357 1.738 1.419 7.951-.555 10.793-3.908 7.286-8.595-1.285-16.903 2.106-22.558 8.324-13.879.298-21.627 5.041-28.908 14.605-22.43-2.49-34.312-2.309-49.329M62.701 118.064a813 813 0 0 0-.327 10.195c-.214-.28-.414-.572-.637-.844-8.07-9.84-7.664-18.145-5.425-27.112.163.538.33 1.076.52 1.605 1.46 4.067 3.716 10.093 5.944 14.136zm-5.705-47.221c-1.037-4.891-1.25-10.049 2.46-17.357 3.419-6.734 8.303-10.029 19.053-9.982-11.289 7.395-18.2 17.178-21.513 27.339m81.8-27.339c9.828.226 14.429 3.531 17.703 9.981 3.664 7.218 3.501 12.337 2.498 17.174a49 49 0 0 0-5.253-11.895c-5.146-8.447-9.426-11.498-14.948-15.26m15.423 83.911c-.223.272-.423.564-.638.844a812 812 0 0 0-.327-10.195l-.039-1.071c3.007-4.394 5.316-9.647 6.723-15.481 1.967 8.51 1.987 16.506-5.719 25.903" style="fill:#122a89"/></svg>