<svg xmlns="http://www.w3.org/2000/svg" xml:space="preserve" viewBox="0 0 215 220"><path d="M181.308 131.815c.954-8.033-2.704-15.068-7.331-19.305-2.395-2.193-5.048-3.647-7.806-4.722-1.093-3.009-1.045-6.646 1.801-10.487.755-1.019-.671-.6-1.185-.384-1.034.436-2.442 1.348-3.176 2.338a15.6 15.6 0 0 0-1.918 3.351c-.155-.163-.331-.316-.494-.475.582-3.748.824-7.682.592-11.788-.58-10.252-2.614-18.492-7.624-26.717-5.707-9.37-10.345-12.098-16.8-16.523-3.377-2.315-16.598-9.111-28.876-7.369-12.278-1.742-25.499 5.054-28.876 7.369-6.455 4.425-11.092 7.153-16.8 16.523-5.01 8.226-7.044 16.465-7.624 26.717-.697 12.316 2.554 23.269 8.067 31.389l-.043 1.192c-.423 11.51-.852 23.046.416 34.054 1.025 8.897 3.032 15.99 5.494 20.702.804 1.539 2.047 3.254 3.026 2.788.709-.337 1.067-1.529.296-3.004-2.717-5.201-4.605-14.108-5.136-24.524-.115-2.246-.169-4.971-.184-7.984-.046-9.624.331-22.278.585-32.409.486 5.506 1.126 11.226 1.618 17.17.156 1.888 2.235 1.767 3.079-7.32 1.206-12.994 2.99-25.669 6.852-37.302.16-.106.353-.307.584-.627 2.493-3.453 4.018-5.725 9.895-7.638-1.163 4.315-3.851 8.175-7.738 11.015-1.221.893 3.509-.235 4.88-.969 7.514-4.023 10.656-6.458 15.503-12.94-.886 4.052-3.223 7.753-6.832 10.489-1.207.915 2.792.5 4.183-.203 4.393-2.223 5.425-3.216 7.883-7.084l-.188 8.892c-.024 1.155 2.674-1.104 3.321-2.282 2.371-4.312 8.166-6.344 10.61-10.361 0 0-.014 1.465-.115 3.749-.101 2.285-2.744 3.607-1.754 3.811 2.801.577 9.602-4.3 11.292-8.789a6.5 6.5 0 0 0 .38-1.932c8.729 15.253 11.666 33.383 13.41 52.171.844 9.087 2.923 9.208 3.079 7.32.492-5.944 1.132-11.664 1.618-17.17.254 10.131.632 22.784.585 32.408-.014 3.013-.069 5.738-.184 7.984a109 109 0 0 1-.287 4.071c-.383.214-.308.58-.096.914-.805 8.24-2.483 15.193-4.754 19.539-.77 1.475-.412 2.666.296 3.004.979.466 2.222-1.249 3.026-2.788 2.268-4.34 4.139-10.721 5.223-18.65 3.262-1.36 5.429-4.639 6.8-8.488-.367 2.563-1.34 5.007-3.278 7.129-.79.864-.356 1.311.595 1.298 1.151-.016 2.728-1.013 3.519-1.879 2.648-2.899 3.867-6.272 4.188-9.766l.137-.013c1.707 1.445 3.879 2.379 6.621 2.528 1.389.076 3.28-.832 4.483-1.748.598-.455 2.115-1.913.686-1.991-1.756-.095-3.24-.573-4.505-1.323 4.176-2.461 8.233-6.663 8.981-12.961m-27.629 21.776c.332-3.932.475-7.922.501-11.948.154.224.297.47.457.682a14.4 14.4 0 0 0 2.456 2.576c-.657 3.193-1.739 6.347-3.414 8.69m4.705-35.947c-.096-.68-.186-1.36-.26-2.044.013-.01.022-.026.035-.036.129-.096.254-.139.38-.203q-.088 1.134-.155 2.283m7.441 10.966c-.005-.328-.013-.657-.01-.977.021-2.858.21-5.855.257-8.809 1.74 2.2 3.012 5.087 3.559 8.261.215 1.248.349 2.56.32 3.851-.017.761-.078 1.624-.316 2.327-.021.063-.08.176-.136.287a2.6 2.6 0 0 1-.379-.167c-.84-.49-1.547-1.358-2.126-2.297-.479-.775-.851-1.611-1.169-2.476m6.876 9.847c-1.008 1.226-2.294 2.33-3.667 3.086a15.5 15.5 0 0 1-1.526-3.012c2.226.186 4.827-.584 6.633-2.61-.373.919-.827 1.79-1.44 2.536" style="fill:#122a89"/></svg>