<svg xmlns="http://www.w3.org/2000/svg" xml:space="preserve" viewBox="0 0 215 220"><path d="M162.4 59.442c-.003-.004-.006-.002-.009-.006a61 61 0 0 0-3.452-5.359c-4.587-6.351-9.95-11.286-15.42-14.837-2.173-1.411-10.939-6.084-23.883-6.945-6.081 0-9.634.923-11.711 2.333-2.096-1.409-5.636-2.333-11.608-2.333-12.944.861-21.709 5.534-23.883 6.945-5.47 3.551-10.833 8.487-15.42 14.837a61 61 0 0 0-3.448 5.352c-.006.007-.014.004-.02.014C46.847 70.048 40.088 89.011 40.86 99.01c.433 5.611.755 7.469 3.781 11.4 3.887 5.049 4.024 3.019 3.393.32a37.8 37.8 0 0 1-.96-9.707c.732 3.143 1.816 6.008 3.309 8.663.848 1.508 1.922 3.359 2.904 4.781-1.051 7.134 1.11 14.798 2.276 21.993.111.685.205 1.4.29 2.127-1.193 2.807-.903 5.806.102 8.872-.612 5.499-2.714 10.612-7.709 12.921-1.335.617.338 1.614.978 1.879 1.287.533 3.221.8 4.518.2a13.2 13.2 0 0 0 3.29-2.183c-1.182 3.713-.523 7.973 3.802 12.624.604.649 1.625 1.468 2.701 2.118-1.187 2.051-3.298 3.727-6.749 4.681-1.681.465.753 1.329 1.662 1.564 1.829.473 4.434.559 6.112.297 9.656-1.51 10.296-11.327 7.446-18.332-.83-2.041-1.971-4.156-3.134-6.298.147-.151.295-.306.441-.453.425-.43.821-.871 1.227-1.309-1.279-2.382-2.352-5.03-3.232-8.126a45 45 0 0 1-2.098 2.452c-1.539-3.933-2.015-7.763.301-11.2-.088-.584-.175-1.167-.255-1.731-.828-.349-2.117-.654-3.433-.834-1.266-7.226-3.397-14.896-1.805-21.862 1.234 1.478 2.627 2.839 3.768 3.902l.165.155c2.048 1.901 1.529.35 1.637-1.252.135-1.998-.024-2.535-.024-2.535s.874 1.048 3.24 3.255c1.176 1.097 4.542 3.709 3.203.44-8.417-20.549 6.426-46.914 16.23-51.079 7.982-3.391 15.684-5.24 19.741-8.901 4.058 3.661 11.759 5.51 19.741 8.901 9.804 4.165 24.647 30.529 16.23 51.079-1.339 3.268 2.028.656 3.204-.44 2.367-2.207 3.24-3.255 3.24-3.255s-.158.537-.024 2.535c.108 1.601-.411 3.153 1.638 1.252l.165-.155c1.141-1.064 2.534-2.424 3.768-3.902 1.593 6.966-.539 14.637-1.805 21.862-1.317.18-2.605.485-3.433.834-.079.564-.167 1.147-.255 1.731 2.316 3.437 1.84 7.267.301 11.2a45 45 0 0 1-2.098-2.452c-.88 3.097-1.953 5.744-3.232 8.126.405.437.802.878 1.227 1.309.145.147.294.302.441.453-1.163 2.142-2.304 4.257-3.134 6.298-2.849 7.005-2.21 16.822 7.446 18.332 1.678.262 4.282.176 6.112-.297.909-.235 3.342-1.099 1.662-1.564-3.451-.954-5.562-2.63-6.749-4.681 1.075-.65 2.097-1.468 2.701-2.118 4.326-4.651 4.985-8.911 3.802-12.624a13.2 13.2 0 0 0 3.29 2.183c1.297.6 3.231.333 4.518-.2.64-.265 2.313-1.262.978-1.879-4.995-2.309-7.097-7.422-7.709-12.921 1.005-3.066 1.295-6.065.102-8.872.085-.727.179-1.442.29-2.127 1.166-7.195 3.327-14.86 2.276-21.993.982-1.422 2.056-3.273 2.904-4.781 1.489-2.648 2.57-5.504 3.302-8.637a37.8 37.8 0 0 1-.961 9.681c-.631 2.699-.494 4.728 3.393-.32 3.026-3.93 3.348-5.788 3.781-11.4.77-9.999-5.989-28.962-12.69-39.568M63.741 164.131c.917 2.778 1.355 5.711.778 8.325-1.787-3.02-1.737-5.805-.778-8.325m87.695 8.325c-.577-2.614-.139-5.546.778-8.325.959 2.52 1.01 5.305-.778 8.325" style="fill:#122a89"/></svg>