<svg xmlns="http://www.w3.org/2000/svg" xml:space="preserve" viewBox="0 0 215 220"><path d="M153.951 88.96c-4.577-6.72-9.893-11.562-22.747-16.875-6.758-2.794-15.364-3.699-23.226-3.699s-16.468.906-23.227 3.699C71.897 77.399 66.582 82.24 62.004 88.96c-6.006 8.817-8.443 19.64-7.501 31.655.389 4.962 2.316 11.587 3.21 15.402 1.626 6.937 1.776 15.53 3.356 15.595 1.781.074 2.174-4.849 2.675-11.714.793-10.873 1.859-26.632 9.147-35.22 6.418-7.562 12.089-8.895 17.621-7.724 7.073 1.498 14.593 1.934 17.348 1.975.041.001.08-.031.118-.077.038.046.077.078.118.077 2.755-.041 10.275-.477 17.348-1.975 5.532-1.171 11.203.162 17.621 7.724 7.288 8.588 8.353 24.346 9.147 35.22.501 6.864.894 11.787 2.675 11.714 1.58-.065 1.73-8.658 3.356-15.595.894-3.815 2.821-10.44 3.21-15.402.941-12.015-1.496-22.837-7.502-31.655" style="fill:#122a89"/></svg>