<svg xmlns="http://www.w3.org/2000/svg" xml:space="preserve" viewBox="0 0 215 220"><path d="M64.646 144.512c-2.489 2.842-2.071 7.037-1.335 10.544.554 2.636 1.246 5.393.636 8.082a8.13 8.13 0 0 1-3.994 5.296c-.571.316-.329.576.175.653.697.105 1.61-.261 2.207-.591 1.826-1.011 3.356-2.54 4.203-4.465.612-1.39.787-2.868.74-4.354-.607-2.148-1.124-4.505-1.546-7.161a172 172 0 0 1-1.086-8.004m92.384 23.922a8.12 8.12 0 0 1-3.994-5.296c-.61-2.689.083-5.447.636-8.082.804-3.828 1.272-8.497-2.058-11.306-.065-.055-.146-.096-.219-.144a155 155 0 0 1-.426 3.67c.598 2.964-.367 6.451-.892 9.24-.469 2.493-.68 5.133.368 7.515.847 1.925 2.377 3.454 4.203 4.465.597.33 1.51.697 2.207.591.505-.077.747-.336.175-.653m-6.63-32.032c.547.26 1.071.235 1.563.045.122-.047.238-.122.355-.189-.002.819.003 1.635-.014 2.459.238-.94.407-1.898.584-2.853.969-.814 1.749-2.105 2.207-2.812 5.942-9.163 8.207-20.145 7.668-30.96-.877-14.487-5.995-29.239-17.706-38.546-8.554-6.797-18.815-11.887-29.873-12.577-3.166-.198-6.338-.004-9.432.716-1.285.299-2.602.945-3.888 1.092-1.849.211-3.73.102-5.593.358-6.749.927-12.667 3.438-18.386 7.091-10.857 6.935-19.451 17.381-22.949 29.894-1.965 7.029-2.481 14.752-1.428 21.969.604 4.138 1.99 8.028 3.455 11.925 1.394 3.71 2.86 7.473 4.956 10.853.291.469 1.273.404 1.993.081.444-.2.79-.497.808-.831.274-5.04-.523-10.125-.379-15.181.175-6.16 1.548-11.992 4.334-17.5 3.03-5.996 7.225-11.476 11.356-16.745 3.623-4.62 7.961-8.64 13.455-10.778 4.396 8.807 11.067 15.87 18.858 21.832 4.313 3.3 8.842 6.306 13.357 9.32 4.653 3.107 9.579 6.088 13.853 9.712 5.609 4.755 8.318 11.253 9.639 18.311.177.936.187 2.829 1.207 3.314m-2.393-15.558c-4.655-14.334-9.714-29.969-22.612-38.754 9.6 8.797 14.48 20.709 19.058 32.719-3.175-7.156-9.064-13.242-16.164-16.376 5.69 4.532 10.416 9.742 14.277 15.698a27 27 0 0 0-1.454-1.239c-7.983-6.185-16.82-11.205-24.915-17.242-8.39-6.257-15.675-13.628-20.252-23.141-.23-.478-1.182-.311-1.552-.19-5.632 1.84-10.364 5.031-14.362 9.399-4.89 5.343-9.378 11.648-12.957 17.945a42.6 42.6 0 0 0-4.087 9.843 67.4 67.4 0 0 1 4.718-18.767c-5.665 8.445-7.831 19.348-6.145 29.451q0 .479.007.957c-1.86-9.452-3.027-18.992.965-28.18-6.678 9.519-4.757 22.002-.815 32.415.059 1.14.12 2.279.171 3.417-1.854-3.988-3.321-8.256-4.49-12.342-1.945-6.796-1.963-14.114-.888-21.061 1.805-11.658 7.891-22.245 16.83-29.92 5.118-4.394 11.221-8.423 17.809-10.132a40 40 0 0 1 5.022-.97c1.785-.226 3.629-.002 5.388-.232 1.326-.173 2.57-.84 3.861-1.173 1.762-.454 3.573-.672 5.39-.718 10.886-.278 21.092 4.622 29.695 10.859 12.83 9.301 18.526 24.359 19.457 39.731.423 8.483-.935 17.042-4.471 24.777.948-6.838 1.481-13.757 1.128-20.705-.548-12.358-4.684-25.178-13.514-34.198-8.875-8.522-20.978-14.67-33.393-14.783 12.172 1.118 23.612 7.478 32.256 15.903 8.356 8.874 12.402 21.154 13.302 33.167.62 7.113.318 14.273-.15 21.404-.2.416-.376.841-.589 1.251-.327.632-.687 1.247-1.045 1.863.763-8.562-.764-17.405-4.482-25.097a130.4 130.4 0 0 1 3.289 26.793l-.016.022.018.09.002.096c-.281.426-.546.862-.844 1.276.035-.049-.04.042-.136.162.272-.484.633-1.134.96-1.624-.235-1.29-.597-2.611-.884-3.828a31.5 31.5 0 0 0-3.386-8.566" style="fill:#122a89"/><path d="M64.95 88.53c6.047-10.582 14.932-18.785 25.947-23.996C79.021 67.29 68.632 76.91 64.95 88.53m53.17-22.46c12.856 6.684 23.159 17.909 28.585 31.339.697 1.69 1.539 4.168 2.093 5.882a90 90 0 0 0-.524-3.101c-3.363-15.446-15.121-29.057-30.154-34.12m-15.275 1.917c-.36-4.622.107-8.381 1.553-12.785-3.656 2.922-4.395 9.071-1.553 12.785" style="fill:#122a89"/></svg>