<svg xmlns="http://www.w3.org/2000/svg" xml:space="preserve" viewBox="0 0 215 220"><path d="M175.452 138.485c-8.143-12.795-2.835-19.278-3.289-27.685-.63-11.686-6.95-14.766-5.472-23.616 1.419-8.499-3.535-19.479-8.546-27.704-5.707-9.37-14.213-16.848-20.668-21.273-3.377-2.315-16.975-8.367-29.355-6.422-12.38-1.946-25.978 4.107-29.355 6.422-6.455 4.425-14.556 8.713-21.423 19.003-5.346 8.011-11.57 15.967-8.915 32.695 1.082 6.82-2.784 7.222-4.565 15.383-2.024 9.277 5.998 15.612-1.909 28.67-6.926 11.436 8.099 25.886 2.127 35.336-3.988 6.31-4.562 15.776 2.375 17.74 5.495 1.555 12.644 3.17 16.992-1.69 4.074-4.553 14.367-1.307 16.573-6.43 3.744-8.694.079-14.16-1.887-20.934-6.328-6.792-10.371-12.926-12.364-25.483-1.632-10.283-1.932-17.332-1.983-24.55l.007.01c.053-.898.015-1.989-.018-3.244l.001-3.948c.124-3.223.656-7.047 2.48-11.225 2.113-4.839 6.044-9.309 10.728-14.154 3.053 2.323 6.842 4.348 10.09 4.993.794.157 1.309-.583.992-1.291-1.279-2.859-2.353-5.798-3.321-8.774 4.72 3.375 9.113 7.175 13.097 11.402.579.614 1.411.077 1.5-.621.559-4.361-.344-8.765-2.442-12.56 7.506 5.144 14.039 12.412 23.486 13.377.823.084 1.07-.984.621-1.5l-5.231-6.016a52.2 52.2 0 0 1 16.95 13.314c.339.404 1.16.316 1.38-.178 1.54-3.457 1.89-6.879 1.395-10.182 2.619 3.842 4.377 8.411 3.981 13.568-1.005 13.112 3.244 15.458 5.43 22.227 5.577 17.265-9.726 17.883-6.308 32.96 1.395 6.151-.885 10.537-3.39 14.638-3.18 5.208-6.724 9.959-3.569 17.285 2.528 5.87 10.659 8.343 17.386 5.065 6.494-3.165 9.758 7.119 18.983 2.919 6.562-2.988 8.132-10.405 4.145-16.716-5.969-9.452 10.469-19.532 3.291-30.811" style="fill:#122a89"/></svg>