<svg xmlns="http://www.w3.org/2000/svg" xml:space="preserve" viewBox="0 0 215 220"><path d="M170.411 140.081c1.461-9.885 1.667-18.498-2.128-39.749-2.879-16.122-5.158-22.199-10.169-30.425-5.707-9.37-14.213-16.848-20.668-21.273-3.375-2.313-16.953-8.347-29.325-6.411-12.403-1.987-26.056 4.091-29.441 6.411-6.455 4.425-14.96 11.903-20.668 21.273-5.01 8.226-7.29 14.303-10.169 30.425-3.795 21.252-3.589 29.864-2.128 39.749 3.565 24.118-1.937 21.753-2.63 32.341-.181 2.763 8.135-.25 16.481 3.615 6.936 3.212 12.867 2.382 13.352.24.86-3.802 1.274-7.94 1.272-12.421-4.122-5.316-6.903-11.189-8.449-20.932-1.632-10.283-1.932-17.332-1.983-24.55l.007.01c.054-.907.015-2.028-.018-3.301l.001-3.854c.065-1.72.244-3.609.675-5.635 2.108.867 8.232-.774 7.95-3.074-.493-4.012-.321-8.135.399-12.195a97 97 0 0 1 1.539-1.718c-.379 3.672-.408 7.508-.095 11.468.104 1.313 8.828-.167 8.658-2.32-.533-6.742-.204-13.512 1.547-19.596q.542-.568 1.087-1.147c-1.724 6.884-1.904 14.257-.692 20.952.702 3.875 9.384 1.688 8.658-2.32-.794-4.382-.929-9.495-.237-14.543-.187 6.061.475 11.966 1.789 16.616 1.094 3.87 9.751 1.546 8.658-2.32-1.434-5.072-2.064-12.354-1.402-19.422.281 7.192 1.502 14.447 2.951 20.848.635 2.805 9.323.62 8.658-2.32-1.566-6.921-2.872-14.727-2.969-22.362 2.096 8.076 3.458 16.243 3.82 24.793.138 3.271 8.815 1.404 8.658-2.32-.283-6.698-1.18-13.16-2.559-19.529 2.923 6.951 4.292 14.504 3.38 21.959-.432 3.535 8.297 2.006 8.669-1.039.395-3.231.381-6.477.044-9.692.636.915 1.265 1.82 1.916 2.729.746 3.628 1.037 7.306.743 10.918-.06.737 3.96.558 6.544-.447 12.789 21.357 4.341 32.902 1.616 46.972-1.211 6.253-1.798 11.94-1.817 17.156-.016 4.564.4 8.771 1.273 12.633.485 2.142 6.416 2.973 13.352-.24 8.346-3.865 16.662-.852 16.481-3.615-.694-10.585-6.196-8.22-2.631-32.338" style="fill:#122a89"/></svg>