<svg xmlns="http://www.w3.org/2000/svg" xml:space="preserve" viewBox="0 0 215 220"><path d="M174.123 83.485c.116-9.655 3.544-19.179-.314-29.372-7.231-19.103-28.646-23.635-37.955-22.638-5.16.553-10.929 1.664-13.734 4.488-4.434-1.144-9.356-1.77-14.142-1.091-4.786-.679-9.708-.054-14.142 1.091-2.804-2.824-8.573-3.935-13.734-4.488-9.309-.997-30.724 3.535-37.955 22.638-3.859 10.193-.431 19.717-.314 29.372.181 15.017-16.913 26.899-2.305 49.329 4.742 7.281-3.283 15.029 5.041 28.908 3.391 5.655-5.18 13.964 2.106 22.558 2.843 3.353 9.056 5.326 10.793 3.908 3.645-2.976-2.91-1.08-1.316-11.357 1.242-8.003 3.814-12.73 8.281-16.59 1.084 5.145 2.524 9.41 4.179 12.578.804 1.539 2.047 3.254 3.026 2.788.709-.337 1.067-1.529.296-3.004-1.933-3.7-3.434-9.296-4.338-15.955 1.21-2.19 1.796-4.969 1.825-8.031-1.121-2.482-2.058-5.255-2.808-8.522-.046-9.624.331-22.278.585-32.409.486 5.506 1.126 11.226 1.618 17.17.156 1.888 2.235 1.767 3.079-7.32 1.024-11.029 2.452-21.835 5.222-31.965.379.057.761.109 1.156.136 1.81.125 4.972-.264 6.663-1.477.964.898 1.99 1.76 3.147 2.535 2.527 1.69 7.733-.29 8.947-2.708a21 21 0 0 0 4.296 2.916c2.275 1.159 5.251 1.067 7.304-.615.344-.282.691-.667.989-1.102.184.24.361.489.548.725 2.734 3.435 10.557.546 9.968-3.15a22.2 22.2 0 0 0 4.837 3.041c2.66 1.22 12.01-2.813 8.205-4.558-8.306-3.809-11.674-12.456-9.95-20.667 2.178.368 3.911.69 4.85 1.283.292.184.554.368.826.552 10.096 15.825 13.302 35.067 15.158 55.055.844 9.087 2.923 9.208 3.079 7.32.492-5.944 1.132-11.664 1.618-17.17.254 10.131.632 22.784.585 32.408-.749 3.267-1.687 6.04-2.808 8.522.029 3.062.615 5.841 1.825 8.031-.904 6.659-2.405 12.255-4.338 15.955-.77 1.475-.412 2.666.296 3.004.979.466 2.222-1.249 3.026-2.788 1.655-3.168 3.096-7.434 4.179-12.578 4.466 3.86 7.039 8.586 8.281 16.59 1.594 10.277-4.961 8.381-1.316 11.357 1.738 1.419 7.951-.555 10.793-3.908 7.286-8.595-1.285-16.903 2.106-22.558 8.324-13.879.298-21.627 5.041-28.908 14.609-22.43-2.486-34.312-2.305-49.329M62.701 118.064a813 813 0 0 0-.327 10.195c-.214-.28-.414-.572-.637-.844-7.763-9.465-7.683-17.51-5.674-26.09 1.389 5.855 3.684 11.131 6.682 15.547zm-.399-59.299a49 49 0 0 0-5.308 12.069c-1.035-4.888-1.246-10.044 2.462-17.348 3.285-6.472 7.903-9.781 17.8-9.986-5.525 3.763-9.807 6.814-14.954 15.265m17.016 19.771c.155-.44.32-.874.482-1.311a22 22 0 0 0 1.834 3.228 7.2 7.2 0 0 1-2.316-1.917m9.932-17.171c.412-.119.889-.226 1.398-.328-1.496 5.492-1.081 11.384 1.334 16.398-3.943-4.685-5.211-10.881-2.732-16.07m12.341-2.671q.666-.218 1.338-.468c-2.491 6.417-1.087 13.508 2.191 19.95-5.197-5.023-6.514-12.896-3.529-19.482m11.163 11.242c-1.459-4.03-1.816-8.207.31-11.699q.541.201 1.08.38c-1.537 3.744-1.949 7.633-1.39 11.319M138.699 43.5c9.897.205 14.515 3.514 17.8 9.986 3.708 7.304 3.497 12.46 2.462 17.348a49 49 0 0 0-5.308-12.069c-5.147-8.451-9.428-11.502-14.954-15.265m15.52 83.915c-.223.272-.423.564-.638.844a812 812 0 0 0-.327-10.195l-.043-1.192c2.998-4.416 5.293-9.691 6.682-15.547 2.009 8.58 2.088 16.624-5.674 26.09" style="fill:#122a89"/></svg>