<svg xmlns="http://www.w3.org/2000/svg" xml:space="preserve" viewBox="0 0 215 220"><path d="M170.766 180.715c.139-1.436-.569-3.01-1.646-4.264.29-.037.567-.095.831-.202.453-.182.692-.484.768-.781.071-.277-.134-.612-.446-.826a2.6 2.6 0 0 0-.719-.311c.133-.034.269-.057.397-.108.453-.183.692-.484.768-.781.071-.277-.134-.612-.446-.826-.191-.131-.495-.254-.818-.335.168-.038.336-.071.496-.135.453-.183.692-.484.768-.782.055-.216-.06-.465-.26-.667.856-1.21 1.441-2.926 1.543-4.861.146-2.766-.738-5.188-2.127-6.36 1.664-1.332 2.897-3.987 3.063-7.141.177-3.359-.9-6.299-2.59-7.712 2.694-1.632 4.314-6.098 3.772-11.137-.458-4.251-2.333-7.777-4.697-9.391 3.458-2.867 5.159-9.298 3.904-16.297-.753-4.199-2.439-7.829-4.577-10.392 2.191-3.339 3.097-8.604 2.086-14.235-1.137-6.336-4.386-11.389-8.135-13.395 1.483-3.956.668-9.835-2.528-15.332-4.029-6.931-10.456-10.883-15.188-9.683-2.511-2.169-5.123-3.869-8.131-5.931-3.377-2.315-16.598-9.111-28.876-7.369-12.278-1.742-25.499 5.054-28.876 7.369-3.008 2.062-5.62 3.762-8.131 5.931-4.732-1.2-11.158 2.752-15.188 9.683-3.196 5.498-4.012 11.376-2.528 15.332-3.75 2.006-6.999 7.059-8.135 13.395-1.01 5.632-.105 10.896 2.086 14.235-2.139 2.564-3.824 6.193-4.577 10.392-1.256 6.999.446 13.43 3.904 16.297-2.364 1.614-4.239 5.139-4.697 9.391-.542 5.039 1.078 9.505 3.772 11.137-1.69 1.413-2.767 4.354-2.59 7.712.166 3.154 1.399 5.809 3.063 7.141-1.389 1.172-2.273 3.594-2.127 6.36.102 1.935.687 3.651 1.543 4.861-.2.202-.315.451-.26.667.076.297.315.599.768.782.16.064.328.098.496.135-.323.08-.627.203-.818.335-.312.215-.517.549-.446.826.076.297.315.599.768.781.128.052.265.074.397.108a2.6 2.6 0 0 0-.719.311c-.312.215-.517.549-.446.826.076.297.315.599.768.781.264.106.54.165.831.202-1.077 1.254-1.785 2.827-1.646 4.264.411 4.24-2.719 6.455-2.31 7.394.711 1.632 9.978.86 12.17-6.59.546-1.856.268-3.68-.541-5.076h.028c.512-.004 1.109-.211 1.419-.423.312-.215.517-.549.446-.826-.076-.297-.315-.599-.768-.782-.128-.051-.265-.074-.397-.108.285-.081.547-.193.719-.311.313-.215.517-.549.446-.826-.076-.297-.315-.599-.768-.782-.16-.064-.328-.098-.496-.135.323-.08.626-.204.817-.335.312-.215.517-.549.446-.826-.064-.249-.275-.487-.599-.67.796-.835 1.46-2.046 1.809-3.482.492-2.024.227-3.937-.556-5.116.881-.928 1.617-2.27 2.004-3.862.72-2.964-.001-5.737-1.61-6.666 1.695-.9 3.228-3.044 3.9-5.809.662-2.725.304-5.298-.752-6.883.618-.081 1.21-.343 1.779-.695.113 3.641.332 7.25.741 10.8 1.025 8.897 3.032 15.99 5.494 20.702.804 1.539 2.047 3.254 3.026 2.788.709-.337 1.067-1.529.296-3.004-2.717-5.201-4.605-14.108-5.136-24.524-.115-2.246-.169-4.971-.184-7.984-.046-9.624.331-22.278.585-32.409.486 5.506 1.126 11.226 1.618 17.17.156 1.888 2.235 1.767 3.079-7.32.878-9.457 2.059-18.748 4.123-27.591 2.614.73 7.104-1.23 6.85-4.376-.557-6.916-.076-13.597 1.998-19.424.308-.554.61-1.111.934-1.657-1.984 6.867-2.276 14.364-.99 21.33.569 3.084 9.266.976 8.658-2.32-.821-4.449-.935-9.792-.136-15.058-.323 6.199.299 12.313 1.688 17.136.904 3.137 9.555.796 8.658-2.32-1.454-5.046-2.109-12.48-1.409-19.652.216 7.254 1.462 14.604 2.959 21.095.51 2.214 9.204.05 8.658-2.32-1.555-6.741-2.867-14.434-2.981-21.948 2.102 7.934 3.469 15.961 3.832 24.377.123 2.848 8.805 1.091 8.658-2.32-.281-6.528-1.165-12.822-2.524-19.021 2.883 6.751 4.237 14.096 3.33 21.379-.476 3.817 8.289 2.383 8.701-.923.693-5.559.177-11.168-1.268-16.563 2.98 6.293 4.528 13.181 3.975 19.868-.127 1.54 1.921 1.897 4.053 1.551 2.237 9.191 3.486 18.882 4.402 28.756.844 9.087 2.923 9.208 3.079 7.32.492-5.944 1.132-11.664 1.618-17.17.254 10.131.632 22.784.585 32.408-.014 3.013-.069 5.738-.184 7.984-.531 10.416-2.419 19.323-5.137 24.524-.77 1.475-.412 2.666.296 3.004.979.466 2.222-1.249 3.026-2.788 2.462-4.712 4.469-11.805 5.494-20.702.409-3.55.628-7.159.741-10.8.569.353 1.162.615 1.779.695-1.056 1.585-1.414 4.159-.752 6.883.672 2.765 2.206 4.909 3.9 5.809-1.609.929-2.331 3.702-1.61 6.666.387 1.592 1.122 2.934 2.004 3.862-.783 1.179-1.048 3.092-.556 5.116.349 1.436 1.013 2.647 1.809 3.482-.323.183-.535.42-.599.67-.071.277.134.612.446.826.191.131.495.254.817.335-.168.037-.336.071-.496.135-.453.183-.692.484-.768.782-.071.277.134.612.446.826.172.118.434.23.719.311-.133.034-.269.057-.397.108-.453.183-.692.484-.768.782-.071.277.134.612.446.826.309.212.906.419 1.419.423h.028c-.809 1.396-1.087 3.22-.541 5.076 2.192 7.45 11.459 8.223 12.17 6.59.407-.937-2.722-3.152-2.312-7.392M55.37 123.985a15 15 0 0 0-.849 3.523c-.362-.891-.813-1.673-1.339-2.324a9.3 9.3 0 0 0 2.188-1.199m-3.392 38.851c-.383-1.256-.978-2.314-1.706-3.041a4.8 4.8 0 0 0 1.107-.979c.062 1.367.447 2.548 1.092 3.333q-.26.317-.493.687m.392-19.533a11.2 11.2 0 0 0-.264 3.806c-.508-1.039-1.163-1.862-1.895-2.451.87-.478 1.686-1.212 2.405-2.149-.084.264-.179.518-.246.794m.89 9.438c.005-.315.026-.623.009-.946a13 13 0 0 0-.193-1.676c.406.632.921 1.1 1.53 1.371-.479.302-.933.728-1.346 1.251m1.237-13.764c.445-1.23.769-2.586.924-4.029q.006-.066.01-.133c.409.94.924 1.752 1.528 2.378-.872.275-1.716.9-2.462 1.784m8.204-24.325q-.08 2.166-.156 4.333a3.9 3.9 0 0 0-1.184-.288 4 4 0 0 0-1.721.26c1.068-1.902 1.904-4.133 2.445-6.566.224.352.427.727.659 1.069zm91.893 4.045a3.9 3.9 0 0 0-1.184.288 2090 2090 0 0 0-.199-5.525c.232-.342.435-.717.659-1.069.541 2.434 1.378 4.665 2.445 6.566a4 4 0 0 0-1.721-.26m8.18 6.488c-.526.651-.977 1.433-1.339 2.323a15 15 0 0 0-.849-3.523 9.3 9.3 0 0 0 2.188 1.2m-3.778 12.008c.604-.626 1.119-1.438 1.528-2.378.005.045.005.088.01.133.155 1.443.478 2.799.924 4.029-.746-.884-1.59-1.509-2.462-1.784m3.7 15.548c-.414-.523-.867-.949-1.346-1.251.609-.271 1.125-.739 1.53-1.371q-.147.811-.193 1.676c-.017.323.003.632.009.946m1.281 10.095a7 7 0 0 0-.493-.688c.645-.784 1.03-1.965 1.092-3.333.333.408.71.72 1.107.979-.728.728-1.323 1.786-1.706 3.042m-.128-15.727a11.2 11.2 0 0 0-.264-3.806c-.067-.276-.162-.53-.246-.793.719.937 1.535 1.671 2.405 2.149-.732.588-1.386 1.412-1.895 2.45" style="fill:#122a89"/></svg>