<svg xmlns="http://www.w3.org/2000/svg" xml:space="preserve" viewBox="0 0 215 220"><path d="M163.31 114.086c-.582-6.179-2.307-12.143-5.194-17.584l-.002-.031c-1.076-9.665-4.533-14.803-11.72-21.145-12.09-10.67-22.169-10.822-32.103-11.923-9.715-1.077-25.469 1.559-35.833 9.109-2.996 2.183-6.465 5.243-7.906 10.396-5.834 4.245-10.689 9.744-13.858 16.61-4.422 9.58-5.375 20.896-3.298 31.191 1.018 5.045 2.556 9.954 3.337 15.048.362 2.356.617 4.73 1.026 7.078.181 1.042.295 2.847 1.218 3.572 1.354 1.063 3.884-.077 4.844-1.359.06-.08.134-.158.181-.239.963-1.657 1.026-3.981 1.212-5.831.705-7.028.921-14.087 2.09-21.066 1.555-9.289 4.714-19 13.086-24.359a10.7 10.7 0 0 1 1.628-.85c.84.304 1.69.574 2.538.808 3.709 1.021 16.18 1.934 25.992 5.776 17.472 6.842 14.451 32.258 15.115 33.809 1.065 2.487 2.251-.687 4.338-8.474 2.866-10.698 2.589-22.049 3.28-19.949 0 0 4.692 14.499 6.585 17.342 3.197 4.802.824-7.677 5.23-15.911 2.579 5.767 3.646 12.279 4.346 18.575.497 4.467.744 8.953 1.121 13.43.193 2.287.09 5.646 1.443 7.641.028.041.067.058.096.097 1.601 2.115 4.979.324 5.635-1.797.827-2.674.945-5.635 1.353-8.392.469-3.163 1.163-6.245 1.944-9.341 1.866-7.385 2.995-14.592 2.276-22.231M61.381 150.654c-.197-1.16-.38-2.322-.54-3.488.006-.006.014-.008.02-.015l1.007-1.149a62 62 0 0 1-.487 4.652m13.573-45.611a.87.87 0 0 0-.035-.833l-1.634-2.612a.88.88 0 0 0-1.49.934l1.634 2.61a.88.88 0 0 0 .745.413c.101 0 .197-.049.295-.085a28.3 28.3 0 0 0-3.85 4.169l-1.489-1.61a.88.88 0 0 0-1.291 1.193l1.743 1.885a30 30 0 0 0-2.495 4.542 43 43 0 0 0-1.566 4.219.85.85 0 0 0-.123-.498l-2.068-3.235a.877.877 0 1 0-1.479.947l2.068 3.235a.876.876 0 0 0 1.214.267.9.9 0 0 0 .224-.217c-.91 2.97-1.54 6.032-2.01 9.117l-1.745-1.871a.878.878 0 1 0-1.284 1.2l2.71 2.905a152 152 0 0 0-.561 5.035 101 101 0 0 0-.283 3.898l-.873-.778a.88.88 0 0 0-1.171 1.313l1.92 1.711-.061 1.073a.87.87 0 0 0-.913.259l-.576.656c-.269-1.89-.561-3.776-1.006-5.639-.682-2.856-1.449-5.702-2.073-8.576l.014.005q.058.007.115.007a.88.88 0 0 0 .87-.766l.53-4.099a.88.88 0 0 0-1.744-.225l-.307 2.375c-.135-.784-.277-1.567-.371-2.359-.19-1.606-.278-3.232-.317-4.862.044.007.083.037.128.037a.88.88 0 0 0 .798-1.246l-.928-2.018c.088-2.399.357-4.785.763-7.132l.059.117a.88.88 0 0 0 1.572-.786l-1.061-2.123c.586-2.497 1.353-4.957 2.349-7.325l2.941 2.371a.88.88 0 0 0 1.236-.132.88.88 0 0 0-.134-1.236l-3.156-2.544c-.042-.034-.091-.047-.137-.072q.639-1.362 1.37-2.675l.819 2.186a.879.879 0 1 0 1.644-.616l-.978-2.612a.86.86 0 0 0-.601-.525 41 41 0 0 1 1.644-2.463l1.043 2.783a.878.878 0 1 0 1.644-.618l-1.421-3.795c.977-1.221 2.002-2.404 3.126-3.499.329-.32.697-.611 1.04-.921a22 22 0 0 0-.093 3.229c.013.307.055.598.087.893l-.176-1.122a.879.879 0 1 0-1.737.271l.664 4.243a.88.88 0 0 0 1.004.733.88.88 0 0 0 .733-1.004l-.302-1.927c.262 1.275.7 2.447 1.296 3.515a.8.8 0 0 0-.309-.008.88.88 0 0 0-.724 1.01l.436 2.623a.88.88 0 0 0 1.011.722.88.88 0 0 0 .723-1.012l-.35-2.102q.734 1.024 1.642 1.911v.008l.008-.001c1.681 1.641 3.762 2.941 6.001 3.954a23.4 23.4 0 0 0-4.941 3.205m79.965 43.974c-.07.511-.157 1.02-.229 1.531-.197-1.422-.302-2.865-.388-4.282l.776.885c.039.044.091.066.136.1-.096.589-.213 1.171-.295 1.766m4.178-20.519-.376-2.905a.877.877 0 0 0-.985-.759.88.88 0 0 0-.759.984l.53 4.099a.88.88 0 0 0 .985.759c.082-.011.153-.046.225-.077-.039.198-.07.399-.112.597-.984 4.659-2.156 9.21-3.027 13.863l-.727-.829a.86.86 0 0 0-.711-.283l-.092-1.201 1.749-1.558a.88.88 0 0 0-1.171-1.313l-.747.665c-.223-2.9-.466-5.797-.829-8.684l-.033-.253 2.601-2.789a.88.88 0 0 0-1.284-1.2l-1.627 1.744c-.433-2.942-.999-5.888-1.81-8.746.123.06.249.111.38.111a.88.88 0 0 0 .74-.405l2.068-3.235a.877.877 0 1 0-1.479-.947l-2.068 3.235-.006.014c-.741-2.37-1.672-4.664-2.853-6.827q.876-1.001 1.719-1.901l-.634 1.926a.878.878 0 1 0 1.669.55l.968-2.942a.87.87 0 0 0-.521-1.087c.801-.824 1.564-1.598 2.274-2.333a.86.86 0 0 0 .36.365.88.88 0 0 0 1.179-.394l.978-1.959a.86.86 0 0 0-.027-.802q.533-.672.967-1.348a47 47 0 0 1 1.631 5.245l-.921 1.842a.88.88 0 0 0 .786 1.272.87.87 0 0 0 .727-.422c.444 2.321.723 4.673.84 7.038l-.888 1.932a.878.878 0 0 0 .798 1.245c.054 0 .1-.034.153-.044a53 53 0 0 1-.64 7.757" style="fill:#122a89"/><path d="M67.783 97.643a.88.88 0 0 0-.781.967l.63 5.88a.877.877 0 0 0 .968.779.88.88 0 0 0 .779-.968l-.63-5.878a.9.9 0 0 0-.966-.78m-5.947 6.353a.88.88 0 0 0-1.572.788l.98 1.957a.876.876 0 0 0 1.179.394.88.88 0 0 0 .393-1.178zm4.368 5.646a.877.877 0 1 0-1.668.55l.968 2.942a.878.878 0 1 0 1.668-.55zm-5.611 7.06.978-3.591a.88.88 0 0 0-1.696-.462l-.978 3.591a.88.88 0 0 0 1.696.462m.51 4.429a.88.88 0 0 0-1.023.706l-.39 2.143a.88.88 0 0 0 1.73.316l.39-2.143a.88.88 0 0 0-.707-1.022m-1.425 11.815.194 4.09c.021.47.41.838.877.838l.041-.001a.877.877 0 0 0 .836-.919l-.194-4.092c-.022-.484-.417-.876-.918-.836a.88.88 0 0 0-.836.92m96.385-20.297a.88.88 0 0 0-1.696.462l.978 3.591a.878.878 0 1 0 1.696-.462zm.185 11.331-.39-2.143a.88.88 0 0 0-1.73.316l.39 2.143a.88.88 0 0 0 1.73-.316m-.824 8.047c-.453-.035-.894.352-.918.836l-.194 4.092a.877.877 0 1 0 1.754.082l.194-4.09a.88.88 0 0 0-.836-.92" style="fill:#122a89"/></svg>