<svg xmlns="http://www.w3.org/2000/svg" xml:space="preserve" viewBox="0 0 215 220"><path d="M168.562 142.978c-9.893-4.381-6.659-10.995-3.775-15.829 1.63-2.733 2.848-5.474 3.597-8.257 2.838-6.448 3.173-12.365.571-19.378-1.949-5.255-4.789-10.187-3.781-14.357 2.858-11.828-2.555-17.813-14.754-26.215-2.513-1.731-3.832-4.452-8.12-8.118-7.285-6.229-21.032-7.959-28.532-6.259-14.67 3.326-14.833-.334-28.053.053-10.588.309-8.82 5.865-21.267 10.924-13.314 5.411-14.808 14.168-16.19 21.009-2.053 10.162 2.098 15.773-1.914 22.583-5.152 8.744-3.719 16.938 5.269 26.111 2.425 4.426 3.69 9.745-4.633 13.722-1.32.631-.689.937.797.906 1.799-.038 4.361-.781 5.684-1.413a26 26 0 0 0 1.606-.852c.015.222.022.443.047.666-.042 6.737-1.855 13.653-7.911 16.452-1.335.617.338 1.614.978 1.879 1.287.533 3.221.799 4.518.2 2.133-.986 3.797-2.411 5.087-4.122-2.104 4.141-2.098 9.08 3.002 14.563.604.649 1.625 1.468 2.701 2.118-1.187 2.051-3.298 3.727-6.749 4.681-1.681.464.753 1.329 1.662 1.564 1.829.473 4.434.559 6.112.297 3.496-.547 5.796-2.191 7.191-4.387-2.805-4.494-4.794-9.765-6.013-17.446-.86-5.417-1.346-9.928-1.625-14.048a11.8 11.8 0 0 1-.169-2.883c-.069-1.46-.114-2.882-.144-4.291 2.538 3.748 5.484 6.951 6.816 5.197-2.703-6.357-4.512-14.855-2.703-18.257.468-.88.881-1.831 1.257-2.834a23.4 23.4 0 0 0 3.384-2.601c.273.027.533.044.771.046 9.489.08 15.18-4.903 18.662-11.267 1.318 5.305 4.611 10.033 11.338 11.886 1.618.446 3.955.021 5.49-.594.762-.306 2.737-1.391 1.073-1.849-10.462-2.882-11.52-13.908-10.409-21.77.409-2.894 1.031-5.883 1.485-8.868-.022 3.85-.303 7.748-.024 11.331.631 8.092 4.342 17.247 14.987 18.476.911.105 1.987-.092 3.015-.418 1.926.55 4.247.587 7.062-.128.81-.206 1.751-.69 2.656-1.282 3.551 3.756 8.318 6.081 14.787 5.317a8.5 8.5 0 0 0 1.397-.306c1.373 1.048 2.824 1.92 4.346 2.552 2.69 13.465-5.618 20.631-2.714 20.329 2.421-.252 4.015-1.921 5.661-4.056a161 161 0 0 1-.121 3.386 11.8 11.8 0 0 1-.169 2.884c-.279 4.12-.765 8.631-1.625 14.048-1.219 7.68-3.209 12.951-6.013 17.445 1.395 2.196 3.695 3.84 7.191 4.387 1.678.262 4.282.176 6.112-.297.909-.235 3.342-1.099 1.662-1.564-3.451-.954-5.562-2.63-6.749-4.681 1.075-.65 2.097-1.468 2.701-2.118 5.099-5.483 5.105-10.422 3.002-14.563a13.3 13.3 0 0 0 5.087 4.122c1.297.6 3.231.333 4.518-.2.64-.265 2.313-1.262.978-1.879-4.886-2.259-6.984-7.205-7.644-12.568.34.168.684.336 1.053.499 1.341.594 3.923 1.262 5.722 1.248 1.481-.009 2.103-.334.766-.926m-109.349 7.409c.113-.222.217-.449.321-.677l.08.151q-.206.26-.401.526m2.111-20.365a8 8 0 0 0 .091-.955q.29.513.605 1.044a24 24 0 0 0-.696-.089m3.149 36.779c-1.788-3.02-1.737-5.805-.778-8.325.917 2.779 1.355 5.711.778 8.325m22.662-76.452c-1.609 5.447-3.82 11.951-8.31 16.105a46 46 0 0 0 1.201-2.096c2.986-5.58 5.2-12.335 8.408-18.119l.017-.008a97 97 0 0 0-1.316 4.118m21.23-1.94c-.035-2.566.08-5.229.103-7.884.219.004.44.019.66.027 2.113 5.302 1.023 12.961 1.769 18.922q.078.605.184 1.207c-1.967-3.794-2.663-8.369-2.716-12.272m9.524 3.975c-.08-1.465-.104-2.986-.129-4.518 1.806 4.023 3.24 8.254 4.922 12.369.823 2.015 1.798 3.979 2.943 5.798-5.562-1.534-7.432-8.067-7.736-13.649m10.833.277a96 96 0 0 0-3.626-8.538c4.206 5.923 6.867 13.474 10.389 19.611a48 48 0 0 0 3.242 4.923c-5.081-3.531-7.916-10.333-10.005-15.996m22.668 74.14c-.577-2.614-.139-5.546.778-8.325.958 2.52 1.009 5.305-.778 8.325m4.859-16.939.08-.151c.104.228.208.455.321.677a21 21 0 0 0-.401-.526" style="fill:#122a89"/></svg>