<svg xmlns="http://www.w3.org/2000/svg" xml:space="preserve" viewBox="0 0 215 220"><path d="M177.164 113.531c-1.022-17.38-1.068-25.156-11.82-41.855-16.649-25.858-40.733-26.614-46.148-27.567-.137-.027-.273-.061-.41-.087-.341-.092-.444-.109-.235-.05-13.772-2.528-27.49 1.282-35.53 11.451-1.412.12-2.862.373-4.313.803-3.782 1.116-19.35 1.229-31.631 24.924-4.101 7.912-7.359 21.509-8.545 38.653-.749 10.825-.19 34.87 8.702 42.915.787.712-2.201-7.256-2.612-10.617-.722-5.893-1.263-11.659-1.529-17.358 2.482 14.292 8.094 19.611 12.603 34.375 2.341 7.665 6.455 8.143 5.665 6.355-2-4.523-.475-20.456 2.646-36.818 1.793-9.4 4.11-18.941 6.593-26.543 5.792-17.736 9.893-30.449 14.725-32.647.924-.42 1.761-.756 2.529-1.032 7.091 17.415 15.389 31.189 26.025 37.631.862.522 5.837 2.165 6.423 1.136 4.293 4.727 8.627 8.507 13.011 11.09.23.136.685.321 1.251.514 3.736 6.508 6.738 11.188 13.179 19.255a47 47 0 0 1 2.816 3.926c4.358 6.784 6.768 14.736 4.999 24.065-.512 2.699 5.973-1.728 11.212-18.626 2.775-8.952 4.249-21.4 5.348-37.385q.073-1.055.169-2.116c.274 7.861-.096 17.235-1.569 28.478-.448 3.417-3.532 11.548-2.733 10.814 9.022-8.301 9.824-32.711 9.179-43.684m-63.849-2.518c-9.923-11.501-14.559-19.955-19.686-32.734a52 52 0 0 0 1.046-.197c7.86 14.94 15.828 27.778 23.946 37.217-1.277-.706-3.152-1.789-5.306-4.286m-10.122-29.402c3.62 2.777 7.754 7.142 11.43 13.114 6.356 10.324 10.666 17.731 13.956 23.51-11.077-12.386-17.859-22.621-25.386-36.624" style="fill:#122a89"/></svg>