<svg xmlns="http://www.w3.org/2000/svg" xml:space="preserve" viewBox="0 0 215 220"><path d="M163.663 90.11c-4.807-7.735-10.819-9.905-17.494-10.707a22 22 0 0 0-2.005-2.131c-9.722-8.913-21.163-5.988-23.994-5.66-3.449-3.131-8.777-6.606-17.462-7.301-12.731-1.194-21.539 2.299-23.713 2.284-2.129-2.269-12.28-4.036-15.557-4.485-28.727-3.938-34.429 15.923-28.727 31.159 6.025 16.099 16.985 27.747 29.104 30.717 5.445 1.334 11.123.92 16.694-1.636 12.394-5.686 10.382-12.632 21.502-17.961s24.111-4.952 24.124-4.974c2.88 5.099 10.754 8.586 17.133 6.077-.975 5.236-2.327 12.436-2.026 15.85.169 4.299 9.367 7.07 9.592 11.366.257 4.901.603 9.404.995 13.232 1.105 10.784 2.584 16.16 3.513 9.594 2.337-16.515 4.807-15.227 4.039-20.08-.358-7.012 1.104-14.43 1.051-15.77.548-.306 1.08-.643 1.574-1.048 6.475-5.32 8.247-17.922 1.657-28.526" style="fill:#122a89"/></svg>