<svg xmlns="http://www.w3.org/2000/svg" xml:space="preserve" viewBox="0 0 215 220"><path d="M171.532 135.048c-1.129-.651-2.006-1.291-2.583-2.519-1.945-5.024.075-8.55 2.943-12.63 3.01-4.282 5.037-8.685 4.634-14.048-.355-4.728-3.009-8.05-4.757-12.275-2.551-6.165-1.313-13.289-5.498-18.776-2.033-2.665-4.638-4.853-6.903-7.312-2.379-2.583-4.554-5.349-6.789-8.055-3.872-4.687-7.999-9.304-13.347-12.339-5.937-3.37-12.721-4.604-19.481-4.768-3.543-.086-7.09.122-10.58.76-3.214.588-6.335 2.439-9.54 2.357-8.116-.209-15.748.195-23.21 3.662-5.748 2.67-11.531 6.11-15.358 11.292-1.845 2.498-2.672 5.251-3.964 8.015-1.338 2.864-3.144 5.502-4.92 8.107-3.884 5.696-8.258 11.383-10.722 17.883-2.398 6.329-2.673 14.169-.358 20.568a20.5 20.5 0 0 0 1.73 3.655c.344.567.772 1.073 1.129 1.628.687 1.069.675 2.243.645 3.5-.054 2.25-.488 4.739-2.127 6.41-1.316 1.342-5.034 2.438-2.19 4.487 2.026 1.46 4.976 1.689 7.379 1.792q1.035.045 2.073.038c-.121.974-.25 1.947-.372 2.922-.143 1.139-.356 2.283-.457 3.425-.183 2.082.358 4.095.804 6.108.698 3.144.712 6.029-.949 8.907-.856 1.483-2.187 2.522-3.11 3.923-.362.549-.675 1.17-.236 1.777 1.053 1.456 4.355.455 5.622-.038 2.024-.787 3.85-2.034 5.585-3.373.082 2.784.279 5.74-.834 8.206-.611 1.354-4.054 3.656-1.034 4.56 3.113.932 6.13-.583 8.8-2.335-.423 1.471-1.146 2.733-2.537 3.759-.751.554-2.424 1.559-1.69 2.697.735 1.139 3.113.531 4.128.325 2-.407 4.253-1.025 5.949-2.206 1.499-1.044 2.826-2.295 4.001-3.698a25.5 25.5 0 0 0 1.923-2.651 48 48 0 0 1-1.695-2.244c-3.502-4.964-5.679-10.373-7.022-18.84-.94-5.928-1.433-10.791-1.694-15.229 2.789-1.671 5.204-3.903 7.055-6.826 3.884-6.134 5.193-13.189 5.903-20.289a63 63 0 0 1 .341-2.768c.866-6 2.662-12.031 6.142-17.011 1.888-2.702 4.311-5.283 7.183-6.937 2.635-1.519 5.705-2.156 8.464-3.419 3.053-1.397 6.001-3.139 8.636-5.238 5.461 1.893 10.958 4.113 15.572 7.657 1.273.978 2.747 2.221 3.171 3.847.254.976.095 2.076.1 3.079q.011 2.674.058 5.349c.146 8.058.249 16.516 2.542 24.314a36 36 0 0 0 3.337 7.751c1.357 2.352 2.976 4.549 4.811 6.417 3.401 3.461 7.838 5.918 12.532 7.617a159 159 0 0 1-1.44 11.685c-1.369 8.624-3.596 14.078-7.214 19.119q-.469.652-.969 1.296-.455.586-.937 1.17a28 28 0 0 0 1.929 2.622c1.193 1.431 2.533 2.699 4 3.501 1.54.843 8.604 3.691 9.825 1.006.495-1.088-1.102-1.764-1.805-2.312-1.162-.906-1.842-2.061-2.275-3.34 2.614 1.616 5.527 2.845 8.54 1.696 2.895-1.104-.136-2.698-.884-4.329-1.09-2.375-1.001-5.152-.923-7.834 1.612 1.23 3.32 2.356 5.186 3.048 1.577.585 4.157 1.106 5.638-.024 1.782-1.36-1.564-3.7-2.325-4.835-1.95-2.907-2.409-5.951-1.725-9.337.476-2.359 1.182-4.628.92-7.062-.111-1.033-.265-2.063-.406-3.094 1.565.002 3.117-.161 4.543-.637.878-.293 2.73-1.038 2.365-2.267-.167-.576-.815-.775-1.278-1.042m-129.411-2.285c-.878-.014.072-.107 0 0m.846-.132c.254.033.511.081.76.097q-.6.11-1.208.198c.146-.081.298-.188.448-.295m22.525 24.393q.304.974.637 1.896c.444 1.23.927 2.393 1.452 3.506a38 38 0 0 0 1.701 3.206 42 42 0 0 0 1.963 3.004c.171.239.353.474.53.711a32 32 0 0 1-2.482 2.859c-1.682 1.723-3.468 2.518-5.805 3.045.222-.205.428-.405.57-.537 1.918-1.792 2.518-4.331 2.816-6.852.149-1.261-1.748-.974-2.355-.559-1.149.785-2.282 1.602-3.45 2.357a7.8 7.8 0 0 1-2.131.984 7.8 7.8 0 0 1-1.805.31c-.014.001-.027-.002-.041-.001.548-.623 1.088-1.633 1.273-2.011.461-.943.731-2.008.883-3.043.408-2.769.094-5.611.217-8.398.052-1.191-1.711-1.086-2.355-.559-2.047 1.674-4.195 3.526-6.645 4.59-.391.17-1.859.809-2.427.636.663.101 2.099-1.991 2.365-2.357 2.624-3.603 3.05-7.377 2.114-11.626-.405-1.838-.931-3.656-.764-5.558.082-.934.26-1.868.378-2.799q.222-1.746.438-3.493a29 29 0 0 0 3.21-.444 31.4 31.4 0 0 0 6.074-1.881c.076 1.11.162 2.239.27 3.417q.09.972.197 1.98c.143 1.345.309 2.743.504 4.205.194 1.462.417 2.988.671 4.591a78 78 0 0 0 .421 2.415q.223 1.17.472 2.267a53 53 0 0 0 1.104 4.139m100.17 4.035c.231.269.588.787.926 1.111-3.026-.735-5.736-3.22-8.053-5.115-.666-.545-2.748-.127-2.702.92.118 2.691-.159 5.418.179 8.097.156 1.232.789 3.797 1.997 5.04a9.2 9.2 0 0 1-1.964-.546c-.607-.248-1.117-.562-1.656-.919-1.162-.767-2.301-1.571-3.451-2.357-.623-.426-2.625.13-2.517 1.047.239 2.023.645 4.131 1.965 5.755.255.313.673.759 1.128 1.172q-.603-.166-1.192-.37c-1.693-.588-2.818-1.388-4.067-2.653a27 27 0 0 1-2.275-2.636c.243-.322.489-.644.722-.969.7-.978 1.354-1.974 1.963-3.004a39 39 0 0 0 1.701-3.206 40 40 0 0 0 1.452-3.506q.333-.922.637-1.896c.406-1.3.774-2.674 1.106-4.139q.25-1.098.472-2.267.223-1.17.421-2.415c.254-1.602.477-3.129.671-4.591a163 163 0 0 0 .701-6.185c.013-.139.02-.265.032-.403a55 55 0 0 0 6.647 1.473c.806.126 1.646.245 2.501.337l.445 3.59c.631 5.065-2.509 9.621-.343 14.662.627 1.453 1.528 2.778 2.554 3.973m3.025-24.349c-2.823.463-5.87-.002-8.649-.527-7.194-1.359-15.348-4.345-20.212-10.085-7.939-9.369-8.995-21.067-9.354-32.908a311 311 0 0 1-.116-6.403c.594-3.866.73-7.872-1.014-11.466-4.548-7.827-13.939-11.201-22.46-12.229 7.782 2.684 16.421 5.813 21.017 12.994.346.662.611 1.346.839 2.04-1.691-2.057-4.336-3.558-6.485-4.774-2.058-1.165-4.183-2.261-6.357-3.191-1.291-.552-2.612-1.032-3.935-1.501-1.045-.37-2.377-1.144-3.512-.963-.889.141-1.547.943-2.234 1.463a35 35 0 0 1-3.091 2.087 41.8 41.8 0 0 1-7.945 3.72c-3.342 1.151-6.241 2.516-8.879 4.94a30.9 30.9 0 0 0-6.744 8.949c-1.917 3.82-3.137 7.99-3.887 12.187-.893 4.994-.94 10.038-2.326 14.952-1.219 4.323-3.101 8.731-6.162 12.081-3.16 3.458-8.247 5.331-12.787 6.009-3.424.511-7.967.835-11.197-.653-.025-.012-.091-.056-.154-.097 12.708.203 24.903-10.794 25.408-23.628a31.3 31.3 0 0 1-16.331 20.24c4.532-3.569 7.596-9.863 9.082-14.977-4.711 6.939-8.919 16.05-17.874 17.393.303-.242.586-.487.775-.65.045-.039.075-.088.119-.128 7.127-2.625 12.001-11.789 8.537-18.927.703 6.873-2.265 12.911-7.185 17.356.964-1.42 1.533-3.084 1.753-4.82.19-1.503.488-4.088-.191-5.462-.366-.74-1.156-1.416-1.608-2.135a17.2 17.2 0 0 1-1.526-3.112c-3.477-9.22-1.031-19.009 3.88-27.128 4.279-7.074 10.047-13.445 12.941-21.268 3.093-8.359 11.641-13.345 19.532-16.48 5.569-2.213 11.646-2.202 17.547-2.109 1.161.018 2.51.277 3.652.118.838-.117 1.594-.642 2.365-.964 2.343-.977 4.873-1.519 7.382-1.851 9.114-1.204 19.371-.25 27.247 4.817 7.096 4.565 11.79 11.795 17.276 18.02 2.916 3.309 6.664 6.138 8.951 9.956 2.417 4.037 1.9 8.94 3.068 13.369 1.642 6.225 6.236 10.882 5.889 17.641-.179 3.492-1.554 6.573-3.489 9.433-1.526 2.257-3.364 4.422-4.335 7-.865 2.297-.842 4.605-.205 6.884-4.603-.681-7.727-6.051-9.394-10.184.524 3.304 2.038 7.095 4.603 9.514a19 19 0 0 1-4.576-2.033c-2.906-1.775-5.417-4.298-7.103-7.447 1.943 7.092 9.363 12.19 16.726 11.904h.036a.9.9 0 0 0 .315-.071c.328.64.763 1.316 1.296 1.887-11.191-1.653-21.118-7.863-27.493-17.326 4.255 10.875 16.347 18.432 27.998 17.804a3.8 3.8 0 0 0 1.004.609c-.186.06-.357.118-.428.13" style="fill:#122a89"/><path d="M68.68 96.075q-.389 1.42-.721 2.845c.67-1.554 1.654-3.776 2.439-5.289 6.12-12.039 16.398-21.73 28.699-27.309C84.799 70.13 72.97 81.965 68.68 96.075" style="fill:#122a89"/><path d="M91.823 67.289c-8.124.306-15.975 6.554-18.118 14.392 4.521-6.716 10.557-11.499 18.118-14.392m67.335 26.101c2.293 5.856 7.94 9.021 8.609 15.261.266 1.873-.139 3.893-1.491 5.387 1.648-1.2 2.359-3.396 2.351-5.436.07-6.238-5.816-10.689-7.829-15.84-1.39-3.441-.666-7.438-.912-11.473-.199-3.87-1.981-8.77-6.197-9.628 8.325 4.092 2.641 14.877 5.469 21.729" style="fill:#122a89"/><path d="M166.505 98.061c2.955 3.431 4.473 8.011 4.351 12.817.756-2.298.856-4.857.303-7.286a15.3 15.3 0 0 0-3.324-6.678c-1.718-1.856-3.322-3.274-3.706-5.503-.444-2.172-.133-4.585.123-6.974-2.348 5.276-2.198 9.534 2.253 13.624m-58.781-38.666c7.936 2.778 14.901 6.537 21.597 11.621-4.863-6.827-13.222-11.315-21.597-11.621m2.977-2.144c5.807 1.554 10.661 3.781 15.644 7.141-3.112-5.136-9.727-8.146-15.644-7.141m-7.502 10.889c-5.655 1.319-10.823 3.759-15.45 7.265 5.651-1.328 10.827-3.751 15.45-7.265m-1.074-17.828c-2.764 3.778-1.866 9.906 1.85 12.746-1.558-4.367-2.093-8.117-1.85-12.746" style="fill:#122a89"/></svg>