<svg xmlns="http://www.w3.org/2000/svg" xml:space="preserve" viewBox="0 0 215 220"><path d="M168.535 163.52c-.369-10.211 4.985-57.421.443-78.069-3.044-13.842-5.58-24.483-10.777-32.283-5.92-8.885-13.413-16.278-19.793-20.287-4.546-2.857-17.688-8.331-30.345-4.641-12.657-3.69-25.799 1.784-30.345 4.641-6.379 4.009-13.873 11.401-19.793 20.287-5.197 7.8-7.733 18.442-10.777 32.283-4.542 20.648.812 67.858.443 78.069-.863 23.878-11.525 20.049-8.649 22 3.737 2.534 20.039 1.878 26.257-2.516 10.503-7.421 12.264-14.018 12.707-24.738.031-.747.044-1.45.069-2.183 1.058-30.975-2.923-49.204.192-68.812 1.571-9.888 6.63-19.772 15.761-28.044 4.472-4.051 10.112-.186 14.135-.8 4.023.613 9.663-3.252 14.135.8 9.131 8.272 14.19 18.155 15.761 28.044 3.109 19.573-.851 37.773.187 68.646.027.787.042 1.546.075 2.35.442 10.72 2.204 17.317 12.707 24.738 6.218 4.394 22.519 5.05 26.257 2.516 2.875-1.952-7.787 1.876-8.65-22.001" style="fill:#122a89"/></svg>