<svg xmlns="http://www.w3.org/2000/svg" xml:space="preserve" viewBox="0 0 215 220"><path d="M131.604 91.389c-2.182-7.306-10.066-12.218-12.566-10.485-.883.612 1.888.508 3.268 4.503 1.091 3.159.46 4.364.46 4.364-3.459-5-5.253-6.179-8.152-7.358-2.637-1.072-7.787-1.772-6.47-.71 2.251 1.816 2.4 3.8.496 7.088-2.094-4.764-4.476-6.639-9.498-7.669-2.763-.567-5.441.123-4.034 1.053 4.204 2.78 7.473 7.36 9.461 12.913-6.439-7.778-10.115-10.275-18.396-13.652-1.512-.617-6.327-.719-4.914.174 4.499 2.842 8.146 7.537 10.472 13.379-6.128-.864-8.22-3.647-11.567-7.819-2.47-3.079-.527 3.876.492 5.321 1.723 2.441-4.854-1.955-6.571-3.241-2.28-1.707-3.718-2.627-5.073-3.944-1.086-.599.262 13.225 6.746 25.636l.037.069c3.68 7.028 10.741 17.982 15.82 18.41 6.735.568 2.796-9.455 18.531-21.058 5.209-3.841 12.524-2.731 18.621-.43 2.516.949 3.83-.127 4.397-2.187.983-3.566-.29-10.106-1.56-14.357" style="fill:#122a89"/></svg>