<svg xmlns="http://www.w3.org/2000/svg" xml:space="preserve" viewBox="0 0 215 220"><path d="M182.676 183.417c-.157-.536-.56-1.029-.859-1.491-.498-.772-.96-1.56-1.342-2.397-1.426-3.124-1.8-6.606-1.809-10.006-.025-2.867-.673-6.094-2.843-8.149a9 9 0 0 0 .956-1.365c2.16-3.867 2.296-9.133.566-13.181-.063-.148-.147-.287-.216-.432a9.5 9.5 0 0 0 1.863-2.336c2.163-3.873 2.284-9.177.553-13.228a11 11 0 0 0-.859-1.596c.361-.439.694-.899.962-1.394 2.087-3.856 2.224-8.97.518-12.991-.516-1.216-1.252-2.316-2.151-3.185 1.975-3.823 2.083-8.847.406-12.771-.508-1.19-1.226-2.275-2.101-3.145 1.953-3.832 2.027-8.901.356-12.812-.66-1.545-1.679-2.956-2.952-3.938.814-4.352-.862-9.308-3.763-12.577-1.174-1.322-2.686-2.411-4.329-2.946-2.036-3.88-6.022-6.888-10.238-7.974a12.6 12.6 0 0 0-2.606-.37c-1.677-2.321-3.553-4.503-5.676-6.468-6.459-5.977-14.535-10.532-22.994-12.925-5.336-1.509-10.984-2.262-16.499-1.391a26 26 0 0 0-4.192 1.002c-1.22.407-2.195.285-3.495.315-2.968.068-5.948.57-8.823 1.293-10.545 2.652-20.373 10.085-27.066 18.606-.613.039-1.215.105-1.765.217-4.508.914-8.914 3.567-11.435 7.476-.086.133-.159.285-.241.426a11 11 0 0 0-3.708 2.288c-3.239 3.056-5.087 7.814-4.812 12.246.027.437.087.867.171 1.288-.894.692-1.676 1.54-2.235 2.495-2.234 3.811-2.497 9.006-.854 13.085.153.38.333.745.525 1.1a9 9 0 0 0-1.482 1.904c-2.164 3.807-2.409 8.901-.788 12.952q.252.627.575 1.206a9 9 0 0 0-1.548 1.927c-2.223 3.793-2.389 9.088-.66 13.094.379.879.891 1.745 1.523 2.5-.079.123-.175.238-.247.364-2.193 3.832-2.399 9.075-.654 13.117.602 1.395 1.472 2.565 2.534 3.405-1.839 3.725-1.98 8.515-.447 12.321a10 10 0 0 0 1.798 2.907c-2.275 2.097-2.974 5.385-3 8.39-.009 3.146-.335 6.341-1.538 9.276-.586 1.43-1.472 2.628-2.212 3.966-1.699 3.074 3.717 2.304 5.128 1.891 4.618-1.35 8.736-4.671 10.964-8.94 1.481-2.837 2.099-6.185 1.868-9.37-.123-1.691-.577-3.604-1.601-5.053 2.333-2.298 3.34-6.006 3.406-9.176 0-3.326-.861-7.558-3.634-9.77.954-1.993 1.385-4.314 1.429-6.446 0-2.809-.685-6.298-2.641-8.559 1.358-2.164 1.967-4.9 2.02-7.422 0-2.156-.422-4.718-1.504-6.815 2.217-2.284 3.183-5.834 3.248-8.945.001-.039-.025-.061-.031-.096.006-.035.032-.064.032-.1 0-2.148-.425-4.701-1.494-6.808 1.277-1.326 2.134-3.064 2.639-4.911.348 3.511 1.064 6.979 2.266 10.323 1.122 3.123 2.307 6.231 3.652 9.266.547 1.234 1.443 2.573 1.692 3.887.352 1.856-.125 4.164-.214 6.041-.683 14.389-1.201 29.637 4.127 43.302.944 2.421 2.076 4.795 3.48 6.985 1.148 1.79 2.839 4.276 5.205 4.401 1.808.096 3.581-1.262 3.29-3.184-.164-1.084-.974-1.959-1.53-2.872a28 28 0 0 1-1.93-3.844c-2.43-5.83-3.55-12.022-4.03-18.309-.514-6.729-.296-13.566-.14-20.186.011-.488.031-.976.044-1.465 1.923-.006 2.763-2.448 3.16-3.965 1.372-5.252 1.365-10.936 2.058-16.31q.282-2.195.612-4.38c.014.231.024.462.04.694.144 2.176 1.363 2.974 3.548 2.513 2.695-.568 3.203-2.206 3.056-4.666-.184-3.081-.293-6.169-.27-9.256.049-6.516.622-13.173 2.623-19.406.944-2.938 2.196-5.807 3.869-8.407.613-.953 1.356-2.065 2.199-3.132-2.079 4.223-3.294 8.813-4.29 13.506-1.68 7.911-2.374 16.014-1.715 24.084.17 2.083-.308 6.369 2.407 6.911 1.56.312 3.881-.401 4.643-1.9.535-1.053.068-2.322-.075-3.432a67 67 0 0 1-.525-6.943c-.1-4.237.18-8.479.767-12.675.745-5.328 1.741-10.719 3.68-15.702-.769 4.112-1.21 8.289-1.462 12.472-.413 6.849-.326 13.969 1.685 20.588.648 2.131 1.104 4.727 3.733 4.824 1.453.053 3.833-.646 4.174-2.318.238-1.167-.724-2.534-1.078-3.621-.575-1.767-.992-3.584-1.298-5.415-.607-3.635-.746-7.327-.664-11.006.148-6.607.707-13.487 2.368-19.987-.28 5.303-.169 10.686-.284 15.932-.16 7.293.057 14.737 2.123 21.784.617 2.104 1.03 4.217 3.585 4.25 1.473.019 3.661-.763 3.973-2.425.218-1.161-.62-2.514-.94-3.612a47 47 0 0 1-1.294-5.878c-.585-3.75-.753-7.547-.756-11.338-.004-4.128.213-8.251.203-12.38q-.006-1.82.006-3.636c1.009 4.104 1.925 8.23 2.58 12.407 1.171 7.465 1.429 15.039 1.102 22.581-.08 1.839-.21 3.316 1.973 3.577 1.414.169 3.406-.369 4.242-1.608.645-.955.449-2.348.491-3.45q.108-2.75.107-5.503a121 121 0 0 0-.448-10.418c-.533-6.12-1.701-12.132-3.12-18.093a75 75 0 0 1 2.066 4.488 82.5 82.5 0 0 1 3.68 10.939c1.893 7.25 2.912 15.048 1.115 22.426-.471 1.934-1.481 4.127 1.153 4.782 1.587.394 3.643-.173 4.505-1.643.722-1.232.955-3.091 1.228-4.469.387-1.959.602-3.952.682-5.947.142-3.571-.153-7.161-.734-10.685-.852-5.169-2.291-10.235-4.181-15.125.446.874.881 1.754 1.28 2.651 1.758 3.952 3.099 8.096 4.091 12.304 1.053 4.468 1.697 9.041 1.812 13.632.055 2.169-.351 4.451-.189 6.594.064.851.286 1.403 1.069 1.829 1.529.831 4.132.192 5.156-1.2.861-1.171.624-3.025.667-4.393.038-1.202.033-2.403.002-3.605 1.167 5.822 1.983 11.725 2.623 17.597.393 3.601.483 7.328 1.378 10.85.287 1.131.682 2.776 1.769 3.438.443.27.955.334 1.443.249.173 5.985.274 11.975.076 17.954a107 107 0 0 1-.197 3.755c-.48 6.987-1.741 14.107-4.818 20.378-.922 1.879-4.325 5.427-1.756 7.31 2.646 1.94 5.717-1.48 7.044-3.416 4.418-6.444 6.507-14.396 7.582-22.043 1.591-11.318.876-22.8.315-34.166 4.585-7.15 6.977-15.133 7.663-23.381.496 1.802 1.342 3.484 2.615 4.759-1.041 2.094-1.487 4.576-1.487 6.785.064 3.076.896 6.908 3.252 9.177-1.05 2.087-1.504 4.564-1.503 6.791 0 .042.027.066.034.104-.006.037-.031.069-.031.107.048 2.287.571 5.03 1.842 7.185-1.766 2.385-2.483 5.729-2.483 8.524.043 2.064.43 4.383 1.333 6.399-2.527 2.327-3.527 6.33-3.526 9.623.067 3.195.947 7.125 3.445 9.396-2.449 3.452-1.935 9.157-.562 12.789 1.716 4.536 5.558 8.386 10.139 10.03 1.574.565 3.313.895 4.958.441 1.08-.306 2.436-1.091 2.054-2.397m-5.497-41.681c-.263.795-.7 1.79-1.286 2.652-1.634-2.054-4.019-3.308-6.852-2.497-.15.043-.271.125-.414.177-.649-1.723-.921-3.645-.952-5.146 0-2.966.657-7.005 3.34-8.813 2.283-1.538 4.525 1.041 5.478 2.931 1.61 3.193 1.804 7.319.686 10.696m.607-15.794c-.143.442-.339.949-.582 1.46-1.568-1.484-3.622-2.283-5.989-1.6a7 7 0 0 0-1.746.784c-.808-1.863-1.139-4.022-1.187-5.807.015-3.033.715-7.05 3.394-8.912 2.263-1.573 4.662 1.538 5.507 3.337 1.547 3.289 1.714 7.292.603 10.738m-139.48-10.244c.505-1.413 1.256-2.838 2.412-3.83.898-.77 1.688-.759 2.739-.194 3.29 1.77 4.223 6.357 4.223 9.746-.034 1.62-.306 3.544-.958 5.269-.201-.116-.38-.258-.598-.353-2.421-1.065-5.006-.254-6.947 1.343a11 11 0 0 1-.592-1.16c-1.439-3.354-1.504-7.396-.279-10.821m.628 16.003c.501-1.401 1.252-2.819 2.412-3.787.88-.734 1.69-.761 2.72-.236 3.318 1.69 4.235 6.379 4.235 9.725-.029 1.401-.244 3.053-.733 4.599-2.665-.808-5.395.423-7.204 2.476a10.5 10.5 0 0 1-1.157-1.976c-1.439-3.355-1.498-7.378-.273-10.801m7.863 45.364c-1.732 3.248-4.858 6.284-8.383 7.39-.573.18-1.716.58-2.255-.151-.411-.557.131-1.242.433-1.72.845-1.337 1.635-2.655 2.177-4.151 1.031-2.843 1.313-5.906 1.322-8.911.023-2.692.573-5.81 2.636-7.741 1.267-1.185 2.694-.734 3.864.437 1.654 1.656 2.113 4.276 2.148 6.521.044 2.877-.585 5.782-1.942 8.326m3.697-23.887c-.049 2.375-.547 5.364-2.076 7.423-.038-.024-.069-.057-.108-.08-1.699-1.018-3.919-.859-5.77-.086a9 9 0 0 1-1.018-1.675c-1.516-3.305-1.615-7.293-.476-10.726.657-1.979 2.441-5.432 5.042-4.363 3.403 1.399 4.407 6.278 4.406 9.507m-2.708-41.103c-.626-.703-1.371-1.289-2.274-1.677-1.72-.739-3.544-.541-5.157.21-1.442-3.308-1.516-7.28-.342-10.676.722-2.088 2.527-5.465 5.189-4.144 3.29 1.633 4.201 6.256 4.219 9.572-.054 2.109-.468 4.716-1.635 6.715m1.748-15.997c-.632-.723-1.388-1.325-2.3-1.726-1.75-.77-3.578-.595-5.185.155-1.366-3.236-1.436-7.066-.337-10.379.661-1.991 2.42-5.492 5.038-4.379 3.4 1.446 4.42 6.29 4.419 9.557-.045 2.149-.458 4.757-1.635 6.772m3.73-12.138c-.085-.284-.164-.57-.267-.846q.188-.134.372-.278c-.034.375-.079.748-.105 1.124m.521-4.559c-.46.735-.993 1.433-1.592 2.033-.724-1.234-1.697-2.282-3.016-2.937-1.395-.692-2.858-.729-4.231-.351-.003-.028-.012-.06-.015-.087-.411-3.642.943-7.617 3.226-10.445a10.5 10.5 0 0 1 1.416-1.443c-.57 2.154-.322 4.44 1.861 5.699 1.144.66 2.492.855 3.828.813a52 52 0 0 0-1.477 6.718m1.847-7.886c-.641-.128-1.271-.351-1.862-.76-2.468-1.709-1.845-5.051-.595-7.308 1.696-3.064 4.968-5.925 8.435-6.717a6.5 6.5 0 0 1 1.657-.14c-3.417 4.564-5.944 9.602-7.635 14.925m98.623 41.828c3.731-10.189 5.439-21.985.449-31.888 2.96 10.997.792 22.05-1.472 32.998-.017-3.651-.077-7.328-.281-10.8-.611-8.061-1.187-16.681-5.312-23.838 2.833 7.63 3.007 15.885 3.558 23.938.371 4.928.499 11.332 1.075 17.109.806 15.523 1.638 32.089-4.823 46.494a36 36 0 0 1-2.052 3.953 22 22 0 0 1-1.214 1.816c-.462.613-2.698 3.111-2.153.755.258-1.116 1.613-2.558 2.148-3.598a36 36 0 0 0 1.901-4.467c2.383-6.735 3.317-13.923 3.536-21.036.276-8.956-.078-17.936-.38-26.886a.9.9 0 0 0-.478-.797c-.413-7.854-1.794-15.615-4.82-22.863 1.551 7.736 2.2 15.519 2.689 23.328a1 1 0 0 0-.235.527q-.18 1.873-.352 3.745c-1.249-6.18-1.375-12.639-2.298-18.883-1.826-12.357-4.88-24.566-10.708-35.683-.541-1.031-3.186-.13-2.68 1.002 3.005 6.727 5.012 13.89 5.865 21.213.43 3.696.549 7.425.337 11.14-.032.554.209 1.881-.622 1.95-.91.076-.428-1.31-.398-1.849q.148-2.679.061-5.362c-.226-7.102-1.581-14.159-3.892-20.875a64 64 0 0 0-3.914-9.065c-.772-1.459-1.694-3.649-2.888-4.81-.937-.911-2.352-1.561-3.482-2.212-.925-.533-3.045.115-2.354 1.452 3.839 7.437 6.653 15.523 7.963 23.803.696 4.399.904 8.889.329 13.315-.17 1.308-.401 5.583-1.579 6.252-.998.567-.481-1.167-.404-1.453.235-.873.466-1.74.643-2.627 1.548-7.732.303-15.828-1.804-23.33a81.4 81.4 0 0 0-4.247-11.682 79 79 0 0 0-2.654-5.313c-.378-.689-.781-1.814-1.407-2.305-.531-.416-1.427-.614-2.041-.89-.786-.354-2.48.282-2.202 1.344 1.929 7.372 3.705 14.8 4.522 22.389.443 4.115.622 8.255.61 12.392a143 143 0 0 1-.142 5.927c-.028.629.117 1.426-.334 1.815-.904.779-.694-.696-.671-1.145.376-7.43.125-14.93-.934-22.298-1.087-7.563-3.037-14.966-5.005-22.338-.345-1.292-2.656-.631-2.822.473-.598 3.971-.607 7.97-.595 11.976.012 3.993-.166 7.979-.196 11.972-.027 3.578.076 7.161.475 10.719.239 2.124.589 4.24 1.094 6.318.199.818 1.749 4.621 1.289 5-1.108.911-1.939-3.278-2.11-3.928a51 51 0 0 1-1.215-6.293c-.512-3.899-.615-7.838-.576-11.766.042-4.105.223-8.21.313-12.314.086-3.966.034-7.98.562-11.917.126-.937-1.095-.999-1.688-.897-2.043.349-2.401.635-3.09 2.623-.656 1.894-1.166 3.851-1.619 5.802-.982 4.227-1.547 8.536-1.883 12.859-.6 7.714-.742 15.812 1.673 23.257.113.347 1.17 2.524 1.036 2.75-.684 1.153-1.347-.585-1.562-1.069-.78-1.756-1.212-3.757-1.587-5.633-.813-4.076-1.01-8.246-.927-12.393.172-8.565 1.101-17.363 3.964-25.475.533-1.509-1.864-1.433-2.523-.616-2.368 2.941-4.316 6.029-5.534 9.621-1.298 3.83-2.206 7.849-2.953 11.818-1.616 8.585-1.669 16.993-.715 25.647.07.632.048 1.6-.887 1.124-.329-.168-.413-2.954-.46-3.374a70 70 0 0 1-.418-7.294c-.025-4.195.305-8.388.922-12.537 1.216-8.167 2.969-16.922 8.144-23.572.768-.987-.528-1.747-1.445-1.433-4.695 1.61-8.195 6.735-10.424 10.974-2.554 4.857-3.926 10.291-4.642 15.706-.738 5.588-.785 11.249-.54 16.873.057 1.304.217 2.624.217 3.928 0 .423.04 1.543-.818 1.271-.341-.108-.269-2.196-.282-2.42-.232-4.044-.33-8.09-.214-12.14.045-1.568-2.556-1.006-2.843.195-2.109 8.843-3.32 17.859-4.198 26.899-.182 1.873-.348 3.75-.699 5.6-.131-1.47-.249-2.942-.392-4.408-.026-.267-.182-.435-.389-.548.383-6.222.866-12.441 2.11-18.493-2.836 5.947-4.03 12.424-4.295 18.986-.138.158-.242.33-.249.528-.407 12.047-1.288 24.438.399 36.424.744 5.287 2.006 10.602 4.339 15.429a27 27 0 0 0 1.601 2.905c.185.289 1.322 1.842 1.015 2.018-.426.245-1.488-1.066-1.587-1.177-1.739-1.948-3.007-4.463-4.052-6.832-5.346-12.13-5.519-25.917-5.063-38.931.121-3.453.3-6.904.471-10.356.039-.796.038-1.309-.06-1.801.196-4.005.328-8.014.573-12.005.626-9.175.543-18.617 3.698-27.358-4.427 8.284-4.778 18.095-5.452 27.27a223 223 0 0 0-.228 7.416c-1.97-9.853-3.449-19.775-.79-29.654-3.962 7.862-3.696 16.919-1.554 25.417-1.819-4.632-3.361-9.313-3.853-14.317-.993-10.107.906-20.556 5.81-29.47 5.346-9.719 14.171-17.546 24.176-22.252 4.58-2.154 10.111-3.232 15.163-3.007 2.281.102 4.426-1.112 6.705-1.436 2.879-.41 5.802-.321 8.676.08 8.477 1.183 16.006 4.813 22.93 9.665 10.258 7.188 16.898 18.283 19.209 30.554 2.325 12.332 1.382 25.532-4.589 36.655m.028-55.937c3.121.917 5.98 3.101 7.83 5.702 1.339 1.882 2.896 5.451.739 7.362-.652.578-1.535.739-2.415.738-1.392-4.873-3.44-9.546-6.154-13.802m8.392 26.98a81 81 0 0 0-.075-1.101c.119.089.231.187.354.269a15 15 0 0 0-.279.832m-.638-5.762a60 60 0 0 0-1.107-5.62c.833-.108 1.657-.294 2.445-.652 1.557-.706 2.78-1.989 3.196-3.667.145-.586.151-1.188.103-1.789.114.108.237.217.338.322 2.522 2.605 4.073 6.419 4.075 10.048 0 .156-.006.329-.015.508a5.9 5.9 0 0 0-2.726.153c-1.873.54-3.262 1.776-4.262 3.335-.796-.761-1.474-1.683-2.047-2.638m2.768 10.425c0-2.966.657-7.005 3.34-8.812 2.283-1.538 4.524 1.04 5.478 2.931 1.611 3.192 1.805 7.319.686 10.694-.043.13-.103.278-.155.418-1.191-.506-2.541-.639-4.013-.211-1.36.396-2.445 1.162-3.337 2.122-1.419-2.047-1.955-5.012-1.999-7.142m1.732 15.907c0-3.026.675-7.002 3.31-8.923 2.246-1.637 4.634 1.265 5.53 3.103 1.591 3.263 1.77 7.264.705 10.712a12 12 0 0 1-.147.441c-1.229-.524-2.624-.658-4.141-.188-1.311.406-2.364 1.15-3.234 2.075-1.422-2.081-1.977-5.029-2.023-7.22m-1.069 47.957c0-2.986.66-7.019 3.325-8.869 2.273-1.578 4.581 1.146 5.509 3.024 1.598 3.235 1.77 7.267.699 10.688a11.2 11.2 0 0 1-1.084 2.41c-1.534-.607-3.285-.583-4.86.045a7 7 0 0 0-1.075.549c-1.811-2.042-2.463-5.426-2.514-7.847m14.432 31.66a8 8 0 0 1-1.101-.193c-3.588-.901-6.809-3.592-8.844-6.607-1.495-2.215-2.325-4.784-2.62-7.427-.281-2.526-.179-5.511 1.28-7.703.412-.62.984-1.352 1.768-1.461.854-.118 1.808.405 2.443.911 2.405 1.917 3.012 5.301 3.038 8.2.012 4.424.759 8.664 3.157 12.426.388.608.778 1.325.908 1.854z" style="fill:#122a89"/><path d="M74.271 64.131c6.448-7.466 14.532-12.553 23.93-15.488-9.835.373-19.635 6.596-23.93 15.488m43.422-22.365c5.945 2.06 12.019 3.656 17.255 6.819 5.288 3.082 9.588 7.614 13.99 12.108-6.942-11.925-17.657-17.822-31.245-18.927" style="fill:#122a89"/><path d="M103.177 44.371c.234-2.238.707-4.432 1.488-6.808-3.657 2.921-4.395 9.071-1.553 12.785a32.6 32.6 0 0 1 .051-5.753c13.436.149 26.28 4.071 37.513 11.502-9.651-9.381-24.207-13.881-37.499-11.726" style="fill:#122a89"/></svg>