<svg xmlns="http://www.w3.org/2000/svg" xml:space="preserve" viewBox="0 0 215 220"><path d="M162.335 100.925c.224 1.389 1.241-.208 1.544-.828.61-1.248 1.137-3.167.919-4.517-.723-4.485-3.072-7.214-6.058-8.776q.388-.567.751-1.231c.603-1.105.856-3.052.826-4.439-.015-.689-.223-2.571-.843-1.434-2.351 4.31-5.689 4.998-8.917 4.124 1.649-.56 2.796-1.223 3.749-1.826 3.328-2.104 2.735-3.163 1.13-2.74-4.167 1.099-7.838.439-10.834-.554-.477-1.104-1.03-2.163-1.497-2.891-6.42-10.005-12.641-10.572-17.5-8.495-.651.278-1.292.58-1.93.886-10.718-6.628-18.059-4.658-23.036-.404-2.752-1.865-8.459-3.041-12.564.27-5.361 4.324-12.933 9.448-21.958-.576-1.22-1.355-1.437-.587-.957 1.072.543 1.879 2.09 4.369 3.29 5.797-3.669 1.176-6.995 3.459-9.151 7.426-.669 1.231-.694 3.067-.412 4.288.039.171.12.417.226.658-1.87 1.579-3.685 3.562-5.405 6.069-1.202 1.751-2.641 5.092-2.76 7.391-.098 1.898.449 2.674 1.647.928a27 27 0 0 1 2.189-2.753c-.302.909-.62 1.875-.973 2.932-2.966 8.875-2.968 9.445-1.182 17.931-.047-.223-.113 14.38 1.191 18.991 1.497 5.291 5.692 7.464 5.652 8.949-.036 1.345 1.073 10.898 3.675 8.562.07-.063.317-14.634.65-21.374.069-1.407.142-2.481.218-3.001 1.023-7.003.936-18.6 7.786-22.685 1.172-.699 2.72-1.838 4.489-3.139.932.955 2.278 1.957 3.461 2.244 6.771 1.639 11.228-1.825 13.899-6.347 2.033 5.413 6.027 9.802 13.186 9.914 1.604.025 3.741-.993 5.086-1.995a6.3 6.3 0 0 0 1.065-1.026c2.199 1.435 3.702 2.192 3.702 2.192 4.08 1.986 6.775 2.202 8.887 2.238 4.617.08 4.716-1.464 2.869-2.134-2.079-.754-3.831-1.812-5.363-3.007 3.591.915 7.644.512 12.088-2.057.198-.115.396-.251.594-.4 3.115 1.356 5.823 2.367 8.687 4.685 6.503 5.264 6.761 17.071 6.761 17.071 1.098 9.179-.111 22.816.955 27.41.248 1.068.618 1.649 1.17 1.569 2.176-.314.524-3.304 3.632-8.865.294-.527 3.619-4.964 4.512-8.801 1.502-6.46.797-18.613 1.307-20.155 2.445-7.387-1.272-16.542-2.466-19.446-.709-1.725-1.723-3.491-3.008-5.224 2.491 1.425 4.417 3.781 5.021 7.523m-93.877-18.81a20 20 0 0 0-6.486 2.539c2.442-2.836 5.8-4.275 9.308-4.85-.962.777-1.799 1.519-2.822 2.311m10.226 21.674c2.832-2.04 6.036-4.192 9.223-5.698-2.046 3.173-5.035 5.674-9.223 5.698m21.844-6.615.269.039c3.257 4.324 7.26 7.674 10.439 9.926-5.878-.672-9.085-4.952-10.708-9.965m36.81-20.374a34 34 0 0 0-4.562-2.047c2.321-.258 4.845.271 7.467 2.387a11 11 0 0 0-2.905-.34" style="fill:#122a89"/></svg>