<svg xmlns="http://www.w3.org/2000/svg" xml:space="preserve" viewBox="0 0 215 220"><path d="M177.534 93.284c-10.625-14.878-5.18-26.09-27.555-47.587-.15-.143-.297-.295-.448-.436l-.041-.04c-.001-.001 0 .003-.001.002a56 56 0 0 0-5.969-4.873c-2.173-1.53-10.939-6.596-23.883-7.529-6.025 0-9.57 1.021-11.659 2.572-2.089-1.551-5.634-2.572-11.659-2.572-12.944.933-21.709 5.999-23.883 7.529a55.5 55.5 0 0 0-5.969 4.873c-.001.001 0-.003-.001-.002l-.041.04c-.15.141-.298.292-.448.436-22.375 21.497-16.93 32.709-27.555 47.587-5.028 7.041 2.295 12.674-.627 24.643-1.44 5.898.692 11.179 3.838 15.337 4.041 5.34 2.358.713 2.553-2.285.284-4.388.931-6.649 1.749-8.536.382 1.879.695 3.875.823 5.994.595 9.831-3.616 14.609-1.708 14.349 3.653-.498 4.065-1.365 6.305-3.919a21 21 0 0 0 1.269-1.635c1.885 11.018 4.739 21.108 5.274 30.407.965 16.755 1.652 8.308 4.211 4.361 0 0 .987 5.149 3.133 9.05 2.46 4.471 6.108 7.645 5.879 5.381-.812-8.028.965-14.972 4.835-22.552.051-.1.091-.193.141-.292-5.187-5.992-8.588-12.079-10.362-23.256q-.229-1.448-.425-2.815c.443-1.801 1.04-3.261 1.537-3.977 0 0 .564 2.242.359 7.035-.075 1.741-1.097 5.617 1.379 2.886 3.684-4.063 5.781-7.494 6.467-18.369.78-12.37-7.854-24.787 6.662-41.783 6.103-7.145-.323-14.188 11.109-21.106 6.823-4.129 12.098-2.777 15.154-3.431 3.055.654 8.331-.698 15.153 3.431 11.432 6.918 5.006 13.961 11.109 21.106 14.516 16.997 5.882 29.414 6.662 41.783.686 10.875 2.783 14.306 6.467 18.369 2.476 2.731 1.454-1.145 1.379-2.886-.205-4.794.359-7.035.359-7.035.497.716 1.094 2.176 1.537 3.976q-.196 1.367-.425 2.815c-1.774 11.178-5.174 17.264-10.361 23.256.05.099.09.192.141.292 3.871 7.58 5.648 14.523 4.835 22.552-.229 2.265 3.419-.91 5.879-5.381 2.146-3.9 3.133-9.05 3.133-9.05 2.56 3.948 3.247 12.395 4.211-4.361.535-9.298 3.389-19.388 5.274-30.407.415.584.837 1.143 1.269 1.635 2.241 2.554 2.652 3.421 6.305 3.919 1.909.26-2.302-4.518-1.708-14.349.128-2.119.442-4.114.823-5.994.818 1.887 1.464 4.147 1.749 8.536.194 2.998-1.489 7.625 2.552 2.285 3.146-4.157 5.278-9.439 3.838-15.337-2.919-11.969 4.404-17.602-.624-24.642" style="fill:#122a89"/></svg>