<svg xmlns="http://www.w3.org/2000/svg" xml:space="preserve" viewBox="0 0 215 220"><path d="M168.535 163.52c-.369-10.211 4.985-57.421.443-78.069-3.044-13.842-5.58-24.483-10.777-32.283-5.92-8.885-13.413-16.278-19.793-20.287-4.546-2.857-17.688-8.331-30.345-4.641-12.657-3.69-25.799 1.784-30.345 4.641-6.379 4.009-13.873 11.401-19.793 20.287-5.197 7.8-7.733 18.442-10.777 32.283-4.542 20.648.812 67.858.443 78.069-.863 23.878-11.525 20.049-8.649 22 3.737 2.534 15.057 1.878 21.275-2.516 10.503-7.421 14.755-14.018 15.198-24.738q.102-2.51.112-4.94c.076-15.105-2.235-28.026-2.463-41.48 6.945-13.17 11.295-30.4 17.322-49.189a76 76 0 0 1 3.542-3.43c.047-.042.095-.071.142-.111-5.972 20.287-10.407 44.827-19.36 52.674-1.918 1.681 1.994 1.968 6.111-4.171 8.307-12.387 11.518-30.6 18.51-50.255q.151.006.302.016c.132 15.872-3.572 28.866-.023 40.479 1.667 5.453 5.278 6.991 4.111 5.152-6.088-9.59-.21-29.119.38-44.893.659.134 1.301.248 1.922.318 1.534 14.683-.135 27.222 4.516 37.749 2.304 5.216 6.074 6.312 4.696 4.626-6.853-8.388-3.968-27.058-4.808-42.414q.134-.019.269-.041c3.787 13.919 6.15 26.429 12.277 35.753 3.674 5.592 7.6 5.621 5.804 4.033-7.417-6.556-10.374-24.154-14.091-40.55.648-.109 1.3-.192 1.951-.222 6.991 19.654 10.202 37.864 18.509 50.25 4.117 6.139 8.029 5.852 6.111 4.171-8.978-7.868-13.412-32.52-19.409-52.84.117.095.237.172.353.277a76 76 0 0 1 3.297 3.172c6.116 19.033 10.492 36.483 17.563 49.751-.256 13.285-2.51 26.074-2.456 40.98.006 1.685.038 3.393.11 5.137.442 10.72 4.695 17.317 15.198 24.738 6.218 4.394 17.537 5.05 21.275 2.516 2.872-1.953-7.79 1.875-8.653-22.002m-95.337-59.448c.289-5.387 1.011-10.928 2.478-16.802 1.305-5.226 3.855-10.548 7.345-15.641-3.176 11.585-6.307 23.084-9.823 32.443m59.636-32.843c3.632 5.213 6.277 10.679 7.617 16.041 1.515 6.064 2.243 11.776 2.511 17.325-3.637-9.557-6.856-21.431-10.128-33.366" style="fill:#122a89"/></svg>