<svg xmlns="http://www.w3.org/2000/svg" xml:space="preserve" viewBox="0 0 215 220"><path d="M169.175 92.6c-1.155-5.401-4.206-9.689-7.857-12.64 3.486 1.137 5.639.754 8.281-.078 1.94-.611 3.518-2.432 1.555-2.579-1.879-.14-3.469-.48-6.763-2.969-1.555-1.175-4.136-2.82-5.878-3.696-9.709-4.881-14.151-5.061-15.111-5.487-1.339-.595 3.806-1.691 1.688-2.32-4.132-1.228-22.06-4.208-23.718-.296-2.885-7.922-14.803-4.154-23.294-4.248-.538-.006-.882.726-.457 1.103 1.107.983 2.014 1.728 2.7 3.016-5.193-2.345-11.515-1.432-18.555-.162-4.048.73-15.7 4.327-19.6 4.596-2.359.163-4.069-1.025-5.531-1.383-1.956-.478.056 3.307.995 4.682.915 1.339 2.531 2.463 3.856 3.396q.267.188.559.374c-3.865 2.342-6.448 5.456-8.606 8.037-2.188 2.617-7.554 10.768-10.535 12.279-.615.312-2.401 1.048-3.014 1.284-.591.227.578 1.204 1.259 1.461 2.112.798 6.331 1.363 9.875-1.159-3.544 6.407-4.129 9.682-4.158 9.951-.491 4.681-5.418 9.793-3.106 9.678.743-.037 4.176-.497 6.242-2.522-3.817 7.293-2.435 16.521-1.631 17.605.255.344 1.667-.416 3.052-2.409-.266 1.616-.573 5.976 2.943 6.935s4.952 4.53 5.405 10.418c.522 6.782 1.479 16.695 5.457 16.695.729 0-.891-9.539.242-23.075.343-4.103-.117-18.702.914-22.688.182 1.435 2.79 4.279 3.754 5.358.465.521.944.077 1.143-.578 0 0-.672-5.024 1.798-10.776 1.006-2.343 4.336-10.746 6.226-12.405a32 32 0 0 0-.411 6.05c.039 1.416 1.065 3.025 1.87 1.646 3.823-6.551 6.733-9.556 10.816-11.652 5.792-2.974 6.871-6.763 6.899-6.701 3.135 6.944 7.57 9.637 8.142 8.695 1.166-1.918 5.686-8.959 7.528-10.235 5.085 1.957 6.185 7.671 8.458 9.812 1.028.968 4.596-4.976 5.113-5.773s2.713 3.305 5.822 7.933c5.861 8.726 3.733 12.816 5.861 12.17 2.711-.823 4.835-4.159 5.498-5.751.319-.766 1.229 2.886 2.035 5.809 1.884 6.832 2.585 11.737 2.495 19.542 5.738 17.377-.289 33.11 2.033 32.985 1.281-.069 3.991-6.88 5.266-17.061.96-7.665 2.166-11.584 3.424-11.84 1.304-.266 4.175-4.848 3.564-9.966 1.226 1.656 6.153 3.328 6.783 2.953.443-.264-.085-1.741-.318-2.306-3.154-7.665-2.855-15.895-3.921-19.319 1.185.646 5.719 3.076 6.706 3.281 1.98.412-1.917-6.897-3.793-15.67" style="fill:#122a89"/></svg>