<svg xmlns="http://www.w3.org/2000/svg" xml:space="preserve" viewBox="0 0 215 220"><path d="M61.318 128.194c-.835.055-1.876.348-2.53.911-4.029 3.472-3.463 9.24-2.49 13.97.67 3.257 1.508 6.664.77 9.987a10.02 10.02 0 0 1-4.833 6.544c-.691.391-.399.712.212.806.843.13 1.949-.323 2.67-.731 2.209-1.249 4.06-3.139 5.085-5.518 1.268-2.943 1.013-6.206.445-9.286-.941-5.105-3.069-12.109 1.553-16.09.661-.568-.588-.613-.882-.593m102.402 31.412a10.02 10.02 0 0 1-4.833-6.544c-.738-3.323.1-6.73.77-9.987.973-4.73 1.539-10.499-2.49-13.97-.654-.564-1.695-.857-2.53-.911-.294-.019-1.543.026-.882.595 4.622 3.982 2.494 10.985 1.553 16.09-.568 3.08-.823 6.343.445 9.286 1.025 2.379 2.876 4.268 5.085 5.518.722.408 1.827.861 2.67.731.611-.095.904-.417.212-.808" style="fill:#122a89"/><path d="M171.144 45.365c-3.849-3.552-3.959-7.368-10.667-7.918-4.91-.402-11.708 3.827-12.421 6.818-.844 3.538-.73 6.71-.227 9.235-.127-.072-.246-.16-.381-.218-.555-.236-1.026-.181-1.352.012-.304.18-.417.651-.332 1.111.052.281.21.654.422 1.006-.179-.114-.355-.232-.551-.315a1.75 1.75 0 0 0-.788-.151c-2.468-2.112-5.04-3.787-7.992-5.811-3.377-2.315-16.598-9.111-28.876-7.369-12.279-1.741-25.501 5.055-28.877 7.37-2.953 2.024-5.524 3.699-7.992 5.811a1.75 1.75 0 0 0-.788.151c-.196.083-.372.201-.551.315.212-.352.369-.724.422-1.006.085-.46-.028-.931-.332-1.111-.326-.193-.798-.248-1.352-.012-.135.057-.254.146-.381.218.503-2.525.616-5.697-.227-9.235-.713-2.991-7.511-7.22-12.421-6.818-6.708.55-6.818 4.365-10.667 7.918-3.61 3.332-1.759 7.41 1.21 11.546 2.565 3.573 7.719 5.254 11.942 4.915.82-.066 1.584-.179 2.305-.321-.111.237-.213.477-.248.665-.085.46.028.931.332 1.111.326.193.797.248 1.352.012.196-.083.372-.201.551-.315-.212.352-.369.725-.422 1.006-.085.46.028.931.332 1.111a1.2 1.2 0 0 0 .403.137c-.09.145-.178.277-.268.426-5.01 8.226-7.044 16.465-7.624 26.717-.697 12.316 2.554 23.269 8.067 31.389l-.043 1.192c-.423 11.51-.852 23.046.416 34.054 1.025 8.897 3.032 15.99 5.494 20.702.804 1.539 2.047 3.254 3.026 2.788.709-.337 1.067-1.529.296-3.004-2.717-5.201-4.605-14.108-5.136-24.524-.115-2.246-.169-4.971-.184-7.984-.046-9.624.331-22.278.585-32.409.486 5.506 1.126 11.226 1.618 17.17.156 1.888 2.235 1.767 3.079-7.32.878-9.458 2.059-18.748 4.123-27.591 2.614.73 7.104-1.23 6.85-4.376-.557-6.916-.076-13.597 1.998-19.424.308-.554.61-1.111.934-1.657-1.984 6.867-2.276 14.364-.99 21.33.569 3.084 9.266.976 8.658-2.32-.821-4.449-.935-9.792-.136-15.058-.323 6.199.299 12.313 1.688 17.136.904 3.137 9.555.796 8.658-2.32-1.454-5.046-2.109-12.48-1.409-19.652.216 7.254 1.462 14.604 2.959 21.095.51 2.214 9.204.05 8.658-2.32-1.555-6.741-2.867-14.434-2.981-21.948 2.102 7.934 3.469 15.961 3.832 24.377.123 2.848 8.805 1.091 8.658-2.32-.281-6.528-1.165-12.822-2.524-19.021 2.883 6.751 4.237 14.096 3.33 21.379-.476 3.817 8.289 2.383 8.701-.923.693-5.559.177-11.168-1.268-16.563 2.98 6.293 4.528 13.181 3.975 19.868-.127 1.54 1.921 1.897 4.053 1.551 2.237 9.191 3.486 18.882 4.402 28.756.844 9.087 2.923 9.208 3.079 7.32.492-5.944 1.132-11.664 1.618-17.17.254 10.131.632 22.784.585 32.408-.014 3.013-.069 5.738-.184 7.984-.531 10.416-2.419 19.323-5.137 24.524-.77 1.475-.412 2.666.296 3.004.979.466 2.222-1.249 3.026-2.788 2.462-4.712 4.469-11.805 5.494-20.702 1.268-11.008.839-22.544.416-34.054l-.043-1.192c5.513-8.12 8.764-19.073 8.067-31.389-.58-10.252-2.614-18.492-7.624-26.717-.09-.148-.178-.281-.268-.426.149-.027.288-.069.403-.137.304-.18.417-.651.332-1.111-.052-.281-.21-.654-.422-1.006.179.114.355.232.551.315.555.236 1.027.181 1.352-.012.304-.18.417-.651.332-1.111-.035-.188-.136-.428-.248-.665.721.142 1.485.255 2.304.321 4.224.34 9.377-1.341 11.942-4.915 2.967-4.135 4.818-8.213 1.208-11.545" style="fill:#122a89"/></svg>