<svg xmlns="http://www.w3.org/2000/svg" xml:space="preserve" viewBox="0 0 215 220"><path d="M171.175 112.824c-.119-2.527-.537-5.045-.943-7.538-.908-5.612-1.618-11.215-3.315-16.667-2.273-7.302-6.185-13.398-12.133-18.264a43.3 43.3 0 0 0-8.055-5.228c-.431-.216-1.021-.642-1.501-.718-.012-.002-.023-.013-.036-.016.636-.287 1.39-.762 1.646-1.205 1.05-1.817-3.157-1.981-4.147-2.091-3.234-.361-6.546-.315-9.786-.058-3.155.25-6.133 1.061-9.116 2.107-1.885.661-3.506 1.55-4.766 2.881-2.642-4.437-7.378-6.935-12.469-8.059-2.57-.568-6.231-1.447-8.809-.726-.774.217-1.751.816-1.655 1.757.046.45.423.783.775 1.079-2.202-.343-4.452-.36-6.723-.181-4.35.343-8.914 1.019-13.081 2.356-6.735 2.161-12.269 6.862-16.996 11.992-5.206 5.651-9.493 12.32-11.467 19.805-1.584 6.008-2.199 12.272-2.875 18.433a21 21 0 0 1-.955 4.38c-.263.794-.916 1.952-.188 2.666 1.017.998 2.45.595 3.762-.182a196 196 0 0 1-.954 5.732c-.261 1.44-.805 3.232-.573 4.714.303 1.94 1.722 1.599 3.117.684.065 1.218.36 2.417 1.085 3.381.68.904 1.537 1.287 2.561 1.686 1.387.541 2.37 1.291 3.116 2.604 1.634 2.876 1.635 6.459 1.919 9.664.278 3.142.603 6.34 1.449 9.389.527 1.9 1.35 4.386 3.339 5.217a3.6 3.6 0 0 0 1.825.238c.725-.102 1.369-.466 1.612-1.232.422-1.326-.041-3.365-.107-4.715-.162-3.35-.255-6.701-.199-10.055.09-5.349.523-10.755 1.385-16.074.571 1.091 1.437 1.695 2.794 1.151 1.416-.568 1.55-1.836 1.846-3.132a82 82 0 0 1 2.109-7.631c.808-2.434 1.687-4.981 3.236-7.058 1.613-2.163 3.949-3.686 6.188-5.126 2.314-1.489 4.646-2.965 7.035-4.33 2.179-1.245 4.752-2.905 7.359-2.649 2.55.25 4.836 1.69 7.415 1.686 2.823-.004 5.361-1.482 7.657-3.03 2.558.979 5.118 1.95 7.685 2.905 2.072.771 4.496 1.321 6.33 2.599 2.554 1.778 3.807 4.915 5.055 7.639 1.522 3.322 3.131 6.623 5.554 9.398a24 24 0 0 0 4.558 4.015 26 26 0 0 0 3.167 1.838c.529.261 1.374.464 1.829.824.904.717 1.043 2.155 1.308 3.203 1.542 6.097 1.853 12.409 1.404 18.664-.229 3.188-1.249 6.764-.883 9.953.1.873.536 1.322 1.096 1.475.88.241 2.071-.264 2.783-1.108 2.423-2.876 3.165-7.812 3.863-11.344.703-3.559 1.006-7.176 1.678-10.74.346-1.836.646-4.182 1.765-5.758.063-.038.114-.069.231-.135.362-.202.694-.392 1.008-.666.705-.615 1.246-1.453 1.679-2.272.86-1.625 1.313-3.373 1.476-5.162a3.55 3.55 0 0 0 1.727.064c1.69-.357 1.932-1.281 1.562-2.798-.545-2.235-.352-4.51-.283-6.763.654.48 1.427.529 2.415-.385.832-.769.66-2.052.612-3.083m-26.126-48.498c-.16-.083-.316-.194-.487-.219.395.057.503.138.487.219m15.612 69.748c-.086.068-.136.085 0 0m6.762-23.157c-.608-.447-2.784.104-2.504 1.093.607 2.147.222 4.191.172 6.376-.029 1.269.021 2.552.201 3.809.022.15.053.58.124.971-.118-.13-.242-.254-.345-.399-.636-.757-2.788-.108-2.695.945.186 2.116-.098 4.224-.918 6.19-.283.678-.614 1.354-1.049 1.95a5 5 0 0 1-.564.672l-.026.028c-.036.02-.076.041-.138.077-1.602.937-2.168 2.193-2.699 3.973-2.116 7.099-1.93 14.659-4.48 21.672.173-1.864.48-3.729.642-5.583.314-3.588.415-7.193.193-10.79a55 55 0 0 0-.79-6.548 49 49 0 0 0-.702-3.225c-.232-.919-.407-2.788-1.061-3.481-.421-.445-1.515-.688-2.078-.949a27 27 0 0 1-2.252-1.172 22.7 22.7 0 0 1-4.284-3.201c-2.007-1.923-3.609-4.212-4.908-6.661-1.965-3.703-3.177-8.365-6.373-11.262-.727-.659-1.554-1.129-2.414-1.542 9.411.756 11.944 15.553 22.448 14.229 1.447-.226 2.855-.879 3.748-1.976-5.081 3.192-10.401-.883-13.585-4.902-3.07-3.79-7.824-8.882-13.225-7.653-1.165-.498-2.389-.886-3.582-1.328q-2.925-1.083-5.842-2.186c-1.538-.582-3.713-2.04-5.412-1.359-1.967.789-3.354 2.586-5.557 2.995a4.2 4.2 0 0 1-1.261.025.75.75 0 0 0-.183-.444c-5.693-7.438-16.56-10.164-24.661-5.067 6.297-2.878 13.325-2.007 18.733 1.725-10.154-3.856-22.816-.548-28.854 8.746 7.347-8.634 20.097-11.151 30.03-6.322-2.218-.44-4.375-.345-6.592.495-3.559 1.348-6.833 3.491-10.04 5.507-3.017 1.896-6.277 3.761-8.627 6.497-2.215 2.578-3.356 5.912-4.376 9.102a83 83 0 0 0-1.565 5.601c-.054-.402-.094-.773-.137-1.046-.195-1.24-.325-2.488-.477-3.733-.136-1.119-2.608-.261-2.807.53-2.881 11.446-3.249 23.301-2.679 35.031.018.371.029.744.047 1.116a9 9 0 0 1-.343-.664c-.502-1.073-.816-2.243-1.083-3.393-.658-2.826-.956-5.735-1.206-8.621-.242-2.785-.346-5.674-1.395-8.304a130.4 130.4 0 0 1 4.095-20.465c-3.421 5.435-5.231 11.949-5.272 18.42a6.9 6.9 0 0 0-1.677-1.585c-1.826-9.014 1.218-18.225 8.13-24.389-8.514 4.044-12.45 15.607-8.584 24.121a9 9 0 0 0-1.208-.59c-2.692-1.025-2.981-3.781-2.593-6.339.205-1.35-2.331-.439-2.721.085-.139.205-.323.369-.479.559.145-.787.185-1.631.319-2.41.531-3.091 1.121-6.162 1.508-9.276.154-1.239-2.109-.55-2.544-.132-.58.558-1.17 1.088-1.795 1.592-.059.048-.089.066-.12.085-.053-.779.752-2.218.927-2.859.445-1.626.568-3.284.75-4.951.595-5.43 1.238-10.943 2.59-16.245 1.709-6.701 5.349-12.78 9.86-17.971 3.721-4.282 8.164-8.619 13.317-11.096 3.725-1.791 7.848-2.459 11.907-3.032 4.298-.607 8.781-.92 12.868.814.688.292 3.091-.133 2.399-1.287-.224-.373-1.687-1.947-2.311-2.81 1.447.025 3.221.463 4.317.66 1.96.353 3.903.877 5.729 1.681 3.591 1.58 6.441 4.202 7.876 7.891.367.944 2.376.445 2.715-.305 2.127-4.702 8.713-5.649 13.371-5.943 3.036-.191 6.2-.226 9.213.259.361.058.731.164 1.098.242-.505.133-1.534.745-1.732 1.234-.548 1.359 2.716 2.202 3.611 2.679a41 41 0 0 1 7.961 5.526c5.173 4.605 8.54 10.159 10.593 16.744 1.699 5.451 2.406 11.055 3.315 16.667.307 1.888.6 3.779.795 5.682l.027.275c-.333-.512-.643-.942-.824-1.075" style="fill:#122a89"/><path d="M109.922 84.796c1.395-5.69-.242-12.29-4.452-16.298 3.105 6.504 4.005 13.197 2.771 20.278a32 32 0 0 0-1.48 6.017c4.072-10.499 10.718-19.314 19.672-26.142-7.089 3.178-13.002 9.112-16.511 16.145m29.545 19.998c5.102 6.224 14.673 8.766 22.186 5.87-8.016.302-15.372-1.634-22.186-5.87m-87.689 8.208c2.27-11.203 7.056-21.285 14.276-30.145-9.002 7.021-14.539 18.734-14.276 30.145" style="fill:#122a89"/><path d="M58.087 105.218c2.454-9.276 7.572-17.1 15.066-23.089-8.866 3.738-15.207 13.472-15.066 23.089m80.791-27.257c10.533 7.615 19.016 17.141 25.389 28.467-4.045-12.326-13.61-23.036-25.389-28.467m5.259-3.556c5.837 5.759 10.826 11.648 15.571 18.335-2.505-7.775-8.311-14.597-15.571-18.335m-65.929 1.093c7.326-3.168 15.016-3.483 22.57-.898-6.337-4.98-16.652-4.579-22.57.898m7.176-7.891c5.844-1.455 11.279-.901 16.722 1.674-3.833-4.782-12.016-5.592-16.722-1.674" style="fill:#122a89"/></svg>