<svg xmlns="http://www.w3.org/2000/svg" xml:space="preserve" viewBox="0 0 215 220"><path d="M181.058 154.396a10.14 10.14 0 0 0-.677-8.336c.207-1.694.038-3.361-.513-4.871l-.004-.098c.579-1.438.804-2.996.589-4.528.322-.557.61-1.146.815-1.805 1.031-3.333.495-6.001-.921-7.975a10.54 10.54 0 0 0-.831-5.988c.27-.832.385-1.729.346-2.626a10.3 10.3 0 0 0-1.485-7.363 7.5 7.5 0 0 0-.336-2.973c1.897-2.767 2.093-7.672-1.062-9.298a11 11 0 0 0-1.048-.47c1.883-3.47 1.357-8.268-.707-11.414 1.724-2.957.717-8.561-2.545-9.882-.238-.096-.481-.161-.722-.229.143-1.36-.031-2.788-.59-4.016-1.155-2.534-2.925-3.908-4.844-4.089l-.712-1.331c.069-.775.018-1.556-.228-2.283l-.197-.586c-.384-1.137-.894-2.024-1.525-2.687 1.146-4.322.132-9.267-4.355-11.762l-.004-.035c-1.108-6.27-6.376-9.023-11.831-8.875-.991-5.892-6.605-10.758-13.34-9.146-1.967-2.972-5.408-4.637-8.87-4.9a12.2 12.2 0 0 0-3.71-.228c-2.693-1.635-5.822-2.517-8.841-1.948-2.895.075-5.499 1.497-7.347 3.666-3.132-2.33-6.87-3.523-10.763-2.624a13 13 0 0 0-2.29.162c-4.027.685-7.017 2.93-8.883 5.897-2.792-.433-5.759.243-8.245 2.527-.026.024-.043.051-.069.075a12 12 0 0 0-.602.394 13.03 13.03 0 0 0-8.724 6.238c-4.565.592-8.579 3.382-9.53 8.76l-.004.035c-4.488 2.495-5.501 7.44-4.355 11.762-.632.663-1.141 1.55-1.525 2.687l-.197.586c-.246.727-.297 1.508-.228 2.283l-.712 1.331c-1.918.181-3.689 1.555-4.844 4.089-.56 1.228-.734 2.656-.59 4.016-.242.068-.484.133-.722.229-3.263 1.321-4.269 6.925-2.545 9.882-2.064 3.147-2.59 7.944-.707 11.414-.344.135-.691.286-1.048.47-3.155 1.626-2.959 6.531-1.062 9.298a7.4 7.4 0 0 0-.336 2.973 10.3 10.3 0 0 0-1.485 7.363 7.5 7.5 0 0 0 .346 2.626 10.54 10.54 0 0 0-.831 5.988c-1.416 1.974-1.952 4.642-.922 7.975a8.7 8.7 0 0 0 .815 1.805c-.215 1.532.011 3.09.589 4.528l-.004.098c-.551 1.51-.72 3.177-.513 4.871a10.14 10.14 0 0 0-.677 8.336c-1.735 3.703-1.359 8.434 1.398 11.772-.514 3.807 1.109 7.771 3.985 10.467.925 3.044 3.025 5.292 5.42 6.296 2.419 5.713 8.317 9.202 12.826 4.141.68.428 1.411.774 2.189 1.007.276.113.559.216.851.299 1.073.307 2.158.238 3.168-.076 2.576-.454 4.587-2.077 5.682-4.185 1.872-.854 3.3-2.419 4.113-4.269a10.33 10.33 0 0 0 3.788-4.896c3.132-4.907 1.437-10.713-2.462-14.702.108-.209.207-.422.308-.634 2.317-4.879 2.54-10.437-1.763-14.93a10.7 10.7 0 0 0-2.357-1.854c-.057-.048-.11-.099-.168-.146a12.7 12.7 0 0 0-.961-3.393c.332-.773.582-1.545.736-2.316 1.468-2.279 1.792-5.373.484-8.153-.954-2.026-2.222-3.321-3.625-4.034-.021-.032-.034-.069-.057-.101 1.004-1.151 1.626-2.663 1.626-4.225 0-1.576-.215-2.809-.671-3.865.027-.052.064-.1.089-.153l.599-1.277c.861-1.836.895-3.567.265-5.187a4.7 4.7 0 0 0 .467-2.855 9.5 9.5 0 0 0-1.001-3.069c3.13-2.132 3.202-6.992.714-9.518.628-1.379.762-2.983.416-4.448.682-1.45.884-3.142.421-4.726a8.1 8.1 0 0 0 2.291-3.962 5.4 5.4 0 0 0 1.289-2.796c2.242.002 4.479-.759 6.364-2.046q.538.01 1.09-.046c3.165 3.148 7.888 4.516 12.169 3.819 2.69-.15 5.011-1.107 6.853-2.641 3.042.723 6.696-.493 8.219-3.462 4.974 7.605 15.267 6.084 20.118.763a11.3 11.3 0 0 0 2.696 1.859c1.456.73 2.82 1.044 4.095 1.081 1.589.438 3.238.533 4.82.308a6.7 6.7 0 0 0 .962 3.386 8.1 8.1 0 0 0 2.235 3.736c-.463 1.584-.261 3.276.421 4.726-.346 1.465-.212 3.069.416 4.448-2.488 2.527-2.416 7.386.714 9.518a9.4 9.4 0 0 0-1.001 3.069 4.7 4.7 0 0 0 .467 2.855c-.631 1.62-.596 3.352.265 5.187l.599 1.277c.025.053.062.101.089.153-.456 1.055-.671 2.289-.671 3.865 0 1.561.622 3.073 1.626 4.225-.022.031-.035.069-.057.101-1.403.713-2.671 2.008-3.625 4.034-1.309 2.78-.984 5.874.484 8.153.154.77.404 1.542.736 2.316a12.7 12.7 0 0 0-.961 3.393c-.058.047-.111.098-.168.146-.84.489-1.636 1.1-2.357 1.854-4.302 4.493-4.08 10.05-1.763 14.93.101.212.2.425.308.634-3.899 3.989-5.594 9.795-2.462 14.702a10.33 10.33 0 0 0 3.788 4.896c.814 1.851 2.241 3.415 4.113 4.269 1.094 2.108 3.105 3.731 5.682 4.185 1.009.315 2.095.383 3.168.076.292-.084.575-.187.851-.299a9 9 0 0 0 2.189-1.007c4.509 5.061 10.407 1.572 12.826-4.141 2.395-1.005 4.495-3.252 5.42-6.296 2.876-2.696 4.499-6.66 3.985-10.467 2.754-3.335 3.13-8.066 1.395-11.769" style="fill:#122a89"/></svg>