<svg xmlns="http://www.w3.org/2000/svg" xml:space="preserve" viewBox="0 0 215 220"><path d="M170.472 105.871c-1.794-2.861-5.072-5.134-7.971-5.859.986-1.398 5.274-1.111 6.507-.626 2.705 1.065.013-2.917-7.451-5.974.147-.839.238-1.682.283-2.527 1.743.243 3.029.708 2.632.125-.705-1.033-1.663-2.045-2.718-2.997-.266-2.562-1.078-5.051-2.703-7.26-2.856-3.883-7.302-4.615-11.957-4.058.15-1.536-.464-2.854.677-4.039.753-.782 3.148-1.399 2.722-1.794s-4.671-1.065-6.893-.89c-3.509.277-8.27 2.162-10.302 4.279-7-8.081-4.17-5.878-6.003-3.311-1.667 2.334-3.475 1.814-5.213 2.72-.781-1.675-.791-5.796-2.813-4.698-7.27 3.946.224-2.691-5.108-2.056-3.184.379-6.206 1.663-8.808 3.17-3.932-1.863-8.357-2.571-12.644-.984-2.357.873-3.981 2.422-5.13 4.337-.896-2.64 1.373-6.441-4.918.822-2.033-2.117-8.687-1.051-12.196-1.328-2.222-.175-5.102-2.765-5.529-2.371s.747 4.157 1.357 5.054c1.946 2.863 2.602 3.358 3.793 3.688-1.723.519-6.166 2.882-7.878 3.507-2.23.813-8.132 4.412-10.722 8.209-.767 1.124 4.708-1.654 7.697.788-11.048 2.958-15.455 8.857-12.233 7.588 1.233-.486 5.52-.772 6.507.626-2.899.726-6.177 2.999-7.971 5.859-3.027 4.827-2.722 6.002 1.067 3.16.857-.643 1.649-.913 2.406-.975a22 22 0 0 0-1.842 2.721c-4.346 7.681-3.306 14.36-.087 19.019.682.987.858-1.435 1.245-4.353.244-1.842.436-3.305.655-4.626.069.553.164 1.11.315 1.68 1.182 4.436 3.987 7.809 7.502 10.235l-.03.038c-.761 1.075-1.008 3.22-.469 4.359.363.768.911 1.068 1.471.883-.283.392-.57.774-.841 1.199-.635.994-.809 2.928-.326 3.93.188.391.427.64.688.745-.27.748-.326 1.743-.059 2.33.351.773 2.356 8.958 5.185 6.445a8.7 8.7 0 0 0 1.378-1.604c2.606-3.821 3.169-9.925 3.235-10.798.091-1.191-.279-1.904-.858-2.033-.768-.171-1.561-.141-2.358.046a7 7 0 0 0-1.572.601c.383-.336.814-.666 1.358-.924.071-.034.15-.058.224-.088 1.524-.632 3.518-.581 4.366-.413.745.147 1.591-1.411 1.665-2.798.087-1.636-.441-2.602-1.24-2.76-1.5-.296-3.055-.072-4.591.603-.591.259-1.177.604-1.758.994l-.115-.136c.47-.467 1.1-.967 1.903-1.385.171-.089.315-.194.503-.271 1.815-.741 4.32-.572 5.35-.332.864.2 1.882-1.493 2-3.033.139-1.817-.454-2.919-1.379-3.134-1.587-.368-3.237-.229-4.883.307 2.133-1.099 5.412-1.504 6.816-1.511 1.182-.006 1.994-1.837 1.681-3.319-.368-1.749-1.471-2.656-2.738-2.65-.426.002-.843.067-1.264.104 2.4-.779 5.158-1.09 6.511-1.096.326-.002.624-.129.894-.326.469 3.358 2.058 6.532 4.152 9.204.718.916.39-1.042.13-3.372-.538-4.825-.811-6.589.282-10.44a8.4 8.4 0 0 1 1.213-2.585c1.641.266 3.278.166 4.813-.365 1.551.069 3.106-.804 3.876-1.924.312-.454 5.612 3.757 8.715-1.395.702.406 4.824 4.156 9.996 1.309 1.168 1.163 5.032 1.681 7.134 1.593 3.69-.155 5.536-.983 6.768-1.476 2.75 2.326 6.278 2.98 9.685 1.878.483 1.473 1.614 2.669 2.794 2.475.21-.035.464-.067.733-.098a5.4 5.4 0 0 0-.5 1.424c-.385 1.831.617 4.091 2.076 4.098.292.002.666.023 1.071.054.269 2.535-.016 4.841-.465 8.865-.321 2.877-.726 5.295.16 4.163 1.46-1.863 2.716-3.926 3.644-6.112 1.496.041 4.559.453 6.596 1.503-1.646-.535-3.296-.675-4.883-.307-.925.215-1.518 1.317-1.379 3.134.118 1.54 1.137 3.233 2 3.033 1.03-.239 3.535-.408 5.35.332.187.076.332.182.503.271 1.345.701 2.195 1.677 2.66 2.162-.862-.682-1.741-1.244-2.63-1.634-1.536-.674-3.091-.898-4.591-.603-.799.158-1.328 1.124-1.24 2.76.074 1.387.92 2.945 1.665 2.798.848-.167 2.842-.218 4.367.413.074.031.152.055.224.088.544.258.975.588 1.358.924a7 7 0 0 0-1.572-.601c-.797-.188-1.59-.217-2.358-.046-.58.129-.949.842-.858 2.033.067.873.629 6.977 3.235 10.798a8.7 8.7 0 0 0 1.378 1.604c2.829 2.513 4.833-5.672 5.185-6.445.267-.587.211-1.582-.059-2.33.26-.105.499-.354.688-.745.483-1.002.308-2.936-.326-3.93-.271-.425-.558-.806-.841-1.199.56.185 1.107-.116 1.471-.883.539-1.139.292-3.284-.469-4.359l-.034-.043c.09-.065.181-.126.269-.206 1.044-.955 1.371-3.038.708-4.227-.234-.419-.502-.799-.756-1.197.956-1.298 1.191-3.457.467-4.755a31 31 0 0 0-1.026-1.693c.605-.155 1.19-.545 1.684-1.178.412-.529.666-1.224.789-1.962 1.134 4.307.817 6.577.184 12.249-.321 2.877-.726 5.295.16 4.163 3.384-4.318 5.714-9.697 5.246-15.262.293.801.598 1.65.95 2.634.993 2.77 1.677 5.101 2.135 3.992 2.017-4.877 1.808-11.07-2.979-17.226.746.069 1.526.339 2.368.971 3.783 2.84 4.088 1.666 1.062-3.161M56.948 111.69c.024.023.045.056.07.077q-.478.513-.939 1.054c.274-.375.569-.755.869-1.131m-.886 10.653c-.327.587-.451 1.351-.409 2.132a27 27 0 0 1-1.096-2.889c-.697-2.18-.751-4.187-.001-6.27.05-.139.144-.318.235-.493-.485 1.512-.299 3.477.613 4.649.493.633 1.079 1.023 1.684 1.178-.355.55-.701 1.111-1.026 1.693m34.044-43.245q-.16-.585-.332-1.126c.25-.733.508-1.364.738-1.704 1.039-1.534 2.435-2.475 4.277-3.054.332-.104.631-.184.937-.269-1.73 1.573-3.738 3.723-5.62 6.153m6.993-2.573c1.3-1.847 2.14-3.229 2.625-4.229.685-.024 1.41-.005 2.194.037-2.954 2.188-4.819 4.192-4.819 4.192m48.23 41.555.011-.118q.266.078.528.163c-.179-.017-.358-.036-.539-.045m8.421-35.28c-1.119-.408-3.394-1.552-5.323-2.445 1.29-.003 2.525.073 3.12.268 1.644.537 2.868 1.535 3.891 2.972-.658-.348-1.256-.637-1.688-.795m3.024 8.997c.538-.439 1.157-.705 1.805-.859q.15.693.311 1.489a42 42 0 0 0-2.116-.63" style="fill:#122a89"/></svg>