<svg xmlns="http://www.w3.org/2000/svg" xml:space="preserve" viewBox="0 0 215 220"><path d="M171.353 106.56c-2.427-14.266-6.155-23.195-11.165-31.421-5.707-9.37-12.752-16.908-21.664-21.274-3.582-1.754-16.72-7.176-28.874-5.576-15.895-4.612-28.269 4.132-31.829 6.573C71.365 59.287 62.86 68.26 57.153 77.63c-5.01 8.226-9.735 20.642-12.162 34.908-3.62 21.282.846 36.285 6.246 45.959 6.433 11.525 9.836 12.254 9.836 7.121 0 0 8.464 14.417 6.549 3.042-3.457-20.531-9.346-28.733-3.871-45.126 1.257-3.762 3.111-7.955 5.732-12.828 2.058-3.826 4.774-8.51 7.705-13.179-.572 3.814-.191 6.052.368 5.684 1.082-1.156 2.322-2.071 4.24-3.685 1.445-1.216 7.08-5.526 5.854-3.558-.726 1.165-1.295 6.12.544 3.572 2.493-3.453 4.018-5.725 9.895-7.638-1.163 4.315-3.852 8.175-7.738 11.015-1.221.893 3.509-.235 4.88-.969 7.514-4.023 10.656-6.458 15.503-12.94-.886 4.052-3.223 7.753-6.832 10.489-1.207.915 2.792.5 4.183-.203 4.393-2.223 5.425-3.216 7.883-7.084l-.188 8.892c-.024 1.155 2.674-1.104 3.321-2.282 2.371-4.312 8.166-6.344 10.61-10.361 0 0-.014 1.465-.115 3.749-.101 2.285-2.744 3.607-1.754 3.811 2.159.445 6.684-2.352 9.424-5.711 6.143 6.051 10.45 9.434 13.267 15.885a29 29 0 0 1 1.692 5.143c.004.759.011 1.51.005 2.285-.094 12.136.414 20.273-2.007 35.53-.794 5.004-1.914 8.984-3.373 12.395 1.433 3.868 2.296 7.078 2.96 8.637 1.403 3.297 6.186-7.426 6.186-7.426 4.236 5.679 3.926 3.465 7.88-5.171 5.476-11.953 11.097-29.744 7.477-51.026" style="fill:#122a89"/></svg>