<svg xmlns="http://www.w3.org/2000/svg" xml:space="preserve" viewBox="0 0 215 220"><path d="M180.806 118.965c-5.056-4.928-8.555-11.216-9.05-15.409-.732-6.198 1.741-24.298-8.114-41.848-.004-.007-.011-.005-.015-.011a60 60 0 0 0-4.688-7.62c-4.587-6.351-9.95-11.286-15.42-14.837-2.173-1.411-10.939-6.084-23.883-6.945-6.025 0-9.57.942-11.659 2.372-2.089-1.431-5.634-2.372-11.659-2.372-12.944.861-21.709 5.534-23.883 6.945-5.47 3.551-10.833 8.487-15.42 14.837a60 60 0 0 0-4.688 7.62c-.004.007-.011.004-.015.011-9.855 17.55-7.382 35.65-8.114 41.848-.495 4.193-3.995 10.482-9.05 15.409-1.985 1.935-2.962 3.718 3.032 1.557 4.339-1.564 7.141-2.523 10.235-6.258.422 8.828-4.473 13.514-3.385 13.415 4.086-.371 6.58-2.551 8.172-5.33.465 4.722 1.614 9.513 2.36 14.111.111.685.205 1.4.29 2.127-1.193 2.807-.903 5.806.102 8.872-.612 5.499-2.714 10.612-7.709 12.921-1.335.617.338 1.614.978 1.879 1.287.533 3.221.8 4.518.2a13.2 13.2 0 0 0 3.29-2.183c-1.182 3.713-.523 7.973 3.802 12.624.604.649 1.625 1.468 2.701 2.118-1.187 2.051-3.298 3.727-6.749 4.681-1.681.465.753 1.329 1.662 1.564 1.829.473 4.434.559 6.112.297 9.656-1.51 10.296-11.327 7.446-18.332-.83-2.041-1.971-4.156-3.134-6.298.147-.151.295-.306.441-.453.425-.43.821-.871 1.227-1.309-1.279-2.382-2.352-5.03-3.232-8.126a45 45 0 0 1-2.098 2.452c-1.539-3.933-2.015-7.763.301-11.2-.088-.584-.175-1.167-.255-1.731-.828-.349-2.117-.654-3.433-.834-.479-2.732-1.08-5.527-1.562-8.325 1.106 1.48 2.516 2.768 4.322 3.72.081.043.148.096.23.138 2.501 1.253 2.01.254.329-2.943-2.395-4.554-.271-11.49 1.091-13.298 0 0 .564 2.068.359 6.49-.075 1.606-.479 5.666 1.379 2.662 4.523-7.313 2.94-10.369 2.94-20.425 0-9.447 7.011-27.89 17.329-36.994 6.846-6.041 15.636-6.781 19.993-10.051 3.617 1.859 9.18 2.22 10.622 10.44 4.041 23.042 9.386 33.869 15.292 37.126 12.843 7.083 9.32 12.592 13.844 19.904 1.858 3.004 1.453-1.056 1.379-2.662-.205-4.422.359-6.49.359-6.49 1.362 1.809 3.486 8.745 1.091 13.298-1.682 3.197-2.173 4.197.329 2.943.082-.041.149-.095.23-.138 1.806-.953 3.216-2.24 4.322-3.72-.481 2.797-1.083 5.593-1.562 8.325-1.317.18-2.605.485-3.433.834-.079.564-.167 1.147-.255 1.731 2.316 3.437 1.84 7.267.301 11.2a45 45 0 0 1-2.098-2.452c-.88 3.097-1.953 5.744-3.232 8.126.405.437.802.878 1.227 1.309.145.147.294.302.441.453-1.163 2.142-2.304 4.257-3.134 6.298-2.849 7.005-2.21 16.822 7.446 18.332 1.678.262 4.282.176 6.112-.297.909-.235 3.342-1.099 1.662-1.564-3.451-.954-5.562-2.63-6.749-4.681 1.075-.65 2.097-1.468 2.701-2.118 4.326-4.651 4.985-8.911 3.802-12.624a13.2 13.2 0 0 0 3.29 2.183c1.297.6 3.231.333 4.518-.2.64-.265 2.313-1.262.978-1.879-4.995-2.309-7.097-7.422-7.709-12.921 1.005-3.066 1.295-6.065.102-8.872.085-.727.179-1.442.29-2.127.745-4.599 1.895-9.389 2.36-14.111 1.592 2.779 4.086 4.959 8.172 5.33 1.088.099-3.807-4.587-3.385-13.415 3.094 3.735 5.896 4.694 10.235 6.258 5.988 2.161 5.011.378 3.026-1.557M63.741 164.131c.917 2.778 1.355 5.711.778 8.325-1.787-3.02-1.736-5.805-.778-8.325m87.695 8.325c-.577-2.614-.139-5.546.778-8.325.959 2.52 1.01 5.305-.778 8.325" style="fill:#122a89"/></svg>