<svg xmlns="http://www.w3.org/2000/svg" xml:space="preserve" viewBox="0 0 215 220"><path d="M174.779 121.877c-2.736-6.232-2.91-12.267-3.234-26.927-.33-14.92-3.784-29.778-12.604-42.874-9.147-13.579-15.35-20.594-31.77-23.196-5.444-.863-13.191-1.044-19.72.484-10.022-2.745-24.914-.78-39.195 14.141-2.884 2.62-5.474 5.658-7.426 9.099-2.894 4.173-6.335 10.29-8.813 18.068-2.123 5.684-4.018 12.623-6.283 23.534-3.1 14.934-11.735 20.547-6.951 30.791.661 1.416 1.48 2.417 2.317 3.11-.732 1.922-1.65 5.462-2.738 8.804-2.335 7.171-3.329 15.029.745 21.664.292.476.596.926.908 1.36-.382 1.419-.705 2.851-.844 4.329-.322 3.416.492 6.821 2.878 9.366 2.135 2.277 5.291 3.52 8.468 3.97a2.7 2.7 0 0 0 1.654-.27c.238 6.284-8.22 7.646-5.425 8.31 5.589 1.326 9.901.957 13.436-.365-2.675 2.036-3.822 2.616-8.034 3.816-2.265.645-4.484 1.011-3.551 1.42 4.406 1.931 15.442 1.894 20.898-1.781 4.783-3.222 7.587-9.424 6.648-17.258a24 24 0 0 1 2.051-1.724c2.637-1.947 4.596-3.809 6.05-5.593a76 76 0 0 1-5.187-4.951c-6.875-7.211-11.215-13.313-13.306-26.487-2.421-15.257-1.913-23.393-2.007-35.53-.004-.452.003-.887.003-1.333 2.4-2.113 4.559-4.239 6.179-6.587 5.653-8.191 5.923-17.223 10.085-21.773 4.453-4.867 10.392-8.219 15.404-8.584 5.001-.364 9.156.662 11.801.956.021.008.044.024.065.032 3.618 1.324 9.974-.378 13.741.503 7.37 1.723 11.566 10.008 13.997 17.323 8.135 24.484 9.734 34.932 16.779 41.81-.288 3.887-.764 8.142-1.564 13.183-2.091 13.174-6.431 19.276-13.306 26.487a75 75 0 0 1-5.187 4.951c1.454 1.784 3.412 3.645 6.05 5.593a24 24 0 0 1 2.051 1.724c-.94 7.834 1.865 14.036 6.648 17.258 5.455 3.675 16.492 3.712 20.898 1.781.934-.409-1.286-.775-3.551-1.42-4.213-1.2-5.36-1.78-8.034-3.816 3.535 1.322 7.847 1.691 13.436.365 2.796-.663-5.663-2.026-5.425-8.31.462.242 1.017.36 1.655.27 3.177-.45 6.333-1.693 8.468-3.97 2.386-2.545 3.2-5.95 2.878-9.366-.139-1.479-.462-2.91-.844-4.329q.468-.648.908-1.36c4.075-6.635 3.081-14.493.745-21.664-.909-2.791-1.699-5.718-2.361-7.729a22 22 0 0 0 4.393-.564c1.998-.46-2.778-1.96-4.877-6.741M41.95 153.475a14.2 14.2 0 0 1-1.484-5.218c-.07-.776.046-2.172.246-3.676.424 2.263 1.053 4.355 1.854 6.185a24 24 0 0 1-.616 2.709m4.753-40.606c.451-.714.928-1.4 1.419-2.069-.85 3.014-2.17 6.321-3.966 10.032.261-3.11 1.325-6.03 2.547-7.963m2.602 49.11c-1.457-1.089-2.614-2.088-3.747-3.357.214-.694.436-1.391.654-2.09 1.673 2.37 2.615 4.115 3.093 5.447m-4.185 7.367c-.928-1.525-1.071-3.323-.88-5.11a17.1 17.1 0 0 0 4.724 2.444c-.49 1.068-.753 2.18.939 4.717.299.449.554.878.788 1.298-2.243-.461-4.394-1.416-5.571-3.349m124.648-12.814c.218.699.44 1.396.654 2.09-1.133 1.269-2.289 2.268-3.747 3.357.479-1.332 1.421-3.077 3.093-5.447m1.092 12.814c-1.177 1.934-3.327 2.888-5.57 3.349.234-.42.489-.849.788-1.298 1.692-2.537 1.429-3.649.939-4.717a17.1 17.1 0 0 0 4.724-2.444c.19 1.787.047 3.585-.881 5.11m4.409-24.764c.2 1.504.316 2.899.246 3.676a14.2 14.2 0 0 1-1.484 5.218 24 24 0 0 1-.615-2.708c.799-1.831 1.428-3.923 1.853-6.186" style="fill:#122a89"/></svg>