<svg xmlns="http://www.w3.org/2000/svg" xml:space="preserve" viewBox="0 0 215 220"><path d="m159.623 83.708-.011-.007c-1.089-1.465-2.308-2.748-3.698-3.743-2.33-1.667-8.936-6.685-13.214-9.797-7.269-5.288-21.016-6.729-28.525-5.262-14.687 2.868-14.554-1.134-27.57.96-7.573 1.218-9.922 4.151-14.458 7.598-2.761 2.098-7.322 4.239-11.498 6.731-2.25 1.343-3.817 3.111-5.02 5.223-7.135 9.245-9.938 17.548-9.785 24.799.119 5.627.755 7.469 3.781 11.4 3.887 5.049 4.024 3.019 3.393.32a38 38 0 0 1-.797-4.881 129 129 0 0 0 2.419 5.448c1.26 2.687 4.986 18.365 4.851 23.717-.036 1.42 1.073 11.508 3.675 9.042.026-.025.268-2.198.603-5.278.746-6.871 1.954-18.265 2.258-20.462.213-1.539.633-2.873 1.16-4.119.384 2.471 1.075 5.105 2.202 7.947 1.075 2.713 3.766 5.863 5.889 7.687 1.055.907 4.1 3.043 2.994.253-6.956-17.545 3.751-27.061 13.172-31.087 7.442-3.18 16.276-5.24 21.856-11.035 4.37 7.27 11.772 9.524 18.091 12.923 6.548 3.522 14.7 11.203 12.814 23.879-.3 2.016 1.323.595 1.861-.021 1.083-1.24 2.335-3.436 2.627-5.396.348-2.341.401-4.528.214-6.563.221.525.329.839.329.839 2.477 9.618 1.712 24.165 2.923 28.989.276 1.098.653 1.695 1.195 1.613 2.176-.331.524-3.489 3.631-9.361.79-1.493 1.527-17.046 3.515-20.15 1.706-2.663 2.962-5.783 3.89-8.94a38 38 0 0 1-.807 4.959c-.631 2.699-.494 4.728 3.393-.32 3.026-3.93 3.662-5.773 3.781-11.4.165-7.697-2.996-16.574-11.134-26.505" style="fill:#122a89"/></svg>