<svg xmlns="http://www.w3.org/2000/svg" xml:space="preserve" viewBox="0 0 215 220"><path d="M160.795 173.359c4.752-8.134-1.227-21.772 2.765-29.357 10.064-19.125-2.258-25.242 1.227-38.519.487-1.856.513-4.249.226-6.959.902-3.262.811-6.857-.008-9.126 2.571-5.285 2.364-10.563.253-14.419-.586-1.071-1.167-1.901-1.716-2.535.234-2.126.246-4.173.009-5.951-.753-5.657-3.374-9.704-7.978-11.652-.533-.226-1-.396-1.437-.542-.667-3.277-2.068-5.929-4.801-8.283-1.241-1.07-4.421-2.083-6.163-1.538-4.279-8.321-8.669-9.43-15.611-7.49-2.024-2.006-4.786-3.259-7.698-3.21a8.8 8.8 0 0 0-3.449.763c-1.441-2.005-3.673-3.342-6.352-3.342-3.005 0-5.938 1.949-7.308 4.689-.27.057-.533.154-.797.241a8.77 8.77 0 0 0-5.865-2.351c-2.912-.048-5.674 1.205-7.698 3.21-6.941-1.941-11.331-.832-15.611 7.49-1.742-.545-4.922.469-6.163 1.538-2.732 2.355-4.133 5.006-4.801 8.283-.437.146-.904.316-1.437.542-4.604 1.948-7.225 5.994-7.978 11.652-.237 1.778-.224 3.826.009 5.951-.549.634-1.131 1.465-1.716 2.535-2.11 3.857-2.317 9.135.253 14.419-.819 2.269-.91 5.864-.008 9.126-.288 2.711-.262 5.103.226 6.959 3.485 13.276-8.837 19.394 1.227 38.519 3.992 7.585-5.489 21.223-.737 29.357 6.191 10.597-4.426 13.48-.742 14.255 21.461 4.514 35.045-4.448 35.329-16.718a74 74 0 0 1-7.204-6.632c-6.875-7.211-11.215-13.313-13.306-26.487-2.239-14.107-1.973-22.132-1.995-32.855l.015-.094c.951-4.766 2.074-9.135 2.698-11.489.656-2.394 1.516-5.33 2.865-9.223 3.915-1.324 9.69-4.547 5.799-8.194a11 11 0 0 1-2.99-4.733c.16.261.311.525.482.781 3.915 5.846 12.34 2.214 11.265-4.531 2.57.223 4.988-1.394 6.094-3.649 1.776.327 3.638-.122 5.032-1.662a7 7 0 0 0 1.575-.852c2.654 1.584 5.991 1.943 8.611.255 1.434 1.545 3.419 2.526 5.72 2.526 2.725 0 5.397-1.601 6.896-3.942.062-.032.116-.072.177-.105a7.2 7.2 0 0 0 2.976 2.118c1.394 1.539 3.256 1.989 5.032 1.662 1.106 2.255 3.523 3.872 6.094 3.649-1.076 6.744 7.349 10.377 11.265 4.531.171-.256.322-.52.482-.781a11 11 0 0 1-2.99 4.733c-3.891 3.647 1.884 6.87 5.799 8.194 1.35 3.896 2.21 6.833 2.866 9.228.624 2.354 1.746 6.721 2.697 11.483.006.028.01.065.015.094-.022 10.723.244 18.748-1.995 32.855-2.091 13.174-6.431 19.276-13.306 26.487a74 74 0 0 1-7.203 6.632c.284 12.27 13.868 21.232 35.329 16.718 3.682-.773-10.436-3.656-4.245-14.254m2.011-96.75c.437 2.615-.523 4.85-1.45 6.247-.109-.344-.214-.686-.325-1.029a30 30 0 0 0 1.775-5.218M54.599 82.855c-.927-1.397-1.887-3.632-1.45-6.247a30 30 0 0 0 1.775 5.217c-.111.345-.216.687-.325 1.03m6.683-21.884c-.635.695-1.332 1.888-2.027 3.393-.268-1.676.019-3.815 2.09-5.969a52 52 0 0 0-.063 2.576m95.418 3.393c-.694-1.505-1.392-2.698-2.027-3.393a52 52 0 0 0-.063-2.576c2.071 2.153 2.359 4.292 2.09 5.969" style="fill:#122a89"/></svg>