<svg xmlns="http://www.w3.org/2000/svg" xml:space="preserve" viewBox="0 0 215 220"><path d="M172.059 90.382c-14.557-20.796-.197-26.987-18.534-39.616-7.991-5.503-8.109-13.264-29.364-17.144-14.739-2.691-31.098-6.594-39.948 4.708-2.415.197-5.279 1.474-8.573 3.311-25.905 14.453-17.951 25.158-27.913 42.302-10.114 17.405 7.881 21.43-.507 45.332-6.764 19.274 3.055 31.821 3.326 27.044.249-4.384.953-8.543 1.785-12.172.057.111.106.217.165.329 3.992 7.585-5.489 21.223-.737 29.357 6.191 10.597-4.426 13.48-.742 14.255 21.461 4.514 35.045-4.448 35.329-16.718a74 74 0 0 1-7.204-6.632c-4.576-4.8-8.023-9.119-10.437-15.349.201-2.179-2.336-12.239 2.285-31.581C75.405 99.33 78.486 94.15 85.8 83.553a73 73 0 0 0 2.139-3.301c.052.449.143.809.29 1.029 8.602 12.846 18.583 20.529 29.766 25.401 9.03 3.934 20.906 10.373 20.708 32.522-.027 2.994.866 2.621 1.879.433 1.226-2.649 1.975-7.623 2.002-10.625.087-9.706-1.689-16.974-4.502-22.465 2.177 3.054 3.855 6.454 4.884 10.327 5.829 21.935 1.838 31.908 3.049 32.291 1.421.449 2.491-3.245 3.001-5.504 1.598-7.078 1.794-22.981 1.794-22.981s.178 3.451.752 8.071c-.29 2.886-.686 6.001-1.241 9.502-2.091 13.174-6.431 19.276-13.306 26.487a74 74 0 0 1-7.203 6.632c.284 12.27 13.868 21.232 35.329 16.718 3.684-.775-10.435-3.658-4.244-14.255 4.709-8.061-1.107-21.52 2.673-29.143.859 3.497 1.582 7.438 1.881 11.561.348 4.809 5.794-6.581 3.272-27.067-1.693-13.743 13.066-24.903 3.336-38.804" style="fill:#122a89"/></svg>