<svg xmlns="http://www.w3.org/2000/svg" xml:space="preserve" viewBox="0 0 215 220"><path d="M162.295 136.522c-3.21-1.912-6.854-2.742-10.535-3.248-.295 3.167-.722 6.61-1.343 10.527-.706 4.449-1.675 8.08-2.906 11.231.053.047.1.103.153.149.483.42.987.777 1.505 1.093-.57 2.194-1.188 4.373-1.532 6.443-.938 5.652-.135 12.358 6.288 14.317 1.006.307 2.531.004 3.554-.429.509-.215 1.846-.979.811-1.294-6.504-1.984-6.441-9.679-5.202-15.17.175-.775.372-1.561.575-2.352.35.037.705.034 1.059.041 2.321 4.234 4.161 9.762 2.062 14.026-.4.812.589.822.935.758.697-.129 1.596-.632 1.985-1.422 2.084-4.233.798-9.471-1.298-13.787.61-.152 1.218-.333 1.821-.556 3.955-1.467 8.45-4.425 8.876-9.019.451-4.862-2.839-8.943-6.808-11.308m-2.964 8.922c.228.741.392 1.524.421 2.301.017.458.003.978-.163 1.41-.015.039-.059.109-.1.178a3 3 0 0 1-.318-.086c-.709-.261-1.324-.755-1.838-1.296-2.102-2.215-2.511-5.253-2.51-8.22 2.133 1.27 3.778 3.338 4.508 5.713m2.988 6.71c-1.328 1.327-3.32 2.509-5.299 2.7a58 58 0 0 0-1.947-2.971l.026-.141c.908.407 1.892.64 2.916.66 1.844.036 3.97-.529 5.379-1.827-.267.567-.603 1.107-1.075 1.579m-97.638.038c.513-1.978 1.137-3.98 1.669-6.017a75 75 0 0 1-.416-2.374c-.698-4.401-1.148-8.199-1.443-11.682-.74.01-1.35.255-1.176.789 2.344 7.161-1.04 13.733-2.392 20.088-1.122 5.275-1.215 12.146 2.757 16.124.622.623 1.635.811 2.336.709.348-.051 1.282-.377.642-1.018-4.023-4.029-3.28-11.598-1.977-16.619m86.896-25.736c.238-.338.462-.672.693-1.008 6.72-9.797 10.035-18.638 9.296-31.699-.58-10.252-2.614-18.492-7.624-26.717-5.707-9.37-10.345-12.098-16.8-16.523-3.901-2.674-20.947-11.353-34.492-5.905l-.009.003c-5.909-.545-13.668 1.556-16.909 3.148-16.45 8.078-25.638 20.613-29.191 33.507-1.603 5.818-3.323 18.291.489 28.913 1.676 4.67 4.462 16.077 6.929 15.792.055-.018.093-.056.142-.082 1.405-.724.361-4.506-.156-7.964-.202-1.351-.324-2.652-.181-3.694.031-.222.099-.475.177-.735.107-.357.243-.736.425-1.153 2.633.272 6.961-1.344 6.705-3.654a48.5 48.5 0 0 1-.262-6.44 345 345 0 0 1 1.889-2.569c.01 1.997.072 4.01.216 6.042.214 3.027 8.904 1.171 8.658-2.32-.377-5.339-.34-10.89.446-16.205.403-.529.797-1.037 1.19-1.545-.774 5.952-.621 12.051.305 17.727.509 3.116 9.208 1.052 8.658-2.32-.772-4.732-.965-10.632-.27-16.559-.214 6.72.472 13.308 1.822 18.605.809 3.176 9.48.907 8.658-2.32-1.501-5.893-2.234-14.591-1.466-22.934.205 8.318 1.485 16.757 3.016 24.263.665 3.264 9.355 1.097 8.658-2.32-1.615-7.922-2.945-16.652-2.988-25.211 2.067 8.758 3.424 17.589 3.775 26.798.177 4.634 8.938 3.393 8.785-.607-.302-7.919-1.28-15.609-2.793-23.212 3.044 7.865 4.414 16.352 3.497 24.673-.49 4.444 8.34 3.288 8.774-.65.497-4.506.364-9.078-.289-13.597l1.342 1.394c1.37 5.182 1.947 10.479 1.578 15.521-.283 3.866 8.459 2.328 8.698-.934a46 46 0 0 0 .12-3.251q.641.763 1.203 1.458c.283 2.661.375 5.292.205 7.833-.044.653 2.401.673 4.705.159 2.681 8.644-1.087 21.207 2.376 16.292" style="fill:#122a89"/></svg>