<svg xmlns="http://www.w3.org/2000/svg" xml:space="preserve" viewBox="0 0 215 220"><path d="M175.237 83.485c.116-9.655 3.544-19.179-.314-29.372-7.231-19.103-28.646-23.635-37.955-22.638-5.232.561-11.1 1.69-13.859 4.602-4.542-1.215-9.625-1.906-14.564-1.205-12.278-1.742-25.499 5.054-28.876 7.369-6.455 4.425-11.092 7.153-16.8 16.523-5.01 8.226-7.044 16.465-7.624 26.717-.697 12.316 2.554 23.269 8.067 31.389l-.043 1.192c-.423 11.51-.852 23.046.416 34.054 1.025 8.897 3.032 15.99 5.494 20.702.804 1.539 2.047 3.254 3.026 2.788.709-.337 1.067-1.529.296-3.004-2.717-5.201-4.605-14.108-5.136-24.524-.115-2.246-.169-4.971-.184-7.983-.046-9.624.331-22.278.585-32.409.486 5.506 1.126 11.226 1.618 17.17.156 1.888 2.235 1.767 3.079-7.32.878-9.457 2.059-18.748 4.123-27.591 2.614.73 7.104-1.23 6.85-4.376-.557-6.916-.076-13.597 1.998-19.424.308-.554.61-1.111.934-1.657-1.984 6.867-2.276 14.364-.99 21.33.569 3.084 9.266.976 8.658-2.32-.821-4.449-.935-9.792-.136-15.058-.323 6.199.299 12.313 1.688 17.136.904 3.137 9.555.796 8.658-2.32-1.454-5.046-2.109-12.48-1.409-19.652.216 7.254 1.462 14.604 2.959 21.095.51 2.214 9.204.05 8.658-2.32-1.555-6.741-2.867-14.434-2.981-21.948 2.102 7.934 3.469 15.961 3.832 24.377.123 2.848 8.805 1.091 8.658-2.32-.281-6.528-1.165-12.822-2.524-19.021 2.883 6.751 4.237 14.096 3.33 21.379-.476 3.817 8.289 2.383 8.701-.923.693-5.559.177-11.168-1.268-16.563 2.98 6.293 4.528 13.181 3.975 19.868-.127 1.54 1.921 1.897 4.053 1.551 2.237 9.191 3.486 18.882 4.402 28.756.844 9.087 2.923 9.208 3.079 7.32.492-5.944 1.132-11.664 1.618-17.17.254 10.131.632 22.784.585 32.408-.624 2.72-1.378 5.096-2.259 7.251-.127 3.17.331 6.083 1.399 8.445-.887 7.045-2.444 12.952-4.461 16.812-.77 1.475-.412 2.666.296 3.004.979.466 2.222-1.249 3.026-2.788 1.698-3.25 3.17-7.656 4.263-12.983 4.761 3.934 7.46 8.712 8.745 16.994 1.594 10.277-4.961 8.381-1.316 11.357 1.738 1.419 7.951-.555 10.793-3.908 7.286-8.595-1.285-16.903 2.106-22.558 8.324-13.879.298-21.627 5.041-28.908 14.603-22.427-2.491-34.309-2.31-49.326m-35.969-39.983c10.262.098 15.002 3.398 18.345 9.984 3.986 7.852 3.445 13.222 2.217 18.445a48.9 48.9 0 0 0-5.61-13.165c-5.147-8.451-9.428-11.502-14.952-15.264m16.064 83.913c-.409.499-.79 1.023-1.169 1.549a754 754 0 0 0-.343-10.899l-.043-1.192c3.197-4.708 5.598-10.391 6.945-16.717 2.27 9.022 2.725 17.364-5.39 27.259" style="fill:#122a89"/></svg>