<svg xmlns="http://www.w3.org/2000/svg" xml:space="preserve" viewBox="0 0 215 220"><path d="M169.164 162.05c-10.715-5.424-11.05-21.903-9.342-33.447.064-.432.136-.868.204-1.302.629.349 1.299.691 2.043 1.02 1.341.594 3.923 1.262 5.722 1.248 1.486-.012 2.108-.336.771-.928-9.893-4.381-6.659-10.995-3.775-15.829 1.63-2.733 2.848-5.474 3.597-8.257 2.838-6.448 3.173-12.365.571-19.378-1.949-5.255-4.789-10.187-3.781-14.357 2.858-11.828-2.555-17.813-14.754-26.215-2.513-1.731-3.832-4.452-8.12-8.118-7.285-6.229-21.032-7.959-28.532-6.259-14.67 3.326-14.833-.334-28.053.053-10.588.309-8.82 5.865-21.267 10.924-13.314 5.411-14.808 14.168-16.19 21.009-2.053 10.162 2.098 15.773-1.914 22.583-5.152 8.744-3.719 16.938 5.269 26.111 2.425 4.426 3.69 9.745-4.633 13.722-1.32.631-.689.937.797.906 1.799-.038 4.361-.781 5.684-1.413a26 26 0 0 0 1.701-.902c.314 1.809.617 3.606.879 5.382 1.708 11.544 1.373 28.022-9.342 33.447-1.704.863.432 2.257 1.249 2.627 1.644.745 4.113 1.118 5.769.279 2.723-1.378 4.849-3.371 6.496-5.763-2.686 5.79-2.679 12.696 3.832 20.363.226.266.509.555.814.85-1.506 1.326-3.468 2.415-5.984 3.177-2.146.65.961 1.858 2.122 2.187 2.336.662 5.661.782 7.804.415 9.708-1.663 12.262-10.524 11.14-19-.316-.32-.634-.634-.946-.961-6.875-7.211-11.215-13.313-13.306-26.487-1.128-7.11-1.617-12.668-1.83-17.81a18 18 0 0 0-.81-.055c-.362-2.03-.723-4.072-1.041-6.114.539.91 1.128 1.849 1.744 2.758 2.538 3.748 5.484 6.951 6.816 5.197-2.703-6.357-4.512-14.855-2.703-18.257.468-.88.881-1.831 1.257-2.834a23.4 23.4 0 0 0 3.384-2.601c.273.027.533.044.771.046 9.489.08 15.18-4.903 18.662-11.267 1.318 5.305 4.611 10.033 11.338 11.886 1.618.446 3.955.021 5.49-.594.762-.306 2.737-1.391 1.073-1.849-10.462-2.882-11.52-13.908-10.409-21.77.409-2.894 1.031-5.883 1.485-8.868-.022 3.85-.303 7.748-.024 11.331.631 8.092 4.342 17.247 14.987 18.476.911.105 1.987-.092 3.015-.418 1.926.55 4.247.587 7.062-.128.81-.206 1.751-.69 2.656-1.282 3.551 3.756 8.318 6.081 14.787 5.317a8.5 8.5 0 0 0 1.397-.306c1.373 1.048 2.824 1.92 4.346 2.552 2.69 13.465-5.618 20.631-2.714 20.329 2.421-.252 4.015-1.921 5.661-4.056.484-.628.98-1.293 1.495-1.979-.246 1.481-.508 2.96-.77 4.432a22 22 0 0 0-.81.055c-.213 5.143-.702 10.701-1.83 17.81-2.091 13.174-6.431 19.276-13.306 26.487-.312.327-.63.641-.945.961-1.122 8.475 1.432 17.337 11.14 19 2.142.367 5.468.247 7.804-.415 1.16-.329 4.268-1.537 2.122-2.187-2.515-.762-4.478-1.85-5.984-3.176.306-.295.589-.584.815-.85 6.511-7.667 6.519-14.573 3.832-20.363 1.648 2.392 3.773 4.385 6.496 5.763 1.657.839 4.126.466 5.769-.279.815-.372 2.951-1.767 1.247-2.629m-100.561 3.201c.768 3.991.701 7.995-.898 11.342-1.459-4.139-.755-7.935.898-11.342m-5.038-13.402c.212.433.418.863.626 1.293q-.203.238-.404.48a30 30 0 0 0-1.753 2.36 28 28 0 0 0 1.531-4.133m23.57-75.837c-1.609 5.447-3.82 11.951-8.31 16.105a46 46 0 0 0 1.201-2.096c2.986-5.58 5.2-12.335 8.408-18.119l.017-.008a97 97 0 0 0-1.316 4.118m21.23-1.939c-.035-2.566.08-5.229.103-7.884.219.004.44.019.66.027 2.113 5.302 1.023 12.961 1.769 18.922q.078.605.184 1.207c-1.967-3.794-2.663-8.369-2.716-12.272m9.524 3.975c-.08-1.465-.104-2.986-.129-4.518 1.806 4.023 3.24 8.254 4.922 12.369.823 2.015 1.798 3.979 2.943 5.798-5.562-1.534-7.432-8.068-7.736-13.649m10.833.276a96 96 0 0 0-3.626-8.538c4.206 5.923 6.867 13.474 10.389 19.611a48 48 0 0 0 3.242 4.923c-5.081-3.531-7.916-10.332-10.005-15.996m19.436 98.269c-1.599-3.347-1.665-7.351-.898-11.342 1.652 3.407 2.357 7.203.898 11.342m3.917-22.971-.404-.48q.31-.645.627-1.294c.413 1.439.92 2.823 1.53 4.133a31 31 0 0 0-1.753-2.359" style="fill:#122a89"/></svg>