<svg xmlns="http://www.w3.org/2000/svg" xml:space="preserve" viewBox="0 0 215 220"><path d="M160.567 123.027c1.192-1.531 1.154-4.424-.017-5.878a34 34 0 0 0-1.596-1.827c.679-.565 1.103-1.989 1.059-3.271-.11-3.215-2.053-7.231-4.977-10.98 3.24-6.866.411-15.908-8.378-22.768-16.254-12.688-37.956-9.45-49.121-2.982-4.438 2.571-10.8-2.937-17.734-2.022-11.518 1.519-15.616 7.316-16.058 14.6-.49 8.076-9.245 4.656-12.827 15.042-1.653 4.792 4.869 9.111.827 12.638-5.936 5.18-6.929 13.115-1.653 16.345 1.706 1.045 3.457 1.6 5.189 1.76.072.914.426 1.842 1.029 2.393.088.08.179.141.269.206l-.034.043c-.761 1.075-1.008 3.22-.469 4.359.363.768.911 1.068 1.471.883-.283.392-.57.774-.841 1.199-.634.994-.809 2.928-.326 3.93.189.391.427.64.688.745-.27.748-.326 1.743-.059 2.33.351.773.983.814 1.494.052.142-.212 1.314-1.684 1.606-1.973.3-.298.946-1.233 2.085-1.741.413-.184.88-.273 1.342-.328.811-.096 1.6-.049 2.011.042.541.12 1.183-1.001 1.26-2.01.091-1.191-.279-1.904-.858-2.033-.776-.172-1.577-.139-2.382.054a7 7 0 0 0-1.547.593c.383-.336.814-.666 1.358-.924.063-.03.133-.051.199-.079 1.527-.642 3.538-.591 4.391-.423.745.147 1.591-1.411 1.665-2.798.087-1.636-.441-2.602-1.24-2.76-1.509-.297-3.072-.067-4.616.616-.88.389-1.751.945-2.605 1.621.461-.481 1.305-1.448 2.634-2.148.179-.094.331-.204.528-.285 1.815-.741 4.32-.572 5.35-.332.864.2 1.882-1.493 2-3.033.139-1.817-.454-2.919-1.379-3.134-1.046-.243-2.121-.252-3.203-.095.114-.119.222-.243.333-.365 1.823-.524 3.795-.739 4.803-.744 1.182-.006 1.994-1.837 1.681-3.319-.356-1.689-1.401-2.572-2.612-2.627.034-.113.059-.226.09-.339 1.974-.474 3.952-.671 5.031-.676 1.033-.005 1.825-1.143 2.07-2.454 6.093 1.094 14.74.421 19.217-10.156 2.059-4.863 12.522 9.127 21.702-1.407 3.142-3.605 7.263 2.09 14.688 3.752-.036.238-.066.48-.076.74-.08 2.077 1.439 4.366 3.039 4.102.21-.035.464-.067.733-.098a5.4 5.4 0 0 0-.5 1.424c-.385 1.831.617 4.091 2.076 4.098 1.352.007 4.11.318 6.511 1.096-.421-.038-.838-.102-1.264-.104-1.267-.006-2.369.901-2.738 2.65-.312 1.483.499 3.313 1.681 3.319 1.404.007 4.683.412 6.816 1.511-1.646-.535-3.296-.675-4.883-.307-.925.215-1.518 1.317-1.379 3.134.118 1.541 1.137 3.234 2 3.033 1.03-.239 3.535-.408 5.35.332.105.043.182.105.282.152 1.48.698 2.39 1.769 2.881 2.281-.932-.737-1.884-1.319-2.846-1.714-1.466-.602-2.945-.805-4.375-.523-.799.158-1.328 1.124-1.24 2.76.074 1.387.919 2.945 1.665 2.798.809-.16 2.66-.214 4.152.329.148.054.298.107.438.173.544.258.975.588 1.358.924-.594-.303-1.19-.537-1.785-.654a5.2 5.2 0 0 0-2.144.007c-.579.129-.949.842-.858 2.033.077 1.009.719 2.13 1.26 2.01.371-.082 1.05-.128 1.774-.069.536.044 1.095.139 1.579.355 1.139.508 1.784 1.443 2.085 1.741.292.289 1.464 1.761 1.606 1.973.511.762 1.142.721 1.494-.052.267-.587.211-1.582-.059-2.33.26-.105.499-.354.688-.745.483-1.002.308-2.936-.326-3.93-.271-.425-.558-.807-.841-1.199.56.185 1.107-.116 1.471-.883.539-1.139.292-3.284-.469-4.359l-.034-.043c.09-.065.182-.126.269-.206 1.044-.955 1.371-3.038.708-4.227-.234-.419-.503-.799-.756-1.197.956-1.297 1.191-3.457.467-4.755a31 31 0 0 0-1.026-1.693c.599-.157 1.184-.546 1.678-1.179" style="fill:#122a89"/></svg>