<svg xmlns="http://www.w3.org/2000/svg" xml:space="preserve" viewBox="0 0 215 220"><path d="M64.651 149.722c-2.489 2.842-2.071 7.037-1.335 10.544.554 2.636 1.246 5.393.636 8.082a8.13 8.13 0 0 1-3.994 5.296c-.571.316-.329.576.175.653.697.105 1.61-.261 2.207-.591 1.826-1.011 3.356-2.54 4.203-4.465.612-1.39.787-2.868.74-4.354-.607-2.148-1.124-4.505-1.546-7.161-.46-2.901-.814-5.542-1.086-8.004m92.384 23.922a8.12 8.12 0 0 1-3.994-5.296c-.61-2.689.083-5.447.636-8.082.804-3.828 1.272-8.497-2.058-11.306-.065-.055-.146-.096-.219-.144a155 155 0 0 1-.426 3.67c.598 2.964-.367 6.451-.892 9.24-.469 2.493-.68 5.133.368 7.515.847 1.925 2.377 3.454 4.203 4.465.597.33 1.51.697 2.207.591.504-.077.746-.337.175-.653m-5.021-32.851c.11-.103.227-.231.362-.414 6.073-8.232 9.726-19.712 8.991-32.703-.58-10.251-2.613-18.49-7.623-26.714-5.707-9.369-10.343-12.097-16.798-16.521-.946-.649-2.678-1.653-4.934-2.721-1.186-8.172-6.51-16.264-20.016-16.029-11.2.195-16.897 6.499-18.94 13.6-3.109.659-5.892 1.586-7.523 2.387-16.45 8.078-25.638 20.613-29.191 33.508-1.603 5.818-3.323 18.291.489 28.913 1.676 4.67 4.401 11.924 6.929 15.792.197-3.329-1.314-13.524-.013-21.793.113-.721.241-1.433.4-2.119 2.076-8.936 6.616-15.384 13.988-25.326 5.734-7.733 10.921-10.99 16.321-12.744 2.576 5.477 6.144 10.893 12.26 16.676 9.065 8.571 20.741 14.985 32.528 23.609 13.26 9.701 10.468 24.751 12.77 22.599" style="fill:#122a89"/></svg>