<svg xmlns="http://www.w3.org/2000/svg" xml:space="preserve" viewBox="0 0 215 220"><path d="M167.909 101.112c-.772-5.035-7.329-10.147-13.841-14.149-4.054-2.491-8.885-10.417-12.592-12.584-5.932-3.468-20.597-10.343-37.861-4.254a31 31 0 0 0-5.824.035c-9.849.989-23.637 6.218-28.777 9.693-3.205 2.167-6.152 4.619-9.657 7.11-5.631 4.001-10.913 7.834-11.581 12.869-1.089 8.209-9.933 11.326-3.691 24.006 2.2 4.469-6.308 11.578-1.567 16.718 3.653 3.961 12.417 9.023 21.182 9.771l-.002-1.451q.334.015.704.014c5.135 0-.024-18.525 8.15-19.431 2.844-.315-2.913-8.525.47-12.904 6.069-7.856 14.289-12.973 17.564-13.839 1.165-.308 2.346-.367 3.519-.278 18.184 17.976 22.326 7.56 26.078 21.068 2.402 8.65 19.462 5.703 17.036 11.331-3.2 7.424 2.378 17.463 8.515 17.463 3.483 0 5.251-.953 6.435-2.21 2.365-2.512 2.354-6.262 8.735-6.208 14.729.124.387-14.792 8.528-18.787 8.694-4.266-.263-15.774-1.523-23.983" style="fill:#122a89"/></svg>