<svg xmlns="http://www.w3.org/2000/svg" xml:space="preserve" viewBox="0 0 215 220"><path d="M173.321 147.823c11.485-21.884-10.172-82.61-15.59-92.68-6.137-11.406-18.399-18.444-30.029-22.028-5.588-2.111-12.805-3.841-19.724-2.859-6.919-.982-14.136.748-19.724 2.859-11.63 3.585-23.892 10.622-30.03 22.028-5.418 10.069-27.074 70.796-15.59 92.68 19.818 37.761-7.346 40.137-2.105 40.953 33.722 5.251 53.781-6.81 49.766-21.759a63 63 0 0 1-5.186-3.922c2.172 4.152 1.125 9.957-1.932 13.386 1.34-5.189 2.108-10.1.044-15.025a76 76 0 0 1-4.179-4.051c-6.028-6.322-10.106-11.793-12.429-21.923-.066-13.64.721-33.378.799-43.362.012-1.578.023-3.065.031-4.481.611-2.607 1.399-5.204 2.429-7.681.3-.722.879-1.643 1.596-2.655-2.27 16.427-.424 34.782.577 55.343.112 2.3 1.603 2.153 2.208-8.917 1.242-22.725 3.329-44.658 9.487-63.156 1.226-1.23 2.528-2.234 4.139-3.258 2.688-1.709 12.011-1.102 20.098-6.172 7.953 5.012 17.361 4.442 20.1 6.172 1.486.939 2.71 1.856 3.852 2.955 6.096 18.448 8.17 40.29 9.407 62.917.605 11.07 2.096 11.217 2.208 8.917 1.001-20.539 2.844-38.876.586-55.289.875 1.2 1.608 2.308 1.955 3.143 1.029 2.477 1.817 5.074 2.429 7.681.008 1.416.018 2.903.031 4.481.078 9.984.865 29.722.799 43.362-2.323 10.13-6.401 15.602-12.429 21.924a77 77 0 0 1-3.771 3.687c-2.262 5.047-1.491 10.072-.117 15.389-3.144-3.525-4.175-9.573-1.752-13.742a63 63 0 0 1-5.612 4.277c-4.015 14.949 16.044 27.01 49.766 21.759 5.238-.816-21.926-3.192-2.108-40.953m-113.087-39.84q.528 1.011 1.097 1.979c-1.676 7.877-1.386 16.09.974 23.727.047 3.317.173 6.611.433 9.863-1.844-3.335-3.375-6.769-4.075-10.424-1.967-8.233-1.431-17.215 1.571-25.145m-8.388 22.79c.368-6.218 2.234-12.196 4.892-17.69-9.17 26.127 1.155 34.12 7.731 42.718a68 68 0 0 0 1.111 4.485c-2.461-4.077-6.218-7.759-9.024-11.65-3.66-5.181-5.124-11.684-4.71-17.863m23.589 45.012c-1.713 3.714-4.804 6.688-8.447 8.088 3.272-2.092 5.723-5.222 6.84-8.717 2.424-8.872-1.705-16.294-6.319-23.719a103 103 0 0 1-.698-7.748c5.626 9.531 13.524 20.683 8.624 32.096m-7.803-3.865c.47-1.738.569-3.371.399-4.926.192.41.382.829.58 1.208q.178.339.381.678a21 21 0 0 1-.534 3.284c-1.031 2.966-2.816 5.574-4.977 7.728 1.86-2.409 3.445-5.068 4.151-7.972m86.01-37.393c2.636-7.966 2.972-16.606 1.163-24.86.369-.637.714-1.298 1.056-1.963 3.096 7.998 3.668 17.093 1.679 25.424-.738 3.85-2.397 7.455-4.374 10.958.266-3.153.417-6.342.476-9.559m-12.875 41.258c-4.816-11.228 2.741-22.191 8.344-31.62a102 102 0 0 1-.74 7.792c-4.481 7.253-8.365 14.535-5.997 23.198 1.118 3.496 3.569 6.625 6.84 8.717-3.643-1.4-6.734-4.373-8.447-8.087m6.295-7.071q.149-.257.282-.512c.326-.623.642-1.294.95-2a13.05 13.05 0 0 0 .276 5.717c.706 2.904 2.291 5.563 4.151 7.973-3.033-2.914-5.276-6.966-5.659-11.178m12.585-20.078c-3.004 4.165-7.104 8.095-9.529 12.528.46-1.515.886-3.134 1.267-4.87 2.172-2.981 4.752-5.703 6.818-8.66 7.167-10.07 5.181-23.537 1.261-34.552 2.658 5.494 4.524 11.472 4.892 17.69.415 6.18-1.049 12.683-4.709 17.864" style="fill:#122a89"/></svg>