<svg xmlns="http://www.w3.org/2000/svg" xml:space="preserve" viewBox="0 0 215 220"><path d="M164.48 144.926c.968-2.386 2.264-4.587 3.073-7.051 2.171-6.613 1.409-12.702-.431-19.252-.833-2.967-1.639-5.967-1.548-9.076.083-2.84 1.073-5.507 1.051-8.361a37 37 0 0 0-.186-3.237c.663-2.729.451-5.403.199-8.343-.109-1.276.572-2.339.936-3.578a17.3 17.3 0 0 0 .705-4.383c.071-2.542-.461-4.968-1.624-7.229-.417-.73-1.191-1.545-1.484-2.306-.363-.944-.053-2.249-.051-3.234.004-1.974-.225-3.938-.763-5.84-.944-3.336-2.885-6.277-5.859-8.123-.754-.468-1.928-.701-2.569-1.243-.787-.665-.846-1.797-1.213-2.721a14.3 14.3 0 0 0-3.06-4.713c-1.929-1.969-4.641-3.038-7.369-2.842-1.68-3.107-3.798-6.236-7.22-7.54-2.804-1.068-5.851-.71-8.71-.015-3.159-2.687-7.145-3.605-11.082-2.528-4.175-4.691-11.565-3.611-15.125 1.256-4.334-2.861-9.932-1.961-13.954 1.204-2.967-.694-6.073-.924-8.96.257-3.337 1.365-5.531 4.237-7.246 7.293-5.77-.236-10.11 5.245-11.45 10.493-3.504 1.395-6.352 3.704-7.993 7.204-1.003 2.139-1.53 4.489-1.676 6.842-.067 1.07.025 2.128.008 3.196-.027 1.69-.702 2.245-1.488 3.702a14.3 14.3 0 0 0-1.691 5.838c-.2 2.993.643 5.431 1.501 8.236.469 1.532-.308 3.438-.299 5.074a18.4 18.4 0 0 0 .632 4.727c-.008.081-.022.161-.03.242-.262 2.708-.052 5.156.5 7.805.658 3.156.398 6.306-.341 9.422-1.468 6.195-3.516 11.888-2.264 18.355.39 2.015 1.014 3.977 1.788 5.877.811 1.988 2.104 3.872 2.564 5.985.77 3.537-.257 7.322-1.068 10.761-.847 3.591-1.852 7.248-1.79 10.967.026 1.581.266 3.172.915 4.625.854 1.913 1.977 3.597 2.314 5.714.406 2.55-.426 4.764-2.012 6.724-.527.652-1.92 1.755-1.113 2.619.746.799 3.078.786 3.982.929 2.164.343 4.346.554 6.535.633 3.922.141 7.897-.214 11.695-1.227 5.729-1.528 11.353-4.703 14.345-10a15 15 0 0 0 1.529-3.864c.206-.842.334-1.686.398-2.531q.041-.545.049-1.09a62 62 0 0 1-1.294-1.036 67 67 0 0 1-1.549-1.307 75 75 0 0 1-4.997-4.777c-7.268-7.621-11.078-13.457-13.07-26.008-1.722-10.855-1.953-18.16-1.979-25.769.297-4.38.712-8.447 1.731-12.784a157 157 0 0 1 4.18-14.63c2.554-.942 5.654-2.379 6.873-4.849.541-1.096.483-2.206-.179-3.244-.177-.277-.406-.511-.628-.75a8.1 8.1 0 0 0 3.485-.395c3.243-1.104 5.221-3.842 5.214-7.143 1.954-.362 3.701-1.344 4.986-2.868a9 9 0 0 0 .465-.598c2.113-.124 3.795-1.047 5.608-2.212 2.658 1.191 5.495 1.313 8.166.272 2.076 1.741 4.678 2.491 7.425 2.064a10.7 10.7 0 0 0 3.991-1.509 10.5 10.5 0 0 0 1.757-1.379c.037-.036.085-.103.128-.156 1.965 1.73 4.44 2.967 7.031 2.933q.316.504.684.944c1.291 1.545 3.031 2.484 5.097 2.644-.176 3.462 1.825 6.51 5.358 7.31a7.7 7.7 0 0 0 4.018-.155c-.566.579-1.168 1.129-1.528 1.868-.669 1.376-.285 2.719.666 3.846 1.102 1.307 2.764 2.209 4.295 2.907 1.289.588 1.743.669 2.286 2.015.515 1.276.871 2.655 1.271 3.972 1.276 4.199 2.335 8.468 3.262 12.757.686 3.172.83 6.304 1.029 9.504-.032 7.478-.282 14.723-1.977 25.405-1.992 12.551-5.802 18.387-13.071 26.008a75 75 0 0 1-4.904 4.695 68 68 0 0 1-3.02 2.489 16 16 0 0 0 .372 3.671c.183.828.434 1.654.773 2.479 2.342 5.705 7.595 9.476 13.343 11.293 3.553 1.123 7.267 1.589 10.984 1.616 2.256.017 4.51-.14 6.746-.435 1.647-.217 3.919-.266 5.423-1.034 1.473-.752 1.221-1.836.111-2.738-1.474-1.196-3.086-2.11-4.217-3.689-1.789-2.496-1.374-5.321-.021-7.925 1.825-3.512 2.382-7.005 2.295-10.959-.093-4.235-.768-8.457-.608-12.697.066-1.792.261-3.625.939-5.299M51.572 186.417a1 1 0 0 1 .129-.247q.409.105.827.146c-.318.035-.638.063-.956.101m13.922-39.651q.304.974.637 1.896c.444 1.23.927 2.393 1.452 3.506a38 38 0 0 0 1.701 3.206 42 42 0 0 0 1.963 3.004q.524.733 1.085 1.456a61 61 0 0 0 2.385 2.882 96 96 0 0 0 2.684 2.923 77 77 0 0 0 3.624 3.56 73 73 0 0 0 3.701 3.182c-.556 4.786-3.306 9.046-7.423 11.712-6.566 4.252-15.094 4.375-22.569 3.187-.11-.018-.324-.039-.576-.065 4.604.059 9.273-1.439 13.051-4.174 4.517-3.272 7.746-8.316 8.553-13.698-3.533 8.997-11.462 15.352-20.819 16.774a12.7 12.7 0 0 0 2.817-1.07c5.996-3.009 10.94-8.572 12.705-15.052-3.596 5.577-7.894 10.282-13.384 13.867-1.581 1.005-3.236 1.995-5.156 2.138 8.614-2.619 13.572-13.929 8.699-21.872 2.123 7.885-1.1 15.947-7.503 20.345.98-1.343 1.72-2.81 1.884-4.514.332-3.461-1.728-5.857-2.745-8.953-1.1-3.349-.432-7.022.291-10.377.751-3.487 1.812-6.942 2.151-10.505.129-1.36.168-2.751-.061-4.103-.334-1.965-1.429-3.625-2.222-5.425-2.947-6.69-3.174-13.162-1.264-20.134.718-2.62 1.553-5.223 1.885-7.929.352-2.871-.078-5.454-.62-8.261-.016-.082-.017-.167-.032-.249l.01.012c1.049 1.069 2.288 1.603 3.058 2.946 1.543 2.689 2.041 5.946 2.967 8.871.532 1.681 1.183 3.694 3.193 3.375.008.212.011.416.02.629a146 146 0 0 0 .488 7.315q.09.972.197 1.98c.143 1.345.309 2.743.504 4.205.194 1.462.417 2.988.671 4.591a78 78 0 0 0 .421 2.415q.223 1.17.472 2.267a53 53 0 0 0 1.105 4.137m84.753-56.299a137 137 0 0 0-1.015-3.322c-.284-.889-.584-2.938-1.198-3.593-.966-1.031-3.139-1.412-4.395-2.21-1.541-.978-3.487-2.705-2.277-4.673.631-1.026 1.726-1.809 2.409-2.825.634-.942 1.083-1.948 1.455-3.018.365-1.05-2.352-.45-2.707.138-1.412 2.343-3.503 3.754-6.153 2.31-2.272-1.238-3.194-3.719-2.887-6.198.057-.464-.48-.641-.859-.63-2.315.066-4.141-1.235-5.236-3.221-.234-.425-.768-.469-1.212-.41-1.808.243-2.621-.589-4.014-1.493-.191-.124-.374-.233-.558-.343 5.08-5.357 5.512-14.95.708-20.585 2.497 6.839 2.095 13.896-1.053 20.374-.701-.417-1.359-.819-1.979-1.498-.497-.543-1.67-.17-2.171.127-1.601.948-2.126 2.723-4.114 3.369-2.435.792-4.779-.249-6.507-1.975-.53-.53-1.638-.179-2.171.127-2.222 1.273-4.537.637-6.627-.513-.557-.307-1.495-.06-1.984.258-1.352.88-3.323 2.379-4.88 2.17-.651-.088-1.794.068-2.161.733-.912 1.654-2.221 2.938-4.246 2.88-.609-.017-2.049.324-1.943 1.178.296 2.396-.61 5.307-3.161 6.118-2.573.817-4.683-1.299-5.885-3.294-.437-.725-3.011.031-2.7.926.407 1.172.93 2.27 1.658 3.28.75 1.041 2.203 1.95 2.526 3.234.65 2.59-3.009 4.214-4.876 4.976-.677.277-1.549.416-2.021 1.027-.695.901-.945 2.709-1.293 3.798a134 134 0 0 0-1.109 3.66c-1.813-2.303-3.022-4.459-4.165-7.418-1.143 3.175.826 7.098 3.893 8.405-.201.718-.407 1.435-.594 2.157-1.247 4.804-2.518 9.608-2.771 14.578-.097 1.911-.154 3.828-.353 5.733-.027.256-.059.52-.089.782-.273-.694-.58-1.392-.766-2.042-.528-1.843-1.001-3.711-1.694-5.502-.45-1.163-.98-2.452-1.868-3.356-.547-.557-1.265-.892-1.847-1.41-.972-.865-1.701-1.978-2.239-3.155-.818-1.788-1.242-3.768-1.373-5.724a15.7 15.7 0 0 1 .112-3.291c.045-.308.104-.577.16-.827 1.581 3.217 4.637 5.797 8.13 6.374-3.593-2.923-6.231-5.919-8.568-9.767-.804-2.373-1.308-4.741-1.016-7.322.148-1.303.464-2.603.984-3.809.316-.732.716-1.438 1.154-2.104.294-.448.989-1.05 1.113-1.57.311-1.305-.221-3.178-.141-4.57.09-1.546.359-3.096.808-4.578.871-2.876 2.562-5.523 5.199-7.066.927-.543 2.574-.742 3.262-1.52.724-.818.769-2.465 1.21-3.491.955-2.217 2.867-4.887 5.32-5.678-3.218 4.298-2.367 11.507 2.036 14.665-2.398-4.832-2.866-9.695-1.445-14.817a4.5 4.5 0 0 1 1.862.03c.617.139 1.83-.104 2.161-.733 1.663-3.156 3.944-7.062 7.862-7.499 1.709-.191 3.378.221 5.031.592 2.054.462 2.702-.808 4.345-1.815 2.364-1.45 5.291-1.606 7.735-.255 1.643.908 2.272 1.986 4.248.938.754-.4.934-.988 1.428-1.673.86-1.193 2.162-2.258 3.607-2.634 2.695-.7 5.185.876 6.769 2.925.375.485 1.425.207 1.856.035 1.852-.738 3.804-.668 5.658.045 1.416.545 2.371 1.677 3.633 2.368 1.411.772 3.726-.467 5.281-.555 4.283-.242 7.102 2.649 9.162 5.995.777 5.974-.547 11.851-3.947 17.077 4.427-3.247 6.471-9.32 5.657-14.801.316.047.669-.003.948-.066 3.56-.803 6.845 3.062 8.181 5.833.548 1.137.658 3.101 1.479 3.961.456.477 1.865.709 2.504 1.049.69.368 1.334.797 1.935 1.299 2.405 2.01 3.763 4.869 4.404 7.891.407 1.919.518 3.861.408 5.819-.036.637-.258 1.36-.032 1.954.018.048.058.101.081.151-2.483 4.645-5.34 8.347-9.234 11.986 5.015-1.449 8.934-6.362 9.467-11.554.402.607 1.007 1.264 1.301 1.777.23.446.418.901.595 1.357-1.386 7.178-5.357 13.178-11.515 17.271 6.793-1.638 11.954-8.68 12.034-15.649.873 3.426.436 7.034-.992 10.379-.041.095-.063.185-.092.277-2.232 1.957-3.92 3.821-5.682 6.356 2.479-.539 4.58-2.3 5.66-4.559.098.473.229.962.292 1.524.203 1.824.067 3.693-.324 5.484-.342 1.569-.889 3.113-1.78 4.457-.862 1.301-2.068 1.888-3.128 2.938-1.629 1.613-2.314 4.194-2.946 6.319-.353 1.187-.668 2.386-1.021 3.573-.112.376-.235.75-.357 1.124-.019-.073-.05-.152-.063-.221-.273-1.519-.344-3.078-.427-4.616-.173-3.202-.346-6.248-1.026-9.39-.821-3.801-1.744-7.589-2.834-11.323m10.592 57.954c-.912 7.516 2.299 15.829-.662 23.067-1.104 2.698-2.721 4.965-2.314 8.005-5.16-3.228-8.767-7.762-10.747-13.633-.514 6.394 4.604 12.934 10.871 14.215.437 1.972 1.655 3.621 3.145 4.954.303.271 1.2 1.067 1.968 1.67-1.007.181-2.016.359-3.032.479-2.213.262-4.448.393-6.677.337-6.6-.166-13.829-2.05-18.364-7.162-2.166-2.441-3.283-5.201-3.64-8.102a73 73 0 0 0 4.829-4.272c-.114 7.089 5.805 14.197 12.986 14.678-6.557-2.959-10.913-8.468-12.286-15.359a78 78 0 0 0 1.635-1.658 96 96 0 0 0 2.684-2.923 61 61 0 0 0 2.385-2.882 49 49 0 0 0 1.085-1.456c.7-.978 1.354-1.974 1.963-3.004a39 39 0 0 0 1.701-3.206 40 40 0 0 0 1.452-3.506q.333-.922.637-1.896.317-1.017.603-2.098c.39 6.746 4.585 13.945-.435 19.73 8.286-5.866 1.099-15.878 1.404-24.01l.006-.028q.223-1.17.421-2.415c.254-1.602.477-3.129.671-4.591a163 163 0 0 0 .701-6.185 141 141 0 0 0 .488-7.315c.008-.187.01-.367.017-.553 1.629-.17 2.462-1.856 2.969-3.301.984-2.809 1.479-5.79 2.691-8.521.552-1.244 1.168-2.005 2.249-2.797a9.6 9.6 0 0 0 1.413-1.303c-.26 2.351-.949 4.625-.934 7.028.035 5.641 2.604 10.801 3.286 16.341.446 3.616-.013 7.29-1.15 10.742-1.227 3.726-3.54 6.979-4.019 10.93" style="fill:#122a89"/><path d="M142.22 170.806c2.353 7.196 9.564 12.844 17.12 13.381-6.916-3.065-12.481-7.403-17.12-13.381m-84.935-42.87c-5.955 10.592 9.006 20.69 3.508 31.318 8.107-10.082-6.843-20.619-3.508-31.318m19.117-80.52c-4.659 5.681-1.054 15.766 6.16 17.189-5.698-3.989-8.036-10.488-6.16-17.189m5.914-.627c-3.75 5.908.98 15.028 7.976 15.349-5.844-3.073-8.829-8.799-7.976-15.349m45.025 11.098c3.369-4.305 3.763-10.91.951-15.594.384 5.463.085 10.217-.951 15.594m4.702.006c4.661-4.636 5.253-13.09 1.304-18.34 1.516 6.334 1.084 12.281-1.304 18.34m-73.12 17.979c-3.747 6.423-1.428 15.976 4.861 19.951-4.336-5.9-6.007-12.719-4.861-19.951" style="fill:#122a89"/></svg>