<svg xmlns="http://www.w3.org/2000/svg" xml:space="preserve" viewBox="0 0 215 220"><path d="M166.985 168.315c-.346-.79-2.832-3.906-5.896-5.784l.087-.041c.571-.272 1.131-.814 1.367-1.213.238-.403.292-.884.068-1.157-.24-.293-.664-.506-1.267-.474-.17.009-.335.055-.501.086.277-.239.512-.501.642-.723.238-.403.292-.884.068-1.157-.24-.293-.665-.506-1.267-.474-.212.011-.418.062-.625.107.319-.258.595-.554.74-.801.238-.403.292-.884.068-1.157-.24-.293-.665-.506-1.267-.474-.153.008-.301.051-.45.077 1.342-2.203 2.545-5.134 2.963-8.759.353-3.054-4.589-9.354-9.34-10.655a15 15 0 0 0-1.351-.301 177 177 0 0 1-.805 5.636c-1.23 7.749-3.245 13.045-6.089 17.565.742.348 1.493.652 2.242.858.789.217 1.542.371 2.264.485a3 3 0 0 0-.449.543c-.238.403-.292.884-.068 1.157.24.293.664.506 1.267.474.212-.011.419-.062.626-.107-.319.258-.595.555-.74.801-.238.403-.292.884-.068 1.157.24.293.665.506 1.267.474.17-.009.335-.055.501-.086-.277.239-.512.501-.642.723-.238.403-.292.884-.068 1.157.24.293.664.506 1.267.474.517-.027 1.013-.179 1.536-.403-.319 1.106-.43 2.25-.176 3.288.946 3.86.638 3.662 1.831 6.515 1.12 2.676 6.081 4.377 8.976 3.565 2.501-.702 2.557-4.123 3.222-6.535.579-2.106.498-3.855.067-4.841m-102.054-32.9c-.427.076-.871.17-1.351.301-4.751 1.301-9.693 7.601-9.34 10.655.419 3.625 1.621 6.556 2.963 8.759-.15-.026-.297-.069-.45-.077-.602-.032-1.027.181-1.267.474-.224.273-.169.754.068 1.157.145.246.421.542.74.801-.207-.045-.413-.096-.625-.107-.602-.032-1.027.181-1.267.474-.224.273-.169.754.068 1.157.13.221.365.484.642.723-.166-.031-.331-.077-.501-.086-.602-.032-1.027.181-1.267.474-.224.273-.169.754.068 1.157.235.399.795.942 1.367 1.213l.087.041c-3.064 1.877-5.55 4.994-5.896 5.784-.432.986-.513 2.736.067 4.84.665 2.412.721 5.834 3.222 6.535 2.895.812 7.856-.889 8.976-3.565 1.194-2.853.885-2.655 1.832-6.515.254-1.037.144-2.182-.176-3.288.524.224 1.019.375 1.536.403.602.032 1.027-.181 1.267-.474.224-.273.17-.754-.068-1.157-.131-.221-.365-.484-.642-.723.166.031.331.077.501.086.602.032 1.026-.181 1.267-.474.224-.273.17-.754-.068-1.157-.145-.246-.421-.543-.74-.801.207.045.413.096.626.107.602.032 1.027-.181 1.267-.474.224-.273.17-.754-.068-1.157a3 3 0 0 0-.449-.543 20 20 0 0 0 2.264-.485c.75-.206 1.5-.511 2.242-.858-2.845-4.52-4.859-9.816-6.089-17.565a179 179 0 0 1-.806-5.635m82.209-5.041c.821-9.919 2.054-19.214 2.291-27.93 1.983 12.254.738 23.261 2.588 21.546.085-.079.168-.15.267-.284 6.073-8.232 9.727-19.714 8.992-32.707-.58-10.252-2.614-18.492-7.624-26.717-5.707-9.37-10.345-12.098-16.8-16.523-3.377-2.315-16.598-9.111-28.876-7.369-12.278-1.742-25.499 5.054-28.876 7.369-6.455 4.425-11.092 7.153-16.8 16.523-5.01 8.226-7.044 16.465-7.624 26.717-.735 12.993 2.919 24.475 8.992 32.707.099.134.182.205.267.284 1.85 1.716.605-9.292 2.589-21.545.237 8.716 1.47 18.011 2.291 27.93.156 1.888 2.235 1.767 3.079-7.32 1.856-19.986 5.061-39.226 15.154-55.05.274-.185.537-.371.83-.557 2.688-1.709 12.011-1.102 20.098-6.172 7.953 5.012 17.361 4.442 20.1 6.172.292.184.554.368.826.552 10.096 15.825 13.302 35.067 15.158 55.055.842 9.086 2.921 9.207 3.078 7.319" style="fill:#122a89"/></svg>