<svg xmlns="http://www.w3.org/2000/svg" xml:space="preserve" viewBox="0 0 215 220"><path d="M180.806 119.737c-5.056-5.108-8.555-11.627-9.05-15.974-.732-6.425 1.741-25.188-8.114-43.381-.004-.007-.011-.005-.015-.012a63 63 0 0 0-4.688-7.899c-4.587-6.583-9.95-11.699-15.42-15.381-2.173-1.463-10.939-6.307-23.883-7.2-6.025 0-9.57.976-11.659 2.459-2.089-1.483-5.634-2.459-11.659-2.459-12.944.892-21.709 5.737-23.883 7.2-5.47 3.681-10.833 8.797-15.42 15.381a63 63 0 0 0-4.688 7.899c-.004.007-.011.004-.015.012-9.855 18.192-7.382 36.956-8.114 43.381-.495 4.346-3.995 10.866-9.05 15.974-1.985 2.006-2.962 3.855 3.032 1.614 4.339-1.622 7.141-2.616 10.235-6.487.422 9.151-4.473 14.009-3.385 13.907 2.6-.245 4.559-1.247 6.051-2.685 1.46 17.316 4.149 34.469 4.247 40.517.388 23.89-10.46 20.625-7.486 22.422 3.865 2.335 20.11.826 26.089-3.887 6.78-5.344 9.637-10.116 10.752-15.918a75 75 0 0 1-5.642-5.336c-6.875-7.211-11.215-13.313-13.306-26.487a181 181 0 0 1-.696-4.805c2.206 1.091 1.719.036.098-3.16a9 9 0 0 1-.669-1.784c-.154-1.56-.276-3.052-.372-4.494.214-3.298 1.309-6.374 2.133-7.507 0 0 .564 2.143.359 6.727-.075 1.665-.479 5.873 1.379 2.759 4.523-7.58 2.94-10.749 2.94-21.173 0-9.794 7.011-28.911 17.329-38.349 4.906-4.488 10.808-6.149 15.37-7.976 2.346 1.363 4.468 3.576 5.281 8.379 4.041 23.886 19.35 35.109 25.256 38.486 12.843 7.342 9.32 13.053 13.844 20.633 1.858 3.114 1.453-1.094 1.379-2.759-.205-4.584.359-6.727.359-6.727.823 1.133 1.919 4.21 2.133 7.507a141 141 0 0 1-.372 4.494 9.2 9.2 0 0 1-.669 1.784c-1.621 3.195-2.108 4.25.098 3.16a181 181 0 0 1-.696 4.805c-2.091 13.174-6.431 19.276-13.306 26.487a75 75 0 0 1-5.504 5.221c1.099 5.855 3.951 10.653 10.776 16.033 5.979 4.713 22.224 6.222 26.089 3.887 2.975-1.797-7.874 1.468-7.486-22.422.098-6.034 2.774-23.119 4.236-40.393 1.474 1.366 3.381 2.323 5.9 2.56 1.088.102-3.807-4.755-3.385-13.907 3.094 3.872 5.896 4.866 10.235 6.487 5.994 2.242 5.017.393 3.032-1.613" style="fill:#122a89"/></svg>