<svg xmlns="http://www.w3.org/2000/svg" xml:space="preserve" viewBox="0 0 215 220"><path d="M172.409 112.357c-.277-1.894-.759-3.769-1.337-5.618 2.685-.142 1.566-3.791 1.151-5.499-1.716-7.062-5.976-13.521-10.496-19.102-4.194-5.179-9.11-10.316-14.903-13.717a74.2 74.2 0 0 0-18.991-7.857c-8.187-2.109-16.288-.616-24.094 2.197-5.148-2.011-10.639-2.391-16.116-1.785-5.598.619-11.512 1.945-16.628 4.338-2.185 1.022-4.268 2.271-6.142 3.795-1.004.816-3.71 2.74-3.915 4.104-.192 1.28 1.467.916 2.315.708 1.076-.264 2.123-.561 3.171-.851-3.618 2.039-7.056 4.431-10.086 7.247-4.535 4.216-7.817 9.634-10.377 15.227-3.571 7.801-6.136 16.041-5.576 24.712.094 1.455-.034 5.812 2.137 5.718.792-.034 1.47-.392 1.851-1.045 1.018 4.574 1.951 9.177 2.219 13.856.108 1.896.112 3.793.101 5.692-.005.782-.166 1.218.542 1.589 1.291.675 2.877-.834 4.033-1.079 3.35-.711 2.514 7.057 6.84 5.926.085-.022.153-.062.233-.089q.093.753.232 1.503c.495 2.657 1.228 5.784 3.23 7.74.419.409 1.8.195 2.411-.325.193-.164.314-.357.297-.573-.384-4.948-.765-9.908-.837-14.873-.008-.577-.031-1.153-.03-1.73.001-.591.021-1.182.03-1.773.019-1.219.036-2.438.063-3.657q.027-1.295.046-2.59c.952.548 2.39.16 2.911-.88.596-1.188.501-3.036.657-4.341.251-2.102.562-4.193 1.111-6.24.459-1.713 1.06-3.396 1.717-5.059.013 1.854.241 3.696.795 5.459.604 1.922 1.503 3.655 3.766 2.782.257-.099.817-.352.865-.685.209-1.447-.067-2.908.118-4.36.384-3.011 1.941-5.838 3.509-8.376 1.152-1.865 2.375-3.669 3.903-5.248.52-.538 1.085-1.029 1.649-1.521-.226.755-.393 1.517-.527 1.925-1.531 4.66-3.072 9.489-3.863 14.341-.176 1.079-.603 2.456.846 2.572 1.977.157 3.099-2.146 4.022-3.482 2.251-3.255 4.435-6.558 6.909-9.652 1.925-2.407 4.296-5.411 7.176-6.989-1.054 5.4-3.177 10.238-6.898 14.42a43 43 0 0 1-3.874 3.8c-.318.278-1.89 1.239-1.752 1.857.25 1.114 3.145.153 3.727-.01 10.251-2.874 18.661-9.666 25.689-17.465-.808 2.745-2.164 5.3-3.972 7.579a23.3 23.3 0 0 1-4.056 4.023c-.514.394-2.804 1.405-2.776 2.271.099 3.102 14.853-3.661 16.357-4.581 3.467-2.12 6.145-4.82 8.763-7.887.861-1.009 1.81-1.948 2.764-2.874.06.318.136.644.15.809.28 3.302-.096 6.354-1.159 9.527-.346 1.034-2.524 4.292-1.115 5.022 1.653.858 4.696-1.279 5.925-2.106 2.368-1.592 4.545-3.561 6.309-5.828 2.717 6.488 4.342 13.625 4.638 20.609.077 1.825-.398 3.967 2.182 3.142a4.7 4.7 0 0 0 1.228-.623 412 412 0 0 0-.255 12.531c-.009 2.967-.056 5.976.252 8.931.039.378.104.743.195 1.078.323 1.197 1.042 1.947 2.701.95 1.913-1.15 1.832-4.79 1.994-6.693.107-1.258.18-2.518.254-3.779.634.77 1.466.974 2.555.533 1.307-.529 1.594-1.761 1.827-3.043.159-.872.186-1.76.325-2.632.06-.373.159-.685.268-1.029a3 3 0 0 1 .352.105c.114.041.256.103.409.173-.094 1.56-.21 3.122-.364 4.687a57 57 0 0 0 1.056-4.361c1.955.941 5.217 2.501 5.985.234.184-.544-.081-1.515-.087-2.088-.016-1.528.06-3.058.132-4.584.082-1.739.175-3.477.266-5.216.891-.206 1.616-1.178 1.873-1.956 1.843-5.574 2.007-12.217 1.194-17.961m-97.614 12.609c.791-.131.279.365 0 0m94.848-.322c-.046.382-.125.758-.181 1.138-.424-.283-1.432-.116-2.067.22a48.3 48.3 0 0 0-1.836-12.387 48.1 48.1 0 0 0 1.094 16.7c-.246 4.167-.554 8.344-.51 12.51 0 .042-.003.102-.005.149-.877-.418-1.781-.81-2.734-.999 1.93-11.491.457-23.682-4.266-34.276a120 120 0 0 1 3.296 34.168c-.788-.017-1.63.123-2.335.496 1.819-6.659.979-14.177-2.486-20.098 1.56 7.058 2.046 13.867 1.471 20.96-.634.901-.63 2.117-.738 3.22-.233-.872-.513-2.063-1.209-2.437-.743-.399-2.172.1-2.639.74-.342.47-.41 1.162-.448 1.79.032-4.412.129-8.824.3-13.232.035-.896-2.431.08-2.692.394-.203.244-.419.477-.631.714.082-1.623-.316-3.61-.488-4.988-.815-6.538-2.462-13.018-5.263-19-.367-.785-2.357-.187-2.692.394-1.607 2.789-3.825 5.158-6.382 7.104-.676.514-1.71.948-2.462 1.481.085-.252.16-.51.207-.621 1.246-2.916 2.194-5.93 2.435-9.109.039-.519.075-1.047.059-1.568-.034-1.1.099-3.192-.531-4.152-2.05-3.119-8.305 5.389-9.236 6.458a29.1 29.1 0 0 1-8.526 6.707c-1.436.747-2.929 1.376-4.44 1.955-.661.253-4.948 1.401-4.948 1.4.07-.269 1.703-1.188 1.891-1.337.594-.468 1.16-.967 1.707-1.488a26 26 0 0 0 3.485-4.055c2.148-3.107 3.564-6.618 3.931-10.387.108-1.108-2.344-.198-2.685.22-6.952 8.52-15.364 16.615-26.101 19.99l-.028.007c.796-.755 1.637-1.745 1.995-2.094 1.756-1.711 3.387-3.554 4.751-5.595 2.537-3.793 3.919-8.052 4.653-12.529.117-.713-1.227-.502-1.556-.404-6.664 1.975-11.211 8.709-14.991 14.105-.779 1.112-1.541 2.236-2.307 3.357q.168-.752.348-1.498c1.118-4.652 2.223-9.746 4.242-14.109.161-.348.762-.999.557-1.426-.35-.73-1.771-.301-2.305-.101-2.967 1.111-5.767 4.156-7.612 6.616-2.257 3.01-4.577 6.681-5.503 10.42-.497-3.419-.101-6.878.771-10.207.264-1.008-2.449-.21-2.787.402-3.229 5.848-5.75 12.079-6.578 18.739q-.063.512-.12 1.025c-.608-.89-1.489-1.025-2.52-.492-1.297.67-.972 2.149-.984 3.417-.034 3.538-.176 7.076-.171 10.614.002 1.002.031 2.005.059 3.007-.007-.008-.008-.021-.015-.029-.502-.504-1.789-.095-2.313.299-.328-2.634-.802-5.242-1.12-7.847-1.684-11.453-.809-23.079 1.453-34.381-2.769 7.295-4.186 15.125-4.093 22.948-.007 6.804 1.621 13.369 3.304 19.901-.113.293-.176.613-.268.918-3.04-6.408-4.925-13.023-5.722-20.213-.953 5.043-.257 10.439 1.772 15.24-.684-.151-1.424-.115-2.155.037-.698.145-1.36.396-2.012.681-.029.013-.079.03-.124.046.244-1.013-.124-3.927-.147-4.625a58 58 0 0 0-.254-3.97c-.429-4.27-1.348-8.479-2.294-12.669.058-7.171 1.221-14.194 3.523-21.169-3.223 5.024-4.953 11.058-5.117 17.108-.774.041-1.863.58-2.027.964l-.038.096c-.037-.393-.087-.784-.099-1.18-.073-2.54.092-5.113.38-7.636.224-1.968.79-3.872 1.359-5.765 2.73-9.09 6.896-18.697 14.069-25.165 3.895-3.513 8.393-6.327 13.115-8.594 1.113-.534.215-1.145-.631-1.017-2.314.351-4.576.786-6.801 1.516-.183.06-.536.237-.87.368.206-.136.387-.323.516-.43.9-.746 1.63-1.727 2.541-2.485 4.264-3.55 9.503-5.181 14.838-6.355 5.964-1.312 12.317-1.788 18.206.14 1.024.335 2.018.999 3.119.896.844-.079 1.706-.567 2.493-.844 2.85-1.006 5.791-1.813 8.786-2.241 8.056-1.15 16.444 1.579 23.686 4.979 7.447 3.495 13.529 8.258 18.974 14.42 3.47 3.926 6.616 8.2 9.083 12.83 1.071 2.009 2.017 4.092 2.737 6.254.089.266.164.537.246.806-.213-.267-.41-.551-.647-.794-.478-.491-3.054.115-2.708.898 1.749 3.959 3.329 8.193 3.959 12.502.544 3.825.502 7.701.037 11.534" style="fill:#122a89"/><path d="M108.494 73.86c12.552-.253 24.523 3.367 34.847 10.508-8.634-9.124-22.609-13.328-34.847-10.508" style="fill:#122a89"/><path d="M117.998 71.28c10.839.997 20.784 4.735 29.613 11.098-7.079-8.262-18.85-12.663-29.613-11.098" style="fill:#122a89"/><path d="M129.179 70.037c6.828 2.397 12.906 5.207 19.17 8.829-4.63-5.522-11.965-8.89-19.17-8.829M92.36 71.882h-.002a47 47 0 0 1 8.034-2.606c-4.586-.168-9.221 1.03-13.341 3.226-11.757 2.21-22.409 9.867-28.441 20.185l-1.508 2.784-1.236 2.907a85 85 0 0 0-.982 2.989c.799-1.623 2.021-3.934 2.974-5.483C63.946 85.96 73.391 78.283 84.255 74.2c-3.824 2.633-7.006 6.175-8.971 10.294 4.736-5.601 10.51-9.829 17.071-12.612zm60.253 41.654c-1.17-5.466-3.79-10.635-7.647-14.553 5.167 8.897 7.588 18.617 7.228 28.897 1.207-4.071 1.401-8.452.724-12.711 2.764-7.244 1.621-16.128-2.978-22.348 2.31 6.849 3.183 13.636 2.673 20.715" style="fill:#122a89"/><path d="M81.219 84.589c4.001-3.83 8.118-6.631 13.065-8.869-2.58 2.469-4.486 5.651-5.185 9.085 3.687-5.506 7.903-9.789 13.332-13.587-2.758.612-5.323 2.027-7.49 3.916-5.808.148-11.587 4.052-13.722 9.455m33.71-2.704c-1.978-.672-4.123-.752-6.049-.019 5.268.809 9.35 3.148 12.735 7.263-.419-2.452-2.027-4.565-4.131-5.971 5.484 1.48 10.341 4.229 14.607 8.294-3.013-6.155-10.324-10.086-17.162-9.567" style="fill:#122a89"/></svg>