<svg xmlns="http://www.w3.org/2000/svg" xml:space="preserve" viewBox="0 0 215 220"><path d="M175.933 140.925c1.396-5.866.9-11.678-1.081-17.336-1.169-3.34-3.462-7.262-2.148-10.862 1.196-3.137 2.017-6.38 1.764-9.76-.207-2.774-1.172-5.388-2.064-7.998-1.139-3.331-2.023-6.687-2.399-10.195-.437-4.078-1.555-7.783-3.464-11.424-3.992-7.612-10.097-14.028-15.595-20.562-4.388-5.214-9.282-9.996-15.681-12.63-7.034-2.895-15.061-3.461-22.574-2.756-2.111.198-3.973.601-6.085.293a52 52 0 0 0-6.041-.515c-3.883-.108-7.811.132-11.633.846-6.65 1.243-12.693 4.116-17.716 8.662-2.719 2.461-5.099 5.271-7.429 8.095-2.834 3.435-5.749 6.796-8.61 10.207-2.578 3.074-5.023 6.308-6.703 9.972-1.65 3.599-1.787 7.185-2.506 11.002-.494 2.624-1.468 4.998-2.577 7.408-.819 1.781-1.43 3.518-1.394 5.505.055 2.968 1.422 5.446 2.111 8.254.307 1.254.105 2.278-.54 3.374-1.692 2.875-3.111 5.095-3.052 8.607.059 3.461 1.254 6.537 2.136 9.829.635 2.37-.744 4.795-1.573 6.96-1.088 2.839-1.867 5.83-1.224 8.872.383 1.814 1.371 3.279 2.094 4.953a14.2 14.2 0 0 1 1.154 5.06c.225 5.47-3.38 11.657-.154 16.755 1.493 2.359 4.013 4.468 6.082 6.325 2.043 1.833 4.311 3.474 6.94 4.342 2.749.908 5.704.847 8.472.046 2.43-.703 5.387-1.866 7.051-3.89 2.33-2.835.378-6.652-.713-9.594-1.881-5.073-2.766-10.012-2.197-15.237a29 29 0 0 1 .476-3.047c1-4.635.697-8.796-1.385-13.064-1.848-3.789-3.518-7.158-2.897-11.52.197-1.385.554-2.741.994-4.067.592-1.787 1.833-3.561 2.246-5.357.36-1.564.082-3.539.17-5.152.105-1.941.258-3.882.515-5.809.37-2.779.78-6.39 2.608-8.659 1.208-1.5 3.399-.997 3.85-3.3.567-2.899-.59-6.216-.756-9.12-.18-3.14.657-5.437 2.69-7.825 3.292-3.866 8.326-7.604 13.148-9.342 3.732-1.345 8.107-.553 11.872.257 2.477.533 4.821 1.364 7.324.594 2.075-.638 3.956-1.776 6.089-2.256 3.655-.824 7.21.475 10.256 2.478 4.897 3.219 6.572 8.789 7.225 14.353.593 5.05.358 10.179-.198 15.221-.46 4.168-1.057 8.153.777 12.135 1.931 4.191 5.562 6.948 8.381 10.469 1.26 1.574 2.266 3.398 2.171 5.473-.153 3.337-1.891 6.903-3.265 9.886-1.999 4.341-6.098 10.2-3.811 15.147 1.216 2.63 3.562 4.215 3.732 7.351.143 2.643-1.016 5.187-1.927 7.604a45 45 0 0 0-.518 1.445c-.581 1.724-.998 3.51-.757 5.339.378 2.872 2.564 5.354 4.935 6.857 2.261 1.433 4.765 1.515 7.296.822 3.057-.837 5.5-1.952 8.759-1.705 4.904.37 10.76-.382 13.934-4.609 3.557-4.738 1.646-10.647.26-15.762-.827-3.053-1.008-6.068.105-9.061 1.049-2.821 2.345-5.422 3.05-8.384m-8.318 9.003c-3.045 5.29-6.228 13.279-1.402 18.478-3.594-7.418 1.179-14.179 4.695-20.891-1.069 2.842-1.944 5.704-1.51 8.864.769 5.605 4.42 11.757.841 17.19-3.531 5.36-10.191 2.668-15.356 3.739-1.067.221-2.182.675-3.309 1.093a3.6 3.6 0 0 1-1.486-.525c-.944-.549-1.529-1.55-1.687-2.557-.341-2.085 1.501-3.716 3.055-5.73 3.066-4.134 4.052-9.782 2.321-14.458.33 4.912-.957 9.675-3.731 13.411-.662.941-1.535 1.843-2.233 2.99-1.651 2.269-.918 6.132 1.905 7.122.217.077.442.113.666.156-1.091.344-2.184.571-3.251.423-.875-.121-1.741-.505-2.556-1.034a4 4 0 0 1-.216-.375c-2.074-4.973 3.209-8.155 5.301-12.542.805-1.6 1.096-3.517.937-5.237-.375-4.554-3.106-10.348 1.401-13.631-3.376 1.274-4.025 5.712-3.597 8.879.384 3.318 1.154 6.536-.32 9.22-1.706 3.417-6.602 7.914-5.118 12.369-1.262-1.291-2.21-2.922-2.501-4.44-.941-4.904 3.153-9.29 3.151-14.162-.001-2.715-1.275-4.588-2.876-6.646-1.673-2.15-1.759-4.604-1.007-7.137 1.832-6.175 6.019-11.476 7.107-17.937.687-4.076-2.072-7.089-4.692-9.819-3.302-3.442-6.458-6.985-7.01-11.933-.415-3.724.61-7.705.851-11.426.33-5.091.306-10.333-.835-15.328-1.256-5.499-4.033-9.624-9.113-12.246-4.956-2.558-9.993-2.082-14.978.025-.734.31-1.51.755-2.293.928-1.363.302-2.994-.358-4.34-.655-3.477-.768-7.031-1.351-10.602-1.049-4.909.415-9.205 3.042-13.118 5.876-3.699 2.679-8.667 6.583-9.118 11.522-.296 3.241.583 6.456.796 9.671.04.599-.024 1.178-.028 1.771 0 .052-.025.138-.042.216-9.872 3.157-9.464 16.501-12.662 24.678-1.253 2.979-3.093 5.854-6.051 7.555 3.272-1.06 5.779-3.909 7.297-6.982 3.072-6.086 3.053-14.333 6.503-20.113a23 23 0 0 0-.889 3.062c-.735 3.276-1.001 6.66-1.161 10.006-.093 1.936.062 3.843-.695 5.654l-.114.271c-2.229 3.206-5.406 5.727-7.491 9.138-5.13 8.198-.559 18.333 5.496 24.579-5.317-8.276-8.701-17.53-2.824-25.823-2.311 5.342-.88 12.461 3.91 15.885-3.59-5.757-4.213-12.194-1.857-18.45.456-.575.911-1.164 1.351-1.773-.111.31-.241.612-.339.929-.723 2.336-1.152 4.783-.928 7.232.333 3.646 2.41 6.568 3.769 9.862.802 1.946 1.261 3.998 1.259 6.107-.003 3.22-1.11 6.289-1.346 9.488-.399 5.422 1.062 10.392 2.927 15.407.599 1.611 1.41 3.429 1.319 5.186-.115 2.225-2.023 3.263-3.863 4.089-.493.221-.976.394-1.455.541-6.984-2.325-11.449-8.696-11.156-16.235-2.891 6.884 2.49 15.303 9.547 16.599-2.431.37-4.675-.149-6.764-1.202a13.7 13.7 0 0 1-1.728-1.787c-4.349-5.66-5.192-13.218-2.679-20.013-3.879 5.175-3.8 13.08-.266 18.517a47 47 0 0 1-2.21-2.087c-2.052-2.059-4.274-3.937-4.701-6.98-.385-2.748.503-5.555.973-8.237.527-3.002.688-6.081-.272-9.018-.536-1.64-1.538-3.047-2.125-4.659a10.96 10.96 0 0 1-.535-5.333c.404-2.833 1.758-5.337 2.622-8.03.908-2.829-.076-4.707-.836-7.484-1.157-4.225-1.698-8.661.772-12.495 1.358-2.107 2.473-3.765 1.631-6.35-.916-2.814-2.22-5.626-1.89-8.667.219-2.023 1.215-3.789 2.029-5.617a27.6 27.6 0 0 0 2.197-7.923c.507-4.118 1.313-7.711 3.445-11.345 1.951-3.324 4.441-6.295 6.958-9.199 2.854-3.292 5.585-6.682 8.4-10.007 4.649-5.492 9.914-10.328 16.92-12.517 3.885-1.214 7.984-1.693 12.043-1.775a54 54 0 0 1 5.703.186c1.992.172 4.016.843 5.993.534 7.958-1.245 16.625-1.137 24.202 1.9 6.532 2.617 11.409 7.466 15.851 12.771 5.54 6.617 11.834 13.1 15.659 20.92 1.768 3.615 2.557 7.195 3.033 11.155.389 3.246 1.262 6.368 2.317 9.454.839 2.454 1.749 4.911 2.02 7.508.307 2.948-.316 5.826-1.272 8.594-.462-5.488-3.281-10.891-7.698-14.065 3.656 5.376 5.897 11.032 6.869 17.316-.163 2.894 1.283 5.837 2.246 8.481 1.3 3.57 2.071 7.172 2.124 10.845a40 40 0 0 0-.206-2.109c-.097 3.209-.398 6.421-1.444 9.361-.97 2.953-3.051 5.391-4.63 8.28" style="fill:#122a89"/><path d="M63.428 79.239c-.435 1.821-.727 3.673-.69 5.524.36-1.811.815-3.582 1.51-5.259 4.353-12.114 17.775-19.282 30.305-16.775-12.676-4.968-27.987 3.339-31.125 16.51" style="fill:#122a89"/><path d="M66.684 67.486c6.713-6.276 15.131-9.6 24.322-9.576-8.862-2.676-19.668 1.568-24.322 9.576" style="fill:#122a89"/><path d="M78.419 54.61c-8.056 1.191-15.268 8.082-16.803 16.084 4-7.068 9.562-12.405 16.803-16.084m61.393 24.065c-.995 12.354-5.788 31.867 8.113 38.563-11.959-8.642-6.509-25.926-8.113-38.563" style="fill:#122a89"/><path d="M154.57 119.584c-4.587-5.334-9.219-10.643-11.704-17.203-.199 6.764 5.873 14.237 11.704 17.203m-30.233-72.242c11.01 5.659 19.478 14.739 24.382 26.104-2.398-12.17-12.411-22.875-24.382-26.104m29.299 23.398c-1.9-9.272-8.673-17.68-17.314-21.535 7.328 6.018 13.002 13.091 17.314 21.535m-49.069-7.774c-.655-7.812-.556-14.857 1.9-22.379-4.749 6.327-5.01 15.278-1.9 22.379" style="fill:#122a89"/></svg>