<svg xmlns="http://www.w3.org/2000/svg" xml:space="preserve" viewBox="0 0 215 220"><path d="M89.289 94.525a3.749 3.749 0 1 0 0 7.498 3.749 3.749 0 0 0 0-7.498m13.934-13.963c-.036.085-.053.178-.083.266a3.7 3.7 0 0 0-.208 1.18 3.75 3.75 0 0 0 3.749 3.749c.458 0 .891-.094 1.296-.244.405.15.838.244 1.296.244a3.75 3.75 0 0 0 3.749-3.749c0-.415-.083-.807-.208-1.18-.029-.088-.047-.181-.083-.266a3.74 3.74 0 0 0 3.225-3.696 3.749 3.749 0 1 0-7.207 1.446q-.402.056-.772.191a3.7 3.7 0 0 0-.772-.191 3.749 3.749 0 1 0-7.207-1.446c0 1.89 1.405 3.439 3.225 3.696" style="fill:#122a89"/><path d="M161.862 122.682a3.75 3.75 0 0 0-3.749-3.749 3.74 3.74 0 0 0-3.166 1.759 3.72 3.72 0 0 0-2.426-.913 3.7 3.7 0 0 0-1.332.255 3.72 3.72 0 0 0 .969-2.495 4 4 0 0 0-.066-.656 3.7 3.7 0 0 0 .882-.339 3.73 3.73 0 0 0 3.206 1.833 3.749 3.749 0 0 0 0-7.498c-.633 0-1.219.171-1.742.448a3.8 3.8 0 0 0-.932-1.046c.56.332 1.205.536 1.904.536a3.749 3.749 0 0 0 0-7.498 3.73 3.73 0 0 0-2.879 1.374 3.7 3.7 0 0 0-.628-1.645c.202.034.406.062.618.062a3.749 3.749 0 1 0-3.749-3.749c0 .798.253 1.534.678 2.142a4 4 0 0 0-.618-.062c-.927 0-1.765.349-2.42.907a3.72 3.72 0 0 0-1.329 2.841c0 .198.029.388.058.577a3.7 3.7 0 0 0-.978.211 3.73 3.73 0 0 0 .942-3.343c.432-.108.839-.28 1.197-.524a3.749 3.749 0 0 0-2.105-6.85c-.181 0-.354.028-.528.053a3.7 3.7 0 0 0 .666-1.719 3.742 3.742 0 0 0 7.242-1.336 3.75 3.75 0 0 0-3.749-3.749c-1.911 0-3.47 1.435-3.702 3.283a3.74 3.74 0 0 0-3.493-2.413 3.74 3.74 0 0 0-3.078 1.615 3.7 3.7 0 0 0-.543 1.209c.041-.222.069-.45.069-.684 0-.374-.071-.728-.173-1.068a3.74 3.74 0 0 0-2.161-2.4c.063.003.123.019.187.019a3.73 3.73 0 0 0 2.91-1.412 3.74 3.74 0 0 0 3.596 2.747 3.749 3.749 0 0 0 0-7.498 3.73 3.73 0 0 0-2.91 1.412 3.74 3.74 0 0 0-3.596-2.747c-.32 0-.625.052-.921.128q.082-.378.084-.782a3.749 3.749 0 1 0-7.204 1.457 4 4 0 0 0-.632-.064 3.736 3.736 0 0 0-3.724 3.5 3.7 3.7 0 0 0-1.741-.448c-.194 0-.38.029-.565.057.037-.21.065-.424.065-.645 0-.68-.195-1.31-.512-1.86a3.8 3.8 0 0 0-.464-.644 3.749 3.749 0 1 0-2.273-3.445c0 .966.376 1.838.976 2.503a3.7 3.7 0 0 0-1.476-.304c-.938 0-1.785.357-2.442.926a3.72 3.72 0 0 0-1.307 2.823c0 .423.086.823.215 1.202l-.042-.004c-1.2 0-2.256.574-2.942 1.451a3.7 3.7 0 0 0-1.808-.484c-.084 0-.163.019-.246.025-.083-.006-.162-.025-.246-.025-.659 0-1.27.185-1.808.484a3.73 3.73 0 0 0-2.942-1.451l-.042.004c.129-.379.215-.779.215-1.202a3.72 3.72 0 0 0-1.307-2.823 3.72 3.72 0 0 0-2.442-.926c-.525 0-1.023.109-1.476.304.6-.665.976-1.537.976-2.503a3.749 3.749 0 1 0-2.273 3.445 3.7 3.7 0 0 0-.464.643 3.7 3.7 0 0 0-.512 1.86c0 .221.028.434.065.645-.186-.028-.372-.057-.565-.057-.632 0-1.218.171-1.741.448a3.736 3.736 0 0 0-3.724-3.5c-.216 0-.425.029-.632.064a3.749 3.749 0 1 0-7.12-.675 3.7 3.7 0 0 0-.921-.128 3.74 3.74 0 0 0-3.596 2.747 3.73 3.73 0 0 0-2.91-1.412 3.749 3.749 0 0 0 0 7.498 3.74 3.74 0 0 0 3.596-2.747 3.73 3.73 0 0 0 2.91 1.412c.064 0 .123-.016.187-.019a3.74 3.74 0 0 0-2.161 2.4 3.7 3.7 0 0 0-.173 1.068c0 .234.028.461.069.684a3.7 3.7 0 0 0-.543-1.209 3.74 3.74 0 0 0-3.077-1.615 3.74 3.74 0 0 0-3.493 2.413c-.232-1.848-1.791-3.283-3.702-3.283a3.749 3.749 0 0 0 0 7.498 3.74 3.74 0 0 0 3.493-2.413 3.7 3.7 0 0 0 .666 1.719c-.174-.025-.347-.053-.528-.053a3.749 3.749 0 0 0-2.105 6.85c.358.244.765.416 1.197.524a3.73 3.73 0 0 0 .942 3.343 3.7 3.7 0 0 0-.978-.211c.03-.19.058-.38.058-.577a3.72 3.72 0 0 0-1.329-2.841 3.7 3.7 0 0 0-2.42-.907c-.212 0-.416.029-.618.062a3.7 3.7 0 0 0 .678-2.142 3.749 3.749 0 1 0-3.749 3.749c.212 0 .416-.029.618-.062a3.7 3.7 0 0 0-.628 1.645 3.73 3.73 0 0 0-2.879-1.374 3.749 3.749 0 0 0 0 7.498c.698 0 1.344-.203 1.903-.536a3.7 3.7 0 0 0-.932 1.046 3.7 3.7 0 0 0-1.742-.448 3.749 3.749 0 0 0 0 7.498c1.367 0 2.552-.74 3.206-1.833.277.147.569.266.882.339a4 4 0 0 0-.066.656c0 .962.373 1.831.969 2.495a3.7 3.7 0 0 0-1.332-.255c-.93 0-1.771.352-2.426.913a3.74 3.74 0 0 0-3.166-1.759 3.75 3.75 0 0 0-3.749 3.749 3.74 3.74 0 0 0 3.202 3.694c-1.152.64-1.942 1.854-1.942 3.265 0 1.912 1.436 3.472 3.286 3.702a3.74 3.74 0 0 0-1.843 3.212c0 1.43.81 2.657 1.987 3.29-1.177.632-1.987 1.86-1.987 3.29a3.75 3.75 0 0 0 3.749 3.749c1.36 0 2.539-.731 3.197-1.815a3.7 3.7 0 0 0 .552-1.934c0-.714-.21-1.374-.556-1.942a3.74 3.74 0 0 0-1.43-1.348 3.73 3.73 0 0 0 1.423-1.336c.351-.57.563-1.235.563-1.954a3.7 3.7 0 0 0-.532-1.896 3.8 3.8 0 0 0-.468-.636c.163-.014.328-.023.485-.057a3.75 3.75 0 0 0 2.954-3.66c0-1.424-.803-2.648-1.973-3.282a3.74 3.74 0 0 0 2.423-3.496c0-.962-.373-1.831-.969-2.495a3.7 3.7 0 0 0 1.332.255 3.744 3.744 0 0 0 .861-7.389 4 4 0 0 0 .066-.656c0-.221-.028-.436-.065-.647a3.749 3.749 0 0 0 5.84-3.111c0-.995-.394-1.893-1.026-2.564.405.149.837.243 1.294.243a3.741 3.741 0 0 0 .909-7.374c.053-.252.084-.512.084-.779 0-.818-.269-1.569-.713-2.185.174.025.347.053.528.053.721 0 1.388-.214 1.96-.566a3.7 3.7 0 0 0-.566 1.96 3.749 3.749 0 0 0 7.498 0 3.73 3.73 0 0 0-1.531-3.008 3.735 3.735 0 0 0 3.527-2.711 3.742 3.742 0 0 0 6.757-1.409 3.7 3.7 0 0 0 2.192.719 3.75 3.75 0 0 0 3.749-3.749c0-.221-.028-.434-.065-.645.186.028.372.057.565.057l.042-.004a3.7 3.7 0 0 0-.215 1.202 3.74 3.74 0 0 0 2.817 3.618 3.76 3.76 0 0 0-1.618 1.325c-.64-1.152-1.854-1.941-3.265-1.941a3.749 3.749 0 0 0 0 7.498c1.28 0 2.408-.644 3.084-1.623.64 1.152 1.854 1.941 3.265 1.941a3.75 3.75 0 0 0 3.749-3.749 3.72 3.72 0 0 0-1.29-2.809 3.7 3.7 0 0 0 1.757.456c.084 0 .163-.019.246-.025.083.005.161.025.246.025.639 0 1.231-.175 1.757-.456a3.72 3.72 0 0 0-1.29 2.809 3.75 3.75 0 0 0 3.749 3.749 3.73 3.73 0 0 0 3.265-1.941 3.74 3.74 0 0 0 3.084 1.623 3.749 3.749 0 0 0 0-7.498c-1.411 0-2.625.789-3.265 1.941a3.76 3.76 0 0 0-1.618-1.325 3.74 3.74 0 0 0 2.817-3.618c0-.423-.086-.823-.215-1.202l.042.004c.194 0 .38-.029.565-.057-.037.21-.065.424-.065.645a3.75 3.75 0 0 0 3.749 3.749c.821 0 1.574-.272 2.192-.719a3.742 3.742 0 0 0 6.757 1.409 3.735 3.735 0 0 0 3.527 2.711 3.73 3.73 0 0 0-1.531 3.008 3.749 3.749 0 0 0 7.498 0c0-.721-.214-1.388-.566-1.96a3.7 3.7 0 0 0 1.96.566c.181 0 .354-.028.528-.053a3.72 3.72 0 0 0-.713 2.185q.002.402.084.779a3.741 3.741 0 0 0 .909 7.374c.457 0 .889-.094 1.294-.243a3.73 3.73 0 0 0-1.026 2.564 3.749 3.749 0 0 0 5.84 3.111 4 4 0 0 0-.065.647c0 .225.028.442.066.656a3.743 3.743 0 0 0 .861 7.389 3.7 3.7 0 0 0 1.332-.255 3.72 3.72 0 0 0-.969 2.495 3.74 3.74 0 0 0 2.423 3.496c-1.169.635-1.973 1.858-1.973 3.282a3.75 3.75 0 0 0 2.954 3.66c.157.034.321.044.485.057a3.7 3.7 0 0 0-.468.636 3.7 3.7 0 0 0-.532 1.896c0 .719.212 1.384.563 1.954a3.75 3.75 0 0 0 1.423 1.336 3.74 3.74 0 0 0-1.43 1.348 3.7 3.7 0 0 0-.556 1.942c0 .711.209 1.368.552 1.934a3.73 3.73 0 0 0 3.197 1.815 3.75 3.75 0 0 0 3.749-3.749c0-1.43-.81-2.657-1.987-3.29 1.177-.632 1.987-1.86 1.987-3.29a3.73 3.73 0 0 0-1.843-3.212c1.85-.23 3.286-1.79 3.286-3.702 0-1.411-.789-2.626-1.942-3.266a3.735 3.735 0 0 0 3.198-3.692m-100.293 4.156a3.7 3.7 0 0 0-1.92-.891 4 4 0 0 0 .619-.429 3.75 3.75 0 0 0 1.39 1.292c-.029.012-.061.017-.089.028m5.185-16.738a3.73 3.73 0 0 0-2.031-.605c-.698 0-1.344.203-1.903.536a3.73 3.73 0 0 0 1.425-2.464 3.72 3.72 0 0 0 2.563 1.342c-.03.19-.058.38-.058.578 0 .159.028.311.047.465.007.06.008.122.018.181-.019-.013-.042-.021-.061-.033m11.749-15.008a3.7 3.7 0 0 0 .566-1.96c0-.234-.028-.461-.069-.684a3.74 3.74 0 0 0 1.402 2.083 3.7 3.7 0 0 0-1.899.561m7.199-5.698a3.74 3.74 0 0 0-3.081-1.619c-.021 0-.041.006-.062.006-.043.001-.083.01-.125.013q.327-.135.619-.325l.085-.053a3.74 3.74 0 0 0 1.546-3.872c.296.075.601.128.921.128.216 0 .425-.029.632-.064-.189.448-.294.94-.294 1.457 0 .228.028.449.067.666.125.695.445 1.316.896 1.821a3.74 3.74 0 0 0-1.204 1.842m18.746 2.784c.12-.051.229-.123.342-.186q.217.279.483.511a3.7 3.7 0 0 0-.825-.325m6.234.325q.265-.232.483-.511c.114.063.222.135.342.186a3.7 3.7 0 0 0-.825.325m22.714-4.722c-.021 0-.041-.006-.062-.006a3.74 3.74 0 0 0-3.081 1.619 3.73 3.73 0 0 0-1.205-1.841 3.7 3.7 0 0 0 .896-1.821 4 4 0 0 0 .067-.666c0-.517-.105-1.009-.294-1.457.206.035.415.064.632.064.32 0 .625-.052.921-.128a3.74 3.74 0 0 0 1.547 3.872l.084.052q.292.191.62.326c-.042-.003-.082-.013-.125-.014m2.156 6.751a3.74 3.74 0 0 0 1.402-2.083c-.041.222-.069.45-.069.684 0 .721.214 1.388.566 1.96a3.7 3.7 0 0 0-1.899-.561m13.649 15.568c-.019.012-.042.02-.061.033.01-.059.011-.121.018-.181.019-.154.047-.306.047-.465 0-.198-.029-.388-.058-.578a3.72 3.72 0 0 0 2.563-1.342 3.72 3.72 0 0 0 1.425 2.464 3.7 3.7 0 0 0-1.903-.536c-.75 0-1.445.226-2.031.605m5.186 16.738c-.029-.012-.06-.017-.089-.028a3.75 3.75 0 0 0 1.39-1.292q.286.245.619.429a3.73 3.73 0 0 0-1.92.891" style="fill:#122a89"/><path d="M126.666 94.525a3.749 3.749 0 1 0 0 7.498 3.749 3.749 0 0 0 0-7.498" style="fill:#122a89"/></svg>