<svg xmlns="http://www.w3.org/2000/svg" xml:space="preserve" viewBox="0 0 215 220"><path d="M168.02 117.967q.047-.431.038-.867c-.032-1.5-1.937-2.795-3.777-2.906a10.8 10.8 0 0 0-3.912.495 5.16 5.16 0 0 0-1.273-2.131c-.954-.961-2.388-1.626-3.965-1.852a4.8 4.8 0 0 0-.456-1.558c-.064-.126-.147-.234-.225-.348 1.987.044 3.992-.527 5.826-1.965.204-.16.387-.338.572-.513a7.7 7.7 0 0 0 3.358-.154c6.019-1.673 8.521-9.994 4.244-14.559-1.299-1.386-3.422-1.702-4.961-.397-1.405 1.191-1.769 3.616-.474 4.998.131.129.247.271.36.416l.025.05c.043.104.063.142.069.139.021.093.046.186.06.28.024.148.038.112.044.069l-.012.218c-.004.086-.078.53-.08.623a5 5 0 0 1-.222.61 4 4 0 0 0-.119.171c-.583-2.493-2.495-4.813-5.033-5.35-2.303-.487-4.326.644-4.695 3.121-.274 1.837.142 3.628 1.013 5.171-.718-.019-1.413-.299-2.055-.742-.619-1.366-1.664-2.505-3.121-3.128-.07-.1-.165-.179-.24-.275a8.6 8.6 0 0 0 1.908-.661c6.016-2.915 6.856-9.751 5.91-15.673-.375-2.35-2.411-4.148-4.862-3.869-2.283.259-4.244 2.518-3.87 4.862.133.831.259 1.664.326 2.504.063.793.082.943.008 1.632-.035.33-.079.661-.152.985-.014.062-.018.088-.024.123-.033.075-.078.182-.142.342-.047.118-.112.255-.139.322q-.199.286-.414.555c-.04.049-.057.073-.087.112-.214-3.898-5.342-4.73-7.627-2.46-1.218-3.188-5.15-3.912-7.378-1.463-.055-.19-.104-.381-.174-.571.083-.095.162-.193.253-.285 1.733-1.743.781-4.804-.846-6.157-.826-.687-2.151-.989-3.199-.859-1.283.159-2.086.828-2.958 1.705-.161.162-.289.354-.436.529-1.372.165-2.58 1.06-3.266 2.26-.204.032-.406.052-.612.106a7.5 7.5 0 0 0-3.741 2.288c-.195-.009-.385-.032-.585-.027-1.391.036-2.699.578-3.795 1.419.223-1.053.1-2.17-.449-3.099.049-.223.124-.442.155-.668.167-1.226.21-2.27-.443-3.386-.533-.911-1.578-1.781-2.626-2.019-2.064-.47-5.073.633-5.405 3.069-.017.128-.048.25-.072.374-2.498.764-4.261 2.612-5.159 5.05-.308.836-.218 1.793.109 2.653-.251.028-.503.056-.75.103-1.55-1.276-3.693-1.823-5.653-1.455-.714-1.312-1.757-2.431-3.086-3.15-1.625-.88-3.358-1.039-4.982-.68a7 7 0 0 0-2.77-1.164 7.5 7.5 0 0 0-1.589-2.028c-4.879-4.353-11.929-.665-13.698 5.075-.59 1.912-.026 4.005 1.904 4.832 1.027.44 2.356.303 3.363-.31.045.218.118.426.201.629-.665.345-1.306.738-1.895 1.186-1.365-.432-2.824-.44-4.238-.103-1.458-1.585-3.761-2.503-6.515-2.165-6.466.793-10.081 6.351-11.755 11.631-.665 2.096.349 4.186 2.6 4.633 2.096.416 4.756-.951 5.419-3.041.235-.741.477-1.482.772-2.212.279-.69.326-.822.681-1.385.17-.27.347-.538.548-.793.038-.048.052-.069.073-.098.061-.055.145-.132.268-.25.091-.087.205-.185.257-.234q.293-.186.595-.355l.123-.071c-1.457 3.362 2.655 5.496 5.601 4.209a3.6 3.6 0 0 0 .181 1.54 6.5 6.5 0 0 0-.531.957 9.9 9.9 0 0 0-3.884-.959c-1.876-.07-3.988 1.165-4.236 2.823a8 8 0 0 0-.086.965c-2.158.177-4.208 1.835-3.866 3.839.463 2.712 2.219 5.086 5.166 6.391.036.894.484 1.747 1.422 2.365-3.168 1.392-4.58 5.772-.926 6.775l-.145.047q-.352.12-.712.222c-.076.008-.236.032-.369.046-.181.018-.303.033-.39.044-.037-.002-.063-.005-.129-.006-.343-.009-.68-.044-1.012-.085-.694-.085-.83-.132-1.565-.353a32 32 0 0 1-2.266-.799c-2.092-.804-5.109.324-6.343 2.141-1.325 1.95-.475 4 1.622 4.807 5.285 2.032 12.218 2.793 17.615-1.52a9.8 9.8 0 0 0 1.605-1.616c1.152-1.47 1.66-3.074 1.563-4.569 1.306-.842 2.379-1.931 3.06-3.213a15.6 15.6 0 0 0 5.23-2.122c.027.027.045.062.073.089.34 1.445 1.231 2.587 2.405 3.368.307.662.453 1.349.351 2.017-1.297-1.042-2.902-1.7-4.666-1.726-2.377-.035-3.771 1.667-3.7 3.875.079 2.432 1.93 4.558 4.164 5.477a3 3 0 0 0-.18.084q-.301.077-.607.113c-.088-.013-.515-.011-.596-.021l-.205-.022c.041.001.077-.007-.057-.051-.086-.027-.168-.065-.252-.098.004-.006-.028-.03-.119-.086l-.043-.031a4 4 0 0 1-.329-.397c-1.077-1.41-3.404-1.442-4.751-.322-1.476 1.227-1.534 3.242-.455 4.656 3.555 4.657 11.751 3.607 14.317-1.715a7.2 7.2 0 0 0 .703-3.087c.195-.145.392-.287.575-.452a8.7 8.7 0 0 0 2.255-3.149q.172.734.45 1.478c.112.3.254.581.392.864-.638 1.235-1.037 2.596-1.094 4.044-.305 7.752 8.618 13.713 15.661 10.272 2.139-1.045 3.322-3.453 2.359-5.75-.879-2.097-3.617-3.401-5.75-2.359a6 6 0 0 1-.631.278l-.069.011c-.14.013-.193.024-.192.032-.119-.009-.238-.012-.355-.03-.184-.024-.147.005-.098.028a9 9 0 0 0-.254-.092c-.1-.035-.599-.283-.709-.318a6 6 0 0 1-.639-.483 4 4 0 0 0-.158-.202c3.18.204 6.661-1.235 8.263-4.056 1.454-2.561.881-5.371-1.917-6.699-2.076-.985-4.359-1.135-6.522-.655.295-.846.892-1.571 1.662-2.175 1.856-.244 3.606-1.077 4.9-2.584 1.748-.568 3.258-1.768 4.233-3.572.796.536 1.859.737 3.089.334.206-.067.41-.146.614-.222.046.01.098.019.165.028l.038.004c.044.018.155.068.251.111-2.228.464-3.633 2.028-4.243 4.254-.326 1.189.382 2.506 1.391 3.271-.78 1.138-1.213 2.532-1.17 4.061.034 1.201.681 2.002 1.55 2.457-.803.782-1.261 1.983-1.127 3.049.252 2.003 1.982 3.056 3.842 2.99 3.365-.118 6.535-2.214 7.95-5.09 2.653 3.952 6.565 6.712 10.211 8.386 2.05.942 3.805.068 3.829-2.318.023-2.222-1.699-5.243-3.743-6.182a34 34 0 0 1-2.176-1.07c-.685-.375-.815-.44-1.396-.884a13 13 0 0 1-.826-.676c-.051-.047-.073-.064-.103-.089a15 15 0 0 0-.277-.316c-.096-.108-.206-.242-.26-.303a19 19 0 0 1-.43-.681l-.086-.14c3.356 1.933 4.617-2.286 2.92-5.609 1.152.254 2.003-.12 2.497-.868a5.6 5.6 0 0 0 .904-.545c.907 3.126 6.286 4.886 8.69 1.535.007.049.01.078.02.141q.054.344.083.694c-.011.072-.027.226-.048.353-.029.173-.046.289-.057.372-.014.035-.025.06-.047.121a9 9 0 0 1-.411.947c-.318.647-.42.771-.928 1.443-.538.712-1.129 1.389-1.725 2.061-1.681 1.896-1.077 4.853.962 6.195 2.19 1.441 5.152.839 6.837-1.062 2.598-2.931 4.74-6.491 5.076-10.077.262.194.532.382.823.55.536 1.273 1.454 2.385 2.658 3.256 1.901 1.375 4.528 2.137 7.583 1.896.196-.015.386-.046.578-.069 2.248 1.018 5.085 1.075 7.722.336 3.112-.872 5.167-2.851 5.973-5.256.581-1.752-1.21-3.418-3.293-3.775" style="fill:#122a89"/></svg>