<svg xmlns="http://www.w3.org/2000/svg" xml:space="preserve" viewBox="0 0 215 220"><path d="M170.411 140.081c1.461-9.885 1.667-18.498-2.128-39.749-2.879-16.122-5.158-22.199-10.169-30.425-5.707-9.37-14.213-16.848-20.668-21.273-3.375-2.313-16.953-8.347-29.325-6.411-12.403-1.987-26.056 4.091-29.441 6.411-6.455 4.425-14.96 11.903-20.668 21.273-5.01 8.226-7.29 14.303-10.169 30.425-3.795 21.252-3.589 29.864-2.128 39.749 3.565 24.118-1.937 21.753-2.63 32.341-.181 2.763 8.135-.25 16.481 3.615 6.936 3.212 12.867 2.382 13.352.24.86-3.802 1.274-7.94 1.272-12.421-4.122-5.316-6.903-11.189-8.449-20.932-1.632-10.283-1.932-17.332-1.983-24.55l.007.01c.054-.918.015-2.047-.018-3.339l.001-3.611c.05-1.503.178-3.132.491-4.879 6.486-3.318 12.346-8.146 17.445-13.03 7.309-7.002 13.856-15.08 18.895-23.927a105 105 0 0 0 1.232 4.629c1.431 5.015 3.208 10 5.538 14.673 4.01 8.042 11.097 12.781 19.895 14.357.69.124 2.324.079 2.174-1.001-.151-1.09-2.059-1.526-2.908-1.678-7-1.254-11.8-6.034-14.703-12.298-2.132-4.6-3.834-9.417-5.174-14.305-.533-1.942-1.091-3.98-1.486-6.038l.46.682c8.84 13.251 16.072 32.09 33.502 35.744.712.149 2.601.48 2.891-.603.277-1.032-1.445-1.809-2.202-1.967-10.204-2.139-16.499-12.122-21.563-20.397-3.096-5.059-5.987-10.855-9.748-15.767 3.535 2.468 6.684 5.562 9.388 8.797 3.096 3.704 5.538 7.872 8.674 11.556 3.328 3.908 6.927 7.597 10.716 11.059 2.15 1.965 4.37 3.876 6.677 5.669 10.15 19.351 2.396 30.425-.189 43.778-1.211 6.253-1.798 11.94-1.817 17.156-.016 4.564.4 8.771 1.273 12.633.485 2.142 6.416 2.973 13.352-.24 8.346-3.865 16.662-.852 16.481-3.615-.694-10.588-6.196-8.223-2.631-32.341M78.606 91.608c-3.971 3.853-8.441 7.744-13.329 10.858.272-.819.579-1.651.95-2.501 3.42-7.833 11.596-14.695 20.032-23.753 5.316-5.708 8.514-8.743 11.872-10.135-5.02 9.482-11.859 18.092-19.525 25.531m49.252-10.62c-2.482-3.306-4.75-6.629-7.412-9.704 8.333 8.198 11.102 13.291 15.134 18.768a100 100 0 0 1-7.722-9.064" style="fill:#122a89"/></svg>