<svg xmlns="http://www.w3.org/2000/svg" xml:space="preserve" viewBox="0 0 215 220"><path d="M167.895 106.435c-.024-5.334-1.293-21.065-8.859-30.039-5.868-6.959-12.15-10.092-15.654-11.649-1.338-.595 3.806-1.69 1.688-2.32-4.132-1.228-13.671-.85-16.479-.013-5.506 1.641-8.322 2.153-9.979 6.065-2.884-7.921-12.058-10.501-20.548-10.595-.538-.006-.882.726-.457 1.103 1.107.983 2.014 1.728 2.7 3.016-5.192-2.345-11.514-1.432-18.553-.162-5.256.948-9.447 2.625-14.259 6.594-5.267 4.345-14.552 13.467-17.645 25.723-1.714 6.793-5.096 26.326-5.115 26.63-.443 6.843.775 8.406 1.584 8.495 1.347.149 2.555-3.904 2.808-3.099.748 2.379 1.713 7.496 5.229 8.456s4.952 4.529 5.405 10.417c.521 6.781 1.479 16.693 5.457 16.693.729 0-.891-9.538.242-23.072.343-4.103 1.501-11.633 2.532-15.62 22.76-1.074 31.933-32.681 38.282-35.224 10.463-4.192 7.906 9.982 15.344 1.996 5.085 1.957 25.668 27.949 27.794 39.304 5.738 17.375-.289 33.107 2.032 32.981 1.281-.069 3.99-6.879 5.265-17.059.96-7.664 2.166-11.583 3.424-11.839.577-.117 3.3-7.518 3.3-12.316 0-1.29.908 3.934 3.037 2.541 1.464-.959 1.464-8.62 1.425-17.007" style="fill:#122a89"/></svg>