<svg xmlns="http://www.w3.org/2000/svg" xml:space="preserve" viewBox="0 0 215 220"><path d="M167.801 108.144c-2.427-14.266-4.66-22.199-9.671-30.425-5.707-9.37-14.213-16.848-20.668-21.273-3.373-2.312-16.937-8.341-29.304-6.415-12.394-1.97-26.025 4.097-29.407 6.415-6.455 4.425-14.96 11.903-20.668 21.273-5.01 8.226-7.244 16.158-9.671 30.425-3.62 21.282-9.191 27.467-6.474 44.053 1.723 10.517 21.347 20.84 30.848 17.531-3.348-4.84-5.67-10.415-7.031-18.993-1.632-10.283-1.932-17.332-1.983-24.55l.007.01c.054-.907.015-2.027-.018-3.298l.001-3.857a33 33 0 0 1 .673-5.624c2.106.889 8.238-.761 7.953-3.085-.493-4.014-.32-8.138.401-12.197a93 93 0 0 1 1.445-1.614c-.316 3.681-.31 7.489-.003 11.366.326 4.125 9 2.015 8.658-2.32-.566-7.161-.066-14.139 2.133-20.213l.618-.655c-1.823 6.835-2.05 14.226-.809 21.077.558 3.081 9.256.981 8.658-2.32-.811-4.479-.938-9.904-.156-15.271-.305 6.274.326 12.455 1.708 17.345.887 3.136 9.542.806 8.658-2.32-1.463-5.174-2.129-12.806-1.415-20.158.207 7.415 1.458 14.929 2.964 21.585.5 2.208 9.196.059 8.658-2.32-1.562-6.904-2.88-14.758-2.987-22.429 2.106 8.098 3.475 16.287 3.838 24.86.12 2.846 8.802 1.091 8.658-2.32-.248-5.868-.982-11.552-2.082-17.155.191.106.371.203.556.304 2.188 6.168 3.126 12.727 2.331 19.222-.467 3.821 8.296 2.383 8.701-.923.462-3.777.383-7.581-.145-11.33a17 17 0 0 1 1.662 2.201c1.066 4.123 1.525 8.342 1.189 12.477-.128 1.579 2.025 1.915 4.212 1.525 10.31 30.845 9.32 37.813 5.868 55.313-.078.396.026.729.256 1.012 2.691 3.325 24.875-1.05 28.312-12.88 4.213-14.493-2.854-22.767-6.474-44.049" style="fill:#122a89"/></svg>