<svg xmlns="http://www.w3.org/2000/svg" xml:space="preserve" viewBox="0 0 215 220"><path d="M175.237 83.485c.116-9.655 3.544-19.179-.314-29.372-7.231-19.103-28.646-23.635-37.955-22.638-5.232.561-11.1 1.69-13.859 4.602-4.542-1.215-9.625-1.906-14.564-1.205-12.278-1.742-25.499 5.054-28.876 7.369-6.455 4.425-11.092 7.153-16.8 16.523-5.01 8.226-7.044 16.465-7.624 26.717-.697 12.316 2.554 23.269 8.067 31.389l-.043 1.192c-.423 11.51-.852 23.046.416 34.054 1.025 8.897 3.032 15.99 5.494 20.702.804 1.539 2.047 3.254 3.026 2.788.709-.337 1.067-1.529.296-3.004-2.717-5.201-4.605-14.108-5.136-24.524-.115-2.246-.169-4.971-.184-7.983-.046-9.624.331-22.278.585-32.409.486 5.506 1.126 11.226 1.618 17.17.156 1.888 2.235 1.767 3.079-7.32 1.206-12.994 2.99-25.669 6.852-37.302.16-.106.353-.307.584-.627 2.493-3.453 4.018-5.725 9.895-7.638-1.163 4.315-3.851 8.175-7.738 11.015-1.221.893 3.509-.235 4.88-.969 7.514-4.023 10.656-6.458 15.503-12.94-.886 4.052-3.223 7.753-6.832 10.489-1.207.915 2.792.5 4.183-.203 4.393-2.223 5.425-3.216 7.883-7.084l-.188 8.892c-.024 1.155 2.674-1.104 3.321-2.282 2.371-4.312 8.166-6.344 10.61-10.361 0 0-.014 1.465-.115 3.749-.101 2.285-2.744 3.607-1.754 3.811 2.801.577 9.602-4.3 11.292-8.789a6.5 6.5 0 0 0 .38-1.932c8.729 15.253 11.666 33.383 13.41 52.171.844 9.087 2.923 9.208 3.079 7.32.492-5.944 1.132-11.664 1.618-17.17.254 10.131.632 22.784.585 32.408-.624 2.72-1.378 5.096-2.259 7.251-.127 3.17.331 6.083 1.399 8.445-.887 7.045-2.444 12.952-4.461 16.812-.77 1.475-.412 2.666.296 3.004.979.466 2.222-1.249 3.026-2.788 1.698-3.25 3.17-7.656 4.263-12.983 4.761 3.934 7.46 8.712 8.745 16.994 1.594 10.277-4.961 8.381-1.316 11.357 1.738 1.419 7.951-.555 10.793-3.908 7.286-8.595-1.285-16.903 2.106-22.558 8.324-13.879.298-21.627 5.041-28.908 14.606-22.428-2.488-34.31-2.307-49.327m-35.969-39.983c10.262.098 15.002 3.398 18.345 9.984 3.986 7.852 3.445 13.222 2.217 18.445a48.9 48.9 0 0 0-5.61-13.165c-5.147-8.451-9.428-11.502-14.952-15.264m16.064 83.913c-.409.499-.79 1.023-1.169 1.549a754 754 0 0 0-.343-10.899l-.043-1.192c3.197-4.708 5.598-10.391 6.945-16.717 2.27 9.022 2.725 17.364-5.39 27.259" style="fill:#122a89"/></svg>