<svg xmlns="http://www.w3.org/2000/svg" xml:space="preserve" viewBox="0 0 215 220"><path d="M162.783 89.848c-4.05-2.201-9.043-2.375-13.555-2.484-9.692-.235-19.397 1.835-28.224 5.819-1.705-.462-4.014.069-5.45.272-4.059.574-8.128.707-12.203.192-2.562-.323-5.114-1.174-7.689-.469-.277.076-.558.171-.837.271-7.518-3.372-15.627-5.348-23.883-5.666-7.558-.292-21.078-.345-23.677 8.874-1.229 4.36 2.126 6.403 4.275 9.553 2.827 4.143.288 9.468-.247 13.914-.491 4.088.35 8.335 4.141 10.575 3.596 2.126 8.177 1.892 12.012.624 5.222-1.726 9.917-5.166 14.589-7.986l8.239-4.972c.645-.389 1.373-.904 2.139-1.423 1.12.582 2.586.764 3.654.78 2.257.033 4.455-.526 6.666-.896 2.333-.39 4.466-.324 6.758.27 2.134.553 4.253 1.223 6.485 1.126 1.727-.075 3.374-.552 4.878-1.321.491.306.969.615 1.431.894l7.415 4.475c4.393 2.651 8.722 5.493 13.262 7.888 3.986 2.103 8.46 3.227 12.906 1.969 4.027-1.139 7.125-4.196 7.836-8.374.766-4.498-1.298-8.72-1.507-13.147-.113-2.392.508-4.194 2.105-5.95 1.355-1.49 2.764-2.913 3.377-4.883 1.271-4.088-1.391-8.021-4.896-9.925m-71.38 8.328a57 57 0 0 0-.441 3.368c-3.957-.462-7.953-.472-11.924.154-3.087.486-7.292 1.187-9.536 3.588-1.588 1.7-1.5 4.304.137 5.918 1.153 1.137 6.733-1.102 5.719-2.103-1.163-1.147-1.214-3.055-.232-4.316a1 1 0 0 1 .089-.078c.111-.043.288-.13.204-.108.217-.056.854-.226 1.23-.307a23 23 0 0 1 3.113-.438c3.677-.284 7.355.128 10.959.873a87 87 0 0 0-.091 7.054c.013.511.003 1.119.025 1.731-.468.264-.935.512-1.406.796-3.985 2.398-7.964 4.806-11.946 7.209-4.586 2.768-17.024 12.282-19.738 2.323-1.014-3.722.649-7.654 1.175-11.32.525-3.661.045-7.042-2.451-9.889-2.259-2.576-4.868-5.687-1.459-8.728 2.766-2.468 8.284-2.206 11.752-2.208 8.651-.005 17.182 2.004 24.979 5.694-.055.264-.116.528-.158.787m6.761-3.599a1 1 0 0 0-.024.117q0-.015-.014-.022c.011-.032.03-.063.038-.095m20.108 19.233c-.022.332-.05.671-.13.995-.031.127-.166.396-.165.447l-.023.018c-.378-.059-.865-.075-1.204-.154-1.742-.407-3.44-.953-5.211-1.238-3.994-.643-7.767.414-11.689.931-.733.096-2.093.097-2.772-.818.125.168-.131-.665-.17-.923-.113-.762-.152-1.537-.182-2.307-.156-4 .047-8.065.505-12.041a23 23 0 0 1 .427-2.552c.836.139 1.672.287 2.516.379 4.041.445 8.12.371 12.155-.092 1.262-.145 2.516-.354 3.778-.503.017.003.251-.017.42-.032-.055-.026-.091-.056.025-.002.431-.04.032.003.031.001.003.009-.009.004-.014.006l.032.014c-.106-.053.023.025.051.072 1.168 1.953.819 5.439 1.007 7.75.195 2.393.469 4.778.584 7.177.045.951.094 1.92.029 2.872m42.888-13.426c-.854 1.309-2.171 2.287-3.09 3.553a10.8 10.8 0 0 0-1.98 5.071c-.473 3.833.965 7.5 1.455 11.246.456 3.494-.276 7.487-4.478 7.66-3.937.162-7.693-2.648-10.898-4.583l-13.182-7.955c-1.551-.936-3.074-1.918-4.639-2.769.032-.566.027-1.134.023-1.654-.014-1.839-.167-3.674-.335-5.506 3.072-.524 6.191-.783 9.294-.503 1.987.179 4.451.355 6.247 1.31.601.319.901.803.944 1.493.039.627-.161.974-.605 1.412-1.055 1.04-.385 2.654.841 3.14 1.554.616 3.186-.055 4.298-1.152 1.84-1.814 2.185-4.947.707-7.086-1.725-2.496-5.474-3.069-8.247-3.509-4.592-.729-9.272-.497-13.854.272-.071-1.108-.138-2.216-.222-3.324-.006-.082-.021-.167-.028-.25 6.385-2.884 13.202-4.631 20.235-5.054 4.045-.244 8.335-.23 12.307.669 3.176.719 7.634 3.799 5.207 7.519" style="fill:#122a89"/><path d="m116.552 95.917-.01.001-.016.001c.023.011.033.01.043.005z" style="fill:#122a89"/></svg>