<svg xmlns="http://www.w3.org/2000/svg" xml:space="preserve" viewBox="0 0 215 220"><path d="M202.335 95.9a1.24 1.24 0 0 0-1.4-.453c-2.501.854-5.226.625-8.11.381-2.845-.237-5.784-.483-8.634.343l-.002.001c-.465.135-1.102.381-1.805.713.253-.922.322-1.851.085-2.743-.58-2.173-2.124-4.108-4.238-5.309-2.114-1.199-4.565-1.537-6.732-.92-2.889.825-4.51 4.547-5.337 7.353-1.412-2.148-3.625-4.71-6.188-4.811-4.195-.192-8.165 3.347-8.529 7.516-.046.54.032 1.077.181 1.606-1.948.409-3.828 2.017-5.2 3.554-.169-1.574-.63-3.231-1.604-4.319 1.632-2.836 2.344-5.874 2.629-8.217.498-4.108.067-8.283-.419-12.207a1.23 1.23 0 0 0-1.017-1.063 1.24 1.24 0 0 0-1.308.67c-1.438 2.919-3.983 5.07-6.679 7.349-2.617 2.214-5.323 4.502-7.035 7.61l-.044.087c-2.52-2.179-5.597-3.47-8.597-4.69-3.271-1.33-6.359-2.586-8.632-4.912a1.231 1.231 0 0 0-2.088 1.097c.76 3.889 1.65 7.998 3.391 11.732.224.479.49.991.777 1.513-.393.151-.788.3-1.15.511-2.246 1.304-3.045 4.468-3.295 7.189-1.277-1.515-3.045-2.815-5.241-2.595.005-.015.014-.025.019-.04.522-1.681.192-3.839-.839-5.496-.743-1.197-2.186-2.711-4.82-3.127-2.311-.355-4.175 1.002-5.501 2.577-.248-2.721-1.046-5.885-3.293-7.189-.822-.476-1.746-.765-2.704-.932l-.006-.117c-.219-3.522-.428-6.85.683-9.908a1.232 1.232 0 0 0-1.895-1.407c-3.17 2.371-6.487 4.953-9.099 8.149-1.21 1.478-2.552 3.481-3.511 5.853-1.251-.834-2.463-1.446-3.26-1.749-3.317-1.26-6.874-1.253-10.289-1.241-3.524.013-6.862.018-9.849-1.274a1.233 1.233 0 0 0-1.518 1.808c1.996 3.032 4.186 6.172 6.872 8.835-1.732.166-3.399.736-4.411 1.633a7.5 7.5 0 0 0-1.246 1.448c-.486-.217-.967-.447-1.467-.633-2.358-.874-5.823-1.672-9.425-.891-.854-3.332-2.88-5.961-4.552-7.66-2.412-2.45-5.349-4.33-8.151-6.047a1.231 1.231 0 0 0-1.756 1.575c1.128 2.392 1.207 5.124 1.294 8.018.077 2.609.196 5.293 1.085 7.833-4.008.347-7.259 2.497-9.293 4.273-2.583 2.255-4.637 5.076-6.523 7.771a1.235 1.235 0 0 0 .046 1.472 1.23 1.23 0 0 0 1.421.377c2.458-.984 5.188-.9 8.081-.812 2.791.08 5.684.159 8.441-.76.387 2.668 1.527 5.104 2.671 7.456 1.263 2.602 2.458 5.06 2.566 7.701a1.233 1.233 0 0 0 2.287.581c1.686-2.819 3.415-5.846 4.418-9.134.186-.61.36-1.298.506-2.032 1.26.715 2.776.858 4.198.733-1.749 2.101-3.423 4.903-2.754 7.413.577 2.172 2.121 4.107 4.235 5.308 1.419.806 2.99 1.223 4.524 1.222.753 0 1.496-.1 2.206-.302 2.893-.825 4.514-4.546 5.342-7.351 1.412 2.148 3.625 4.71 6.186 4.811.793.038 1.569-.096 2.325-.305-.81 2.016-1.49 4.071-2.118 6.072a1.231 1.231 0 0 0 1.955 1.322c2.516-2.062 5.722-2.969 9.118-3.93 3.3-.932 6.71-1.898 9.553-4.018.684-.51 1.681-1.433 2.655-2.579 1.573 2.017 3.414 3.574 4.984 4.664 3.391 2.355 7.285 3.928 10.987 5.336a1.23 1.23 0 0 0 1.414-.401 1.23 1.23 0 0 0 .022-1.471c-1.093-1.51-1.778-3.239-2.319-5.077.423.148.85.246 1.275.268 3.208.183 5.57-2.305 7.03-4.364.428 1.406 1.025 2.99 1.751 3.99 1.698 2.337 4.221 3.724 6.763 3.724h.079c3.038-.035 5.743-2.246 6.16-5.034.253-1.679-.777-3.484-1.936-4.923 1.47.086 3.125.018 4.563-.413 1.923.578 3.973.264 5.805-.421-.868 2.123-1.304 4.759.024 7.285.82 1.559 2.578 2.851 4.481 3.294a6.8 6.8 0 0 0 1.551.18c1.193 0 2.614-.322 4.065-1.378 1.898-1.381 2.244-3.659 2.068-5.711 2.1 1.749 4.897 3.419 7.413 2.754 2.172-.578 4.106-2.123 5.308-4.235a9.14 9.14 0 0 0 1.195-4.801 5.8 5.8 0 0 0 1.261 1.665c1.075.972 2.742 1.402 4.447 1.402 2.071 0 4.197-.634 5.402-1.7 2.975-2.636 2.831-6.139 1.727-9.083 1.205.493 2.577.831 3.996.803.778 3.054 2.499 5.542 3.972 7.204 2.278 2.575 5.109 4.608 7.814 6.47a1.23 1.23 0 0 0 1.469-.054c.423-.342.575-.921.368-1.425-.998-2.447-.933-5.178-.863-8.07.067-2.852.137-5.802-.861-8.602v-.001c-.223-.628-.669-1.561-1.277-2.545 1.896-.755 3.51-1.793 4.717-2.738 2.703-2.118 4.904-4.824 6.927-7.414.335-.43.347-1.027.032-1.471m-69.186-1.759h.002c1.489-2.708 3.906-4.753 6.467-6.917 1.871-1.584 3.788-3.205 5.349-5.134.255 2.727.366 5.51.038 8.208-.252 2.068-.87 4.741-2.273 7.209-2.105-.656-4.624-.103-6.335 1.57-.282.275-.492.613-.725.931-.638-1.891-1.824-3.741-2.896-5.084.124-.279.247-.556.373-.783M114.74 87.41c2.083 1.35 4.409 2.296 6.681 3.22 3.105 1.263 6.037 2.454 8.295 4.566 1.984 1.853 4.945 6.619 3.644 8.537-.946 1.396-3.636 1.28-5.98.696.034-.995-.11-1.954-.576-2.791-1.092-1.965-3.064-3.462-5.407-4.108a9.3 9.3 0 0 0-3.078-.293c-.416-.7-.773-1.383-1.066-2.013-1.154-2.476-1.902-5.104-2.513-7.814m-34.177-.457c1.734-2.118 3.776-3.931 5.953-5.656-.309 2.415-.162 4.872-.013 7.277a9.5 9.5 0 0 0-1.572.277c-2.345.647-4.317 2.144-5.409 4.109-1.462 2.628.022 6.404 1.421 8.972-1.184-.243-2.561-.419-3.885-.363-.507-1.576-.753-3.328-.714-4.519.137-4.249 2.371-7.836 4.219-10.097m-26.361 3.321c2.436.461 4.94.462 7.403.446 3.346-.004 6.518-.017 9.407 1.08.953.362 2.19 1.051 3.337 1.892a16 16 0 0 0-.468 3.279c-.032.992.086 2.394.408 3.855-1.704.502-3.677.665-4.971.543-4.233-.392-7.68-2.836-9.827-4.817-2.011-1.856-3.699-4.004-5.289-6.278m10.278 12.392c1.415.571 2.951 1.002 4.613 1.157q.503.047 1.133.048c.673 0 1.445-.061 2.241-.164-.436.54-.819 1.117-1.099 1.752-.93-.133-1.89-.179-2.879-.022-1.222.192-2.764.892-4.06 1.584.221-1.3.324-2.859.051-4.355m-30.233-9.415c1.474 1.499 3.267 3.816 3.962 6.698-1.599.719-3.525 1.965-4.684 3.559a14 14 0 0 0-2.396-.535c-.048-.102-.11-.213-.15-.309-.969-2.322-1.046-4.917-1.128-7.666-.053-1.868-.111-3.776-.464-5.635 1.75 1.163 3.405 2.41 4.86 3.888m-3.705 19.381c-.184.08-.373.167-.54.225-2.379.829-4.981.752-7.72.665-1.866-.057-3.774-.114-5.652.129 1.268-1.681 2.612-3.258 4.173-4.62 1.792-1.565 4.654-3.478 8.101-3.703q.222-.014.469-.014c.939 0 2.118.165 3.196.473-.02.172-.001.351.002.527-1.352 1.67-1.894 4.318-2.029 6.318m9.691 8.48c-.604 1.985-1.491 3.857-2.504 5.699-.546-1.81-1.381-3.526-2.196-5.206-1.203-2.474-2.338-4.81-2.557-7.318-.192-2.221.63-6.617 2.314-7.034q.162-.04.332-.04c1.751 0 3.971 3.113 4.671 4.991.06.161.097.323.148.485-.014.054-.042.103-.055.157a6.64 6.64 0 0 0 .556 4.551 17.5 17.5 0 0 1-.709 3.715m2.343-11.97c-.234.022-.464.073-.7.079-.103.003-.231-.009-.343-.011-1.306-2.131-3.469-4.421-5.925-4.407 1.05-1.329 3.194-2.573 4.625-3.011a11.3 11.3 0 0 1 3.329-.48c2.119 0 4.084.524 5.561 1.073.456.169.884.398 1.327.595-.279 1.214-.232 2.462.029 3.671-.382.155-.771.302-1.15.458-.403.167-.798.325-1.196.486-1.439-.17-2.965-.01-4.454.775a5.5 5.5 0 0 0-1.103.772m24.554 20.031c-2.035-.081-4.548-3.869-5.654-6.238a1.232 1.232 0 0 0-2.333.33c-.464 2.96-2.047 7.894-4.31 8.539-1.53.433-3.295.185-4.839-.693s-2.662-2.261-3.071-3.799c-.606-2.275 2.821-6.162 5.125-8.076a1.23 1.23 0 0 0 .262-1.59 1.23 1.23 0 0 0-1.534-.489c-.055.024-5.462 2.251-7.199-.141-1.022-1.403-.993-2.738-.791-3.611.327-1.405 1.26-2.447 2.04-2.857 3.911-2.048 8.769 2.262 8.817 2.305a1.23 1.23 0 0 0 1.768-1.705c-.214-.259-5.238-6.362-1.082-10.045 1.431-1.271 5.303-1.455 6.566-.313 2.196 1.985 1.07 6.718.45 8.373a1.23 1.23 0 0 0 .385 1.396 1.23 1.23 0 0 0 1.445.064c1.025-.677 4.045-2.493 5.7-2.755a7.2 7.2 0 0 1 1.862-.025c-.297 2.267.237 4.651 1.715 6.409.215.255.463.475.73.673-1.422.374-3.397.44-4.778.314-.541-.043-1.097.292-1.28.831-.183.54.029 1.134.51 1.437 2.21 1.396 5.652 4.367 5.477 6.396-.252 2.87-2.972 5.373-5.981 5.27m9.078-13.093c1.124.184 2.306.208 3.385.146-.825 1.024-1.562 2.235-1.841 3.452a19 19 0 0 0-2.585 2.219c-.647-1.598-1.977-3.082-3.261-4.227 1.565-.169 3.213-.626 4.302-1.59m10.187 12.719c-2.48 1.85-5.525 2.711-8.75 3.622-2.362.669-4.777 1.352-6.994 2.463.669-1.943 1.411-3.832 2.327-5.628 1.076-1.031 1.902-2.314 2.311-3.737a19 19 0 0 1 2.802-2.995c.952 2.102 3.218 3.63 5.727 3.659h.084c1.564 0 3.097-.578 4.459-1.527.219.489.465.955.724 1.407-.874 1.123-1.873 2.126-2.69 2.736m2.275-7.788c-1.229 1.692-3.016 2.706-4.825 2.709-1.797-.02-3.516-1.366-3.754-2.938-.202-1.354 2.088-3.973 3.699-5.317a1.233 1.233 0 0 0-1.061-2.148c-2.554.576-7.083.909-8.394-.651-1.857-2.207-1.616-5.997.5-7.953 1.498-1.381 5.953-.481 8.411.41a1.232 1.232 0 0 0 1.417-1.882c-1.763-2.422-4.134-7.029-2.992-9.085.774-1.391 2.201-2.46 3.913-2.932 1.712-.473 3.48-.286 4.858.515 2.037 1.181 2.359 6.353 2.085 9.336-.055.61.344 1.168.94 1.311a1.22 1.22 0 0 0 1.431-.743c.563-1.418 2.756-5.372 5.188-4.988 1.717.269 2.641 1.234 3.115 1.994.762 1.224.839 2.622.577 3.463-1.308 4.208-7.8 4.6-7.865 4.603a1.232 1.232 0 0 0-.045 2.457c.166.015 2.161.211 4.102 1.067.029.446.1.88.225 1.284.623 2.006 1.969 3.372 3.477 4.31-.352 1.897-2.743 4.458-4.355 4.54-2.884.218-5.508-3.993-6.239-5.603a1.25 1.25 0 0 0-1.258-.714c-.532.06-.962.455-1.07.976-.245 1.206-1.098 4.628-2.08 5.979m8.24 9.825c-2.283-1.585-5.208-4.241-6.61-7.977.115-.141.253-.251.361-.4.726-1.001 1.323-2.584 1.751-3.99 1.46 2.059 3.851 4.543 7.03 4.365.258-.013.516-.09.775-.152a7.7 7.7 0 0 0-.089 1.655c.092 1.51 1.04 3.32 2.369 4.748.431 1.884.925 3.772 1.688 5.554-2.565-1.059-5.026-2.242-7.275-3.803m26.685-8.838a1.234 1.234 0 0 0-1.059 2.149c1.611 1.338 3.901 3.954 3.697 5.315-.236 1.572-1.955 2.917-3.754 2.938-1.669-.037-3.593-1.019-4.822-2.709-.981-1.35-1.835-4.773-2.08-5.978a1.233 1.233 0 0 0-2.329-.261c-.719 1.58-3.192 5.606-6.083 5.606q-.076 0-.156-.005c-1.703-.085-4.308-2.95-4.423-4.864-.332-5.54 7.533-6.305 7.87-6.335a1.232 1.232 0 0 0-.045-2.457c-.065-.004-6.554-.396-7.862-4.603-.262-.842-.185-2.239.577-3.465.474-.76 1.397-1.723 3.112-1.993 2.915-.464 5.169 4.934 5.188 4.989a1.233 1.233 0 0 0 2.371-.569c-.274-2.982.051-8.155 2.088-9.336 1.376-.799 3.144-.983 4.858-.516 1.71.471 3.136 1.54 3.911 2.932 1.145 2.058-1.227 6.665-2.99 9.087a1.232 1.232 0 0 0 1.417 1.882c1.2-.436 2.878-.87 4.456-1.042-1.91 2.482-1.402 7.458.48 9.581.043.049.091.081.135.128a20.5 20.5 0 0 1-4.557-.474m1.79-11.386c.595-1.093 1.191-2.407 1.584-3.756 1.073.251 2.204.428 3.306.428 1.457 0 2.829-.305 3.904-1.015.012.094-.001.184.014.278.102.642.347 1.372.654 2.109a16 16 0 0 1-.506 1.781c-.976-.077-2.011-.055-3.022.142-1.834-.565-4.108-.341-5.934.033m34.482 14.431c-.875 1.543-2.261 2.662-3.8 3.071-2.246.61-6.157-2.821-8.074-5.125a1.231 1.231 0 0 0-2.078 1.275c.604 1.401 1.876 5.729-.142 7.197-1.402 1.022-2.735.998-3.61.79-1.405-.327-2.448-1.261-2.86-2.041-2.049-3.9 2.263-8.768 2.307-8.816a1.233 1.233 0 0 0-.916-2.055c-.279 0-.56.095-.789.287-.257.216-6.357 5.237-10.046 1.084-1.27-1.435-1.455-5.302-.313-6.567 1.991-2.196 6.718-1.068 8.375-.449.507.185 1.063.032 1.395-.386s.358-1.002.065-1.447c-.678-1.025-2.492-4.045-2.754-5.699-.327-2.065.245-4.106 1.494-5.326 1.287-1.257 3.451-1.521 4.733-.577 1.102.815 1.332 4.285 1.142 6.375a1.233 1.233 0 0 0 2.268.768c1.395-2.21 4.365-5.62 6.398-5.477 2.869.25 5.38 3.099 5.267 5.978-.079 2.036-3.867 4.551-6.237 5.657a1.23 1.23 0 0 0-.7 1.288c.077.536.493.961 1.029 1.045 2.958.465 7.894 2.047 8.541 4.311.436 1.532.183 3.295-.695 4.839m2.53-6.67c-.534-.862-1.334-1.585-2.261-2.189a21 21 0 0 0 2.444-1.118c-.169.997-.266 2.149-.183 3.307m10.968-9.139a1.227 1.227 0 0 0-1.681.03 1.23 1.23 0 0 0-.087 1.676c.053.064 5.258 6.345 1.082 10.044-1.429 1.272-5.296 1.456-6.564.313-2.198-1.985-1.07-6.718-.45-8.372a1.233 1.233 0 0 0-1.831-1.461c-1.027.677-4.053 2.494-5.7 2.755a7.2 7.2 0 0 1-2.486-.079c2.131-1.413 4.639-3.602 4.742-6.138.144-3.682-2.565-7.205-6.059-8.243-.302-.555-.476-1.093-.434-1.576.25-2.871 3.098-5.369 5.979-5.268 2.035.081 4.551 3.869 5.657 6.238.228.491.748.768 1.289.699.536-.077.96-.494 1.044-1.029.31-1.985 1.765-7.814 4.308-8.539 1.537-.437 3.3-.183 4.839.693 1.544.877 2.665 2.262 3.074 3.8.604 2.275-2.824 6.162-5.125 8.076a1.23 1.23 0 0 0 1.272 2.079c.055-.025 5.462-2.252 7.199.141 1.022 1.405.993 2.739.791 3.611-.327 1.405-1.263 2.447-2.042 2.857-3.908 2.05-8.769-2.264-8.817-2.307m12.487 10.883c-1.25-1.412-2.71-3.501-3.389-6.018.289-.107.577-.229.863-.379 1.559-.819 2.852-2.577 3.295-4.478.058-.247.06-.495.089-.743q.771-.075 1.503-.23c.622.905 1.133 1.867 1.404 2.627.844 2.37.782 4.968.717 7.717-.046 1.868-.089 3.774.164 5.65-1.685-1.258-3.27-2.592-4.646-4.146m8.005-17.271c-1.692 1.326-4.273 2.876-7.301 3.196a7.2 7.2 0 0 0-1.131-2.422c-1.332-1.829-3.507-2.212-5.482-2.078 1.187-1.309 3.446-2.575 4.931-3.005 2.42-.699 5.007-.482 7.747-.255 1.864.155 3.766.311 5.65.173-1.355 1.609-2.781 3.113-4.414 4.391" style="fill:#122a89"/><path d="M64.684 116.105c.631-.537.92-1.41.723-2.216-.192-.782-.892-1.413-1.674-1.571-.413-.084-1.171-.055-1.652.149-.035.015-.057-.707-.618-1.462-.586-.789-1.676-1.018-2.61-.794a2.54 2.54 0 0 0-1.182.672c-.416.428-.621.952-.67 1.539-.014.174.027.342.054.511-.707.214-1.314.7-1.606 1.338-.699 1.088-.165 2.588 1.05 3.075a2.58 2.58 0 0 0 .077 2.126c.417.831 1.272 1.249 2.159 1.332.486.046.939-.29 1.169-.726.122.193.264.374.44.534a3.1 3.1 0 0 0 1.214.7c.452.132.941.13 1.396.019.452-.11.841-.356 1.188-.658.354-.307.585-.723.745-1.156.167-.453.147-.933.063-1.399-.087-.482-.365-.918-.68-1.282-.073-.084-.171-.143-.258-.215.016-.055.059-.095.071-.151.217-.089.42-.211.601-.365m29.413-3.835c.233-.379.367-.866.361-1.311-.009-.596-.234-1.112-.614-1.562-.113-.133-.261-.223-.4-.323.348-.651.434-1.424.19-2.082-.275-1.264-1.713-1.947-2.917-1.432a2.57 2.57 0 0 0-1.558-1.449c-.883-.293-1.782.017-2.468.584-.376.311-.459.869-.314 1.34a2.5 2.5 0 0 0-.688-.066 3.1 3.1 0 0 0-1.353.364 2.7 2.7 0 0 0-1 .973c-.242.398-.343.847-.375 1.305-.033.467.097.925.29 1.344.202.439.555.764.945 1.034.403.279.907.391 1.387.426.111.008.222-.02.334-.031.028.05.026.109.056.157a2.24 2.24 0 0 0 .891 2.762c.689.418 1.63.369 2.295-.072.351-.233.867-.789 1.062-1.274.014-.035.539.46 1.471.597.971.144 1.903-.465 2.405-1.284m27.895 2.743a3.1 3.1 0 0 0-1.353-.364 2.6 2.6 0 0 0-.688.066c.145-.471.063-1.028-.314-1.34-.686-.568-1.586-.877-2.469-.584-.7.233-1.276.768-1.558 1.449-1.204-.515-2.642.168-2.917 1.432-.244.659-.159 1.431.19 2.082-.139.101-.287.191-.4.323-.381.45-.606.965-.614 1.562-.006.445.128.932.361 1.311.502.819 1.434 1.428 2.407 1.284.931-.138 1.456-.632 1.471-.597.195.485.711 1.041 1.062 1.274.665.441 1.606.49 2.295.072a2.24 2.24 0 0 0 .891-2.762c.031-.048.029-.108.056-.157.113.011.223.039.334.031.48-.035.985-.146 1.387-.426.389-.27.743-.595.945-1.034.193-.42.323-.877.29-1.344-.032-.458-.133-.907-.375-1.305a2.73 2.73 0 0 0-1.001-.973m48.516-10.273a2.58 2.58 0 0 0-.077-2.126c-.417-.831-1.272-1.249-2.158-1.332-.486-.046-.939.29-1.169.726a2.6 2.6 0 0 0-.44-.534 3.1 3.1 0 0 0-1.214-.7 2.7 2.7 0 0 0-1.396-.019c-.452.11-.841.356-1.188.658-.354.307-.585.723-.745 1.156-.167.453-.147.933-.063 1.399.087.482.365.918.68 1.282.073.084.171.143.258.214-.015.055-.059.095-.071.151a2.3 2.3 0 0 0-.6.366 2.24 2.24 0 0 0-.723 2.216c.192.782.892 1.413 1.674 1.571.413.084 1.171.055 1.652-.15.035-.015.057.707.618 1.462.586.789 1.676 1.018 2.61.794a2.53 2.53 0 0 0 1.182-.672c.416-.428.621-.951.67-1.539.014-.174-.027-.342-.054-.511.707-.214 1.314-.7 1.607-1.338.696-1.087.162-2.587-1.053-3.074m-21.078 6.154c-.307-.354-.723-.585-1.156-.745-.453-.167-.933-.147-1.399-.063-.482.087-.918.365-1.282.68-.084.073-.143.171-.214.258-.055-.015-.095-.059-.151-.071a2.3 2.3 0 0 0-.366-.6 2.24 2.24 0 0 0-2.216-.723c-.782.192-1.413.892-1.571 1.674-.084.413-.055 1.171.15 1.652.015.035-.707.057-1.462.618-.789.586-1.018 1.676-.794 2.61.104.433.353.872.672 1.182.428.416.951.621 1.539.67.174.014.342-.027.511-.054.214.707.7 1.314 1.338 1.607 1.088.699 2.588.165 3.075-1.05.68.282 1.466.254 2.126-.077.831-.417 1.249-1.272 1.332-2.158.046-.486-.29-.939-.726-1.169.193-.122.374-.264.534-.44a3.1 3.1 0 0 0 .7-1.214 2.7 2.7 0 0 0 .019-1.396c-.111-.456-.357-.844-.659-1.191" style="fill:#122a89"/></svg>