<svg xmlns="http://www.w3.org/2000/svg" xml:space="preserve" viewBox="0 0 215 220"><path d="M186.973 107.893c-.216-8.332-1.199-16.684-3.447-24.725-1.959-7.008-4.939-13.462-8.815-19.211 2.438-5.281 4.009-11.047 4.899-18.034v-.001c.473-3.735.605-8.445-1.465-9.666-.915-.54-2.802-1.233-8.593-1.027-4.713.168-7.878.691-11.674 1.932-4.429 1.449-6.826 2.58-9.782 4.825-.735-.316-1.462-.64-2.215-.931-13.44-5.194-28.27-6.482-42.565-5.889-11.96.496-24.132 2.444-35.253 7.034-3.082-2.384-5.492-3.545-10.056-5.038-3.796-1.241-6.96-1.765-11.674-1.932-5.799-.202-7.68.489-8.593 1.027-2.07 1.222-1.939 5.932-1.465 9.666v.001c.861 6.766 2.359 12.388 4.666 17.534-5.269 7.377-8.962 15.929-10.931 25.21-1.668 7.86-2.19 15.936-1.958 23.957.275 9.476 2.503 18.758 4.648 27.956 2.177 9.339 4.209 18.948 7.358 28.023 1.174 3.383 4.307 6.735 8.177 6.136 4.584-.709 6.492-5.75 6.822-9.853.846-10.52.978-21.083 2.071-31.587.43-4.133.914-8.146 2.567-11.981 1.965-4.558 4.476-8.894 7.518-12.818 8.242-10.633 20.066-17.51 33.524-18.819 14.602-1.42 29.361 2.626 40.537 12.257 4.296 3.702 7.956 8.159 10.948 12.967 2.124 3.414 4.31 7.216 5.209 11.174 2.36 10.389 2.233 21.548 2.87 32.139.188 3.131.049 6.604.824 9.665.786 2.63 1.955 5.919 4.858 6.841 2.296.729 4.733-.269 6.467-1.773 2.521-2.186 3.303-4.732 4.159-7.789 2.931-10.469 5.411-21.096 7.599-31.743 1.753-8.533 2.992-16.811 2.765-25.527m-39.449-61.315c4.102-3.529 6.118-4.661 11.351-6.373 3.483-1.139 6.408-1.621 10.79-1.776 4.515-.162 6.131.253 6.7.507.311.704.494 3.231.069 6.584-.907 7.136-2.539 12.914-5.132 18.182-1.499 3.042-3.094 4.045-3.348 4.105-.861-.383-1.147-2.98-1.284-4.228-.113-1.036-.194-1.783-.467-2.358-.461-.976-1.418-1.184-2.82-1.184-.479 0-1.009.024-1.588.051-.55.025-1.382.06-1.905.044-.131-.583-.169-1.631-.192-2.252-.044-1.182-.081-2.203-.419-2.972a1.6 1.6 0 0 0-1.245-.939c-.68-.095-1.622-.097-2.641-.092-.78.004-2.108.004-2.86-.091-.023-.56.002-1.357.013-1.766a13 13 0 0 0 .008-1.021c-.171-2.416-2.858-2.366-4.328-2.349-1.513.022-1.949-.099-2.014-.122-.229-.567.947-1.635 1.312-1.95M39.452 45.519c-.425-3.353-.242-5.881.069-6.584.569-.254 2.201-.67 6.7-.507 4.382.155 7.306.637 10.79 1.776 5.236 1.712 7.252 2.844 11.351 6.374.365.314 1.541 1.382 1.363 1.895-.115.076-.538.2-2.064.176-1.459-.024-4.157-.068-4.328 2.351-.013.179-.006.556.008 1.02.013.408.035 1.205.015 1.765-.75.094-2.078.089-2.862.091-1.007.002-1.962-.004-2.641.092a1.61 1.61 0 0 0-1.245.939c-.338.768-.375 1.79-.419 2.972-.023.625-.063 1.683-.186 2.251-.519.018-1.355-.019-1.909-.043-2.285-.108-3.792-.174-4.413 1.135-.269.572-.35 1.319-.465 2.351-.135 1.249-.421 3.849-1.128 4.193-.411-.021-2.005-1.024-3.504-4.065-2.593-5.268-4.225-11.045-5.132-18.183m142.859 67.988c-.126 9.287-2.336 18.492-4.348 27.516-1.985 8.903-3.883 18.231-6.712 26.811-.39 1.182-.999 2.248-1.925 3.115-.217.204-.523.585-.824.66-.009.002.227.17-.27-.182-1.443-1.022-1.994-3.207-2.466-4.788-.767-3.032-.632-6.471-.816-9.57-.328-5.505-.63-11.011-1.04-16.511-.364-4.887-.696-9.841-1.62-14.661-.71-3.706-2.464-7.139-4.286-10.416-5.343-9.614-13.344-17.871-23.143-22.959-12.685-6.587-28.084-8.141-41.934-4.752-19.694 4.819-37.577 22.545-40.167 43.069-1.323 10.487-1.58 21.088-2.209 31.63-.084 1.4-.1 2.846-.321 4.233-.132.832-.374 1.596-.693 2.389-.287.712-.616 1.6-1.187 2.134-.445.416.178.351-.447.149-.974-.316-1.812-1.527-2.366-2.324-.619-.891-.396-.497-.656-1.167-.463-1.191-.792-2.446-1.149-3.671-2.936-10.083-5.427-20.321-7.685-30.574-1.81-8.222-3.338-16.3-3.351-24.735-.023-14.389 2.585-29.366 10.24-41.693 1.606 2.369 3.492 3.763 5.156 3.763.396 0 .78-.078 1.142-.239 2.545-1.13 2.918-4.549 3.166-6.81.023-.213.05-.46.077-.685.454.002 1.032.028 1.472.048 2.17.101 3.611.166 4.407-.788.909-1.087.971-2.823 1.034-4.502.01-.272.023-.606.04-.914.336-.005.703-.002 1.059-.003 2.754-.001 4.344-.035 5.293-.889.786-.705.836-1.842.761-4.266l-.002-.057c.236-.015.573-.024 1.067-.015 1.655.029 4.167.072 5.045-2.14.664-1.669.072-3.387-1.724-5.113 13.27-5.244 28.361-6.703 42.362-6.14 10.779.433 21.59 2.396 31.33 6.47-1.535 1.615-2.007 3.22-1.385 4.782.878 2.211 3.392 2.17 5.045 2.141.492-.007.83.001 1.067.015l-.002.058c-.073 2.422-.023 3.558.759 4.264.951.855 2.672.901 5.295.89.359.001.723-.002 1.057.003.019.31.031.643.042.914.063 1.679.125 3.415 1.034 4.503.798.953 2.233.89 4.409.787a39 39 0 0 1 1.47-.048l.079.69c.246 2.26.621 5.675 3.167 6.805q.545.24 1.14.239c1.39 0 2.935-.976 4.342-2.673 7.98 13.496 10.38 29.73 10.171 45.207" style="fill:#122a89"/><path d="M47.752 63.157c.229-2.348 2.479-4.049 4.793-3.719.734.105 1.154-.581 1.118-1.211-.198-3.465 2.975-5.825 6.244-5.169 1.155.232 1.56-1.641.457-2.003a25.2 25.2 0 0 0-6.843-1.217l3.304-1.46c1.018-.45.58-1.775-.347-1.967l-7.039-1.456c1.106-.35 2.249-.58 3.435-.679 1.062-.089 1.086-1.653.18-1.991-3.756-1.4-8.637-3.319-12.625-2.992-.679.078-.302 2.014-.261 3.234.11 3.295.665 6.351 2.144 11.896.435 1.633 1.666 5.563 3.474 9.081.46.897 1.864.692 1.966-.347m108.227-10.099c3.269-.656 6.442 1.704 6.244 5.169-.036.63.384 1.316 1.118 1.211 2.314-.33 4.564 1.371 4.793 3.719.101 1.039 1.506 1.244 1.967.347 1.807-3.518 3.038-7.448 3.474-9.081 1.479-5.545 2.034-8.602 2.144-11.896.041-1.22.418-3.156-.261-3.234-3.988-.327-8.869 1.592-12.625 2.992-.907.338-.882 1.903.18 1.991a15.7 15.7 0 0 1 3.435.679l-7.039 1.456c-.927.192-1.365 1.517-.347 1.967l3.304 1.46a25.2 25.2 0 0 0-6.843 1.217c-1.104.362-.699 2.235.456 2.003" style="fill:#122a89"/><ellipse cx="107.943" cy="60.914" rx="9.598" ry="5.507" style="fill:#122a89"/><path d="m78.597 58.61 11.713 1.051q.074.006.146.006a1.602 1.602 0 0 0 .142-3.196L78.885 55.42a1.58 1.58 0 0 0-1.739 1.452 1.6 1.6 0 0 0 1.451 1.738m17.168 3.418a1.604 1.604 0 0 0-2.085-.884c-7.838 3.174-14.098 4.544-20.933 4.585a1.601 1.601 0 0 0 .01 3.202h.01c7.263-.043 13.877-1.484 22.113-4.819a1.6 1.6 0 0 0 .885-2.084m.178 4.7-12.726 6.763a1.6 1.6 0 1 0 1.5 2.826l12.726-6.763a1.6 1.6 0 1 0-1.5-2.826m29.486-7.061q.072 0 .146-.006l11.713-1.051a1.6 1.6 0 0 0 1.451-1.738A1.595 1.595 0 0 0 137 55.42l-11.713 1.051a1.601 1.601 0 0 0 .142 3.196m17.709 6.062c-6.835-.041-13.095-1.411-20.933-4.585a1.604 1.604 0 0 0-2.085.884 1.603 1.603 0 0 0 .884 2.085c8.236 3.334 14.851 4.776 22.113 4.819h.01a1.602 1.602 0 0 0 .011-3.203m-10.469 7.762-12.726-6.763a1.6 1.6 0 1 0-1.501 2.827l12.726 6.763a1.602 1.602 0 0 0 1.501-2.827" style="fill:#122a89"/></svg>