<svg xmlns="http://www.w3.org/2000/svg" xml:space="preserve" viewBox="0 0 215 220"><path d="M189.638 126.442c-2.23-1.49-4.82-2.581-7.5-3.274-.949-1.611-1.911-3.361-2.046-4.769-.262-2.758-.787-4.308-2.011-5.31-.347-1.157-.74-2.299-1.235-3.405-6.171-13.128-12.82-30.067-27.374-35.902-5.857-2.348-12.083-1.923-18.22-1.265-6.583.705-13.126 2.143-19.743 2.481-6.928.354-13.674-1.276-20.516-2.067-7.103-.821-14.611-1.382-21.661.137-13.768 2.967-21.327 18.474-26.525 30.105-1.302 2.914-3.038 6.025-4.383 9.241-1.036.343-1.828.759-2.329 1.269-3.543 3.606-.913 4.863-3.463 7.973-.56.683-.906 1.505-1.076 2.353-1.839.566-3.647 1.259-5.336 2.145-1.577.827-4.376 2.427-4.221 4.567.16 2.221 3.634 2.598 5.297 2.823 2.729.368 5.498.526 8.241.772 14.235 1.275 28.484 2.386 42.763 3.031 31.996 1.445 64.032.441 95.918-2.482q4.644-.428 9.286-.886c2.673-.265 6.828-.282 8.875-2.377 1.966-2.012-1.178-4.116-2.741-5.16m-43.73-13.026c-.383-1.665-.741-3.238-.154-3.976.359-.45 1.15-.677 2.297-.679 2.398.174 4.788.319 7.604.198a34 34 0 0 0 1.483-.101c1.398-.114 2.1-.152 2.721.29 1.15.813 1.528 3.229 1.806 4.993l1.406 8.23q.04.228.105.491c.215.915.306 1.563-.363 2.215-1.025.998-4.812.797-6.233.718-.394-.02-.663-.033-.868-.033-.998.026-1.919.095-2.761.159-3.772.283-5.19.393-5.713-3.312a87 87 0 0 1-.345-2.894c-.185-1.7-.377-3.457-.738-5.182a51 51 0 0 0-.247-1.117M49.235 95.893c3.391-6.485 7.383-12.726 13.224-17.283 5.711-4.456 13.147-4.521 20.09-4.168 6.728.342 13.274 1.668 19.947 2.423 12.384 1.401 24.301-2.935 36.638-2.744 14.248.221 23.141 12.739 29.028 24.312 2.017 3.964 3.868 8.011 5.759 12.036.164.366.289.75.438 1.123a46 46 0 0 0-1.945-.37c-1.989-.341-5.404-.41-9.872-.329-.358-1.214-.896-2.337-1.806-2.982-1.102-.779-2.256-.685-3.723-.562-.428.035-.897.074-1.42.097-2.497.105-4.537.012-7.486-.198-1.712 0-2.867.408-3.538 1.248-.657.825-.725 1.892-.569 3.076-10.733.457-23.345.964-36.2.966-26.565.004-53.943-2.642-65.999-.875 2.219-5.324 4.774-10.683 7.434-15.77m137.831 35.558c-.964.132-1.934.224-2.903.32-28.085 2.758-56.226 4.31-84.456 3.884-15.168-.229-30.323-1.027-45.445-2.206-5.818-.453-11.632-.963-17.444-1.485-2.464-.221-4.975-.327-7.417-.731-.887-.147-2.861-.323-3.018-1.493-.144-1.077 1.515-1.949 2.257-2.349 4.812-2.593 9.761-2.774 14.998-2.454 5.134.313 10.264.663 15.403.896 25.996 1.177 52.126 1.247 78.13.38 3.192-.106 6.381-.265 9.57-.413.92 1.396 2.32 1.749 4.025 1.749.72 0 1.493-.058 2.301-.119.818-.062 1.714-.13 2.684-.155.14-.015.404.013.749.031 3.055.164 6.054.14 7.371-1.146.419-.407.659-.831.802-1.249l1.673-.087c6.967-.357 13.343-.784 19.487 3.465.601.416 3.004 1.939 2.839 2.833-.01.06-1.043.252-1.606.329" style="fill:#122a89"/><path d="M148.88 116.113c.179.864.278 1.771.375 2.648.057.525.114 1.048.187 1.57.339 2.391 1.562 2.817 3.029 2.817.402 0 .82-.032 1.244-.064.43-.033.899-.068 1.408-.081.055-.006.197.006.371.016 1.578.085 3.342.108 4.183-.708.852-.83.623-1.805.513-2.275l-.785-4.539c-.179-1.145-.424-2.712-1.438-3.428-.688-.49-1.394-.431-2.215-.364-.223.019-.467.039-.738.051-1.432.058-2.617-.012-3.964-.105-1.025 0-1.729.261-2.157.798-.661.83-.396 1.983-.14 3.098z" style="fill:#122a89"/></svg>