<svg xmlns="http://www.w3.org/2000/svg" xml:space="preserve" viewBox="0 0 215 220"><path d="M160.302 119.224c-2.202-.802-4.876-.431-6.661 1.124-1.142.995-2.034 2.287-1.746 3.869.268 1.472 1.493 2.627 2.586 3.538.005.004.016.004.021.008 1.635 1.475 4.068 1.414 6.006.525 1.859-.853 3.519-2.642 3.391-4.8-.123-2.062-1.742-3.587-3.597-4.264m.367 4.844c-.002.093-.002.185-.01.278a3 3 0 0 1-.097.561c-.027.071-.085.21-.094.229-.068.149-.165.284-.235.43q-.092.12-.191.233a4 4 0 0 1-.162.174q-.017.016-.038.032c.022-.014.027-.019.058-.038-.144.091-.27.22-.411.318l-.126.081c-.042.023-.085.047-.106.057a5 5 0 0 1-.267.123 8 8 0 0 0-.41.107l-.054.007q-.1.008-.203.012l-.037-.002c-.083-.006-.164-.019-.247-.028l-.015-.004a3 3 0 0 1-.25-.082l-.061-.024c-.067-.042-.138-.077-.205-.121-.087-.057-.167-.121-.25-.184-.05-.038-.076-.109-.004-.001.095.144-.027-.034-.057-.066-.041-.043-.099-.061-.145-.098-.034-.036-.042-.075-.084-.11-.25-.208-.306-.253-.52-.465q-.305-.3-.578-.631a6 6 0 0 1-.422-.588 5 5 0 0 1-.12-.21c0-.013-.087-.208-.102-.249-.064-.178-.093-.359-.137-.542-.004-.016-.006-.04-.008-.063v-.048c.006-.105.011-.209.027-.314.004-.028.028-.135.042-.199.019-.047.056-.149.069-.176q.063-.136.14-.266l.058-.087.058-.072q.111-.136.234-.262c.039-.04.166-.152.196-.181.14-.107.29-.206.428-.314l.003-.002q.097-.047.196-.09.115-.035.23-.065l.049-.011a5 5 0 0 1 .406-.037h.007c.163.015.326.02.489.043.051.007.109.018.166.027l.116.029q.24.065.474.153c.085.032.168.071.253.102q.027.012.044.022c.331.174.613.396.912.616.013.009-.006-.005 0-.001l.037.041q.084.085.164.176a4 4 0 0 1 .465.645l.033.059c.058.176.139.342.188.523.043.159.07.319.095.482.006.037.007.037.011.053-.001.008-.002.001-.002.018" style="fill:#122a89"/><path d="M193.883 111.855c-.873-1.494-3.315-.836-5.133-.274a254 254 0 0 0-.376-2.472c-.504-3.206-1.23-6.375-2.344-9.426-2.1-5.175-6.66-9.201-10.82-12.745-4.976-4.239-10.326-8.04-15.755-11.671-13.006-8.698-28.824-10.098-44.072-10.255-8.303-.085-16.674.202-24.865 1.657-7.174 1.274-13.212 4.032-19.596 7.454-11.022 5.908-24.598 13.342-28.376 26.226-1.648 5.619-2.515 11.636-2.915 17.565-.69.167-1.317.381-1.591.495-3.501 1.463-6.829 3.671-9.863 5.922-3.083 2.288-6.195 4.993-7.428 8.75-1.373 4.184-.534 8.99 2 12.552 4.58 6.437 14.151 8.263 21.531 8.996 10.132 1.006 20.502-.235 30.566-1.394 11.435-1.317 22.917-3.549 33.854-7.184 1.507-.501 10.241-2.935 12.206-5.781 12.929-.368 25.481-1.994 38.23-4.48 8.485-1.655 17.9-3.139 25.709-7.092 1.788-.905 3.378-1.89 3.924-3.922.318-1.183.499-2.433.586-3.715.06-.018.122-.032.182-.051 2.001-.61 4.622-1.609 5.209-3.876.421-1.62-.023-3.839-.863-5.279m-75.855 27.939c-1.578 1.566-3.816 2.389-5.861 3.199-4 1.585-8.15 2.797-12.31 3.881-10.87 2.832-21.951 4.402-33.122 5.443-8.293.773-16.835 1.41-25.087-.085-8.958-1.623-19.327-6.129-18.224-16.986.494-4.858 4.072-8.058 7.845-10.722a65 65 0 0 1 4.914-3.138c.88-.508 1.77-1.014 2.698-1.429.033-.015.1-.04.182-.071-.924 3.318.002 7.602 1.937 10.324 1.572 2.212 4.32 3.408 6.806 4.24 4.091 1.37 8.455 1.811 12.721 2.308a346 346 0 0 0 16.582 1.512c13.145.892 26.251 1.166 39.416 1.19.615.001 1.318.029 1.514.064.066.052.123.138-.011.27M184.62 126.1c-1.777 1.234-4.113 1.969-6.182 2.643-4.053 1.321-8.209 2.332-12.367 3.258-12.407 2.765-24.994 5.051-37.706 5.674-2.602.128-5.209.188-7.815.247-.848-.436-2.189-.314-2.957-.313-4.79.008-9.571.077-14.361-.036a535 535 0 0 1-23.234-1.04c-4.114-.36-8.225-.751-12.333-1.16-5.287-.525-10.718-.948-15.865-2.331-3.219-.865-6.801-2.225-8.326-5.445-.668-1.411-.853-3.008-.848-4.55.012-3.66.438-7.391.888-11.02.741-5.979 1.576-12.453 4.956-17.59 3.549-5.393 8.845-9.4 14.222-12.835 5.883-3.757 12.288-7.586 18.783-10.163 6.71-2.662 14.209-3.394 21.354-3.803 16.4-.939 35.527-1.031 50.322 7.119 5.797 3.193 11.272 7.372 16.447 11.472 4.83 3.826 10.827 8.414 13.221 14.313 1.385 3.793 2.217 7.829 2.687 11.886-4.839 1.153-9.7 2.214-14.518 3.454-.131.03-.243.058-.303.073-.245.064-.902.25-1.438.522l-.068.037a2 2 0 0 0-.53.383c-.902.657-1.453 1.579-1.496 3.009-.055 1.855.253 3.924 2.122 4.785 1.858.856 4.147.511 6.071.091 2.429-.53 4.824-1.251 7.226-1.892 1.147-.306 2.301-.598 3.452-.899-.058 1.716-.353 3.382-1.404 4.111m4.479-6.69c-.925.612-2.459.729-3.519 1.011l-4.71 1.257c-1.57.419-3.138.849-4.71 1.257-.74.192-1.566.395-2.379.08-1.207-.468-1.638-1.675-1.763-2.866-.067-.633-.1-1.323-.029-1.958.034-.3.091-.608.209-.887.013-.03.024-.045.036-.072 2.847-.72 5.706-1.389 8.568-2.045 1.551-.356 3.103-.711 4.652-1.078a274 274 0 0 0 3.63-.885c.563.72.786 2.153.904 2.862.184 1.108.167 2.626-.889 3.324" style="fill:#122a89"/></svg>