<svg xmlns="http://www.w3.org/2000/svg" xml:space="preserve" viewBox="0 0 215 220"><path d="M70.172 127.499a3.144 3.144 0 1 0 .001 6.289 3.144 3.144 0 0 0-.001-6.289m74.656 0a3.144 3.144 0 1 0 0 6.288 3.144 3.144 0 0 0 0-6.288" style="fill:#122a89"/><path d="M191.308 117.755c-.283-1.329-.749-2.589-1.294-3.811a7.3 7.3 0 0 0 1.179-3.96c0-4.046-3.291-7.337-7.337-7.337-1.468 0-2.83.443-3.978 1.189-1.223-.537-2.485-.993-3.812-1.26a19 19 0 0 0-3.709-.366c-1.175 0-2.309.139-3.42.338.017-.136.047-.267.062-.405.567-5.41-.937-10.588-3.904-14.755 1.156-1.469 1.875-3.297 1.875-5.308 0-4.762-3.873-8.636-8.635-8.636-3.434 0-6.381 2.029-7.772 4.939-1.892-.343-3.787-.554-5.646-.554-5.307 0-9.987 1.428-13.536 4.131-1.767 1.346-3.251 2.993-4.57 4.47.302-1.7.362-3.434.015-5.189-1.212-6.125-6.792-9.334-12.638-7.057-.117-1.114-.456-2.145-1.146-3.092-.807-1.107-2.003-1.899-3.283-2.351-3.164-1.12-7.184-.04-9.365 2.51-.948 1.108-1.506 2.42-1.637 3.768a9.6 9.6 0 0 0-3.101-.748c-3.011-.198-6.775.047-9.296 1.877-1.879 1.364-2.691 3.499-2.883 5.721-3.532-2.636-8.152-4.04-13.391-4.04-1.859 0-3.754.211-5.646.554-1.391-2.909-4.338-4.939-7.772-4.939-4.762 0-8.636 3.874-8.636 8.636 0 2.01.719 3.838 1.875 5.308-2.967 4.167-4.471 9.346-3.903 14.755.014.138.045.269.062.405-1.111-.199-2.246-.338-3.421-.338-1.254 0-2.501.123-3.709.366-1.327.267-2.589.723-3.812 1.26a7.3 7.3 0 0 0-3.978-1.189c-4.046 0-7.337 3.291-7.337 7.337 0 1.461.44 2.815 1.179 3.96-.544 1.221-1.011 2.482-1.294 3.811-1.528 7.173 1.322 16.954 8.737 20.908 2.628 1.401 5.502 2.111 8.545 2.111 4.947 0 9.626-1.828 13.792-4.007a3.74 3.74 0 0 0 1.1 1.79c2.792 2.594 7.461 1.461 10.555.187 5.669-2.334 12.417-4.299 18.767-5.511 12.315-2.351 24.807-2.535 37.211-.742 8.392 1.213 17.188 3.011 24.94 6.589 3.418 1.414 7.437 1.45 10.617-.66.779-.517 1.405-1.163 1.829-1.892 4.277 2.283 9.115 4.246 14.242 4.246 3.043 0 5.917-.71 8.545-2.111 7.412-3.954 10.262-13.735 8.734-20.908m-8.811-10.99a3.5 3.5 0 0 1 1.36-.274c.163 0 .318.026.475.048.308.042.608.109.885.227a3.5 3.5 0 0 1 2.133 3.219 3.5 3.5 0 0 1-2.133 3.219 3.5 3.5 0 0 1-1.36.275 3.494 3.494 0 0 1-1.36-6.714m-7.383 10.068c-.932-1.125-2.277-1.956-3.75-2.365a4.3 4.3 0 0 1 1.844-.429c.814 0 1.571.253 2.25.751 2.129 1.562 3.247 4.464 2.848 7.392-.307 2.254-1.593 6.192-4.465 6.656a6.4 6.4 0 0 1-1.019.081c-2.366 0-4.893-1.265-7.387-2.698.886.171 1.797.261 2.715.261 1.705 0 3.305-.307 4.756-.914 1.743-.728 2.985-2.131 3.407-3.848.415-1.687-.022-3.469-1.199-4.887m-8.562-9.619c.47-.197.959-.351 1.45-.497l.002-.007c.115-.034.226-.08.342-.111.067-.018.13-.047.198-.064a15 15 0 0 1 2.085-.373c.214-.024.43-.025.645-.04.361-.025.722-.067 1.084-.067.155 0 .309.018.463.023q.242.008.483.024a15 15 0 0 1 2.006.244 15 15 0 0 1 1.92.545 7.25 7.25 0 0 0-.709 3.095c0 .351.056.688.104 1.026v.003c-.123-.062-.252-.102-.376-.157-.251-.111-.501-.224-.759-.306-.158-.05-.319-.076-.479-.115-.236-.058-.471-.121-.71-.156-.173-.025-.347-.027-.52-.041-.19-.014-.38-.044-.571-.044-.038 0-.075.009-.113.01-.243.003-.485.035-.728.061-.182.02-.363.027-.543.06-.252.045-.5.12-.75.189-.168.047-.337.079-.504.137-.274.095-.541.223-.808.347-.135.063-.274.11-.408.18q-.596.314-1.157.725c-.759.558-1.699 1.483-2.33 2.524-.316.52-.554 1.069-.654 1.616-.1.546-.061 1.09.178 1.6.13.277.275.427.407.535l.001-.001.034.007a15 15 0 0 0 .434.081l.054.01c.128.021.276.041.43.058l.129.011q.182.016.369.02c.035.001.069.006.104.006l.025-.004c.306-.002.606-.034.84-.132a2.8 2.8 0 0 1 1.065-.199c.01 0 .018-.005.028-.005.313 0 .629.054.94.134.086.022.169.055.254.083q.362.118.689.297c.082.045.166.088.243.139.271.176.522.372.715.604l.003.003c.434.523.551 1.081.41 1.571s-.542.912-1.142 1.163a7.7 7.7 0 0 1-1.412.415q-.18.038-.363.067c-.49.08-.988.133-1.495.134h-.004c-.35 0-.701-.023-1.052-.059-.107-.011-.213-.029-.32-.043a10.3 10.3 0 0 1-1.797-.399q-.17-.051-.337-.108a10 10 0 0 1-.796-.319c-.058-.026-.12-.048-.178-.075a10 10 0 0 1-.911-.494c-.073-.045-.141-.096-.213-.143a8 8 0 0 1-.615-.441 6 6 0 0 1-.26-.221q-.254-.22-.483-.46a7 7 0 0 1-.231-.249 7 7 0 0 1-.28-.35l.007-.008c-.052-.069-.109-.135-.158-.206s-.104-.139-.15-.212a5.6 5.6 0 0 1-.439-.849c-.022-.054-.034-.113-.055-.168a5 5 0 0 1-.22-.753c-.023-.107-.034-.218-.05-.328a5.5 5.5 0 0 1-.051-1.043c.011-.239.043-.484.087-.733.02-.116.033-.231.061-.349.029-.125.084-.258.121-.385l-.025.035a8 8 0 0 1 .258-.778c.561-1.367 1.386-2.53 2.367-3.525.182-.185.375-.356.569-.528q.501-.446 1.049-.833c.211-.149.422-.297.642-.433.4-.246.817-.464 1.242-.668.205-.103.406-.214.619-.303m-1.961-12.154c.304 1.054.511 2.145.611 3.262a17.6 17.6 0 0 1-.026 3.42c-.073.693-.244 1.36-.394 2.031-3.764 1.659-6.75 4.552-8.276 8.266-.877 2.134-1.025 4.289-.492 6.294-2.562 2.065-5.589 3.441-9.104 4.104-.899.17-1.876.302-2.873.41-.281.031-.569.053-.857.077-.802.069-1.622.109-2.452.123-.317.005-.631.022-.951.019q-.265-.005-.53-.014a29 29 0 0 1-2.054-.126c-.102-.01-.205-.014-.308-.026a24 24 0 0 1-2.225-.355q-.26-.055-.518-.116a19 19 0 0 1-2.016-.573c-.054-.019-.111-.032-.165-.052a15 15 0 0 1-2.399-1.138c-.618-.363-1.212-.757-1.747-1.22a9 9 0 0 1-.784-.777 10 10 0 0 1-.654-.801 10 10 0 0 1-.613-.949c-.561-.989-.948-2.085-1.007-3.164a5 5 0 0 1 .056-1.07q.087-.529.308-1.032a4.4 4.4 0 0 1 .695-1.088c.084-.098.179-.173.269-.259.196-.188.403-.358.625-.495a4 4 0 0 1 1.075-.46c.117-.032.229-.072.348-.095q.498-.097 1.022-.106c.036-.001.07-.011.107-.011l.017.002c.346.001.698.06 1.049.108.287 1.142.909 2.173 1.762 3.007l.001.001a2 2 0 0 0-.383.04 1 1 0 0 0-.155.033c-.083.023-.16.062-.238.102-.04.02-.082.035-.119.06a1.2 1.2 0 0 0-.308.298c-.209.292-.334.642-.418.997-.028.118-.07.235-.084.353-.036.291-.032.595.004.902.108.923.505 1.879.982 2.6 1.367 2.066 3.732 2.194 6 2.303q.715.035 1.439.035c.027 0 .053-.005.08-.005.89-.003 1.785-.057 2.677-.149.152-.016.302-.029.453-.048a22 22 0 0 0 2.59-.476q.228-.058.454-.121a18 18 0 0 0 2.509-.873c.107-.047.208-.103.314-.152a15 15 0 0 0 2.435-1.39c2.395-1.712 4.264-4.178 5.76-6.779.499-.867.956-1.749 1.378-2.623.787-1.632 1.434-3.366 1.823-5.148s.523-3.61.284-5.432q-.09-.684-.252-1.383a17.6 17.6 0 0 0-.903-2.785q-.286-.686-.624-1.346c-.114-.222-.243-.431-.365-.647.302.032.596.092.906.092 1.346 0 2.605-.337 3.742-.888.487.701.94 1.426 1.324 2.191.492.971.892 1.988 1.195 3.042m-35.903 10.271c.199-.191.395-.396.594-.583l.857-.813c2.357-2.245 5.029-4.791 7.68-5.342a3 3 0 0 1 .641-.067c1.025 0 1.559.4 1.586 1.188.023.644-.866 1.637-5.226 2.711-2.076.512-3.376 1.668-4.069 3.01-.501-.064-1.006-.139-1.487-.139-.196 0-.383.024-.576.035m25.231-25.116a4.79 4.79 0 0 1 4.416-2.927q.497.001.966.097.469.097.9.279a4.795 4.795 0 0 1-.9 9.111 4.8 4.8 0 0 1-5.382-2.83 4.8 4.8 0 0 1 0-3.73m-1.951 9.561c1.803 1.543 3.434 4.772 3.794 7.511.327 2.485-.265 5.314-1.758 8.409-1.843 3.82-3.777 6.418-5.912 7.945-2.886 2.063-6.638 2.497-9.278 2.497q-.63 0-1.254-.031c-1.194-.058-2.18-.126-2.683-.357a4.7 4.7 0 0 0 2.014-1.456c.021 0 .041.006.061.006a6.7 6.7 0 0 0 1.59-.193c4.19-1.033 14.004-3.451 14.794-12.638.495-5.753-2.939-10.388-7.489-12.883.05-.005.093-.019.144-.023.457-.041.925-.064 1.396-.064 1.408-.001 3.346.22 4.581 1.277m-18.259-4.758.003-.002c.714-.543 1.484-.989 2.276-1.389.237-.119.48-.221.723-.328a17 17 0 0 1 1.842-.691c.249-.077.494-.16.747-.227.858-.226 1.73-.412 2.618-.524h.003a24 24 0 0 1 2.706-.166c.097-.001.192-.018.289-.018.174 0 .344.025.518.029q.998.02 1.984.111c.262.024.522.044.782.076.51.062 1.005.156 1.504.243.006.979.204 1.905.511 2.782l.011.036c-.268-.053-.532-.123-.804-.159-.065-.009-.127-.022-.192-.03a16 16 0 0 0-1.678-.097c-.055 0-.11-.01-.165-.01-.07 0-.138.009-.207.01-.515.006-1.028.025-1.529.07-.789.07-1.532.205-2.237.394-1.294.348-2.447.901-3.523 1.569-.701-.083-1.404-.162-2.098-.162-2.675 0-5.108.627-7.321 1.578 1.014-1.115 2.066-2.203 3.237-3.095m-9.217 11.689c3.315-2.937 6.97-5.501 11.213-6.157.51-.079 1.032-.115 1.559-.136.157-.006.309-.032.468-.033.712-.003 1.438.046 2.184.161h.006c5.102.787 10.063 5.048 9.586 10.596-.258 2.997-2.004 5.004-4.298 6.413-.574.352-1.182.667-1.809.95-1.808.817-3.773 1.369-5.554 1.813-.073.018-.152.041-.224.059h-.001a2.8 2.8 0 0 1-.611.074c-.045.001-.089-.004-.133-.005a3 3 0 0 1-.83-.136l-.06-.024a3.3 3.3 0 0 1-.754-.374l-.025-.015a3.2 3.2 0 0 1-.601-.54l-.062-.067a2.7 2.7 0 0 1-.38-.613q-.024-.051-.045-.102a1.9 1.9 0 0 1-.134-.635q-.001-.055.001-.109a1.4 1.4 0 0 1 .156-.61c.015-.03.036-.057.054-.086.117-.195.279-.377.509-.534l.041-.023-.006-.003c.011-.007.032-.011.043-.018.254-.16.562-.3.957-.397h.001c1.655-.408 3.729-.983 5.371-1.991 1.231-.756 2.219-1.755 2.605-3.109.129-.451.19-.942.172-1.476l-.001-.009a5.4 5.4 0 0 0-.182-1.204c-.033-.126-.086-.237-.128-.357a5 5 0 0 0-.291-.693c-.067-.124-.145-.238-.222-.353a4.4 4.4 0 0 0-1.211-1.243c-.11-.078-.218-.158-.334-.227a5 5 0 0 0-.653-.319c-.107-.045-.208-.1-.318-.138a6 6 0 0 0-1.062-.273c-.02-.003-.041-.002-.06-.005a6.6 6.6 0 0 0-.966-.076c-.029 0-.058.009-.086.009a7 7 0 0 0-1.338.139c-.178.037-.346.105-.521.151-2.353.627-4.457 2.071-6.372 3.724a67 67 0 0 0-2.374 2.178q-.571.545-1.123 1.066c-3.469 3.266-6.645 6.833-9.57 10.592a2 2 0 0 1-.84.616c-.026.011-.053.017-.079.026-.247.091-.524.12-.802.141-.117-1.395-.521-2.692-1.374-3.862a7 7 0 0 0-.785-.902c.475-.587.944-1.179 1.432-1.755a99 99 0 0 1 9.861-10.099m-2.431 21.409a123 123 0 0 0-7.738-.447c.096-.162.191-.323.275-.49.168.011.334.034.503.034 2.071 0 3.851-.821 5.01-2.311.271-.348.549-.677.822-1.018.065 1.469.477 2.907 1.128 4.232m-16.406-45.958.036.003-.003.001zm-1.154 1.465.003-.006c.046-.099.085-.201.132-.3.081-.169.237-.364.315-.546l.01-.013a6 6 0 0 1 .244-.271c-.035.022-.048.034-.094.061.069-.041.135-.1.202-.155-.03.023-.059.043-.092.077l-.015.017c.237-.15.249-.19.162-.136l.051-.04c.03-.021.07-.041.105-.068l.006-.002.051-.02-.033.007.017-.011.077-.023.01-.002.013-.005.006-.002.081-.019-.031-.003.004-.002.035.002q.12-.024.237-.055c-.105.03-.141.038-.211.056l.064.004q.093-.001.156.005c-.034-.013-.043-.015-.085-.032.047.019.1.028.152.04-.008-.003-.041-.005-.067-.008l.017.006a3 3 0 0 0-.173-.012h-.049c.124.011.205.017.232.016.4.154.227.029.008 0 .008-.001.038.001.033-.001q.12.028.233.062c.101.031.2.07.3.104.189.116.386.215.569.344.017.012.168.14.247.194l.045.044c.312.32.549.695.767 1.082.201.483.332.982.383 1.504-.006.251-.02.502-.061.751a5 5 0 0 1-.082.394l-.029.109-.008.02-.05.121q-.078.18-.169.354c-.056.105-.119.205-.178.308-.127.143-.262.282-.389.425l-.164.12c.036-.014.05-.022.094-.037v.001c-.043.015-.085.04-.128.061l-.036.027c-.014.009-.023.011-.036.019l-.055.015-.019.009-.016.001-.059.016.022-.015c-.065.009-.117.015-.167.023q-.119-.008-.238-.022l-.012-.001a5 5 0 0 1-.201-.054c-.111-.034-.219-.077-.328-.116-.201-.12-.403-.232-.593-.371-.084-.061-.341-.357-.155-.109.192.256-.027-.032-.085-.091-.312-.32-.549-.694-.766-1.082a5.2 5.2 0 0 1-.37-1.426c.003-.452.058-.892.161-1.343m2.726 4.611.063-.012-.058.028c-.01.005 0 .001-.008.005l-.023-.003c.005-.005.017-.011.026-.018m-.054.014-.008-.001.045-.01zm-4.019 9.215c.004-.114.003-.228.009-.342a6 6 0 0 1 .103-.832c.031-.162.074-.321.114-.481l.001-.002c.115-.289.237-.571.389-.842.059-.105.143-.211.195-.32l.001-.001c.173-.197.345-.388.524-.581.087-.062.171-.134.256-.195q.084-.059.172-.115l.182-.09q.058-.028.133-.057l.059-.018q.098-.026.197-.049.168-.013.335-.03c.111.008.222.013.332.025.183.02.243.02.261.015.245.074.592.219.687.253.14.107.329.178.478.273q.135.086.266.178c.057.041.289.239.336.271.151.149.301.297.437.46q.308.37.555.782c.028.047.138.286.139.279q.065.144.122.293a6 6 0 0 1 .35 1.545l.001.078a7.2 7.2 0 0 1-.226 1.655c-.012.047-.005.036-.011.061-.012.023-.01.011-.032.056-.046.097-.083.199-.128.297-.086.186-.254.614-.432.783-.012.011-.022.017-.033.03-.089.099-.17.204-.261.302-.071.077-.148.148-.219.225-.103.073-.211.151-.325.224 0 .017-.041.06-.133.099l-.025.01c-.035.025-.075.047-.107.074l-.015.005c.028-.025.048-.039.072-.058-.098.039-.231.093-.304.125q-.091.023-.183.044a10 10 0 0 0-.338.025c-.128-.012-.256-.019-.384-.035l-.021-.005c.032.013.043.015.085.033-.139-.06-.331-.081-.476-.126-.156-.048-.306-.109-.46-.163-.01-.003-.004.002-.013-.001-.196-.066-.446-.258-.592-.356-.074-.049-.412-.33-.457-.353a7 7 0 0 1-.549-.593 6 6 0 0 1-.454-.658q-.04-.068-.077-.137c-.004-.02-.108-.24-.125-.283a6.3 6.3 0 0 1-.406-1.678c-.003-.028-.004-.013-.006-.026-.001-.033 0-.026.001-.073m4.684 4.32c-.014.012-.033.02-.046.032.015-.014.02-.016.035-.028zM89.126 80.476c.109-.664.317-1.953.984-2.31.687-.367 2.191-.259 2.965-.259 2.735.002 4.24 1.76 5.724 3.839.275.386.505.8.769 1.194-.019.021-.042.038-.061.06-2.199 2.57-2.605 6.118-.859 9.04 1.923 3.219 5.929 4.14 9.39 3.476 3.815-.731 7.315-4.018 7.37-8.053-.023-1.663-.434-3.188-1.426-4.55-.564-.774-1.297-1.402-2.107-1.91 1.119-1.523 2.643-3.341 4.328-3.865 1.757-.547 3.33 1.441 4.064 2.773 1.088 1.975 1.343 4.277 1.043 6.484-.628 4.631-3.488 8.927-6.321 12.531-2.232 2.84-4.846 5.248-8.006 6.912-7.676-3.845-14.67-11.078-17.203-19.246-.61-1.965-.991-4.062-.654-6.116m18.666 37.889c.015-.014.021-.016.035-.028l.012-.004c-.015.011-.034.02-.047.032m1.767-2.203c-.012.047-.005.035-.011.061-.012.023-.01.011-.032.056-.046.098-.083.199-.128.297-.086.186-.254.614-.432.782-.012.011-.022.017-.033.03-.089.099-.17.204-.261.302-.071.077-.148.148-.219.225-.103.073-.211.151-.325.224 0 .017-.041.06-.133.099l-.025.01c-.035.025-.075.047-.107.074l-.015.005c.028-.025.048-.039.072-.058-.098.039-.232.093-.305.125q-.091.024-.182.044a10 10 0 0 0-.337.025c-.128-.012-.257-.019-.385-.035l-.021-.005c.032.013.043.015.085.033-.139-.06-.331-.081-.476-.126-.156-.048-.306-.109-.46-.163-.01-.004-.004.002-.013-.001-.196-.067-.446-.258-.591-.356-.074-.049-.412-.33-.457-.353a7 7 0 0 1-.549-.593 6 6 0 0 1-.454-.658q-.04-.068-.077-.137c-.004-.02-.108-.24-.125-.283a6.3 6.3 0 0 1-.406-1.678c-.003-.028-.004-.013-.006-.026.001-.029.003-.022.004-.07.004-.114.003-.228.009-.342a6 6 0 0 1 .103-.832c.031-.162.074-.321.114-.481v-.002a7 7 0 0 1 .39-.843c.059-.105.143-.211.195-.32l.001-.001c.173-.197.345-.388.524-.581.087-.062.171-.134.256-.195q.085-.059.172-.115l.182-.09q.058-.028.133-.057l.059-.018q.098-.026.197-.049.168-.013.335-.03c.111.008.222.013.332.025.183.02.243.02.261.015.245.074.592.219.687.253.14.107.329.178.478.272q.135.086.266.178c.057.041.289.239.337.271.151.148.301.297.437.46q.308.37.555.782c.028.047.138.286.139.279q.065.144.122.293a6 6 0 0 1 .35 1.545l.001.078a7.5 7.5 0 0 1-.231 1.655M86.712 93.717a38 38 0 0 0 3.395 4.868c3.055 3.733 6.834 7.082 11.075 9.49-.615.431-1.191.911-1.674 1.475a8.1 8.1 0 0 0-1.61 2.961 100 100 0 0 0-4.556-5.451 86 86 0 0 0-4.989-5.111c-2.815-2.651-5.998-5.938-9.868-6.969-.175-.047-.343-.114-.521-.151a7 7 0 0 0-1.338-.139c-.029 0-.058-.009-.086-.009q-.496.002-.976.076c-.017.003-.034.001-.051.004a6 6 0 0 0-1.064.273c-.109.038-.208.092-.313.137a5 5 0 0 0-.657.322c-.116.068-.222.148-.332.225a4.5 4.5 0 0 0-1.212 1.247c-.076.115-.154.228-.22.351a5 5 0 0 0-.292.695c-.041.119-.094.23-.127.355-.1.379-.168.78-.183 1.213-.056 1.603.611 2.814 1.64 3.744s2.421 1.58 3.817 2.062c.931.321 1.863.567 2.69.771.396.097.704.237.958.398.011.007.031.01.042.018l-.006.003.04.022c.23.157.392.34.51.536.017.028.038.056.053.084a1.44 1.44 0 0 1 .157.72 1.9 1.9 0 0 1-.134.637l-.044.1a2.7 2.7 0 0 1-.381.615l-.061.066a3.3 3.3 0 0 1-.601.541l-.025.015c-.23.155-.485.281-.754.374l-.06.024a3 3 0 0 1-.83.135c-.045.001-.088.006-.133.006a2.8 2.8 0 0 1-.612-.074 57 57 0 0 1-1.896-.498c-4.528-1.28-9.538-3.493-9.989-8.738-.179-2.08.407-3.98 1.478-5.583 1.785-2.672 4.919-4.521 8.108-5.013h.003a14 14 0 0 1 2.186-.161c.159.001.311.027.468.033.527.021 1.049.057 1.559.135 2.688.415 5.137 1.605 7.416 3.166m11.708 24.411c-1.948.158-3.877.353-5.786.573.823-1.48 1.358-3.129 1.433-4.819.273.342.552.671.823 1.019.765.983 1.818 1.642 3.029 1.999q.194.627.501 1.228m-12.108-12.797c-.192-.011-.379-.035-.576-.035-.481 0-.986.075-1.487.139-.693-1.342-1.992-2.499-4.069-3.011-4.36-1.074-5.248-2.067-5.226-2.711.027-.788.561-1.188 1.586-1.188q.318 0 .641.067c2.652.552 5.324 3.098 7.682 5.344l.855.811c.199.188.395.392.594.584M64.785 84.914c.307-.876.505-1.803.511-2.782.499-.087.994-.182 1.504-.243.26-.031.519-.051.781-.076q.986-.091 1.985-.111c.174-.003.344-.029.518-.029.097 0 .192.017.289.018.905.01 1.811.053 2.706.166h.003c.888.112 1.76.299 2.618.524.253.066.497.15.746.227q.944.293 1.843.691c.242.107.485.208.721.327.794.4 1.565.847 2.28 1.391.497.379.974.793 1.436 1.228.464.438.912.898 1.352 1.369.031.112.071.222.104.334-2.118-.866-4.441-1.415-6.974-1.415-.694 0-1.397.079-2.098.162-1.076-.668-2.229-1.22-3.523-1.569a13 13 0 0 0-2.237-.394 20 20 0 0 0-1.53-.07c-.07-.001-.137-.01-.207-.01-.055 0-.11.009-.165.01-.559.005-1.121.032-1.678.097-.065.008-.128.021-.193.03-.272.036-.535.106-.803.159zm-1.752 4.862c1.235-1.057 3.173-1.278 4.581-1.278.471 0 .939.024 1.396.064.05.004.094.018.143.023-4.55 2.495-7.984 7.13-7.49 12.883.789 9.187 10.604 11.605 14.795 12.638a6.7 6.7 0 0 0 1.589.193c.021 0 .041-.006.062-.006a4.7 4.7 0 0 0 2.013 1.456c-.503.232-1.49.299-2.684.357q-.623.03-1.253.031c-2.64 0-6.392-.433-9.278-2.497-2.135-1.527-4.069-4.126-5.912-7.945-1.493-3.095-2.085-5.924-1.758-8.409.361-2.737 1.992-5.966 3.796-7.51m-9.756-11.084a4.78 4.78 0 0 1 3.389-1.404q.497.001.966.097.469.097.9.279a4.797 4.797 0 0 1 1.523 7.805 4.8 4.8 0 0 1-2.423 1.306 5 5 0 0 1-.966.097c-.365 0-.717-.049-1.059-.126a4.8 4.8 0 0 1-2.33-1.277 4.78 4.78 0 0 1-1.404-3.389c0-1.323.537-2.521 1.404-3.388m-2.341 14.816a18 18 0 0 1 1.988-3.68c1.137.552 2.396.888 3.742.888.31 0 .604-.06.906-.092-.843 1.494-1.513 3.148-1.891 4.779q-.162.699-.253 1.383c-.12.911-.146 1.824-.094 2.731.156 2.723 1.02 5.4 2.201 7.848 1.686 3.495 3.945 7.119 7.138 9.402.766.548 1.588.996 2.434 1.39.106.049.208.106.316.153.81.356 1.652.639 2.509.873q.226.063.454.121 1.278.315 2.59.476c.152.019.302.032.453.048.892.092 1.787.147 2.677.149.027 0 .053.005.08.005q.724 0 1.439-.035.426-.02.853-.046a15 15 0 0 0 1.682-.187q.41-.073.803-.186a5.2 5.2 0 0 0 1.467-.669c.449-.304.854-.7 1.195-1.216.477-.721.874-1.677.982-2.6.036-.308.04-.612.005-.902-.058-.472-.223-.961-.502-1.35a1.2 1.2 0 0 0-.307-.297c-.038-.026-.081-.041-.121-.061a1.4 1.4 0 0 0-.236-.101q-.076-.02-.156-.033a2 2 0 0 0-.241-.033q-.07-.005-.141-.007l.001-.001c.853-.835 1.474-1.865 1.762-3.007.351-.048.703-.107 1.049-.108l.017-.002c.036 0 .07.01.106.011q.524.009 1.023.106c.12.023.231.063.348.095q.377.103.727.27.178.087.348.19c.223.137.429.307.626.495.09.086.185.161.269.259.264.308.504.658.695 1.088 1.189 2.678-.678 6.047-2.695 7.793l-.002.002c-.534.462-1.128.855-1.744 1.218a15 15 0 0 1-2.399 1.138c-.054.02-.112.033-.167.052-.65.229-1.326.414-2.014.573q-.259.062-.519.116c-.73.149-1.472.272-2.224.354-.102.011-.206.016-.309.026q-1.024.099-2.053.126-.266.01-.531.014c-.32.004-.633-.013-.951-.019a36 36 0 0 1-2.451-.123c-.29-.025-.572-.046-.857-.077a38 38 0 0 1-2.873-.41q-3.302-.622-6.043-2.068a19 19 0 0 1-3.06-2.035c.532-2.004.385-4.16-.492-6.294-1.525-3.713-4.511-6.606-8.275-8.265-.15-.672-.321-1.338-.394-2.032-.306-2.9.115-5.699 1.11-8.236m-11.244 12.836c.658-.132 1.33-.202 2.005-.244q.241-.016.482-.023c.155-.005.308-.023.463-.023.362 0 .722.042 1.084.067.215.015.431.016.645.04.703.079 1.4.198 2.084.373.072.018.139.049.21.068.112.03.219.074.331.107l.002.007c.49.146.978.3 1.448.497.214.09.417.201.626.301.424.203.839.42 1.237.665.221.137.434.285.646.435q.545.386 1.044.829c1.239 1.098 2.272 2.434 2.938 4.056.109.265.185.522.259.779l-.025-.036c.038.128.092.26.121.386.027.118.04.231.06.347.043.249.075.495.087.734q.009.187.005.371a5 5 0 0 1-.056.672c-.016.11-.028.221-.05.328q-.083.389-.22.753c-.02.055-.033.114-.055.168a5.6 5.6 0 0 1-.438.847c-.047.076-.104.145-.155.219-.048.069-.103.134-.154.202l.006.007a7 7 0 0 1-.279.35 7.5 7.5 0 0 1-.714.709q-.128.113-.261.222a8 8 0 0 1-.611.438c-.074.048-.143.101-.218.147a9 9 0 0 1-.909.492c-.06.028-.124.051-.185.078q-.386.174-.789.316-.169.057-.341.109a12 12 0 0 1-1.057.276q-.366.074-.735.122c-.107.014-.214.033-.322.044-.351.036-.702.059-1.052.059h-.004a9.2 9.2 0 0 1-1.858-.202 7.7 7.7 0 0 1-1.41-.415h-.001c-.6-.251-1.001-.673-1.142-1.163a1.5 1.5 0 0 1-.011-.773c.066-.266.203-.537.42-.798.194-.233.446-.431.719-.608.077-.05.16-.093.243-.138q.327-.18.69-.298c.085-.028.167-.061.254-.083.311-.08.628-.134.94-.134.01 0 .018.005.028.005.374.003.738.063 1.065.199.233.098.534.13.84.132l.025.004c.035 0 .069-.005.104-.006a6 6 0 0 0 .37-.02l.127-.011c.154-.017.303-.037.431-.058l.047-.008a10 10 0 0 0 .44-.082l.035-.007q.002 0 .001.001a1.4 1.4 0 0 0 .408-.535 2.4 2.4 0 0 0 .216-.786c.054-.536-.061-1.09-.284-1.631-.557-1.353-1.789-2.624-2.738-3.322a9 9 0 0 0-1.158-.725c-.133-.071-.272-.117-.408-.18-.267-.124-.534-.252-.808-.347-.166-.058-.335-.09-.503-.137-.25-.069-.498-.145-.75-.19-.18-.032-.361-.04-.543-.06-.243-.026-.485-.058-.729-.061-.038-.001-.075-.01-.113-.01-.191 0-.381.03-.572.044-.173.013-.347.015-.519.04-.24.035-.476.098-.713.157-.158.039-.319.064-.476.114-.261.082-.513.197-.767.309-.122.054-.248.093-.368.154v-.003c.048-.338.104-.675.104-1.026 0-1.11-.266-2.151-.709-3.095a15 15 0 0 1 1.92-.541m-.15 8.446a3.73 3.73 0 0 1 2.25-.751 4.3 4.3 0 0 1 1.844.429c-1.473.409-2.817 1.24-3.751 2.365-1.177 1.42-1.614 3.201-1.198 4.888.422 1.716 1.664 3.119 3.407 3.847 1.451.606 3.051.914 4.756.914.918 0 1.829-.09 2.716-.261-2.493 1.433-5.021 2.698-7.387 2.698q-.52 0-1.019-.081c-2.872-.464-4.159-4.403-4.466-6.656-.398-2.928.72-5.83 2.848-7.392m-10.351-7.703a3.5 3.5 0 0 1 1.479-.549c.157-.022.312-.048.475-.048a3.5 3.5 0 0 1 1.953.596 3.498 3.498 0 0 1-.593 6.116 3.48 3.48 0 0 1-2.744-.013 3.49 3.49 0 0 1-2.109-3.206 3.48 3.48 0 0 1 1.539-2.896m28.225 23.339c-.314.507-.855.937-1.336 1.219-.498.292-1.009.582-1.525.87l-.445.245q-.63.345-1.272.677-.195.103-.391.203-.807.41-1.633.789l-.376.166a37 37 0 0 1-1.834.76 29 29 0 0 1-1.729.604c-.574.178-1.153.327-1.733.461-.163.038-.327.07-.491.104q-.699.144-1.4.237c-.137.018-.273.042-.41.057q-.876.098-1.753.104c-.038 0-.076.007-.114.007-.122 0-.243-.017-.365-.02a15 15 0 0 1-1.089-.06c-.192-.018-.383-.045-.574-.071a14 14 0 0 1-1.022-.178q-.288-.06-.576-.131a14 14 0 0 1-1.069-.328c-.166-.057-.333-.106-.499-.17a14 14 0 0 1-1.538-.698l-.006-.003c-2.099-1.119-3.757-2.913-4.941-5.032-1.185-2.119-1.897-4.562-2.106-6.981-.139-1.613-.055-3.215.262-4.702.142-.668.345-1.318.574-1.957.95.45 2 .722 3.119.722.824 0 1.603-.167 2.342-.419a12.45 12.45 0 0 0-.6 5.798c.145 1.067.405 2.174.786 3.246 1.142 3.216 3.374 6.12 6.874 6.686q.824.132 1.633.13c.024 0 .048-.005.073-.005.16-.001.317-.025.477-.033.391-.02.781-.046 1.166-.106.209-.032.415-.082.622-.125.332-.068.665-.14.993-.232.219-.062.435-.133.652-.204a18 18 0 0 0 1.581-.596q.462-.198.918-.416.31-.146.617-.299.47-.239.934-.49c.188-.102.377-.201.563-.305q.517-.29 1.025-.585l.45-.259 1.35-.793a3 3 0 0 1 .866-.319c.102-.023.212-.023.318-.038.18-.025.356-.064.541-.064.04 0 .075.018.114.02.253.008.493.065.731.126.125.032.254.04.369.087.338.139.64.335.848.621.429.589.343 1.173.029 1.68m-2.091-6.378q-.27 0-.538.018c.937-.644 1.723-1.426 2.402-2.275 2.335 1.757 4.976 3.067 7.935 3.888a39 39 0 0 0-3.973 2.045 5.4 5.4 0 0 0-.654-1.237c-1.126-1.55-3.011-2.439-5.172-2.439M66.814 136c-2.159.827-5.881 2.589-6.596-.933-.315-1.552.8-3.088 1.814-4.129 1.92-1.971 4.456-3.376 7.115-4.475 1.905.273 3.836.456 5.696.456 3.608 0 6.825-.54 9.577-1.553a3.5 3.5 0 0 0-.067.661 3.494 3.494 0 0 0 6.987 0 3.49 3.49 0 0 0-2.205-3.241c.186-.146.387-.28.565-.434.392-.339.768-.721 1.132-1.123 3.116-.397 6.252-.69 9.403-.832a7.8 7.8 0 0 0 2.226 1.26 5.3 5.3 0 0 0-.824 2.819c0 1.712.822 3.219 2.078 4.193-12.54.443-25.263 2.876-36.901 7.331m85.035.68c-12.593-5.814-27.804-7.784-41.505-8.079h-.054c1.208-.976 1.996-2.451 1.996-4.125a5.28 5.28 0 0 0-1.346-3.506c.284-.162.555-.344.822-.534 4.335.207 8.63.629 12.855 1.255.225.226.449.458.683.66.178.154.378.288.565.434a3.49 3.49 0 0 0 1.289 6.735 3.493 3.493 0 0 0 3.493-3.494q-.002-.339-.067-.661c2.752 1.013 5.968 1.553 9.576 1.553 1.312 0 2.664-.083 4.017-.22 1.503.648 2.974 1.357 4.378 2.17 1.91 1.105 4.02 2.477 5.287 4.336.441.648.857 1.42.941 2.215.261 2.446-1.135 2.003-2.93 1.261m2.654-10.194c-.117.162-.198.337-.296.507a37 37 0 0 0-3.245-1.658 23.3 23.3 0 0 0 6.849-3.544c.678.849 1.464 1.632 2.402 2.275a8 8 0 0 0-.537-.018c-2.161 0-4.046.888-5.173 2.438m29.861 5.75c-.998 1.242-2.201 2.288-3.6 3.034-.511.272-1.026.5-1.543.7-.166.064-.332.113-.498.17-.356.123-.712.236-1.07.328q-.287.071-.575.131-.51.109-1.023.178c-.191.026-.382.053-.574.071a15 15 0 0 1-1.09.06c-.122.003-.243.02-.364.02-.038 0-.076-.007-.114-.007a17 17 0 0 1-1.753-.104c-.138-.015-.274-.039-.412-.057a20 20 0 0 1-1.398-.237q-.247-.05-.493-.105a24 24 0 0 1-1.731-.46l-.031-.01a30 30 0 0 1-1.698-.594q-.25-.096-.499-.196a35 35 0 0 1-1.333-.563c-.127-.057-.255-.11-.381-.168a47 47 0 0 1-1.63-.787l-.399-.207a60 60 0 0 1-1.718-.924q-.751-.419-1.479-.844l-.038-.022c-.481-.282-1.022-.712-1.336-1.219a1.8 1.8 0 0 1-.188-.394 1.33 1.33 0 0 1-.022-.782 1.5 1.5 0 0 1 .238-.505l.005-.004c.208-.283.507-.48.843-.618.116-.048.245-.055.37-.087.238-.061.478-.118.731-.126.039-.001.074-.02.114-.02.185 0 .361.039.541.064.106.015.216.015.318.038a3 3 0 0 1 .867.319l1.35.793q.222.129.447.257.51.297 1.031.588.277.153.557.302.465.253.938.492c.205.104.412.201.619.3a25 25 0 0 0 1.564.679c.309.121.621.228.935.332.217.071.433.143.652.204.328.093.66.164.992.232.207.043.413.093.623.125.385.059.775.086 1.166.106.159.008.317.033.477.034.024 0 .048.005.073.005q.808.002 1.633-.13c2.917-.472 4.953-2.567 6.211-5.113.755-1.528 1.231-3.219 1.449-4.818a13 13 0 0 0 .114-1.559 12.4 12.4 0 0 0-.713-4.239c.74.251 1.519.419 2.342.419a7.26 7.26 0 0 0 3.119-.722c.228.639.431 1.288.573 1.956.946 4.465-.196 9.958-3.189 13.684" style="fill:#122a89"/><path d="M107.961 91.698q.077-.056.158-.109c-.001-.018-.068.017-.208.129zm-1.28.175c-.33-.133-.207-.033 0 0m-1.03-19.68-.071.029c.035-.008.12-.032.175-.047q-.053.006-.104.018m1.638 6.023.035-.01.127-.061.034-.024a2 2 0 0 0-.233.097c.014-.002.023-.001.037-.002m-1.534-6.041.02-.004h.024l-.024-.002zm.029-.008-.025-.002-.008.002.025.002zm2.177 46.082q.077-.056.158-.109c-.001-.018-.068.017-.208.129zm-1.28.174c-.33-.133-.207-.033 0 0" style="fill:#122a89"/></svg>